<?xml version="1.0" encoding="utf-8" standalone="no"?>
<!DOCTYPE svg PUBLIC "-//W3C//DTD SVG 1.1//EN"
  "http://www.w3.org/Graphics/SVG/1.1/DTD/svg11.dtd">
<!-- Created with matplotlib (https://matplotlib.org/) -->
<svg height="288pt" version="1.1" viewBox="0 0 576 288" width="576pt" xmlns="http://www.w3.org/2000/svg" xmlns:xlink="http://www.w3.org/1999/xlink">
 <metadata>
  <rdf:RDF xmlns:cc="http://creativecommons.org/ns#" xmlns:dc="http://purl.org/dc/elements/1.1/" xmlns:rdf="http://www.w3.org/1999/02/22-rdf-syntax-ns#">
   <cc:Work>
    <dc:type rdf:resource="http://purl.org/dc/dcmitype/StillImage"/>
    <dc:date>2021-02-23T19:56:52.365178</dc:date>
    <dc:format>image/svg+xml</dc:format>
    <dc:creator>
     <cc:Agent>
      <dc:title>Matplotlib v3.3.4, https://matplotlib.org/</dc:title>
     </cc:Agent>
    </dc:creator>
   </cc:Work>
  </rdf:RDF>
 </metadata>
 <defs>
  <style type="text/css">*{stroke-linecap:butt;stroke-linejoin:round;}</style>
 </defs>
 <g id="figure_1">
  <g id="patch_1">
   <path d="M 0 288 
L 576 288 
L 576 0 
L 0 0 
z
" style="fill:#ffffff;"/>
  </g>
  <g id="axes_1">
   <g id="patch_2">
    <path d="M 64.01 245.32 
L 508.75 245.32 
L 508.75 35.58496 
L 64.01 35.58496 
z
" style="fill:#ffffff;"/>
   </g>
   <g id="matplotlib.axis_1">
    <g id="xtick_1">
     <g id="line2d_1">
      <defs>
       <path d="M 0 0 
L 0 3.5 
" id="m07a0031518" style="stroke:#000000;stroke-width:0.8;"/>
      </defs>
      <g>
       <use style="stroke:#000000;stroke-width:0.8;" x="64.01" xlink:href="#m07a0031518" y="245.32"/>
      </g>
     </g>
     <g id="text_1">
      <!-- 0 -->
      <g transform="translate(60.82875 259.918437)scale(0.1 -0.1)">
       <defs>
        <path d="M 31.78125 66.40625 
Q 24.171875 66.40625 20.328125 58.90625 
Q 16.5 51.421875 16.5 36.375 
Q 16.5 21.390625 20.328125 13.890625 
Q 24.171875 6.390625 31.78125 6.390625 
Q 39.453125 6.390625 43.28125 13.890625 
Q 47.125 21.390625 47.125 36.375 
Q 47.125 51.421875 43.28125 58.90625 
Q 39.453125 66.40625 31.78125 66.40625 
z
M 31.78125 74.21875 
Q 44.046875 74.21875 50.515625 64.515625 
Q 56.984375 54.828125 56.984375 36.375 
Q 56.984375 17.96875 50.515625 8.265625 
Q 44.046875 -1.421875 31.78125 -1.421875 
Q 19.53125 -1.421875 13.0625 8.265625 
Q 6.59375 17.96875 6.59375 36.375 
Q 6.59375 54.828125 13.0625 64.515625 
Q 19.53125 74.21875 31.78125 74.21875 
z
" id="DejaVuSans-48"/>
       </defs>
       <use xlink:href="#DejaVuSans-48"/>
      </g>
     </g>
    </g>
    <g id="xtick_2">
     <g id="line2d_2">
      <g>
       <use style="stroke:#000000;stroke-width:0.8;" x="151.213922" xlink:href="#m07a0031518" y="245.32"/>
      </g>
     </g>
     <g id="text_2">
      <!-- 200 -->
      <g transform="translate(141.670172 259.918437)scale(0.1 -0.1)">
       <defs>
        <path d="M 19.1875 8.296875 
L 53.609375 8.296875 
L 53.609375 0 
L 7.328125 0 
L 7.328125 8.296875 
Q 12.9375 14.109375 22.625 23.890625 
Q 32.328125 33.6875 34.8125 36.53125 
Q 39.546875 41.84375 41.421875 45.53125 
Q 43.3125 49.21875 43.3125 52.78125 
Q 43.3125 58.59375 39.234375 62.25 
Q 35.15625 65.921875 28.609375 65.921875 
Q 23.96875 65.921875 18.8125 64.3125 
Q 13.671875 62.703125 7.8125 59.421875 
L 7.8125 69.390625 
Q 13.765625 71.78125 18.9375 73 
Q 24.125 74.21875 28.421875 74.21875 
Q 39.75 74.21875 46.484375 68.546875 
Q 53.21875 62.890625 53.21875 53.421875 
Q 53.21875 48.921875 51.53125 44.890625 
Q 49.859375 40.875 45.40625 35.40625 
Q 44.1875 33.984375 37.640625 27.21875 
Q 31.109375 20.453125 19.1875 8.296875 
z
" id="DejaVuSans-50"/>
       </defs>
       <use xlink:href="#DejaVuSans-50"/>
       <use x="63.623047" xlink:href="#DejaVuSans-48"/>
       <use x="127.246094" xlink:href="#DejaVuSans-48"/>
      </g>
     </g>
    </g>
    <g id="xtick_3">
     <g id="line2d_3">
      <g>
       <use style="stroke:#000000;stroke-width:0.8;" x="238.417843" xlink:href="#m07a0031518" y="245.32"/>
      </g>
     </g>
     <g id="text_3">
      <!-- 400 -->
      <g transform="translate(228.874093 259.918437)scale(0.1 -0.1)">
       <defs>
        <path d="M 37.796875 64.3125 
L 12.890625 25.390625 
L 37.796875 25.390625 
z
M 35.203125 72.90625 
L 47.609375 72.90625 
L 47.609375 25.390625 
L 58.015625 25.390625 
L 58.015625 17.1875 
L 47.609375 17.1875 
L 47.609375 0 
L 37.796875 0 
L 37.796875 17.1875 
L 4.890625 17.1875 
L 4.890625 26.703125 
z
" id="DejaVuSans-52"/>
       </defs>
       <use xlink:href="#DejaVuSans-52"/>
       <use x="63.623047" xlink:href="#DejaVuSans-48"/>
       <use x="127.246094" xlink:href="#DejaVuSans-48"/>
      </g>
     </g>
    </g>
    <g id="xtick_4">
     <g id="line2d_4">
      <g>
       <use style="stroke:#000000;stroke-width:0.8;" x="325.621765" xlink:href="#m07a0031518" y="245.32"/>
      </g>
     </g>
     <g id="text_4">
      <!-- 600 -->
      <g transform="translate(316.078015 259.918437)scale(0.1 -0.1)">
       <defs>
        <path d="M 33.015625 40.375 
Q 26.375 40.375 22.484375 35.828125 
Q 18.609375 31.296875 18.609375 23.390625 
Q 18.609375 15.53125 22.484375 10.953125 
Q 26.375 6.390625 33.015625 6.390625 
Q 39.65625 6.390625 43.53125 10.953125 
Q 47.40625 15.53125 47.40625 23.390625 
Q 47.40625 31.296875 43.53125 35.828125 
Q 39.65625 40.375 33.015625 40.375 
z
M 52.59375 71.296875 
L 52.59375 62.3125 
Q 48.875 64.0625 45.09375 64.984375 
Q 41.3125 65.921875 37.59375 65.921875 
Q 27.828125 65.921875 22.671875 59.328125 
Q 17.53125 52.734375 16.796875 39.40625 
Q 19.671875 43.65625 24.015625 45.921875 
Q 28.375 48.1875 33.59375 48.1875 
Q 44.578125 48.1875 50.953125 41.515625 
Q 57.328125 34.859375 57.328125 23.390625 
Q 57.328125 12.15625 50.6875 5.359375 
Q 44.046875 -1.421875 33.015625 -1.421875 
Q 20.359375 -1.421875 13.671875 8.265625 
Q 6.984375 17.96875 6.984375 36.375 
Q 6.984375 53.65625 15.1875 63.9375 
Q 23.390625 74.21875 37.203125 74.21875 
Q 40.921875 74.21875 44.703125 73.484375 
Q 48.484375 72.75 52.59375 71.296875 
z
" id="DejaVuSans-54"/>
       </defs>
       <use xlink:href="#DejaVuSans-54"/>
       <use x="63.623047" xlink:href="#DejaVuSans-48"/>
       <use x="127.246094" xlink:href="#DejaVuSans-48"/>
      </g>
     </g>
    </g>
    <g id="xtick_5">
     <g id="line2d_5">
      <g>
       <use style="stroke:#000000;stroke-width:0.8;" x="412.825686" xlink:href="#m07a0031518" y="245.32"/>
      </g>
     </g>
     <g id="text_5">
      <!-- 800 -->
      <g transform="translate(403.281936 259.918437)scale(0.1 -0.1)">
       <defs>
        <path d="M 31.78125 34.625 
Q 24.75 34.625 20.71875 30.859375 
Q 16.703125 27.09375 16.703125 20.515625 
Q 16.703125 13.921875 20.71875 10.15625 
Q 24.75 6.390625 31.78125 6.390625 
Q 38.8125 6.390625 42.859375 10.171875 
Q 46.921875 13.96875 46.921875 20.515625 
Q 46.921875 27.09375 42.890625 30.859375 
Q 38.875 34.625 31.78125 34.625 
z
M 21.921875 38.8125 
Q 15.578125 40.375 12.03125 44.71875 
Q 8.5 49.078125 8.5 55.328125 
Q 8.5 64.0625 14.71875 69.140625 
Q 20.953125 74.21875 31.78125 74.21875 
Q 42.671875 74.21875 48.875 69.140625 
Q 55.078125 64.0625 55.078125 55.328125 
Q 55.078125 49.078125 51.53125 44.71875 
Q 48 40.375 41.703125 38.8125 
Q 48.828125 37.15625 52.796875 32.3125 
Q 56.78125 27.484375 56.78125 20.515625 
Q 56.78125 9.90625 50.3125 4.234375 
Q 43.84375 -1.421875 31.78125 -1.421875 
Q 19.734375 -1.421875 13.25 4.234375 
Q 6.78125 9.90625 6.78125 20.515625 
Q 6.78125 27.484375 10.78125 32.3125 
Q 14.796875 37.15625 21.921875 38.8125 
z
M 18.3125 54.390625 
Q 18.3125 48.734375 21.84375 45.5625 
Q 25.390625 42.390625 31.78125 42.390625 
Q 38.140625 42.390625 41.71875 45.5625 
Q 45.3125 48.734375 45.3125 54.390625 
Q 45.3125 60.0625 41.71875 63.234375 
Q 38.140625 66.40625 31.78125 66.40625 
Q 25.390625 66.40625 21.84375 63.234375 
Q 18.3125 60.0625 18.3125 54.390625 
z
" id="DejaVuSans-56"/>
       </defs>
       <use xlink:href="#DejaVuSans-56"/>
       <use x="63.623047" xlink:href="#DejaVuSans-48"/>
       <use x="127.246094" xlink:href="#DejaVuSans-48"/>
      </g>
     </g>
    </g>
    <g id="xtick_6">
     <g id="line2d_6">
      <g>
       <use style="stroke:#000000;stroke-width:0.8;" x="500.029608" xlink:href="#m07a0031518" y="245.32"/>
      </g>
     </g>
     <g id="text_6">
      <!-- 1000 -->
      <g transform="translate(487.304608 259.918437)scale(0.1 -0.1)">
       <defs>
        <path d="M 12.40625 8.296875 
L 28.515625 8.296875 
L 28.515625 63.921875 
L 10.984375 60.40625 
L 10.984375 69.390625 
L 28.421875 72.90625 
L 38.28125 72.90625 
L 38.28125 8.296875 
L 54.390625 8.296875 
L 54.390625 0 
L 12.40625 0 
z
" id="DejaVuSans-49"/>
       </defs>
       <use xlink:href="#DejaVuSans-49"/>
       <use x="63.623047" xlink:href="#DejaVuSans-48"/>
       <use x="127.246094" xlink:href="#DejaVuSans-48"/>
       <use x="190.869141" xlink:href="#DejaVuSans-48"/>
      </g>
     </g>
    </g>
    <g id="text_7">
     <!-- $x$ location -->
     <g transform="translate(261.98 273.596563)scale(0.1 -0.1)">
      <defs>
       <path d="M 60.015625 54.6875 
L 34.90625 27.875 
L 50.296875 0 
L 39.984375 0 
L 28.421875 21.6875 
L 8.296875 0 
L -2.59375 0 
L 24.3125 28.8125 
L 10.015625 54.6875 
L 20.3125 54.6875 
L 30.8125 34.90625 
L 49.125 54.6875 
z
" id="DejaVuSans-Oblique-120"/>
       <path id="DejaVuSans-32"/>
       <path d="M 9.421875 75.984375 
L 18.40625 75.984375 
L 18.40625 0 
L 9.421875 0 
z
" id="DejaVuSans-108"/>
       <path d="M 30.609375 48.390625 
Q 23.390625 48.390625 19.1875 42.75 
Q 14.984375 37.109375 14.984375 27.296875 
Q 14.984375 17.484375 19.15625 11.84375 
Q 23.34375 6.203125 30.609375 6.203125 
Q 37.796875 6.203125 41.984375 11.859375 
Q 46.1875 17.53125 46.1875 27.296875 
Q 46.1875 37.015625 41.984375 42.703125 
Q 37.796875 48.390625 30.609375 48.390625 
z
M 30.609375 56 
Q 42.328125 56 49.015625 48.375 
Q 55.71875 40.765625 55.71875 27.296875 
Q 55.71875 13.875 49.015625 6.21875 
Q 42.328125 -1.421875 30.609375 -1.421875 
Q 18.84375 -1.421875 12.171875 6.21875 
Q 5.515625 13.875 5.515625 27.296875 
Q 5.515625 40.765625 12.171875 48.375 
Q 18.84375 56 30.609375 56 
z
" id="DejaVuSans-111"/>
       <path d="M 48.78125 52.59375 
L 48.78125 44.1875 
Q 44.96875 46.296875 41.140625 47.34375 
Q 37.3125 48.390625 33.40625 48.390625 
Q 24.65625 48.390625 19.8125 42.84375 
Q 14.984375 37.3125 14.984375 27.296875 
Q 14.984375 17.28125 19.8125 11.734375 
Q 24.65625 6.203125 33.40625 6.203125 
Q 37.3125 6.203125 41.140625 7.25 
Q 44.96875 8.296875 48.78125 10.40625 
L 48.78125 2.09375 
Q 45.015625 0.34375 40.984375 -0.53125 
Q 36.96875 -1.421875 32.421875 -1.421875 
Q 20.0625 -1.421875 12.78125 6.34375 
Q 5.515625 14.109375 5.515625 27.296875 
Q 5.515625 40.671875 12.859375 48.328125 
Q 20.21875 56 33.015625 56 
Q 37.15625 56 41.109375 55.140625 
Q 45.0625 54.296875 48.78125 52.59375 
z
" id="DejaVuSans-99"/>
       <path d="M 34.28125 27.484375 
Q 23.390625 27.484375 19.1875 25 
Q 14.984375 22.515625 14.984375 16.5 
Q 14.984375 11.71875 18.140625 8.90625 
Q 21.296875 6.109375 26.703125 6.109375 
Q 34.1875 6.109375 38.703125 11.40625 
Q 43.21875 16.703125 43.21875 25.484375 
L 43.21875 27.484375 
z
M 52.203125 31.203125 
L 52.203125 0 
L 43.21875 0 
L 43.21875 8.296875 
Q 40.140625 3.328125 35.546875 0.953125 
Q 30.953125 -1.421875 24.3125 -1.421875 
Q 15.921875 -1.421875 10.953125 3.296875 
Q 6 8.015625 6 15.921875 
Q 6 25.140625 12.171875 29.828125 
Q 18.359375 34.515625 30.609375 34.515625 
L 43.21875 34.515625 
L 43.21875 35.40625 
Q 43.21875 41.609375 39.140625 45 
Q 35.0625 48.390625 27.6875 48.390625 
Q 23 48.390625 18.546875 47.265625 
Q 14.109375 46.140625 10.015625 43.890625 
L 10.015625 52.203125 
Q 14.9375 54.109375 19.578125 55.046875 
Q 24.21875 56 28.609375 56 
Q 40.484375 56 46.34375 49.84375 
Q 52.203125 43.703125 52.203125 31.203125 
z
" id="DejaVuSans-97"/>
       <path d="M 18.3125 70.21875 
L 18.3125 54.6875 
L 36.8125 54.6875 
L 36.8125 47.703125 
L 18.3125 47.703125 
L 18.3125 18.015625 
Q 18.3125 11.328125 20.140625 9.421875 
Q 21.96875 7.515625 27.59375 7.515625 
L 36.8125 7.515625 
L 36.8125 0 
L 27.59375 0 
Q 17.1875 0 13.234375 3.875 
Q 9.28125 7.765625 9.28125 18.015625 
L 9.28125 47.703125 
L 2.6875 47.703125 
L 2.6875 54.6875 
L 9.28125 54.6875 
L 9.28125 70.21875 
z
" id="DejaVuSans-116"/>
       <path d="M 9.421875 54.6875 
L 18.40625 54.6875 
L 18.40625 0 
L 9.421875 0 
z
M 9.421875 75.984375 
L 18.40625 75.984375 
L 18.40625 64.59375 
L 9.421875 64.59375 
z
" id="DejaVuSans-105"/>
       <path d="M 54.890625 33.015625 
L 54.890625 0 
L 45.90625 0 
L 45.90625 32.71875 
Q 45.90625 40.484375 42.875 44.328125 
Q 39.84375 48.1875 33.796875 48.1875 
Q 26.515625 48.1875 22.3125 43.546875 
Q 18.109375 38.921875 18.109375 30.90625 
L 18.109375 0 
L 9.078125 0 
L 9.078125 54.6875 
L 18.109375 54.6875 
L 18.109375 46.1875 
Q 21.34375 51.125 25.703125 53.5625 
Q 30.078125 56 35.796875 56 
Q 45.21875 56 50.046875 50.171875 
Q 54.890625 44.34375 54.890625 33.015625 
z
" id="DejaVuSans-110"/>
      </defs>
      <use transform="translate(0 0.015625)" xlink:href="#DejaVuSans-Oblique-120"/>
      <use transform="translate(59.179688 0.015625)" xlink:href="#DejaVuSans-32"/>
      <use transform="translate(90.966797 0.015625)" xlink:href="#DejaVuSans-108"/>
      <use transform="translate(118.75 0.015625)" xlink:href="#DejaVuSans-111"/>
      <use transform="translate(179.931641 0.015625)" xlink:href="#DejaVuSans-99"/>
      <use transform="translate(234.912109 0.015625)" xlink:href="#DejaVuSans-97"/>
      <use transform="translate(296.191406 0.015625)" xlink:href="#DejaVuSans-116"/>
      <use transform="translate(335.400391 0.015625)" xlink:href="#DejaVuSans-105"/>
      <use transform="translate(363.183594 0.015625)" xlink:href="#DejaVuSans-111"/>
      <use transform="translate(424.365234 0.015625)" xlink:href="#DejaVuSans-110"/>
     </g>
    </g>
   </g>
   <g id="matplotlib.axis_2">
    <g id="ytick_1">
     <g id="line2d_7">
      <defs>
       <path d="M 0 0 
L -3.5 0 
" id="mf7fc8032cc" style="stroke:#0000ff;stroke-width:0.8;"/>
      </defs>
      <g>
       <use style="fill:#0000ff;stroke:#0000ff;stroke-width:0.8;" x="64.01" xlink:href="#mf7fc8032cc" y="232.807398"/>
      </g>
     </g>
     <g id="text_8">
      <!-- −1.75 -->
      <g style="fill:#0000ff;" transform="translate(26.364688 236.606617)scale(0.1 -0.1)">
       <defs>
        <path d="M 10.59375 35.5 
L 73.1875 35.5 
L 73.1875 27.203125 
L 10.59375 27.203125 
z
" id="DejaVuSans-8722"/>
        <path d="M 10.6875 12.40625 
L 21 12.40625 
L 21 0 
L 10.6875 0 
z
" id="DejaVuSans-46"/>
        <path d="M 8.203125 72.90625 
L 55.078125 72.90625 
L 55.078125 68.703125 
L 28.609375 0 
L 18.3125 0 
L 43.21875 64.59375 
L 8.203125 64.59375 
z
" id="DejaVuSans-55"/>
        <path d="M 10.796875 72.90625 
L 49.515625 72.90625 
L 49.515625 64.59375 
L 19.828125 64.59375 
L 19.828125 46.734375 
Q 21.96875 47.46875 24.109375 47.828125 
Q 26.265625 48.1875 28.421875 48.1875 
Q 40.625 48.1875 47.75 41.5 
Q 54.890625 34.8125 54.890625 23.390625 
Q 54.890625 11.625 47.5625 5.09375 
Q 40.234375 -1.421875 26.90625 -1.421875 
Q 22.3125 -1.421875 17.546875 -0.640625 
Q 12.796875 0.140625 7.71875 1.703125 
L 7.71875 11.625 
Q 12.109375 9.234375 16.796875 8.0625 
Q 21.484375 6.890625 26.703125 6.890625 
Q 35.15625 6.890625 40.078125 11.328125 
Q 45.015625 15.765625 45.015625 23.390625 
Q 45.015625 31 40.078125 35.4375 
Q 35.15625 39.890625 26.703125 39.890625 
Q 22.75 39.890625 18.8125 39.015625 
Q 14.890625 38.140625 10.796875 36.28125 
z
" id="DejaVuSans-53"/>
       </defs>
       <use xlink:href="#DejaVuSans-8722"/>
       <use x="83.789062" xlink:href="#DejaVuSans-49"/>
       <use x="147.412109" xlink:href="#DejaVuSans-46"/>
       <use x="179.199219" xlink:href="#DejaVuSans-55"/>
       <use x="242.822266" xlink:href="#DejaVuSans-53"/>
      </g>
     </g>
    </g>
    <g id="ytick_2">
     <g id="line2d_8">
      <g>
       <use style="fill:#0000ff;stroke:#0000ff;stroke-width:0.8;" x="64.01" xlink:href="#mf7fc8032cc" y="205.99468"/>
      </g>
     </g>
     <g id="text_9">
      <!-- −1.50 -->
      <g style="fill:#0000ff;" transform="translate(26.364688 209.793899)scale(0.1 -0.1)">
       <use xlink:href="#DejaVuSans-8722"/>
       <use x="83.789062" xlink:href="#DejaVuSans-49"/>
       <use x="147.412109" xlink:href="#DejaVuSans-46"/>
       <use x="179.199219" xlink:href="#DejaVuSans-53"/>
       <use x="242.822266" xlink:href="#DejaVuSans-48"/>
      </g>
     </g>
    </g>
    <g id="ytick_3">
     <g id="line2d_9">
      <g>
       <use style="fill:#0000ff;stroke:#0000ff;stroke-width:0.8;" x="64.01" xlink:href="#mf7fc8032cc" y="179.181962"/>
      </g>
     </g>
     <g id="text_10">
      <!-- −1.25 -->
      <g style="fill:#0000ff;" transform="translate(26.364688 182.981181)scale(0.1 -0.1)">
       <use xlink:href="#DejaVuSans-8722"/>
       <use x="83.789062" xlink:href="#DejaVuSans-49"/>
       <use x="147.412109" xlink:href="#DejaVuSans-46"/>
       <use x="179.199219" xlink:href="#DejaVuSans-50"/>
       <use x="242.822266" xlink:href="#DejaVuSans-53"/>
      </g>
     </g>
    </g>
    <g id="ytick_4">
     <g id="line2d_10">
      <g>
       <use style="fill:#0000ff;stroke:#0000ff;stroke-width:0.8;" x="64.01" xlink:href="#mf7fc8032cc" y="152.369244"/>
      </g>
     </g>
     <g id="text_11">
      <!-- −1.00 -->
      <g style="fill:#0000ff;" transform="translate(26.364688 156.168462)scale(0.1 -0.1)">
       <use xlink:href="#DejaVuSans-8722"/>
       <use x="83.789062" xlink:href="#DejaVuSans-49"/>
       <use x="147.412109" xlink:href="#DejaVuSans-46"/>
       <use x="179.199219" xlink:href="#DejaVuSans-48"/>
       <use x="242.822266" xlink:href="#DejaVuSans-48"/>
      </g>
     </g>
    </g>
    <g id="ytick_5">
     <g id="line2d_11">
      <g>
       <use style="fill:#0000ff;stroke:#0000ff;stroke-width:0.8;" x="64.01" xlink:href="#mf7fc8032cc" y="125.556525"/>
      </g>
     </g>
     <g id="text_12">
      <!-- −0.75 -->
      <g style="fill:#0000ff;" transform="translate(26.364688 129.355744)scale(0.1 -0.1)">
       <use xlink:href="#DejaVuSans-8722"/>
       <use x="83.789062" xlink:href="#DejaVuSans-48"/>
       <use x="147.412109" xlink:href="#DejaVuSans-46"/>
       <use x="179.199219" xlink:href="#DejaVuSans-55"/>
       <use x="242.822266" xlink:href="#DejaVuSans-53"/>
      </g>
     </g>
    </g>
    <g id="ytick_6">
     <g id="line2d_12">
      <g>
       <use style="fill:#0000ff;stroke:#0000ff;stroke-width:0.8;" x="64.01" xlink:href="#mf7fc8032cc" y="98.743807"/>
      </g>
     </g>
     <g id="text_13">
      <!-- −0.50 -->
      <g style="fill:#0000ff;" transform="translate(26.364688 102.543026)scale(0.1 -0.1)">
       <use xlink:href="#DejaVuSans-8722"/>
       <use x="83.789062" xlink:href="#DejaVuSans-48"/>
       <use x="147.412109" xlink:href="#DejaVuSans-46"/>
       <use x="179.199219" xlink:href="#DejaVuSans-53"/>
       <use x="242.822266" xlink:href="#DejaVuSans-48"/>
      </g>
     </g>
    </g>
    <g id="ytick_7">
     <g id="line2d_13">
      <g>
       <use style="fill:#0000ff;stroke:#0000ff;stroke-width:0.8;" x="64.01" xlink:href="#mf7fc8032cc" y="71.931089"/>
      </g>
     </g>
     <g id="text_14">
      <!-- −0.25 -->
      <g style="fill:#0000ff;" transform="translate(26.364688 75.730308)scale(0.1 -0.1)">
       <use xlink:href="#DejaVuSans-8722"/>
       <use x="83.789062" xlink:href="#DejaVuSans-48"/>
       <use x="147.412109" xlink:href="#DejaVuSans-46"/>
       <use x="179.199219" xlink:href="#DejaVuSans-50"/>
       <use x="242.822266" xlink:href="#DejaVuSans-53"/>
      </g>
     </g>
    </g>
    <g id="ytick_8">
     <g id="line2d_14">
      <g>
       <use style="fill:#0000ff;stroke:#0000ff;stroke-width:0.8;" x="64.01" xlink:href="#mf7fc8032cc" y="45.118371"/>
      </g>
     </g>
     <g id="text_15">
      <!-- 0.00 -->
      <g style="fill:#0000ff;" transform="translate(34.744375 48.91759)scale(0.1 -0.1)">
       <use xlink:href="#DejaVuSans-48"/>
       <use x="63.623047" xlink:href="#DejaVuSans-46"/>
       <use x="95.410156" xlink:href="#DejaVuSans-48"/>
       <use x="159.033203" xlink:href="#DejaVuSans-48"/>
      </g>
     </g>
    </g>
    <g id="text_16">
     <!-- $u(x)$ in mm -->
     <g style="fill:#0000ff;" transform="translate(20.285 168.00248)rotate(-90)scale(0.1 -0.1)">
      <defs>
       <path d="M 6.6875 21.6875 
L 13.09375 54.6875 
L 22.125 54.6875 
L 15.71875 22.015625 
Q 15.234375 19.625 15.015625 17.921875 
Q 14.796875 16.21875 14.796875 15.09375 
Q 14.796875 10.9375 17.328125 8.65625 
Q 19.875 6.390625 24.515625 6.390625 
Q 31.734375 6.390625 37 11.265625 
Q 42.28125 16.15625 43.890625 24.421875 
L 49.90625 54.6875 
L 58.890625 54.6875 
L 48.296875 0 
L 39.3125 0 
L 41.109375 8.59375 
Q 37.3125 3.8125 32.0625 1.1875 
Q 26.8125 -1.421875 20.90625 -1.421875 
Q 13.71875 -1.421875 9.71875 2.515625 
Q 5.71875 6.453125 5.71875 13.484375 
Q 5.71875 14.9375 5.953125 17.140625 
Q 6.203125 19.34375 6.6875 21.6875 
z
" id="DejaVuSans-Oblique-117"/>
       <path d="M 31 75.875 
Q 24.46875 64.65625 21.28125 53.65625 
Q 18.109375 42.671875 18.109375 31.390625 
Q 18.109375 20.125 21.3125 9.0625 
Q 24.515625 -2 31 -13.1875 
L 23.1875 -13.1875 
Q 15.875 -1.703125 12.234375 9.375 
Q 8.59375 20.453125 8.59375 31.390625 
Q 8.59375 42.28125 12.203125 53.3125 
Q 15.828125 64.359375 23.1875 75.875 
z
" id="DejaVuSans-40"/>
       <path d="M 8.015625 75.875 
L 15.828125 75.875 
Q 23.140625 64.359375 26.78125 53.3125 
Q 30.421875 42.28125 30.421875 31.390625 
Q 30.421875 20.453125 26.78125 9.375 
Q 23.140625 -1.703125 15.828125 -13.1875 
L 8.015625 -13.1875 
Q 14.5 -2 17.703125 9.0625 
Q 20.90625 20.125 20.90625 31.390625 
Q 20.90625 42.671875 17.703125 53.65625 
Q 14.5 64.65625 8.015625 75.875 
z
" id="DejaVuSans-41"/>
       <path d="M 52 44.1875 
Q 55.375 50.25 60.0625 53.125 
Q 64.75 56 71.09375 56 
Q 79.640625 56 84.28125 50.015625 
Q 88.921875 44.046875 88.921875 33.015625 
L 88.921875 0 
L 79.890625 0 
L 79.890625 32.71875 
Q 79.890625 40.578125 77.09375 44.375 
Q 74.3125 48.1875 68.609375 48.1875 
Q 61.625 48.1875 57.5625 43.546875 
Q 53.515625 38.921875 53.515625 30.90625 
L 53.515625 0 
L 44.484375 0 
L 44.484375 32.71875 
Q 44.484375 40.625 41.703125 44.40625 
Q 38.921875 48.1875 33.109375 48.1875 
Q 26.21875 48.1875 22.15625 43.53125 
Q 18.109375 38.875 18.109375 30.90625 
L 18.109375 0 
L 9.078125 0 
L 9.078125 54.6875 
L 18.109375 54.6875 
L 18.109375 46.1875 
Q 21.1875 51.21875 25.484375 53.609375 
Q 29.78125 56 35.6875 56 
Q 41.65625 56 45.828125 52.96875 
Q 50 49.953125 52 44.1875 
z
" id="DejaVuSans-109"/>
      </defs>
      <use transform="translate(0 0.015625)" xlink:href="#DejaVuSans-Oblique-117"/>
      <use transform="translate(63.378906 0.015625)" xlink:href="#DejaVuSans-40"/>
      <use transform="translate(102.392578 0.015625)" xlink:href="#DejaVuSans-Oblique-120"/>
      <use transform="translate(161.572266 0.015625)" xlink:href="#DejaVuSans-41"/>
      <use transform="translate(200.585938 0.015625)" xlink:href="#DejaVuSans-32"/>
      <use transform="translate(232.373047 0.015625)" xlink:href="#DejaVuSans-105"/>
      <use transform="translate(260.15625 0.015625)" xlink:href="#DejaVuSans-110"/>
      <use transform="translate(323.535156 0.015625)" xlink:href="#DejaVuSans-32"/>
      <use transform="translate(355.322266 0.015625)" xlink:href="#DejaVuSans-109"/>
      <use transform="translate(452.734375 0.015625)" xlink:href="#DejaVuSans-109"/>
     </g>
    </g>
   </g>
   <g id="line2d_15">
    <path clip-path="url(#p59eb1a25f0)" d="M 64.01 45.118371 
L 68.370196 45.146876 
L 72.730392 45.232009 
L 77.090588 45.373199 
L 81.450784 45.569873 
L 85.81098 45.82146 
L 90.171176 46.127387 
L 94.531373 46.487083 
L 98.891569 46.899975 
L 103.251765 47.365491 
L 107.611961 47.88306 
L 111.972157 48.452109 
L 116.332353 49.072067 
L 120.692549 49.742361 
L 125.052745 50.46242 
L 129.412941 51.231671 
L 133.773137 52.049542 
L 138.133333 52.915462 
L 142.493529 53.828858 
L 146.853725 54.789158 
L 151.213922 55.795791 
L 155.574118 56.848184 
L 159.934314 57.945766 
L 164.29451 59.087964 
L 168.654706 60.274206 
L 173.014902 61.503921 
L 177.375098 62.776536 
L 181.735294 64.091479 
L 186.09549 65.448179 
L 190.455686 66.846063 
L 194.815882 68.284559 
L 199.176078 69.763096 
L 203.536275 71.281101 
L 207.896471 72.838002 
L 212.256667 74.433228 
L 216.616863 76.066206 
L 220.977059 77.736364 
L 225.337255 79.443131 
L 229.697451 81.185934 
L 234.057647 82.964201 
L 238.417843 84.77736 
L 242.778039 86.62484 
L 247.138235 88.506068 
L 251.498431 90.420472 
L 255.858627 92.367481 
L 260.218824 94.346521 
L 264.57902 96.357023 
L 268.939216 98.398412 
L 273.299412 100.470117 
L 277.659608 102.571567 
L 282.019804 104.702189 
L 286.38 106.861411 
L 290.740196 109.048662 
L 295.100392 111.263368 
L 299.460588 113.504959 
L 303.820784 115.772863 
L 308.18098 118.066506 
L 312.541176 120.385317 
L 316.901373 122.728725 
L 321.261569 125.096157 
L 325.621765 127.487041 
L 329.981961 129.900805 
L 334.342157 132.336878 
L 338.702353 134.794687 
L 343.062549 137.273659 
L 347.422745 139.773224 
L 351.782941 142.29281 
L 356.143137 144.831843 
L 360.503333 147.389752 
L 364.863529 149.965966 
L 369.223725 152.559912 
L 373.583922 155.171018 
L 377.944118 157.798712 
L 382.304314 160.442422 
L 386.66451 163.101576 
L 391.024706 165.775603 
L 395.384902 168.463929 
L 399.745098 171.165984 
L 404.105294 173.881195 
L 408.46549 176.60899 
L 412.825686 179.348797 
L 417.185882 182.100044 
L 421.546078 184.862159 
L 425.906275 187.63457 
L 430.266471 190.416705 
L 434.626667 193.207993 
L 438.986863 196.00786 
L 443.347059 198.815736 
L 447.707255 201.631047 
L 452.067451 204.453223 
L 456.427647 207.28169 
L 460.787843 210.115878 
L 465.148039 212.955214 
L 469.508235 215.799126 
L 473.868431 218.647042 
L 478.228627 221.498389 
L 482.588824 224.352597 
L 486.94902 227.209093 
L 491.309216 230.067305 
L 495.669412 232.926661 
L 500.029608 235.786589 
" style="fill:none;stroke:#0000ff;stroke-linecap:square;stroke-width:1.5;"/>
   </g>
   <g id="line2d_16">
    <path clip-path="url(#p59eb1a25f0)" d="M 64.01 45.118371 
L 68.370196 45.118371 
L 72.730392 45.174999 
L 77.090588 45.287684 
L 81.450784 45.455854 
L 85.81098 45.678935 
L 90.171176 45.956358 
L 94.531373 46.287548 
L 98.891569 46.671936 
L 103.251765 47.108947 
L 107.611961 47.598011 
L 111.972157 48.138555 
L 116.332353 48.730008 
L 120.692549 49.371798 
L 125.052745 50.063351 
L 129.412941 50.804097 
L 133.773137 51.593464 
L 138.133333 52.430878 
L 142.493529 53.31577 
L 146.853725 54.247565 
L 151.213922 55.225693 
L 155.574118 56.249581 
L 159.934314 57.318658 
L 164.29451 58.432351 
L 168.654706 59.590089 
L 173.014902 60.791298 
L 177.375098 62.035409 
L 181.735294 63.321847 
L 186.09549 64.650042 
L 190.455686 66.019421 
L 194.815882 67.429412 
L 199.176078 68.879444 
L 203.536275 70.368944 
L 207.896471 71.897341 
L 212.256667 73.464062 
L 216.616863 75.068535 
L 220.977059 76.710188 
L 225.337255 78.38845 
L 229.697451 80.102748 
L 234.057647 81.85251 
L 238.417843 83.637164 
L 242.778039 85.456139 
L 247.138235 87.308862 
L 251.498431 89.194762 
L 255.858627 91.113265 
L 260.218824 93.063801 
L 264.57902 95.045797 
L 268.939216 97.058682 
L 273.299412 99.101882 
L 277.659608 101.174827 
L 282.019804 103.276944 
L 286.38 105.407661 
L 290.740196 107.566407 
L 295.100392 109.752609 
L 299.460588 111.965695 
L 303.820784 114.205093 
L 308.18098 116.470232 
L 312.541176 118.760538 
L 316.901373 121.075441 
L 321.261569 123.414368 
L 325.621765 125.776747 
L 329.981961 128.162007 
L 334.342157 130.569574 
L 338.702353 132.998878 
L 343.062549 135.449346 
L 347.422745 137.920406 
L 351.782941 140.411486 
L 356.143137 142.922015 
L 360.503333 145.451419 
L 364.863529 147.999128 
L 369.223725 150.564569 
L 373.583922 153.14717 
L 377.944118 155.746359 
L 382.304314 158.361564 
L 386.66451 160.992214 
L 391.024706 163.637735 
L 395.384902 166.297557 
L 399.745098 168.971107 
L 404.105294 171.657813 
L 408.46549 174.357103 
L 412.825686 177.068405 
L 417.185882 179.791147 
L 421.546078 182.524757 
L 425.906275 185.268663 
L 430.266471 188.022294 
L 434.626667 190.785076 
L 438.986863 193.556439 
L 443.347059 196.335809 
L 447.707255 199.122616 
L 452.067451 201.916287 
L 456.427647 204.71625 
L 460.787843 207.521932 
L 465.148039 210.332763 
L 469.508235 213.14817 
L 473.868431 215.967581 
L 478.228627 218.790424 
L 482.588824 221.616127 
L 486.94902 224.444118 
L 491.309216 227.273825 
L 495.669412 230.104676 
L 500.029608 232.936099 
" style="fill:none;stroke:#1e90ff;stroke-dasharray:1.5,2.475;stroke-dashoffset:0;stroke-width:1.5;"/>
    <defs>
     <path d="M -3 0 
L 3 0 
M 0 3 
L 0 -3 
" id="m360370690c" style="stroke:#1e90ff;"/>
    </defs>
    <g clip-path="url(#p59eb1a25f0)">
     <use style="fill:#1e90ff;stroke:#1e90ff;" x="64.01" xlink:href="#m360370690c" y="45.118371"/>
     <use style="fill:#1e90ff;stroke:#1e90ff;" x="68.370196" xlink:href="#m360370690c" y="45.118371"/>
     <use style="fill:#1e90ff;stroke:#1e90ff;" x="72.730392" xlink:href="#m360370690c" y="45.174999"/>
     <use style="fill:#1e90ff;stroke:#1e90ff;" x="77.090588" xlink:href="#m360370690c" y="45.287684"/>
     <use style="fill:#1e90ff;stroke:#1e90ff;" x="81.450784" xlink:href="#m360370690c" y="45.455854"/>
     <use style="fill:#1e90ff;stroke:#1e90ff;" x="85.81098" xlink:href="#m360370690c" y="45.678935"/>
     <use style="fill:#1e90ff;stroke:#1e90ff;" x="90.171176" xlink:href="#m360370690c" y="45.956358"/>
     <use style="fill:#1e90ff;stroke:#1e90ff;" x="94.531373" xlink:href="#m360370690c" y="46.287548"/>
     <use style="fill:#1e90ff;stroke:#1e90ff;" x="98.891569" xlink:href="#m360370690c" y="46.671936"/>
     <use style="fill:#1e90ff;stroke:#1e90ff;" x="103.251765" xlink:href="#m360370690c" y="47.108947"/>
     <use style="fill:#1e90ff;stroke:#1e90ff;" x="107.611961" xlink:href="#m360370690c" y="47.598011"/>
     <use style="fill:#1e90ff;stroke:#1e90ff;" x="111.972157" xlink:href="#m360370690c" y="48.138555"/>
     <use style="fill:#1e90ff;stroke:#1e90ff;" x="116.332353" xlink:href="#m360370690c" y="48.730008"/>
     <use style="fill:#1e90ff;stroke:#1e90ff;" x="120.692549" xlink:href="#m360370690c" y="49.371798"/>
     <use style="fill:#1e90ff;stroke:#1e90ff;" x="125.052745" xlink:href="#m360370690c" y="50.063351"/>
     <use style="fill:#1e90ff;stroke:#1e90ff;" x="129.412941" xlink:href="#m360370690c" y="50.804097"/>
     <use style="fill:#1e90ff;stroke:#1e90ff;" x="133.773137" xlink:href="#m360370690c" y="51.593464"/>
     <use style="fill:#1e90ff;stroke:#1e90ff;" x="138.133333" xlink:href="#m360370690c" y="52.430878"/>
     <use style="fill:#1e90ff;stroke:#1e90ff;" x="142.493529" xlink:href="#m360370690c" y="53.31577"/>
     <use style="fill:#1e90ff;stroke:#1e90ff;" x="146.853725" xlink:href="#m360370690c" y="54.247565"/>
     <use style="fill:#1e90ff;stroke:#1e90ff;" x="151.213922" xlink:href="#m360370690c" y="55.225693"/>
     <use style="fill:#1e90ff;stroke:#1e90ff;" x="155.574118" xlink:href="#m360370690c" y="56.249581"/>
     <use style="fill:#1e90ff;stroke:#1e90ff;" x="159.934314" xlink:href="#m360370690c" y="57.318658"/>
     <use style="fill:#1e90ff;stroke:#1e90ff;" x="164.29451" xlink:href="#m360370690c" y="58.432351"/>
     <use style="fill:#1e90ff;stroke:#1e90ff;" x="168.654706" xlink:href="#m360370690c" y="59.590089"/>
     <use style="fill:#1e90ff;stroke:#1e90ff;" x="173.014902" xlink:href="#m360370690c" y="60.791298"/>
     <use style="fill:#1e90ff;stroke:#1e90ff;" x="177.375098" xlink:href="#m360370690c" y="62.035409"/>
     <use style="fill:#1e90ff;stroke:#1e90ff;" x="181.735294" xlink:href="#m360370690c" y="63.321847"/>
     <use style="fill:#1e90ff;stroke:#1e90ff;" x="186.09549" xlink:href="#m360370690c" y="64.650042"/>
     <use style="fill:#1e90ff;stroke:#1e90ff;" x="190.455686" xlink:href="#m360370690c" y="66.019421"/>
     <use style="fill:#1e90ff;stroke:#1e90ff;" x="194.815882" xlink:href="#m360370690c" y="67.429412"/>
     <use style="fill:#1e90ff;stroke:#1e90ff;" x="199.176078" xlink:href="#m360370690c" y="68.879444"/>
     <use style="fill:#1e90ff;stroke:#1e90ff;" x="203.536275" xlink:href="#m360370690c" y="70.368944"/>
     <use style="fill:#1e90ff;stroke:#1e90ff;" x="207.896471" xlink:href="#m360370690c" y="71.897341"/>
     <use style="fill:#1e90ff;stroke:#1e90ff;" x="212.256667" xlink:href="#m360370690c" y="73.464062"/>
     <use style="fill:#1e90ff;stroke:#1e90ff;" x="216.616863" xlink:href="#m360370690c" y="75.068535"/>
     <use style="fill:#1e90ff;stroke:#1e90ff;" x="220.977059" xlink:href="#m360370690c" y="76.710188"/>
     <use style="fill:#1e90ff;stroke:#1e90ff;" x="225.337255" xlink:href="#m360370690c" y="78.38845"/>
     <use style="fill:#1e90ff;stroke:#1e90ff;" x="229.697451" xlink:href="#m360370690c" y="80.102748"/>
     <use style="fill:#1e90ff;stroke:#1e90ff;" x="234.057647" xlink:href="#m360370690c" y="81.85251"/>
     <use style="fill:#1e90ff;stroke:#1e90ff;" x="238.417843" xlink:href="#m360370690c" y="83.637164"/>
     <use style="fill:#1e90ff;stroke:#1e90ff;" x="242.778039" xlink:href="#m360370690c" y="85.456139"/>
     <use style="fill:#1e90ff;stroke:#1e90ff;" x="247.138235" xlink:href="#m360370690c" y="87.308862"/>
     <use style="fill:#1e90ff;stroke:#1e90ff;" x="251.498431" xlink:href="#m360370690c" y="89.194762"/>
     <use style="fill:#1e90ff;stroke:#1e90ff;" x="255.858627" xlink:href="#m360370690c" y="91.113265"/>
     <use style="fill:#1e90ff;stroke:#1e90ff;" x="260.218824" xlink:href="#m360370690c" y="93.063801"/>
     <use style="fill:#1e90ff;stroke:#1e90ff;" x="264.57902" xlink:href="#m360370690c" y="95.045797"/>
     <use style="fill:#1e90ff;stroke:#1e90ff;" x="268.939216" xlink:href="#m360370690c" y="97.058682"/>
     <use style="fill:#1e90ff;stroke:#1e90ff;" x="273.299412" xlink:href="#m360370690c" y="99.101882"/>
     <use style="fill:#1e90ff;stroke:#1e90ff;" x="277.659608" xlink:href="#m360370690c" y="101.174827"/>
     <use style="fill:#1e90ff;stroke:#1e90ff;" x="282.019804" xlink:href="#m360370690c" y="103.276944"/>
     <use style="fill:#1e90ff;stroke:#1e90ff;" x="286.38" xlink:href="#m360370690c" y="105.407661"/>
     <use style="fill:#1e90ff;stroke:#1e90ff;" x="290.740196" xlink:href="#m360370690c" y="107.566407"/>
     <use style="fill:#1e90ff;stroke:#1e90ff;" x="295.100392" xlink:href="#m360370690c" y="109.752609"/>
     <use style="fill:#1e90ff;stroke:#1e90ff;" x="299.460588" xlink:href="#m360370690c" y="111.965695"/>
     <use style="fill:#1e90ff;stroke:#1e90ff;" x="303.820784" xlink:href="#m360370690c" y="114.205093"/>
     <use style="fill:#1e90ff;stroke:#1e90ff;" x="308.18098" xlink:href="#m360370690c" y="116.470232"/>
     <use style="fill:#1e90ff;stroke:#1e90ff;" x="312.541176" xlink:href="#m360370690c" y="118.760538"/>
     <use style="fill:#1e90ff;stroke:#1e90ff;" x="316.901373" xlink:href="#m360370690c" y="121.075441"/>
     <use style="fill:#1e90ff;stroke:#1e90ff;" x="321.261569" xlink:href="#m360370690c" y="123.414368"/>
     <use style="fill:#1e90ff;stroke:#1e90ff;" x="325.621765" xlink:href="#m360370690c" y="125.776747"/>
     <use style="fill:#1e90ff;stroke:#1e90ff;" x="329.981961" xlink:href="#m360370690c" y="128.162007"/>
     <use style="fill:#1e90ff;stroke:#1e90ff;" x="334.342157" xlink:href="#m360370690c" y="130.569574"/>
     <use style="fill:#1e90ff;stroke:#1e90ff;" x="338.702353" xlink:href="#m360370690c" y="132.998878"/>
     <use style="fill:#1e90ff;stroke:#1e90ff;" x="343.062549" xlink:href="#m360370690c" y="135.449346"/>
     <use style="fill:#1e90ff;stroke:#1e90ff;" x="347.422745" xlink:href="#m360370690c" y="137.920406"/>
     <use style="fill:#1e90ff;stroke:#1e90ff;" x="351.782941" xlink:href="#m360370690c" y="140.411486"/>
     <use style="fill:#1e90ff;stroke:#1e90ff;" x="356.143137" xlink:href="#m360370690c" y="142.922015"/>
     <use style="fill:#1e90ff;stroke:#1e90ff;" x="360.503333" xlink:href="#m360370690c" y="145.451419"/>
     <use style="fill:#1e90ff;stroke:#1e90ff;" x="364.863529" xlink:href="#m360370690c" y="147.999128"/>
     <use style="fill:#1e90ff;stroke:#1e90ff;" x="369.223725" xlink:href="#m360370690c" y="150.564569"/>
     <use style="fill:#1e90ff;stroke:#1e90ff;" x="373.583922" xlink:href="#m360370690c" y="153.14717"/>
     <use style="fill:#1e90ff;stroke:#1e90ff;" x="377.944118" xlink:href="#m360370690c" y="155.746359"/>
     <use style="fill:#1e90ff;stroke:#1e90ff;" x="382.304314" xlink:href="#m360370690c" y="158.361564"/>
     <use style="fill:#1e90ff;stroke:#1e90ff;" x="386.66451" xlink:href="#m360370690c" y="160.992214"/>
     <use style="fill:#1e90ff;stroke:#1e90ff;" x="391.024706" xlink:href="#m360370690c" y="163.637735"/>
     <use style="fill:#1e90ff;stroke:#1e90ff;" x="395.384902" xlink:href="#m360370690c" y="166.297557"/>
     <use style="fill:#1e90ff;stroke:#1e90ff;" x="399.745098" xlink:href="#m360370690c" y="168.971107"/>
     <use style="fill:#1e90ff;stroke:#1e90ff;" x="404.105294" xlink:href="#m360370690c" y="171.657813"/>
     <use style="fill:#1e90ff;stroke:#1e90ff;" x="408.46549" xlink:href="#m360370690c" y="174.357103"/>
     <use style="fill:#1e90ff;stroke:#1e90ff;" x="412.825686" xlink:href="#m360370690c" y="177.068405"/>
     <use style="fill:#1e90ff;stroke:#1e90ff;" x="417.185882" xlink:href="#m360370690c" y="179.791147"/>
     <use style="fill:#1e90ff;stroke:#1e90ff;" x="421.546078" xlink:href="#m360370690c" y="182.524757"/>
     <use style="fill:#1e90ff;stroke:#1e90ff;" x="425.906275" xlink:href="#m360370690c" y="185.268663"/>
     <use style="fill:#1e90ff;stroke:#1e90ff;" x="430.266471" xlink:href="#m360370690c" y="188.022294"/>
     <use style="fill:#1e90ff;stroke:#1e90ff;" x="434.626667" xlink:href="#m360370690c" y="190.785076"/>
     <use style="fill:#1e90ff;stroke:#1e90ff;" x="438.986863" xlink:href="#m360370690c" y="193.556439"/>
     <use style="fill:#1e90ff;stroke:#1e90ff;" x="443.347059" xlink:href="#m360370690c" y="196.335809"/>
     <use style="fill:#1e90ff;stroke:#1e90ff;" x="447.707255" xlink:href="#m360370690c" y="199.122616"/>
     <use style="fill:#1e90ff;stroke:#1e90ff;" x="452.067451" xlink:href="#m360370690c" y="201.916287"/>
     <use style="fill:#1e90ff;stroke:#1e90ff;" x="456.427647" xlink:href="#m360370690c" y="204.71625"/>
     <use style="fill:#1e90ff;stroke:#1e90ff;" x="460.787843" xlink:href="#m360370690c" y="207.521932"/>
     <use style="fill:#1e90ff;stroke:#1e90ff;" x="465.148039" xlink:href="#m360370690c" y="210.332763"/>
     <use style="fill:#1e90ff;stroke:#1e90ff;" x="469.508235" xlink:href="#m360370690c" y="213.14817"/>
     <use style="fill:#1e90ff;stroke:#1e90ff;" x="473.868431" xlink:href="#m360370690c" y="215.967581"/>
     <use style="fill:#1e90ff;stroke:#1e90ff;" x="478.228627" xlink:href="#m360370690c" y="218.790424"/>
     <use style="fill:#1e90ff;stroke:#1e90ff;" x="482.588824" xlink:href="#m360370690c" y="221.616127"/>
     <use style="fill:#1e90ff;stroke:#1e90ff;" x="486.94902" xlink:href="#m360370690c" y="224.444118"/>
     <use style="fill:#1e90ff;stroke:#1e90ff;" x="491.309216" xlink:href="#m360370690c" y="227.273825"/>
     <use style="fill:#1e90ff;stroke:#1e90ff;" x="495.669412" xlink:href="#m360370690c" y="230.104676"/>
     <use style="fill:#1e90ff;stroke:#1e90ff;" x="500.029608" xlink:href="#m360370690c" y="232.936099"/>
    </g>
   </g>
   <g id="patch_3">
    <path d="M 64.01 245.32 
L 64.01 35.58496 
" style="fill:none;stroke:#000000;stroke-linecap:square;stroke-linejoin:miter;stroke-width:0.8;"/>
   </g>
   <g id="patch_4">
    <path d="M 508.75 245.32 
L 508.75 35.58496 
" style="fill:none;stroke:#000000;stroke-linecap:square;stroke-linejoin:miter;stroke-width:0.8;"/>
   </g>
   <g id="patch_5">
    <path d="M 64.01 245.32 
L 508.75 245.32 
" style="fill:none;stroke:#000000;stroke-linecap:square;stroke-linejoin:miter;stroke-width:0.8;"/>
   </g>
   <g id="patch_6">
    <path d="M 64.01 35.58496 
L 508.75 35.58496 
" style="fill:none;stroke:#000000;stroke-linecap:square;stroke-linejoin:miter;stroke-width:0.8;"/>
   </g>
   <g id="patch_7">
    <path d="M 500.029608 158.446778 
Q 500.029608 194.626324 500.029608 229.687836 
" style="fill:none;stroke:#000000;stroke-linecap:round;"/>
    <path d="M 502.029608 225.687836 
L 500.029608 229.687836 
L 498.029608 225.687836 
L 502.029608 225.687836 
z
" style="fill:#1f77b4;stroke:#000000;stroke-linecap:round;"/>
   </g>
   <g id="text_17">
    <!-- $P$ -->
    <g transform="translate(496.979608 152.369244)scale(0.1 -0.1)">
     <defs>
      <path d="M 16.890625 72.90625 
L 39.703125 72.90625 
Q 49.65625 72.90625 54.875 68.265625 
Q 60.109375 63.625 60.109375 54.6875 
Q 60.109375 42.671875 52.390625 35.984375 
Q 44.671875 29.296875 30.71875 29.296875 
L 18.3125 29.296875 
L 12.59375 0 
L 2.6875 0 
z
M 25.203125 64.796875 
L 19.921875 37.40625 
L 32.328125 37.40625 
Q 40.71875 37.40625 45.203125 41.703125 
Q 49.703125 46 49.703125 54 
Q 49.703125 59.125 46.65625 61.953125 
Q 43.609375 64.796875 38.09375 64.796875 
z
" id="DejaVuSans-Oblique-80"/>
     </defs>
     <use transform="translate(0 0.09375)" xlink:href="#DejaVuSans-Oblique-80"/>
    </g>
   </g>
  </g>
  <g id="axes_2">
   <g id="matplotlib.axis_3">
    <g id="ytick_9">
     <g id="line2d_17">
      <defs>
       <path d="M 0 0 
L 3.5 0 
" id="m34dac45dff" style="stroke:#008000;stroke-width:0.8;"/>
      </defs>
      <g>
       <use style="fill:#008000;stroke:#008000;stroke-width:0.8;" x="508.75" xlink:href="#m34dac45dff" y="226.253178"/>
      </g>
     </g>
     <g id="text_18">
      <!-- −1000 -->
      <g style="fill:#008000;" transform="translate(515.75 230.052397)scale(0.1 -0.1)">
       <use xlink:href="#DejaVuSans-8722"/>
       <use x="83.789062" xlink:href="#DejaVuSans-49"/>
       <use x="147.412109" xlink:href="#DejaVuSans-48"/>
       <use x="211.035156" xlink:href="#DejaVuSans-48"/>
       <use x="274.658203" xlink:href="#DejaVuSans-48"/>
      </g>
     </g>
    </g>
    <g id="ytick_10">
     <g id="line2d_18">
      <g>
       <use style="fill:#008000;stroke:#008000;stroke-width:0.8;" x="508.75" xlink:href="#m34dac45dff" y="188.119535"/>
      </g>
     </g>
     <g id="text_19">
      <!-- −800 -->
      <g style="fill:#008000;" transform="translate(515.75 191.918753)scale(0.1 -0.1)">
       <use xlink:href="#DejaVuSans-8722"/>
       <use x="83.789062" xlink:href="#DejaVuSans-56"/>
       <use x="147.412109" xlink:href="#DejaVuSans-48"/>
       <use x="211.035156" xlink:href="#DejaVuSans-48"/>
      </g>
     </g>
    </g>
    <g id="ytick_11">
     <g id="line2d_19">
      <g>
       <use style="fill:#008000;stroke:#008000;stroke-width:0.8;" x="508.75" xlink:href="#m34dac45dff" y="149.985891"/>
      </g>
     </g>
     <g id="text_20">
      <!-- −600 -->
      <g style="fill:#008000;" transform="translate(515.75 153.78511)scale(0.1 -0.1)">
       <use xlink:href="#DejaVuSans-8722"/>
       <use x="83.789062" xlink:href="#DejaVuSans-54"/>
       <use x="147.412109" xlink:href="#DejaVuSans-48"/>
       <use x="211.035156" xlink:href="#DejaVuSans-48"/>
      </g>
     </g>
    </g>
    <g id="ytick_12">
     <g id="line2d_20">
      <g>
       <use style="fill:#008000;stroke:#008000;stroke-width:0.8;" x="508.75" xlink:href="#m34dac45dff" y="111.852247"/>
      </g>
     </g>
     <g id="text_21">
      <!-- −400 -->
      <g style="fill:#008000;" transform="translate(515.75 115.651466)scale(0.1 -0.1)">
       <use xlink:href="#DejaVuSans-8722"/>
       <use x="83.789062" xlink:href="#DejaVuSans-52"/>
       <use x="147.412109" xlink:href="#DejaVuSans-48"/>
       <use x="211.035156" xlink:href="#DejaVuSans-48"/>
      </g>
     </g>
    </g>
    <g id="ytick_13">
     <g id="line2d_21">
      <g>
       <use style="fill:#008000;stroke:#008000;stroke-width:0.8;" x="508.75" xlink:href="#m34dac45dff" y="73.718604"/>
      </g>
     </g>
     <g id="text_22">
      <!-- −200 -->
      <g style="fill:#008000;" transform="translate(515.75 77.517822)scale(0.1 -0.1)">
       <use xlink:href="#DejaVuSans-8722"/>
       <use x="83.789062" xlink:href="#DejaVuSans-50"/>
       <use x="147.412109" xlink:href="#DejaVuSans-48"/>
       <use x="211.035156" xlink:href="#DejaVuSans-48"/>
      </g>
     </g>
    </g>
    <g id="ytick_14">
     <g id="line2d_22">
      <g>
       <use style="fill:#008000;stroke:#008000;stroke-width:0.8;" x="508.75" xlink:href="#m34dac45dff" y="35.58496"/>
      </g>
     </g>
     <g id="text_23">
      <!-- 0 -->
      <g style="fill:#008000;" transform="translate(515.75 39.384179)scale(0.1 -0.1)">
       <use xlink:href="#DejaVuSans-48"/>
      </g>
     </g>
    </g>
    <g id="text_24">
     <!-- $M(x)$ in Nmm -->
     <g style="fill:#008000;" transform="translate(561.178125 172.85248)rotate(-90)scale(0.1 -0.1)">
      <defs>
       <path d="M 16.890625 72.90625 
L 31.6875 72.90625 
L 40.1875 23.78125 
L 68.40625 72.90625 
L 83.59375 72.90625 
L 69.390625 0 
L 59.8125 0 
L 72.21875 63.921875 
L 43.609375 14.015625 
L 33.984375 14.015625 
L 24.703125 64.109375 
L 12.3125 0 
L 2.6875 0 
z
" id="DejaVuSans-Oblique-77"/>
       <path d="M 9.8125 72.90625 
L 23.09375 72.90625 
L 55.421875 11.921875 
L 55.421875 72.90625 
L 64.984375 72.90625 
L 64.984375 0 
L 51.703125 0 
L 19.390625 60.984375 
L 19.390625 0 
L 9.8125 0 
z
" id="DejaVuSans-78"/>
      </defs>
      <use transform="translate(0 0.015625)" xlink:href="#DejaVuSans-Oblique-77"/>
      <use transform="translate(86.279297 0.015625)" xlink:href="#DejaVuSans-40"/>
      <use transform="translate(125.292969 0.015625)" xlink:href="#DejaVuSans-Oblique-120"/>
      <use transform="translate(184.472656 0.015625)" xlink:href="#DejaVuSans-41"/>
      <use transform="translate(223.486328 0.015625)" xlink:href="#DejaVuSans-32"/>
      <use transform="translate(255.273438 0.015625)" xlink:href="#DejaVuSans-105"/>
      <use transform="translate(283.056641 0.015625)" xlink:href="#DejaVuSans-110"/>
      <use transform="translate(346.435547 0.015625)" xlink:href="#DejaVuSans-32"/>
      <use transform="translate(378.222656 0.015625)" xlink:href="#DejaVuSans-78"/>
      <use transform="translate(453.027344 0.015625)" xlink:href="#DejaVuSans-109"/>
      <use transform="translate(550.439453 0.015625)" xlink:href="#DejaVuSans-109"/>
     </g>
    </g>
   </g>
   <g id="line2d_23">
    <path clip-path="url(#p59eb1a25f0)" d="M 64.01 226.253178 
L 68.370196 224.346496 
L 72.730392 222.439814 
L 77.090588 220.533132 
L 81.450784 218.626449 
L 85.81098 216.719767 
L 90.171176 214.813085 
L 94.531373 212.906403 
L 98.891569 210.999721 
L 103.251765 209.093039 
L 107.611961 207.186356 
L 111.972157 205.279674 
L 116.332353 203.372992 
L 120.692549 201.46631 
L 125.052745 199.559628 
L 129.412941 197.652945 
L 133.773137 195.746263 
L 138.133333 193.839581 
L 142.493529 191.932899 
L 146.853725 190.026217 
L 151.213922 188.119535 
L 155.574118 186.212852 
L 159.934314 184.30617 
L 164.29451 182.399488 
L 168.654706 180.492806 
L 173.014902 178.586124 
L 177.375098 176.679441 
L 181.735294 174.772759 
L 186.09549 172.866077 
L 190.455686 170.959395 
L 194.815882 169.052713 
L 199.176078 167.146031 
L 203.536275 165.239348 
L 207.896471 163.332666 
L 212.256667 161.425984 
L 216.616863 159.519302 
L 220.977059 157.61262 
L 225.337255 155.705937 
L 229.697451 153.799255 
L 234.057647 151.892573 
L 238.417843 149.985891 
L 242.778039 148.079209 
L 247.138235 146.172527 
L 251.498431 144.265844 
L 255.858627 142.359162 
L 260.218824 140.45248 
L 264.57902 138.545798 
L 268.939216 136.639116 
L 273.299412 134.732433 
L 277.659608 132.825751 
L 282.019804 130.919069 
L 286.38 129.012387 
L 290.740196 127.105705 
L 295.100392 125.199023 
L 299.460588 123.29234 
L 303.820784 121.385658 
L 308.18098 119.478976 
L 312.541176 117.572294 
L 316.901373 115.665612 
L 321.261569 113.758929 
L 325.621765 111.852247 
L 329.981961 109.945565 
L 334.342157 108.038883 
L 338.702353 106.132201 
L 343.062549 104.225519 
L 347.422745 102.318836 
L 351.782941 100.412154 
L 356.143137 98.505472 
L 360.503333 96.59879 
L 364.863529 94.692108 
L 369.223725 92.785425 
L 373.583922 90.878743 
L 377.944118 88.972061 
L 382.304314 87.065379 
L 386.66451 85.158697 
L 391.024706 83.252015 
L 395.384902 81.345332 
L 399.745098 79.43865 
L 404.105294 77.531968 
L 408.46549 75.625286 
L 412.825686 73.718604 
L 417.185882 71.811921 
L 421.546078 69.905239 
L 425.906275 67.998557 
L 430.266471 66.091875 
L 434.626667 64.185193 
L 438.986863 62.278511 
L 443.347059 60.371828 
L 447.707255 58.465146 
L 452.067451 56.558464 
L 456.427647 54.651782 
L 460.787843 52.7451 
L 465.148039 50.838417 
L 469.508235 48.931735 
L 473.868431 47.025053 
L 478.228627 45.118371 
L 482.588824 43.211689 
L 486.94902 41.305007 
L 491.309216 39.398324 
L 495.669412 37.491642 
L 500.029608 35.58496 
" style="fill:none;stroke:#008000;stroke-linecap:square;stroke-width:1.5;"/>
   </g>
   <g id="patch_8">
    <path d="M 64.01 245.32 
L 64.01 35.58496 
" style="fill:none;stroke:#0000ff;stroke-linecap:square;stroke-linejoin:miter;stroke-width:0.8;"/>
   </g>
   <g id="patch_9">
    <path d="M 508.75 245.32 
L 508.75 35.58496 
" style="fill:none;stroke:#008000;stroke-linecap:square;stroke-linejoin:miter;stroke-width:0.8;"/>
   </g>
   <g id="patch_10">
    <path d="M 64.01 245.32 
L 508.75 245.32 
" style="fill:none;stroke:#000000;stroke-linecap:square;stroke-linejoin:miter;stroke-width:0.8;"/>
   </g>
   <g id="patch_11">
    <path d="M 64.01 35.58496 
L 508.75 35.58496 
" style="fill:none;stroke:#000000;stroke-linecap:square;stroke-linejoin:miter;stroke-width:0.8;"/>
   </g>
   <g id="legend_1">
    <g id="patch_12">
     <path d="M 71.01 29.532835 
L 501.75 29.532835 
Q 503.75 29.532835 503.75 27.532835 
L 503.75 13.85471 
Q 503.75 11.85471 501.75 11.85471 
L 71.01 11.85471 
Q 69.01 11.85471 69.01 13.85471 
L 69.01 27.532835 
Q 69.01 29.532835 71.01 29.532835 
z
" style="fill:#ffffff;opacity:0.8;stroke:#cccccc;stroke-linejoin:miter;"/>
    </g>
    <g id="line2d_24">
     <path d="M 73.01 19.953147 
L 93.01 19.953147 
" style="fill:none;stroke:#0000ff;stroke-linecap:square;stroke-width:1.5;"/>
    </g>
    <g id="line2d_25"/>
    <g id="text_25">
     <!-- Displacement Exact -->
     <g transform="translate(101.01 23.453147)scale(0.1 -0.1)">
      <defs>
       <path d="M 19.671875 64.796875 
L 19.671875 8.109375 
L 31.59375 8.109375 
Q 46.6875 8.109375 53.6875 14.9375 
Q 60.6875 21.78125 60.6875 36.53125 
Q 60.6875 51.171875 53.6875 57.984375 
Q 46.6875 64.796875 31.59375 64.796875 
z
M 9.8125 72.90625 
L 30.078125 72.90625 
Q 51.265625 72.90625 61.171875 64.09375 
Q 71.09375 55.28125 71.09375 36.53125 
Q 71.09375 17.671875 61.125 8.828125 
Q 51.171875 0 30.078125 0 
L 9.8125 0 
z
" id="DejaVuSans-68"/>
       <path d="M 44.28125 53.078125 
L 44.28125 44.578125 
Q 40.484375 46.53125 36.375 47.5 
Q 32.28125 48.484375 27.875 48.484375 
Q 21.1875 48.484375 17.84375 46.4375 
Q 14.5 44.390625 14.5 40.28125 
Q 14.5 37.15625 16.890625 35.375 
Q 19.28125 33.59375 26.515625 31.984375 
L 29.59375 31.296875 
Q 39.15625 29.25 43.1875 25.515625 
Q 47.21875 21.78125 47.21875 15.09375 
Q 47.21875 7.46875 41.1875 3.015625 
Q 35.15625 -1.421875 24.609375 -1.421875 
Q 20.21875 -1.421875 15.453125 -0.5625 
Q 10.6875 0.296875 5.421875 2 
L 5.421875 11.28125 
Q 10.40625 8.6875 15.234375 7.390625 
Q 20.0625 6.109375 24.8125 6.109375 
Q 31.15625 6.109375 34.5625 8.28125 
Q 37.984375 10.453125 37.984375 14.40625 
Q 37.984375 18.0625 35.515625 20.015625 
Q 33.0625 21.96875 24.703125 23.78125 
L 21.578125 24.515625 
Q 13.234375 26.265625 9.515625 29.90625 
Q 5.8125 33.546875 5.8125 39.890625 
Q 5.8125 47.609375 11.28125 51.796875 
Q 16.75 56 26.8125 56 
Q 31.78125 56 36.171875 55.265625 
Q 40.578125 54.546875 44.28125 53.078125 
z
" id="DejaVuSans-115"/>
       <path d="M 18.109375 8.203125 
L 18.109375 -20.796875 
L 9.078125 -20.796875 
L 9.078125 54.6875 
L 18.109375 54.6875 
L 18.109375 46.390625 
Q 20.953125 51.265625 25.265625 53.625 
Q 29.59375 56 35.59375 56 
Q 45.5625 56 51.78125 48.09375 
Q 58.015625 40.1875 58.015625 27.296875 
Q 58.015625 14.40625 51.78125 6.484375 
Q 45.5625 -1.421875 35.59375 -1.421875 
Q 29.59375 -1.421875 25.265625 0.953125 
Q 20.953125 3.328125 18.109375 8.203125 
z
M 48.6875 27.296875 
Q 48.6875 37.203125 44.609375 42.84375 
Q 40.53125 48.484375 33.40625 48.484375 
Q 26.265625 48.484375 22.1875 42.84375 
Q 18.109375 37.203125 18.109375 27.296875 
Q 18.109375 17.390625 22.1875 11.75 
Q 26.265625 6.109375 33.40625 6.109375 
Q 40.53125 6.109375 44.609375 11.75 
Q 48.6875 17.390625 48.6875 27.296875 
z
" id="DejaVuSans-112"/>
       <path d="M 56.203125 29.59375 
L 56.203125 25.203125 
L 14.890625 25.203125 
Q 15.484375 15.921875 20.484375 11.0625 
Q 25.484375 6.203125 34.421875 6.203125 
Q 39.59375 6.203125 44.453125 7.46875 
Q 49.3125 8.734375 54.109375 11.28125 
L 54.109375 2.78125 
Q 49.265625 0.734375 44.1875 -0.34375 
Q 39.109375 -1.421875 33.890625 -1.421875 
Q 20.796875 -1.421875 13.15625 6.1875 
Q 5.515625 13.8125 5.515625 26.8125 
Q 5.515625 40.234375 12.765625 48.109375 
Q 20.015625 56 32.328125 56 
Q 43.359375 56 49.78125 48.890625 
Q 56.203125 41.796875 56.203125 29.59375 
z
M 47.21875 32.234375 
Q 47.125 39.59375 43.09375 43.984375 
Q 39.0625 48.390625 32.421875 48.390625 
Q 24.90625 48.390625 20.390625 44.140625 
Q 15.875 39.890625 15.1875 32.171875 
z
" id="DejaVuSans-101"/>
       <path d="M 9.8125 72.90625 
L 55.90625 72.90625 
L 55.90625 64.59375 
L 19.671875 64.59375 
L 19.671875 43.015625 
L 54.390625 43.015625 
L 54.390625 34.71875 
L 19.671875 34.71875 
L 19.671875 8.296875 
L 56.78125 8.296875 
L 56.78125 0 
L 9.8125 0 
z
" id="DejaVuSans-69"/>
       <path d="M 54.890625 54.6875 
L 35.109375 28.078125 
L 55.90625 0 
L 45.3125 0 
L 29.390625 21.484375 
L 13.484375 0 
L 2.875 0 
L 24.125 28.609375 
L 4.6875 54.6875 
L 15.28125 54.6875 
L 29.78125 35.203125 
L 44.28125 54.6875 
z
" id="DejaVuSans-120"/>
      </defs>
      <use xlink:href="#DejaVuSans-68"/>
      <use x="77.001953" xlink:href="#DejaVuSans-105"/>
      <use x="104.785156" xlink:href="#DejaVuSans-115"/>
      <use x="156.884766" xlink:href="#DejaVuSans-112"/>
      <use x="220.361328" xlink:href="#DejaVuSans-108"/>
      <use x="248.144531" xlink:href="#DejaVuSans-97"/>
      <use x="309.423828" xlink:href="#DejaVuSans-99"/>
      <use x="364.404297" xlink:href="#DejaVuSans-101"/>
      <use x="425.927734" xlink:href="#DejaVuSans-109"/>
      <use x="523.339844" xlink:href="#DejaVuSans-101"/>
      <use x="584.863281" xlink:href="#DejaVuSans-110"/>
      <use x="648.242188" xlink:href="#DejaVuSans-116"/>
      <use x="687.451172" xlink:href="#DejaVuSans-32"/>
      <use x="719.238281" xlink:href="#DejaVuSans-69"/>
      <use x="782.421875" xlink:href="#DejaVuSans-120"/>
      <use x="841.601562" xlink:href="#DejaVuSans-97"/>
      <use x="902.880859" xlink:href="#DejaVuSans-99"/>
      <use x="957.861328" xlink:href="#DejaVuSans-116"/>
     </g>
    </g>
    <g id="line2d_26">
     <path d="M 252.101094 19.953147 
L 272.101094 19.953147 
" style="fill:none;stroke:#1e90ff;stroke-dasharray:1.5,2.475;stroke-dashoffset:0;stroke-width:1.5;"/>
    </g>
    <g id="line2d_27">
     <g>
      <use style="fill:#1e90ff;stroke:#1e90ff;" x="262.101094" xlink:href="#m360370690c" y="19.953147"/>
     </g>
    </g>
    <g id="text_26">
     <!-- Displacement -->
     <g transform="translate(280.101094 23.453147)scale(0.1 -0.1)">
      <use xlink:href="#DejaVuSans-68"/>
      <use x="77.001953" xlink:href="#DejaVuSans-105"/>
      <use x="104.785156" xlink:href="#DejaVuSans-115"/>
      <use x="156.884766" xlink:href="#DejaVuSans-112"/>
      <use x="220.361328" xlink:href="#DejaVuSans-108"/>
      <use x="248.144531" xlink:href="#DejaVuSans-97"/>
      <use x="309.423828" xlink:href="#DejaVuSans-99"/>
      <use x="364.404297" xlink:href="#DejaVuSans-101"/>
      <use x="425.927734" xlink:href="#DejaVuSans-109"/>
      <use x="523.339844" xlink:href="#DejaVuSans-101"/>
      <use x="584.863281" xlink:href="#DejaVuSans-110"/>
      <use x="648.242188" xlink:href="#DejaVuSans-116"/>
     </g>
    </g>
    <g id="line2d_28">
     <path d="M 400.229687 19.953147 
L 420.229687 19.953147 
" style="fill:none;stroke:#008000;stroke-linecap:square;stroke-width:1.5;"/>
    </g>
    <g id="line2d_29"/>
    <g id="text_27">
     <!-- Moment exact -->
     <g transform="translate(428.229687 23.453147)scale(0.1 -0.1)">
      <defs>
       <path d="M 9.8125 72.90625 
L 24.515625 72.90625 
L 43.109375 23.296875 
L 61.8125 72.90625 
L 76.515625 72.90625 
L 76.515625 0 
L 66.890625 0 
L 66.890625 64.015625 
L 48.09375 14.015625 
L 38.1875 14.015625 
L 19.390625 64.015625 
L 19.390625 0 
L 9.8125 0 
z
" id="DejaVuSans-77"/>
      </defs>
      <use xlink:href="#DejaVuSans-77"/>
      <use x="86.279297" xlink:href="#DejaVuSans-111"/>
      <use x="147.460938" xlink:href="#DejaVuSans-109"/>
      <use x="244.873047" xlink:href="#DejaVuSans-101"/>
      <use x="306.396484" xlink:href="#DejaVuSans-110"/>
      <use x="369.775391" xlink:href="#DejaVuSans-116"/>
      <use x="408.984375" xlink:href="#DejaVuSans-32"/>
      <use x="440.771484" xlink:href="#DejaVuSans-101"/>
      <use x="500.544922" xlink:href="#DejaVuSans-120"/>
      <use x="559.724609" xlink:href="#DejaVuSans-97"/>
      <use x="621.003906" xlink:href="#DejaVuSans-99"/>
      <use x="675.984375" xlink:href="#DejaVuSans-116"/>
     </g>
    </g>
   </g>
  </g>
 </g>
 <defs>
  <clipPath id="p59eb1a25f0">
   <rect height="209.73504" width="444.74" x="64.01" y="35.58496"/>
  </clipPath>
 </defs>
</svg>
