<?xml version="1.0" encoding="utf-8" standalone="no"?>
<!DOCTYPE svg PUBLIC "-//W3C//DTD SVG 1.1//EN"
  "http://www.w3.org/Graphics/SVG/1.1/DTD/svg11.dtd">
<!-- Created with matplotlib (https://matplotlib.org/) -->
<svg height="288pt" version="1.1" viewBox="0 0 576 288" width="576pt" xmlns="http://www.w3.org/2000/svg" xmlns:xlink="http://www.w3.org/1999/xlink">
 <metadata>
  <rdf:RDF xmlns:cc="http://creativecommons.org/ns#" xmlns:dc="http://purl.org/dc/elements/1.1/" xmlns:rdf="http://www.w3.org/1999/02/22-rdf-syntax-ns#">
   <cc:Work>
    <dc:type rdf:resource="http://purl.org/dc/dcmitype/StillImage"/>
    <dc:date>2021-02-23T19:23:58.595830</dc:date>
    <dc:format>image/svg+xml</dc:format>
    <dc:creator>
     <cc:Agent>
      <dc:title>Matplotlib v3.3.4, https://matplotlib.org/</dc:title>
     </cc:Agent>
    </dc:creator>
   </cc:Work>
  </rdf:RDF>
 </metadata>
 <defs>
  <style type="text/css">*{stroke-linecap:butt;stroke-linejoin:round;}</style>
 </defs>
 <g id="figure_1">
  <g id="patch_1">
   <path d="M 0 288 
L 576 288 
L 576 0 
L 0 0 
z
" style="fill:#ffffff;"/>
  </g>
  <g id="axes_1">
   <g id="patch_2">
    <path d="M 57.62 245.32 
L 515.14 245.32 
L 515.14 35.58496 
L 57.62 35.58496 
z
" style="fill:#ffffff;"/>
   </g>
   <g id="patch_3">
    <path clip-path="url(#pe951905fab)" d="M 57.62 48.123187 
L 63.002588 57.503855 
L 52.237412 57.503855 
" style="stroke:#000000;stroke-linejoin:miter;"/>
   </g>
   <g id="patch_4">
    <path clip-path="url(#pe951905fab)" d="M 169.757255 48.123187 
L 175.139843 57.503855 
L 164.374667 57.503855 
" style="stroke:#000000;stroke-linejoin:miter;"/>
   </g>
   <g id="matplotlib.axis_1">
    <g id="xtick_1">
     <g id="line2d_1">
      <defs>
       <path d="M 0 0 
L 0 3.5 
" id="m0b0fbb7a70" style="stroke:#000000;stroke-width:0.8;"/>
      </defs>
      <g>
       <use style="stroke:#000000;stroke-width:0.8;" x="57.62" xlink:href="#m0b0fbb7a70" y="245.32"/>
      </g>
     </g>
     <g id="text_1">
      <!-- 0 -->
      <g transform="translate(54.43875 259.918437)scale(0.1 -0.1)">
       <defs>
        <path d="M 31.78125 66.40625 
Q 24.171875 66.40625 20.328125 58.90625 
Q 16.5 51.421875 16.5 36.375 
Q 16.5 21.390625 20.328125 13.890625 
Q 24.171875 6.390625 31.78125 6.390625 
Q 39.453125 6.390625 43.28125 13.890625 
Q 47.125 21.390625 47.125 36.375 
Q 47.125 51.421875 43.28125 58.90625 
Q 39.453125 66.40625 31.78125 66.40625 
z
M 31.78125 74.21875 
Q 44.046875 74.21875 50.515625 64.515625 
Q 56.984375 54.828125 56.984375 36.375 
Q 56.984375 17.96875 50.515625 8.265625 
Q 44.046875 -1.421875 31.78125 -1.421875 
Q 19.53125 -1.421875 13.0625 8.265625 
Q 6.59375 17.96875 6.59375 36.375 
Q 6.59375 54.828125 13.0625 64.515625 
Q 19.53125 74.21875 31.78125 74.21875 
z
" id="DejaVuSans-48"/>
       </defs>
       <use xlink:href="#DejaVuSans-48"/>
      </g>
     </g>
    </g>
    <g id="xtick_2">
     <g id="line2d_2">
      <g>
       <use style="stroke:#000000;stroke-width:0.8;" x="147.329804" xlink:href="#m0b0fbb7a70" y="245.32"/>
      </g>
     </g>
     <g id="text_2">
      <!-- 200 -->
      <g transform="translate(137.786054 259.918437)scale(0.1 -0.1)">
       <defs>
        <path d="M 19.1875 8.296875 
L 53.609375 8.296875 
L 53.609375 0 
L 7.328125 0 
L 7.328125 8.296875 
Q 12.9375 14.109375 22.625 23.890625 
Q 32.328125 33.6875 34.8125 36.53125 
Q 39.546875 41.84375 41.421875 45.53125 
Q 43.3125 49.21875 43.3125 52.78125 
Q 43.3125 58.59375 39.234375 62.25 
Q 35.15625 65.921875 28.609375 65.921875 
Q 23.96875 65.921875 18.8125 64.3125 
Q 13.671875 62.703125 7.8125 59.421875 
L 7.8125 69.390625 
Q 13.765625 71.78125 18.9375 73 
Q 24.125 74.21875 28.421875 74.21875 
Q 39.75 74.21875 46.484375 68.546875 
Q 53.21875 62.890625 53.21875 53.421875 
Q 53.21875 48.921875 51.53125 44.890625 
Q 49.859375 40.875 45.40625 35.40625 
Q 44.1875 33.984375 37.640625 27.21875 
Q 31.109375 20.453125 19.1875 8.296875 
z
" id="DejaVuSans-50"/>
       </defs>
       <use xlink:href="#DejaVuSans-50"/>
       <use x="63.623047" xlink:href="#DejaVuSans-48"/>
       <use x="127.246094" xlink:href="#DejaVuSans-48"/>
      </g>
     </g>
    </g>
    <g id="xtick_3">
     <g id="line2d_3">
      <g>
       <use style="stroke:#000000;stroke-width:0.8;" x="237.039608" xlink:href="#m0b0fbb7a70" y="245.32"/>
      </g>
     </g>
     <g id="text_3">
      <!-- 400 -->
      <g transform="translate(227.495858 259.918437)scale(0.1 -0.1)">
       <defs>
        <path d="M 37.796875 64.3125 
L 12.890625 25.390625 
L 37.796875 25.390625 
z
M 35.203125 72.90625 
L 47.609375 72.90625 
L 47.609375 25.390625 
L 58.015625 25.390625 
L 58.015625 17.1875 
L 47.609375 17.1875 
L 47.609375 0 
L 37.796875 0 
L 37.796875 17.1875 
L 4.890625 17.1875 
L 4.890625 26.703125 
z
" id="DejaVuSans-52"/>
       </defs>
       <use xlink:href="#DejaVuSans-52"/>
       <use x="63.623047" xlink:href="#DejaVuSans-48"/>
       <use x="127.246094" xlink:href="#DejaVuSans-48"/>
      </g>
     </g>
    </g>
    <g id="xtick_4">
     <g id="line2d_4">
      <g>
       <use style="stroke:#000000;stroke-width:0.8;" x="326.749412" xlink:href="#m0b0fbb7a70" y="245.32"/>
      </g>
     </g>
     <g id="text_4">
      <!-- 600 -->
      <g transform="translate(317.205662 259.918437)scale(0.1 -0.1)">
       <defs>
        <path d="M 33.015625 40.375 
Q 26.375 40.375 22.484375 35.828125 
Q 18.609375 31.296875 18.609375 23.390625 
Q 18.609375 15.53125 22.484375 10.953125 
Q 26.375 6.390625 33.015625 6.390625 
Q 39.65625 6.390625 43.53125 10.953125 
Q 47.40625 15.53125 47.40625 23.390625 
Q 47.40625 31.296875 43.53125 35.828125 
Q 39.65625 40.375 33.015625 40.375 
z
M 52.59375 71.296875 
L 52.59375 62.3125 
Q 48.875 64.0625 45.09375 64.984375 
Q 41.3125 65.921875 37.59375 65.921875 
Q 27.828125 65.921875 22.671875 59.328125 
Q 17.53125 52.734375 16.796875 39.40625 
Q 19.671875 43.65625 24.015625 45.921875 
Q 28.375 48.1875 33.59375 48.1875 
Q 44.578125 48.1875 50.953125 41.515625 
Q 57.328125 34.859375 57.328125 23.390625 
Q 57.328125 12.15625 50.6875 5.359375 
Q 44.046875 -1.421875 33.015625 -1.421875 
Q 20.359375 -1.421875 13.671875 8.265625 
Q 6.984375 17.96875 6.984375 36.375 
Q 6.984375 53.65625 15.1875 63.9375 
Q 23.390625 74.21875 37.203125 74.21875 
Q 40.921875 74.21875 44.703125 73.484375 
Q 48.484375 72.75 52.59375 71.296875 
z
" id="DejaVuSans-54"/>
       </defs>
       <use xlink:href="#DejaVuSans-54"/>
       <use x="63.623047" xlink:href="#DejaVuSans-48"/>
       <use x="127.246094" xlink:href="#DejaVuSans-48"/>
      </g>
     </g>
    </g>
    <g id="xtick_5">
     <g id="line2d_5">
      <g>
       <use style="stroke:#000000;stroke-width:0.8;" x="416.459216" xlink:href="#m0b0fbb7a70" y="245.32"/>
      </g>
     </g>
     <g id="text_5">
      <!-- 800 -->
      <g transform="translate(406.915466 259.918437)scale(0.1 -0.1)">
       <defs>
        <path d="M 31.78125 34.625 
Q 24.75 34.625 20.71875 30.859375 
Q 16.703125 27.09375 16.703125 20.515625 
Q 16.703125 13.921875 20.71875 10.15625 
Q 24.75 6.390625 31.78125 6.390625 
Q 38.8125 6.390625 42.859375 10.171875 
Q 46.921875 13.96875 46.921875 20.515625 
Q 46.921875 27.09375 42.890625 30.859375 
Q 38.875 34.625 31.78125 34.625 
z
M 21.921875 38.8125 
Q 15.578125 40.375 12.03125 44.71875 
Q 8.5 49.078125 8.5 55.328125 
Q 8.5 64.0625 14.71875 69.140625 
Q 20.953125 74.21875 31.78125 74.21875 
Q 42.671875 74.21875 48.875 69.140625 
Q 55.078125 64.0625 55.078125 55.328125 
Q 55.078125 49.078125 51.53125 44.71875 
Q 48 40.375 41.703125 38.8125 
Q 48.828125 37.15625 52.796875 32.3125 
Q 56.78125 27.484375 56.78125 20.515625 
Q 56.78125 9.90625 50.3125 4.234375 
Q 43.84375 -1.421875 31.78125 -1.421875 
Q 19.734375 -1.421875 13.25 4.234375 
Q 6.78125 9.90625 6.78125 20.515625 
Q 6.78125 27.484375 10.78125 32.3125 
Q 14.796875 37.15625 21.921875 38.8125 
z
M 18.3125 54.390625 
Q 18.3125 48.734375 21.84375 45.5625 
Q 25.390625 42.390625 31.78125 42.390625 
Q 38.140625 42.390625 41.71875 45.5625 
Q 45.3125 48.734375 45.3125 54.390625 
Q 45.3125 60.0625 41.71875 63.234375 
Q 38.140625 66.40625 31.78125 66.40625 
Q 25.390625 66.40625 21.84375 63.234375 
Q 18.3125 60.0625 18.3125 54.390625 
z
" id="DejaVuSans-56"/>
       </defs>
       <use xlink:href="#DejaVuSans-56"/>
       <use x="63.623047" xlink:href="#DejaVuSans-48"/>
       <use x="127.246094" xlink:href="#DejaVuSans-48"/>
      </g>
     </g>
    </g>
    <g id="xtick_6">
     <g id="line2d_6">
      <g>
       <use style="stroke:#000000;stroke-width:0.8;" x="506.16902" xlink:href="#m0b0fbb7a70" y="245.32"/>
      </g>
     </g>
     <g id="text_6">
      <!-- 1000 -->
      <g transform="translate(493.44402 259.918437)scale(0.1 -0.1)">
       <defs>
        <path d="M 12.40625 8.296875 
L 28.515625 8.296875 
L 28.515625 63.921875 
L 10.984375 60.40625 
L 10.984375 69.390625 
L 28.421875 72.90625 
L 38.28125 72.90625 
L 38.28125 8.296875 
L 54.390625 8.296875 
L 54.390625 0 
L 12.40625 0 
z
" id="DejaVuSans-49"/>
       </defs>
       <use xlink:href="#DejaVuSans-49"/>
       <use x="63.623047" xlink:href="#DejaVuSans-48"/>
       <use x="127.246094" xlink:href="#DejaVuSans-48"/>
       <use x="190.869141" xlink:href="#DejaVuSans-48"/>
      </g>
     </g>
    </g>
    <g id="text_7">
     <!-- $x$ location -->
     <g transform="translate(261.98 273.596563)scale(0.1 -0.1)">
      <defs>
       <path d="M 60.015625 54.6875 
L 34.90625 27.875 
L 50.296875 0 
L 39.984375 0 
L 28.421875 21.6875 
L 8.296875 0 
L -2.59375 0 
L 24.3125 28.8125 
L 10.015625 54.6875 
L 20.3125 54.6875 
L 30.8125 34.90625 
L 49.125 54.6875 
z
" id="DejaVuSans-Oblique-120"/>
       <path id="DejaVuSans-32"/>
       <path d="M 9.421875 75.984375 
L 18.40625 75.984375 
L 18.40625 0 
L 9.421875 0 
z
" id="DejaVuSans-108"/>
       <path d="M 30.609375 48.390625 
Q 23.390625 48.390625 19.1875 42.75 
Q 14.984375 37.109375 14.984375 27.296875 
Q 14.984375 17.484375 19.15625 11.84375 
Q 23.34375 6.203125 30.609375 6.203125 
Q 37.796875 6.203125 41.984375 11.859375 
Q 46.1875 17.53125 46.1875 27.296875 
Q 46.1875 37.015625 41.984375 42.703125 
Q 37.796875 48.390625 30.609375 48.390625 
z
M 30.609375 56 
Q 42.328125 56 49.015625 48.375 
Q 55.71875 40.765625 55.71875 27.296875 
Q 55.71875 13.875 49.015625 6.21875 
Q 42.328125 -1.421875 30.609375 -1.421875 
Q 18.84375 -1.421875 12.171875 6.21875 
Q 5.515625 13.875 5.515625 27.296875 
Q 5.515625 40.765625 12.171875 48.375 
Q 18.84375 56 30.609375 56 
z
" id="DejaVuSans-111"/>
       <path d="M 48.78125 52.59375 
L 48.78125 44.1875 
Q 44.96875 46.296875 41.140625 47.34375 
Q 37.3125 48.390625 33.40625 48.390625 
Q 24.65625 48.390625 19.8125 42.84375 
Q 14.984375 37.3125 14.984375 27.296875 
Q 14.984375 17.28125 19.8125 11.734375 
Q 24.65625 6.203125 33.40625 6.203125 
Q 37.3125 6.203125 41.140625 7.25 
Q 44.96875 8.296875 48.78125 10.40625 
L 48.78125 2.09375 
Q 45.015625 0.34375 40.984375 -0.53125 
Q 36.96875 -1.421875 32.421875 -1.421875 
Q 20.0625 -1.421875 12.78125 6.34375 
Q 5.515625 14.109375 5.515625 27.296875 
Q 5.515625 40.671875 12.859375 48.328125 
Q 20.21875 56 33.015625 56 
Q 37.15625 56 41.109375 55.140625 
Q 45.0625 54.296875 48.78125 52.59375 
z
" id="DejaVuSans-99"/>
       <path d="M 34.28125 27.484375 
Q 23.390625 27.484375 19.1875 25 
Q 14.984375 22.515625 14.984375 16.5 
Q 14.984375 11.71875 18.140625 8.90625 
Q 21.296875 6.109375 26.703125 6.109375 
Q 34.1875 6.109375 38.703125 11.40625 
Q 43.21875 16.703125 43.21875 25.484375 
L 43.21875 27.484375 
z
M 52.203125 31.203125 
L 52.203125 0 
L 43.21875 0 
L 43.21875 8.296875 
Q 40.140625 3.328125 35.546875 0.953125 
Q 30.953125 -1.421875 24.3125 -1.421875 
Q 15.921875 -1.421875 10.953125 3.296875 
Q 6 8.015625 6 15.921875 
Q 6 25.140625 12.171875 29.828125 
Q 18.359375 34.515625 30.609375 34.515625 
L 43.21875 34.515625 
L 43.21875 35.40625 
Q 43.21875 41.609375 39.140625 45 
Q 35.0625 48.390625 27.6875 48.390625 
Q 23 48.390625 18.546875 47.265625 
Q 14.109375 46.140625 10.015625 43.890625 
L 10.015625 52.203125 
Q 14.9375 54.109375 19.578125 55.046875 
Q 24.21875 56 28.609375 56 
Q 40.484375 56 46.34375 49.84375 
Q 52.203125 43.703125 52.203125 31.203125 
z
" id="DejaVuSans-97"/>
       <path d="M 18.3125 70.21875 
L 18.3125 54.6875 
L 36.8125 54.6875 
L 36.8125 47.703125 
L 18.3125 47.703125 
L 18.3125 18.015625 
Q 18.3125 11.328125 20.140625 9.421875 
Q 21.96875 7.515625 27.59375 7.515625 
L 36.8125 7.515625 
L 36.8125 0 
L 27.59375 0 
Q 17.1875 0 13.234375 3.875 
Q 9.28125 7.765625 9.28125 18.015625 
L 9.28125 47.703125 
L 2.6875 47.703125 
L 2.6875 54.6875 
L 9.28125 54.6875 
L 9.28125 70.21875 
z
" id="DejaVuSans-116"/>
       <path d="M 9.421875 54.6875 
L 18.40625 54.6875 
L 18.40625 0 
L 9.421875 0 
z
M 9.421875 75.984375 
L 18.40625 75.984375 
L 18.40625 64.59375 
L 9.421875 64.59375 
z
" id="DejaVuSans-105"/>
       <path d="M 54.890625 33.015625 
L 54.890625 0 
L 45.90625 0 
L 45.90625 32.71875 
Q 45.90625 40.484375 42.875 44.328125 
Q 39.84375 48.1875 33.796875 48.1875 
Q 26.515625 48.1875 22.3125 43.546875 
Q 18.109375 38.921875 18.109375 30.90625 
L 18.109375 0 
L 9.078125 0 
L 9.078125 54.6875 
L 18.109375 54.6875 
L 18.109375 46.1875 
Q 21.34375 51.125 25.703125 53.5625 
Q 30.078125 56 35.796875 56 
Q 45.21875 56 50.046875 50.171875 
Q 54.890625 44.34375 54.890625 33.015625 
z
" id="DejaVuSans-110"/>
      </defs>
      <use transform="translate(0 0.015625)" xlink:href="#DejaVuSans-Oblique-120"/>
      <use transform="translate(59.179688 0.015625)" xlink:href="#DejaVuSans-32"/>
      <use transform="translate(90.966797 0.015625)" xlink:href="#DejaVuSans-108"/>
      <use transform="translate(118.75 0.015625)" xlink:href="#DejaVuSans-111"/>
      <use transform="translate(179.931641 0.015625)" xlink:href="#DejaVuSans-99"/>
      <use transform="translate(234.912109 0.015625)" xlink:href="#DejaVuSans-97"/>
      <use transform="translate(296.191406 0.015625)" xlink:href="#DejaVuSans-116"/>
      <use transform="translate(335.400391 0.015625)" xlink:href="#DejaVuSans-105"/>
      <use transform="translate(363.183594 0.015625)" xlink:href="#DejaVuSans-111"/>
      <use transform="translate(424.365234 0.015625)" xlink:href="#DejaVuSans-110"/>
     </g>
    </g>
   </g>
   <g id="matplotlib.axis_2">
    <g id="ytick_1">
     <g id="line2d_7">
      <defs>
       <path d="M 0 0 
L -3.5 0 
" id="m73ab007557" style="stroke:#0000ff;stroke-width:0.8;"/>
      </defs>
      <g>
       <use style="fill:#0000ff;stroke:#0000ff;stroke-width:0.8;" x="57.62" xlink:href="#m73ab007557" y="235.736559"/>
      </g>
     </g>
     <g id="text_8">
      <!-- −1.0 -->
      <g style="fill:#0000ff;" transform="translate(26.337188 239.535778)scale(0.1 -0.1)">
       <defs>
        <path d="M 10.59375 35.5 
L 73.1875 35.5 
L 73.1875 27.203125 
L 10.59375 27.203125 
z
" id="DejaVuSans-8722"/>
        <path d="M 10.6875 12.40625 
L 21 12.40625 
L 21 0 
L 10.6875 0 
z
" id="DejaVuSans-46"/>
       </defs>
       <use xlink:href="#DejaVuSans-8722"/>
       <use x="83.789062" xlink:href="#DejaVuSans-49"/>
       <use x="147.412109" xlink:href="#DejaVuSans-46"/>
       <use x="179.199219" xlink:href="#DejaVuSans-48"/>
      </g>
     </g>
    </g>
    <g id="ytick_2">
     <g id="line2d_8">
      <g>
       <use style="fill:#0000ff;stroke:#0000ff;stroke-width:0.8;" x="57.62" xlink:href="#m73ab007557" y="198.213884"/>
      </g>
     </g>
     <g id="text_9">
      <!-- −0.8 -->
      <g style="fill:#0000ff;" transform="translate(26.337188 202.013103)scale(0.1 -0.1)">
       <use xlink:href="#DejaVuSans-8722"/>
       <use x="83.789062" xlink:href="#DejaVuSans-48"/>
       <use x="147.412109" xlink:href="#DejaVuSans-46"/>
       <use x="179.199219" xlink:href="#DejaVuSans-56"/>
      </g>
     </g>
    </g>
    <g id="ytick_3">
     <g id="line2d_9">
      <g>
       <use style="fill:#0000ff;stroke:#0000ff;stroke-width:0.8;" x="57.62" xlink:href="#m73ab007557" y="160.69121"/>
      </g>
     </g>
     <g id="text_10">
      <!-- −0.6 -->
      <g style="fill:#0000ff;" transform="translate(26.337188 164.490429)scale(0.1 -0.1)">
       <use xlink:href="#DejaVuSans-8722"/>
       <use x="83.789062" xlink:href="#DejaVuSans-48"/>
       <use x="147.412109" xlink:href="#DejaVuSans-46"/>
       <use x="179.199219" xlink:href="#DejaVuSans-54"/>
      </g>
     </g>
    </g>
    <g id="ytick_4">
     <g id="line2d_10">
      <g>
       <use style="fill:#0000ff;stroke:#0000ff;stroke-width:0.8;" x="57.62" xlink:href="#m73ab007557" y="123.168536"/>
      </g>
     </g>
     <g id="text_11">
      <!-- −0.4 -->
      <g style="fill:#0000ff;" transform="translate(26.337188 126.967754)scale(0.1 -0.1)">
       <use xlink:href="#DejaVuSans-8722"/>
       <use x="83.789062" xlink:href="#DejaVuSans-48"/>
       <use x="147.412109" xlink:href="#DejaVuSans-46"/>
       <use x="179.199219" xlink:href="#DejaVuSans-52"/>
      </g>
     </g>
    </g>
    <g id="ytick_5">
     <g id="line2d_11">
      <g>
       <use style="fill:#0000ff;stroke:#0000ff;stroke-width:0.8;" x="57.62" xlink:href="#m73ab007557" y="85.645861"/>
      </g>
     </g>
     <g id="text_12">
      <!-- −0.2 -->
      <g style="fill:#0000ff;" transform="translate(26.337188 89.44508)scale(0.1 -0.1)">
       <use xlink:href="#DejaVuSans-8722"/>
       <use x="83.789062" xlink:href="#DejaVuSans-48"/>
       <use x="147.412109" xlink:href="#DejaVuSans-46"/>
       <use x="179.199219" xlink:href="#DejaVuSans-50"/>
      </g>
     </g>
    </g>
    <g id="ytick_6">
     <g id="line2d_12">
      <g>
       <use style="fill:#0000ff;stroke:#0000ff;stroke-width:0.8;" x="57.62" xlink:href="#m73ab007557" y="48.123187"/>
      </g>
     </g>
     <g id="text_13">
      <!-- 0.0 -->
      <g style="fill:#0000ff;" transform="translate(34.716875 51.922405)scale(0.1 -0.1)">
       <use xlink:href="#DejaVuSans-48"/>
       <use x="63.623047" xlink:href="#DejaVuSans-46"/>
       <use x="95.410156" xlink:href="#DejaVuSans-48"/>
      </g>
     </g>
    </g>
    <g id="text_14">
     <!-- $u(x)$ in mm -->
     <g style="fill:#0000ff;" transform="translate(20.2575 168.00248)rotate(-90)scale(0.1 -0.1)">
      <defs>
       <path d="M 6.6875 21.6875 
L 13.09375 54.6875 
L 22.125 54.6875 
L 15.71875 22.015625 
Q 15.234375 19.625 15.015625 17.921875 
Q 14.796875 16.21875 14.796875 15.09375 
Q 14.796875 10.9375 17.328125 8.65625 
Q 19.875 6.390625 24.515625 6.390625 
Q 31.734375 6.390625 37 11.265625 
Q 42.28125 16.15625 43.890625 24.421875 
L 49.90625 54.6875 
L 58.890625 54.6875 
L 48.296875 0 
L 39.3125 0 
L 41.109375 8.59375 
Q 37.3125 3.8125 32.0625 1.1875 
Q 26.8125 -1.421875 20.90625 -1.421875 
Q 13.71875 -1.421875 9.71875 2.515625 
Q 5.71875 6.453125 5.71875 13.484375 
Q 5.71875 14.9375 5.953125 17.140625 
Q 6.203125 19.34375 6.6875 21.6875 
z
" id="DejaVuSans-Oblique-117"/>
       <path d="M 31 75.875 
Q 24.46875 64.65625 21.28125 53.65625 
Q 18.109375 42.671875 18.109375 31.390625 
Q 18.109375 20.125 21.3125 9.0625 
Q 24.515625 -2 31 -13.1875 
L 23.1875 -13.1875 
Q 15.875 -1.703125 12.234375 9.375 
Q 8.59375 20.453125 8.59375 31.390625 
Q 8.59375 42.28125 12.203125 53.3125 
Q 15.828125 64.359375 23.1875 75.875 
z
" id="DejaVuSans-40"/>
       <path d="M 8.015625 75.875 
L 15.828125 75.875 
Q 23.140625 64.359375 26.78125 53.3125 
Q 30.421875 42.28125 30.421875 31.390625 
Q 30.421875 20.453125 26.78125 9.375 
Q 23.140625 -1.703125 15.828125 -13.1875 
L 8.015625 -13.1875 
Q 14.5 -2 17.703125 9.0625 
Q 20.90625 20.125 20.90625 31.390625 
Q 20.90625 42.671875 17.703125 53.65625 
Q 14.5 64.65625 8.015625 75.875 
z
" id="DejaVuSans-41"/>
       <path d="M 52 44.1875 
Q 55.375 50.25 60.0625 53.125 
Q 64.75 56 71.09375 56 
Q 79.640625 56 84.28125 50.015625 
Q 88.921875 44.046875 88.921875 33.015625 
L 88.921875 0 
L 79.890625 0 
L 79.890625 32.71875 
Q 79.890625 40.578125 77.09375 44.375 
Q 74.3125 48.1875 68.609375 48.1875 
Q 61.625 48.1875 57.5625 43.546875 
Q 53.515625 38.921875 53.515625 30.90625 
L 53.515625 0 
L 44.484375 0 
L 44.484375 32.71875 
Q 44.484375 40.625 41.703125 44.40625 
Q 38.921875 48.1875 33.109375 48.1875 
Q 26.21875 48.1875 22.15625 43.53125 
Q 18.109375 38.875 18.109375 30.90625 
L 18.109375 0 
L 9.078125 0 
L 9.078125 54.6875 
L 18.109375 54.6875 
L 18.109375 46.1875 
Q 21.1875 51.21875 25.484375 53.609375 
Q 29.78125 56 35.6875 56 
Q 41.65625 56 45.828125 52.96875 
Q 50 49.953125 52 44.1875 
z
" id="DejaVuSans-109"/>
      </defs>
      <use transform="translate(0 0.015625)" xlink:href="#DejaVuSans-Oblique-117"/>
      <use transform="translate(63.378906 0.015625)" xlink:href="#DejaVuSans-40"/>
      <use transform="translate(102.392578 0.015625)" xlink:href="#DejaVuSans-Oblique-120"/>
      <use transform="translate(161.572266 0.015625)" xlink:href="#DejaVuSans-41"/>
      <use transform="translate(200.585938 0.015625)" xlink:href="#DejaVuSans-32"/>
      <use transform="translate(232.373047 0.015625)" xlink:href="#DejaVuSans-105"/>
      <use transform="translate(260.15625 0.015625)" xlink:href="#DejaVuSans-110"/>
      <use transform="translate(323.535156 0.015625)" xlink:href="#DejaVuSans-32"/>
      <use transform="translate(355.322266 0.015625)" xlink:href="#DejaVuSans-109"/>
      <use transform="translate(452.734375 0.015625)" xlink:href="#DejaVuSans-109"/>
     </g>
    </g>
   </g>
   <g id="line2d_13">
    <path clip-path="url(#pe951905fab)" d="M 57.62 48.123187 
L 62.10549 47.810998 
L 66.59098 47.501811 
L 71.076471 47.198628 
L 75.561961 46.90445 
L 80.047451 46.62228 
L 84.532941 46.355118 
L 89.018431 46.105968 
L 93.503922 45.87783 
L 97.989412 45.673706 
L 102.474902 45.496599 
L 106.960392 45.349511 
L 111.445882 45.235442 
L 115.931373 45.157394 
L 120.416863 45.118371 
L 124.902353 45.121373 
L 129.387843 45.169402 
L 133.873333 45.26546 
L 138.358824 45.412549 
L 142.844314 45.61367 
L 147.329804 45.871826 
L 151.815294 46.190018 
L 156.300784 46.571249 
L 160.786275 47.018519 
L 165.271765 47.534831 
L 169.757255 48.123187 
L 174.242745 48.78592 
L 178.728235 49.522699 
L 183.213725 50.332522 
L 187.699216 51.214388 
L 192.184706 52.167297 
L 196.670196 53.190249 
L 201.155686 54.282242 
L 205.641176 55.442276 
L 210.126667 56.669351 
L 214.612157 57.962466 
L 219.097647 59.32062 
L 223.583137 60.742813 
L 228.068627 62.228043 
L 232.554118 63.775312 
L 237.039608 65.383617 
L 241.525098 67.051958 
L 246.010588 68.779336 
L 250.496078 70.564748 
L 254.981569 72.407195 
L 259.467059 74.305675 
L 263.952549 76.259189 
L 268.438039 78.266735 
L 272.923529 80.327314 
L 277.40902 82.439924 
L 281.89451 84.603565 
L 286.38 86.817236 
L 290.86549 89.079936 
L 295.35098 91.390666 
L 299.836471 93.748424 
L 304.321961 96.15221 
L 308.807451 98.601023 
L 313.292941 101.093863 
L 317.778431 103.629729 
L 322.263922 106.20762 
L 326.749412 108.826536 
L 331.234902 111.485476 
L 335.720392 114.183439 
L 340.205882 116.919426 
L 344.691373 119.692435 
L 349.176863 122.501466 
L 353.662353 125.345518 
L 358.147843 128.22359 
L 362.633333 131.134683 
L 367.118824 134.077795 
L 371.604314 137.051925 
L 376.089804 140.056074 
L 380.575294 143.08924 
L 385.060784 146.150423 
L 389.546275 149.238623 
L 394.031765 152.352838 
L 398.517255 155.492068 
L 403.002745 158.655313 
L 407.488235 161.841572 
L 411.973725 165.049844 
L 416.459216 168.279129 
L 420.944706 171.528425 
L 425.430196 174.796734 
L 429.915686 178.083053 
L 434.401176 181.386382 
L 438.886667 184.705722 
L 443.372157 188.04007 
L 447.857647 191.388427 
L 452.343137 194.749791 
L 456.828627 198.123163 
L 461.314118 201.507541 
L 465.799608 204.901926 
L 470.285098 208.305316 
L 474.770588 211.716711 
L 479.256078 215.13511 
L 483.741569 218.559512 
L 488.227059 221.988918 
L 492.712549 225.422326 
L 497.198039 228.858736 
L 501.683529 232.297147 
L 506.16902 235.736559 
" style="fill:none;stroke:#0000ff;stroke-linecap:square;stroke-width:1.5;"/>
   </g>
   <g id="line2d_14">
    <path clip-path="url(#pe951905fab)" d="M 57.62 48.123187 
L 62.10549 47.810998 
L 66.59098 47.501811 
L 71.076471 47.198628 
L 75.561961 46.90445 
L 80.047451 46.62228 
L 84.532941 46.355118 
L 89.018431 46.105968 
L 93.503922 45.87783 
L 97.989412 45.673706 
L 102.474902 45.496599 
L 106.960392 45.349511 
L 111.445882 45.235442 
L 115.931373 45.157394 
L 120.416863 45.118371 
L 124.902353 45.121373 
L 129.387843 45.169402 
L 133.873333 45.26546 
L 138.358824 45.412549 
L 142.844314 45.61367 
L 147.329804 45.871826 
L 151.815294 46.190018 
L 156.300784 46.571249 
L 160.786275 47.018519 
L 165.271765 47.534831 
L 169.757255 48.123187 
L 174.242745 48.786588 
L 178.728235 49.524033 
L 183.213725 50.334523 
L 187.699216 51.217056 
L 192.184706 52.170632 
L 196.670196 53.194251 
L 201.155686 54.286911 
L 205.641176 55.447613 
L 210.126667 56.675355 
L 214.612157 57.969136 
L 219.097647 59.327958 
L 223.583137 60.750817 
L 228.068627 62.236715 
L 232.554118 63.784651 
L 237.039608 65.393623 
L 241.525098 67.062632 
L 246.010588 68.790676 
L 250.496078 70.576755 
L 254.981569 72.419869 
L 259.467059 74.319016 
L 263.952549 76.273197 
L 268.438039 78.281411 
L 272.923529 80.342656 
L 277.40902 82.455933 
L 281.89451 84.620241 
L 286.38 86.834579 
L 290.86549 89.097947 
L 295.35098 91.409344 
L 299.836471 93.767769 
L 304.321961 96.172222 
L 308.807451 98.621702 
L 313.292941 101.115209 
L 317.778431 103.651742 
L 322.263922 106.2303 
L 326.749412 108.849883 
L 331.234902 111.50949 
L 335.720392 114.208121 
L 340.205882 116.944775 
L 344.691373 119.718451 
L 349.176863 122.528149 
L 353.662353 125.372868 
L 358.147843 128.251607 
L 362.633333 131.163367 
L 367.118824 134.107146 
L 371.604314 137.081943 
L 376.089804 140.086759 
L 380.575294 143.120592 
L 385.060784 146.182443 
L 389.546275 149.271309 
L 394.031765 152.386191 
L 398.517255 155.526089 
L 403.002745 158.690001 
L 407.488235 161.876926 
L 411.973725 165.085866 
L 416.459216 168.315817 
L 420.944706 171.565781 
L 425.430196 174.834757 
L 429.915686 178.121743 
L 434.401176 181.42574 
L 438.886667 184.745746 
L 443.372157 188.080761 
L 447.857647 191.429785 
L 452.343137 194.791817 
L 456.828627 198.165855 
L 461.314118 201.550901 
L 465.799608 204.945953 
L 470.285098 208.35001 
L 474.770588 211.762071 
L 479.256078 215.181137 
L 483.741569 218.606207 
L 488.227059 222.03628 
L 492.712549 225.470355 
L 497.198039 228.907432 
L 501.683529 232.34651 
L 506.16902 235.786589 
" style="fill:none;stroke:#1e90ff;stroke-dasharray:1.5,2.475;stroke-dashoffset:0;stroke-width:1.5;"/>
    <defs>
     <path d="M -3 0 
L 3 0 
M 0 3 
L 0 -3 
" id="m9a83f545ae" style="stroke:#1e90ff;"/>
    </defs>
    <g clip-path="url(#pe951905fab)">
     <use style="fill:#1e90ff;stroke:#1e90ff;" x="57.62" xlink:href="#m9a83f545ae" y="48.123187"/>
     <use style="fill:#1e90ff;stroke:#1e90ff;" x="62.10549" xlink:href="#m9a83f545ae" y="47.810998"/>
     <use style="fill:#1e90ff;stroke:#1e90ff;" x="66.59098" xlink:href="#m9a83f545ae" y="47.501811"/>
     <use style="fill:#1e90ff;stroke:#1e90ff;" x="71.076471" xlink:href="#m9a83f545ae" y="47.198628"/>
     <use style="fill:#1e90ff;stroke:#1e90ff;" x="75.561961" xlink:href="#m9a83f545ae" y="46.90445"/>
     <use style="fill:#1e90ff;stroke:#1e90ff;" x="80.047451" xlink:href="#m9a83f545ae" y="46.62228"/>
     <use style="fill:#1e90ff;stroke:#1e90ff;" x="84.532941" xlink:href="#m9a83f545ae" y="46.355118"/>
     <use style="fill:#1e90ff;stroke:#1e90ff;" x="89.018431" xlink:href="#m9a83f545ae" y="46.105968"/>
     <use style="fill:#1e90ff;stroke:#1e90ff;" x="93.503922" xlink:href="#m9a83f545ae" y="45.87783"/>
     <use style="fill:#1e90ff;stroke:#1e90ff;" x="97.989412" xlink:href="#m9a83f545ae" y="45.673706"/>
     <use style="fill:#1e90ff;stroke:#1e90ff;" x="102.474902" xlink:href="#m9a83f545ae" y="45.496599"/>
     <use style="fill:#1e90ff;stroke:#1e90ff;" x="106.960392" xlink:href="#m9a83f545ae" y="45.349511"/>
     <use style="fill:#1e90ff;stroke:#1e90ff;" x="111.445882" xlink:href="#m9a83f545ae" y="45.235442"/>
     <use style="fill:#1e90ff;stroke:#1e90ff;" x="115.931373" xlink:href="#m9a83f545ae" y="45.157394"/>
     <use style="fill:#1e90ff;stroke:#1e90ff;" x="120.416863" xlink:href="#m9a83f545ae" y="45.118371"/>
     <use style="fill:#1e90ff;stroke:#1e90ff;" x="124.902353" xlink:href="#m9a83f545ae" y="45.121373"/>
     <use style="fill:#1e90ff;stroke:#1e90ff;" x="129.387843" xlink:href="#m9a83f545ae" y="45.169402"/>
     <use style="fill:#1e90ff;stroke:#1e90ff;" x="133.873333" xlink:href="#m9a83f545ae" y="45.26546"/>
     <use style="fill:#1e90ff;stroke:#1e90ff;" x="138.358824" xlink:href="#m9a83f545ae" y="45.412549"/>
     <use style="fill:#1e90ff;stroke:#1e90ff;" x="142.844314" xlink:href="#m9a83f545ae" y="45.61367"/>
     <use style="fill:#1e90ff;stroke:#1e90ff;" x="147.329804" xlink:href="#m9a83f545ae" y="45.871826"/>
     <use style="fill:#1e90ff;stroke:#1e90ff;" x="151.815294" xlink:href="#m9a83f545ae" y="46.190018"/>
     <use style="fill:#1e90ff;stroke:#1e90ff;" x="156.300784" xlink:href="#m9a83f545ae" y="46.571249"/>
     <use style="fill:#1e90ff;stroke:#1e90ff;" x="160.786275" xlink:href="#m9a83f545ae" y="47.018519"/>
     <use style="fill:#1e90ff;stroke:#1e90ff;" x="165.271765" xlink:href="#m9a83f545ae" y="47.534831"/>
     <use style="fill:#1e90ff;stroke:#1e90ff;" x="169.757255" xlink:href="#m9a83f545ae" y="48.123187"/>
     <use style="fill:#1e90ff;stroke:#1e90ff;" x="174.242745" xlink:href="#m9a83f545ae" y="48.786588"/>
     <use style="fill:#1e90ff;stroke:#1e90ff;" x="178.728235" xlink:href="#m9a83f545ae" y="49.524033"/>
     <use style="fill:#1e90ff;stroke:#1e90ff;" x="183.213725" xlink:href="#m9a83f545ae" y="50.334523"/>
     <use style="fill:#1e90ff;stroke:#1e90ff;" x="187.699216" xlink:href="#m9a83f545ae" y="51.217056"/>
     <use style="fill:#1e90ff;stroke:#1e90ff;" x="192.184706" xlink:href="#m9a83f545ae" y="52.170632"/>
     <use style="fill:#1e90ff;stroke:#1e90ff;" x="196.670196" xlink:href="#m9a83f545ae" y="53.194251"/>
     <use style="fill:#1e90ff;stroke:#1e90ff;" x="201.155686" xlink:href="#m9a83f545ae" y="54.286911"/>
     <use style="fill:#1e90ff;stroke:#1e90ff;" x="205.641176" xlink:href="#m9a83f545ae" y="55.447613"/>
     <use style="fill:#1e90ff;stroke:#1e90ff;" x="210.126667" xlink:href="#m9a83f545ae" y="56.675355"/>
     <use style="fill:#1e90ff;stroke:#1e90ff;" x="214.612157" xlink:href="#m9a83f545ae" y="57.969136"/>
     <use style="fill:#1e90ff;stroke:#1e90ff;" x="219.097647" xlink:href="#m9a83f545ae" y="59.327958"/>
     <use style="fill:#1e90ff;stroke:#1e90ff;" x="223.583137" xlink:href="#m9a83f545ae" y="60.750817"/>
     <use style="fill:#1e90ff;stroke:#1e90ff;" x="228.068627" xlink:href="#m9a83f545ae" y="62.236715"/>
     <use style="fill:#1e90ff;stroke:#1e90ff;" x="232.554118" xlink:href="#m9a83f545ae" y="63.784651"/>
     <use style="fill:#1e90ff;stroke:#1e90ff;" x="237.039608" xlink:href="#m9a83f545ae" y="65.393623"/>
     <use style="fill:#1e90ff;stroke:#1e90ff;" x="241.525098" xlink:href="#m9a83f545ae" y="67.062632"/>
     <use style="fill:#1e90ff;stroke:#1e90ff;" x="246.010588" xlink:href="#m9a83f545ae" y="68.790676"/>
     <use style="fill:#1e90ff;stroke:#1e90ff;" x="250.496078" xlink:href="#m9a83f545ae" y="70.576755"/>
     <use style="fill:#1e90ff;stroke:#1e90ff;" x="254.981569" xlink:href="#m9a83f545ae" y="72.419869"/>
     <use style="fill:#1e90ff;stroke:#1e90ff;" x="259.467059" xlink:href="#m9a83f545ae" y="74.319016"/>
     <use style="fill:#1e90ff;stroke:#1e90ff;" x="263.952549" xlink:href="#m9a83f545ae" y="76.273197"/>
     <use style="fill:#1e90ff;stroke:#1e90ff;" x="268.438039" xlink:href="#m9a83f545ae" y="78.281411"/>
     <use style="fill:#1e90ff;stroke:#1e90ff;" x="272.923529" xlink:href="#m9a83f545ae" y="80.342656"/>
     <use style="fill:#1e90ff;stroke:#1e90ff;" x="277.40902" xlink:href="#m9a83f545ae" y="82.455933"/>
     <use style="fill:#1e90ff;stroke:#1e90ff;" x="281.89451" xlink:href="#m9a83f545ae" y="84.620241"/>
     <use style="fill:#1e90ff;stroke:#1e90ff;" x="286.38" xlink:href="#m9a83f545ae" y="86.834579"/>
     <use style="fill:#1e90ff;stroke:#1e90ff;" x="290.86549" xlink:href="#m9a83f545ae" y="89.097947"/>
     <use style="fill:#1e90ff;stroke:#1e90ff;" x="295.35098" xlink:href="#m9a83f545ae" y="91.409344"/>
     <use style="fill:#1e90ff;stroke:#1e90ff;" x="299.836471" xlink:href="#m9a83f545ae" y="93.767769"/>
     <use style="fill:#1e90ff;stroke:#1e90ff;" x="304.321961" xlink:href="#m9a83f545ae" y="96.172222"/>
     <use style="fill:#1e90ff;stroke:#1e90ff;" x="308.807451" xlink:href="#m9a83f545ae" y="98.621702"/>
     <use style="fill:#1e90ff;stroke:#1e90ff;" x="313.292941" xlink:href="#m9a83f545ae" y="101.115209"/>
     <use style="fill:#1e90ff;stroke:#1e90ff;" x="317.778431" xlink:href="#m9a83f545ae" y="103.651742"/>
     <use style="fill:#1e90ff;stroke:#1e90ff;" x="322.263922" xlink:href="#m9a83f545ae" y="106.2303"/>
     <use style="fill:#1e90ff;stroke:#1e90ff;" x="326.749412" xlink:href="#m9a83f545ae" y="108.849883"/>
     <use style="fill:#1e90ff;stroke:#1e90ff;" x="331.234902" xlink:href="#m9a83f545ae" y="111.50949"/>
     <use style="fill:#1e90ff;stroke:#1e90ff;" x="335.720392" xlink:href="#m9a83f545ae" y="114.208121"/>
     <use style="fill:#1e90ff;stroke:#1e90ff;" x="340.205882" xlink:href="#m9a83f545ae" y="116.944775"/>
     <use style="fill:#1e90ff;stroke:#1e90ff;" x="344.691373" xlink:href="#m9a83f545ae" y="119.718451"/>
     <use style="fill:#1e90ff;stroke:#1e90ff;" x="349.176863" xlink:href="#m9a83f545ae" y="122.528149"/>
     <use style="fill:#1e90ff;stroke:#1e90ff;" x="353.662353" xlink:href="#m9a83f545ae" y="125.372868"/>
     <use style="fill:#1e90ff;stroke:#1e90ff;" x="358.147843" xlink:href="#m9a83f545ae" y="128.251607"/>
     <use style="fill:#1e90ff;stroke:#1e90ff;" x="362.633333" xlink:href="#m9a83f545ae" y="131.163367"/>
     <use style="fill:#1e90ff;stroke:#1e90ff;" x="367.118824" xlink:href="#m9a83f545ae" y="134.107146"/>
     <use style="fill:#1e90ff;stroke:#1e90ff;" x="371.604314" xlink:href="#m9a83f545ae" y="137.081943"/>
     <use style="fill:#1e90ff;stroke:#1e90ff;" x="376.089804" xlink:href="#m9a83f545ae" y="140.086759"/>
     <use style="fill:#1e90ff;stroke:#1e90ff;" x="380.575294" xlink:href="#m9a83f545ae" y="143.120592"/>
     <use style="fill:#1e90ff;stroke:#1e90ff;" x="385.060784" xlink:href="#m9a83f545ae" y="146.182443"/>
     <use style="fill:#1e90ff;stroke:#1e90ff;" x="389.546275" xlink:href="#m9a83f545ae" y="149.271309"/>
     <use style="fill:#1e90ff;stroke:#1e90ff;" x="394.031765" xlink:href="#m9a83f545ae" y="152.386191"/>
     <use style="fill:#1e90ff;stroke:#1e90ff;" x="398.517255" xlink:href="#m9a83f545ae" y="155.526089"/>
     <use style="fill:#1e90ff;stroke:#1e90ff;" x="403.002745" xlink:href="#m9a83f545ae" y="158.690001"/>
     <use style="fill:#1e90ff;stroke:#1e90ff;" x="407.488235" xlink:href="#m9a83f545ae" y="161.876926"/>
     <use style="fill:#1e90ff;stroke:#1e90ff;" x="411.973725" xlink:href="#m9a83f545ae" y="165.085866"/>
     <use style="fill:#1e90ff;stroke:#1e90ff;" x="416.459216" xlink:href="#m9a83f545ae" y="168.315817"/>
     <use style="fill:#1e90ff;stroke:#1e90ff;" x="420.944706" xlink:href="#m9a83f545ae" y="171.565781"/>
     <use style="fill:#1e90ff;stroke:#1e90ff;" x="425.430196" xlink:href="#m9a83f545ae" y="174.834757"/>
     <use style="fill:#1e90ff;stroke:#1e90ff;" x="429.915686" xlink:href="#m9a83f545ae" y="178.121743"/>
     <use style="fill:#1e90ff;stroke:#1e90ff;" x="434.401176" xlink:href="#m9a83f545ae" y="181.42574"/>
     <use style="fill:#1e90ff;stroke:#1e90ff;" x="438.886667" xlink:href="#m9a83f545ae" y="184.745746"/>
     <use style="fill:#1e90ff;stroke:#1e90ff;" x="443.372157" xlink:href="#m9a83f545ae" y="188.080761"/>
     <use style="fill:#1e90ff;stroke:#1e90ff;" x="447.857647" xlink:href="#m9a83f545ae" y="191.429785"/>
     <use style="fill:#1e90ff;stroke:#1e90ff;" x="452.343137" xlink:href="#m9a83f545ae" y="194.791817"/>
     <use style="fill:#1e90ff;stroke:#1e90ff;" x="456.828627" xlink:href="#m9a83f545ae" y="198.165855"/>
     <use style="fill:#1e90ff;stroke:#1e90ff;" x="461.314118" xlink:href="#m9a83f545ae" y="201.550901"/>
     <use style="fill:#1e90ff;stroke:#1e90ff;" x="465.799608" xlink:href="#m9a83f545ae" y="204.945953"/>
     <use style="fill:#1e90ff;stroke:#1e90ff;" x="470.285098" xlink:href="#m9a83f545ae" y="208.35001"/>
     <use style="fill:#1e90ff;stroke:#1e90ff;" x="474.770588" xlink:href="#m9a83f545ae" y="211.762071"/>
     <use style="fill:#1e90ff;stroke:#1e90ff;" x="479.256078" xlink:href="#m9a83f545ae" y="215.181137"/>
     <use style="fill:#1e90ff;stroke:#1e90ff;" x="483.741569" xlink:href="#m9a83f545ae" y="218.606207"/>
     <use style="fill:#1e90ff;stroke:#1e90ff;" x="488.227059" xlink:href="#m9a83f545ae" y="222.03628"/>
     <use style="fill:#1e90ff;stroke:#1e90ff;" x="492.712549" xlink:href="#m9a83f545ae" y="225.470355"/>
     <use style="fill:#1e90ff;stroke:#1e90ff;" x="497.198039" xlink:href="#m9a83f545ae" y="228.907432"/>
     <use style="fill:#1e90ff;stroke:#1e90ff;" x="501.683529" xlink:href="#m9a83f545ae" y="232.34651"/>
     <use style="fill:#1e90ff;stroke:#1e90ff;" x="506.16902" xlink:href="#m9a83f545ae" y="235.786589"/>
    </g>
   </g>
   <g id="patch_5">
    <path d="M 57.62 245.32 
L 57.62 35.58496 
" style="fill:none;stroke:#000000;stroke-linecap:square;stroke-linejoin:miter;stroke-width:0.8;"/>
   </g>
   <g id="patch_6">
    <path d="M 515.14 245.32 
L 515.14 35.58496 
" style="fill:none;stroke:#000000;stroke-linecap:square;stroke-linejoin:miter;stroke-width:0.8;"/>
   </g>
   <g id="patch_7">
    <path d="M 57.62 245.32 
L 515.14 245.32 
" style="fill:none;stroke:#000000;stroke-linecap:square;stroke-linejoin:miter;stroke-width:0.8;"/>
   </g>
   <g id="patch_8">
    <path d="M 57.62 35.58496 
L 515.14 35.58496 
" style="fill:none;stroke:#000000;stroke-linecap:square;stroke-linejoin:miter;stroke-width:0.8;"/>
   </g>
   <g id="patch_9">
    <path d="M 506.16902 194.914606 
Q 506.16902 214.326461 506.16902 232.620282 
" style="fill:none;stroke:#000000;stroke-linecap:round;"/>
    <path d="M 508.16902 228.620282 
L 506.16902 232.620282 
L 504.16902 228.620282 
L 508.16902 228.620282 
z
" style="fill:#1f77b4;stroke:#000000;stroke-linecap:round;"/>
   </g>
   <g id="text_15">
    <!-- $P$ -->
    <g transform="translate(503.11902 188.833216)scale(0.1 -0.1)">
     <defs>
      <path d="M 16.890625 72.90625 
L 39.703125 72.90625 
Q 49.65625 72.90625 54.875 68.265625 
Q 60.109375 63.625 60.109375 54.6875 
Q 60.109375 42.671875 52.390625 35.984375 
Q 44.671875 29.296875 30.71875 29.296875 
L 18.3125 29.296875 
L 12.59375 0 
L 2.6875 0 
z
M 25.203125 64.796875 
L 19.921875 37.40625 
L 32.328125 37.40625 
Q 40.71875 37.40625 45.203125 41.703125 
Q 49.703125 46 49.703125 54 
Q 49.703125 59.125 46.65625 61.953125 
Q 43.609375 64.796875 38.09375 64.796875 
z
" id="DejaVuSans-Oblique-80"/>
     </defs>
     <use transform="translate(0 0.09375)" xlink:href="#DejaVuSans-Oblique-80"/>
    </g>
   </g>
  </g>
  <g id="axes_2">
   <g id="matplotlib.axis_3">
    <g id="ytick_7">
     <g id="line2d_15">
      <defs>
       <path d="M 0 0 
L 3.5 0 
" id="m90dbbe5f0e" style="stroke:#008000;stroke-width:0.8;"/>
      </defs>
      <g>
       <use style="fill:#008000;stroke:#008000;stroke-width:0.8;" x="515.14" xlink:href="#m90dbbe5f0e" y="245.32"/>
      </g>
     </g>
     <g id="text_16">
      <!-- −800 -->
      <g style="fill:#008000;" transform="translate(522.14 249.119219)scale(0.1 -0.1)">
       <use xlink:href="#DejaVuSans-8722"/>
       <use x="83.789062" xlink:href="#DejaVuSans-56"/>
       <use x="147.412109" xlink:href="#DejaVuSans-48"/>
       <use x="211.035156" xlink:href="#DejaVuSans-48"/>
      </g>
     </g>
    </g>
    <g id="ytick_8">
     <g id="line2d_16">
      <g>
       <use style="fill:#008000;stroke:#008000;stroke-width:0.8;" x="515.14" xlink:href="#m90dbbe5f0e" y="219.10312"/>
      </g>
     </g>
     <g id="text_17">
      <!-- −700 -->
      <g style="fill:#008000;" transform="translate(522.14 222.902339)scale(0.1 -0.1)">
       <defs>
        <path d="M 8.203125 72.90625 
L 55.078125 72.90625 
L 55.078125 68.703125 
L 28.609375 0 
L 18.3125 0 
L 43.21875 64.59375 
L 8.203125 64.59375 
z
" id="DejaVuSans-55"/>
       </defs>
       <use xlink:href="#DejaVuSans-8722"/>
       <use x="83.789062" xlink:href="#DejaVuSans-55"/>
       <use x="147.412109" xlink:href="#DejaVuSans-48"/>
       <use x="211.035156" xlink:href="#DejaVuSans-48"/>
      </g>
     </g>
    </g>
    <g id="ytick_9">
     <g id="line2d_17">
      <g>
       <use style="fill:#008000;stroke:#008000;stroke-width:0.8;" x="515.14" xlink:href="#m90dbbe5f0e" y="192.88624"/>
      </g>
     </g>
     <g id="text_18">
      <!-- −600 -->
      <g style="fill:#008000;" transform="translate(522.14 196.685459)scale(0.1 -0.1)">
       <use xlink:href="#DejaVuSans-8722"/>
       <use x="83.789062" xlink:href="#DejaVuSans-54"/>
       <use x="147.412109" xlink:href="#DejaVuSans-48"/>
       <use x="211.035156" xlink:href="#DejaVuSans-48"/>
      </g>
     </g>
    </g>
    <g id="ytick_10">
     <g id="line2d_18">
      <g>
       <use style="fill:#008000;stroke:#008000;stroke-width:0.8;" x="515.14" xlink:href="#m90dbbe5f0e" y="166.66936"/>
      </g>
     </g>
     <g id="text_19">
      <!-- −500 -->
      <g style="fill:#008000;" transform="translate(522.14 170.468579)scale(0.1 -0.1)">
       <defs>
        <path d="M 10.796875 72.90625 
L 49.515625 72.90625 
L 49.515625 64.59375 
L 19.828125 64.59375 
L 19.828125 46.734375 
Q 21.96875 47.46875 24.109375 47.828125 
Q 26.265625 48.1875 28.421875 48.1875 
Q 40.625 48.1875 47.75 41.5 
Q 54.890625 34.8125 54.890625 23.390625 
Q 54.890625 11.625 47.5625 5.09375 
Q 40.234375 -1.421875 26.90625 -1.421875 
Q 22.3125 -1.421875 17.546875 -0.640625 
Q 12.796875 0.140625 7.71875 1.703125 
L 7.71875 11.625 
Q 12.109375 9.234375 16.796875 8.0625 
Q 21.484375 6.890625 26.703125 6.890625 
Q 35.15625 6.890625 40.078125 11.328125 
Q 45.015625 15.765625 45.015625 23.390625 
Q 45.015625 31 40.078125 35.4375 
Q 35.15625 39.890625 26.703125 39.890625 
Q 22.75 39.890625 18.8125 39.015625 
Q 14.890625 38.140625 10.796875 36.28125 
z
" id="DejaVuSans-53"/>
       </defs>
       <use xlink:href="#DejaVuSans-8722"/>
       <use x="83.789062" xlink:href="#DejaVuSans-53"/>
       <use x="147.412109" xlink:href="#DejaVuSans-48"/>
       <use x="211.035156" xlink:href="#DejaVuSans-48"/>
      </g>
     </g>
    </g>
    <g id="ytick_11">
     <g id="line2d_19">
      <g>
       <use style="fill:#008000;stroke:#008000;stroke-width:0.8;" x="515.14" xlink:href="#m90dbbe5f0e" y="140.45248"/>
      </g>
     </g>
     <g id="text_20">
      <!-- −400 -->
      <g style="fill:#008000;" transform="translate(522.14 144.251699)scale(0.1 -0.1)">
       <use xlink:href="#DejaVuSans-8722"/>
       <use x="83.789062" xlink:href="#DejaVuSans-52"/>
       <use x="147.412109" xlink:href="#DejaVuSans-48"/>
       <use x="211.035156" xlink:href="#DejaVuSans-48"/>
      </g>
     </g>
    </g>
    <g id="ytick_12">
     <g id="line2d_20">
      <g>
       <use style="fill:#008000;stroke:#008000;stroke-width:0.8;" x="515.14" xlink:href="#m90dbbe5f0e" y="114.2356"/>
      </g>
     </g>
     <g id="text_21">
      <!-- −300 -->
      <g style="fill:#008000;" transform="translate(522.14 118.034819)scale(0.1 -0.1)">
       <defs>
        <path d="M 40.578125 39.3125 
Q 47.65625 37.796875 51.625 33 
Q 55.609375 28.21875 55.609375 21.1875 
Q 55.609375 10.40625 48.1875 4.484375 
Q 40.765625 -1.421875 27.09375 -1.421875 
Q 22.515625 -1.421875 17.65625 -0.515625 
Q 12.796875 0.390625 7.625 2.203125 
L 7.625 11.71875 
Q 11.71875 9.328125 16.59375 8.109375 
Q 21.484375 6.890625 26.8125 6.890625 
Q 36.078125 6.890625 40.9375 10.546875 
Q 45.796875 14.203125 45.796875 21.1875 
Q 45.796875 27.640625 41.28125 31.265625 
Q 36.765625 34.90625 28.71875 34.90625 
L 20.21875 34.90625 
L 20.21875 43.015625 
L 29.109375 43.015625 
Q 36.375 43.015625 40.234375 45.921875 
Q 44.09375 48.828125 44.09375 54.296875 
Q 44.09375 59.90625 40.109375 62.90625 
Q 36.140625 65.921875 28.71875 65.921875 
Q 24.65625 65.921875 20.015625 65.03125 
Q 15.375 64.15625 9.8125 62.3125 
L 9.8125 71.09375 
Q 15.4375 72.65625 20.34375 73.4375 
Q 25.25 74.21875 29.59375 74.21875 
Q 40.828125 74.21875 47.359375 69.109375 
Q 53.90625 64.015625 53.90625 55.328125 
Q 53.90625 49.265625 50.4375 45.09375 
Q 46.96875 40.921875 40.578125 39.3125 
z
" id="DejaVuSans-51"/>
       </defs>
       <use xlink:href="#DejaVuSans-8722"/>
       <use x="83.789062" xlink:href="#DejaVuSans-51"/>
       <use x="147.412109" xlink:href="#DejaVuSans-48"/>
       <use x="211.035156" xlink:href="#DejaVuSans-48"/>
      </g>
     </g>
    </g>
    <g id="ytick_13">
     <g id="line2d_21">
      <g>
       <use style="fill:#008000;stroke:#008000;stroke-width:0.8;" x="515.14" xlink:href="#m90dbbe5f0e" y="88.01872"/>
      </g>
     </g>
     <g id="text_22">
      <!-- −200 -->
      <g style="fill:#008000;" transform="translate(522.14 91.817939)scale(0.1 -0.1)">
       <use xlink:href="#DejaVuSans-8722"/>
       <use x="83.789062" xlink:href="#DejaVuSans-50"/>
       <use x="147.412109" xlink:href="#DejaVuSans-48"/>
       <use x="211.035156" xlink:href="#DejaVuSans-48"/>
      </g>
     </g>
    </g>
    <g id="ytick_14">
     <g id="line2d_22">
      <g>
       <use style="fill:#008000;stroke:#008000;stroke-width:0.8;" x="515.14" xlink:href="#m90dbbe5f0e" y="61.80184"/>
      </g>
     </g>
     <g id="text_23">
      <!-- −100 -->
      <g style="fill:#008000;" transform="translate(522.14 65.601059)scale(0.1 -0.1)">
       <use xlink:href="#DejaVuSans-8722"/>
       <use x="83.789062" xlink:href="#DejaVuSans-49"/>
       <use x="147.412109" xlink:href="#DejaVuSans-48"/>
       <use x="211.035156" xlink:href="#DejaVuSans-48"/>
      </g>
     </g>
    </g>
    <g id="ytick_15">
     <g id="line2d_23">
      <g>
       <use style="fill:#008000;stroke:#008000;stroke-width:0.8;" x="515.14" xlink:href="#m90dbbe5f0e" y="35.58496"/>
      </g>
     </g>
     <g id="text_24">
      <!-- 0 -->
      <g style="fill:#008000;" transform="translate(522.14 39.384179)scale(0.1 -0.1)">
       <use xlink:href="#DejaVuSans-48"/>
      </g>
     </g>
    </g>
    <g id="text_25">
     <!-- $M(x)$ in Nmm -->
     <g style="fill:#008000;" transform="translate(561.205625 172.85248)rotate(-90)scale(0.1 -0.1)">
      <defs>
       <path d="M 16.890625 72.90625 
L 31.6875 72.90625 
L 40.1875 23.78125 
L 68.40625 72.90625 
L 83.59375 72.90625 
L 69.390625 0 
L 59.8125 0 
L 72.21875 63.921875 
L 43.609375 14.015625 
L 33.984375 14.015625 
L 24.703125 64.109375 
L 12.3125 0 
L 2.6875 0 
z
" id="DejaVuSans-Oblique-77"/>
       <path d="M 9.8125 72.90625 
L 23.09375 72.90625 
L 55.421875 11.921875 
L 55.421875 72.90625 
L 64.984375 72.90625 
L 64.984375 0 
L 51.703125 0 
L 19.390625 60.984375 
L 19.390625 0 
L 9.8125 0 
z
" id="DejaVuSans-78"/>
      </defs>
      <use transform="translate(0 0.015625)" xlink:href="#DejaVuSans-Oblique-77"/>
      <use transform="translate(86.279297 0.015625)" xlink:href="#DejaVuSans-40"/>
      <use transform="translate(125.292969 0.015625)" xlink:href="#DejaVuSans-Oblique-120"/>
      <use transform="translate(184.472656 0.015625)" xlink:href="#DejaVuSans-41"/>
      <use transform="translate(223.486328 0.015625)" xlink:href="#DejaVuSans-32"/>
      <use transform="translate(255.273438 0.015625)" xlink:href="#DejaVuSans-105"/>
      <use transform="translate(283.056641 0.015625)" xlink:href="#DejaVuSans-110"/>
      <use transform="translate(346.435547 0.015625)" xlink:href="#DejaVuSans-32"/>
      <use transform="translate(378.222656 0.015625)" xlink:href="#DejaVuSans-78"/>
      <use transform="translate(453.027344 0.015625)" xlink:href="#DejaVuSans-109"/>
      <use transform="translate(550.439453 0.015625)" xlink:href="#DejaVuSans-109"/>
     </g>
    </g>
   </g>
   <g id="line2d_24">
    <path clip-path="url(#pe951905fab)" d="M 57.62 35.58496 
L 62.10549 43.450024 
L 66.59098 51.315088 
L 71.076471 59.180152 
L 75.561961 67.045216 
L 80.047451 74.91028 
L 84.532941 82.775344 
L 89.018431 90.640408 
L 93.503922 98.505472 
L 97.989412 106.370536 
L 102.474902 114.2356 
L 106.960392 122.100664 
L 111.445882 129.965728 
L 115.931373 137.830792 
L 120.416863 145.695856 
L 124.902353 153.56092 
L 129.387843 161.425984 
L 133.873333 169.291048 
L 138.358824 177.156112 
L 142.844314 185.021176 
L 147.329804 192.88624 
L 151.815294 200.751304 
L 156.300784 208.616368 
L 160.786275 216.481432 
L 165.271765 224.346496 
L 169.757255 232.21156 
L 174.242745 229.589872 
L 178.728235 226.968184 
L 183.213725 224.346496 
L 187.699216 221.724808 
L 192.184706 219.10312 
L 196.670196 216.481432 
L 201.155686 213.859744 
L 205.641176 211.238056 
L 210.126667 208.616368 
L 214.612157 205.99468 
L 219.097647 203.372992 
L 223.583137 200.751304 
L 228.068627 198.129616 
L 232.554118 195.507928 
L 237.039608 192.88624 
L 241.525098 190.264552 
L 246.010588 187.642864 
L 250.496078 185.021176 
L 254.981569 182.399488 
L 259.467059 179.7778 
L 263.952549 177.156112 
L 268.438039 174.534424 
L 272.923529 171.912736 
L 277.40902 169.291048 
L 281.89451 166.66936 
L 286.38 164.047672 
L 290.86549 161.425984 
L 295.35098 158.804296 
L 299.836471 156.182608 
L 304.321961 153.56092 
L 308.807451 150.939232 
L 313.292941 148.317544 
L 317.778431 145.695856 
L 322.263922 143.074168 
L 326.749412 140.45248 
L 331.234902 137.830792 
L 335.720392 135.209104 
L 340.205882 132.587416 
L 344.691373 129.965728 
L 349.176863 127.34404 
L 353.662353 124.722352 
L 358.147843 122.100664 
L 362.633333 119.478976 
L 367.118824 116.857288 
L 371.604314 114.2356 
L 376.089804 111.613912 
L 380.575294 108.992224 
L 385.060784 106.370536 
L 389.546275 103.748848 
L 394.031765 101.12716 
L 398.517255 98.505472 
L 403.002745 95.883784 
L 407.488235 93.262096 
L 411.973725 90.640408 
L 416.459216 88.01872 
L 420.944706 85.397032 
L 425.430196 82.775344 
L 429.915686 80.153656 
L 434.401176 77.531968 
L 438.886667 74.91028 
L 443.372157 72.288592 
L 447.857647 69.666904 
L 452.343137 67.045216 
L 456.828627 64.423528 
L 461.314118 61.80184 
L 465.799608 59.180152 
L 470.285098 56.558464 
L 474.770588 53.936776 
L 479.256078 51.315088 
L 483.741569 48.6934 
L 488.227059 46.071712 
L 492.712549 43.450024 
L 497.198039 40.828336 
L 501.683529 38.206648 
L 506.16902 35.58496 
" style="fill:none;stroke:#008000;stroke-linecap:square;stroke-width:1.5;"/>
   </g>
   <g id="patch_10">
    <path d="M 57.62 245.32 
L 57.62 35.58496 
" style="fill:none;stroke:#0000ff;stroke-linecap:square;stroke-linejoin:miter;stroke-width:0.8;"/>
   </g>
   <g id="patch_11">
    <path d="M 515.14 245.32 
L 515.14 35.58496 
" style="fill:none;stroke:#008000;stroke-linecap:square;stroke-linejoin:miter;stroke-width:0.8;"/>
   </g>
   <g id="patch_12">
    <path d="M 57.62 245.32 
L 515.14 245.32 
" style="fill:none;stroke:#000000;stroke-linecap:square;stroke-linejoin:miter;stroke-width:0.8;"/>
   </g>
   <g id="patch_13">
    <path d="M 57.62 35.58496 
L 515.14 35.58496 
" style="fill:none;stroke:#000000;stroke-linecap:square;stroke-linejoin:miter;stroke-width:0.8;"/>
   </g>
   <g id="legend_1">
    <g id="patch_14">
     <path d="M 64.62 29.532835 
L 508.14 29.532835 
Q 510.14 29.532835 510.14 27.532835 
L 510.14 13.85471 
Q 510.14 11.85471 508.14 11.85471 
L 64.62 11.85471 
Q 62.62 11.85471 62.62 13.85471 
L 62.62 27.532835 
Q 62.62 29.532835 64.62 29.532835 
z
" style="fill:#ffffff;opacity:0.8;stroke:#cccccc;stroke-linejoin:miter;"/>
    </g>
    <g id="line2d_25">
     <path d="M 66.62 19.953147 
L 86.62 19.953147 
" style="fill:none;stroke:#0000ff;stroke-linecap:square;stroke-width:1.5;"/>
    </g>
    <g id="line2d_26"/>
    <g id="text_26">
     <!-- Displacement Exact -->
     <g transform="translate(94.62 23.453147)scale(0.1 -0.1)">
      <defs>
       <path d="M 19.671875 64.796875 
L 19.671875 8.109375 
L 31.59375 8.109375 
Q 46.6875 8.109375 53.6875 14.9375 
Q 60.6875 21.78125 60.6875 36.53125 
Q 60.6875 51.171875 53.6875 57.984375 
Q 46.6875 64.796875 31.59375 64.796875 
z
M 9.8125 72.90625 
L 30.078125 72.90625 
Q 51.265625 72.90625 61.171875 64.09375 
Q 71.09375 55.28125 71.09375 36.53125 
Q 71.09375 17.671875 61.125 8.828125 
Q 51.171875 0 30.078125 0 
L 9.8125 0 
z
" id="DejaVuSans-68"/>
       <path d="M 44.28125 53.078125 
L 44.28125 44.578125 
Q 40.484375 46.53125 36.375 47.5 
Q 32.28125 48.484375 27.875 48.484375 
Q 21.1875 48.484375 17.84375 46.4375 
Q 14.5 44.390625 14.5 40.28125 
Q 14.5 37.15625 16.890625 35.375 
Q 19.28125 33.59375 26.515625 31.984375 
L 29.59375 31.296875 
Q 39.15625 29.25 43.1875 25.515625 
Q 47.21875 21.78125 47.21875 15.09375 
Q 47.21875 7.46875 41.1875 3.015625 
Q 35.15625 -1.421875 24.609375 -1.421875 
Q 20.21875 -1.421875 15.453125 -0.5625 
Q 10.6875 0.296875 5.421875 2 
L 5.421875 11.28125 
Q 10.40625 8.6875 15.234375 7.390625 
Q 20.0625 6.109375 24.8125 6.109375 
Q 31.15625 6.109375 34.5625 8.28125 
Q 37.984375 10.453125 37.984375 14.40625 
Q 37.984375 18.0625 35.515625 20.015625 
Q 33.0625 21.96875 24.703125 23.78125 
L 21.578125 24.515625 
Q 13.234375 26.265625 9.515625 29.90625 
Q 5.8125 33.546875 5.8125 39.890625 
Q 5.8125 47.609375 11.28125 51.796875 
Q 16.75 56 26.8125 56 
Q 31.78125 56 36.171875 55.265625 
Q 40.578125 54.546875 44.28125 53.078125 
z
" id="DejaVuSans-115"/>
       <path d="M 18.109375 8.203125 
L 18.109375 -20.796875 
L 9.078125 -20.796875 
L 9.078125 54.6875 
L 18.109375 54.6875 
L 18.109375 46.390625 
Q 20.953125 51.265625 25.265625 53.625 
Q 29.59375 56 35.59375 56 
Q 45.5625 56 51.78125 48.09375 
Q 58.015625 40.1875 58.015625 27.296875 
Q 58.015625 14.40625 51.78125 6.484375 
Q 45.5625 -1.421875 35.59375 -1.421875 
Q 29.59375 -1.421875 25.265625 0.953125 
Q 20.953125 3.328125 18.109375 8.203125 
z
M 48.6875 27.296875 
Q 48.6875 37.203125 44.609375 42.84375 
Q 40.53125 48.484375 33.40625 48.484375 
Q 26.265625 48.484375 22.1875 42.84375 
Q 18.109375 37.203125 18.109375 27.296875 
Q 18.109375 17.390625 22.1875 11.75 
Q 26.265625 6.109375 33.40625 6.109375 
Q 40.53125 6.109375 44.609375 11.75 
Q 48.6875 17.390625 48.6875 27.296875 
z
" id="DejaVuSans-112"/>
       <path d="M 56.203125 29.59375 
L 56.203125 25.203125 
L 14.890625 25.203125 
Q 15.484375 15.921875 20.484375 11.0625 
Q 25.484375 6.203125 34.421875 6.203125 
Q 39.59375 6.203125 44.453125 7.46875 
Q 49.3125 8.734375 54.109375 11.28125 
L 54.109375 2.78125 
Q 49.265625 0.734375 44.1875 -0.34375 
Q 39.109375 -1.421875 33.890625 -1.421875 
Q 20.796875 -1.421875 13.15625 6.1875 
Q 5.515625 13.8125 5.515625 26.8125 
Q 5.515625 40.234375 12.765625 48.109375 
Q 20.015625 56 32.328125 56 
Q 43.359375 56 49.78125 48.890625 
Q 56.203125 41.796875 56.203125 29.59375 
z
M 47.21875 32.234375 
Q 47.125 39.59375 43.09375 43.984375 
Q 39.0625 48.390625 32.421875 48.390625 
Q 24.90625 48.390625 20.390625 44.140625 
Q 15.875 39.890625 15.1875 32.171875 
z
" id="DejaVuSans-101"/>
       <path d="M 9.8125 72.90625 
L 55.90625 72.90625 
L 55.90625 64.59375 
L 19.671875 64.59375 
L 19.671875 43.015625 
L 54.390625 43.015625 
L 54.390625 34.71875 
L 19.671875 34.71875 
L 19.671875 8.296875 
L 56.78125 8.296875 
L 56.78125 0 
L 9.8125 0 
z
" id="DejaVuSans-69"/>
       <path d="M 54.890625 54.6875 
L 35.109375 28.078125 
L 55.90625 0 
L 45.3125 0 
L 29.390625 21.484375 
L 13.484375 0 
L 2.875 0 
L 24.125 28.609375 
L 4.6875 54.6875 
L 15.28125 54.6875 
L 29.78125 35.203125 
L 44.28125 54.6875 
z
" id="DejaVuSans-120"/>
      </defs>
      <use xlink:href="#DejaVuSans-68"/>
      <use x="77.001953" xlink:href="#DejaVuSans-105"/>
      <use x="104.785156" xlink:href="#DejaVuSans-115"/>
      <use x="156.884766" xlink:href="#DejaVuSans-112"/>
      <use x="220.361328" xlink:href="#DejaVuSans-108"/>
      <use x="248.144531" xlink:href="#DejaVuSans-97"/>
      <use x="309.423828" xlink:href="#DejaVuSans-99"/>
      <use x="364.404297" xlink:href="#DejaVuSans-101"/>
      <use x="425.927734" xlink:href="#DejaVuSans-109"/>
      <use x="523.339844" xlink:href="#DejaVuSans-101"/>
      <use x="584.863281" xlink:href="#DejaVuSans-110"/>
      <use x="648.242188" xlink:href="#DejaVuSans-116"/>
      <use x="687.451172" xlink:href="#DejaVuSans-32"/>
      <use x="719.238281" xlink:href="#DejaVuSans-69"/>
      <use x="782.421875" xlink:href="#DejaVuSans-120"/>
      <use x="841.601562" xlink:href="#DejaVuSans-97"/>
      <use x="902.880859" xlink:href="#DejaVuSans-99"/>
      <use x="957.861328" xlink:href="#DejaVuSans-116"/>
     </g>
    </g>
    <g id="line2d_27">
     <path d="M 252.101094 19.953147 
L 272.101094 19.953147 
" style="fill:none;stroke:#1e90ff;stroke-dasharray:1.5,2.475;stroke-dashoffset:0;stroke-width:1.5;"/>
    </g>
    <g id="line2d_28">
     <g>
      <use style="fill:#1e90ff;stroke:#1e90ff;" x="262.101094" xlink:href="#m9a83f545ae" y="19.953147"/>
     </g>
    </g>
    <g id="text_27">
     <!-- Displacement -->
     <g transform="translate(280.101094 23.453147)scale(0.1 -0.1)">
      <use xlink:href="#DejaVuSans-68"/>
      <use x="77.001953" xlink:href="#DejaVuSans-105"/>
      <use x="104.785156" xlink:href="#DejaVuSans-115"/>
      <use x="156.884766" xlink:href="#DejaVuSans-112"/>
      <use x="220.361328" xlink:href="#DejaVuSans-108"/>
      <use x="248.144531" xlink:href="#DejaVuSans-97"/>
      <use x="309.423828" xlink:href="#DejaVuSans-99"/>
      <use x="364.404297" xlink:href="#DejaVuSans-101"/>
      <use x="425.927734" xlink:href="#DejaVuSans-109"/>
      <use x="523.339844" xlink:href="#DejaVuSans-101"/>
      <use x="584.863281" xlink:href="#DejaVuSans-110"/>
      <use x="648.242188" xlink:href="#DejaVuSans-116"/>
     </g>
    </g>
    <g id="line2d_29">
     <path d="M 406.619687 19.953147 
L 426.619687 19.953147 
" style="fill:none;stroke:#008000;stroke-linecap:square;stroke-width:1.5;"/>
    </g>
    <g id="line2d_30"/>
    <g id="text_28">
     <!-- Moment exact -->
     <g transform="translate(434.619687 23.453147)scale(0.1 -0.1)">
      <defs>
       <path d="M 9.8125 72.90625 
L 24.515625 72.90625 
L 43.109375 23.296875 
L 61.8125 72.90625 
L 76.515625 72.90625 
L 76.515625 0 
L 66.890625 0 
L 66.890625 64.015625 
L 48.09375 14.015625 
L 38.1875 14.015625 
L 19.390625 64.015625 
L 19.390625 0 
L 9.8125 0 
z
" id="DejaVuSans-77"/>
      </defs>
      <use xlink:href="#DejaVuSans-77"/>
      <use x="86.279297" xlink:href="#DejaVuSans-111"/>
      <use x="147.460938" xlink:href="#DejaVuSans-109"/>
      <use x="244.873047" xlink:href="#DejaVuSans-101"/>
      <use x="306.396484" xlink:href="#DejaVuSans-110"/>
      <use x="369.775391" xlink:href="#DejaVuSans-116"/>
      <use x="408.984375" xlink:href="#DejaVuSans-32"/>
      <use x="440.771484" xlink:href="#DejaVuSans-101"/>
      <use x="500.544922" xlink:href="#DejaVuSans-120"/>
      <use x="559.724609" xlink:href="#DejaVuSans-97"/>
      <use x="621.003906" xlink:href="#DejaVuSans-99"/>
      <use x="675.984375" xlink:href="#DejaVuSans-116"/>
     </g>
    </g>
   </g>
  </g>
 </g>
 <defs>
  <clipPath id="pe951905fab">
   <rect height="209.73504" width="457.52" x="57.62" y="35.58496"/>
  </clipPath>
 </defs>
</svg>
