<?xml version="1.0" encoding="utf-8" standalone="no"?>
<!DOCTYPE svg PUBLIC "-//W3C//DTD SVG 1.1//EN"
  "http://www.w3.org/Graphics/SVG/1.1/DTD/svg11.dtd">
<!-- Created with matplotlib (https://matplotlib.org/) -->
<svg height="345.6pt" version="1.1" viewBox="0 0 460.8 345.6" width="460.8pt" xmlns="http://www.w3.org/2000/svg" xmlns:xlink="http://www.w3.org/1999/xlink">
 <metadata>
  <rdf:RDF xmlns:cc="http://creativecommons.org/ns#" xmlns:dc="http://purl.org/dc/elements/1.1/" xmlns:rdf="http://www.w3.org/1999/02/22-rdf-syntax-ns#">
   <cc:Work>
    <dc:type rdf:resource="http://purl.org/dc/dcmitype/StillImage"/>
    <dc:date>2021-02-15T15:22:17.353621</dc:date>
    <dc:format>image/svg+xml</dc:format>
    <dc:creator>
     <cc:Agent>
      <dc:title>Matplotlib v3.3.2, https://matplotlib.org/</dc:title>
     </cc:Agent>
    </dc:creator>
   </cc:Work>
  </rdf:RDF>
 </metadata>
 <defs>
  <style type="text/css">*{stroke-linecap:butt;stroke-linejoin:round;}</style>
 </defs>
 <g id="figure_1">
  <g id="patch_1">
   <path d="M 0 345.6 
L 460.8 345.6 
L 460.8 0 
L 0 0 
z
" style="fill:#ffffff;"/>
  </g>
  <g id="axes_1">
   <g id="patch_2">
    <path d="M 57.6 307.584 
L 414.72 307.584 
L 414.72 41.472 
L 57.6 41.472 
z
" style="fill:#ffffff;"/>
   </g>
   <g id="matplotlib.axis_1">
    <g id="xtick_1">
     <g id="line2d_1">
      <defs>
       <path d="M 0 0 
L 0 3.5 
" id="m58d230c160" style="stroke:#000000;stroke-width:0.8;"/>
      </defs>
      <g>
       <use style="stroke:#000000;stroke-width:0.8;" x="57.6" xlink:href="#m58d230c160" y="307.584"/>
      </g>
     </g>
     <g id="text_1">
      <!-- 0.0 -->
      <g transform="translate(49.648438 322.182437)scale(0.1 -0.1)">
       <defs>
        <path d="M 31.78125 66.40625 
Q 24.171875 66.40625 20.328125 58.90625 
Q 16.5 51.421875 16.5 36.375 
Q 16.5 21.390625 20.328125 13.890625 
Q 24.171875 6.390625 31.78125 6.390625 
Q 39.453125 6.390625 43.28125 13.890625 
Q 47.125 21.390625 47.125 36.375 
Q 47.125 51.421875 43.28125 58.90625 
Q 39.453125 66.40625 31.78125 66.40625 
z
M 31.78125 74.21875 
Q 44.046875 74.21875 50.515625 64.515625 
Q 56.984375 54.828125 56.984375 36.375 
Q 56.984375 17.96875 50.515625 8.265625 
Q 44.046875 -1.421875 31.78125 -1.421875 
Q 19.53125 -1.421875 13.0625 8.265625 
Q 6.59375 17.96875 6.59375 36.375 
Q 6.59375 54.828125 13.0625 64.515625 
Q 19.53125 74.21875 31.78125 74.21875 
z
" id="DejaVuSans-48"/>
        <path d="M 10.6875 12.40625 
L 21 12.40625 
L 21 0 
L 10.6875 0 
z
" id="DejaVuSans-46"/>
       </defs>
       <use xlink:href="#DejaVuSans-48"/>
       <use x="63.623047" xlink:href="#DejaVuSans-46"/>
       <use x="95.410156" xlink:href="#DejaVuSans-48"/>
      </g>
     </g>
    </g>
    <g id="xtick_2">
     <g id="line2d_2">
      <g>
       <use style="stroke:#000000;stroke-width:0.8;" x="129.024" xlink:href="#m58d230c160" y="307.584"/>
      </g>
     </g>
     <g id="text_2">
      <!-- 0.2 -->
      <g transform="translate(121.072438 322.182437)scale(0.1 -0.1)">
       <defs>
        <path d="M 19.1875 8.296875 
L 53.609375 8.296875 
L 53.609375 0 
L 7.328125 0 
L 7.328125 8.296875 
Q 12.9375 14.109375 22.625 23.890625 
Q 32.328125 33.6875 34.8125 36.53125 
Q 39.546875 41.84375 41.421875 45.53125 
Q 43.3125 49.21875 43.3125 52.78125 
Q 43.3125 58.59375 39.234375 62.25 
Q 35.15625 65.921875 28.609375 65.921875 
Q 23.96875 65.921875 18.8125 64.3125 
Q 13.671875 62.703125 7.8125 59.421875 
L 7.8125 69.390625 
Q 13.765625 71.78125 18.9375 73 
Q 24.125 74.21875 28.421875 74.21875 
Q 39.75 74.21875 46.484375 68.546875 
Q 53.21875 62.890625 53.21875 53.421875 
Q 53.21875 48.921875 51.53125 44.890625 
Q 49.859375 40.875 45.40625 35.40625 
Q 44.1875 33.984375 37.640625 27.21875 
Q 31.109375 20.453125 19.1875 8.296875 
z
" id="DejaVuSans-50"/>
       </defs>
       <use xlink:href="#DejaVuSans-48"/>
       <use x="63.623047" xlink:href="#DejaVuSans-46"/>
       <use x="95.410156" xlink:href="#DejaVuSans-50"/>
      </g>
     </g>
    </g>
    <g id="xtick_3">
     <g id="line2d_3">
      <g>
       <use style="stroke:#000000;stroke-width:0.8;" x="200.448" xlink:href="#m58d230c160" y="307.584"/>
      </g>
     </g>
     <g id="text_3">
      <!-- 0.4 -->
      <g transform="translate(192.496438 322.182437)scale(0.1 -0.1)">
       <defs>
        <path d="M 37.796875 64.3125 
L 12.890625 25.390625 
L 37.796875 25.390625 
z
M 35.203125 72.90625 
L 47.609375 72.90625 
L 47.609375 25.390625 
L 58.015625 25.390625 
L 58.015625 17.1875 
L 47.609375 17.1875 
L 47.609375 0 
L 37.796875 0 
L 37.796875 17.1875 
L 4.890625 17.1875 
L 4.890625 26.703125 
z
" id="DejaVuSans-52"/>
       </defs>
       <use xlink:href="#DejaVuSans-48"/>
       <use x="63.623047" xlink:href="#DejaVuSans-46"/>
       <use x="95.410156" xlink:href="#DejaVuSans-52"/>
      </g>
     </g>
    </g>
    <g id="xtick_4">
     <g id="line2d_4">
      <g>
       <use style="stroke:#000000;stroke-width:0.8;" x="271.872" xlink:href="#m58d230c160" y="307.584"/>
      </g>
     </g>
     <g id="text_4">
      <!-- 0.6 -->
      <g transform="translate(263.920438 322.182437)scale(0.1 -0.1)">
       <defs>
        <path d="M 33.015625 40.375 
Q 26.375 40.375 22.484375 35.828125 
Q 18.609375 31.296875 18.609375 23.390625 
Q 18.609375 15.53125 22.484375 10.953125 
Q 26.375 6.390625 33.015625 6.390625 
Q 39.65625 6.390625 43.53125 10.953125 
Q 47.40625 15.53125 47.40625 23.390625 
Q 47.40625 31.296875 43.53125 35.828125 
Q 39.65625 40.375 33.015625 40.375 
z
M 52.59375 71.296875 
L 52.59375 62.3125 
Q 48.875 64.0625 45.09375 64.984375 
Q 41.3125 65.921875 37.59375 65.921875 
Q 27.828125 65.921875 22.671875 59.328125 
Q 17.53125 52.734375 16.796875 39.40625 
Q 19.671875 43.65625 24.015625 45.921875 
Q 28.375 48.1875 33.59375 48.1875 
Q 44.578125 48.1875 50.953125 41.515625 
Q 57.328125 34.859375 57.328125 23.390625 
Q 57.328125 12.15625 50.6875 5.359375 
Q 44.046875 -1.421875 33.015625 -1.421875 
Q 20.359375 -1.421875 13.671875 8.265625 
Q 6.984375 17.96875 6.984375 36.375 
Q 6.984375 53.65625 15.1875 63.9375 
Q 23.390625 74.21875 37.203125 74.21875 
Q 40.921875 74.21875 44.703125 73.484375 
Q 48.484375 72.75 52.59375 71.296875 
z
" id="DejaVuSans-54"/>
       </defs>
       <use xlink:href="#DejaVuSans-48"/>
       <use x="63.623047" xlink:href="#DejaVuSans-46"/>
       <use x="95.410156" xlink:href="#DejaVuSans-54"/>
      </g>
     </g>
    </g>
    <g id="xtick_5">
     <g id="line2d_5">
      <g>
       <use style="stroke:#000000;stroke-width:0.8;" x="343.296" xlink:href="#m58d230c160" y="307.584"/>
      </g>
     </g>
     <g id="text_5">
      <!-- 0.8 -->
      <g transform="translate(335.344438 322.182437)scale(0.1 -0.1)">
       <defs>
        <path d="M 31.78125 34.625 
Q 24.75 34.625 20.71875 30.859375 
Q 16.703125 27.09375 16.703125 20.515625 
Q 16.703125 13.921875 20.71875 10.15625 
Q 24.75 6.390625 31.78125 6.390625 
Q 38.8125 6.390625 42.859375 10.171875 
Q 46.921875 13.96875 46.921875 20.515625 
Q 46.921875 27.09375 42.890625 30.859375 
Q 38.875 34.625 31.78125 34.625 
z
M 21.921875 38.8125 
Q 15.578125 40.375 12.03125 44.71875 
Q 8.5 49.078125 8.5 55.328125 
Q 8.5 64.0625 14.71875 69.140625 
Q 20.953125 74.21875 31.78125 74.21875 
Q 42.671875 74.21875 48.875 69.140625 
Q 55.078125 64.0625 55.078125 55.328125 
Q 55.078125 49.078125 51.53125 44.71875 
Q 48 40.375 41.703125 38.8125 
Q 48.828125 37.15625 52.796875 32.3125 
Q 56.78125 27.484375 56.78125 20.515625 
Q 56.78125 9.90625 50.3125 4.234375 
Q 43.84375 -1.421875 31.78125 -1.421875 
Q 19.734375 -1.421875 13.25 4.234375 
Q 6.78125 9.90625 6.78125 20.515625 
Q 6.78125 27.484375 10.78125 32.3125 
Q 14.796875 37.15625 21.921875 38.8125 
z
M 18.3125 54.390625 
Q 18.3125 48.734375 21.84375 45.5625 
Q 25.390625 42.390625 31.78125 42.390625 
Q 38.140625 42.390625 41.71875 45.5625 
Q 45.3125 48.734375 45.3125 54.390625 
Q 45.3125 60.0625 41.71875 63.234375 
Q 38.140625 66.40625 31.78125 66.40625 
Q 25.390625 66.40625 21.84375 63.234375 
Q 18.3125 60.0625 18.3125 54.390625 
z
" id="DejaVuSans-56"/>
       </defs>
       <use xlink:href="#DejaVuSans-48"/>
       <use x="63.623047" xlink:href="#DejaVuSans-46"/>
       <use x="95.410156" xlink:href="#DejaVuSans-56"/>
      </g>
     </g>
    </g>
    <g id="xtick_6">
     <g id="line2d_6">
      <g>
       <use style="stroke:#000000;stroke-width:0.8;" x="414.72" xlink:href="#m58d230c160" y="307.584"/>
      </g>
     </g>
     <g id="text_6">
      <!-- 1.0 -->
      <g transform="translate(406.768438 322.182437)scale(0.1 -0.1)">
       <defs>
        <path d="M 12.40625 8.296875 
L 28.515625 8.296875 
L 28.515625 63.921875 
L 10.984375 60.40625 
L 10.984375 69.390625 
L 28.421875 72.90625 
L 38.28125 72.90625 
L 38.28125 8.296875 
L 54.390625 8.296875 
L 54.390625 0 
L 12.40625 0 
z
" id="DejaVuSans-49"/>
       </defs>
       <use xlink:href="#DejaVuSans-49"/>
       <use x="63.623047" xlink:href="#DejaVuSans-46"/>
       <use x="95.410156" xlink:href="#DejaVuSans-48"/>
      </g>
     </g>
    </g>
    <g id="text_7">
     <!-- $x$ -->
     <g transform="translate(233.16 335.860562)scale(0.1 -0.1)">
      <defs>
       <path d="M 60.015625 54.6875 
L 34.90625 27.875 
L 50.296875 0 
L 39.984375 0 
L 28.421875 21.6875 
L 8.296875 0 
L -2.59375 0 
L 24.3125 28.8125 
L 10.015625 54.6875 
L 20.3125 54.6875 
L 30.8125 34.90625 
L 49.125 54.6875 
z
" id="DejaVuSans-Oblique-120"/>
      </defs>
      <use transform="translate(0 0.3125)" xlink:href="#DejaVuSans-Oblique-120"/>
     </g>
    </g>
   </g>
   <g id="matplotlib.axis_2">
    <g id="ytick_1">
     <g id="line2d_7">
      <defs>
       <path d="M 0 0 
L -3.5 0 
" id="m580406feb0" style="stroke:#000000;stroke-width:0.8;"/>
      </defs>
      <g>
       <use style="stroke:#000000;stroke-width:0.8;" x="57.6" xlink:href="#m580406feb0" y="307.584"/>
      </g>
     </g>
     <g id="text_8">
      <!-- −0.50 -->
      <g transform="translate(19.954687 311.383219)scale(0.1 -0.1)">
       <defs>
        <path d="M 10.59375 35.5 
L 73.1875 35.5 
L 73.1875 27.203125 
L 10.59375 27.203125 
z
" id="DejaVuSans-8722"/>
        <path d="M 10.796875 72.90625 
L 49.515625 72.90625 
L 49.515625 64.59375 
L 19.828125 64.59375 
L 19.828125 46.734375 
Q 21.96875 47.46875 24.109375 47.828125 
Q 26.265625 48.1875 28.421875 48.1875 
Q 40.625 48.1875 47.75 41.5 
Q 54.890625 34.8125 54.890625 23.390625 
Q 54.890625 11.625 47.5625 5.09375 
Q 40.234375 -1.421875 26.90625 -1.421875 
Q 22.3125 -1.421875 17.546875 -0.640625 
Q 12.796875 0.140625 7.71875 1.703125 
L 7.71875 11.625 
Q 12.109375 9.234375 16.796875 8.0625 
Q 21.484375 6.890625 26.703125 6.890625 
Q 35.15625 6.890625 40.078125 11.328125 
Q 45.015625 15.765625 45.015625 23.390625 
Q 45.015625 31 40.078125 35.4375 
Q 35.15625 39.890625 26.703125 39.890625 
Q 22.75 39.890625 18.8125 39.015625 
Q 14.890625 38.140625 10.796875 36.28125 
z
" id="DejaVuSans-53"/>
       </defs>
       <use xlink:href="#DejaVuSans-8722"/>
       <use x="83.789062" xlink:href="#DejaVuSans-48"/>
       <use x="147.412109" xlink:href="#DejaVuSans-46"/>
       <use x="179.199219" xlink:href="#DejaVuSans-53"/>
       <use x="242.822266" xlink:href="#DejaVuSans-48"/>
      </g>
     </g>
    </g>
    <g id="ytick_2">
     <g id="line2d_8">
      <g>
       <use style="stroke:#000000;stroke-width:0.8;" x="57.6" xlink:href="#m580406feb0" y="274.32"/>
      </g>
     </g>
     <g id="text_9">
      <!-- −0.25 -->
      <g transform="translate(19.954687 278.119219)scale(0.1 -0.1)">
       <use xlink:href="#DejaVuSans-8722"/>
       <use x="83.789062" xlink:href="#DejaVuSans-48"/>
       <use x="147.412109" xlink:href="#DejaVuSans-46"/>
       <use x="179.199219" xlink:href="#DejaVuSans-50"/>
       <use x="242.822266" xlink:href="#DejaVuSans-53"/>
      </g>
     </g>
    </g>
    <g id="ytick_3">
     <g id="line2d_9">
      <g>
       <use style="stroke:#000000;stroke-width:0.8;" x="57.6" xlink:href="#m580406feb0" y="241.056"/>
      </g>
     </g>
     <g id="text_10">
      <!-- 0.00 -->
      <g transform="translate(28.334375 244.855219)scale(0.1 -0.1)">
       <use xlink:href="#DejaVuSans-48"/>
       <use x="63.623047" xlink:href="#DejaVuSans-46"/>
       <use x="95.410156" xlink:href="#DejaVuSans-48"/>
       <use x="159.033203" xlink:href="#DejaVuSans-48"/>
      </g>
     </g>
    </g>
    <g id="ytick_4">
     <g id="line2d_10">
      <g>
       <use style="stroke:#000000;stroke-width:0.8;" x="57.6" xlink:href="#m580406feb0" y="207.792"/>
      </g>
     </g>
     <g id="text_11">
      <!-- 0.25 -->
      <g transform="translate(28.334375 211.591219)scale(0.1 -0.1)">
       <use xlink:href="#DejaVuSans-48"/>
       <use x="63.623047" xlink:href="#DejaVuSans-46"/>
       <use x="95.410156" xlink:href="#DejaVuSans-50"/>
       <use x="159.033203" xlink:href="#DejaVuSans-53"/>
      </g>
     </g>
    </g>
    <g id="ytick_5">
     <g id="line2d_11">
      <g>
       <use style="stroke:#000000;stroke-width:0.8;" x="57.6" xlink:href="#m580406feb0" y="174.528"/>
      </g>
     </g>
     <g id="text_12">
      <!-- 0.50 -->
      <g transform="translate(28.334375 178.327219)scale(0.1 -0.1)">
       <use xlink:href="#DejaVuSans-48"/>
       <use x="63.623047" xlink:href="#DejaVuSans-46"/>
       <use x="95.410156" xlink:href="#DejaVuSans-53"/>
       <use x="159.033203" xlink:href="#DejaVuSans-48"/>
      </g>
     </g>
    </g>
    <g id="ytick_6">
     <g id="line2d_12">
      <g>
       <use style="stroke:#000000;stroke-width:0.8;" x="57.6" xlink:href="#m580406feb0" y="141.264"/>
      </g>
     </g>
     <g id="text_13">
      <!-- 0.75 -->
      <g transform="translate(28.334375 145.063219)scale(0.1 -0.1)">
       <defs>
        <path d="M 8.203125 72.90625 
L 55.078125 72.90625 
L 55.078125 68.703125 
L 28.609375 0 
L 18.3125 0 
L 43.21875 64.59375 
L 8.203125 64.59375 
z
" id="DejaVuSans-55"/>
       </defs>
       <use xlink:href="#DejaVuSans-48"/>
       <use x="63.623047" xlink:href="#DejaVuSans-46"/>
       <use x="95.410156" xlink:href="#DejaVuSans-55"/>
       <use x="159.033203" xlink:href="#DejaVuSans-53"/>
      </g>
     </g>
    </g>
    <g id="ytick_7">
     <g id="line2d_13">
      <g>
       <use style="stroke:#000000;stroke-width:0.8;" x="57.6" xlink:href="#m580406feb0" y="108"/>
      </g>
     </g>
     <g id="text_14">
      <!-- 1.00 -->
      <g transform="translate(28.334375 111.799219)scale(0.1 -0.1)">
       <use xlink:href="#DejaVuSans-49"/>
       <use x="63.623047" xlink:href="#DejaVuSans-46"/>
       <use x="95.410156" xlink:href="#DejaVuSans-48"/>
       <use x="159.033203" xlink:href="#DejaVuSans-48"/>
      </g>
     </g>
    </g>
    <g id="ytick_8">
     <g id="line2d_14">
      <g>
       <use style="stroke:#000000;stroke-width:0.8;" x="57.6" xlink:href="#m580406feb0" y="74.736"/>
      </g>
     </g>
     <g id="text_15">
      <!-- 1.25 -->
      <g transform="translate(28.334375 78.535219)scale(0.1 -0.1)">
       <use xlink:href="#DejaVuSans-49"/>
       <use x="63.623047" xlink:href="#DejaVuSans-46"/>
       <use x="95.410156" xlink:href="#DejaVuSans-50"/>
       <use x="159.033203" xlink:href="#DejaVuSans-53"/>
      </g>
     </g>
    </g>
    <g id="ytick_9">
     <g id="line2d_15">
      <g>
       <use style="stroke:#000000;stroke-width:0.8;" x="57.6" xlink:href="#m580406feb0" y="41.472"/>
      </g>
     </g>
     <g id="text_16">
      <!-- 1.50 -->
      <g transform="translate(28.334375 45.271219)scale(0.1 -0.1)">
       <use xlink:href="#DejaVuSans-49"/>
       <use x="63.623047" xlink:href="#DejaVuSans-46"/>
       <use x="95.410156" xlink:href="#DejaVuSans-53"/>
       <use x="159.033203" xlink:href="#DejaVuSans-48"/>
      </g>
     </g>
    </g>
    <g id="text_17">
     <!-- $f(x)$ and $f_h(x)$ -->
     <g transform="translate(13.875 206.728)rotate(-90)scale(0.1 -0.1)">
      <defs>
       <path d="M 47.796875 75.984375 
L 46.390625 68.5 
L 37.796875 68.5 
Q 32.90625 68.5 30.6875 66.578125 
Q 28.46875 64.65625 27.390625 59.515625 
L 26.421875 54.6875 
L 41.21875 54.6875 
L 39.890625 47.703125 
L 25.09375 47.703125 
L 15.828125 0 
L 6.78125 0 
L 16.109375 47.703125 
L 7.515625 47.703125 
L 8.796875 54.6875 
L 17.390625 54.6875 
L 18.109375 58.5 
Q 19.96875 68.171875 24.625 72.078125 
Q 29.296875 75.984375 39.3125 75.984375 
z
" id="DejaVuSans-Oblique-102"/>
       <path d="M 31 75.875 
Q 24.46875 64.65625 21.28125 53.65625 
Q 18.109375 42.671875 18.109375 31.390625 
Q 18.109375 20.125 21.3125 9.0625 
Q 24.515625 -2 31 -13.1875 
L 23.1875 -13.1875 
Q 15.875 -1.703125 12.234375 9.375 
Q 8.59375 20.453125 8.59375 31.390625 
Q 8.59375 42.28125 12.203125 53.3125 
Q 15.828125 64.359375 23.1875 75.875 
z
" id="DejaVuSans-40"/>
       <path d="M 8.015625 75.875 
L 15.828125 75.875 
Q 23.140625 64.359375 26.78125 53.3125 
Q 30.421875 42.28125 30.421875 31.390625 
Q 30.421875 20.453125 26.78125 9.375 
Q 23.140625 -1.703125 15.828125 -13.1875 
L 8.015625 -13.1875 
Q 14.5 -2 17.703125 9.0625 
Q 20.90625 20.125 20.90625 31.390625 
Q 20.90625 42.671875 17.703125 53.65625 
Q 14.5 64.65625 8.015625 75.875 
z
" id="DejaVuSans-41"/>
       <path id="DejaVuSans-32"/>
       <path d="M 34.28125 27.484375 
Q 23.390625 27.484375 19.1875 25 
Q 14.984375 22.515625 14.984375 16.5 
Q 14.984375 11.71875 18.140625 8.90625 
Q 21.296875 6.109375 26.703125 6.109375 
Q 34.1875 6.109375 38.703125 11.40625 
Q 43.21875 16.703125 43.21875 25.484375 
L 43.21875 27.484375 
z
M 52.203125 31.203125 
L 52.203125 0 
L 43.21875 0 
L 43.21875 8.296875 
Q 40.140625 3.328125 35.546875 0.953125 
Q 30.953125 -1.421875 24.3125 -1.421875 
Q 15.921875 -1.421875 10.953125 3.296875 
Q 6 8.015625 6 15.921875 
Q 6 25.140625 12.171875 29.828125 
Q 18.359375 34.515625 30.609375 34.515625 
L 43.21875 34.515625 
L 43.21875 35.40625 
Q 43.21875 41.609375 39.140625 45 
Q 35.0625 48.390625 27.6875 48.390625 
Q 23 48.390625 18.546875 47.265625 
Q 14.109375 46.140625 10.015625 43.890625 
L 10.015625 52.203125 
Q 14.9375 54.109375 19.578125 55.046875 
Q 24.21875 56 28.609375 56 
Q 40.484375 56 46.34375 49.84375 
Q 52.203125 43.703125 52.203125 31.203125 
z
" id="DejaVuSans-97"/>
       <path d="M 54.890625 33.015625 
L 54.890625 0 
L 45.90625 0 
L 45.90625 32.71875 
Q 45.90625 40.484375 42.875 44.328125 
Q 39.84375 48.1875 33.796875 48.1875 
Q 26.515625 48.1875 22.3125 43.546875 
Q 18.109375 38.921875 18.109375 30.90625 
L 18.109375 0 
L 9.078125 0 
L 9.078125 54.6875 
L 18.109375 54.6875 
L 18.109375 46.1875 
Q 21.34375 51.125 25.703125 53.5625 
Q 30.078125 56 35.796875 56 
Q 45.21875 56 50.046875 50.171875 
Q 54.890625 44.34375 54.890625 33.015625 
z
" id="DejaVuSans-110"/>
       <path d="M 45.40625 46.390625 
L 45.40625 75.984375 
L 54.390625 75.984375 
L 54.390625 0 
L 45.40625 0 
L 45.40625 8.203125 
Q 42.578125 3.328125 38.25 0.953125 
Q 33.9375 -1.421875 27.875 -1.421875 
Q 17.96875 -1.421875 11.734375 6.484375 
Q 5.515625 14.40625 5.515625 27.296875 
Q 5.515625 40.1875 11.734375 48.09375 
Q 17.96875 56 27.875 56 
Q 33.9375 56 38.25 53.625 
Q 42.578125 51.265625 45.40625 46.390625 
z
M 14.796875 27.296875 
Q 14.796875 17.390625 18.875 11.75 
Q 22.953125 6.109375 30.078125 6.109375 
Q 37.203125 6.109375 41.296875 11.75 
Q 45.40625 17.390625 45.40625 27.296875 
Q 45.40625 37.203125 41.296875 42.84375 
Q 37.203125 48.484375 30.078125 48.484375 
Q 22.953125 48.484375 18.875 42.84375 
Q 14.796875 37.203125 14.796875 27.296875 
z
" id="DejaVuSans-100"/>
       <path d="M 55.71875 33.015625 
L 49.3125 0 
L 40.28125 0 
L 46.6875 32.671875 
Q 47.125 34.96875 47.359375 36.71875 
Q 47.609375 38.484375 47.609375 39.5 
Q 47.609375 43.609375 45.015625 45.890625 
Q 42.4375 48.1875 37.796875 48.1875 
Q 30.5625 48.1875 25.265625 43.296875 
Q 19.96875 38.421875 18.40625 30.328125 
L 12.5 0 
L 3.515625 0 
L 18.3125 75.984375 
L 27.296875 75.984375 
L 21.484375 46.09375 
Q 24.90625 50.6875 30.21875 53.34375 
Q 35.546875 56 41.40625 56 
Q 48.640625 56 52.609375 52.09375 
Q 56.59375 48.1875 56.59375 41.109375 
Q 56.59375 39.359375 56.375 37.359375 
Q 56.15625 35.359375 55.71875 33.015625 
z
" id="DejaVuSans-Oblique-104"/>
      </defs>
      <use transform="translate(0 0.015625)" xlink:href="#DejaVuSans-Oblique-102"/>
      <use transform="translate(35.205078 0.015625)" xlink:href="#DejaVuSans-40"/>
      <use transform="translate(74.21875 0.015625)" xlink:href="#DejaVuSans-Oblique-120"/>
      <use transform="translate(133.398438 0.015625)" xlink:href="#DejaVuSans-41"/>
      <use transform="translate(172.412109 0.015625)" xlink:href="#DejaVuSans-32"/>
      <use transform="translate(204.199219 0.015625)" xlink:href="#DejaVuSans-97"/>
      <use transform="translate(265.478516 0.015625)" xlink:href="#DejaVuSans-110"/>
      <use transform="translate(328.857422 0.015625)" xlink:href="#DejaVuSans-100"/>
      <use transform="translate(392.333984 0.015625)" xlink:href="#DejaVuSans-32"/>
      <use transform="translate(424.121094 0.015625)" xlink:href="#DejaVuSans-Oblique-102"/>
      <use transform="translate(459.326172 -16.390625)scale(0.7)" xlink:href="#DejaVuSans-Oblique-104"/>
      <use transform="translate(506.425781 0.015625)" xlink:href="#DejaVuSans-40"/>
      <use transform="translate(545.439453 0.015625)" xlink:href="#DejaVuSans-Oblique-120"/>
      <use transform="translate(604.619141 0.015625)" xlink:href="#DejaVuSans-41"/>
     </g>
    </g>
   </g>
   <g id="line2d_16">
    <path clip-path="url(#p206d42ee7f)" d="M 57.6 174.528 
L 414.72 174.528 
L 414.72 174.528 
" style="fill:none;stroke:#ff7f0e;stroke-linecap:square;stroke-width:1.5;"/>
   </g>
   <g id="line2d_17">
    <path clip-path="url(#p206d42ee7f)" d="M 57.6 191.16 
L 414.72 191.16 
L 414.72 191.16 
" style="fill:none;stroke:#2ca02c;stroke-linecap:square;stroke-width:1.5;"/>
   </g>
   <g id="line2d_18">
    <path clip-path="url(#p206d42ee7f)" d="M 57.6 257.688 
L 59.242916 257.576859 
L 60.885833 257.243806 
L 62.564464 256.675475 
L 64.278812 255.859207 
L 66.06459 254.758695 
L 67.9218 253.347925 
L 69.886157 251.566991 
L 71.921944 249.41699 
L 74.100594 246.785412 
L 76.422106 243.622077 
L 78.886481 239.881735 
L 81.565149 235.401851 
L 84.493825 230.055887 
L 87.743942 223.642599 
L 91.422646 215.876257 
L 95.887093 205.908554 
L 102.780198 189.895476 
L 110.637624 171.786068 
L 115.030639 162.217931 
L 118.673627 154.797503 
L 121.888029 148.741862 
L 124.78099 143.753214 
L 127.423942 139.623522 
L 129.888317 136.17349 
L 132.174113 133.342345 
L 134.352763 130.991641 
L 136.388551 129.114277 
L 138.317192 127.629161 
L 140.174401 126.475423 
L 141.96018 125.626442 
L 143.674527 125.054756 
L 145.353159 124.727995 
L 146.996076 124.632555 
L 148.638992 124.759396 
L 150.281908 125.108094 
L 151.96054 125.6923 
L 153.674887 126.524607 
L 155.460666 127.64158 
L 157.317876 129.069132 
L 159.282232 130.867364 
L 161.353735 133.075434 
L 163.532385 135.730302 
L 165.853897 138.917185 
L 168.353987 142.738219 
L 171.032655 147.246934 
L 173.961332 152.621071 
L 177.211449 159.06118 
L 180.925869 166.929661 
L 185.461746 177.084844 
L 192.747723 194.033197 
L 200.033699 210.793725 
L 204.426715 220.346498 
L 208.069703 227.749744 
L 211.248389 233.722892 
L 214.14135 238.69858 
L 216.784302 242.815236 
L 219.248677 246.252186 
L 221.534473 249.070485 
L 223.677408 251.372878 
L 225.713195 253.243359 
L 227.641836 254.721776 
L 229.499046 255.868929 
L 231.284824 256.71148 
L 232.999172 257.276926 
L 234.677804 257.597535 
L 236.32072 257.686936 
L 237.963636 257.554058 
L 239.606553 257.199344 
L 241.285185 256.609035 
L 242.999532 255.770562 
L 244.785311 254.647262 
L 246.64252 253.213262 
L 248.606877 251.408385 
L 250.67838 249.193537 
L 252.85703 246.531834 
L 255.178542 243.338042 
L 257.678632 239.510053 
L 260.3573 234.994502 
L 263.285977 229.613691 
L 266.536094 223.167238 
L 270.286229 215.215041 
L 274.857822 204.969458 
L 282.358092 187.514345 
L 289.429775 171.26681 
L 293.787075 161.804567 
L 297.394347 154.483015 
L 300.573033 148.516836 
L 303.465995 143.548365 
L 306.108947 139.438965 
L 308.573321 136.009295 
L 310.859118 133.198143 
L 313.002052 130.902753 
L 315.03784 129.039158 
L 316.966481 127.567443 
L 318.82369 126.426878 
L 320.609469 125.59076 
L 322.323816 125.031555 
L 324.002448 124.717098 
L 325.645365 124.633737 
L 327.288281 124.772653 
L 328.931197 125.133382 
L 330.609829 125.729792 
L 332.324176 126.574429 
L 334.109955 127.704051 
L 335.967165 129.144497 
L 337.931521 130.956014 
L 340.003024 133.177634 
L 342.181674 135.846167 
L 344.503186 139.04686 
L 347.003276 142.881795 
L 349.71766 147.467187 
L 352.682052 152.928371 
L 355.967885 159.464731 
L 359.71802 167.436601 
L 364.325329 177.780231 
L 372.182754 196.078043 
L 378.897282 211.471622 
L 383.218866 220.833891 
L 386.826139 228.132924 
L 390.004824 234.0753 
L 392.86207 238.961028 
L 395.505023 243.051513 
L 397.969397 246.462216 
L 400.255194 249.254755 
L 402.398128 251.531912 
L 404.433915 253.37758 
L 406.362556 254.831853 
L 408.18405 255.936266 
L 409.934113 256.746839 
L 411.648461 257.2998 
L 413.327093 257.608104 
L 414.72 257.688 
L 414.72 257.688 
" style="fill:none;stroke:#d62728;stroke-linecap:square;stroke-width:1.5;"/>
   </g>
   <g id="line2d_19">
    <path clip-path="url(#p206d42ee7f)" d="M 57.6 257.688 
L 59.242916 257.576859 
L 60.885833 257.243806 
L 62.564464 256.675475 
L 64.278812 255.859207 
L 66.06459 254.758695 
L 67.9218 253.347925 
L 69.886157 251.566991 
L 71.921944 249.41699 
L 74.100594 246.785412 
L 76.422106 243.622077 
L 78.886481 239.881735 
L 81.565149 235.401851 
L 84.493825 230.055887 
L 87.743942 223.642599 
L 91.422646 215.876257 
L 95.887093 205.908554 
L 102.780198 189.895476 
L 110.637624 171.786068 
L 115.030639 162.217931 
L 118.673627 154.797503 
L 121.888029 148.741862 
L 124.78099 143.753214 
L 127.423942 139.623522 
L 129.888317 136.17349 
L 132.174113 133.342345 
L 134.352763 130.991641 
L 136.388551 129.114277 
L 138.317192 127.629161 
L 140.174401 126.475423 
L 141.96018 125.626442 
L 143.674527 125.054756 
L 145.353159 124.727995 
L 146.996076 124.632555 
L 148.638992 124.759396 
L 150.281908 125.108094 
L 151.96054 125.6923 
L 153.674887 126.524607 
L 155.460666 127.64158 
L 157.317876 129.069132 
L 159.282232 130.867364 
L 161.353735 133.075434 
L 163.532385 135.730302 
L 165.853897 138.917185 
L 168.353987 142.738219 
L 171.032655 147.246934 
L 173.961332 152.621071 
L 177.211449 159.06118 
L 180.925869 166.929661 
L 185.461746 177.084844 
L 192.747723 194.033197 
L 200.033699 210.793725 
L 204.426715 220.346498 
L 208.069703 227.749744 
L 211.248389 233.722892 
L 214.14135 238.69858 
L 216.784302 242.815236 
L 219.248677 246.252186 
L 221.534473 249.070485 
L 223.677408 251.372878 
L 225.713195 253.243359 
L 227.641836 254.721776 
L 229.499046 255.868929 
L 231.284824 256.71148 
L 232.999172 257.276926 
L 234.677804 257.597535 
L 236.32072 257.686936 
L 237.963636 257.554058 
L 239.606553 257.199344 
L 241.285185 256.609035 
L 242.999532 255.770562 
L 244.785311 254.647262 
L 246.64252 253.213262 
L 248.606877 251.408385 
L 250.67838 249.193537 
L 252.85703 246.531834 
L 255.178542 243.338042 
L 257.678632 239.510053 
L 260.3573 234.994502 
L 263.285977 229.613691 
L 266.536094 223.167238 
L 270.286229 215.215041 
L 274.857822 204.969458 
L 282.358092 187.514345 
L 289.429775 171.26681 
L 293.787075 161.804567 
L 297.394347 154.483015 
L 300.573033 148.516836 
L 303.465995 143.548365 
L 306.108947 139.438965 
L 308.573321 136.009295 
L 310.859118 133.198143 
L 313.002052 130.902753 
L 315.03784 129.039158 
L 316.966481 127.567443 
L 318.82369 126.426878 
L 320.609469 125.59076 
L 322.323816 125.031555 
L 324.002448 124.717098 
L 325.645365 124.633737 
L 327.288281 124.772653 
L 328.931197 125.133382 
L 330.609829 125.729792 
L 332.324176 126.574429 
L 334.109955 127.704051 
L 335.967165 129.144497 
L 337.931521 130.956014 
L 340.003024 133.177634 
L 342.181674 135.846167 
L 344.503186 139.04686 
L 347.003276 142.881795 
L 349.71766 147.467187 
L 352.682052 152.928371 
L 355.967885 159.464731 
L 359.71802 167.436601 
L 364.325329 177.780231 
L 372.182754 196.078043 
L 378.897282 211.471622 
L 383.218866 220.833891 
L 386.826139 228.132924 
L 390.004824 234.0753 
L 392.86207 238.961028 
L 395.505023 243.051513 
L 397.969397 246.462216 
L 400.255194 249.254755 
L 402.398128 251.531912 
L 404.433915 253.37758 
L 406.362556 254.831853 
L 408.18405 255.936266 
L 409.934113 256.746839 
L 411.648461 257.2998 
L 413.327093 257.608104 
L 414.72 257.688 
L 414.72 257.688 
" style="fill:none;stroke:#9467bd;stroke-linecap:square;stroke-width:1.5;"/>
   </g>
   <g id="line2d_20">
    <path clip-path="url(#p206d42ee7f)" d="M 57.6 241.056 
L 67.27892 240.946251 
L 70.886193 240.672955 
L 73.707723 240.242575 
L 76.172097 239.643733 
L 78.386463 238.879689 
L 80.457966 237.933049 
L 82.458038 236.774199 
L 84.422394 235.373719 
L 86.351035 233.721279 
L 88.279676 231.772589 
L 90.244032 229.464665 
L 92.244104 226.764358 
L 94.315608 223.583411 
L 96.458542 219.875373 
L 98.708623 215.526675 
L 101.101566 210.403001 
L 103.673087 204.354057 
L 106.494617 197.129121 
L 109.709019 188.262398 
L 113.709163 176.535653 
L 125.638164 141.106383 
L 128.602556 133.255297 
L 131.138362 127.152106 
L 133.352727 122.380049 
L 135.352799 118.577437 
L 137.174293 115.573704 
L 138.852925 113.220322 
L 140.388695 111.433536 
L 141.817318 110.097426 
L 143.174509 109.127066 
L 144.424554 108.495885 
L 145.638884 108.126838 
L 146.817498 108.000322 
L 147.996112 108.102582 
L 149.174725 108.433179 
L 150.389055 109.011106 
L 151.6391 109.85485 
L 152.960576 111.016789 
L 154.389199 112.577939 
L 155.924968 114.598622 
L 157.567885 117.136904 
L 159.353663 120.313587 
L 161.31802 124.274783 
L 163.49667 129.186191 
L 165.961044 135.314415 
L 168.81829 143.043269 
L 172.389847 153.385229 
L 179.14009 173.79553 
L 184.033123 188.211533 
L 187.497534 197.744859 
L 190.461926 205.26954 
L 193.140594 211.475689 
L 195.604968 216.639412 
L 197.926481 221.000805 
L 200.140846 224.696975 
L 202.248065 227.794681 
L 204.319568 230.449279 
L 206.31964 232.658274 
L 208.283996 234.506504 
L 210.248353 236.057035 
L 212.248425 237.354477 
L 214.284212 238.412078 
L 216.427147 239.27273 
L 218.712943 239.946779 
L 221.213033 240.448369 
L 224.105995 240.794795 
L 227.748983 240.993115 
L 233.606337 241.055459 
L 245.642484 240.954814 
L 249.285473 240.690835 
L 252.142718 240.266877 
L 254.607093 239.68005 
L 256.857174 238.915192 
L 258.928677 237.978946 
L 260.928749 236.831477 
L 262.893105 235.443386 
L 264.821746 233.804168 
L 266.750387 231.869618 
L 268.714743 229.576872 
L 270.714815 226.892616 
L 272.786319 223.728682 
L 274.929253 220.038359 
L 277.179334 215.708022 
L 279.572277 210.603153 
L 282.143798 204.573028 
L 284.965329 197.36637 
L 288.17973 188.516487 
L 292.144158 176.910272 
L 304.358884 140.663906 
L 307.287561 132.940061 
L 309.787651 126.94907 
L 312.002016 122.199618 
L 314.002088 118.4197 
L 315.823582 115.438297 
L 317.502214 113.106706 
L 319.037984 111.340719 
L 320.466607 110.024563 
L 321.788083 109.094823 
L 323.038128 108.474514 
L 324.252457 108.116128 
L 325.431071 108.000007 
L 326.609685 108.112663 
L 327.788299 108.453612 
L 329.002628 109.042114 
L 330.252673 109.896594 
L 331.574149 111.069665 
L 333.002772 112.642528 
L 334.538542 114.67535 
L 336.181458 117.226006 
L 337.967237 120.415311 
L 339.931593 124.389264 
L 342.110243 129.313283 
L 344.574617 135.453641 
L 347.431863 143.193524 
L 351.039136 153.650678 
L 358.217966 175.355838 
L 362.896706 189.074063 
L 366.289685 198.356961 
L 369.218362 205.744651 
L 371.861314 211.828794 
L 374.325689 216.957262 
L 376.647201 221.284361 
L 378.861566 224.947589 
L 380.968785 228.01435 
L 383.004572 230.597366 
L 385.004644 232.785173 
L 386.969001 234.613807 
L 388.933357 236.146169 
L 390.933429 237.426759 
L 392.969217 238.469056 
L 395.112151 239.315709 
L 397.397948 239.977255 
L 399.933753 240.473508 
L 402.86243 240.811172 
L 406.57685 241.000701 
L 412.755644 241.05581 
L 414.72 241.056 
L 414.72 241.056 
" style="fill:none;stroke:#8c564b;stroke-linecap:square;stroke-width:1.5;"/>
   </g>
   <g id="patch_3">
    <path d="M 57.6 307.584 
L 57.6 41.472 
" style="fill:none;stroke:#000000;stroke-linecap:square;stroke-linejoin:miter;stroke-width:0.8;"/>
   </g>
   <g id="patch_4">
    <path d="M 414.72 307.584 
L 414.72 41.472 
" style="fill:none;stroke:#000000;stroke-linecap:square;stroke-linejoin:miter;stroke-width:0.8;"/>
   </g>
   <g id="patch_5">
    <path d="M 57.6 307.584 
L 414.72 307.584 
" style="fill:none;stroke:#000000;stroke-linecap:square;stroke-linejoin:miter;stroke-width:0.8;"/>
   </g>
   <g id="patch_6">
    <path d="M 57.6 41.472 
L 414.72 41.472 
" style="fill:none;stroke:#000000;stroke-linecap:square;stroke-linejoin:miter;stroke-width:0.8;"/>
   </g>
   <g id="legend_1">
    <g id="patch_7">
     <path d="M 331.180938 137.54075 
L 407.72 137.54075 
Q 409.72 137.54075 409.72 135.54075 
L 409.72 48.472 
Q 409.72 46.472 407.72 46.472 
L 331.180938 46.472 
Q 329.180938 46.472 329.180938 48.472 
L 329.180938 135.54075 
Q 329.180938 137.54075 331.180938 137.54075 
z
" style="fill:#ffffff;opacity:0.8;stroke:#cccccc;stroke-linejoin:miter;"/>
    </g>
    <g id="line2d_21">
     <path d="M 333.180938 54.570438 
L 353.180938 54.570438 
" style="fill:none;stroke:#1f77b4;stroke-linecap:square;stroke-width:2;"/>
    </g>
    <g id="line2d_22"/>
    <g id="text_18">
     <!-- exact -->
     <g transform="translate(361.180938 58.070438)scale(0.1 -0.1)">
      <defs>
       <path d="M 56.203125 29.59375 
L 56.203125 25.203125 
L 14.890625 25.203125 
Q 15.484375 15.921875 20.484375 11.0625 
Q 25.484375 6.203125 34.421875 6.203125 
Q 39.59375 6.203125 44.453125 7.46875 
Q 49.3125 8.734375 54.109375 11.28125 
L 54.109375 2.78125 
Q 49.265625 0.734375 44.1875 -0.34375 
Q 39.109375 -1.421875 33.890625 -1.421875 
Q 20.796875 -1.421875 13.15625 6.1875 
Q 5.515625 13.8125 5.515625 26.8125 
Q 5.515625 40.234375 12.765625 48.109375 
Q 20.015625 56 32.328125 56 
Q 43.359375 56 49.78125 48.890625 
Q 56.203125 41.796875 56.203125 29.59375 
z
M 47.21875 32.234375 
Q 47.125 39.59375 43.09375 43.984375 
Q 39.0625 48.390625 32.421875 48.390625 
Q 24.90625 48.390625 20.390625 44.140625 
Q 15.875 39.890625 15.1875 32.171875 
z
" id="DejaVuSans-101"/>
       <path d="M 54.890625 54.6875 
L 35.109375 28.078125 
L 55.90625 0 
L 45.3125 0 
L 29.390625 21.484375 
L 13.484375 0 
L 2.875 0 
L 24.125 28.609375 
L 4.6875 54.6875 
L 15.28125 54.6875 
L 29.78125 35.203125 
L 44.28125 54.6875 
z
" id="DejaVuSans-120"/>
       <path d="M 48.78125 52.59375 
L 48.78125 44.1875 
Q 44.96875 46.296875 41.140625 47.34375 
Q 37.3125 48.390625 33.40625 48.390625 
Q 24.65625 48.390625 19.8125 42.84375 
Q 14.984375 37.3125 14.984375 27.296875 
Q 14.984375 17.28125 19.8125 11.734375 
Q 24.65625 6.203125 33.40625 6.203125 
Q 37.3125 6.203125 41.140625 7.25 
Q 44.96875 8.296875 48.78125 10.40625 
L 48.78125 2.09375 
Q 45.015625 0.34375 40.984375 -0.53125 
Q 36.96875 -1.421875 32.421875 -1.421875 
Q 20.0625 -1.421875 12.78125 6.34375 
Q 5.515625 14.109375 5.515625 27.296875 
Q 5.515625 40.671875 12.859375 48.328125 
Q 20.21875 56 33.015625 56 
Q 37.15625 56 41.109375 55.140625 
Q 45.0625 54.296875 48.78125 52.59375 
z
" id="DejaVuSans-99"/>
       <path d="M 18.3125 70.21875 
L 18.3125 54.6875 
L 36.8125 54.6875 
L 36.8125 47.703125 
L 18.3125 47.703125 
L 18.3125 18.015625 
Q 18.3125 11.328125 20.140625 9.421875 
Q 21.96875 7.515625 27.59375 7.515625 
L 36.8125 7.515625 
L 36.8125 0 
L 27.59375 0 
Q 17.1875 0 13.234375 3.875 
Q 9.28125 7.765625 9.28125 18.015625 
L 9.28125 47.703125 
L 2.6875 47.703125 
L 2.6875 54.6875 
L 9.28125 54.6875 
L 9.28125 70.21875 
z
" id="DejaVuSans-116"/>
      </defs>
      <use xlink:href="#DejaVuSans-101"/>
      <use x="59.773438" xlink:href="#DejaVuSans-120"/>
      <use x="118.953125" xlink:href="#DejaVuSans-97"/>
      <use x="180.232422" xlink:href="#DejaVuSans-99"/>
      <use x="235.212891" xlink:href="#DejaVuSans-116"/>
     </g>
    </g>
    <g id="line2d_23">
     <path d="M 333.180938 69.248563 
L 353.180938 69.248563 
" style="fill:none;stroke:#ff7f0e;stroke-linecap:square;stroke-width:1.5;"/>
    </g>
    <g id="line2d_24"/>
    <g id="text_19">
     <!-- Fourier 1 -->
     <g transform="translate(361.180938 72.748563)scale(0.1 -0.1)">
      <defs>
       <path d="M 9.8125 72.90625 
L 51.703125 72.90625 
L 51.703125 64.59375 
L 19.671875 64.59375 
L 19.671875 43.109375 
L 48.578125 43.109375 
L 48.578125 34.8125 
L 19.671875 34.8125 
L 19.671875 0 
L 9.8125 0 
z
" id="DejaVuSans-70"/>
       <path d="M 30.609375 48.390625 
Q 23.390625 48.390625 19.1875 42.75 
Q 14.984375 37.109375 14.984375 27.296875 
Q 14.984375 17.484375 19.15625 11.84375 
Q 23.34375 6.203125 30.609375 6.203125 
Q 37.796875 6.203125 41.984375 11.859375 
Q 46.1875 17.53125 46.1875 27.296875 
Q 46.1875 37.015625 41.984375 42.703125 
Q 37.796875 48.390625 30.609375 48.390625 
z
M 30.609375 56 
Q 42.328125 56 49.015625 48.375 
Q 55.71875 40.765625 55.71875 27.296875 
Q 55.71875 13.875 49.015625 6.21875 
Q 42.328125 -1.421875 30.609375 -1.421875 
Q 18.84375 -1.421875 12.171875 6.21875 
Q 5.515625 13.875 5.515625 27.296875 
Q 5.515625 40.765625 12.171875 48.375 
Q 18.84375 56 30.609375 56 
z
" id="DejaVuSans-111"/>
       <path d="M 8.5 21.578125 
L 8.5 54.6875 
L 17.484375 54.6875 
L 17.484375 21.921875 
Q 17.484375 14.15625 20.5 10.265625 
Q 23.53125 6.390625 29.59375 6.390625 
Q 36.859375 6.390625 41.078125 11.03125 
Q 45.3125 15.671875 45.3125 23.6875 
L 45.3125 54.6875 
L 54.296875 54.6875 
L 54.296875 0 
L 45.3125 0 
L 45.3125 8.40625 
Q 42.046875 3.421875 37.71875 1 
Q 33.40625 -1.421875 27.6875 -1.421875 
Q 18.265625 -1.421875 13.375 4.4375 
Q 8.5 10.296875 8.5 21.578125 
z
M 31.109375 56 
z
" id="DejaVuSans-117"/>
       <path d="M 41.109375 46.296875 
Q 39.59375 47.171875 37.8125 47.578125 
Q 36.03125 48 33.890625 48 
Q 26.265625 48 22.1875 43.046875 
Q 18.109375 38.09375 18.109375 28.8125 
L 18.109375 0 
L 9.078125 0 
L 9.078125 54.6875 
L 18.109375 54.6875 
L 18.109375 46.1875 
Q 20.953125 51.171875 25.484375 53.578125 
Q 30.03125 56 36.53125 56 
Q 37.453125 56 38.578125 55.875 
Q 39.703125 55.765625 41.0625 55.515625 
z
" id="DejaVuSans-114"/>
       <path d="M 9.421875 54.6875 
L 18.40625 54.6875 
L 18.40625 0 
L 9.421875 0 
z
M 9.421875 75.984375 
L 18.40625 75.984375 
L 18.40625 64.59375 
L 9.421875 64.59375 
z
" id="DejaVuSans-105"/>
      </defs>
      <use xlink:href="#DejaVuSans-70"/>
      <use x="53.894531" xlink:href="#DejaVuSans-111"/>
      <use x="115.076172" xlink:href="#DejaVuSans-117"/>
      <use x="178.455078" xlink:href="#DejaVuSans-114"/>
      <use x="219.568359" xlink:href="#DejaVuSans-105"/>
      <use x="247.351562" xlink:href="#DejaVuSans-101"/>
      <use x="308.875" xlink:href="#DejaVuSans-114"/>
      <use x="349.988281" xlink:href="#DejaVuSans-32"/>
      <use x="381.775391" xlink:href="#DejaVuSans-49"/>
     </g>
    </g>
    <g id="line2d_25">
     <path d="M 333.180938 83.926688 
L 353.180938 83.926688 
" style="fill:none;stroke:#2ca02c;stroke-linecap:square;stroke-width:1.5;"/>
    </g>
    <g id="line2d_26"/>
    <g id="text_20">
     <!-- Fourier 2 -->
     <g transform="translate(361.180938 87.426688)scale(0.1 -0.1)">
      <use xlink:href="#DejaVuSans-70"/>
      <use x="53.894531" xlink:href="#DejaVuSans-111"/>
      <use x="115.076172" xlink:href="#DejaVuSans-117"/>
      <use x="178.455078" xlink:href="#DejaVuSans-114"/>
      <use x="219.568359" xlink:href="#DejaVuSans-105"/>
      <use x="247.351562" xlink:href="#DejaVuSans-101"/>
      <use x="308.875" xlink:href="#DejaVuSans-114"/>
      <use x="349.988281" xlink:href="#DejaVuSans-32"/>
      <use x="381.775391" xlink:href="#DejaVuSans-50"/>
     </g>
    </g>
    <g id="line2d_27">
     <path d="M 333.180938 98.604813 
L 353.180938 98.604813 
" style="fill:none;stroke:#d62728;stroke-linecap:square;stroke-width:1.5;"/>
    </g>
    <g id="line2d_28"/>
    <g id="text_21">
     <!-- Fourier 3 -->
     <g transform="translate(361.180938 102.104813)scale(0.1 -0.1)">
      <defs>
       <path d="M 40.578125 39.3125 
Q 47.65625 37.796875 51.625 33 
Q 55.609375 28.21875 55.609375 21.1875 
Q 55.609375 10.40625 48.1875 4.484375 
Q 40.765625 -1.421875 27.09375 -1.421875 
Q 22.515625 -1.421875 17.65625 -0.515625 
Q 12.796875 0.390625 7.625 2.203125 
L 7.625 11.71875 
Q 11.71875 9.328125 16.59375 8.109375 
Q 21.484375 6.890625 26.8125 6.890625 
Q 36.078125 6.890625 40.9375 10.546875 
Q 45.796875 14.203125 45.796875 21.1875 
Q 45.796875 27.640625 41.28125 31.265625 
Q 36.765625 34.90625 28.71875 34.90625 
L 20.21875 34.90625 
L 20.21875 43.015625 
L 29.109375 43.015625 
Q 36.375 43.015625 40.234375 45.921875 
Q 44.09375 48.828125 44.09375 54.296875 
Q 44.09375 59.90625 40.109375 62.90625 
Q 36.140625 65.921875 28.71875 65.921875 
Q 24.65625 65.921875 20.015625 65.03125 
Q 15.375 64.15625 9.8125 62.3125 
L 9.8125 71.09375 
Q 15.4375 72.65625 20.34375 73.4375 
Q 25.25 74.21875 29.59375 74.21875 
Q 40.828125 74.21875 47.359375 69.109375 
Q 53.90625 64.015625 53.90625 55.328125 
Q 53.90625 49.265625 50.4375 45.09375 
Q 46.96875 40.921875 40.578125 39.3125 
z
" id="DejaVuSans-51"/>
      </defs>
      <use xlink:href="#DejaVuSans-70"/>
      <use x="53.894531" xlink:href="#DejaVuSans-111"/>
      <use x="115.076172" xlink:href="#DejaVuSans-117"/>
      <use x="178.455078" xlink:href="#DejaVuSans-114"/>
      <use x="219.568359" xlink:href="#DejaVuSans-105"/>
      <use x="247.351562" xlink:href="#DejaVuSans-101"/>
      <use x="308.875" xlink:href="#DejaVuSans-114"/>
      <use x="349.988281" xlink:href="#DejaVuSans-32"/>
      <use x="381.775391" xlink:href="#DejaVuSans-51"/>
     </g>
    </g>
    <g id="line2d_29">
     <path d="M 333.180938 113.282938 
L 353.180938 113.282938 
" style="fill:none;stroke:#9467bd;stroke-linecap:square;stroke-width:1.5;"/>
    </g>
    <g id="line2d_30"/>
    <g id="text_22">
     <!-- Fourier 4 -->
     <g transform="translate(361.180938 116.782938)scale(0.1 -0.1)">
      <use xlink:href="#DejaVuSans-70"/>
      <use x="53.894531" xlink:href="#DejaVuSans-111"/>
      <use x="115.076172" xlink:href="#DejaVuSans-117"/>
      <use x="178.455078" xlink:href="#DejaVuSans-114"/>
      <use x="219.568359" xlink:href="#DejaVuSans-105"/>
      <use x="247.351562" xlink:href="#DejaVuSans-101"/>
      <use x="308.875" xlink:href="#DejaVuSans-114"/>
      <use x="349.988281" xlink:href="#DejaVuSans-32"/>
      <use x="381.775391" xlink:href="#DejaVuSans-52"/>
     </g>
    </g>
    <g id="line2d_31">
     <path d="M 333.180938 127.961063 
L 353.180938 127.961063 
" style="fill:none;stroke:#8c564b;stroke-linecap:square;stroke-width:1.5;"/>
    </g>
    <g id="line2d_32"/>
    <g id="text_23">
     <!-- Fourier 5 -->
     <g transform="translate(361.180938 131.461063)scale(0.1 -0.1)">
      <use xlink:href="#DejaVuSans-70"/>
      <use x="53.894531" xlink:href="#DejaVuSans-111"/>
      <use x="115.076172" xlink:href="#DejaVuSans-117"/>
      <use x="178.455078" xlink:href="#DejaVuSans-114"/>
      <use x="219.568359" xlink:href="#DejaVuSans-105"/>
      <use x="247.351562" xlink:href="#DejaVuSans-101"/>
      <use x="308.875" xlink:href="#DejaVuSans-114"/>
      <use x="349.988281" xlink:href="#DejaVuSans-32"/>
      <use x="381.775391" xlink:href="#DejaVuSans-53"/>
     </g>
    </g>
   </g>
   <g id="line2d_33">
    <path clip-path="url(#p206d42ee7f)" d="M 57.6 241.056 
L 67.27892 240.946251 
L 70.886193 240.672955 
L 73.707723 240.242575 
L 76.172097 239.643733 
L 78.386463 238.879689 
L 80.457966 237.933049 
L 82.458038 236.774199 
L 84.422394 235.373719 
L 86.351035 233.721279 
L 88.279676 231.772589 
L 90.244032 229.464665 
L 92.244104 226.764358 
L 94.315608 223.583411 
L 96.458542 219.875373 
L 98.708623 215.526675 
L 101.101566 210.403001 
L 103.673087 204.354057 
L 106.494617 197.129121 
L 109.709019 188.262398 
L 113.709163 176.535653 
L 125.638164 141.106383 
L 128.602556 133.255297 
L 131.138362 127.152106 
L 133.352727 122.380049 
L 135.352799 118.577437 
L 137.174293 115.573704 
L 138.852925 113.220322 
L 140.388695 111.433536 
L 141.817318 110.097426 
L 143.174509 109.127066 
L 144.424554 108.495885 
L 145.638884 108.126838 
L 146.817498 108.000322 
L 147.996112 108.102582 
L 149.174725 108.433179 
L 150.389055 109.011106 
L 151.6391 109.85485 
L 152.960576 111.016789 
L 154.389199 112.577939 
L 155.924968 114.598622 
L 157.567885 117.136904 
L 159.353663 120.313587 
L 161.31802 124.274783 
L 163.49667 129.186191 
L 165.961044 135.314415 
L 168.81829 143.043269 
L 172.389847 153.385229 
L 179.14009 173.79553 
L 184.033123 188.211533 
L 187.497534 197.744859 
L 190.461926 205.26954 
L 193.140594 211.475689 
L 195.604968 216.639412 
L 197.926481 221.000805 
L 200.140846 224.696975 
L 202.248065 227.794681 
L 204.319568 230.449279 
L 206.31964 232.658274 
L 208.283996 234.506504 
L 210.248353 236.057035 
L 212.248425 237.354477 
L 214.284212 238.412078 
L 216.427147 239.27273 
L 218.712943 239.946779 
L 221.213033 240.448369 
L 224.105995 240.794795 
L 227.748983 240.993115 
L 233.606337 241.055459 
L 245.642484 240.954814 
L 249.285473 240.690835 
L 252.142718 240.266877 
L 254.607093 239.68005 
L 256.857174 238.915192 
L 258.928677 237.978946 
L 260.928749 236.831477 
L 262.893105 235.443386 
L 264.821746 233.804168 
L 266.750387 231.869618 
L 268.714743 229.576872 
L 270.714815 226.892616 
L 272.786319 223.728682 
L 274.929253 220.038359 
L 277.179334 215.708022 
L 279.572277 210.603153 
L 282.143798 204.573028 
L 284.965329 197.36637 
L 288.17973 188.516487 
L 292.144158 176.910272 
L 304.358884 140.663906 
L 307.287561 132.940061 
L 309.787651 126.94907 
L 312.002016 122.199618 
L 314.002088 118.4197 
L 315.823582 115.438297 
L 317.502214 113.106706 
L 319.037984 111.340719 
L 320.466607 110.024563 
L 321.788083 109.094823 
L 323.038128 108.474514 
L 324.252457 108.116128 
L 325.431071 108.000007 
L 326.609685 108.112663 
L 327.788299 108.453612 
L 329.002628 109.042114 
L 330.252673 109.896594 
L 331.574149 111.069665 
L 333.002772 112.642528 
L 334.538542 114.67535 
L 336.181458 117.226006 
L 337.967237 120.415311 
L 339.931593 124.389264 
L 342.110243 129.313283 
L 344.574617 135.453641 
L 347.431863 143.193524 
L 351.039136 153.650678 
L 358.217966 175.355838 
L 362.896706 189.074063 
L 366.289685 198.356961 
L 369.218362 205.744651 
L 371.861314 211.828794 
L 374.325689 216.957262 
L 376.647201 221.284361 
L 378.861566 224.947589 
L 380.968785 228.01435 
L 383.004572 230.597366 
L 385.004644 232.785173 
L 386.969001 234.613807 
L 388.933357 236.146169 
L 390.933429 237.426759 
L 392.969217 238.469056 
L 395.112151 239.315709 
L 397.397948 239.977255 
L 399.933753 240.473508 
L 402.86243 240.811172 
L 406.57685 241.000701 
L 412.755644 241.05581 
L 414.72 241.056 
L 414.72 241.056 
" style="fill:none;stroke:#1f77b4;stroke-linecap:square;stroke-width:2;"/>
   </g>
  </g>
 </g>
 <defs>
  <clipPath id="p206d42ee7f">
   <rect height="266.112" width="357.12" x="57.6" y="41.472"/>
  </clipPath>
 </defs>
</svg>
