<?xml version="1.0" encoding="utf-8" standalone="no"?>
<!DOCTYPE svg PUBLIC "-//W3C//DTD SVG 1.1//EN"
  "http://www.w3.org/Graphics/SVG/1.1/DTD/svg11.dtd">
<!-- Created with matplotlib (https://matplotlib.org/) -->
<svg height="367.2pt" version="1.1" viewBox="0 0 460.8 367.2" width="460.8pt" xmlns="http://www.w3.org/2000/svg" xmlns:xlink="http://www.w3.org/1999/xlink">
 <metadata>
  <rdf:RDF xmlns:cc="http://creativecommons.org/ns#" xmlns:dc="http://purl.org/dc/elements/1.1/" xmlns:rdf="http://www.w3.org/1999/02/22-rdf-syntax-ns#">
   <cc:Work>
    <dc:type rdf:resource="http://purl.org/dc/dcmitype/StillImage"/>
    <dc:date>2021-02-15T15:20:59.339664</dc:date>
    <dc:format>image/svg+xml</dc:format>
    <dc:creator>
     <cc:Agent>
      <dc:title>Matplotlib v3.3.2, https://matplotlib.org/</dc:title>
     </cc:Agent>
    </dc:creator>
   </cc:Work>
  </rdf:RDF>
 </metadata>
 <defs>
  <style type="text/css">*{stroke-linecap:butt;stroke-linejoin:round;}</style>
 </defs>
 <g id="figure_1">
  <g id="patch_1">
   <path d="M 0 367.2 
L 460.8 367.2 
L 460.8 0 
L 0 0 
z
" style="fill:#ffffff;"/>
  </g>
  <g id="axes_1">
   <g id="patch_2">
    <path d="M 65.018 325.24 
L 442.035 325.24 
L 442.035 14.76 
L 65.018 14.76 
z
" style="fill:#ffffff;"/>
   </g>
   <g id="matplotlib.axis_1">
    <g id="xtick_1">
     <g id="line2d_1">
      <defs>
       <path d="M 0 0 
L 0 3.5 
" id="ma67c167ff3" style="stroke:#000000;stroke-width:0.8;"/>
      </defs>
      <g>
       <use style="stroke:#000000;stroke-width:0.8;" x="65.018" xlink:href="#ma67c167ff3" y="325.24"/>
      </g>
     </g>
     <g id="text_1">
      <!-- 0.0 -->
      <g transform="translate(57.066438 339.838437)scale(0.1 -0.1)">
       <defs>
        <path d="M 31.78125 66.40625 
Q 24.171875 66.40625 20.328125 58.90625 
Q 16.5 51.421875 16.5 36.375 
Q 16.5 21.390625 20.328125 13.890625 
Q 24.171875 6.390625 31.78125 6.390625 
Q 39.453125 6.390625 43.28125 13.890625 
Q 47.125 21.390625 47.125 36.375 
Q 47.125 51.421875 43.28125 58.90625 
Q 39.453125 66.40625 31.78125 66.40625 
z
M 31.78125 74.21875 
Q 44.046875 74.21875 50.515625 64.515625 
Q 56.984375 54.828125 56.984375 36.375 
Q 56.984375 17.96875 50.515625 8.265625 
Q 44.046875 -1.421875 31.78125 -1.421875 
Q 19.53125 -1.421875 13.0625 8.265625 
Q 6.59375 17.96875 6.59375 36.375 
Q 6.59375 54.828125 13.0625 64.515625 
Q 19.53125 74.21875 31.78125 74.21875 
z
" id="DejaVuSans-48"/>
        <path d="M 10.6875 12.40625 
L 21 12.40625 
L 21 0 
L 10.6875 0 
z
" id="DejaVuSans-46"/>
       </defs>
       <use xlink:href="#DejaVuSans-48"/>
       <use x="63.623047" xlink:href="#DejaVuSans-46"/>
       <use x="95.410156" xlink:href="#DejaVuSans-48"/>
      </g>
     </g>
    </g>
    <g id="xtick_2">
     <g id="line2d_2">
      <g>
       <use style="stroke:#000000;stroke-width:0.8;" x="140.4214" xlink:href="#ma67c167ff3" y="325.24"/>
      </g>
     </g>
     <g id="text_2">
      <!-- 0.2 -->
      <g transform="translate(132.469838 339.838437)scale(0.1 -0.1)">
       <defs>
        <path d="M 19.1875 8.296875 
L 53.609375 8.296875 
L 53.609375 0 
L 7.328125 0 
L 7.328125 8.296875 
Q 12.9375 14.109375 22.625 23.890625 
Q 32.328125 33.6875 34.8125 36.53125 
Q 39.546875 41.84375 41.421875 45.53125 
Q 43.3125 49.21875 43.3125 52.78125 
Q 43.3125 58.59375 39.234375 62.25 
Q 35.15625 65.921875 28.609375 65.921875 
Q 23.96875 65.921875 18.8125 64.3125 
Q 13.671875 62.703125 7.8125 59.421875 
L 7.8125 69.390625 
Q 13.765625 71.78125 18.9375 73 
Q 24.125 74.21875 28.421875 74.21875 
Q 39.75 74.21875 46.484375 68.546875 
Q 53.21875 62.890625 53.21875 53.421875 
Q 53.21875 48.921875 51.53125 44.890625 
Q 49.859375 40.875 45.40625 35.40625 
Q 44.1875 33.984375 37.640625 27.21875 
Q 31.109375 20.453125 19.1875 8.296875 
z
" id="DejaVuSans-50"/>
       </defs>
       <use xlink:href="#DejaVuSans-48"/>
       <use x="63.623047" xlink:href="#DejaVuSans-46"/>
       <use x="95.410156" xlink:href="#DejaVuSans-50"/>
      </g>
     </g>
    </g>
    <g id="xtick_3">
     <g id="line2d_3">
      <g>
       <use style="stroke:#000000;stroke-width:0.8;" x="215.8248" xlink:href="#ma67c167ff3" y="325.24"/>
      </g>
     </g>
     <g id="text_3">
      <!-- 0.4 -->
      <g transform="translate(207.873237 339.838437)scale(0.1 -0.1)">
       <defs>
        <path d="M 37.796875 64.3125 
L 12.890625 25.390625 
L 37.796875 25.390625 
z
M 35.203125 72.90625 
L 47.609375 72.90625 
L 47.609375 25.390625 
L 58.015625 25.390625 
L 58.015625 17.1875 
L 47.609375 17.1875 
L 47.609375 0 
L 37.796875 0 
L 37.796875 17.1875 
L 4.890625 17.1875 
L 4.890625 26.703125 
z
" id="DejaVuSans-52"/>
       </defs>
       <use xlink:href="#DejaVuSans-48"/>
       <use x="63.623047" xlink:href="#DejaVuSans-46"/>
       <use x="95.410156" xlink:href="#DejaVuSans-52"/>
      </g>
     </g>
    </g>
    <g id="xtick_4">
     <g id="line2d_4">
      <g>
       <use style="stroke:#000000;stroke-width:0.8;" x="291.2282" xlink:href="#ma67c167ff3" y="325.24"/>
      </g>
     </g>
     <g id="text_4">
      <!-- 0.6 -->
      <g transform="translate(283.276637 339.838437)scale(0.1 -0.1)">
       <defs>
        <path d="M 33.015625 40.375 
Q 26.375 40.375 22.484375 35.828125 
Q 18.609375 31.296875 18.609375 23.390625 
Q 18.609375 15.53125 22.484375 10.953125 
Q 26.375 6.390625 33.015625 6.390625 
Q 39.65625 6.390625 43.53125 10.953125 
Q 47.40625 15.53125 47.40625 23.390625 
Q 47.40625 31.296875 43.53125 35.828125 
Q 39.65625 40.375 33.015625 40.375 
z
M 52.59375 71.296875 
L 52.59375 62.3125 
Q 48.875 64.0625 45.09375 64.984375 
Q 41.3125 65.921875 37.59375 65.921875 
Q 27.828125 65.921875 22.671875 59.328125 
Q 17.53125 52.734375 16.796875 39.40625 
Q 19.671875 43.65625 24.015625 45.921875 
Q 28.375 48.1875 33.59375 48.1875 
Q 44.578125 48.1875 50.953125 41.515625 
Q 57.328125 34.859375 57.328125 23.390625 
Q 57.328125 12.15625 50.6875 5.359375 
Q 44.046875 -1.421875 33.015625 -1.421875 
Q 20.359375 -1.421875 13.671875 8.265625 
Q 6.984375 17.96875 6.984375 36.375 
Q 6.984375 53.65625 15.1875 63.9375 
Q 23.390625 74.21875 37.203125 74.21875 
Q 40.921875 74.21875 44.703125 73.484375 
Q 48.484375 72.75 52.59375 71.296875 
z
" id="DejaVuSans-54"/>
       </defs>
       <use xlink:href="#DejaVuSans-48"/>
       <use x="63.623047" xlink:href="#DejaVuSans-46"/>
       <use x="95.410156" xlink:href="#DejaVuSans-54"/>
      </g>
     </g>
    </g>
    <g id="xtick_5">
     <g id="line2d_5">
      <g>
       <use style="stroke:#000000;stroke-width:0.8;" x="366.6316" xlink:href="#ma67c167ff3" y="325.24"/>
      </g>
     </g>
     <g id="text_5">
      <!-- 0.8 -->
      <g transform="translate(358.680037 339.838437)scale(0.1 -0.1)">
       <defs>
        <path d="M 31.78125 34.625 
Q 24.75 34.625 20.71875 30.859375 
Q 16.703125 27.09375 16.703125 20.515625 
Q 16.703125 13.921875 20.71875 10.15625 
Q 24.75 6.390625 31.78125 6.390625 
Q 38.8125 6.390625 42.859375 10.171875 
Q 46.921875 13.96875 46.921875 20.515625 
Q 46.921875 27.09375 42.890625 30.859375 
Q 38.875 34.625 31.78125 34.625 
z
M 21.921875 38.8125 
Q 15.578125 40.375 12.03125 44.71875 
Q 8.5 49.078125 8.5 55.328125 
Q 8.5 64.0625 14.71875 69.140625 
Q 20.953125 74.21875 31.78125 74.21875 
Q 42.671875 74.21875 48.875 69.140625 
Q 55.078125 64.0625 55.078125 55.328125 
Q 55.078125 49.078125 51.53125 44.71875 
Q 48 40.375 41.703125 38.8125 
Q 48.828125 37.15625 52.796875 32.3125 
Q 56.78125 27.484375 56.78125 20.515625 
Q 56.78125 9.90625 50.3125 4.234375 
Q 43.84375 -1.421875 31.78125 -1.421875 
Q 19.734375 -1.421875 13.25 4.234375 
Q 6.78125 9.90625 6.78125 20.515625 
Q 6.78125 27.484375 10.78125 32.3125 
Q 14.796875 37.15625 21.921875 38.8125 
z
M 18.3125 54.390625 
Q 18.3125 48.734375 21.84375 45.5625 
Q 25.390625 42.390625 31.78125 42.390625 
Q 38.140625 42.390625 41.71875 45.5625 
Q 45.3125 48.734375 45.3125 54.390625 
Q 45.3125 60.0625 41.71875 63.234375 
Q 38.140625 66.40625 31.78125 66.40625 
Q 25.390625 66.40625 21.84375 63.234375 
Q 18.3125 60.0625 18.3125 54.390625 
z
" id="DejaVuSans-56"/>
       </defs>
       <use xlink:href="#DejaVuSans-48"/>
       <use x="63.623047" xlink:href="#DejaVuSans-46"/>
       <use x="95.410156" xlink:href="#DejaVuSans-56"/>
      </g>
     </g>
    </g>
    <g id="xtick_6">
     <g id="line2d_6">
      <g>
       <use style="stroke:#000000;stroke-width:0.8;" x="442.035" xlink:href="#ma67c167ff3" y="325.24"/>
      </g>
     </g>
     <g id="text_6">
      <!-- 1.0 -->
      <g transform="translate(434.083437 339.838437)scale(0.1 -0.1)">
       <defs>
        <path d="M 12.40625 8.296875 
L 28.515625 8.296875 
L 28.515625 63.921875 
L 10.984375 60.40625 
L 10.984375 69.390625 
L 28.421875 72.90625 
L 38.28125 72.90625 
L 38.28125 8.296875 
L 54.390625 8.296875 
L 54.390625 0 
L 12.40625 0 
z
" id="DejaVuSans-49"/>
       </defs>
       <use xlink:href="#DejaVuSans-49"/>
       <use x="63.623047" xlink:href="#DejaVuSans-46"/>
       <use x="95.410156" xlink:href="#DejaVuSans-48"/>
      </g>
     </g>
    </g>
    <g id="text_7">
     <!-- $x$ -->
     <g transform="translate(250.5265 353.516563)scale(0.1 -0.1)">
      <defs>
       <path d="M 60.015625 54.6875 
L 34.90625 27.875 
L 50.296875 0 
L 39.984375 0 
L 28.421875 21.6875 
L 8.296875 0 
L -2.59375 0 
L 24.3125 28.8125 
L 10.015625 54.6875 
L 20.3125 54.6875 
L 30.8125 34.90625 
L 49.125 54.6875 
z
" id="DejaVuSans-Oblique-120"/>
      </defs>
      <use transform="translate(0 0.3125)" xlink:href="#DejaVuSans-Oblique-120"/>
     </g>
    </g>
   </g>
   <g id="matplotlib.axis_2">
    <g id="ytick_1">
     <g id="line2d_7">
      <defs>
       <path d="M 0 0 
L -3.5 0 
" id="ma66124d0b9" style="stroke:#000000;stroke-width:0.8;"/>
      </defs>
      <g>
       <use style="stroke:#000000;stroke-width:0.8;" x="65.018" xlink:href="#ma66124d0b9" y="325.24"/>
      </g>
     </g>
     <g id="text_8">
      <!-- −0.50 -->
      <g transform="translate(27.372688 329.039219)scale(0.1 -0.1)">
       <defs>
        <path d="M 10.59375 35.5 
L 73.1875 35.5 
L 73.1875 27.203125 
L 10.59375 27.203125 
z
" id="DejaVuSans-8722"/>
        <path d="M 10.796875 72.90625 
L 49.515625 72.90625 
L 49.515625 64.59375 
L 19.828125 64.59375 
L 19.828125 46.734375 
Q 21.96875 47.46875 24.109375 47.828125 
Q 26.265625 48.1875 28.421875 48.1875 
Q 40.625 48.1875 47.75 41.5 
Q 54.890625 34.8125 54.890625 23.390625 
Q 54.890625 11.625 47.5625 5.09375 
Q 40.234375 -1.421875 26.90625 -1.421875 
Q 22.3125 -1.421875 17.546875 -0.640625 
Q 12.796875 0.140625 7.71875 1.703125 
L 7.71875 11.625 
Q 12.109375 9.234375 16.796875 8.0625 
Q 21.484375 6.890625 26.703125 6.890625 
Q 35.15625 6.890625 40.078125 11.328125 
Q 45.015625 15.765625 45.015625 23.390625 
Q 45.015625 31 40.078125 35.4375 
Q 35.15625 39.890625 26.703125 39.890625 
Q 22.75 39.890625 18.8125 39.015625 
Q 14.890625 38.140625 10.796875 36.28125 
z
" id="DejaVuSans-53"/>
       </defs>
       <use xlink:href="#DejaVuSans-8722"/>
       <use x="83.789062" xlink:href="#DejaVuSans-48"/>
       <use x="147.412109" xlink:href="#DejaVuSans-46"/>
       <use x="179.199219" xlink:href="#DejaVuSans-53"/>
       <use x="242.822266" xlink:href="#DejaVuSans-48"/>
      </g>
     </g>
    </g>
    <g id="ytick_2">
     <g id="line2d_8">
      <g>
       <use style="stroke:#000000;stroke-width:0.8;" x="65.018" xlink:href="#ma66124d0b9" y="286.43"/>
      </g>
     </g>
     <g id="text_9">
      <!-- −0.25 -->
      <g transform="translate(27.372688 290.229219)scale(0.1 -0.1)">
       <use xlink:href="#DejaVuSans-8722"/>
       <use x="83.789062" xlink:href="#DejaVuSans-48"/>
       <use x="147.412109" xlink:href="#DejaVuSans-46"/>
       <use x="179.199219" xlink:href="#DejaVuSans-50"/>
       <use x="242.822266" xlink:href="#DejaVuSans-53"/>
      </g>
     </g>
    </g>
    <g id="ytick_3">
     <g id="line2d_9">
      <g>
       <use style="stroke:#000000;stroke-width:0.8;" x="65.018" xlink:href="#ma66124d0b9" y="247.62"/>
      </g>
     </g>
     <g id="text_10">
      <!-- 0.00 -->
      <g transform="translate(35.752375 251.419219)scale(0.1 -0.1)">
       <use xlink:href="#DejaVuSans-48"/>
       <use x="63.623047" xlink:href="#DejaVuSans-46"/>
       <use x="95.410156" xlink:href="#DejaVuSans-48"/>
       <use x="159.033203" xlink:href="#DejaVuSans-48"/>
      </g>
     </g>
    </g>
    <g id="ytick_4">
     <g id="line2d_10">
      <g>
       <use style="stroke:#000000;stroke-width:0.8;" x="65.018" xlink:href="#ma66124d0b9" y="208.81"/>
      </g>
     </g>
     <g id="text_11">
      <!-- 0.25 -->
      <g transform="translate(35.752375 212.609219)scale(0.1 -0.1)">
       <use xlink:href="#DejaVuSans-48"/>
       <use x="63.623047" xlink:href="#DejaVuSans-46"/>
       <use x="95.410156" xlink:href="#DejaVuSans-50"/>
       <use x="159.033203" xlink:href="#DejaVuSans-53"/>
      </g>
     </g>
    </g>
    <g id="ytick_5">
     <g id="line2d_11">
      <g>
       <use style="stroke:#000000;stroke-width:0.8;" x="65.018" xlink:href="#ma66124d0b9" y="170"/>
      </g>
     </g>
     <g id="text_12">
      <!-- 0.50 -->
      <g transform="translate(35.752375 173.799219)scale(0.1 -0.1)">
       <use xlink:href="#DejaVuSans-48"/>
       <use x="63.623047" xlink:href="#DejaVuSans-46"/>
       <use x="95.410156" xlink:href="#DejaVuSans-53"/>
       <use x="159.033203" xlink:href="#DejaVuSans-48"/>
      </g>
     </g>
    </g>
    <g id="ytick_6">
     <g id="line2d_12">
      <g>
       <use style="stroke:#000000;stroke-width:0.8;" x="65.018" xlink:href="#ma66124d0b9" y="131.19"/>
      </g>
     </g>
     <g id="text_13">
      <!-- 0.75 -->
      <g transform="translate(35.752375 134.989219)scale(0.1 -0.1)">
       <defs>
        <path d="M 8.203125 72.90625 
L 55.078125 72.90625 
L 55.078125 68.703125 
L 28.609375 0 
L 18.3125 0 
L 43.21875 64.59375 
L 8.203125 64.59375 
z
" id="DejaVuSans-55"/>
       </defs>
       <use xlink:href="#DejaVuSans-48"/>
       <use x="63.623047" xlink:href="#DejaVuSans-46"/>
       <use x="95.410156" xlink:href="#DejaVuSans-55"/>
       <use x="159.033203" xlink:href="#DejaVuSans-53"/>
      </g>
     </g>
    </g>
    <g id="ytick_7">
     <g id="line2d_13">
      <g>
       <use style="stroke:#000000;stroke-width:0.8;" x="65.018" xlink:href="#ma66124d0b9" y="92.38"/>
      </g>
     </g>
     <g id="text_14">
      <!-- 1.00 -->
      <g transform="translate(35.752375 96.179219)scale(0.1 -0.1)">
       <use xlink:href="#DejaVuSans-49"/>
       <use x="63.623047" xlink:href="#DejaVuSans-46"/>
       <use x="95.410156" xlink:href="#DejaVuSans-48"/>
       <use x="159.033203" xlink:href="#DejaVuSans-48"/>
      </g>
     </g>
    </g>
    <g id="ytick_8">
     <g id="line2d_14">
      <g>
       <use style="stroke:#000000;stroke-width:0.8;" x="65.018" xlink:href="#ma66124d0b9" y="53.57"/>
      </g>
     </g>
     <g id="text_15">
      <!-- 1.25 -->
      <g transform="translate(35.752375 57.369219)scale(0.1 -0.1)">
       <use xlink:href="#DejaVuSans-49"/>
       <use x="63.623047" xlink:href="#DejaVuSans-46"/>
       <use x="95.410156" xlink:href="#DejaVuSans-50"/>
       <use x="159.033203" xlink:href="#DejaVuSans-53"/>
      </g>
     </g>
    </g>
    <g id="ytick_9">
     <g id="line2d_15">
      <g>
       <use style="stroke:#000000;stroke-width:0.8;" x="65.018" xlink:href="#ma66124d0b9" y="14.76"/>
      </g>
     </g>
     <g id="text_16">
      <!-- 1.50 -->
      <g transform="translate(35.752375 18.559219)scale(0.1 -0.1)">
       <use xlink:href="#DejaVuSans-49"/>
       <use x="63.623047" xlink:href="#DejaVuSans-46"/>
       <use x="95.410156" xlink:href="#DejaVuSans-53"/>
       <use x="159.033203" xlink:href="#DejaVuSans-48"/>
      </g>
     </g>
    </g>
    <g id="text_17">
     <!-- $f(x)$ and $f_h(x)$ -->
     <g transform="translate(21.293 202.2)rotate(-90)scale(0.1 -0.1)">
      <defs>
       <path d="M 47.796875 75.984375 
L 46.390625 68.5 
L 37.796875 68.5 
Q 32.90625 68.5 30.6875 66.578125 
Q 28.46875 64.65625 27.390625 59.515625 
L 26.421875 54.6875 
L 41.21875 54.6875 
L 39.890625 47.703125 
L 25.09375 47.703125 
L 15.828125 0 
L 6.78125 0 
L 16.109375 47.703125 
L 7.515625 47.703125 
L 8.796875 54.6875 
L 17.390625 54.6875 
L 18.109375 58.5 
Q 19.96875 68.171875 24.625 72.078125 
Q 29.296875 75.984375 39.3125 75.984375 
z
" id="DejaVuSans-Oblique-102"/>
       <path d="M 31 75.875 
Q 24.46875 64.65625 21.28125 53.65625 
Q 18.109375 42.671875 18.109375 31.390625 
Q 18.109375 20.125 21.3125 9.0625 
Q 24.515625 -2 31 -13.1875 
L 23.1875 -13.1875 
Q 15.875 -1.703125 12.234375 9.375 
Q 8.59375 20.453125 8.59375 31.390625 
Q 8.59375 42.28125 12.203125 53.3125 
Q 15.828125 64.359375 23.1875 75.875 
z
" id="DejaVuSans-40"/>
       <path d="M 8.015625 75.875 
L 15.828125 75.875 
Q 23.140625 64.359375 26.78125 53.3125 
Q 30.421875 42.28125 30.421875 31.390625 
Q 30.421875 20.453125 26.78125 9.375 
Q 23.140625 -1.703125 15.828125 -13.1875 
L 8.015625 -13.1875 
Q 14.5 -2 17.703125 9.0625 
Q 20.90625 20.125 20.90625 31.390625 
Q 20.90625 42.671875 17.703125 53.65625 
Q 14.5 64.65625 8.015625 75.875 
z
" id="DejaVuSans-41"/>
       <path id="DejaVuSans-32"/>
       <path d="M 34.28125 27.484375 
Q 23.390625 27.484375 19.1875 25 
Q 14.984375 22.515625 14.984375 16.5 
Q 14.984375 11.71875 18.140625 8.90625 
Q 21.296875 6.109375 26.703125 6.109375 
Q 34.1875 6.109375 38.703125 11.40625 
Q 43.21875 16.703125 43.21875 25.484375 
L 43.21875 27.484375 
z
M 52.203125 31.203125 
L 52.203125 0 
L 43.21875 0 
L 43.21875 8.296875 
Q 40.140625 3.328125 35.546875 0.953125 
Q 30.953125 -1.421875 24.3125 -1.421875 
Q 15.921875 -1.421875 10.953125 3.296875 
Q 6 8.015625 6 15.921875 
Q 6 25.140625 12.171875 29.828125 
Q 18.359375 34.515625 30.609375 34.515625 
L 43.21875 34.515625 
L 43.21875 35.40625 
Q 43.21875 41.609375 39.140625 45 
Q 35.0625 48.390625 27.6875 48.390625 
Q 23 48.390625 18.546875 47.265625 
Q 14.109375 46.140625 10.015625 43.890625 
L 10.015625 52.203125 
Q 14.9375 54.109375 19.578125 55.046875 
Q 24.21875 56 28.609375 56 
Q 40.484375 56 46.34375 49.84375 
Q 52.203125 43.703125 52.203125 31.203125 
z
" id="DejaVuSans-97"/>
       <path d="M 54.890625 33.015625 
L 54.890625 0 
L 45.90625 0 
L 45.90625 32.71875 
Q 45.90625 40.484375 42.875 44.328125 
Q 39.84375 48.1875 33.796875 48.1875 
Q 26.515625 48.1875 22.3125 43.546875 
Q 18.109375 38.921875 18.109375 30.90625 
L 18.109375 0 
L 9.078125 0 
L 9.078125 54.6875 
L 18.109375 54.6875 
L 18.109375 46.1875 
Q 21.34375 51.125 25.703125 53.5625 
Q 30.078125 56 35.796875 56 
Q 45.21875 56 50.046875 50.171875 
Q 54.890625 44.34375 54.890625 33.015625 
z
" id="DejaVuSans-110"/>
       <path d="M 45.40625 46.390625 
L 45.40625 75.984375 
L 54.390625 75.984375 
L 54.390625 0 
L 45.40625 0 
L 45.40625 8.203125 
Q 42.578125 3.328125 38.25 0.953125 
Q 33.9375 -1.421875 27.875 -1.421875 
Q 17.96875 -1.421875 11.734375 6.484375 
Q 5.515625 14.40625 5.515625 27.296875 
Q 5.515625 40.1875 11.734375 48.09375 
Q 17.96875 56 27.875 56 
Q 33.9375 56 38.25 53.625 
Q 42.578125 51.265625 45.40625 46.390625 
z
M 14.796875 27.296875 
Q 14.796875 17.390625 18.875 11.75 
Q 22.953125 6.109375 30.078125 6.109375 
Q 37.203125 6.109375 41.296875 11.75 
Q 45.40625 17.390625 45.40625 27.296875 
Q 45.40625 37.203125 41.296875 42.84375 
Q 37.203125 48.484375 30.078125 48.484375 
Q 22.953125 48.484375 18.875 42.84375 
Q 14.796875 37.203125 14.796875 27.296875 
z
" id="DejaVuSans-100"/>
       <path d="M 55.71875 33.015625 
L 49.3125 0 
L 40.28125 0 
L 46.6875 32.671875 
Q 47.125 34.96875 47.359375 36.71875 
Q 47.609375 38.484375 47.609375 39.5 
Q 47.609375 43.609375 45.015625 45.890625 
Q 42.4375 48.1875 37.796875 48.1875 
Q 30.5625 48.1875 25.265625 43.296875 
Q 19.96875 38.421875 18.40625 30.328125 
L 12.5 0 
L 3.515625 0 
L 18.3125 75.984375 
L 27.296875 75.984375 
L 21.484375 46.09375 
Q 24.90625 50.6875 30.21875 53.34375 
Q 35.546875 56 41.40625 56 
Q 48.640625 56 52.609375 52.09375 
Q 56.59375 48.1875 56.59375 41.109375 
Q 56.59375 39.359375 56.375 37.359375 
Q 56.15625 35.359375 55.71875 33.015625 
z
" id="DejaVuSans-Oblique-104"/>
      </defs>
      <use transform="translate(0 0.015625)" xlink:href="#DejaVuSans-Oblique-102"/>
      <use transform="translate(35.205078 0.015625)" xlink:href="#DejaVuSans-40"/>
      <use transform="translate(74.21875 0.015625)" xlink:href="#DejaVuSans-Oblique-120"/>
      <use transform="translate(133.398438 0.015625)" xlink:href="#DejaVuSans-41"/>
      <use transform="translate(172.412109 0.015625)" xlink:href="#DejaVuSans-32"/>
      <use transform="translate(204.199219 0.015625)" xlink:href="#DejaVuSans-97"/>
      <use transform="translate(265.478516 0.015625)" xlink:href="#DejaVuSans-110"/>
      <use transform="translate(328.857422 0.015625)" xlink:href="#DejaVuSans-100"/>
      <use transform="translate(392.333984 0.015625)" xlink:href="#DejaVuSans-32"/>
      <use transform="translate(424.121094 0.015625)" xlink:href="#DejaVuSans-Oblique-102"/>
      <use transform="translate(459.326172 -16.390625)scale(0.7)" xlink:href="#DejaVuSans-Oblique-104"/>
      <use transform="translate(506.425781 0.015625)" xlink:href="#DejaVuSans-40"/>
      <use transform="translate(545.439453 0.015625)" xlink:href="#DejaVuSans-Oblique-120"/>
      <use transform="translate(604.619141 0.015625)" xlink:href="#DejaVuSans-41"/>
     </g>
    </g>
   </g>
   <g id="line2d_16">
    <path clip-path="url(#p9fe75275d7)" d="M 65.018 247.62 
L 72.634505 239.841963 
L 80.175599 232.456932 
L 87.641282 225.455475 
L 95.031555 218.828252 
L 102.346416 212.566021 
L 109.585866 206.659631 
L 116.749906 201.100028 
L 123.838534 195.878249 
L 130.889457 190.959858 
L 137.864969 186.364553 
L 144.76507 182.083608 
L 151.627466 178.087147 
L 158.414451 174.390702 
L 165.16373 170.967357 
L 171.837598 167.829917 
L 178.473761 164.954385 
L 185.072218 162.33661 
L 191.63297 159.972464 
L 198.156017 157.857846 
L 204.641357 155.988674 
L 211.088993 154.360894 
L 217.498923 152.970472 
L 223.908853 151.807222 
L 230.281077 150.875985 
L 236.653302 150.169254 
L 243.025526 149.68703 
L 249.360046 149.430177 
L 255.694565 149.395182 
L 262.029084 149.582044 
L 268.363603 149.990764 
L 274.698122 150.621341 
L 281.070346 151.479514 
L 287.442571 152.562193 
L 293.852501 153.877782 
L 300.262431 155.420542 
L 306.710066 157.201557 
L 313.195407 159.224859 
L 319.718454 161.494504 
L 326.279205 164.014572 
L 332.877663 166.789166 
L 339.513826 169.822413 
L 346.187694 173.118464 
L 352.899268 176.681492 
L 359.686252 180.537822 
L 366.510942 184.672386 
L 373.411044 189.114441 
L 380.34885 193.846174 
L 387.362068 198.899823 
L 394.450696 204.284159 
L 401.57703 209.977181 
L 408.778775 216.015707 
L 416.055931 222.408746 
L 423.408498 229.165401 
L 430.836475 236.294868 
L 438.339864 243.806439 
L 442.035 247.62 
L 442.035 247.62 
" style="fill:none;stroke:#ff7f0e;stroke-linecap:square;stroke-width:1.5;"/>
   </g>
   <g id="line2d_17">
    <path clip-path="url(#p9fe75275d7)" d="M 65.018 247.62 
L 67.921321 223.086615 
L 70.786937 200.727459 
L 73.577142 180.662804 
L 76.329641 162.457659 
L 79.00673 146.208642 
L 81.646113 131.543152 
L 84.210085 118.536876 
L 86.698646 107.038688 
L 89.111796 96.908858 
L 91.48724 87.882168 
L 93.787274 80.002656 
L 96.011897 73.157723 
L 98.161109 67.243639 
L 100.234909 62.16494 
L 102.271005 57.757324 
L 104.231689 54.035919 
L 106.116963 50.924709 
L 107.926825 48.354025 
L 109.698983 46.218498 
L 111.395729 44.515873 
L 113.054769 43.163901 
L 114.638399 42.152513 
L 116.184324 41.419696 
L 117.730248 40.930208 
L 119.276172 40.676109 
L 120.822096 40.64955 
L 122.405726 40.850164 
L 124.027061 41.28588 
L 125.686102 41.963911 
L 127.420554 42.913909 
L 129.268122 44.185463 
L 131.228806 45.81418 
L 133.302607 47.833933 
L 135.52723 50.321078 
L 137.902675 53.320322 
L 140.466647 56.927916 
L 143.219146 61.194937 
L 146.197878 66.231069 
L 149.478254 72.227654 
L 153.097979 79.324254 
L 157.132465 87.736708 
L 161.807943 98.019399 
L 167.501469 111.105903 
L 175.9852 131.233574 
L 187.975539 159.610963 
L 194.121531 173.563634 
L 199.249475 184.671145 
L 203.849543 194.115294 
L 208.03485 202.210645 
L 211.918513 209.249005 
L 215.575944 215.423529 
L 219.007142 220.787987 
L 222.249812 225.455448 
L 225.341661 229.525236 
L 228.282687 233.038856 
L 231.110598 236.078343 
L 233.825392 238.675581 
L 236.427069 240.863596 
L 238.953336 242.701362 
L 241.404191 244.210337 
L 243.779636 245.412464 
L 246.07967 246.329954 
L 248.341998 246.994214 
L 250.566621 247.415929 
L 252.753538 247.60608 
L 254.940455 247.573421 
L 257.127372 247.318007 
L 259.31429 246.840248 
L 261.538912 246.126924 
L 263.801241 245.167607 
L 266.13898 243.930284 
L 268.514425 242.419209 
L 270.96528 240.595102 
L 273.491547 238.437052 
L 276.13093 235.886229 
L 278.883429 232.910302 
L 281.749045 229.4779 
L 284.727777 225.559193 
L 287.857331 221.070242 
L 291.175412 215.912119 
L 294.644316 210.102804 
L 298.339452 203.474779 
L 302.298526 195.907911 
L 306.59695 187.199554 
L 311.310134 177.134943 
L 316.66431 165.15983 
L 323.187357 149.997146 
L 335.818689 119.906495 
L 343.359784 102.295227 
L 348.676255 90.42295 
L 353.1255 81.013745 
L 357.009164 73.305132 
L 360.478067 66.897347 
L 363.645327 61.501235 
L 366.548648 56.98369 
L 369.225736 53.219897 
L 371.714297 50.097932 
L 374.014331 47.560488 
L 376.163543 45.512325 
L 378.161933 43.904799 
L 380.047206 42.664855 
L 381.819364 41.756225 
L 383.51611 41.130091 
L 385.137445 40.763922 
L 386.721075 40.633809 
L 388.266999 40.73167 
L 389.775218 41.048755 
L 391.283437 41.592089 
L 392.829361 42.391552 
L 394.375285 43.444543 
L 395.958915 44.794609 
L 397.58025 46.470541 
L 399.276996 48.553023 
L 401.011448 51.040566 
L 402.821311 54.035919 
L 404.668879 57.528858 
L 406.591858 61.647266 
L 408.590248 66.467128 
L 410.664049 72.071208 
L 412.775555 78.42988 
L 414.962472 85.734786 
L 417.2248 94.0894 
L 419.524834 103.445193 
L 421.900279 114.053319 
L 424.351134 126.042255 
L 426.839695 139.340589 
L 429.403667 154.27136 
L 432.04305 170.993052 
L 434.720139 189.406654 
L 437.472638 209.921586 
L 440.262843 232.416161 
L 442.035 247.62 
L 442.035 247.62 
" style="fill:none;stroke:#2ca02c;stroke-linecap:square;stroke-width:1.5;"/>
   </g>
   <g id="line2d_18">
    <path clip-path="url(#p9fe75275d7)" d="M 65.018 247.62 
L 67.959027 230.920011 
L 70.824642 215.909281 
L 73.652553 202.270875 
L 76.405052 190.075214 
L 79.082141 179.196806 
L 81.721523 169.3854 
L 84.285495 160.690826 
L 86.811762 152.900339 
L 89.262618 146.051317 
L 91.638062 140.05457 
L 93.975801 134.746733 
L 96.23813 130.150205 
L 98.462752 126.129172 
L 100.611964 122.69699 
L 102.685765 119.791419 
L 104.72186 117.312684 
L 106.72025 115.227111 
L 108.643229 113.533249 
L 110.528503 112.159835 
L 112.413776 111.060482 
L 114.261345 110.239247 
L 116.108913 109.662085 
L 117.956481 109.319712 
L 119.804049 109.20297 
L 121.689322 109.307053 
L 123.612301 109.635737 
L 125.610691 110.204868 
L 127.684492 111.02913 
L 129.871409 112.143041 
L 132.171443 113.570608 
L 134.584593 115.333517 
L 137.148565 117.484312 
L 139.901065 120.088121 
L 142.879797 123.221083 
L 146.084762 126.922656 
L 149.59137 131.321234 
L 153.475034 136.561027 
L 157.848868 142.848862 
L 162.939107 150.57116 
L 169.349037 160.722379 
L 193.593655 199.53032 
L 199.023242 207.565368 
L 203.849543 214.318122 
L 208.261083 220.11438 
L 212.370979 225.15153 
L 216.216937 229.519149 
L 219.874368 233.340067 
L 223.343271 236.647311 
L 226.661352 239.508892 
L 229.866317 241.982088 
L 232.958166 244.088755 
L 235.936898 245.852395 
L 238.840219 247.315018 
L 241.66813 248.492296 
L 244.420629 249.40068 
L 247.135423 250.064827 
L 249.812511 250.492711 
L 252.4896 250.694105 
L 255.128982 250.67046 
L 257.768365 250.426242 
L 260.445454 249.953803 
L 263.122542 249.256172 
L 265.837336 248.320477 
L 268.627541 247.121737 
L 271.493157 245.643775 
L 274.434183 243.87116 
L 277.450621 241.789437 
L 280.580175 239.354414 
L 283.822846 236.544485 
L 287.178632 233.340067 
L 290.722947 229.642286 
L 294.418083 225.462263 
L 298.339452 220.686717 
L 302.524759 215.234467 
L 307.049415 208.969023 
L 312.064243 201.63425 
L 317.795475 192.842779 
L 324.959514 181.421871 
L 345.358174 148.649895 
L 350.599234 140.803781 
L 355.010774 134.586674 
L 358.932143 129.435291 
L 362.476457 125.14038 
L 365.681422 121.595712 
L 368.660154 118.625032 
L 371.412654 116.185649 
L 373.976626 114.200822 
L 376.389776 112.605649 
L 378.689809 111.348573 
L 380.839021 110.42063 
L 382.912822 109.76397 
L 384.911212 109.364536 
L 386.834191 109.20685 
L 388.719465 109.277859 
L 390.567033 109.573445 
L 392.376895 110.088766 
L 394.186758 110.836289 
L 395.99662 111.824829 
L 397.844189 113.09184 
L 399.729462 114.663194 
L 401.614736 116.526135 
L 403.57542 118.784186 
L 405.57381 121.434256 
L 407.609905 124.509459 
L 409.721412 128.113102 
L 411.870624 132.230418 
L 414.095246 136.987237 
L 416.357575 142.360178 
L 418.695314 148.500565 
L 421.070758 155.375245 
L 423.521614 163.164323 
L 426.010175 171.82358 
L 428.574147 181.56555 
L 431.175824 192.333497 
L 433.852913 204.376414 
L 436.567707 217.623434 
L 439.357912 232.364451 
L 442.035 247.62 
L 442.035 247.62 
" style="fill:none;stroke:#d62728;stroke-linecap:square;stroke-width:1.5;"/>
   </g>
   <g id="line2d_19">
    <path clip-path="url(#p9fe75275d7)" d="M 65.018 247.62 
L 66.60163 255.909047 
L 68.147554 262.843768 
L 69.618067 268.440949 
L 71.01317 272.901915 
L 72.332861 276.403111 
L 73.577142 279.098924 
L 74.746011 281.124197 
L 75.83947 282.596477 
L 76.857518 283.618005 
L 77.83786 284.298325 
L 78.780497 284.684572 
L 79.685428 284.819352 
L 80.590359 284.733262 
L 81.532996 284.419458 
L 82.551044 283.83619 
L 83.644502 282.942115 
L 84.851078 281.653025 
L 86.170769 279.903975 
L 87.641282 277.56966 
L 89.262618 274.566614 
L 91.110186 270.652619 
L 93.183986 265.712424 
L 95.559431 259.450603 
L 98.31193 251.543486 
L 101.705423 241.080882 
L 106.456312 225.638327 
L 116.863022 191.635827 
L 120.897507 179.331435 
L 124.366411 169.449909 
L 127.458259 161.293534 
L 130.323875 154.347336 
L 133.000963 148.433429 
L 135.489524 143.461501 
L 137.827264 139.269388 
L 140.051886 135.72143 
L 142.163393 132.758445 
L 144.199488 130.277902 
L 146.122467 128.275943 
L 147.970035 126.664036 
L 149.742192 125.403463 
L 151.476644 124.438313 
L 153.17339 123.748498 
L 154.832431 123.313997 
L 156.453766 123.115017 
L 158.075101 123.135044 
L 159.734142 123.377547 
L 161.430888 123.852334 
L 163.16534 124.568288 
L 164.975202 125.55628 
L 166.898181 126.866024 
L 168.896571 128.499322 
L 171.045783 130.550666 
L 173.345817 133.065333 
L 175.796672 136.084021 
L 178.436055 139.694996 
L 181.339377 144.056467 
L 184.544342 149.287329 
L 188.164067 155.637808 
L 192.424785 163.584555 
L 197.967489 174.4295 
L 213.011972 204.11499 
L 217.461217 212.26098 
L 221.307175 218.850146 
L 224.738373 224.298644 
L 227.867927 228.863843 
L 230.771249 232.718455 
L 233.486042 235.965495 
L 236.050014 238.695902 
L 238.50087 240.985943 
L 240.838609 242.867892 
L 243.063232 244.376428 
L 245.212444 245.56623 
L 247.286245 246.460543 
L 249.284635 247.083457 
L 251.245319 247.464689 
L 253.168298 247.616169 
L 255.091277 247.546908 
L 257.014256 247.257122 
L 258.97494 246.735541 
L 260.97333 245.970747 
L 263.009426 244.952078 
L 265.120932 243.644223 
L 267.307849 242.02499 
L 269.607883 240.03862 
L 272.021033 237.651942 
L 274.5473 234.834202 
L 277.224388 231.509001 
L 280.090004 227.585951 
L 283.144147 223.021984 
L 286.499934 217.595885 
L 290.19507 211.186532 
L 294.418083 203.403225 
L 299.659143 193.250422 
L 318.134824 157.011223 
L 322.093898 149.992837 
L 325.525096 144.352671 
L 328.579239 139.74912 
L 331.369444 135.937377 
L 333.933416 132.803938 
L 336.308861 130.244938 
L 338.533483 128.170503 
L 340.607284 126.534305 
L 342.567969 125.264877 
L 344.415537 124.326119 
L 346.187694 123.668959 
L 347.88444 123.269963 
L 349.543481 123.103456 
L 351.164816 123.15934 
L 352.786151 123.435688 
L 354.407486 123.936342 
L 356.066527 124.68429 
L 357.763273 125.69884 
L 359.497725 126.999374 
L 361.307588 128.642388 
L 363.192861 130.665566 
L 365.153546 133.107121 
L 367.189641 136.005217 
L 369.338853 139.461366 
L 371.601181 143.532953 
L 373.976626 148.27521 
L 376.502892 153.825573 
L 379.217686 160.344672 
L 382.121007 167.90948 
L 385.288267 176.794594 
L 388.870287 187.527472 
L 393.16871 201.149734 
L 400.068811 223.89281 
L 406.026276 243.223264 
L 409.57059 253.990168 
L 412.3985 261.904646 
L 414.81165 268.024414 
L 416.923157 272.790984 
L 418.770725 276.433792 
L 420.429765 279.227429 
L 421.900279 281.28356 
L 423.21997 282.761113 
L 424.38884 283.756288 
L 425.482298 284.402302 
L 426.462641 284.733262 
L 427.405277 284.818215 
L 428.310209 284.674013 
L 429.21514 284.298325 
L 430.120071 283.680724 
L 431.062708 282.768659 
L 432.080756 281.461605 
L 433.136509 279.736353 
L 434.267673 277.449674 
L 435.474248 274.485662 
L 436.756234 270.711441 
L 438.075926 266.117211 
L 439.471028 260.434938 
L 440.941541 253.474915 
L 442.035 247.62 
L 442.035 247.62 
" style="fill:none;stroke:#9467bd;stroke-linecap:square;stroke-width:1.5;"/>
   </g>
   <g id="line2d_20">
    <path clip-path="url(#p9fe75275d7)" d="M 65.018 247.62 
L 66.677041 262.843174 
L 68.298376 275.722984 
L 69.8443 286.273954 
L 71.314814 294.834923 
L 72.709916 301.703265 
L 74.029607 307.139562 
L 75.273888 311.371781 
L 76.442758 314.599009 
L 77.536216 316.994769 
L 78.554264 318.709979 
L 79.496901 319.875569 
L 80.364127 320.604801 
L 81.155941 320.995313 
L 81.910051 321.132473 
L 82.66416 321.049322 
L 83.455975 320.73411 
L 84.323201 320.132134 
L 85.265838 319.187296 
L 86.321591 317.788333 
L 87.49046 315.844105 
L 88.772446 313.265921 
L 90.205254 309.874876 
L 91.82659 305.446972 
L 93.674158 299.718015 
L 95.747958 292.531665 
L 98.123403 283.472339 
L 100.951313 271.76749 
L 104.457922 256.250797 
L 109.736688 231.75706 
L 117.843364 194.225904 
L 121.915555 176.464908 
L 125.384458 162.304759 
L 128.476307 150.598054 
L 131.304217 140.742003 
L 133.905895 132.453083 
L 136.35675 125.366518 
L 138.656784 119.37843 
L 140.805996 114.378504 
L 142.842091 110.181969 
L 144.76507 106.706449 
L 146.612638 103.816011 
L 148.34709 101.503119 
L 150.006131 99.65278 
L 151.58976 98.214841 
L 153.097979 97.14106 
L 154.530787 96.38545 
L 155.925889 95.894394 
L 157.283286 95.645195 
L 158.640683 95.618042 
L 159.99808 95.8092 
L 161.393183 96.228872 
L 162.863696 96.910944 
L 164.371915 97.859879 
L 165.955545 99.120546 
L 167.652291 100.762184 
L 169.462153 102.832816 
L 171.385132 105.378834 
L 173.458933 108.504011 
L 175.683556 112.268418 
L 178.096706 116.800015 
L 180.736089 122.245004 
L 183.63941 128.762152 
L 186.882081 136.607663 
L 190.577217 146.149097 
L 195.064168 158.381279 
L 201.587214 176.887444 
L 211.352931 204.545559 
L 216.066115 217.19587 
L 219.987484 227.1029 
L 223.456387 235.276296 
L 226.585941 242.095806 
L 229.451557 247.825281 
L 232.128645 252.694489 
L 234.617207 256.774119 
L 236.954946 260.193936 
L 239.179568 263.061756 
L 241.253369 265.384508 
L 243.251759 267.294316 
L 245.137033 268.794414 
L 246.946895 269.95462 
L 248.681347 270.806101 
L 250.340388 271.380012 
L 251.961723 271.712296 
L 253.583058 271.81786 
L 255.204393 271.696464 
L 256.825729 271.348385 
L 258.484769 270.758386 
L 260.181516 269.911798 
L 261.915967 268.794414 
L 263.72583 267.359978 
L 265.611103 265.578568 
L 267.609493 263.376377 
L 269.721 260.706915 
L 271.945622 257.524904 
L 274.283362 253.787451 
L 276.771923 249.38557 
L 279.449011 244.190081 
L 282.352332 238.054418 
L 285.481886 230.909143 
L 288.95079 222.420493 
L 292.872159 212.220246 
L 297.585342 199.313679 
L 304.560854 179.481916 
L 313.383934 154.517115 
L 317.946296 142.284412 
L 321.679138 132.890313 
L 324.921808 125.311799 
L 327.82513 119.073968 
L 330.464513 113.915085 
L 332.877663 109.671071 
L 335.102286 106.193006 
L 337.176086 103.352373 
L 339.099065 101.084735 
L 340.908928 99.288273 
L 342.605674 97.913835 
L 344.189304 96.910944 
L 345.697523 96.214595 
L 347.130331 95.79292 
L 348.525433 95.611913 
L 349.88283 95.657431 
L 351.240227 95.925292 
L 352.597624 96.418843 
L 353.992726 97.164412 
L 355.425534 98.184492 
L 356.933753 99.539464 
L 358.517383 101.275058 
L 360.176423 103.439037 
L 361.910875 106.080806 
L 363.720738 109.250903 
L 365.643717 113.079964 
L 367.679812 117.647251 
L 369.829024 123.032288 
L 372.091352 129.312684 
L 374.504502 136.681642 
L 377.10618 145.366507 
L 379.896385 155.481361 
L 382.950528 167.419919 
L 386.34402 181.612785 
L 390.3408 199.332725 
L 395.883504 225.029304 
L 403.914769 262.1935 
L 407.459084 277.494696 
L 410.249288 288.604645 
L 412.624733 297.191117 
L 414.698534 303.880611 
L 416.508396 308.99796 
L 418.092026 312.84951 
L 419.524834 315.774771 
L 420.80682 317.899771 
L 421.937984 319.358194 
L 422.918326 320.285237 
L 423.823258 320.847449 
L 424.652778 321.102955 
L 425.406887 321.109963 
L 426.160997 320.893677 
L 426.915106 320.445465 
L 427.706921 319.715607 
L 428.574147 318.599438 
L 429.516784 316.994769 
L 430.497126 314.874249 
L 431.552879 312.051782 
L 432.684043 308.377774 
L 433.890618 303.680347 
L 435.172604 297.762463 
L 436.530001 290.398691 
L 437.962809 281.331585 
L 439.433323 270.563927 
L 440.979247 257.553339 
L 442.035 247.62 
L 442.035 247.62 
" style="fill:none;stroke:#8c564b;stroke-linecap:square;stroke-width:1.5;"/>
   </g>
   <g id="line2d_21">
    <path clip-path="url(#p9fe75275d7)" d="M 65.018 247.62 
L 66.526219 288.718055 
L 67.996732 322.967274 
L 69.42954 351.242971 
L 70.428895 368.2 
M 94.298409 368.2 
L 97.331588 341.511637 
L 102.798881 291.019651 
L 108.002236 243.794173 
L 111.47114 214.289336 
L 114.449872 190.785643 
L 117.164666 171.092739 
L 119.653227 154.623216 
L 121.990966 140.603403 
L 124.177883 128.797192 
L 126.251684 118.784714 
L 128.212369 110.378026 
L 130.059937 103.391307 
L 131.832094 97.529834 
L 133.52884 92.673553 
L 135.11247 88.792468 
L 136.620689 85.665557 
L 138.053496 83.194831 
L 139.410893 81.289794 
L 140.692879 79.867541 
L 141.899454 78.852659 
L 143.068324 78.158966 
L 144.161783 77.759332 
L 145.255241 77.592459 
L 146.3487 77.650138 
L 147.479864 77.937231 
L 148.648734 78.467049 
L 149.893014 79.279892 
L 151.250411 80.444747 
L 152.720924 82.015588 
L 154.304554 84.043155 
L 156.039006 86.633411 
L 157.961985 89.917027 
L 160.111197 94.045323 
L 162.524347 99.183032 
L 165.276846 105.587677 
L 168.519517 113.720917 
L 172.629413 124.671003 
L 179.529514 143.80881 
L 186.80667 163.770594 
L 191.406737 175.74292 
L 195.365812 185.444854 
L 198.985537 193.739515 
L 202.379029 200.968481 
L 205.583994 207.284223 
L 208.675843 212.894354 
L 211.654575 217.848155 
L 214.557896 222.253792 
L 217.385806 226.151082 
L 220.176011 229.625535 
L 222.928511 232.704091 
L 225.643305 235.414104 
L 228.358098 237.81389 
L 231.072892 239.917733 
L 233.787686 241.739883 
L 236.50248 243.294115 
L 239.217274 244.593322 
L 241.932068 245.649154 
L 244.684567 246.48153 
L 247.437067 247.082713 
L 250.189566 247.459173 
L 252.979771 247.615689 
L 255.769975 247.54736 
L 258.522475 247.258884 
L 261.274974 246.747624 
L 264.027474 246.008008 
L 266.742267 245.047253 
L 269.419356 243.865743 
L 272.096444 242.441132 
L 274.773533 240.761519 
L 277.412916 238.843373 
L 280.052299 236.651888 
L 282.729387 234.136357 
L 285.406475 231.312532 
L 288.121269 228.120883 
L 290.873769 224.535179 
L 293.663973 220.529875 
L 296.529589 216.018996 
L 299.470616 210.964801 
L 302.487054 205.332875 
L 305.616608 199.015457 
L 308.934689 191.805614 
L 312.441298 183.645238 
L 316.287256 174.116128 
L 320.66109 162.660406 
L 326.279205 147.273702 
L 337.402319 116.67572 
L 341.135161 107.150219 
L 344.189304 99.943506 
L 346.790981 94.351663 
L 349.091015 89.917027 
L 351.127111 86.453341 
L 352.974679 83.733126 
L 354.633719 81.66815 
L 356.141938 80.127183 
L 357.537041 79.007203 
L 358.819027 78.252562 
L 360.025602 77.795223 
L 361.156766 77.599568 
L 362.250224 77.633803 
L 363.343683 77.896003 
L 364.437142 78.394317 
L 365.568306 79.166774 
L 366.737175 80.248551 
L 367.94375 81.677198 
L 369.225736 83.553174 
L 370.583133 85.953704 
L 372.015941 88.963263 
L 373.52416 92.673553 
L 375.10779 97.183264 
L 376.76683 102.597539 
L 378.501282 109.027068 
L 380.34885 116.753478 
L 382.271829 125.765446 
L 384.307925 136.388204 
L 386.457136 148.798007 
L 388.75717 163.413109 
L 391.208026 180.448327 
L 393.885114 200.671398 
L 396.826141 224.633463 
L 400.257339 254.494918 
L 404.970522 297.67033 
L 411.606685 358.304137 
L 412.754591 368.2 
M 436.624105 368.2 
L 437.887398 346.393687 
L 439.20709 319.705574 
L 440.602192 286.810802 
L 442.035 247.62 
L 442.035 247.62 
" style="fill:none;stroke:#e377c2;stroke-linecap:square;stroke-width:1.5;"/>
   </g>
   <g id="line2d_22">
    <path clip-path="url(#p9fe75275d7)" d="M 65.018 247.62 
L 66.563924 263.338909 
L 68.034438 276.096937 
L 69.42954 286.360696 
L 70.786937 294.744851 
L 72.068923 301.309322 
L 73.275498 306.364864 
L 74.406662 310.178149 
L 75.462415 312.977655 
L 76.405052 314.893159 
L 77.272278 316.195067 
L 78.064093 317.017808 
L 78.818202 317.492056 
L 79.496901 317.672428 
L 80.175599 317.629446 
L 80.892003 317.352283 
L 81.646113 316.815138 
L 82.475633 315.948117 
L 83.41827 314.631389 
L 84.474023 312.764939 
L 85.680598 310.163068 
L 87.037995 306.690647 
L 88.583919 302.105635 
L 90.356076 296.126414 
L 92.392172 288.447629 
L 94.805322 278.441281 
L 97.784054 265.082508 
L 101.89395 245.532762 
L 112.413776 195.07112 
L 116.108913 178.673237 
L 119.313878 165.432669 
L 122.217199 154.357159 
L 124.894287 144.99437 
L 127.420554 136.952637 
L 129.795998 130.121292 
L 132.020621 124.380643 
L 134.132128 119.52705 
L 136.130517 115.469715 
L 138.053496 112.056951 
L 139.863359 109.282352 
L 141.597811 107.017229 
L 143.256851 105.206451 
L 144.840481 103.7974 
L 146.386405 102.717401 
L 147.856919 101.955652 
L 149.289727 101.457166 
L 150.722535 101.193734 
L 152.155342 101.15954 
L 153.58815 101.348459 
L 155.058664 101.767621 
L 156.604588 102.446486 
L 158.225923 103.411463 
L 159.922669 104.687642 
L 161.732532 106.335616 
L 163.655511 108.39434 
L 165.729312 110.949066 
L 167.953935 114.049407 
L 170.367085 117.800259 
L 173.006468 122.32146 
L 175.947494 127.81605 
L 179.22787 134.432199 
L 182.998417 142.555805 
L 187.560779 152.938784 
L 194.083826 168.397178 
L 205.320056 195.041169 
L 210.334883 206.313558 
L 214.557896 215.273903 
L 218.328443 222.762535 
L 221.759641 229.092846 
L 224.926901 234.481914 
L 227.905633 239.119869 
L 230.695838 243.06218 
L 233.335221 246.415713 
L 235.861487 249.269953 
L 238.236932 251.626541 
L 240.536965 253.598432 
L 242.723883 255.184893 
L 244.835389 256.445594 
L 246.871484 257.405963 
L 248.869874 258.102542 
L 250.792853 258.54124 
L 252.715832 258.751848 
L 254.601106 258.736467 
L 256.486379 258.501454 
L 258.409358 258.035973 
L 260.370043 257.327637 
L 262.368433 256.36445 
L 264.404528 255.13492 
L 266.516035 253.598432 
L 268.702952 251.730704 
L 271.002986 249.46869 
L 273.416136 246.77504 
L 275.942402 243.613757 
L 278.619491 239.896191 
L 281.447401 235.576396 
L 284.426133 230.613438 
L 287.631098 224.832663 
L 291.100001 218.105409 
L 294.908254 210.221226 
L 299.206678 200.793972 
L 304.372327 188.900313 
L 312.25277 170.114999 
L 320.66109 150.232803 
L 325.374274 139.657431 
L 329.182527 131.637721 
L 332.500608 125.153654 
L 335.441635 119.880019 
L 338.118723 115.52653 
L 340.531873 112.011325 
L 342.756496 109.147942 
L 344.830297 106.830971 
L 346.753276 105.007034 
L 348.563139 103.592383 
L 350.259885 102.545571 
L 351.843514 101.823235 
L 353.351733 101.372689 
L 354.822247 101.163976 
L 356.255055 101.186271 
L 357.650157 101.427897 
L 359.045259 101.891945 
L 360.478067 102.605387 
L 361.948581 103.5925 
L 363.456799 104.878434 
L 365.040429 106.532122 
L 366.661764 108.552381 
L 368.358511 111.025974 
L 370.130668 114.006222 
L 372.015941 117.625151 
L 373.976626 121.881136 
L 376.050427 126.92821 
L 378.237344 132.853515 
L 380.537378 139.742502 
L 382.988233 147.804914 
L 385.589911 157.144538 
L 388.417821 168.151781 
L 391.509669 181.110237 
L 395.016278 196.802331 
L 399.352407 217.290693 
L 411.116514 273.479117 
L 413.944424 285.569273 
L 416.282164 294.627452 
L 418.242848 301.383107 
L 419.939594 306.481949 
L 421.447813 310.339548 
L 422.767505 313.127286 
L 423.898669 315.034383 
L 424.916716 316.336798 
L 425.783942 317.114415 
L 426.575757 317.541148 
L 427.292161 317.681724 
L 427.970859 317.589358 
L 428.649558 317.267704 
L 429.365962 316.66848 
L 430.120071 315.73666 
L 430.949592 314.338209 
L 431.854523 312.344075 
L 432.834865 309.602428 
L 433.890618 305.935218 
L 434.984077 301.309322 
L 436.152947 295.375623 
L 437.397227 287.864785 
L 438.716919 278.4635 
L 440.074316 267.1471 
L 441.507123 253.26401 
L 442.035 247.62 
L 442.035 247.62 
" style="fill:none;stroke:#7f7f7f;stroke-linecap:square;stroke-width:1.5;"/>
   </g>
   <g id="patch_3">
    <path d="M 65.018 325.24 
L 65.018 14.76 
" style="fill:none;stroke:#000000;stroke-linecap:square;stroke-linejoin:miter;stroke-width:0.8;"/>
   </g>
   <g id="patch_4">
    <path d="M 442.035 325.24 
L 442.035 14.76 
" style="fill:none;stroke:#000000;stroke-linecap:square;stroke-linejoin:miter;stroke-width:0.8;"/>
   </g>
   <g id="patch_5">
    <path d="M 65.018 325.24 
L 442.035 325.24 
" style="fill:none;stroke:#000000;stroke-linecap:square;stroke-linejoin:miter;stroke-width:0.8;"/>
   </g>
   <g id="patch_6">
    <path d="M 65.018 14.76 
L 442.035 14.76 
" style="fill:none;stroke:#000000;stroke-linecap:square;stroke-linejoin:miter;stroke-width:0.8;"/>
   </g>
   <g id="legend_1">
    <g id="patch_7">
     <path d="M 332.767812 140.185 
L 435.035 140.185 
Q 437.035 140.185 437.035 138.185 
L 437.035 21.76 
Q 437.035 19.76 435.035 19.76 
L 332.767812 19.76 
Q 330.767812 19.76 330.767812 21.76 
L 330.767812 138.185 
Q 330.767812 140.185 332.767812 140.185 
z
" style="fill:#ffffff;opacity:0.8;stroke:#cccccc;stroke-linejoin:miter;"/>
    </g>
    <g id="line2d_23">
     <path d="M 334.767812 27.858438 
L 354.767812 27.858438 
" style="fill:none;stroke:#1f77b4;stroke-linecap:square;stroke-width:2;"/>
    </g>
    <g id="line2d_24"/>
    <g id="text_18">
     <!-- exact -->
     <g transform="translate(362.767812 31.358438)scale(0.1 -0.1)">
      <defs>
       <path d="M 56.203125 29.59375 
L 56.203125 25.203125 
L 14.890625 25.203125 
Q 15.484375 15.921875 20.484375 11.0625 
Q 25.484375 6.203125 34.421875 6.203125 
Q 39.59375 6.203125 44.453125 7.46875 
Q 49.3125 8.734375 54.109375 11.28125 
L 54.109375 2.78125 
Q 49.265625 0.734375 44.1875 -0.34375 
Q 39.109375 -1.421875 33.890625 -1.421875 
Q 20.796875 -1.421875 13.15625 6.1875 
Q 5.515625 13.8125 5.515625 26.8125 
Q 5.515625 40.234375 12.765625 48.109375 
Q 20.015625 56 32.328125 56 
Q 43.359375 56 49.78125 48.890625 
Q 56.203125 41.796875 56.203125 29.59375 
z
M 47.21875 32.234375 
Q 47.125 39.59375 43.09375 43.984375 
Q 39.0625 48.390625 32.421875 48.390625 
Q 24.90625 48.390625 20.390625 44.140625 
Q 15.875 39.890625 15.1875 32.171875 
z
" id="DejaVuSans-101"/>
       <path d="M 54.890625 54.6875 
L 35.109375 28.078125 
L 55.90625 0 
L 45.3125 0 
L 29.390625 21.484375 
L 13.484375 0 
L 2.875 0 
L 24.125 28.609375 
L 4.6875 54.6875 
L 15.28125 54.6875 
L 29.78125 35.203125 
L 44.28125 54.6875 
z
" id="DejaVuSans-120"/>
       <path d="M 48.78125 52.59375 
L 48.78125 44.1875 
Q 44.96875 46.296875 41.140625 47.34375 
Q 37.3125 48.390625 33.40625 48.390625 
Q 24.65625 48.390625 19.8125 42.84375 
Q 14.984375 37.3125 14.984375 27.296875 
Q 14.984375 17.28125 19.8125 11.734375 
Q 24.65625 6.203125 33.40625 6.203125 
Q 37.3125 6.203125 41.140625 7.25 
Q 44.96875 8.296875 48.78125 10.40625 
L 48.78125 2.09375 
Q 45.015625 0.34375 40.984375 -0.53125 
Q 36.96875 -1.421875 32.421875 -1.421875 
Q 20.0625 -1.421875 12.78125 6.34375 
Q 5.515625 14.109375 5.515625 27.296875 
Q 5.515625 40.671875 12.859375 48.328125 
Q 20.21875 56 33.015625 56 
Q 37.15625 56 41.109375 55.140625 
Q 45.0625 54.296875 48.78125 52.59375 
z
" id="DejaVuSans-99"/>
       <path d="M 18.3125 70.21875 
L 18.3125 54.6875 
L 36.8125 54.6875 
L 36.8125 47.703125 
L 18.3125 47.703125 
L 18.3125 18.015625 
Q 18.3125 11.328125 20.140625 9.421875 
Q 21.96875 7.515625 27.59375 7.515625 
L 36.8125 7.515625 
L 36.8125 0 
L 27.59375 0 
Q 17.1875 0 13.234375 3.875 
Q 9.28125 7.765625 9.28125 18.015625 
L 9.28125 47.703125 
L 2.6875 47.703125 
L 2.6875 54.6875 
L 9.28125 54.6875 
L 9.28125 70.21875 
z
" id="DejaVuSans-116"/>
      </defs>
      <use xlink:href="#DejaVuSans-101"/>
      <use x="59.773438" xlink:href="#DejaVuSans-120"/>
      <use x="118.953125" xlink:href="#DejaVuSans-97"/>
      <use x="180.232422" xlink:href="#DejaVuSans-99"/>
      <use x="235.212891" xlink:href="#DejaVuSans-116"/>
     </g>
    </g>
    <g id="line2d_25">
     <path d="M 334.767812 42.536563 
L 354.767812 42.536563 
" style="fill:none;stroke:#ff7f0e;stroke-linecap:square;stroke-width:1.5;"/>
    </g>
    <g id="line2d_26"/>
    <g id="text_19">
     <!-- Polynomial 4 -->
     <g transform="translate(362.767812 46.036563)scale(0.1 -0.1)">
      <defs>
       <path d="M 19.671875 64.796875 
L 19.671875 37.40625 
L 32.078125 37.40625 
Q 38.96875 37.40625 42.71875 40.96875 
Q 46.484375 44.53125 46.484375 51.125 
Q 46.484375 57.671875 42.71875 61.234375 
Q 38.96875 64.796875 32.078125 64.796875 
z
M 9.8125 72.90625 
L 32.078125 72.90625 
Q 44.34375 72.90625 50.609375 67.359375 
Q 56.890625 61.8125 56.890625 51.125 
Q 56.890625 40.328125 50.609375 34.8125 
Q 44.34375 29.296875 32.078125 29.296875 
L 19.671875 29.296875 
L 19.671875 0 
L 9.8125 0 
z
" id="DejaVuSans-80"/>
       <path d="M 30.609375 48.390625 
Q 23.390625 48.390625 19.1875 42.75 
Q 14.984375 37.109375 14.984375 27.296875 
Q 14.984375 17.484375 19.15625 11.84375 
Q 23.34375 6.203125 30.609375 6.203125 
Q 37.796875 6.203125 41.984375 11.859375 
Q 46.1875 17.53125 46.1875 27.296875 
Q 46.1875 37.015625 41.984375 42.703125 
Q 37.796875 48.390625 30.609375 48.390625 
z
M 30.609375 56 
Q 42.328125 56 49.015625 48.375 
Q 55.71875 40.765625 55.71875 27.296875 
Q 55.71875 13.875 49.015625 6.21875 
Q 42.328125 -1.421875 30.609375 -1.421875 
Q 18.84375 -1.421875 12.171875 6.21875 
Q 5.515625 13.875 5.515625 27.296875 
Q 5.515625 40.765625 12.171875 48.375 
Q 18.84375 56 30.609375 56 
z
" id="DejaVuSans-111"/>
       <path d="M 9.421875 75.984375 
L 18.40625 75.984375 
L 18.40625 0 
L 9.421875 0 
z
" id="DejaVuSans-108"/>
       <path d="M 32.171875 -5.078125 
Q 28.375 -14.84375 24.75 -17.8125 
Q 21.140625 -20.796875 15.09375 -20.796875 
L 7.90625 -20.796875 
L 7.90625 -13.28125 
L 13.1875 -13.28125 
Q 16.890625 -13.28125 18.9375 -11.515625 
Q 21 -9.765625 23.484375 -3.21875 
L 25.09375 0.875 
L 2.984375 54.6875 
L 12.5 54.6875 
L 29.59375 11.921875 
L 46.6875 54.6875 
L 56.203125 54.6875 
z
" id="DejaVuSans-121"/>
       <path d="M 52 44.1875 
Q 55.375 50.25 60.0625 53.125 
Q 64.75 56 71.09375 56 
Q 79.640625 56 84.28125 50.015625 
Q 88.921875 44.046875 88.921875 33.015625 
L 88.921875 0 
L 79.890625 0 
L 79.890625 32.71875 
Q 79.890625 40.578125 77.09375 44.375 
Q 74.3125 48.1875 68.609375 48.1875 
Q 61.625 48.1875 57.5625 43.546875 
Q 53.515625 38.921875 53.515625 30.90625 
L 53.515625 0 
L 44.484375 0 
L 44.484375 32.71875 
Q 44.484375 40.625 41.703125 44.40625 
Q 38.921875 48.1875 33.109375 48.1875 
Q 26.21875 48.1875 22.15625 43.53125 
Q 18.109375 38.875 18.109375 30.90625 
L 18.109375 0 
L 9.078125 0 
L 9.078125 54.6875 
L 18.109375 54.6875 
L 18.109375 46.1875 
Q 21.1875 51.21875 25.484375 53.609375 
Q 29.78125 56 35.6875 56 
Q 41.65625 56 45.828125 52.96875 
Q 50 49.953125 52 44.1875 
z
" id="DejaVuSans-109"/>
       <path d="M 9.421875 54.6875 
L 18.40625 54.6875 
L 18.40625 0 
L 9.421875 0 
z
M 9.421875 75.984375 
L 18.40625 75.984375 
L 18.40625 64.59375 
L 9.421875 64.59375 
z
" id="DejaVuSans-105"/>
      </defs>
      <use xlink:href="#DejaVuSans-80"/>
      <use x="56.677734" xlink:href="#DejaVuSans-111"/>
      <use x="117.859375" xlink:href="#DejaVuSans-108"/>
      <use x="145.642578" xlink:href="#DejaVuSans-121"/>
      <use x="204.822266" xlink:href="#DejaVuSans-110"/>
      <use x="268.201172" xlink:href="#DejaVuSans-111"/>
      <use x="329.382812" xlink:href="#DejaVuSans-109"/>
      <use x="426.794922" xlink:href="#DejaVuSans-105"/>
      <use x="454.578125" xlink:href="#DejaVuSans-97"/>
      <use x="515.857422" xlink:href="#DejaVuSans-108"/>
      <use x="543.640625" xlink:href="#DejaVuSans-32"/>
      <use x="575.427734" xlink:href="#DejaVuSans-52"/>
     </g>
    </g>
    <g id="line2d_27">
     <path d="M 334.767812 57.214688 
L 354.767812 57.214688 
" style="fill:none;stroke:#2ca02c;stroke-linecap:square;stroke-width:1.5;"/>
    </g>
    <g id="line2d_28"/>
    <g id="text_20">
     <!-- Polynomial 5 -->
     <g transform="translate(362.767812 60.714688)scale(0.1 -0.1)">
      <use xlink:href="#DejaVuSans-80"/>
      <use x="56.677734" xlink:href="#DejaVuSans-111"/>
      <use x="117.859375" xlink:href="#DejaVuSans-108"/>
      <use x="145.642578" xlink:href="#DejaVuSans-121"/>
      <use x="204.822266" xlink:href="#DejaVuSans-110"/>
      <use x="268.201172" xlink:href="#DejaVuSans-111"/>
      <use x="329.382812" xlink:href="#DejaVuSans-109"/>
      <use x="426.794922" xlink:href="#DejaVuSans-105"/>
      <use x="454.578125" xlink:href="#DejaVuSans-97"/>
      <use x="515.857422" xlink:href="#DejaVuSans-108"/>
      <use x="543.640625" xlink:href="#DejaVuSans-32"/>
      <use x="575.427734" xlink:href="#DejaVuSans-53"/>
     </g>
    </g>
    <g id="line2d_29">
     <path d="M 334.767812 71.892813 
L 354.767812 71.892813 
" style="fill:none;stroke:#d62728;stroke-linecap:square;stroke-width:1.5;"/>
    </g>
    <g id="line2d_30"/>
    <g id="text_21">
     <!-- Polynomial 6 -->
     <g transform="translate(362.767812 75.392813)scale(0.1 -0.1)">
      <use xlink:href="#DejaVuSans-80"/>
      <use x="56.677734" xlink:href="#DejaVuSans-111"/>
      <use x="117.859375" xlink:href="#DejaVuSans-108"/>
      <use x="145.642578" xlink:href="#DejaVuSans-121"/>
      <use x="204.822266" xlink:href="#DejaVuSans-110"/>
      <use x="268.201172" xlink:href="#DejaVuSans-111"/>
      <use x="329.382812" xlink:href="#DejaVuSans-109"/>
      <use x="426.794922" xlink:href="#DejaVuSans-105"/>
      <use x="454.578125" xlink:href="#DejaVuSans-97"/>
      <use x="515.857422" xlink:href="#DejaVuSans-108"/>
      <use x="543.640625" xlink:href="#DejaVuSans-32"/>
      <use x="575.427734" xlink:href="#DejaVuSans-54"/>
     </g>
    </g>
    <g id="line2d_31">
     <path d="M 334.767812 86.570938 
L 354.767812 86.570938 
" style="fill:none;stroke:#9467bd;stroke-linecap:square;stroke-width:1.5;"/>
    </g>
    <g id="line2d_32"/>
    <g id="text_22">
     <!-- Polynomial 7 -->
     <g transform="translate(362.767812 90.070938)scale(0.1 -0.1)">
      <use xlink:href="#DejaVuSans-80"/>
      <use x="56.677734" xlink:href="#DejaVuSans-111"/>
      <use x="117.859375" xlink:href="#DejaVuSans-108"/>
      <use x="145.642578" xlink:href="#DejaVuSans-121"/>
      <use x="204.822266" xlink:href="#DejaVuSans-110"/>
      <use x="268.201172" xlink:href="#DejaVuSans-111"/>
      <use x="329.382812" xlink:href="#DejaVuSans-109"/>
      <use x="426.794922" xlink:href="#DejaVuSans-105"/>
      <use x="454.578125" xlink:href="#DejaVuSans-97"/>
      <use x="515.857422" xlink:href="#DejaVuSans-108"/>
      <use x="543.640625" xlink:href="#DejaVuSans-32"/>
      <use x="575.427734" xlink:href="#DejaVuSans-55"/>
     </g>
    </g>
    <g id="line2d_33">
     <path d="M 334.767812 101.249063 
L 354.767812 101.249063 
" style="fill:none;stroke:#8c564b;stroke-linecap:square;stroke-width:1.5;"/>
    </g>
    <g id="line2d_34"/>
    <g id="text_23">
     <!-- Polynomial 8 -->
     <g transform="translate(362.767812 104.749063)scale(0.1 -0.1)">
      <use xlink:href="#DejaVuSans-80"/>
      <use x="56.677734" xlink:href="#DejaVuSans-111"/>
      <use x="117.859375" xlink:href="#DejaVuSans-108"/>
      <use x="145.642578" xlink:href="#DejaVuSans-121"/>
      <use x="204.822266" xlink:href="#DejaVuSans-110"/>
      <use x="268.201172" xlink:href="#DejaVuSans-111"/>
      <use x="329.382812" xlink:href="#DejaVuSans-109"/>
      <use x="426.794922" xlink:href="#DejaVuSans-105"/>
      <use x="454.578125" xlink:href="#DejaVuSans-97"/>
      <use x="515.857422" xlink:href="#DejaVuSans-108"/>
      <use x="543.640625" xlink:href="#DejaVuSans-32"/>
      <use x="575.427734" xlink:href="#DejaVuSans-56"/>
     </g>
    </g>
    <g id="line2d_35">
     <path d="M 334.767812 115.927188 
L 354.767812 115.927188 
" style="fill:none;stroke:#e377c2;stroke-linecap:square;stroke-width:1.5;"/>
    </g>
    <g id="line2d_36"/>
    <g id="text_24">
     <!-- Polynomial 9 -->
     <g transform="translate(362.767812 119.427188)scale(0.1 -0.1)">
      <defs>
       <path d="M 10.984375 1.515625 
L 10.984375 10.5 
Q 14.703125 8.734375 18.5 7.8125 
Q 22.3125 6.890625 25.984375 6.890625 
Q 35.75 6.890625 40.890625 13.453125 
Q 46.046875 20.015625 46.78125 33.40625 
Q 43.953125 29.203125 39.59375 26.953125 
Q 35.25 24.703125 29.984375 24.703125 
Q 19.046875 24.703125 12.671875 31.3125 
Q 6.296875 37.9375 6.296875 49.421875 
Q 6.296875 60.640625 12.9375 67.421875 
Q 19.578125 74.21875 30.609375 74.21875 
Q 43.265625 74.21875 49.921875 64.515625 
Q 56.59375 54.828125 56.59375 36.375 
Q 56.59375 19.140625 48.40625 8.859375 
Q 40.234375 -1.421875 26.421875 -1.421875 
Q 22.703125 -1.421875 18.890625 -0.6875 
Q 15.09375 0.046875 10.984375 1.515625 
z
M 30.609375 32.421875 
Q 37.25 32.421875 41.125 36.953125 
Q 45.015625 41.5 45.015625 49.421875 
Q 45.015625 57.28125 41.125 61.84375 
Q 37.25 66.40625 30.609375 66.40625 
Q 23.96875 66.40625 20.09375 61.84375 
Q 16.21875 57.28125 16.21875 49.421875 
Q 16.21875 41.5 20.09375 36.953125 
Q 23.96875 32.421875 30.609375 32.421875 
z
" id="DejaVuSans-57"/>
      </defs>
      <use xlink:href="#DejaVuSans-80"/>
      <use x="56.677734" xlink:href="#DejaVuSans-111"/>
      <use x="117.859375" xlink:href="#DejaVuSans-108"/>
      <use x="145.642578" xlink:href="#DejaVuSans-121"/>
      <use x="204.822266" xlink:href="#DejaVuSans-110"/>
      <use x="268.201172" xlink:href="#DejaVuSans-111"/>
      <use x="329.382812" xlink:href="#DejaVuSans-109"/>
      <use x="426.794922" xlink:href="#DejaVuSans-105"/>
      <use x="454.578125" xlink:href="#DejaVuSans-97"/>
      <use x="515.857422" xlink:href="#DejaVuSans-108"/>
      <use x="543.640625" xlink:href="#DejaVuSans-32"/>
      <use x="575.427734" xlink:href="#DejaVuSans-57"/>
     </g>
    </g>
    <g id="line2d_37">
     <path d="M 334.767812 130.605313 
L 354.767812 130.605313 
" style="fill:none;stroke:#7f7f7f;stroke-linecap:square;stroke-width:1.5;"/>
    </g>
    <g id="line2d_38"/>
    <g id="text_25">
     <!-- Polynomial 10 -->
     <g transform="translate(362.767812 134.105313)scale(0.1 -0.1)">
      <use xlink:href="#DejaVuSans-80"/>
      <use x="56.677734" xlink:href="#DejaVuSans-111"/>
      <use x="117.859375" xlink:href="#DejaVuSans-108"/>
      <use x="145.642578" xlink:href="#DejaVuSans-121"/>
      <use x="204.822266" xlink:href="#DejaVuSans-110"/>
      <use x="268.201172" xlink:href="#DejaVuSans-111"/>
      <use x="329.382812" xlink:href="#DejaVuSans-109"/>
      <use x="426.794922" xlink:href="#DejaVuSans-105"/>
      <use x="454.578125" xlink:href="#DejaVuSans-97"/>
      <use x="515.857422" xlink:href="#DejaVuSans-108"/>
      <use x="543.640625" xlink:href="#DejaVuSans-32"/>
      <use x="575.427734" xlink:href="#DejaVuSans-49"/>
      <use x="639.050781" xlink:href="#DejaVuSans-48"/>
     </g>
    </g>
   </g>
   <g id="line2d_39">
    <path clip-path="url(#p9fe75275d7)" d="M 65.018 247.62 
L 74.859128 247.509678 
L 78.516558 247.235628 
L 81.382174 246.802913 
L 83.870735 246.203877 
L 86.095358 245.443936 
L 88.206864 244.48715 
L 90.205254 243.337619 
L 92.165939 241.950416 
L 94.088918 240.315082 
L 96.011897 238.384978 
L 97.972581 236.092968 
L 99.970971 233.40203 
L 102.007067 230.277044 
L 104.118573 226.61696 
L 106.30549 222.370981 
L 108.605524 217.408577 
L 111.05638 211.57505 
L 113.695762 204.696465 
L 116.561378 196.590827 
L 119.841754 186.616726 
L 123.87624 173.589932 
L 137.223976 129.861664 
L 140.202708 121.216531 
L 142.76668 114.44113 
L 145.029009 109.073247 
L 147.065104 104.794938 
L 148.912672 101.407761 
L 150.609418 98.739952 
L 152.193048 96.651745 
L 153.663561 95.07298 
L 155.020958 93.932019 
L 156.302944 93.138744 
L 157.509519 92.647751 
L 158.678389 92.410409 
L 159.809553 92.404893 
L 160.940717 92.619898 
L 162.109587 93.072922 
L 163.316162 93.784854 
L 164.598148 94.810003 
L 165.955545 96.192107 
L 167.388353 97.974353 
L 168.934277 100.258314 
L 170.631023 103.178983 
L 172.478591 106.825668 
L 174.476981 111.279394 
L 176.701604 116.802948 
L 179.190165 123.601505 
L 182.055781 132.102518 
L 185.600095 143.357597 
L 191.142799 161.818038 
L 197.590434 183.095266 
L 201.285571 194.527104 
L 204.415125 203.510665 
L 207.205329 210.866879 
L 209.769301 217.022613 
L 212.182452 222.255032 
L 214.482485 226.720619 
L 216.669403 230.491539 
L 218.780909 233.698394 
L 220.817004 236.397996 
L 222.815394 238.688105 
L 224.813784 240.641402 
L 226.774469 242.252521 
L 228.772859 243.608746 
L 230.808954 244.722494 
L 232.92046 245.62484 
L 235.182789 246.346248 
L 237.633644 246.890999 
L 240.423849 247.278108 
L 243.817341 247.515427 
L 248.719053 247.613631 
L 261.576618 247.570309 
L 265.799631 247.355777 
L 268.891479 246.981176 
L 271.493157 246.444797 
L 273.79319 245.748219 
L 275.942402 244.866349 
L 277.978498 243.790092 
L 279.939182 242.502434 
L 281.862161 240.973992 
L 283.78514 239.159094 
L 285.708119 237.036815 
L 287.668804 234.537838 
L 289.667194 231.626902 
L 291.740994 228.205339 
L 293.890206 224.221067 
L 296.152534 219.544393 
L 298.527979 214.110288 
L 301.054246 207.766643 
L 303.806745 200.240303 
L 306.898594 191.112337 
L 310.518319 179.699172 
L 315.608557 162.83139 
L 323.149651 137.886422 
L 326.618555 127.213622 
L 329.446465 119.204605 
L 331.897321 112.904339 
L 334.084238 107.87074 
L 336.082628 103.813206 
L 337.89249 100.623143 
L 339.551531 98.128922 
L 341.097455 96.192107 
L 342.530263 94.742112 
L 343.849955 93.707637 
L 345.094235 93.001333 
L 346.30081 92.568773 
L 347.46968 92.388344 
L 348.600844 92.437987 
L 349.732008 92.708034 
L 350.900878 93.217602 
L 352.107453 93.987327 
L 353.389439 95.07298 
L 354.746836 96.517841 
L 356.217349 98.4175 
L 357.800979 100.839503 
L 359.497725 103.848919 
L 361.345293 107.586271 
L 363.381388 112.220633 
L 365.643717 117.943187 
L 368.207689 125.063406 
L 371.186421 134.027045 
L 374.919262 146.013912 
L 382.498062 171.341687 
L 387.248951 186.734987 
L 390.75556 197.362913 
L 393.771998 205.816408 
L 396.486792 212.785629 
L 399.013058 218.675543 
L 401.388503 223.663481 
L 403.650831 227.907067 
L 405.800043 231.480306 
L 407.873844 234.512114 
L 409.909939 237.103799 
L 411.908329 239.293246 
L 413.869014 241.120052 
L 415.829698 242.651114 
L 417.828088 243.933127 
L 419.864183 244.97943 
L 422.013395 245.833844 
L 424.313429 246.505808 
L 426.839695 247.00834 
L 429.743017 247.354172 
L 433.400447 247.554349 
L 439.244795 247.619275 
L 442.035 247.62 
L 442.035 247.62 
" style="fill:none;stroke:#1f77b4;stroke-linecap:square;stroke-width:2;"/>
   </g>
  </g>
 </g>
 <defs>
  <clipPath id="p9fe75275d7">
   <rect height="310.48" width="377.017" x="65.018" y="14.76"/>
  </clipPath>
 </defs>
</svg>
