<?xml version="1.0" encoding="utf-8" standalone="no"?>
<!DOCTYPE svg PUBLIC "-//W3C//DTD SVG 1.1//EN"
  "http://www.w3.org/Graphics/SVG/1.1/DTD/svg11.dtd">
<!-- Created with matplotlib (https://matplotlib.org/) -->
<svg height="367.2pt" version="1.1" viewBox="0 0 460.8 367.2" width="460.8pt" xmlns="http://www.w3.org/2000/svg" xmlns:xlink="http://www.w3.org/1999/xlink">
 <metadata>
  <rdf:RDF xmlns:cc="http://creativecommons.org/ns#" xmlns:dc="http://purl.org/dc/elements/1.1/" xmlns:rdf="http://www.w3.org/1999/02/22-rdf-syntax-ns#">
   <cc:Work>
    <dc:type rdf:resource="http://purl.org/dc/dcmitype/StillImage"/>
    <dc:date>2021-02-15T15:20:13.236270</dc:date>
    <dc:format>image/svg+xml</dc:format>
    <dc:creator>
     <cc:Agent>
      <dc:title>Matplotlib v3.3.2, https://matplotlib.org/</dc:title>
     </cc:Agent>
    </dc:creator>
   </cc:Work>
  </rdf:RDF>
 </metadata>
 <defs>
  <style type="text/css">*{stroke-linecap:butt;stroke-linejoin:round;}</style>
 </defs>
 <g id="figure_1">
  <g id="patch_1">
   <path d="M 0 367.2 
L 460.8 367.2 
L 460.8 0 
L 0 0 
z
" style="fill:#ffffff;"/>
  </g>
  <g id="axes_1">
   <g id="patch_2">
    <path d="M 65.018 325.24 
L 442.035 325.24 
L 442.035 14.76 
L 65.018 14.76 
z
" style="fill:#ffffff;"/>
   </g>
   <g id="matplotlib.axis_1">
    <g id="xtick_1">
     <g id="line2d_1">
      <defs>
       <path d="M 0 0 
L 0 3.5 
" id="m92f4b40b50" style="stroke:#000000;stroke-width:0.8;"/>
      </defs>
      <g>
       <use style="stroke:#000000;stroke-width:0.8;" x="65.018" xlink:href="#m92f4b40b50" y="325.24"/>
      </g>
     </g>
     <g id="text_1">
      <!-- 0.0 -->
      <g transform="translate(57.066438 339.838437)scale(0.1 -0.1)">
       <defs>
        <path d="M 31.78125 66.40625 
Q 24.171875 66.40625 20.328125 58.90625 
Q 16.5 51.421875 16.5 36.375 
Q 16.5 21.390625 20.328125 13.890625 
Q 24.171875 6.390625 31.78125 6.390625 
Q 39.453125 6.390625 43.28125 13.890625 
Q 47.125 21.390625 47.125 36.375 
Q 47.125 51.421875 43.28125 58.90625 
Q 39.453125 66.40625 31.78125 66.40625 
z
M 31.78125 74.21875 
Q 44.046875 74.21875 50.515625 64.515625 
Q 56.984375 54.828125 56.984375 36.375 
Q 56.984375 17.96875 50.515625 8.265625 
Q 44.046875 -1.421875 31.78125 -1.421875 
Q 19.53125 -1.421875 13.0625 8.265625 
Q 6.59375 17.96875 6.59375 36.375 
Q 6.59375 54.828125 13.0625 64.515625 
Q 19.53125 74.21875 31.78125 74.21875 
z
" id="DejaVuSans-48"/>
        <path d="M 10.6875 12.40625 
L 21 12.40625 
L 21 0 
L 10.6875 0 
z
" id="DejaVuSans-46"/>
       </defs>
       <use xlink:href="#DejaVuSans-48"/>
       <use x="63.623047" xlink:href="#DejaVuSans-46"/>
       <use x="95.410156" xlink:href="#DejaVuSans-48"/>
      </g>
     </g>
    </g>
    <g id="xtick_2">
     <g id="line2d_2">
      <g>
       <use style="stroke:#000000;stroke-width:0.8;" x="140.4214" xlink:href="#m92f4b40b50" y="325.24"/>
      </g>
     </g>
     <g id="text_2">
      <!-- 0.2 -->
      <g transform="translate(132.469838 339.838437)scale(0.1 -0.1)">
       <defs>
        <path d="M 19.1875 8.296875 
L 53.609375 8.296875 
L 53.609375 0 
L 7.328125 0 
L 7.328125 8.296875 
Q 12.9375 14.109375 22.625 23.890625 
Q 32.328125 33.6875 34.8125 36.53125 
Q 39.546875 41.84375 41.421875 45.53125 
Q 43.3125 49.21875 43.3125 52.78125 
Q 43.3125 58.59375 39.234375 62.25 
Q 35.15625 65.921875 28.609375 65.921875 
Q 23.96875 65.921875 18.8125 64.3125 
Q 13.671875 62.703125 7.8125 59.421875 
L 7.8125 69.390625 
Q 13.765625 71.78125 18.9375 73 
Q 24.125 74.21875 28.421875 74.21875 
Q 39.75 74.21875 46.484375 68.546875 
Q 53.21875 62.890625 53.21875 53.421875 
Q 53.21875 48.921875 51.53125 44.890625 
Q 49.859375 40.875 45.40625 35.40625 
Q 44.1875 33.984375 37.640625 27.21875 
Q 31.109375 20.453125 19.1875 8.296875 
z
" id="DejaVuSans-50"/>
       </defs>
       <use xlink:href="#DejaVuSans-48"/>
       <use x="63.623047" xlink:href="#DejaVuSans-46"/>
       <use x="95.410156" xlink:href="#DejaVuSans-50"/>
      </g>
     </g>
    </g>
    <g id="xtick_3">
     <g id="line2d_3">
      <g>
       <use style="stroke:#000000;stroke-width:0.8;" x="215.8248" xlink:href="#m92f4b40b50" y="325.24"/>
      </g>
     </g>
     <g id="text_3">
      <!-- 0.4 -->
      <g transform="translate(207.873237 339.838437)scale(0.1 -0.1)">
       <defs>
        <path d="M 37.796875 64.3125 
L 12.890625 25.390625 
L 37.796875 25.390625 
z
M 35.203125 72.90625 
L 47.609375 72.90625 
L 47.609375 25.390625 
L 58.015625 25.390625 
L 58.015625 17.1875 
L 47.609375 17.1875 
L 47.609375 0 
L 37.796875 0 
L 37.796875 17.1875 
L 4.890625 17.1875 
L 4.890625 26.703125 
z
" id="DejaVuSans-52"/>
       </defs>
       <use xlink:href="#DejaVuSans-48"/>
       <use x="63.623047" xlink:href="#DejaVuSans-46"/>
       <use x="95.410156" xlink:href="#DejaVuSans-52"/>
      </g>
     </g>
    </g>
    <g id="xtick_4">
     <g id="line2d_4">
      <g>
       <use style="stroke:#000000;stroke-width:0.8;" x="291.2282" xlink:href="#m92f4b40b50" y="325.24"/>
      </g>
     </g>
     <g id="text_4">
      <!-- 0.6 -->
      <g transform="translate(283.276637 339.838437)scale(0.1 -0.1)">
       <defs>
        <path d="M 33.015625 40.375 
Q 26.375 40.375 22.484375 35.828125 
Q 18.609375 31.296875 18.609375 23.390625 
Q 18.609375 15.53125 22.484375 10.953125 
Q 26.375 6.390625 33.015625 6.390625 
Q 39.65625 6.390625 43.53125 10.953125 
Q 47.40625 15.53125 47.40625 23.390625 
Q 47.40625 31.296875 43.53125 35.828125 
Q 39.65625 40.375 33.015625 40.375 
z
M 52.59375 71.296875 
L 52.59375 62.3125 
Q 48.875 64.0625 45.09375 64.984375 
Q 41.3125 65.921875 37.59375 65.921875 
Q 27.828125 65.921875 22.671875 59.328125 
Q 17.53125 52.734375 16.796875 39.40625 
Q 19.671875 43.65625 24.015625 45.921875 
Q 28.375 48.1875 33.59375 48.1875 
Q 44.578125 48.1875 50.953125 41.515625 
Q 57.328125 34.859375 57.328125 23.390625 
Q 57.328125 12.15625 50.6875 5.359375 
Q 44.046875 -1.421875 33.015625 -1.421875 
Q 20.359375 -1.421875 13.671875 8.265625 
Q 6.984375 17.96875 6.984375 36.375 
Q 6.984375 53.65625 15.1875 63.9375 
Q 23.390625 74.21875 37.203125 74.21875 
Q 40.921875 74.21875 44.703125 73.484375 
Q 48.484375 72.75 52.59375 71.296875 
z
" id="DejaVuSans-54"/>
       </defs>
       <use xlink:href="#DejaVuSans-48"/>
       <use x="63.623047" xlink:href="#DejaVuSans-46"/>
       <use x="95.410156" xlink:href="#DejaVuSans-54"/>
      </g>
     </g>
    </g>
    <g id="xtick_5">
     <g id="line2d_5">
      <g>
       <use style="stroke:#000000;stroke-width:0.8;" x="366.6316" xlink:href="#m92f4b40b50" y="325.24"/>
      </g>
     </g>
     <g id="text_5">
      <!-- 0.8 -->
      <g transform="translate(358.680037 339.838437)scale(0.1 -0.1)">
       <defs>
        <path d="M 31.78125 34.625 
Q 24.75 34.625 20.71875 30.859375 
Q 16.703125 27.09375 16.703125 20.515625 
Q 16.703125 13.921875 20.71875 10.15625 
Q 24.75 6.390625 31.78125 6.390625 
Q 38.8125 6.390625 42.859375 10.171875 
Q 46.921875 13.96875 46.921875 20.515625 
Q 46.921875 27.09375 42.890625 30.859375 
Q 38.875 34.625 31.78125 34.625 
z
M 21.921875 38.8125 
Q 15.578125 40.375 12.03125 44.71875 
Q 8.5 49.078125 8.5 55.328125 
Q 8.5 64.0625 14.71875 69.140625 
Q 20.953125 74.21875 31.78125 74.21875 
Q 42.671875 74.21875 48.875 69.140625 
Q 55.078125 64.0625 55.078125 55.328125 
Q 55.078125 49.078125 51.53125 44.71875 
Q 48 40.375 41.703125 38.8125 
Q 48.828125 37.15625 52.796875 32.3125 
Q 56.78125 27.484375 56.78125 20.515625 
Q 56.78125 9.90625 50.3125 4.234375 
Q 43.84375 -1.421875 31.78125 -1.421875 
Q 19.734375 -1.421875 13.25 4.234375 
Q 6.78125 9.90625 6.78125 20.515625 
Q 6.78125 27.484375 10.78125 32.3125 
Q 14.796875 37.15625 21.921875 38.8125 
z
M 18.3125 54.390625 
Q 18.3125 48.734375 21.84375 45.5625 
Q 25.390625 42.390625 31.78125 42.390625 
Q 38.140625 42.390625 41.71875 45.5625 
Q 45.3125 48.734375 45.3125 54.390625 
Q 45.3125 60.0625 41.71875 63.234375 
Q 38.140625 66.40625 31.78125 66.40625 
Q 25.390625 66.40625 21.84375 63.234375 
Q 18.3125 60.0625 18.3125 54.390625 
z
" id="DejaVuSans-56"/>
       </defs>
       <use xlink:href="#DejaVuSans-48"/>
       <use x="63.623047" xlink:href="#DejaVuSans-46"/>
       <use x="95.410156" xlink:href="#DejaVuSans-56"/>
      </g>
     </g>
    </g>
    <g id="xtick_6">
     <g id="line2d_6">
      <g>
       <use style="stroke:#000000;stroke-width:0.8;" x="442.035" xlink:href="#m92f4b40b50" y="325.24"/>
      </g>
     </g>
     <g id="text_6">
      <!-- 1.0 -->
      <g transform="translate(434.083437 339.838437)scale(0.1 -0.1)">
       <defs>
        <path d="M 12.40625 8.296875 
L 28.515625 8.296875 
L 28.515625 63.921875 
L 10.984375 60.40625 
L 10.984375 69.390625 
L 28.421875 72.90625 
L 38.28125 72.90625 
L 38.28125 8.296875 
L 54.390625 8.296875 
L 54.390625 0 
L 12.40625 0 
z
" id="DejaVuSans-49"/>
       </defs>
       <use xlink:href="#DejaVuSans-49"/>
       <use x="63.623047" xlink:href="#DejaVuSans-46"/>
       <use x="95.410156" xlink:href="#DejaVuSans-48"/>
      </g>
     </g>
    </g>
    <g id="text_7">
     <!-- $x$ -->
     <g transform="translate(250.5265 353.516563)scale(0.1 -0.1)">
      <defs>
       <path d="M 60.015625 54.6875 
L 34.90625 27.875 
L 50.296875 0 
L 39.984375 0 
L 28.421875 21.6875 
L 8.296875 0 
L -2.59375 0 
L 24.3125 28.8125 
L 10.015625 54.6875 
L 20.3125 54.6875 
L 30.8125 34.90625 
L 49.125 54.6875 
z
" id="DejaVuSans-Oblique-120"/>
      </defs>
      <use transform="translate(0 0.3125)" xlink:href="#DejaVuSans-Oblique-120"/>
     </g>
    </g>
   </g>
   <g id="matplotlib.axis_2">
    <g id="ytick_1">
     <g id="line2d_7">
      <defs>
       <path d="M 0 0 
L -3.5 0 
" id="me5312806e0" style="stroke:#000000;stroke-width:0.8;"/>
      </defs>
      <g>
       <use style="stroke:#000000;stroke-width:0.8;" x="65.018" xlink:href="#me5312806e0" y="325.24"/>
      </g>
     </g>
     <g id="text_8">
      <!-- −0.50 -->
      <g transform="translate(27.372688 329.039219)scale(0.1 -0.1)">
       <defs>
        <path d="M 10.59375 35.5 
L 73.1875 35.5 
L 73.1875 27.203125 
L 10.59375 27.203125 
z
" id="DejaVuSans-8722"/>
        <path d="M 10.796875 72.90625 
L 49.515625 72.90625 
L 49.515625 64.59375 
L 19.828125 64.59375 
L 19.828125 46.734375 
Q 21.96875 47.46875 24.109375 47.828125 
Q 26.265625 48.1875 28.421875 48.1875 
Q 40.625 48.1875 47.75 41.5 
Q 54.890625 34.8125 54.890625 23.390625 
Q 54.890625 11.625 47.5625 5.09375 
Q 40.234375 -1.421875 26.90625 -1.421875 
Q 22.3125 -1.421875 17.546875 -0.640625 
Q 12.796875 0.140625 7.71875 1.703125 
L 7.71875 11.625 
Q 12.109375 9.234375 16.796875 8.0625 
Q 21.484375 6.890625 26.703125 6.890625 
Q 35.15625 6.890625 40.078125 11.328125 
Q 45.015625 15.765625 45.015625 23.390625 
Q 45.015625 31 40.078125 35.4375 
Q 35.15625 39.890625 26.703125 39.890625 
Q 22.75 39.890625 18.8125 39.015625 
Q 14.890625 38.140625 10.796875 36.28125 
z
" id="DejaVuSans-53"/>
       </defs>
       <use xlink:href="#DejaVuSans-8722"/>
       <use x="83.789062" xlink:href="#DejaVuSans-48"/>
       <use x="147.412109" xlink:href="#DejaVuSans-46"/>
       <use x="179.199219" xlink:href="#DejaVuSans-53"/>
       <use x="242.822266" xlink:href="#DejaVuSans-48"/>
      </g>
     </g>
    </g>
    <g id="ytick_2">
     <g id="line2d_8">
      <g>
       <use style="stroke:#000000;stroke-width:0.8;" x="65.018" xlink:href="#me5312806e0" y="286.43"/>
      </g>
     </g>
     <g id="text_9">
      <!-- −0.25 -->
      <g transform="translate(27.372688 290.229219)scale(0.1 -0.1)">
       <use xlink:href="#DejaVuSans-8722"/>
       <use x="83.789062" xlink:href="#DejaVuSans-48"/>
       <use x="147.412109" xlink:href="#DejaVuSans-46"/>
       <use x="179.199219" xlink:href="#DejaVuSans-50"/>
       <use x="242.822266" xlink:href="#DejaVuSans-53"/>
      </g>
     </g>
    </g>
    <g id="ytick_3">
     <g id="line2d_9">
      <g>
       <use style="stroke:#000000;stroke-width:0.8;" x="65.018" xlink:href="#me5312806e0" y="247.62"/>
      </g>
     </g>
     <g id="text_10">
      <!-- 0.00 -->
      <g transform="translate(35.752375 251.419219)scale(0.1 -0.1)">
       <use xlink:href="#DejaVuSans-48"/>
       <use x="63.623047" xlink:href="#DejaVuSans-46"/>
       <use x="95.410156" xlink:href="#DejaVuSans-48"/>
       <use x="159.033203" xlink:href="#DejaVuSans-48"/>
      </g>
     </g>
    </g>
    <g id="ytick_4">
     <g id="line2d_10">
      <g>
       <use style="stroke:#000000;stroke-width:0.8;" x="65.018" xlink:href="#me5312806e0" y="208.81"/>
      </g>
     </g>
     <g id="text_11">
      <!-- 0.25 -->
      <g transform="translate(35.752375 212.609219)scale(0.1 -0.1)">
       <use xlink:href="#DejaVuSans-48"/>
       <use x="63.623047" xlink:href="#DejaVuSans-46"/>
       <use x="95.410156" xlink:href="#DejaVuSans-50"/>
       <use x="159.033203" xlink:href="#DejaVuSans-53"/>
      </g>
     </g>
    </g>
    <g id="ytick_5">
     <g id="line2d_11">
      <g>
       <use style="stroke:#000000;stroke-width:0.8;" x="65.018" xlink:href="#me5312806e0" y="170"/>
      </g>
     </g>
     <g id="text_12">
      <!-- 0.50 -->
      <g transform="translate(35.752375 173.799219)scale(0.1 -0.1)">
       <use xlink:href="#DejaVuSans-48"/>
       <use x="63.623047" xlink:href="#DejaVuSans-46"/>
       <use x="95.410156" xlink:href="#DejaVuSans-53"/>
       <use x="159.033203" xlink:href="#DejaVuSans-48"/>
      </g>
     </g>
    </g>
    <g id="ytick_6">
     <g id="line2d_12">
      <g>
       <use style="stroke:#000000;stroke-width:0.8;" x="65.018" xlink:href="#me5312806e0" y="131.19"/>
      </g>
     </g>
     <g id="text_13">
      <!-- 0.75 -->
      <g transform="translate(35.752375 134.989219)scale(0.1 -0.1)">
       <defs>
        <path d="M 8.203125 72.90625 
L 55.078125 72.90625 
L 55.078125 68.703125 
L 28.609375 0 
L 18.3125 0 
L 43.21875 64.59375 
L 8.203125 64.59375 
z
" id="DejaVuSans-55"/>
       </defs>
       <use xlink:href="#DejaVuSans-48"/>
       <use x="63.623047" xlink:href="#DejaVuSans-46"/>
       <use x="95.410156" xlink:href="#DejaVuSans-55"/>
       <use x="159.033203" xlink:href="#DejaVuSans-53"/>
      </g>
     </g>
    </g>
    <g id="ytick_7">
     <g id="line2d_13">
      <g>
       <use style="stroke:#000000;stroke-width:0.8;" x="65.018" xlink:href="#me5312806e0" y="92.38"/>
      </g>
     </g>
     <g id="text_14">
      <!-- 1.00 -->
      <g transform="translate(35.752375 96.179219)scale(0.1 -0.1)">
       <use xlink:href="#DejaVuSans-49"/>
       <use x="63.623047" xlink:href="#DejaVuSans-46"/>
       <use x="95.410156" xlink:href="#DejaVuSans-48"/>
       <use x="159.033203" xlink:href="#DejaVuSans-48"/>
      </g>
     </g>
    </g>
    <g id="ytick_8">
     <g id="line2d_14">
      <g>
       <use style="stroke:#000000;stroke-width:0.8;" x="65.018" xlink:href="#me5312806e0" y="53.57"/>
      </g>
     </g>
     <g id="text_15">
      <!-- 1.25 -->
      <g transform="translate(35.752375 57.369219)scale(0.1 -0.1)">
       <use xlink:href="#DejaVuSans-49"/>
       <use x="63.623047" xlink:href="#DejaVuSans-46"/>
       <use x="95.410156" xlink:href="#DejaVuSans-50"/>
       <use x="159.033203" xlink:href="#DejaVuSans-53"/>
      </g>
     </g>
    </g>
    <g id="ytick_9">
     <g id="line2d_15">
      <g>
       <use style="stroke:#000000;stroke-width:0.8;" x="65.018" xlink:href="#me5312806e0" y="14.76"/>
      </g>
     </g>
     <g id="text_16">
      <!-- 1.50 -->
      <g transform="translate(35.752375 18.559219)scale(0.1 -0.1)">
       <use xlink:href="#DejaVuSans-49"/>
       <use x="63.623047" xlink:href="#DejaVuSans-46"/>
       <use x="95.410156" xlink:href="#DejaVuSans-53"/>
       <use x="159.033203" xlink:href="#DejaVuSans-48"/>
      </g>
     </g>
    </g>
    <g id="text_17">
     <!-- $f(x)$ and $f_h(x)$ -->
     <g transform="translate(21.293 202.2)rotate(-90)scale(0.1 -0.1)">
      <defs>
       <path d="M 47.796875 75.984375 
L 46.390625 68.5 
L 37.796875 68.5 
Q 32.90625 68.5 30.6875 66.578125 
Q 28.46875 64.65625 27.390625 59.515625 
L 26.421875 54.6875 
L 41.21875 54.6875 
L 39.890625 47.703125 
L 25.09375 47.703125 
L 15.828125 0 
L 6.78125 0 
L 16.109375 47.703125 
L 7.515625 47.703125 
L 8.796875 54.6875 
L 17.390625 54.6875 
L 18.109375 58.5 
Q 19.96875 68.171875 24.625 72.078125 
Q 29.296875 75.984375 39.3125 75.984375 
z
" id="DejaVuSans-Oblique-102"/>
       <path d="M 31 75.875 
Q 24.46875 64.65625 21.28125 53.65625 
Q 18.109375 42.671875 18.109375 31.390625 
Q 18.109375 20.125 21.3125 9.0625 
Q 24.515625 -2 31 -13.1875 
L 23.1875 -13.1875 
Q 15.875 -1.703125 12.234375 9.375 
Q 8.59375 20.453125 8.59375 31.390625 
Q 8.59375 42.28125 12.203125 53.3125 
Q 15.828125 64.359375 23.1875 75.875 
z
" id="DejaVuSans-40"/>
       <path d="M 8.015625 75.875 
L 15.828125 75.875 
Q 23.140625 64.359375 26.78125 53.3125 
Q 30.421875 42.28125 30.421875 31.390625 
Q 30.421875 20.453125 26.78125 9.375 
Q 23.140625 -1.703125 15.828125 -13.1875 
L 8.015625 -13.1875 
Q 14.5 -2 17.703125 9.0625 
Q 20.90625 20.125 20.90625 31.390625 
Q 20.90625 42.671875 17.703125 53.65625 
Q 14.5 64.65625 8.015625 75.875 
z
" id="DejaVuSans-41"/>
       <path id="DejaVuSans-32"/>
       <path d="M 34.28125 27.484375 
Q 23.390625 27.484375 19.1875 25 
Q 14.984375 22.515625 14.984375 16.5 
Q 14.984375 11.71875 18.140625 8.90625 
Q 21.296875 6.109375 26.703125 6.109375 
Q 34.1875 6.109375 38.703125 11.40625 
Q 43.21875 16.703125 43.21875 25.484375 
L 43.21875 27.484375 
z
M 52.203125 31.203125 
L 52.203125 0 
L 43.21875 0 
L 43.21875 8.296875 
Q 40.140625 3.328125 35.546875 0.953125 
Q 30.953125 -1.421875 24.3125 -1.421875 
Q 15.921875 -1.421875 10.953125 3.296875 
Q 6 8.015625 6 15.921875 
Q 6 25.140625 12.171875 29.828125 
Q 18.359375 34.515625 30.609375 34.515625 
L 43.21875 34.515625 
L 43.21875 35.40625 
Q 43.21875 41.609375 39.140625 45 
Q 35.0625 48.390625 27.6875 48.390625 
Q 23 48.390625 18.546875 47.265625 
Q 14.109375 46.140625 10.015625 43.890625 
L 10.015625 52.203125 
Q 14.9375 54.109375 19.578125 55.046875 
Q 24.21875 56 28.609375 56 
Q 40.484375 56 46.34375 49.84375 
Q 52.203125 43.703125 52.203125 31.203125 
z
" id="DejaVuSans-97"/>
       <path d="M 54.890625 33.015625 
L 54.890625 0 
L 45.90625 0 
L 45.90625 32.71875 
Q 45.90625 40.484375 42.875 44.328125 
Q 39.84375 48.1875 33.796875 48.1875 
Q 26.515625 48.1875 22.3125 43.546875 
Q 18.109375 38.921875 18.109375 30.90625 
L 18.109375 0 
L 9.078125 0 
L 9.078125 54.6875 
L 18.109375 54.6875 
L 18.109375 46.1875 
Q 21.34375 51.125 25.703125 53.5625 
Q 30.078125 56 35.796875 56 
Q 45.21875 56 50.046875 50.171875 
Q 54.890625 44.34375 54.890625 33.015625 
z
" id="DejaVuSans-110"/>
       <path d="M 45.40625 46.390625 
L 45.40625 75.984375 
L 54.390625 75.984375 
L 54.390625 0 
L 45.40625 0 
L 45.40625 8.203125 
Q 42.578125 3.328125 38.25 0.953125 
Q 33.9375 -1.421875 27.875 -1.421875 
Q 17.96875 -1.421875 11.734375 6.484375 
Q 5.515625 14.40625 5.515625 27.296875 
Q 5.515625 40.1875 11.734375 48.09375 
Q 17.96875 56 27.875 56 
Q 33.9375 56 38.25 53.625 
Q 42.578125 51.265625 45.40625 46.390625 
z
M 14.796875 27.296875 
Q 14.796875 17.390625 18.875 11.75 
Q 22.953125 6.109375 30.078125 6.109375 
Q 37.203125 6.109375 41.296875 11.75 
Q 45.40625 17.390625 45.40625 27.296875 
Q 45.40625 37.203125 41.296875 42.84375 
Q 37.203125 48.484375 30.078125 48.484375 
Q 22.953125 48.484375 18.875 42.84375 
Q 14.796875 37.203125 14.796875 27.296875 
z
" id="DejaVuSans-100"/>
       <path d="M 55.71875 33.015625 
L 49.3125 0 
L 40.28125 0 
L 46.6875 32.671875 
Q 47.125 34.96875 47.359375 36.71875 
Q 47.609375 38.484375 47.609375 39.5 
Q 47.609375 43.609375 45.015625 45.890625 
Q 42.4375 48.1875 37.796875 48.1875 
Q 30.5625 48.1875 25.265625 43.296875 
Q 19.96875 38.421875 18.40625 30.328125 
L 12.5 0 
L 3.515625 0 
L 18.3125 75.984375 
L 27.296875 75.984375 
L 21.484375 46.09375 
Q 24.90625 50.6875 30.21875 53.34375 
Q 35.546875 56 41.40625 56 
Q 48.640625 56 52.609375 52.09375 
Q 56.59375 48.1875 56.59375 41.109375 
Q 56.59375 39.359375 56.375 37.359375 
Q 56.15625 35.359375 55.71875 33.015625 
z
" id="DejaVuSans-Oblique-104"/>
      </defs>
      <use transform="translate(0 0.015625)" xlink:href="#DejaVuSans-Oblique-102"/>
      <use transform="translate(35.205078 0.015625)" xlink:href="#DejaVuSans-40"/>
      <use transform="translate(74.21875 0.015625)" xlink:href="#DejaVuSans-Oblique-120"/>
      <use transform="translate(133.398438 0.015625)" xlink:href="#DejaVuSans-41"/>
      <use transform="translate(172.412109 0.015625)" xlink:href="#DejaVuSans-32"/>
      <use transform="translate(204.199219 0.015625)" xlink:href="#DejaVuSans-97"/>
      <use transform="translate(265.478516 0.015625)" xlink:href="#DejaVuSans-110"/>
      <use transform="translate(328.857422 0.015625)" xlink:href="#DejaVuSans-100"/>
      <use transform="translate(392.333984 0.015625)" xlink:href="#DejaVuSans-32"/>
      <use transform="translate(424.121094 0.015625)" xlink:href="#DejaVuSans-Oblique-102"/>
      <use transform="translate(459.326172 -16.390625)scale(0.7)" xlink:href="#DejaVuSans-Oblique-104"/>
      <use transform="translate(506.425781 0.015625)" xlink:href="#DejaVuSans-40"/>
      <use transform="translate(545.439453 0.015625)" xlink:href="#DejaVuSans-Oblique-120"/>
      <use transform="translate(604.619141 0.015625)" xlink:href="#DejaVuSans-41"/>
     </g>
    </g>
   </g>
   <g id="line2d_16">
    <path clip-path="url(#pb2d96c5cde)" d="M 65.018 225.475468 
L 74.331251 220.452434 
L 83.569092 215.721438 
L 92.769226 211.258567 
L 101.931656 207.060766 
L 111.018674 203.140756 
L 120.067987 199.477743 
L 129.079594 196.068724 
L 138.053496 192.910707 
L 146.989693 190.000716 
L 155.888184 187.335786 
L 164.74897 184.912962 
L 173.609755 182.720463 
L 182.432835 180.766152 
L 191.21821 179.047099 
L 200.003585 177.554467 
L 208.751254 176.293208 
L 217.498923 175.25643 
L 226.208887 174.447154 
L 234.91885 173.860428 
L 243.628814 173.496254 
L 252.338778 173.354631 
L 261.048741 173.435559 
L 269.758705 173.739037 
L 278.468669 174.265067 
L 287.178632 175.013647 
L 295.888596 175.984778 
L 304.636265 177.184112 
L 313.383934 178.607927 
L 322.169309 180.263816 
L 330.954684 182.146125 
L 339.777764 184.264394 
L 348.600844 186.611032 
L 357.46163 189.197534 
L 366.360121 192.026839 
L 375.296317 195.1019 
L 384.270219 198.425684 
L 393.281827 202.001167 
L 402.33114 205.831341 
L 411.418158 209.919207 
L 420.542882 214.267782 
L 429.743017 218.899582 
L 438.980857 223.800199 
L 442.035 225.475468 
L 442.035 225.475468 
" style="fill:none;stroke:#ff7f0e;stroke-linecap:square;stroke-width:1.5;"/>
   </g>
   <g id="line2d_17">
    <path clip-path="url(#pb2d96c5cde)" d="M 65.018 288.18203 
L 68.18526 273.078897 
L 71.277108 259.401125 
L 74.331251 246.883983 
L 77.347689 235.453226 
L 80.288716 225.165014 
L 83.192037 215.805806 
L 86.057653 207.314022 
L 88.847857 199.729374 
L 91.600357 192.881698 
L 94.315151 186.720237 
L 96.954534 181.271115 
L 99.556211 176.400748 
L 102.120183 172.067575 
L 104.64645 168.232401 
L 107.097305 164.906503 
L 109.510455 161.995748 
L 111.923605 159.430858 
L 114.29905 157.229315 
L 116.636789 155.362151 
L 118.974528 153.77881 
L 121.274562 152.485457 
L 123.574596 151.442241 
L 125.912335 150.625999 
L 128.250074 150.043622 
L 130.625519 149.679009 
L 133.076374 149.529759 
L 135.564935 149.600457 
L 138.166613 149.899028 
L 140.881407 150.439113 
L 143.709317 151.23182 
L 146.688049 152.30039 
L 149.855309 153.67599 
L 153.248801 155.39592 
L 156.943937 157.524258 
L 160.978423 160.109939 
L 165.503079 163.279373 
L 170.781845 167.257287 
L 177.493419 172.610675 
L 201.323276 191.872661 
L 207.054508 196.073273 
L 212.182452 199.560137 
L 216.895635 202.499147 
L 221.307175 204.99145 
L 225.492483 207.104232 
L 229.526968 208.893159 
L 233.410631 210.373441 
L 237.181179 211.574435 
L 240.876315 212.518554 
L 244.49604 213.21461 
L 248.07806 213.676712 
L 251.622374 213.909533 
L 255.166688 213.917899 
L 258.711002 213.701765 
L 262.255316 213.262263 
L 265.837336 212.593498 
L 269.457061 211.692007 
L 273.152197 210.542903 
L 276.96045 209.123745 
L 280.881819 207.42257 
L 284.95401 205.41052 
L 289.214728 203.053536 
L 293.701679 200.314089 
L 298.527979 197.101638 
L 303.806745 193.313926 
L 309.801915 188.729649 
L 317.305303 182.695891 
L 337.402319 166.383856 
L 342.831907 162.355869 
L 347.431974 159.21223 
L 351.504165 156.69166 
L 355.199301 154.659868 
L 358.592794 153.041217 
L 361.760053 151.771408 
L 364.738785 150.812561 
L 367.566696 150.133449 
L 370.243784 149.71552 
L 372.807756 149.535909 
L 375.296317 149.582282 
L 377.709467 149.848089 
L 380.084912 150.334757 
L 382.422651 151.043878 
L 384.722685 151.976269 
L 386.985013 153.131984 
L 389.247341 154.535815 
L 391.547375 156.22937 
L 393.847409 158.203794 
L 396.147442 160.471708 
L 398.485182 163.090764 
L 400.860626 166.090301 
L 403.273776 169.501504 
L 405.724632 173.357495 
L 408.213193 177.693433 
L 410.739459 182.546608 
L 413.303431 187.956553 
L 415.942814 194.056172 
L 418.619903 200.815209 
L 421.334697 208.28193 
L 424.087196 216.507373 
L 426.915106 225.672569 
L 429.780722 235.728003 
L 432.684043 246.73546 
L 435.662775 258.920154 
L 438.679213 272.215165 
L 441.733356 286.694842 
L 442.035 288.18203 
L 442.035 288.18203 
" style="fill:none;stroke:#2ca02c;stroke-linecap:square;stroke-width:1.5;"/>
   </g>
   <g id="line2d_18">
    <path clip-path="url(#pb2d96c5cde)" d="M 65.018 294.170993 
L 68.18526 278.367473 
L 71.277108 264.051683 
L 74.331251 250.946953 
L 77.347689 238.975894 
L 80.288716 228.197734 
L 83.192037 218.389178 
L 86.057653 209.486033 
L 88.847857 201.530356 
L 91.600357 194.344084 
L 94.315151 187.8743 
L 96.954534 182.148872 
L 99.556211 177.027886 
L 102.120183 172.468008 
L 104.608744 168.485449 
L 107.0596 164.972298 
L 109.47275 161.893324 
L 111.848194 159.215367 
L 114.185934 156.907238 
L 116.523673 154.909797 
L 118.823706 153.234482 
L 121.12374 151.833814 
L 123.423774 150.695179 
L 125.723808 149.806177 
L 128.023841 149.154628 
L 130.36158 148.723394 
L 132.737025 148.511115 
L 135.187881 148.5174 
L 137.714147 148.749074 
L 140.315825 149.211298 
L 143.068324 149.930154 
L 145.93394 150.910492 
L 148.988083 152.193693 
L 152.230753 153.799654 
L 155.737362 155.787768 
L 159.58332 158.230165 
L 163.844038 161.206183 
L 168.708044 164.882613 
L 174.590097 169.619323 
L 183.111534 176.798401 
L 196.534681 188.095614 
L 203.020022 193.243829 
L 208.487315 197.307403 
L 213.426732 200.707036 
L 217.989094 203.582172 
L 222.287518 206.032337 
L 226.397414 208.12094 
L 230.318783 209.867454 
L 234.127035 211.32201 
L 237.822172 212.497064 
L 241.441897 213.415773 
L 244.986211 214.087539 
L 248.49282 214.526807 
L 251.961723 214.738566 
L 255.430626 214.727667 
L 258.89953 214.494166 
L 262.406138 214.033087 
L 265.912747 213.348133 
L 269.494767 212.421008 
L 273.152197 211.242427 
L 276.885039 209.80488 
L 280.730997 208.084954 
L 284.727777 206.052655 
L 288.913084 203.672526 
L 293.324624 200.905333 
L 298.075513 197.657052 
L 303.241163 193.849773 
L 309.085511 189.258514 
L 316.324961 183.272471 
L 337.967901 165.177888 
L 343.208962 161.206183 
L 347.695913 158.079641 
L 351.654987 155.584846 
L 355.274712 153.561499 
L 358.592794 151.955318 
L 361.684642 150.699197 
L 364.587963 149.753273 
L 367.340463 149.08472 
L 369.979846 148.669446 
L 372.506112 148.494415 
L 374.956968 148.546682 
L 377.332413 148.819167 
L 379.670152 149.313035 
L 381.970185 150.029548 
L 384.232514 150.969185 
L 386.494842 152.153464 
L 388.75717 153.594235 
L 391.019498 155.303554 
L 393.281827 157.293677 
L 395.58186 159.61768 
L 397.919599 162.304115 
L 400.257339 165.331651 
L 402.632783 168.772285 
L 405.045933 172.659265 
L 407.534494 177.098499 
L 410.060761 182.071002 
L 412.624733 187.617673 
L 415.22641 193.781843 
L 417.865793 200.609395 
L 420.580587 208.259607 
L 423.333087 216.69198 
L 426.123291 225.962316 
L 428.988907 236.270515 
L 431.892228 247.56026 
L 434.833255 259.899 
L 437.849693 273.5346 
L 440.903836 288.391761 
L 442.035 294.170993 
L 442.035 294.170993 
" style="fill:none;stroke:#d62728;stroke-linecap:square;stroke-width:1.5;"/>
   </g>
   <g id="line2d_19">
    <path clip-path="url(#pb2d96c5cde)" d="M 65.018 234.616453 
L 66.60163 242.961448 
L 68.109849 249.756602 
L 69.542656 255.230914 
L 70.900053 259.585209 
L 72.182039 262.995317 
L 73.388614 265.614923 
L 74.557484 267.635618 
L 75.650943 269.088673 
L 76.66899 270.08026 
L 77.611627 270.702402 
L 78.516558 271.044007 
L 79.42149 271.146315 
L 80.326421 271.020065 
L 81.269058 270.656833 
L 82.287106 270.012152 
L 83.380564 269.043634 
L 84.587139 267.663231 
L 85.906831 265.804589 
L 87.377344 263.337893 
L 89.036385 260.099956 
L 90.883953 255.987353 
L 92.995459 250.717984 
L 95.408609 244.070595 
L 98.23652 235.604943 
L 101.780834 224.254511 
L 107.210422 206.017707 
L 115.015454 179.902584 
L 119.087645 167.073713 
L 122.556548 156.861768 
L 125.648397 148.436516 
L 128.476307 141.361489 
L 131.077984 135.430372 
L 133.52884 130.379493 
L 135.828874 126.132239 
L 138.015791 122.549077 
L 140.089592 119.569042 
L 142.050276 117.130069 
L 143.93555 115.134027 
L 145.707707 113.570349 
L 147.442159 112.332648 
L 149.101199 111.418273 
L 150.722535 110.777231 
L 152.306164 110.389566 
L 153.852089 110.23554 
L 155.398013 110.299897 
L 156.981643 110.588335 
L 158.602978 111.112266 
L 160.262019 111.882307 
L 161.99647 112.933643 
L 163.844038 114.321975 
L 165.767017 116.050584 
L 167.803113 118.183095 
L 169.99003 120.803007 
L 172.327769 123.959268 
L 174.854036 127.754911 
L 177.56883 132.242666 
L 180.547562 137.604758 
L 183.865643 144.048656 
L 187.63619 151.873104 
L 192.160847 161.801413 
L 198.382249 176.041791 
L 210.259473 203.299571 
L 215.048067 213.665646 
L 219.044847 221.805228 
L 222.589161 228.535832 
L 225.831832 234.227823 
L 228.810564 239.019466 
L 231.600769 243.095626 
L 234.202446 246.513349 
L 236.653302 249.377258 
L 238.991041 251.774195 
L 241.215664 253.741652 
L 243.32717 255.318915 
L 245.363266 256.566765 
L 247.32395 257.511022 
L 249.209224 258.178044 
L 251.056792 258.600694 
L 252.866654 258.791838 
L 254.676517 258.76189 
L 256.486379 258.510929 
L 258.333947 258.027462 
L 260.219221 257.29881 
L 262.1422 256.312869 
L 264.14059 255.031692 
L 266.214391 253.430069 
L 268.363603 251.483681 
L 270.625931 249.127755 
L 273.001376 246.325674 
L 275.527642 242.990944 
L 278.20473 239.077273 
L 281.070346 234.480837 
L 284.124489 229.153345 
L 287.480276 222.83873 
L 291.175412 215.397848 
L 295.398425 206.377792 
L 300.60178 194.709254 
L 310.442908 171.942937 
L 316.852838 157.439138 
L 321.339789 147.82287 
L 325.07263 140.33088 
L 328.353006 134.227823 
L 331.331738 129.144352 
L 334.046532 124.940987 
L 336.535093 121.484417 
L 338.872833 118.610963 
L 341.022044 116.309779 
L 343.05814 114.447243 
L 344.981119 112.984951 
L 346.790981 111.882307 
L 348.525433 111.082842 
L 350.184474 110.560357 
L 351.805809 110.284106 
L 353.389439 110.242561 
L 354.935363 110.423455 
L 356.481287 110.826398 
L 358.064917 111.472286 
L 359.686252 112.380458 
L 361.345293 113.570349 
L 363.079745 115.097603 
L 364.851902 116.957773 
L 366.737175 119.268784 
L 368.69786 122.033441 
L 370.771661 125.35415 
L 372.958578 129.290228 
L 375.258612 133.899037 
L 377.709467 139.321068 
L 380.311145 145.626122 
L 383.139055 153.078719 
L 386.230904 161.874894 
L 389.699807 172.440048 
L 393.809703 185.705454 
L 399.955695 206.401853 
L 406.667269 228.799975 
L 410.211583 239.86081 
L 413.039493 247.987667 
L 415.414938 254.170488 
L 417.488739 258.976602 
L 419.336307 262.713265 
L 420.957642 265.510916 
L 422.39045 267.56659 
L 423.672436 269.043634 
L 424.841305 270.068591 
L 425.897059 270.712528 
L 426.877401 271.056531 
L 427.782332 271.145423 
L 428.649558 271.014616 
L 429.516784 270.662791 
L 430.421715 270.049547 
L 431.364352 269.131501 
L 432.344694 267.860666 
L 433.400447 266.114718 
L 434.531611 263.788546 
L 435.700481 260.864695 
L 436.944761 257.14088 
L 438.264453 252.465387 
L 439.659555 246.664781 
L 441.092363 239.737231 
L 442.035 234.616453 
L 442.035 234.616453 
" style="fill:none;stroke:#9467bd;stroke-linecap:square;stroke-width:1.5;"/>
   </g>
   <g id="line2d_20">
    <path clip-path="url(#pb2d96c5cde)" d="M 65.018 232.298904 
L 66.60163 240.886155 
L 68.109849 247.896795 
L 69.580362 253.699186 
L 70.975464 258.315309 
L 72.295156 261.930415 
L 73.539436 264.706454 
L 74.708306 266.784752 
L 75.801765 268.28839 
L 76.819812 269.324321 
L 77.762449 269.985254 
L 78.66738 270.362127 
L 79.572312 270.497842 
L 80.477243 270.40321 
L 81.41988 270.071083 
L 82.400222 269.485241 
L 83.493681 268.558086 
L 84.66255 267.266701 
L 85.982242 265.460919 
L 87.452755 263.047902 
L 89.07409 259.941729 
L 90.883953 255.980431 
L 92.957754 250.881497 
L 95.333198 244.419821 
L 98.123403 236.150674 
L 101.554601 225.247637 
L 106.569429 208.487142 
L 115.430214 178.850036 
L 119.464699 166.191747 
L 122.895897 156.137853 
L 125.95004 147.855471 
L 128.740245 140.907215 
L 131.341923 135.004943 
L 133.792778 129.983279 
L 136.092812 125.765145 
L 138.279729 122.211104 
L 140.35353 119.259881 
L 142.314215 116.849137 
L 144.161783 114.917057 
L 145.93394 113.373882 
L 147.630686 112.180217 
L 149.289727 111.280119 
L 150.911062 110.653515 
L 152.494692 110.28039 
L 154.040616 110.140947 
L 155.58654 110.220245 
L 157.17017 110.524328 
L 158.791505 111.064598 
L 160.450546 111.851656 
L 162.184998 112.921058 
L 164.032566 114.328889 
L 165.955545 116.078006 
L 167.99164 118.232388 
L 170.178557 120.875873 
L 172.516297 124.057302 
L 175.042563 127.879951 
L 177.795062 132.461824 
L 180.8115 137.931017 
L 184.167287 144.494395 
L 187.975539 152.44933 
L 192.537901 162.517547 
L 198.947831 177.254816 
L 210.070945 202.849516 
L 214.897245 213.348507 
L 218.931731 221.607795 
L 222.51375 228.444897 
L 225.756421 234.166322 
L 228.735153 238.984842 
L 231.525358 243.085782 
L 234.127035 246.526065 
L 236.577891 249.41059 
L 238.91563 251.826491 
L 241.140253 253.81126 
L 243.251759 255.40421 
L 245.287855 256.666436 
L 247.248539 257.623784 
L 249.133813 258.302654 
L 250.981381 258.736173 
L 252.791243 258.937222 
L 254.601106 258.916417 
L 256.410968 258.673811 
L 258.258537 258.198041 
L 260.14381 257.476356 
L 262.066789 256.496584 
L 264.027474 255.247277 
L 266.063569 253.686558 
L 268.212781 251.753789 
L 270.475109 249.41059 
L 272.850554 246.620056 
L 275.339115 243.347778 
L 277.978498 239.505516 
L 280.806408 234.989098 
L 283.860551 229.681124 
L 287.178632 223.455761 
L 290.836063 216.108749 
L 295.02137 207.18387 
L 300.111609 195.776927 
L 308.633045 176.027409 
L 315.985612 159.220418 
L 320.623385 149.162629 
L 324.469343 141.339228 
L 327.82513 135.004724 
L 330.841567 129.774964 
L 333.594067 125.438584 
L 336.120333 121.863121 
L 338.458072 118.928311 
L 340.64499 116.530374 
L 342.681085 114.616842 
L 344.604064 113.105421 
L 346.413927 111.955814 
L 348.148378 111.110801 
L 349.807419 110.544359 
L 351.428754 110.22488 
L 353.012384 110.140947 
L 354.558308 110.28039 
L 356.104233 110.641898 
L 357.687862 111.245447 
L 359.271492 112.087507 
L 360.930533 113.227562 
L 362.627279 114.667987 
L 364.399436 116.46953 
L 366.247004 118.670703 
L 368.169983 121.310234 
L 370.206079 124.488825 
L 372.35529 128.265683 
L 374.617619 132.698526 
L 377.030769 137.927058 
L 379.594741 144.022787 
L 382.34724 151.14821 
L 385.363678 159.588785 
L 388.719465 169.658839 
L 392.640834 182.158686 
L 397.957305 199.919125 
L 406.629563 228.913058 
L 410.136172 239.804957 
L 412.926377 247.777246 
L 415.301821 253.915957 
L 417.375622 258.676179 
L 419.185485 262.29595 
L 420.80682 265.057902 
L 422.239628 267.078503 
L 423.521614 268.521167 
L 424.690484 269.512154 
L 425.746237 270.123141 
L 426.726579 270.434526 
L 427.63151 270.491508 
L 428.498736 270.32843 
L 429.365962 269.942618 
L 430.270893 269.292012 
L 431.21353 268.332907 
L 432.231578 266.959667 
L 433.287331 265.147867 
L 434.418495 262.746943 
L 435.62507 259.634949 
L 436.869351 255.798534 
L 438.189042 250.99596 
L 439.584144 245.052066 
L 441.054658 237.766988 
L 442.035 232.298904 
L 442.035 232.298904 
" style="fill:none;stroke:#8c564b;stroke-linecap:square;stroke-width:1.5;"/>
   </g>
   <g id="line2d_21">
    <path clip-path="url(#pb2d96c5cde)" d="M 65.018 242.977435 
L 67.43115 246.393052 
L 69.504951 248.958153 
L 71.352519 250.903579 
L 73.049265 252.377538 
L 74.632895 253.463911 
L 76.103408 254.210464 
L 77.498511 254.677634 
L 78.855908 254.901928 
L 80.175599 254.899311 
L 81.495291 254.677611 
L 82.852688 254.220752 
L 84.24779 253.510439 
L 85.680598 252.529385 
L 87.188817 251.225646 
L 88.810152 249.520991 
L 90.544604 247.360175 
L 92.392172 244.690132 
L 94.390562 241.396074 
L 96.539773 237.412744 
L 98.915218 232.522495 
L 101.516895 226.641237 
L 104.457922 219.424199 
L 107.88912 210.38911 
L 112.225249 198.302708 
L 127.873019 154.077532 
L 131.417334 145.061237 
L 134.509182 137.780104 
L 137.299387 131.755081 
L 139.863359 126.72696 
L 142.238804 122.538555 
L 144.463426 119.050799 
L 146.574933 116.147036 
L 148.535617 113.817428 
L 150.383185 111.953613 
L 152.155342 110.473566 
L 153.852089 109.342471 
L 155.473424 108.525212 
L 157.057054 107.976736 
L 158.602978 107.679683 
L 160.111197 107.616399 
L 161.619416 107.775801 
L 163.127634 108.156252 
L 164.673559 108.773291 
L 166.294894 109.664125 
L 167.99164 110.859052 
L 169.763797 112.387833 
L 171.611365 114.279191 
L 173.57205 116.608072 
L 175.683556 119.472344 
L 177.908179 122.87098 
L 180.321329 126.974115 
L 182.923006 131.848823 
L 185.750917 137.630908 
L 188.880471 144.54998 
L 192.424785 152.946424 
L 196.572387 163.367266 
L 202.03968 177.750381 
L 215.462827 213.306073 
L 219.761251 223.915018 
L 223.418682 232.364747 
L 226.661352 239.310389 
L 229.602379 245.099143 
L 232.317173 249.964561 
L 234.843439 254.04623 
L 237.218884 257.467366 
L 239.443507 260.286835 
L 241.517308 262.5673 
L 243.477992 264.405341 
L 245.363266 265.87428 
L 247.173128 267.00418 
L 248.90758 267.825795 
L 250.566621 268.370091 
L 252.187956 268.672283 
L 253.809291 268.74656 
L 255.392921 268.59889 
L 257.014256 268.222639 
L 258.673297 267.602972 
L 260.370043 266.725514 
L 262.104495 265.57651 
L 263.914357 264.109682 
L 265.837336 262.256876 
L 267.835726 260.017541 
L 269.947232 257.31393 
L 272.209561 254.04623 
L 274.622711 250.156741 
L 277.186683 245.592984 
L 279.976888 240.157547 
L 282.993325 233.781192 
L 286.349112 226.149177 
L 290.157365 216.912384 
L 294.719727 205.233158 
L 301.393595 187.462914 
L 310.367497 163.658662 
L 314.892153 152.303194 
L 318.624995 143.518741 
L 321.867665 136.436756 
L 324.808692 130.534216 
L 327.48578 125.647056 
L 329.974342 121.559319 
L 332.274375 118.200591 
L 334.423587 115.447807 
L 336.421977 113.238328 
L 338.307251 111.474932 
L 340.079408 110.110149 
L 341.776154 109.07582 
L 343.397489 108.341238 
L 344.981119 107.866816 
L 346.527043 107.638094 
L 348.035262 107.64001 
L 349.543481 107.865425 
L 351.0517 108.31493 
L 352.597624 109.008202 
L 354.181254 109.961706 
L 355.840294 111.223044 
L 357.574746 112.825905 
L 359.384609 114.803631 
L 361.307588 117.239612 
L 363.343683 120.184686 
L 365.5306 123.752338 
L 367.868339 128.008112 
L 370.3569 133.010687 
L 373.071694 138.980361 
L 376.050427 146.08183 
L 379.406213 154.674085 
L 383.402993 165.550643 
L 388.907992 181.243864 
L 398.183538 207.710491 
L 402.104907 218.170249 
L 405.309872 226.106227 
L 408.100077 232.441018 
L 410.588638 237.559853 
L 412.850966 241.724175 
L 414.924767 245.094154 
L 416.847746 247.809775 
L 418.619903 249.945001 
L 420.278943 251.611573 
L 421.862573 252.893479 
L 423.333087 253.807786 
L 424.765894 254.439275 
L 426.123291 254.799496 
L 427.480688 254.927632 
L 428.80038 254.830515 
L 430.157777 254.504803 
L 431.552879 253.93534 
L 432.985687 253.108946 
L 434.531611 251.952491 
L 436.190652 250.420852 
L 437.962809 248.475839 
L 439.961199 245.938612 
L 442.035 242.977435 
L 442.035 242.977435 
" style="fill:none;stroke:#e377c2;stroke-linecap:square;stroke-width:1.5;"/>
   </g>
   <g id="line2d_22">
    <path clip-path="url(#pb2d96c5cde)" d="M 65.018 242.417087 
L 67.393445 245.924966 
L 69.467246 248.60132 
L 71.314814 250.632784 
L 73.01156 252.175919 
L 74.59519 253.319102 
L 76.065703 254.112263 
L 77.460805 254.618621 
L 78.818202 254.876705 
L 80.137894 254.903153 
L 81.457585 254.707071 
L 82.777277 254.288469 
L 84.134674 253.626971 
L 85.567481 252.677318 
L 87.0757 251.40327 
L 88.65933 249.76948 
L 90.356076 247.692597 
L 92.165939 245.119544 
L 94.126623 241.936045 
L 96.23813 238.075948 
L 98.575869 233.321833 
L 101.139841 227.58678 
L 104.043162 220.524012 
L 107.398949 211.747865 
L 111.584256 200.137914 
L 119.012234 178.725825 
L 125.007404 161.75993 
L 129.041889 150.994676 
L 132.435381 142.556598 
L 135.451819 135.640375 
L 138.166613 129.95509 
L 140.692879 125.170312 
L 143.030619 121.208948 
L 145.217536 117.931269 
L 147.253631 115.266905 
L 149.17661 113.103948 
L 150.986473 111.38888 
L 152.720924 110.041779 
L 154.379965 109.027803 
L 155.963595 108.312059 
L 157.509519 107.851676 
L 159.017738 107.629448 
L 160.525957 107.630727 
L 162.034176 107.854285 
L 163.5801 108.312209 
L 165.16373 109.018744 
L 166.785065 109.987455 
L 168.481811 111.262245 
L 170.291674 112.909667 
L 172.176947 114.932786 
L 174.175337 117.407892 
L 176.324549 120.433982 
L 178.624583 124.069563 
L 181.075438 128.367613 
L 183.752527 133.524253 
L 186.655848 139.60957 
L 189.898518 146.937471 
L 193.593655 155.857755 
L 198.0429 167.209735 
L 204.45283 184.24485 
L 214.03002 209.653127 
L 218.592382 221.101322 
L 222.400634 230.074122 
L 225.756421 237.423776 
L 228.772859 243.509731 
L 231.563063 248.648375 
L 234.127035 252.917773 
L 236.540186 256.513222 
L 238.802514 259.491952 
L 240.91402 261.915648 
L 242.91241 263.882197 
L 244.835389 265.466364 
L 246.645252 266.675786 
L 248.379703 267.574771 
L 250.076449 268.205237 
L 251.697785 268.575889 
L 253.31912 268.718999 
L 254.90275 268.638744 
L 256.524085 268.331518 
L 258.14542 267.797406 
L 259.804461 267.017506 
L 261.538912 265.952142 
L 263.348775 264.571484 
L 265.234049 262.846128 
L 267.194733 260.747586 
L 269.268534 258.199565 
L 271.493157 255.103517 
L 273.830896 251.462413 
L 276.357162 247.104464 
L 279.071956 241.963412 
L 282.012983 235.90335 
L 285.255653 228.69443 
L 288.875379 220.088913 
L 293.136097 209.361581 
L 298.754212 194.565106 
L 311.611777 160.503446 
L 315.872496 149.969963 
L 319.454515 141.68564 
L 322.621775 134.902963 
L 325.487391 129.276946 
L 328.126773 124.57555 
L 330.539924 120.71684 
L 332.802252 117.50778 
L 334.913758 114.889318 
L 336.874443 112.798149 
L 338.759716 111.107592 
L 340.531873 109.813016 
L 342.228619 108.847275 
L 343.849955 108.179293 
L 345.395879 107.777647 
L 346.904098 107.60951 
L 348.412317 107.664017 
L 349.920535 107.942242 
L 351.428754 108.444648 
L 352.974679 109.192097 
L 354.596014 110.227908 
L 356.29276 111.586069 
L 358.064917 113.300588 
L 359.912485 115.404918 
L 361.87317 117.984172 
L 363.94697 121.088923 
L 366.171593 124.833852 
L 368.547038 129.283116 
L 371.11101 134.574338 
L 373.901215 140.860734 
L 376.993063 148.397043 
L 380.499672 157.554166 
L 384.76039 169.338958 
L 391.58508 188.9857 
L 398.145832 207.633688 
L 402.067201 218.118427 
L 405.272166 226.075981 
L 408.062371 232.429329 
L 410.550932 237.563626 
L 412.81326 241.740323 
L 414.887061 245.119544 
L 416.81004 247.841317 
L 418.582197 249.979606 
L 420.241238 251.646292 
L 421.787162 252.89852 
L 423.257676 253.81419 
L 424.652778 254.43073 
L 426.010175 254.792699 
L 427.329866 254.918788 
L 428.649558 254.822591 
L 429.969249 254.505709 
L 431.326646 253.952625 
L 432.759454 253.124135 
L 434.267673 251.988822 
L 435.889008 250.480306 
L 437.62346 248.556258 
L 439.546439 246.080891 
L 441.733356 242.885429 
L 442.035 242.417087 
L 442.035 242.417087 
" style="fill:none;stroke:#7f7f7f;stroke-linecap:square;stroke-width:1.5;"/>
   </g>
   <g id="patch_3">
    <path d="M 65.018 325.24 
L 65.018 14.76 
" style="fill:none;stroke:#000000;stroke-linecap:square;stroke-linejoin:miter;stroke-width:0.8;"/>
   </g>
   <g id="patch_4">
    <path d="M 442.035 325.24 
L 442.035 14.76 
" style="fill:none;stroke:#000000;stroke-linecap:square;stroke-linejoin:miter;stroke-width:0.8;"/>
   </g>
   <g id="patch_5">
    <path d="M 65.018 325.24 
L 442.035 325.24 
" style="fill:none;stroke:#000000;stroke-linecap:square;stroke-linejoin:miter;stroke-width:0.8;"/>
   </g>
   <g id="patch_6">
    <path d="M 65.018 14.76 
L 442.035 14.76 
" style="fill:none;stroke:#000000;stroke-linecap:square;stroke-linejoin:miter;stroke-width:0.8;"/>
   </g>
   <g id="legend_1">
    <g id="patch_7">
     <path d="M 332.767812 140.185 
L 435.035 140.185 
Q 437.035 140.185 437.035 138.185 
L 437.035 21.76 
Q 437.035 19.76 435.035 19.76 
L 332.767812 19.76 
Q 330.767812 19.76 330.767812 21.76 
L 330.767812 138.185 
Q 330.767812 140.185 332.767812 140.185 
z
" style="fill:#ffffff;opacity:0.8;stroke:#cccccc;stroke-linejoin:miter;"/>
    </g>
    <g id="line2d_23">
     <path d="M 334.767812 27.858438 
L 354.767812 27.858438 
" style="fill:none;stroke:#1f77b4;stroke-linecap:square;stroke-width:2;"/>
    </g>
    <g id="line2d_24"/>
    <g id="text_18">
     <!-- exact -->
     <g transform="translate(362.767812 31.358438)scale(0.1 -0.1)">
      <defs>
       <path d="M 56.203125 29.59375 
L 56.203125 25.203125 
L 14.890625 25.203125 
Q 15.484375 15.921875 20.484375 11.0625 
Q 25.484375 6.203125 34.421875 6.203125 
Q 39.59375 6.203125 44.453125 7.46875 
Q 49.3125 8.734375 54.109375 11.28125 
L 54.109375 2.78125 
Q 49.265625 0.734375 44.1875 -0.34375 
Q 39.109375 -1.421875 33.890625 -1.421875 
Q 20.796875 -1.421875 13.15625 6.1875 
Q 5.515625 13.8125 5.515625 26.8125 
Q 5.515625 40.234375 12.765625 48.109375 
Q 20.015625 56 32.328125 56 
Q 43.359375 56 49.78125 48.890625 
Q 56.203125 41.796875 56.203125 29.59375 
z
M 47.21875 32.234375 
Q 47.125 39.59375 43.09375 43.984375 
Q 39.0625 48.390625 32.421875 48.390625 
Q 24.90625 48.390625 20.390625 44.140625 
Q 15.875 39.890625 15.1875 32.171875 
z
" id="DejaVuSans-101"/>
       <path d="M 54.890625 54.6875 
L 35.109375 28.078125 
L 55.90625 0 
L 45.3125 0 
L 29.390625 21.484375 
L 13.484375 0 
L 2.875 0 
L 24.125 28.609375 
L 4.6875 54.6875 
L 15.28125 54.6875 
L 29.78125 35.203125 
L 44.28125 54.6875 
z
" id="DejaVuSans-120"/>
       <path d="M 48.78125 52.59375 
L 48.78125 44.1875 
Q 44.96875 46.296875 41.140625 47.34375 
Q 37.3125 48.390625 33.40625 48.390625 
Q 24.65625 48.390625 19.8125 42.84375 
Q 14.984375 37.3125 14.984375 27.296875 
Q 14.984375 17.28125 19.8125 11.734375 
Q 24.65625 6.203125 33.40625 6.203125 
Q 37.3125 6.203125 41.140625 7.25 
Q 44.96875 8.296875 48.78125 10.40625 
L 48.78125 2.09375 
Q 45.015625 0.34375 40.984375 -0.53125 
Q 36.96875 -1.421875 32.421875 -1.421875 
Q 20.0625 -1.421875 12.78125 6.34375 
Q 5.515625 14.109375 5.515625 27.296875 
Q 5.515625 40.671875 12.859375 48.328125 
Q 20.21875 56 33.015625 56 
Q 37.15625 56 41.109375 55.140625 
Q 45.0625 54.296875 48.78125 52.59375 
z
" id="DejaVuSans-99"/>
       <path d="M 18.3125 70.21875 
L 18.3125 54.6875 
L 36.8125 54.6875 
L 36.8125 47.703125 
L 18.3125 47.703125 
L 18.3125 18.015625 
Q 18.3125 11.328125 20.140625 9.421875 
Q 21.96875 7.515625 27.59375 7.515625 
L 36.8125 7.515625 
L 36.8125 0 
L 27.59375 0 
Q 17.1875 0 13.234375 3.875 
Q 9.28125 7.765625 9.28125 18.015625 
L 9.28125 47.703125 
L 2.6875 47.703125 
L 2.6875 54.6875 
L 9.28125 54.6875 
L 9.28125 70.21875 
z
" id="DejaVuSans-116"/>
      </defs>
      <use xlink:href="#DejaVuSans-101"/>
      <use x="59.773438" xlink:href="#DejaVuSans-120"/>
      <use x="118.953125" xlink:href="#DejaVuSans-97"/>
      <use x="180.232422" xlink:href="#DejaVuSans-99"/>
      <use x="235.212891" xlink:href="#DejaVuSans-116"/>
     </g>
    </g>
    <g id="line2d_25">
     <path d="M 334.767812 42.536563 
L 354.767812 42.536563 
" style="fill:none;stroke:#ff7f0e;stroke-linecap:square;stroke-width:1.5;"/>
    </g>
    <g id="line2d_26"/>
    <g id="text_19">
     <!-- Polynomial 4 -->
     <g transform="translate(362.767812 46.036563)scale(0.1 -0.1)">
      <defs>
       <path d="M 19.671875 64.796875 
L 19.671875 37.40625 
L 32.078125 37.40625 
Q 38.96875 37.40625 42.71875 40.96875 
Q 46.484375 44.53125 46.484375 51.125 
Q 46.484375 57.671875 42.71875 61.234375 
Q 38.96875 64.796875 32.078125 64.796875 
z
M 9.8125 72.90625 
L 32.078125 72.90625 
Q 44.34375 72.90625 50.609375 67.359375 
Q 56.890625 61.8125 56.890625 51.125 
Q 56.890625 40.328125 50.609375 34.8125 
Q 44.34375 29.296875 32.078125 29.296875 
L 19.671875 29.296875 
L 19.671875 0 
L 9.8125 0 
z
" id="DejaVuSans-80"/>
       <path d="M 30.609375 48.390625 
Q 23.390625 48.390625 19.1875 42.75 
Q 14.984375 37.109375 14.984375 27.296875 
Q 14.984375 17.484375 19.15625 11.84375 
Q 23.34375 6.203125 30.609375 6.203125 
Q 37.796875 6.203125 41.984375 11.859375 
Q 46.1875 17.53125 46.1875 27.296875 
Q 46.1875 37.015625 41.984375 42.703125 
Q 37.796875 48.390625 30.609375 48.390625 
z
M 30.609375 56 
Q 42.328125 56 49.015625 48.375 
Q 55.71875 40.765625 55.71875 27.296875 
Q 55.71875 13.875 49.015625 6.21875 
Q 42.328125 -1.421875 30.609375 -1.421875 
Q 18.84375 -1.421875 12.171875 6.21875 
Q 5.515625 13.875 5.515625 27.296875 
Q 5.515625 40.765625 12.171875 48.375 
Q 18.84375 56 30.609375 56 
z
" id="DejaVuSans-111"/>
       <path d="M 9.421875 75.984375 
L 18.40625 75.984375 
L 18.40625 0 
L 9.421875 0 
z
" id="DejaVuSans-108"/>
       <path d="M 32.171875 -5.078125 
Q 28.375 -14.84375 24.75 -17.8125 
Q 21.140625 -20.796875 15.09375 -20.796875 
L 7.90625 -20.796875 
L 7.90625 -13.28125 
L 13.1875 -13.28125 
Q 16.890625 -13.28125 18.9375 -11.515625 
Q 21 -9.765625 23.484375 -3.21875 
L 25.09375 0.875 
L 2.984375 54.6875 
L 12.5 54.6875 
L 29.59375 11.921875 
L 46.6875 54.6875 
L 56.203125 54.6875 
z
" id="DejaVuSans-121"/>
       <path d="M 52 44.1875 
Q 55.375 50.25 60.0625 53.125 
Q 64.75 56 71.09375 56 
Q 79.640625 56 84.28125 50.015625 
Q 88.921875 44.046875 88.921875 33.015625 
L 88.921875 0 
L 79.890625 0 
L 79.890625 32.71875 
Q 79.890625 40.578125 77.09375 44.375 
Q 74.3125 48.1875 68.609375 48.1875 
Q 61.625 48.1875 57.5625 43.546875 
Q 53.515625 38.921875 53.515625 30.90625 
L 53.515625 0 
L 44.484375 0 
L 44.484375 32.71875 
Q 44.484375 40.625 41.703125 44.40625 
Q 38.921875 48.1875 33.109375 48.1875 
Q 26.21875 48.1875 22.15625 43.53125 
Q 18.109375 38.875 18.109375 30.90625 
L 18.109375 0 
L 9.078125 0 
L 9.078125 54.6875 
L 18.109375 54.6875 
L 18.109375 46.1875 
Q 21.1875 51.21875 25.484375 53.609375 
Q 29.78125 56 35.6875 56 
Q 41.65625 56 45.828125 52.96875 
Q 50 49.953125 52 44.1875 
z
" id="DejaVuSans-109"/>
       <path d="M 9.421875 54.6875 
L 18.40625 54.6875 
L 18.40625 0 
L 9.421875 0 
z
M 9.421875 75.984375 
L 18.40625 75.984375 
L 18.40625 64.59375 
L 9.421875 64.59375 
z
" id="DejaVuSans-105"/>
      </defs>
      <use xlink:href="#DejaVuSans-80"/>
      <use x="56.677734" xlink:href="#DejaVuSans-111"/>
      <use x="117.859375" xlink:href="#DejaVuSans-108"/>
      <use x="145.642578" xlink:href="#DejaVuSans-121"/>
      <use x="204.822266" xlink:href="#DejaVuSans-110"/>
      <use x="268.201172" xlink:href="#DejaVuSans-111"/>
      <use x="329.382812" xlink:href="#DejaVuSans-109"/>
      <use x="426.794922" xlink:href="#DejaVuSans-105"/>
      <use x="454.578125" xlink:href="#DejaVuSans-97"/>
      <use x="515.857422" xlink:href="#DejaVuSans-108"/>
      <use x="543.640625" xlink:href="#DejaVuSans-32"/>
      <use x="575.427734" xlink:href="#DejaVuSans-52"/>
     </g>
    </g>
    <g id="line2d_27">
     <path d="M 334.767812 57.214688 
L 354.767812 57.214688 
" style="fill:none;stroke:#2ca02c;stroke-linecap:square;stroke-width:1.5;"/>
    </g>
    <g id="line2d_28"/>
    <g id="text_20">
     <!-- Polynomial 5 -->
     <g transform="translate(362.767812 60.714688)scale(0.1 -0.1)">
      <use xlink:href="#DejaVuSans-80"/>
      <use x="56.677734" xlink:href="#DejaVuSans-111"/>
      <use x="117.859375" xlink:href="#DejaVuSans-108"/>
      <use x="145.642578" xlink:href="#DejaVuSans-121"/>
      <use x="204.822266" xlink:href="#DejaVuSans-110"/>
      <use x="268.201172" xlink:href="#DejaVuSans-111"/>
      <use x="329.382812" xlink:href="#DejaVuSans-109"/>
      <use x="426.794922" xlink:href="#DejaVuSans-105"/>
      <use x="454.578125" xlink:href="#DejaVuSans-97"/>
      <use x="515.857422" xlink:href="#DejaVuSans-108"/>
      <use x="543.640625" xlink:href="#DejaVuSans-32"/>
      <use x="575.427734" xlink:href="#DejaVuSans-53"/>
     </g>
    </g>
    <g id="line2d_29">
     <path d="M 334.767812 71.892813 
L 354.767812 71.892813 
" style="fill:none;stroke:#d62728;stroke-linecap:square;stroke-width:1.5;"/>
    </g>
    <g id="line2d_30"/>
    <g id="text_21">
     <!-- Polynomial 6 -->
     <g transform="translate(362.767812 75.392813)scale(0.1 -0.1)">
      <use xlink:href="#DejaVuSans-80"/>
      <use x="56.677734" xlink:href="#DejaVuSans-111"/>
      <use x="117.859375" xlink:href="#DejaVuSans-108"/>
      <use x="145.642578" xlink:href="#DejaVuSans-121"/>
      <use x="204.822266" xlink:href="#DejaVuSans-110"/>
      <use x="268.201172" xlink:href="#DejaVuSans-111"/>
      <use x="329.382812" xlink:href="#DejaVuSans-109"/>
      <use x="426.794922" xlink:href="#DejaVuSans-105"/>
      <use x="454.578125" xlink:href="#DejaVuSans-97"/>
      <use x="515.857422" xlink:href="#DejaVuSans-108"/>
      <use x="543.640625" xlink:href="#DejaVuSans-32"/>
      <use x="575.427734" xlink:href="#DejaVuSans-54"/>
     </g>
    </g>
    <g id="line2d_31">
     <path d="M 334.767812 86.570938 
L 354.767812 86.570938 
" style="fill:none;stroke:#9467bd;stroke-linecap:square;stroke-width:1.5;"/>
    </g>
    <g id="line2d_32"/>
    <g id="text_22">
     <!-- Polynomial 7 -->
     <g transform="translate(362.767812 90.070938)scale(0.1 -0.1)">
      <use xlink:href="#DejaVuSans-80"/>
      <use x="56.677734" xlink:href="#DejaVuSans-111"/>
      <use x="117.859375" xlink:href="#DejaVuSans-108"/>
      <use x="145.642578" xlink:href="#DejaVuSans-121"/>
      <use x="204.822266" xlink:href="#DejaVuSans-110"/>
      <use x="268.201172" xlink:href="#DejaVuSans-111"/>
      <use x="329.382812" xlink:href="#DejaVuSans-109"/>
      <use x="426.794922" xlink:href="#DejaVuSans-105"/>
      <use x="454.578125" xlink:href="#DejaVuSans-97"/>
      <use x="515.857422" xlink:href="#DejaVuSans-108"/>
      <use x="543.640625" xlink:href="#DejaVuSans-32"/>
      <use x="575.427734" xlink:href="#DejaVuSans-55"/>
     </g>
    </g>
    <g id="line2d_33">
     <path d="M 334.767812 101.249063 
L 354.767812 101.249063 
" style="fill:none;stroke:#8c564b;stroke-linecap:square;stroke-width:1.5;"/>
    </g>
    <g id="line2d_34"/>
    <g id="text_23">
     <!-- Polynomial 8 -->
     <g transform="translate(362.767812 104.749063)scale(0.1 -0.1)">
      <use xlink:href="#DejaVuSans-80"/>
      <use x="56.677734" xlink:href="#DejaVuSans-111"/>
      <use x="117.859375" xlink:href="#DejaVuSans-108"/>
      <use x="145.642578" xlink:href="#DejaVuSans-121"/>
      <use x="204.822266" xlink:href="#DejaVuSans-110"/>
      <use x="268.201172" xlink:href="#DejaVuSans-111"/>
      <use x="329.382812" xlink:href="#DejaVuSans-109"/>
      <use x="426.794922" xlink:href="#DejaVuSans-105"/>
      <use x="454.578125" xlink:href="#DejaVuSans-97"/>
      <use x="515.857422" xlink:href="#DejaVuSans-108"/>
      <use x="543.640625" xlink:href="#DejaVuSans-32"/>
      <use x="575.427734" xlink:href="#DejaVuSans-56"/>
     </g>
    </g>
    <g id="line2d_35">
     <path d="M 334.767812 115.927188 
L 354.767812 115.927188 
" style="fill:none;stroke:#e377c2;stroke-linecap:square;stroke-width:1.5;"/>
    </g>
    <g id="line2d_36"/>
    <g id="text_24">
     <!-- Polynomial 9 -->
     <g transform="translate(362.767812 119.427188)scale(0.1 -0.1)">
      <defs>
       <path d="M 10.984375 1.515625 
L 10.984375 10.5 
Q 14.703125 8.734375 18.5 7.8125 
Q 22.3125 6.890625 25.984375 6.890625 
Q 35.75 6.890625 40.890625 13.453125 
Q 46.046875 20.015625 46.78125 33.40625 
Q 43.953125 29.203125 39.59375 26.953125 
Q 35.25 24.703125 29.984375 24.703125 
Q 19.046875 24.703125 12.671875 31.3125 
Q 6.296875 37.9375 6.296875 49.421875 
Q 6.296875 60.640625 12.9375 67.421875 
Q 19.578125 74.21875 30.609375 74.21875 
Q 43.265625 74.21875 49.921875 64.515625 
Q 56.59375 54.828125 56.59375 36.375 
Q 56.59375 19.140625 48.40625 8.859375 
Q 40.234375 -1.421875 26.421875 -1.421875 
Q 22.703125 -1.421875 18.890625 -0.6875 
Q 15.09375 0.046875 10.984375 1.515625 
z
M 30.609375 32.421875 
Q 37.25 32.421875 41.125 36.953125 
Q 45.015625 41.5 45.015625 49.421875 
Q 45.015625 57.28125 41.125 61.84375 
Q 37.25 66.40625 30.609375 66.40625 
Q 23.96875 66.40625 20.09375 61.84375 
Q 16.21875 57.28125 16.21875 49.421875 
Q 16.21875 41.5 20.09375 36.953125 
Q 23.96875 32.421875 30.609375 32.421875 
z
" id="DejaVuSans-57"/>
      </defs>
      <use xlink:href="#DejaVuSans-80"/>
      <use x="56.677734" xlink:href="#DejaVuSans-111"/>
      <use x="117.859375" xlink:href="#DejaVuSans-108"/>
      <use x="145.642578" xlink:href="#DejaVuSans-121"/>
      <use x="204.822266" xlink:href="#DejaVuSans-110"/>
      <use x="268.201172" xlink:href="#DejaVuSans-111"/>
      <use x="329.382812" xlink:href="#DejaVuSans-109"/>
      <use x="426.794922" xlink:href="#DejaVuSans-105"/>
      <use x="454.578125" xlink:href="#DejaVuSans-97"/>
      <use x="515.857422" xlink:href="#DejaVuSans-108"/>
      <use x="543.640625" xlink:href="#DejaVuSans-32"/>
      <use x="575.427734" xlink:href="#DejaVuSans-57"/>
     </g>
    </g>
    <g id="line2d_37">
     <path d="M 334.767812 130.605313 
L 354.767812 130.605313 
" style="fill:none;stroke:#7f7f7f;stroke-linecap:square;stroke-width:1.5;"/>
    </g>
    <g id="line2d_38"/>
    <g id="text_25">
     <!-- Polynomial 10 -->
     <g transform="translate(362.767812 134.105313)scale(0.1 -0.1)">
      <use xlink:href="#DejaVuSans-80"/>
      <use x="56.677734" xlink:href="#DejaVuSans-111"/>
      <use x="117.859375" xlink:href="#DejaVuSans-108"/>
      <use x="145.642578" xlink:href="#DejaVuSans-121"/>
      <use x="204.822266" xlink:href="#DejaVuSans-110"/>
      <use x="268.201172" xlink:href="#DejaVuSans-111"/>
      <use x="329.382812" xlink:href="#DejaVuSans-109"/>
      <use x="426.794922" xlink:href="#DejaVuSans-105"/>
      <use x="454.578125" xlink:href="#DejaVuSans-97"/>
      <use x="515.857422" xlink:href="#DejaVuSans-108"/>
      <use x="543.640625" xlink:href="#DejaVuSans-32"/>
      <use x="575.427734" xlink:href="#DejaVuSans-49"/>
      <use x="639.050781" xlink:href="#DejaVuSans-48"/>
     </g>
    </g>
   </g>
   <g id="line2d_39">
    <path clip-path="url(#pb2d96c5cde)" d="M 65.018 247.62 
L 74.859128 247.509678 
L 78.516558 247.235628 
L 81.382174 246.802913 
L 83.870735 246.203877 
L 86.095358 245.443936 
L 88.206864 244.48715 
L 90.205254 243.337619 
L 92.165939 241.950416 
L 94.088918 240.315082 
L 96.011897 238.384978 
L 97.972581 236.092968 
L 99.970971 233.40203 
L 102.007067 230.277044 
L 104.118573 226.61696 
L 106.30549 222.370981 
L 108.605524 217.408577 
L 111.05638 211.57505 
L 113.695762 204.696465 
L 116.561378 196.590827 
L 119.841754 186.616726 
L 123.87624 173.589932 
L 137.223976 129.861664 
L 140.202708 121.216531 
L 142.76668 114.44113 
L 145.029009 109.073247 
L 147.065104 104.794938 
L 148.912672 101.407761 
L 150.609418 98.739952 
L 152.193048 96.651745 
L 153.663561 95.07298 
L 155.020958 93.932019 
L 156.302944 93.138744 
L 157.509519 92.647751 
L 158.678389 92.410409 
L 159.809553 92.404893 
L 160.940717 92.619898 
L 162.109587 93.072922 
L 163.316162 93.784854 
L 164.598148 94.810003 
L 165.955545 96.192107 
L 167.388353 97.974353 
L 168.934277 100.258314 
L 170.631023 103.178983 
L 172.478591 106.825668 
L 174.476981 111.279394 
L 176.701604 116.802948 
L 179.190165 123.601505 
L 182.055781 132.102518 
L 185.600095 143.357597 
L 191.142799 161.818038 
L 197.590434 183.095266 
L 201.285571 194.527104 
L 204.415125 203.510665 
L 207.205329 210.866879 
L 209.769301 217.022613 
L 212.182452 222.255032 
L 214.482485 226.720619 
L 216.669403 230.491539 
L 218.780909 233.698394 
L 220.817004 236.397996 
L 222.815394 238.688105 
L 224.813784 240.641402 
L 226.774469 242.252521 
L 228.772859 243.608746 
L 230.808954 244.722494 
L 232.92046 245.62484 
L 235.182789 246.346248 
L 237.633644 246.890999 
L 240.423849 247.278108 
L 243.817341 247.515427 
L 248.719053 247.613631 
L 261.576618 247.570309 
L 265.799631 247.355777 
L 268.891479 246.981176 
L 271.493157 246.444797 
L 273.79319 245.748219 
L 275.942402 244.866349 
L 277.978498 243.790092 
L 279.939182 242.502434 
L 281.862161 240.973992 
L 283.78514 239.159094 
L 285.708119 237.036815 
L 287.668804 234.537838 
L 289.667194 231.626902 
L 291.740994 228.205339 
L 293.890206 224.221067 
L 296.152534 219.544393 
L 298.527979 214.110288 
L 301.054246 207.766643 
L 303.806745 200.240303 
L 306.898594 191.112337 
L 310.518319 179.699172 
L 315.608557 162.83139 
L 323.149651 137.886422 
L 326.618555 127.213622 
L 329.446465 119.204605 
L 331.897321 112.904339 
L 334.084238 107.87074 
L 336.082628 103.813206 
L 337.89249 100.623143 
L 339.551531 98.128922 
L 341.097455 96.192107 
L 342.530263 94.742112 
L 343.849955 93.707637 
L 345.094235 93.001333 
L 346.30081 92.568773 
L 347.46968 92.388344 
L 348.600844 92.437987 
L 349.732008 92.708034 
L 350.900878 93.217602 
L 352.107453 93.987327 
L 353.389439 95.07298 
L 354.746836 96.517841 
L 356.217349 98.4175 
L 357.800979 100.839503 
L 359.497725 103.848919 
L 361.345293 107.586271 
L 363.381388 112.220633 
L 365.643717 117.943187 
L 368.207689 125.063406 
L 371.186421 134.027045 
L 374.919262 146.013912 
L 382.498062 171.341687 
L 387.248951 186.734987 
L 390.75556 197.362913 
L 393.771998 205.816408 
L 396.486792 212.785629 
L 399.013058 218.675543 
L 401.388503 223.663481 
L 403.650831 227.907067 
L 405.800043 231.480306 
L 407.873844 234.512114 
L 409.909939 237.103799 
L 411.908329 239.293246 
L 413.869014 241.120052 
L 415.829698 242.651114 
L 417.828088 243.933127 
L 419.864183 244.97943 
L 422.013395 245.833844 
L 424.313429 246.505808 
L 426.839695 247.00834 
L 429.743017 247.354172 
L 433.400447 247.554349 
L 439.244795 247.619275 
L 442.035 247.62 
L 442.035 247.62 
" style="fill:none;stroke:#1f77b4;stroke-linecap:square;stroke-width:2;"/>
   </g>
  </g>
 </g>
 <defs>
  <clipPath id="pb2d96c5cde">
   <rect height="310.48" width="377.017" x="65.018" y="14.76"/>
  </clipPath>
 </defs>
</svg>
