<?xml version="1.0" encoding="utf-8" standalone="no"?>
<!DOCTYPE svg PUBLIC "-//W3C//DTD SVG 1.1//EN"
  "http://www.w3.org/Graphics/SVG/1.1/DTD/svg11.dtd">
<!-- Created with matplotlib (https://matplotlib.org/) -->
<svg height="345.6pt" version="1.1" viewBox="0 0 460.8 345.6" width="460.8pt" xmlns="http://www.w3.org/2000/svg" xmlns:xlink="http://www.w3.org/1999/xlink">
 <metadata>
  <rdf:RDF xmlns:cc="http://creativecommons.org/ns#" xmlns:dc="http://purl.org/dc/elements/1.1/" xmlns:rdf="http://www.w3.org/1999/02/22-rdf-syntax-ns#">
   <cc:Work>
    <dc:type rdf:resource="http://purl.org/dc/dcmitype/StillImage"/>
    <dc:date>2021-02-17T22:40:57.520775</dc:date>
    <dc:format>image/svg+xml</dc:format>
    <dc:creator>
     <cc:Agent>
      <dc:title>Matplotlib v3.3.4, https://matplotlib.org/</dc:title>
     </cc:Agent>
    </dc:creator>
   </cc:Work>
  </rdf:RDF>
 </metadata>
 <defs>
  <style type="text/css">*{stroke-linecap:butt;stroke-linejoin:round;}</style>
 </defs>
 <g id="figure_1">
  <g id="patch_1">
   <path d="M 0 345.6 
L 460.8 345.6 
L 460.8 0 
L 0 0 
z
" style="fill:#ffffff;"/>
  </g>
  <g id="axes_1">
   <g id="patch_2">
    <path d="M 40.718 303.64 
L 450 303.64 
L 450 10.8 
L 40.718 10.8 
z
" style="fill:#ffffff;"/>
   </g>
   <g id="matplotlib.axis_1">
    <g id="xtick_1">
     <g id="line2d_1">
      <defs>
       <path d="M 0 0 
L 0 3.5 
" id="m10d8c3626f" style="stroke:#000000;stroke-width:0.8;"/>
      </defs>
      <g>
       <use style="stroke:#000000;stroke-width:0.8;" x="40.718" xlink:href="#m10d8c3626f" y="303.64"/>
      </g>
     </g>
     <g id="text_1">
      <!-- 0.00 -->
      <g transform="translate(29.585188 318.238437)scale(0.1 -0.1)">
       <defs>
        <path d="M 31.78125 66.40625 
Q 24.171875 66.40625 20.328125 58.90625 
Q 16.5 51.421875 16.5 36.375 
Q 16.5 21.390625 20.328125 13.890625 
Q 24.171875 6.390625 31.78125 6.390625 
Q 39.453125 6.390625 43.28125 13.890625 
Q 47.125 21.390625 47.125 36.375 
Q 47.125 51.421875 43.28125 58.90625 
Q 39.453125 66.40625 31.78125 66.40625 
z
M 31.78125 74.21875 
Q 44.046875 74.21875 50.515625 64.515625 
Q 56.984375 54.828125 56.984375 36.375 
Q 56.984375 17.96875 50.515625 8.265625 
Q 44.046875 -1.421875 31.78125 -1.421875 
Q 19.53125 -1.421875 13.0625 8.265625 
Q 6.59375 17.96875 6.59375 36.375 
Q 6.59375 54.828125 13.0625 64.515625 
Q 19.53125 74.21875 31.78125 74.21875 
z
" id="DejaVuSans-48"/>
        <path d="M 10.6875 12.40625 
L 21 12.40625 
L 21 0 
L 10.6875 0 
z
" id="DejaVuSans-46"/>
       </defs>
       <use xlink:href="#DejaVuSans-48"/>
       <use x="63.623047" xlink:href="#DejaVuSans-46"/>
       <use x="95.410156" xlink:href="#DejaVuSans-48"/>
       <use x="159.033203" xlink:href="#DejaVuSans-48"/>
      </g>
     </g>
    </g>
    <g id="xtick_2">
     <g id="line2d_2">
      <g>
       <use style="stroke:#000000;stroke-width:0.8;" x="143.0385" xlink:href="#m10d8c3626f" y="303.64"/>
      </g>
     </g>
     <g id="text_2">
      <!-- 0.25 -->
      <g transform="translate(131.905687 318.238437)scale(0.1 -0.1)">
       <defs>
        <path d="M 19.1875 8.296875 
L 53.609375 8.296875 
L 53.609375 0 
L 7.328125 0 
L 7.328125 8.296875 
Q 12.9375 14.109375 22.625 23.890625 
Q 32.328125 33.6875 34.8125 36.53125 
Q 39.546875 41.84375 41.421875 45.53125 
Q 43.3125 49.21875 43.3125 52.78125 
Q 43.3125 58.59375 39.234375 62.25 
Q 35.15625 65.921875 28.609375 65.921875 
Q 23.96875 65.921875 18.8125 64.3125 
Q 13.671875 62.703125 7.8125 59.421875 
L 7.8125 69.390625 
Q 13.765625 71.78125 18.9375 73 
Q 24.125 74.21875 28.421875 74.21875 
Q 39.75 74.21875 46.484375 68.546875 
Q 53.21875 62.890625 53.21875 53.421875 
Q 53.21875 48.921875 51.53125 44.890625 
Q 49.859375 40.875 45.40625 35.40625 
Q 44.1875 33.984375 37.640625 27.21875 
Q 31.109375 20.453125 19.1875 8.296875 
z
" id="DejaVuSans-50"/>
        <path d="M 10.796875 72.90625 
L 49.515625 72.90625 
L 49.515625 64.59375 
L 19.828125 64.59375 
L 19.828125 46.734375 
Q 21.96875 47.46875 24.109375 47.828125 
Q 26.265625 48.1875 28.421875 48.1875 
Q 40.625 48.1875 47.75 41.5 
Q 54.890625 34.8125 54.890625 23.390625 
Q 54.890625 11.625 47.5625 5.09375 
Q 40.234375 -1.421875 26.90625 -1.421875 
Q 22.3125 -1.421875 17.546875 -0.640625 
Q 12.796875 0.140625 7.71875 1.703125 
L 7.71875 11.625 
Q 12.109375 9.234375 16.796875 8.0625 
Q 21.484375 6.890625 26.703125 6.890625 
Q 35.15625 6.890625 40.078125 11.328125 
Q 45.015625 15.765625 45.015625 23.390625 
Q 45.015625 31 40.078125 35.4375 
Q 35.15625 39.890625 26.703125 39.890625 
Q 22.75 39.890625 18.8125 39.015625 
Q 14.890625 38.140625 10.796875 36.28125 
z
" id="DejaVuSans-53"/>
       </defs>
       <use xlink:href="#DejaVuSans-48"/>
       <use x="63.623047" xlink:href="#DejaVuSans-46"/>
       <use x="95.410156" xlink:href="#DejaVuSans-50"/>
       <use x="159.033203" xlink:href="#DejaVuSans-53"/>
      </g>
     </g>
    </g>
    <g id="xtick_3">
     <g id="line2d_3">
      <g>
       <use style="stroke:#000000;stroke-width:0.8;" x="245.359" xlink:href="#m10d8c3626f" y="303.64"/>
      </g>
     </g>
     <g id="text_3">
      <!-- 0.50 -->
      <g transform="translate(234.226188 318.238437)scale(0.1 -0.1)">
       <use xlink:href="#DejaVuSans-48"/>
       <use x="63.623047" xlink:href="#DejaVuSans-46"/>
       <use x="95.410156" xlink:href="#DejaVuSans-53"/>
       <use x="159.033203" xlink:href="#DejaVuSans-48"/>
      </g>
     </g>
    </g>
    <g id="xtick_4">
     <g id="line2d_4">
      <g>
       <use style="stroke:#000000;stroke-width:0.8;" x="347.6795" xlink:href="#m10d8c3626f" y="303.64"/>
      </g>
     </g>
     <g id="text_4">
      <!-- 0.75 -->
      <g transform="translate(336.546688 318.238437)scale(0.1 -0.1)">
       <defs>
        <path d="M 8.203125 72.90625 
L 55.078125 72.90625 
L 55.078125 68.703125 
L 28.609375 0 
L 18.3125 0 
L 43.21875 64.59375 
L 8.203125 64.59375 
z
" id="DejaVuSans-55"/>
       </defs>
       <use xlink:href="#DejaVuSans-48"/>
       <use x="63.623047" xlink:href="#DejaVuSans-46"/>
       <use x="95.410156" xlink:href="#DejaVuSans-55"/>
       <use x="159.033203" xlink:href="#DejaVuSans-53"/>
      </g>
     </g>
    </g>
    <g id="text_5">
     <!-- x -->
     <g transform="translate(242.399625 331.916562)scale(0.1 -0.1)">
      <defs>
       <path d="M 54.890625 54.6875 
L 35.109375 28.078125 
L 55.90625 0 
L 45.3125 0 
L 29.390625 21.484375 
L 13.484375 0 
L 2.875 0 
L 24.125 28.609375 
L 4.6875 54.6875 
L 15.28125 54.6875 
L 29.78125 35.203125 
L 44.28125 54.6875 
z
" id="DejaVuSans-120"/>
      </defs>
      <use xlink:href="#DejaVuSans-120"/>
     </g>
    </g>
   </g>
   <g id="matplotlib.axis_2">
    <g id="ytick_1">
     <g id="line2d_5">
      <defs>
       <path d="M 0 0 
L -3.5 0 
" id="m8485ade9a1" style="stroke:#000000;stroke-width:0.8;"/>
      </defs>
      <g>
       <use style="stroke:#000000;stroke-width:0.8;" x="40.718" xlink:href="#m8485ade9a1" y="266.09641"/>
      </g>
     </g>
     <g id="text_6">
      <!-- 0 -->
      <g transform="translate(27.3555 269.895629)scale(0.1 -0.1)">
       <use xlink:href="#DejaVuSans-48"/>
      </g>
     </g>
    </g>
    <g id="ytick_2">
     <g id="line2d_6">
      <g>
       <use style="stroke:#000000;stroke-width:0.8;" x="40.718" xlink:href="#m8485ade9a1" y="216.038291"/>
      </g>
     </g>
     <g id="text_7">
      <!-- 1 -->
      <g transform="translate(27.3555 219.837509)scale(0.1 -0.1)">
       <defs>
        <path d="M 12.40625 8.296875 
L 28.515625 8.296875 
L 28.515625 63.921875 
L 10.984375 60.40625 
L 10.984375 69.390625 
L 28.421875 72.90625 
L 38.28125 72.90625 
L 38.28125 8.296875 
L 54.390625 8.296875 
L 54.390625 0 
L 12.40625 0 
z
" id="DejaVuSans-49"/>
       </defs>
       <use xlink:href="#DejaVuSans-49"/>
      </g>
     </g>
    </g>
    <g id="ytick_3">
     <g id="line2d_7">
      <g>
       <use style="stroke:#000000;stroke-width:0.8;" x="40.718" xlink:href="#m8485ade9a1" y="165.980171"/>
      </g>
     </g>
     <g id="text_8">
      <!-- 2 -->
      <g transform="translate(27.3555 169.77939)scale(0.1 -0.1)">
       <use xlink:href="#DejaVuSans-50"/>
      </g>
     </g>
    </g>
    <g id="ytick_4">
     <g id="line2d_8">
      <g>
       <use style="stroke:#000000;stroke-width:0.8;" x="40.718" xlink:href="#m8485ade9a1" y="115.922051"/>
      </g>
     </g>
     <g id="text_9">
      <!-- 3 -->
      <g transform="translate(27.3555 119.72127)scale(0.1 -0.1)">
       <defs>
        <path d="M 40.578125 39.3125 
Q 47.65625 37.796875 51.625 33 
Q 55.609375 28.21875 55.609375 21.1875 
Q 55.609375 10.40625 48.1875 4.484375 
Q 40.765625 -1.421875 27.09375 -1.421875 
Q 22.515625 -1.421875 17.65625 -0.515625 
Q 12.796875 0.390625 7.625 2.203125 
L 7.625 11.71875 
Q 11.71875 9.328125 16.59375 8.109375 
Q 21.484375 6.890625 26.8125 6.890625 
Q 36.078125 6.890625 40.9375 10.546875 
Q 45.796875 14.203125 45.796875 21.1875 
Q 45.796875 27.640625 41.28125 31.265625 
Q 36.765625 34.90625 28.71875 34.90625 
L 20.21875 34.90625 
L 20.21875 43.015625 
L 29.109375 43.015625 
Q 36.375 43.015625 40.234375 45.921875 
Q 44.09375 48.828125 44.09375 54.296875 
Q 44.09375 59.90625 40.109375 62.90625 
Q 36.140625 65.921875 28.71875 65.921875 
Q 24.65625 65.921875 20.015625 65.03125 
Q 15.375 64.15625 9.8125 62.3125 
L 9.8125 71.09375 
Q 15.4375 72.65625 20.34375 73.4375 
Q 25.25 74.21875 29.59375 74.21875 
Q 40.828125 74.21875 47.359375 69.109375 
Q 53.90625 64.015625 53.90625 55.328125 
Q 53.90625 49.265625 50.4375 45.09375 
Q 46.96875 40.921875 40.578125 39.3125 
z
" id="DejaVuSans-51"/>
       </defs>
       <use xlink:href="#DejaVuSans-51"/>
      </g>
     </g>
    </g>
    <g id="ytick_5">
     <g id="line2d_9">
      <g>
       <use style="stroke:#000000;stroke-width:0.8;" x="40.718" xlink:href="#m8485ade9a1" y="65.863932"/>
      </g>
     </g>
     <g id="text_10">
      <!-- 4 -->
      <g transform="translate(27.3555 69.66315)scale(0.1 -0.1)">
       <defs>
        <path d="M 37.796875 64.3125 
L 12.890625 25.390625 
L 37.796875 25.390625 
z
M 35.203125 72.90625 
L 47.609375 72.90625 
L 47.609375 25.390625 
L 58.015625 25.390625 
L 58.015625 17.1875 
L 47.609375 17.1875 
L 47.609375 0 
L 37.796875 0 
L 37.796875 17.1875 
L 4.890625 17.1875 
L 4.890625 26.703125 
z
" id="DejaVuSans-52"/>
       </defs>
       <use xlink:href="#DejaVuSans-52"/>
      </g>
     </g>
    </g>
    <g id="ytick_6">
     <g id="line2d_10">
      <g>
       <use style="stroke:#000000;stroke-width:0.8;" x="40.718" xlink:href="#m8485ade9a1" y="15.805812"/>
      </g>
     </g>
     <g id="text_11">
      <!-- 5 -->
      <g transform="translate(27.3555 19.605031)scale(0.1 -0.1)">
       <use xlink:href="#DejaVuSans-53"/>
      </g>
     </g>
    </g>
    <g id="text_12">
     <!-- $f(x)$ and $f_h(x)$ -->
     <g transform="translate(21.275813 189.42)rotate(-90)scale(0.1 -0.1)">
      <defs>
       <path d="M 47.796875 75.984375 
L 46.390625 68.5 
L 37.796875 68.5 
Q 32.90625 68.5 30.6875 66.578125 
Q 28.46875 64.65625 27.390625 59.515625 
L 26.421875 54.6875 
L 41.21875 54.6875 
L 39.890625 47.703125 
L 25.09375 47.703125 
L 15.828125 0 
L 6.78125 0 
L 16.109375 47.703125 
L 7.515625 47.703125 
L 8.796875 54.6875 
L 17.390625 54.6875 
L 18.109375 58.5 
Q 19.96875 68.171875 24.625 72.078125 
Q 29.296875 75.984375 39.3125 75.984375 
z
" id="DejaVuSans-Oblique-102"/>
       <path d="M 31 75.875 
Q 24.46875 64.65625 21.28125 53.65625 
Q 18.109375 42.671875 18.109375 31.390625 
Q 18.109375 20.125 21.3125 9.0625 
Q 24.515625 -2 31 -13.1875 
L 23.1875 -13.1875 
Q 15.875 -1.703125 12.234375 9.375 
Q 8.59375 20.453125 8.59375 31.390625 
Q 8.59375 42.28125 12.203125 53.3125 
Q 15.828125 64.359375 23.1875 75.875 
z
" id="DejaVuSans-40"/>
       <path d="M 60.015625 54.6875 
L 34.90625 27.875 
L 50.296875 0 
L 39.984375 0 
L 28.421875 21.6875 
L 8.296875 0 
L -2.59375 0 
L 24.3125 28.8125 
L 10.015625 54.6875 
L 20.3125 54.6875 
L 30.8125 34.90625 
L 49.125 54.6875 
z
" id="DejaVuSans-Oblique-120"/>
       <path d="M 8.015625 75.875 
L 15.828125 75.875 
Q 23.140625 64.359375 26.78125 53.3125 
Q 30.421875 42.28125 30.421875 31.390625 
Q 30.421875 20.453125 26.78125 9.375 
Q 23.140625 -1.703125 15.828125 -13.1875 
L 8.015625 -13.1875 
Q 14.5 -2 17.703125 9.0625 
Q 20.90625 20.125 20.90625 31.390625 
Q 20.90625 42.671875 17.703125 53.65625 
Q 14.5 64.65625 8.015625 75.875 
z
" id="DejaVuSans-41"/>
       <path id="DejaVuSans-32"/>
       <path d="M 34.28125 27.484375 
Q 23.390625 27.484375 19.1875 25 
Q 14.984375 22.515625 14.984375 16.5 
Q 14.984375 11.71875 18.140625 8.90625 
Q 21.296875 6.109375 26.703125 6.109375 
Q 34.1875 6.109375 38.703125 11.40625 
Q 43.21875 16.703125 43.21875 25.484375 
L 43.21875 27.484375 
z
M 52.203125 31.203125 
L 52.203125 0 
L 43.21875 0 
L 43.21875 8.296875 
Q 40.140625 3.328125 35.546875 0.953125 
Q 30.953125 -1.421875 24.3125 -1.421875 
Q 15.921875 -1.421875 10.953125 3.296875 
Q 6 8.015625 6 15.921875 
Q 6 25.140625 12.171875 29.828125 
Q 18.359375 34.515625 30.609375 34.515625 
L 43.21875 34.515625 
L 43.21875 35.40625 
Q 43.21875 41.609375 39.140625 45 
Q 35.0625 48.390625 27.6875 48.390625 
Q 23 48.390625 18.546875 47.265625 
Q 14.109375 46.140625 10.015625 43.890625 
L 10.015625 52.203125 
Q 14.9375 54.109375 19.578125 55.046875 
Q 24.21875 56 28.609375 56 
Q 40.484375 56 46.34375 49.84375 
Q 52.203125 43.703125 52.203125 31.203125 
z
" id="DejaVuSans-97"/>
       <path d="M 54.890625 33.015625 
L 54.890625 0 
L 45.90625 0 
L 45.90625 32.71875 
Q 45.90625 40.484375 42.875 44.328125 
Q 39.84375 48.1875 33.796875 48.1875 
Q 26.515625 48.1875 22.3125 43.546875 
Q 18.109375 38.921875 18.109375 30.90625 
L 18.109375 0 
L 9.078125 0 
L 9.078125 54.6875 
L 18.109375 54.6875 
L 18.109375 46.1875 
Q 21.34375 51.125 25.703125 53.5625 
Q 30.078125 56 35.796875 56 
Q 45.21875 56 50.046875 50.171875 
Q 54.890625 44.34375 54.890625 33.015625 
z
" id="DejaVuSans-110"/>
       <path d="M 45.40625 46.390625 
L 45.40625 75.984375 
L 54.390625 75.984375 
L 54.390625 0 
L 45.40625 0 
L 45.40625 8.203125 
Q 42.578125 3.328125 38.25 0.953125 
Q 33.9375 -1.421875 27.875 -1.421875 
Q 17.96875 -1.421875 11.734375 6.484375 
Q 5.515625 14.40625 5.515625 27.296875 
Q 5.515625 40.1875 11.734375 48.09375 
Q 17.96875 56 27.875 56 
Q 33.9375 56 38.25 53.625 
Q 42.578125 51.265625 45.40625 46.390625 
z
M 14.796875 27.296875 
Q 14.796875 17.390625 18.875 11.75 
Q 22.953125 6.109375 30.078125 6.109375 
Q 37.203125 6.109375 41.296875 11.75 
Q 45.40625 17.390625 45.40625 27.296875 
Q 45.40625 37.203125 41.296875 42.84375 
Q 37.203125 48.484375 30.078125 48.484375 
Q 22.953125 48.484375 18.875 42.84375 
Q 14.796875 37.203125 14.796875 27.296875 
z
" id="DejaVuSans-100"/>
       <path d="M 55.71875 33.015625 
L 49.3125 0 
L 40.28125 0 
L 46.6875 32.671875 
Q 47.125 34.96875 47.359375 36.71875 
Q 47.609375 38.484375 47.609375 39.5 
Q 47.609375 43.609375 45.015625 45.890625 
Q 42.4375 48.1875 37.796875 48.1875 
Q 30.5625 48.1875 25.265625 43.296875 
Q 19.96875 38.421875 18.40625 30.328125 
L 12.5 0 
L 3.515625 0 
L 18.3125 75.984375 
L 27.296875 75.984375 
L 21.484375 46.09375 
Q 24.90625 50.6875 30.21875 53.34375 
Q 35.546875 56 41.40625 56 
Q 48.640625 56 52.609375 52.09375 
Q 56.59375 48.1875 56.59375 41.109375 
Q 56.59375 39.359375 56.375 37.359375 
Q 56.15625 35.359375 55.71875 33.015625 
z
" id="DejaVuSans-Oblique-104"/>
      </defs>
      <use transform="translate(0 0.015625)" xlink:href="#DejaVuSans-Oblique-102"/>
      <use transform="translate(35.205078 0.015625)" xlink:href="#DejaVuSans-40"/>
      <use transform="translate(74.21875 0.015625)" xlink:href="#DejaVuSans-Oblique-120"/>
      <use transform="translate(133.398438 0.015625)" xlink:href="#DejaVuSans-41"/>
      <use transform="translate(172.412109 0.015625)" xlink:href="#DejaVuSans-32"/>
      <use transform="translate(204.199219 0.015625)" xlink:href="#DejaVuSans-97"/>
      <use transform="translate(265.478516 0.015625)" xlink:href="#DejaVuSans-110"/>
      <use transform="translate(328.857422 0.015625)" xlink:href="#DejaVuSans-100"/>
      <use transform="translate(392.333984 0.015625)" xlink:href="#DejaVuSans-32"/>
      <use transform="translate(424.121094 0.015625)" xlink:href="#DejaVuSans-Oblique-102"/>
      <use transform="translate(459.326172 -16.390625)scale(0.7)" xlink:href="#DejaVuSans-Oblique-104"/>
      <use transform="translate(506.425781 0.015625)" xlink:href="#DejaVuSans-40"/>
      <use transform="translate(545.439453 0.015625)" xlink:href="#DejaVuSans-Oblique-120"/>
      <use transform="translate(604.619141 0.015625)" xlink:href="#DejaVuSans-41"/>
     </g>
    </g>
   </g>
   <g id="line2d_11">
    <path clip-path="url(#p01c1c793d0)" d="M 40.718 216.038291 
L 45.26103 222.508667 
L 49.722204 228.478334 
L 54.101521 233.968244 
L 58.358054 238.952719 
L 62.532731 243.504756 
L 66.625551 247.643962 
L 70.636514 251.389559 
L 74.565621 254.760385 
L 78.4538 257.80544 
L 82.260123 260.50632 
L 85.984589 262.880901 
L 89.668127 264.968445 
L 93.310737 266.777601 
L 96.87149 268.300826 
L 100.391316 269.568217 
L 103.870213 270.588041 
L 107.34911 271.376397 
L 110.787078 271.928077 
L 114.225047 272.253703 
L 117.622088 272.353419 
L 121.019128 272.23243 
L 124.416169 271.890738 
L 127.854138 271.320219 
L 131.292107 270.523646 
L 134.771004 269.487483 
L 138.249901 268.219852 
L 141.769726 266.701737 
L 143.324997 266.09641 
L 450 266.09641 
L 450 266.09641 
" style="fill:none;stroke:#ff7f0e;stroke-linecap:square;stroke-width:1.5;"/>
   </g>
   <g id="line2d_12">
    <path clip-path="url(#p01c1c793d0)" d="M 40.718 266.09641 
L 43.255548 270.613441 
L 45.71124 274.535854 
L 48.044148 277.853163 
L 50.295199 280.676307 
L 52.464393 283.045761 
L 54.551732 285.000529 
L 56.557213 286.578141 
L 58.480839 287.814658 
L 60.363536 288.762513 
L 62.164377 289.426306 
L 63.965218 289.852645 
L 65.72513 290.039873 
L 67.485043 290.000318 
L 69.244955 289.733979 
L 71.004868 289.240856 
L 72.805709 288.50151 
L 74.647478 287.499749 
L 76.530175 286.219016 
L 78.494729 284.605896 
L 80.50021 282.667686 
L 82.587549 280.337604 
L 84.756743 277.578116 
L 87.007794 274.35022 
L 89.340702 270.613441 
L 91.796394 266.24948 
L 94.333942 261.276184 
L 96.953347 255.647926 
L 99.695536 249.217584 
L 102.519582 242.019808 
L 105.466412 233.886504 
L 108.495099 224.864708 
L 111.646571 214.764126 
L 114.879898 203.645409 
L 118.236011 191.294836 
L 121.67398 177.787899 
L 125.234733 162.886224 
L 128.918271 146.493775 
L 132.683665 128.710206 
L 136.571844 109.25728 
L 140.54188 88.252684 
L 143.0385 74.452547 
L 143.079428 74.682458 
L 147.254105 97.489121 
L 151.305996 118.404672 
L 155.235104 137.538395 
L 159.082354 155.178216 
L 162.806821 171.222641 
L 166.408502 185.77212 
L 169.887399 198.923795 
L 173.28444 210.910889 
L 176.558696 221.665022 
L 179.751095 231.394521 
L 182.82071 240.046091 
L 185.767541 247.702524 
L 188.632515 254.536698 
L 191.374704 260.515066 
L 194.035037 265.788799 
L 196.572586 270.336247 
L 199.028278 274.288097 
L 201.361185 277.633371 
L 203.612236 280.483498 
L 205.781431 282.878955 
L 207.868769 284.858743 
L 209.874251 286.460395 
L 211.797876 287.719971 
L 213.680573 288.690394 
L 215.522342 289.388591 
L 217.323183 289.831119 
L 219.083096 290.03417 
L 220.843008 290.010437 
L 222.602921 289.75992 
L 224.362833 289.282619 
L 226.163674 288.559463 
L 228.005443 287.57426 
L 229.88814 286.310453 
L 231.811766 284.751116 
L 233.817248 282.836946 
L 235.904586 280.531885 
L 238.07378 277.798399 
L 240.324831 274.597487 
L 242.657739 270.888672 
L 245.072503 266.630008 
L 245.481785 266.09641 
L 450 266.09641 
L 450 266.09641 
" style="fill:none;stroke:#2ca02c;stroke-linecap:square;stroke-width:1.5;"/>
   </g>
   <g id="line2d_13">
    <path clip-path="url(#p01c1c793d0)" d="M 40.718 266.09641 
L 143.079428 266.196446 
L 145.53512 271.905475 
L 147.908956 276.876046 
L 150.160007 281.09174 
L 152.329201 284.695685 
L 154.41654 287.738818 
L 156.381093 290.222342 
L 158.26379 292.256063 
L 160.064631 293.884193 
L 161.783616 295.149022 
L 163.461672 296.111179 
L 165.057872 296.776511 
L 166.613143 297.190432 
L 168.168415 297.373044 
L 169.682758 297.328592 
L 171.197102 297.064846 
L 172.752373 296.565706 
L 174.348573 295.812912 
L 175.985701 294.787722 
L 177.663757 293.470913 
L 179.42367 291.800574 
L 181.265439 289.735376 
L 183.189064 287.23207 
L 185.194546 284.245482 
L 187.281884 280.728519 
L 189.451079 276.632163 
L 191.743058 271.81505 
L 194.116894 266.296322 
L 196.572586 260.020236 
L 199.151062 252.809704 
L 201.811395 244.703893 
L 204.594513 235.499606 
L 207.500415 225.09881 
L 210.488174 213.563097 
L 213.598717 200.64634 
L 216.791116 186.427591 
L 220.106301 170.63045 
L 223.544269 153.138141 
L 227.064095 134.058388 
L 230.706704 113.065615 
L 234.431171 90.28917 
L 238.278421 65.369037 
L 242.248457 38.169697 
L 245.359 15.805812 
L 245.440856 16.406189 
L 249.574605 45.892023 
L 253.626496 73.208139 
L 257.555604 98.197152 
L 261.361926 120.997464 
L 265.045464 141.743151 
L 268.647146 160.773245 
L 272.126043 177.97682 
L 275.482155 193.476415 
L 278.756411 207.559967 
L 281.907883 220.147141 
L 284.936569 231.348947 
L 287.8834 241.406064 
L 290.707446 250.264909 
L 293.408707 258.024959 
L 296.028112 264.883482 
L 298.524732 270.809803 
L 300.898567 275.891863 
L 303.190547 280.287367 
L 305.400669 284.050135 
L 307.488008 287.174963 
L 309.493489 289.784794 
L 311.417115 291.92672 
L 313.258884 293.645916 
L 315.018796 294.985632 
L 316.696853 295.987195 
L 318.333981 296.704828 
L 319.889252 297.149184 
L 321.444524 297.362231 
L 322.958867 297.347414 
L 324.473211 297.113302 
L 326.028482 296.644598 
L 327.624682 295.92304 
L 329.26181 294.929887 
L 330.939866 293.645916 
L 332.699779 292.010017 
L 334.50062 290.029478 
L 336.383317 287.627329 
L 338.34787 284.759359 
L 340.435209 281.307751 
L 342.604403 277.279314 
L 344.855454 272.623108 
L 347.22929 267.187998 
L 347.802285 266.09641 
L 450 266.09641 
L 450 266.09641 
" style="fill:none;stroke:#d62728;stroke-linecap:square;stroke-width:1.5;"/>
   </g>
   <g id="line2d_14">
    <path clip-path="url(#p01c1c793d0)" d="M 40.718 266.09641 
L 245.399928 266.173006 
L 247.937477 270.682433 
L 250.393169 274.597487 
L 252.726076 277.907805 
L 254.977127 280.724203 
L 257.146322 283.087157 
L 259.23366 285.035669 
L 261.239142 286.607271 
L 263.162767 287.838023 
L 265.045464 288.780236 
L 266.846305 289.438633 
L 268.606218 289.852645 
L 270.36613 290.039873 
L 272.126043 290.000318 
L 273.885955 289.733979 
L 275.645868 289.240856 
L 277.446709 288.50151 
L 279.288478 287.499749 
L 281.171175 286.219016 
L 283.135729 284.605896 
L 285.14121 282.667686 
L 287.228549 280.337604 
L 289.397743 277.578116 
L 291.648794 274.35022 
L 293.981702 270.613441 
L 296.437394 266.24948 
L 298.974942 261.276184 
L 301.594347 255.647926 
L 304.336536 249.217584 
L 307.160582 242.019808 
L 310.107412 233.886504 
L 313.136099 224.864708 
L 316.287571 214.764126 
L 319.520898 203.645409 
L 322.877011 191.294836 
L 326.31498 177.787899 
L 329.875733 162.886224 
L 333.559271 146.493775 
L 337.324665 128.710206 
L 341.212844 109.25728 
L 345.18288 88.252684 
L 347.6795 74.452547 
L 347.720428 74.682458 
L 351.895105 97.489121 
L 355.946996 118.404672 
L 359.876104 137.538395 
L 363.723354 155.178216 
L 367.447821 171.222641 
L 371.049502 185.77212 
L 374.528399 198.923795 
L 377.92544 210.910889 
L 381.199696 221.665022 
L 384.392095 231.394521 
L 387.46171 240.046091 
L 390.408541 247.702524 
L 393.273515 254.536698 
L 396.015704 260.515066 
L 398.676037 265.788799 
L 401.213586 270.336247 
L 403.669278 274.288097 
L 406.002185 277.633371 
L 408.253236 280.483498 
L 410.422431 282.878955 
L 412.509769 284.858743 
L 414.515251 286.460395 
L 416.438876 287.719971 
L 418.321573 288.690394 
L 420.163342 289.388591 
L 421.964183 289.831119 
L 423.724096 290.03417 
L 425.484008 290.010437 
L 427.243921 289.75992 
L 429.003833 289.282619 
L 430.804674 288.559463 
L 432.646443 287.57426 
L 434.52914 286.310453 
L 436.452766 284.751116 
L 438.458248 282.836946 
L 440.545586 280.531885 
L 442.71478 277.798399 
L 444.965831 274.597487 
L 447.298739 270.888672 
L 449.713503 266.630008 
L 450 266.09641 
L 450 266.09641 
" style="fill:none;stroke:#9467bd;stroke-linecap:square;stroke-width:1.5;"/>
   </g>
   <g id="line2d_15">
    <path clip-path="url(#p01c1c793d0)" d="M 40.718 266.09641 
L 347.884141 266.196126 
L 351.485823 267.820027 
L 355.046576 269.181592 
L 358.566401 270.289182 
L 362.045298 271.151063 
L 365.483267 271.775404 
L 368.921236 272.17369 
L 372.318276 272.345201 
L 375.715317 272.296008 
L 379.112358 272.026111 
L 382.550326 271.528253 
L 385.988295 270.80434 
L 389.426264 269.854373 
L 392.905161 268.66299 
L 396.424986 267.222021 
L 399.98574 265.523201 
L 403.587421 263.558167 
L 407.270959 261.291856 
L 410.995425 258.736521 
L 414.76082 255.883417 
L 418.608071 252.688219 
L 422.537178 249.132859 
L 426.548141 245.198883 
L 430.640961 240.867454 
L 434.77471 236.167518 
L 439.031242 230.986462 
L 443.369632 225.349197 
L 447.789877 219.235347 
L 450 216.038291 
L 450 216.038291 
" style="fill:none;stroke:#8c564b;stroke-linecap:square;stroke-width:1.5;"/>
   </g>
   <g id="line2d_16">
    <path clip-path="url(#p01c1c793d0)" d="M 40.718 266.09641 
L 44.115041 249.831349 
L 47.430225 235.035252 
L 50.622624 221.792683 
L 53.692239 209.98981 
L 56.63907 199.517176 
L 59.504044 190.141361 
L 62.246233 181.911578 
L 64.906566 174.623106 
L 67.444115 168.30943 
L 69.858878 162.880067 
L 72.191786 158.170836 
L 74.401909 154.195439 
L 76.530175 150.814178 
L 78.576585 147.976461 
L 80.50021 145.678641 
L 82.341979 143.814261 
L 84.101892 142.33954 
L 85.779948 141.212643 
L 87.417076 140.375922 
L 89.013276 139.809919 
L 90.568548 139.495662 
L 92.082891 139.414665 
L 93.597234 139.555659 
L 95.111578 139.918644 
L 96.666849 140.52251 
L 98.263049 141.385743 
L 99.900177 142.527316 
L 101.619162 144.005199 
L 103.379074 145.814608 
L 105.220843 148.029243 
L 107.144469 150.692886 
L 109.14995 153.851264 
L 111.278217 157.628832 
L 113.48834 162.01578 
L 115.780319 167.064645 
L 118.195083 172.934097 
L 120.691703 179.596001 
L 123.311108 187.234161 
L 126.012369 195.806659 
L 128.836415 205.524055 
L 131.742317 216.329025 
L 134.771004 228.460506 
L 137.922475 242.026494 
L 141.155803 256.944045 
L 143.161285 266.09641 
L 450 266.09641 
L 450 266.09641 
" style="fill:none;stroke:#e377c2;stroke-linecap:square;stroke-width:1.5;"/>
   </g>
   <g id="line2d_17">
    <path clip-path="url(#p01c1c793d0)" d="M 40.718 266.09641 
L 143.0385 266.09641 
L 146.435541 235.918249 
L 149.709797 208.792489 
L 152.861268 184.502507 
L 155.889955 162.839807 
L 158.836785 143.343919 
L 161.660831 126.123905 
L 164.362092 110.992929 
L 166.940569 97.77228 
L 169.437189 86.109196 
L 171.811025 76.057982 
L 174.062076 67.461589 
L 176.23127 60.03886 
L 178.27768 53.811007 
L 180.201306 48.642641 
L 182.043075 44.316991 
L 183.762059 40.829393 
L 185.399187 38.001286 
L 186.91353 35.813865 
L 188.346017 34.12377 
L 189.696648 32.86782 
L 190.965422 31.986443 
L 192.15234 31.42368 
L 193.29833 31.120411 
L 194.403391 31.051363 
L 195.508452 31.201643 
L 196.654442 31.589154 
L 197.800432 32.212541 
L 199.028278 33.142206 
L 200.297052 34.387326 
L 201.647682 36.030486 
L 203.080169 38.131258 
L 204.594513 40.752824 
L 206.231641 44.050276 
L 207.950625 48.030687 
L 209.751466 52.769873 
L 211.675091 58.475579 
L 213.680573 65.13171 
L 215.80884 72.985424 
L 218.018962 82.002272 
L 220.35187 92.471835 
L 222.807562 104.548455 
L 225.34511 118.16549 
L 228.005443 133.683225 
L 230.747633 151.008842 
L 233.612607 170.552868 
L 236.600365 192.504847 
L 239.66998 216.728037 
L 242.86238 243.715401 
L 245.522713 266.09641 
L 450 266.09641 
L 450 266.09641 
" style="fill:none;stroke:#7f7f7f;stroke-linecap:square;stroke-width:1.5;"/>
   </g>
   <g id="line2d_18">
    <path clip-path="url(#p01c1c793d0)" d="M 40.718 266.09641 
L 245.359 266.09641 
L 248.756041 235.918249 
L 252.030297 208.792489 
L 255.181768 184.502507 
L 258.210455 162.839807 
L 261.157285 143.343919 
L 263.981331 126.123905 
L 266.682592 110.992929 
L 269.261069 97.77228 
L 271.757689 86.109196 
L 274.131525 76.057982 
L 276.382576 67.461589 
L 278.55177 60.03886 
L 280.59818 53.811007 
L 282.521806 48.642641 
L 284.363575 44.316991 
L 286.082559 40.829393 
L 287.719687 38.001286 
L 289.23403 35.813865 
L 290.666517 34.12377 
L 292.017148 32.86782 
L 293.285922 31.986443 
L 294.47284 31.42368 
L 295.61883 31.120411 
L 296.723891 31.051363 
L 297.828952 31.201643 
L 298.974942 31.589154 
L 300.120932 32.212541 
L 301.348778 33.142206 
L 302.617552 34.387326 
L 303.968182 36.030486 
L 305.400669 38.131258 
L 306.915013 40.752824 
L 308.552141 44.050276 
L 310.271125 48.030687 
L 312.071966 52.769873 
L 313.995591 58.475579 
L 316.001073 65.13171 
L 318.12934 72.985424 
L 320.339462 82.002272 
L 322.67237 92.471835 
L 325.128062 104.548455 
L 327.66561 118.16549 
L 330.325943 133.683225 
L 333.068133 151.008842 
L 335.933107 170.552868 
L 338.920865 192.504847 
L 341.99048 216.728037 
L 345.18288 243.715401 
L 347.843213 266.09641 
L 450 266.09641 
L 450 266.09641 
" style="fill:none;stroke:#bcbd22;stroke-linecap:square;stroke-width:1.5;"/>
   </g>
   <g id="line2d_19">
    <path clip-path="url(#p01c1c793d0)" d="M 40.718 266.09641 
L 347.6795 266.09641 
L 351.076541 249.831349 
L 354.391725 235.035252 
L 357.584124 221.792683 
L 360.653739 209.98981 
L 363.60057 199.517176 
L 366.465544 190.141361 
L 369.207733 181.911578 
L 371.868066 174.623106 
L 374.405615 168.30943 
L 376.820378 162.880067 
L 379.153286 158.170836 
L 381.363409 154.195439 
L 383.491675 150.814178 
L 385.538085 147.976461 
L 387.46171 145.678641 
L 389.303479 143.814261 
L 391.063392 142.33954 
L 392.741448 141.212643 
L 394.378576 140.375922 
L 395.974776 139.809919 
L 397.530048 139.495662 
L 399.044391 139.414665 
L 400.558734 139.555659 
L 402.073078 139.918644 
L 403.628349 140.52251 
L 405.224549 141.385743 
L 406.861677 142.527316 
L 408.580662 144.005199 
L 410.340574 145.814608 
L 412.182343 148.029243 
L 414.105969 150.692886 
L 416.11145 153.851264 
L 418.239717 157.628832 
L 420.44984 162.01578 
L 422.741819 167.064645 
L 425.156583 172.934097 
L 427.653203 179.596001 
L 430.272608 187.234161 
L 432.973869 195.806659 
L 435.797915 205.524055 
L 438.703817 216.329025 
L 441.732504 228.460506 
L 444.883975 242.026494 
L 448.117303 256.944045 
L 450 266.09641 
L 450 266.09641 
" style="fill:none;stroke:#17becf;stroke-linecap:square;stroke-width:1.5;"/>
   </g>
   <g id="patch_3">
    <path d="M 40.718 303.64 
L 40.718 10.8 
" style="fill:none;stroke:#000000;stroke-linecap:square;stroke-linejoin:miter;stroke-width:0.8;"/>
   </g>
   <g id="patch_4">
    <path d="M 450 303.64 
L 450 10.8 
" style="fill:none;stroke:#000000;stroke-linecap:square;stroke-linejoin:miter;stroke-width:0.8;"/>
   </g>
   <g id="patch_5">
    <path d="M 40.718 303.64 
L 450 303.64 
" style="fill:none;stroke:#000000;stroke-linecap:square;stroke-linejoin:miter;stroke-width:0.8;"/>
   </g>
   <g id="patch_6">
    <path d="M 40.718 10.8 
L 450 10.8 
" style="fill:none;stroke:#000000;stroke-linecap:square;stroke-linejoin:miter;stroke-width:0.8;"/>
   </g>
   <g id="line2d_20">
    <path clip-path="url(#p01c1c793d0)" d="M 40.718 216.038291 
L 64.538212 179.631292 
L 77.185026 160.719097 
L 87.744502 145.319994 
L 97.11706 132.037671 
L 105.711982 120.23773 
L 113.692981 109.652799 
L 121.223769 100.030294 
L 128.345276 91.28674 
L 135.139357 83.292198 
L 141.646941 75.972931 
L 147.908956 69.259535 
L 153.966329 63.087985 
L 159.819062 57.438827 
L 165.508082 52.254324 
L 171.033389 47.517849 
L 176.394983 43.211379 
L 181.633793 39.286181 
L 186.749818 35.728743 
L 191.743058 32.524739 
L 196.654442 29.636191 
L 201.443041 27.074863 
L 206.149784 24.806063 
L 210.815599 22.803318 
L 215.399558 21.077038 
L 219.90166 19.616494 
L 224.362833 18.400581 
L 228.783079 17.42437 
L 233.162396 16.68265 
L 237.541714 16.166175 
L 241.880103 15.877199 
L 246.218492 15.81017 
L 250.556881 15.965163 
L 254.895271 16.342006 
L 259.274588 16.946979 
L 263.653905 17.776898 
L 268.074151 18.841728 
L 272.535325 20.146564 
L 277.037427 21.696219 
L 281.580457 23.495193 
L 286.205344 25.567047 
L 290.912087 27.92198 
L 295.700686 30.569803 
L 300.571142 33.519876 
L 305.523454 36.781035 
L 310.598551 40.391716 
L 315.796432 44.365972 
L 321.117098 48.717055 
L 326.560549 53.457268 
L 332.167712 58.636683 
L 337.938588 64.271642 
L 343.914106 70.420047 
L 350.094264 77.101066 
L 356.519991 84.378817 
L 363.191288 92.273274 
L 370.19001 100.903564 
L 377.557086 110.346475 
L 385.333444 120.679935 
L 393.641869 132.094777 
L 402.646073 144.84941 
L 412.632553 159.390385 
L 424.133378 176.543093 
L 438.703817 198.698288 
L 450 216.038291 
L 450 216.038291 
" style="fill:none;stroke:#1f77b4;stroke-linecap:square;stroke-width:4;"/>
   </g>
   <g id="line2d_21">
    <path clip-path="url(#p01c1c793d0)" d="M 40.718 216.038291 
L 50.458912 200.549656 
L 60.077039 185.671195 
L 69.613309 171.326419 
L 79.067723 157.50489 
L 88.399353 144.253524 
L 97.649126 131.501418 
L 106.817043 119.238446 
L 115.903103 107.454575 
L 124.907307 96.13986 
L 133.829655 85.284445 
L 142.629218 74.925939 
L 146.312756 70.831088 
L 151.838063 64.981455 
L 157.281514 59.539714 
L 162.643108 54.491482 
L 167.922846 49.822592 
L 173.120727 45.519093 
L 178.27768 41.53677 
L 183.352777 37.897038 
L 188.346017 34.586486 
L 193.29833 31.568055 
L 198.168785 28.856904 
L 202.998313 26.420572 
L 207.786912 24.252677 
L 212.534584 22.346893 
L 217.241327 20.696948 
L 221.907141 19.296623 
L 226.532028 18.139754 
L 231.115986 17.22023 
L 235.699945 16.526804 
L 240.242975 16.062649 
L 244.786005 15.820573 
L 247.118913 15.862387 
L 251.661943 16.162484 
L 256.204973 16.684659 
L 260.788931 17.436628 
L 265.37289 18.414696 
L 269.997776 19.630631 
L 274.622663 21.07672 
L 279.288478 22.768825 
L 283.995221 24.713109 
L 288.742892 26.915791 
L 293.531491 29.383143 
L 298.361019 32.121493 
L 303.272403 35.163644 
L 308.224715 38.493951 
L 313.258884 42.149779 
L 318.333981 46.111355 
L 323.490934 50.420713 
L 328.729743 55.091477 
L 334.009481 60.097514 
L 339.371075 65.48812 
L 344.814526 71.277462 
L 349.480341 76.541056 
L 358.238976 86.904906 
L 367.079467 97.712334 
L 376.001814 108.973016 
L 385.006018 120.696716 
L 394.092079 132.893291 
L 403.259996 145.572684 
L 412.509769 158.74493 
L 421.882327 172.480987 
L 431.336741 186.733675 
L 440.873011 201.513344 
L 450 216.038291 
L 450 216.038291 
" style="fill:none;stroke:#ff7f0e;stroke-dasharray:4,6.6;stroke-dashoffset:0;stroke-width:4;"/>
   </g>
   <g id="legend_1">
    <g id="patch_7">
     <path d="M 361.5 119.471875 
L 443 119.471875 
Q 445 119.471875 445 117.471875 
L 445 17.8 
Q 445 15.8 443 15.8 
L 361.5 15.8 
Q 359.5 15.8 359.5 17.8 
L 359.5 117.471875 
Q 359.5 119.471875 361.5 119.471875 
z
" style="fill:#ffffff;opacity:0.8;stroke:#cccccc;stroke-linejoin:miter;"/>
    </g>
    <g id="line2d_22">
     <path d="M 363.5 23.898438 
L 383.5 23.898438 
" style="fill:none;stroke:#1f77b4;stroke-linecap:square;stroke-width:4;"/>
    </g>
    <g id="line2d_23"/>
    <g id="text_13">
     <!-- Exact -->
     <g transform="translate(391.5 27.398438)scale(0.1 -0.1)">
      <defs>
       <path d="M 9.8125 72.90625 
L 55.90625 72.90625 
L 55.90625 64.59375 
L 19.671875 64.59375 
L 19.671875 43.015625 
L 54.390625 43.015625 
L 54.390625 34.71875 
L 19.671875 34.71875 
L 19.671875 8.296875 
L 56.78125 8.296875 
L 56.78125 0 
L 9.8125 0 
z
" id="DejaVuSans-69"/>
       <path d="M 48.78125 52.59375 
L 48.78125 44.1875 
Q 44.96875 46.296875 41.140625 47.34375 
Q 37.3125 48.390625 33.40625 48.390625 
Q 24.65625 48.390625 19.8125 42.84375 
Q 14.984375 37.3125 14.984375 27.296875 
Q 14.984375 17.28125 19.8125 11.734375 
Q 24.65625 6.203125 33.40625 6.203125 
Q 37.3125 6.203125 41.140625 7.25 
Q 44.96875 8.296875 48.78125 10.40625 
L 48.78125 2.09375 
Q 45.015625 0.34375 40.984375 -0.53125 
Q 36.96875 -1.421875 32.421875 -1.421875 
Q 20.0625 -1.421875 12.78125 6.34375 
Q 5.515625 14.109375 5.515625 27.296875 
Q 5.515625 40.671875 12.859375 48.328125 
Q 20.21875 56 33.015625 56 
Q 37.15625 56 41.109375 55.140625 
Q 45.0625 54.296875 48.78125 52.59375 
z
" id="DejaVuSans-99"/>
       <path d="M 18.3125 70.21875 
L 18.3125 54.6875 
L 36.8125 54.6875 
L 36.8125 47.703125 
L 18.3125 47.703125 
L 18.3125 18.015625 
Q 18.3125 11.328125 20.140625 9.421875 
Q 21.96875 7.515625 27.59375 7.515625 
L 36.8125 7.515625 
L 36.8125 0 
L 27.59375 0 
Q 17.1875 0 13.234375 3.875 
Q 9.28125 7.765625 9.28125 18.015625 
L 9.28125 47.703125 
L 2.6875 47.703125 
L 2.6875 54.6875 
L 9.28125 54.6875 
L 9.28125 70.21875 
z
" id="DejaVuSans-116"/>
      </defs>
      <use xlink:href="#DejaVuSans-69"/>
      <use x="63.183594" xlink:href="#DejaVuSans-120"/>
      <use x="122.363281" xlink:href="#DejaVuSans-97"/>
      <use x="183.642578" xlink:href="#DejaVuSans-99"/>
      <use x="238.623047" xlink:href="#DejaVuSans-116"/>
     </g>
    </g>
    <g id="line2d_24">
     <path d="M 363.5 38.576563 
L 383.5 38.576563 
" style="fill:none;stroke:#e377c2;stroke-linecap:square;stroke-width:1.5;"/>
    </g>
    <g id="line2d_25"/>
    <g id="text_14">
     <!-- $w_{0 +\frac{1}{2}} \varphi_{0 +\frac{1}{2}}$ -->
     <g transform="translate(391.5 42.076563)scale(0.1 -0.1)">
      <defs>
       <path d="M 8.5 54.6875 
L 17.390625 54.6875 
L 19.671875 10.6875 
L 40.09375 54.6875 
L 50.484375 54.6875 
L 53.515625 10.6875 
L 72.90625 54.6875 
L 81.890625 54.6875 
L 56.890625 0 
L 46.390625 0 
L 43.703125 45.3125 
L 22.796875 0 
L 12.203125 0 
z
" id="DejaVuSans-Oblique-119"/>
       <path d="M 46 62.703125 
L 46 35.5 
L 73.1875 35.5 
L 73.1875 27.203125 
L 46 27.203125 
L 46 0 
L 37.796875 0 
L 37.796875 27.203125 
L 10.59375 27.203125 
L 10.59375 35.5 
L 37.796875 35.5 
L 37.796875 62.703125 
z
" id="DejaVuSans-43"/>
       <path d="M 46.390625 47.40625 
Q 43.21875 47.40625 41.796875 40.328125 
L 35.296875 6.84375 
Q 39.890625 6.84375 45.5625 11.921875 
Q 50.6875 16.453125 52.734375 27.34375 
Q 54.640625 37.5 51.5625 42.96875 
Q 49.03125 47.40625 46.390625 47.40625 
z
M 47.859375 55.078125 
Q 54.890625 55.078125 59.671875 48.640625 
Q 64.796875 41.75 62.203125 27.34375 
Q 59.8125 14.109375 51.421875 6.25 
Q 43.5 -1.171875 33.734375 -1.171875 
L 29.9375 -20.796875 
L 21 -20.796875 
L 24.8125 -1.21875 
Q 15.046875 -1.21875 10.015625 6.25 
Q 4.828125 13.875 7.421875 27.296875 
Q 10.109375 41.265625 18.21875 48.390625 
Q 24.3125 53.71875 32.5625 55.078125 
L 31 47.125 
Q 27.59375 46 24.03125 42.1875 
Q 18.65625 36.578125 16.890625 27.296875 
Q 15.046875 17.4375 18.0625 11.8125 
Q 20.84375 6.78125 26.375 6.78125 
L 32.859375 40.328125 
Q 35.75 55.078125 47.859375 55.078125 
z
" id="DejaVuSans-Oblique-966"/>
      </defs>
      <use transform="translate(0 0.921875)" xlink:href="#DejaVuSans-Oblique-119"/>
      <use transform="translate(81.787109 -15.484375)scale(0.7)" xlink:href="#DejaVuSans-48"/>
      <use transform="translate(139.960938 -15.484375)scale(0.7)" xlink:href="#DejaVuSans-43"/>
      <use transform="translate(212.250977 15.173438)scale(0.49)" xlink:href="#DejaVuSans-49"/>
      <use transform="translate(212.250977 -43.06875)scale(0.49)" xlink:href="#DejaVuSans-50"/>
      <use transform="translate(254.910645 0.921875)" xlink:href="#DejaVuSans-Oblique-966"/>
      <use transform="translate(320.877441 -15.484375)scale(0.7)" xlink:href="#DejaVuSans-48"/>
      <use transform="translate(379.05127 -15.484375)scale(0.7)" xlink:href="#DejaVuSans-43"/>
      <use transform="translate(451.341309 15.173438)scale(0.49)" xlink:href="#DejaVuSans-49"/>
      <use transform="translate(451.341309 -43.06875)scale(0.49)" xlink:href="#DejaVuSans-50"/>
      <path d="M 212.250977 -2.326562 
L 212.250977 2.048438 
L 243.42627 2.048438 
L 243.42627 -2.326562 
L 212.250977 -2.326562 
z
"/>
      <path d="M 451.341309 -2.326562 
L 451.341309 2.048438 
L 482.516602 2.048438 
L 482.516602 -2.326562 
L 451.341309 -2.326562 
z
"/>
     </g>
    </g>
    <g id="line2d_26">
     <path d="M 363.5 55.575 
L 383.5 55.575 
" style="fill:none;stroke:#7f7f7f;stroke-linecap:square;stroke-width:1.5;"/>
    </g>
    <g id="line2d_27"/>
    <g id="text_15">
     <!-- $w_{1 +\frac{1}{2}} \varphi_{1 +\frac{1}{2}}$ -->
     <g transform="translate(391.5 59.075)scale(0.1 -0.1)">
      <use transform="translate(0 0.921875)" xlink:href="#DejaVuSans-Oblique-119"/>
      <use transform="translate(81.787109 -15.484375)scale(0.7)" xlink:href="#DejaVuSans-49"/>
      <use transform="translate(139.960938 -15.484375)scale(0.7)" xlink:href="#DejaVuSans-43"/>
      <use transform="translate(212.250977 15.173438)scale(0.49)" xlink:href="#DejaVuSans-49"/>
      <use transform="translate(212.250977 -43.06875)scale(0.49)" xlink:href="#DejaVuSans-50"/>
      <use transform="translate(254.910645 0.921875)" xlink:href="#DejaVuSans-Oblique-966"/>
      <use transform="translate(320.877441 -15.484375)scale(0.7)" xlink:href="#DejaVuSans-49"/>
      <use transform="translate(379.05127 -15.484375)scale(0.7)" xlink:href="#DejaVuSans-43"/>
      <use transform="translate(451.341309 15.173438)scale(0.49)" xlink:href="#DejaVuSans-49"/>
      <use transform="translate(451.341309 -43.06875)scale(0.49)" xlink:href="#DejaVuSans-50"/>
      <path d="M 212.250977 -2.326562 
L 212.250977 2.048438 
L 243.42627 2.048438 
L 243.42627 -2.326562 
L 212.250977 -2.326562 
z
"/>
      <path d="M 451.341309 -2.326562 
L 451.341309 2.048438 
L 482.516602 2.048438 
L 482.516602 -2.326562 
L 451.341309 -2.326562 
z
"/>
     </g>
    </g>
    <g id="line2d_28">
     <path d="M 363.5 72.573438 
L 383.5 72.573438 
" style="fill:none;stroke:#bcbd22;stroke-linecap:square;stroke-width:1.5;"/>
    </g>
    <g id="line2d_29"/>
    <g id="text_16">
     <!-- $w_{2 +\frac{1}{2}} \varphi_{2 +\frac{1}{2}}$ -->
     <g transform="translate(391.5 76.073438)scale(0.1 -0.1)">
      <use transform="translate(0 0.921875)" xlink:href="#DejaVuSans-Oblique-119"/>
      <use transform="translate(81.787109 -15.484375)scale(0.7)" xlink:href="#DejaVuSans-50"/>
      <use transform="translate(139.960938 -15.484375)scale(0.7)" xlink:href="#DejaVuSans-43"/>
      <use transform="translate(212.250977 15.173438)scale(0.49)" xlink:href="#DejaVuSans-49"/>
      <use transform="translate(212.250977 -43.06875)scale(0.49)" xlink:href="#DejaVuSans-50"/>
      <use transform="translate(254.910645 0.921875)" xlink:href="#DejaVuSans-Oblique-966"/>
      <use transform="translate(320.877441 -15.484375)scale(0.7)" xlink:href="#DejaVuSans-50"/>
      <use transform="translate(379.05127 -15.484375)scale(0.7)" xlink:href="#DejaVuSans-43"/>
      <use transform="translate(451.341309 15.173438)scale(0.49)" xlink:href="#DejaVuSans-49"/>
      <use transform="translate(451.341309 -43.06875)scale(0.49)" xlink:href="#DejaVuSans-50"/>
      <path d="M 212.250977 -2.326562 
L 212.250977 2.048438 
L 243.42627 2.048438 
L 243.42627 -2.326562 
L 212.250977 -2.326562 
z
"/>
      <path d="M 451.341309 -2.326562 
L 451.341309 2.048438 
L 482.516602 2.048438 
L 482.516602 -2.326562 
L 451.341309 -2.326562 
z
"/>
     </g>
    </g>
    <g id="line2d_30">
     <path d="M 363.5 89.571875 
L 383.5 89.571875 
" style="fill:none;stroke:#17becf;stroke-linecap:square;stroke-width:1.5;"/>
    </g>
    <g id="line2d_31"/>
    <g id="text_17">
     <!-- $w_{3 +\frac{1}{2}} \varphi_{3 +\frac{1}{2}}$ -->
     <g transform="translate(391.5 93.071875)scale(0.1 -0.1)">
      <use transform="translate(0 0.921875)" xlink:href="#DejaVuSans-Oblique-119"/>
      <use transform="translate(81.787109 -15.484375)scale(0.7)" xlink:href="#DejaVuSans-51"/>
      <use transform="translate(139.960938 -15.484375)scale(0.7)" xlink:href="#DejaVuSans-43"/>
      <use transform="translate(212.250977 15.173438)scale(0.49)" xlink:href="#DejaVuSans-49"/>
      <use transform="translate(212.250977 -43.06875)scale(0.49)" xlink:href="#DejaVuSans-50"/>
      <use transform="translate(254.910645 0.921875)" xlink:href="#DejaVuSans-Oblique-966"/>
      <use transform="translate(320.877441 -15.484375)scale(0.7)" xlink:href="#DejaVuSans-51"/>
      <use transform="translate(379.05127 -15.484375)scale(0.7)" xlink:href="#DejaVuSans-43"/>
      <use transform="translate(451.341309 15.173438)scale(0.49)" xlink:href="#DejaVuSans-49"/>
      <use transform="translate(451.341309 -43.06875)scale(0.49)" xlink:href="#DejaVuSans-50"/>
      <path d="M 212.250977 -2.326562 
L 212.250977 2.048438 
L 243.42627 2.048438 
L 243.42627 -2.326562 
L 212.250977 -2.326562 
z
"/>
      <path d="M 451.341309 -2.326562 
L 451.341309 2.048438 
L 482.516602 2.048438 
L 482.516602 -2.326562 
L 451.341309 -2.326562 
z
"/>
     </g>
    </g>
    <g id="line2d_32">
     <path d="M 363.5 109.171875 
L 383.5 109.171875 
" style="fill:none;stroke:#ff7f0e;stroke-dasharray:4,6.6;stroke-dashoffset:0;stroke-width:4;"/>
    </g>
    <g id="line2d_33"/>
    <g id="text_18">
     <!-- $\sum w_i \varphi_i$ -->
     <g transform="translate(391.5 112.671875)scale(0.1 -0.1)">
      <defs>
       <path d="M 3.8125 101.703125 
L 90.671875 101.703125 
L 90.671875 88.375 
L 24.46875 88.375 
L 70.84375 38.875 
L 22.953125 -13.875 
L 92.484375 -13.875 
L 92.484375 -27.15625 
L 1.703125 -27.15625 
L 1.703125 -16.84375 
L 51.8125 38.484375 
L 3.8125 89.5 
z
" id="DejaVuSansDisplay-8721"/>
       <path d="M 18.3125 75.984375 
L 27.296875 75.984375 
L 25.09375 64.59375 
L 16.109375 64.59375 
z
M 14.203125 54.6875 
L 23.1875 54.6875 
L 12.5 0 
L 3.515625 0 
z
" id="DejaVuSans-Oblique-105"/>
      </defs>
      <use transform="translate(0 0.296875)" xlink:href="#DejaVuSansDisplay-8721"/>
      <use transform="translate(95.263672 0.296875)" xlink:href="#DejaVuSans-Oblique-119"/>
      <use transform="translate(177.050781 -16.109375)scale(0.7)" xlink:href="#DejaVuSans-Oblique-105"/>
      <use transform="translate(199.233398 0.296875)" xlink:href="#DejaVuSans-Oblique-966"/>
      <use transform="translate(265.200195 -16.109375)scale(0.7)" xlink:href="#DejaVuSans-Oblique-105"/>
     </g>
    </g>
   </g>
  </g>
 </g>
 <defs>
  <clipPath id="p01c1c793d0">
   <rect height="292.84" width="409.282" x="40.718" y="10.8"/>
  </clipPath>
 </defs>
</svg>
