<?xml version="1.0" encoding="utf-8" standalone="no"?>
<!DOCTYPE svg PUBLIC "-//W3C//DTD SVG 1.1//EN"
  "http://www.w3.org/Graphics/SVG/1.1/DTD/svg11.dtd">
<!-- Created with matplotlib (https://matplotlib.org/) -->
<svg height="345.6pt" version="1.1" viewBox="0 0 460.8 345.6" width="460.8pt" xmlns="http://www.w3.org/2000/svg" xmlns:xlink="http://www.w3.org/1999/xlink">
 <metadata>
  <rdf:RDF xmlns:cc="http://creativecommons.org/ns#" xmlns:dc="http://purl.org/dc/elements/1.1/" xmlns:rdf="http://www.w3.org/1999/02/22-rdf-syntax-ns#">
   <cc:Work>
    <dc:type rdf:resource="http://purl.org/dc/dcmitype/StillImage"/>
    <dc:date>2021-02-17T22:37:08.506959</dc:date>
    <dc:format>image/svg+xml</dc:format>
    <dc:creator>
     <cc:Agent>
      <dc:title>Matplotlib v3.3.4, https://matplotlib.org/</dc:title>
     </cc:Agent>
    </dc:creator>
   </cc:Work>
  </rdf:RDF>
 </metadata>
 <defs>
  <style type="text/css">*{stroke-linecap:butt;stroke-linejoin:round;}</style>
 </defs>
 <g id="figure_1">
  <g id="patch_1">
   <path d="M 0 345.6 
L 460.8 345.6 
L 460.8 0 
L 0 0 
z
" style="fill:#ffffff;"/>
  </g>
  <g id="axes_1">
   <g id="patch_2">
    <path d="M 57.6 307.584 
L 414.72 307.584 
L 414.72 41.472 
L 57.6 41.472 
z
" style="fill:#ffffff;"/>
   </g>
   <g id="matplotlib.axis_1">
    <g id="xtick_1">
     <g id="line2d_1">
      <defs>
       <path d="M 0 0 
L 0 3.5 
" id="m50167e1ee4" style="stroke:#000000;stroke-width:0.8;"/>
      </defs>
      <g>
       <use style="stroke:#000000;stroke-width:0.8;" x="57.6" xlink:href="#m50167e1ee4" y="307.584"/>
      </g>
     </g>
     <g id="text_1">
      <!-- 0.0 -->
      <g transform="translate(49.648438 322.182437)scale(0.1 -0.1)">
       <defs>
        <path d="M 31.78125 66.40625 
Q 24.171875 66.40625 20.328125 58.90625 
Q 16.5 51.421875 16.5 36.375 
Q 16.5 21.390625 20.328125 13.890625 
Q 24.171875 6.390625 31.78125 6.390625 
Q 39.453125 6.390625 43.28125 13.890625 
Q 47.125 21.390625 47.125 36.375 
Q 47.125 51.421875 43.28125 58.90625 
Q 39.453125 66.40625 31.78125 66.40625 
z
M 31.78125 74.21875 
Q 44.046875 74.21875 50.515625 64.515625 
Q 56.984375 54.828125 56.984375 36.375 
Q 56.984375 17.96875 50.515625 8.265625 
Q 44.046875 -1.421875 31.78125 -1.421875 
Q 19.53125 -1.421875 13.0625 8.265625 
Q 6.59375 17.96875 6.59375 36.375 
Q 6.59375 54.828125 13.0625 64.515625 
Q 19.53125 74.21875 31.78125 74.21875 
z
" id="DejaVuSans-48"/>
        <path d="M 10.6875 12.40625 
L 21 12.40625 
L 21 0 
L 10.6875 0 
z
" id="DejaVuSans-46"/>
       </defs>
       <use xlink:href="#DejaVuSans-48"/>
       <use x="63.623047" xlink:href="#DejaVuSans-46"/>
       <use x="95.410156" xlink:href="#DejaVuSans-48"/>
      </g>
     </g>
    </g>
    <g id="xtick_2">
     <g id="line2d_2">
      <g>
       <use style="stroke:#000000;stroke-width:0.8;" x="129.024" xlink:href="#m50167e1ee4" y="307.584"/>
      </g>
     </g>
     <g id="text_2">
      <!-- 0.2 -->
      <g transform="translate(121.072438 322.182437)scale(0.1 -0.1)">
       <defs>
        <path d="M 19.1875 8.296875 
L 53.609375 8.296875 
L 53.609375 0 
L 7.328125 0 
L 7.328125 8.296875 
Q 12.9375 14.109375 22.625 23.890625 
Q 32.328125 33.6875 34.8125 36.53125 
Q 39.546875 41.84375 41.421875 45.53125 
Q 43.3125 49.21875 43.3125 52.78125 
Q 43.3125 58.59375 39.234375 62.25 
Q 35.15625 65.921875 28.609375 65.921875 
Q 23.96875 65.921875 18.8125 64.3125 
Q 13.671875 62.703125 7.8125 59.421875 
L 7.8125 69.390625 
Q 13.765625 71.78125 18.9375 73 
Q 24.125 74.21875 28.421875 74.21875 
Q 39.75 74.21875 46.484375 68.546875 
Q 53.21875 62.890625 53.21875 53.421875 
Q 53.21875 48.921875 51.53125 44.890625 
Q 49.859375 40.875 45.40625 35.40625 
Q 44.1875 33.984375 37.640625 27.21875 
Q 31.109375 20.453125 19.1875 8.296875 
z
" id="DejaVuSans-50"/>
       </defs>
       <use xlink:href="#DejaVuSans-48"/>
       <use x="63.623047" xlink:href="#DejaVuSans-46"/>
       <use x="95.410156" xlink:href="#DejaVuSans-50"/>
      </g>
     </g>
    </g>
    <g id="xtick_3">
     <g id="line2d_3">
      <g>
       <use style="stroke:#000000;stroke-width:0.8;" x="200.448" xlink:href="#m50167e1ee4" y="307.584"/>
      </g>
     </g>
     <g id="text_3">
      <!-- 0.4 -->
      <g transform="translate(192.496438 322.182437)scale(0.1 -0.1)">
       <defs>
        <path d="M 37.796875 64.3125 
L 12.890625 25.390625 
L 37.796875 25.390625 
z
M 35.203125 72.90625 
L 47.609375 72.90625 
L 47.609375 25.390625 
L 58.015625 25.390625 
L 58.015625 17.1875 
L 47.609375 17.1875 
L 47.609375 0 
L 37.796875 0 
L 37.796875 17.1875 
L 4.890625 17.1875 
L 4.890625 26.703125 
z
" id="DejaVuSans-52"/>
       </defs>
       <use xlink:href="#DejaVuSans-48"/>
       <use x="63.623047" xlink:href="#DejaVuSans-46"/>
       <use x="95.410156" xlink:href="#DejaVuSans-52"/>
      </g>
     </g>
    </g>
    <g id="xtick_4">
     <g id="line2d_4">
      <g>
       <use style="stroke:#000000;stroke-width:0.8;" x="271.872" xlink:href="#m50167e1ee4" y="307.584"/>
      </g>
     </g>
     <g id="text_4">
      <!-- 0.6 -->
      <g transform="translate(263.920438 322.182437)scale(0.1 -0.1)">
       <defs>
        <path d="M 33.015625 40.375 
Q 26.375 40.375 22.484375 35.828125 
Q 18.609375 31.296875 18.609375 23.390625 
Q 18.609375 15.53125 22.484375 10.953125 
Q 26.375 6.390625 33.015625 6.390625 
Q 39.65625 6.390625 43.53125 10.953125 
Q 47.40625 15.53125 47.40625 23.390625 
Q 47.40625 31.296875 43.53125 35.828125 
Q 39.65625 40.375 33.015625 40.375 
z
M 52.59375 71.296875 
L 52.59375 62.3125 
Q 48.875 64.0625 45.09375 64.984375 
Q 41.3125 65.921875 37.59375 65.921875 
Q 27.828125 65.921875 22.671875 59.328125 
Q 17.53125 52.734375 16.796875 39.40625 
Q 19.671875 43.65625 24.015625 45.921875 
Q 28.375 48.1875 33.59375 48.1875 
Q 44.578125 48.1875 50.953125 41.515625 
Q 57.328125 34.859375 57.328125 23.390625 
Q 57.328125 12.15625 50.6875 5.359375 
Q 44.046875 -1.421875 33.015625 -1.421875 
Q 20.359375 -1.421875 13.671875 8.265625 
Q 6.984375 17.96875 6.984375 36.375 
Q 6.984375 53.65625 15.1875 63.9375 
Q 23.390625 74.21875 37.203125 74.21875 
Q 40.921875 74.21875 44.703125 73.484375 
Q 48.484375 72.75 52.59375 71.296875 
z
" id="DejaVuSans-54"/>
       </defs>
       <use xlink:href="#DejaVuSans-48"/>
       <use x="63.623047" xlink:href="#DejaVuSans-46"/>
       <use x="95.410156" xlink:href="#DejaVuSans-54"/>
      </g>
     </g>
    </g>
    <g id="xtick_5">
     <g id="line2d_5">
      <g>
       <use style="stroke:#000000;stroke-width:0.8;" x="343.296" xlink:href="#m50167e1ee4" y="307.584"/>
      </g>
     </g>
     <g id="text_5">
      <!-- 0.8 -->
      <g transform="translate(335.344438 322.182437)scale(0.1 -0.1)">
       <defs>
        <path d="M 31.78125 34.625 
Q 24.75 34.625 20.71875 30.859375 
Q 16.703125 27.09375 16.703125 20.515625 
Q 16.703125 13.921875 20.71875 10.15625 
Q 24.75 6.390625 31.78125 6.390625 
Q 38.8125 6.390625 42.859375 10.171875 
Q 46.921875 13.96875 46.921875 20.515625 
Q 46.921875 27.09375 42.890625 30.859375 
Q 38.875 34.625 31.78125 34.625 
z
M 21.921875 38.8125 
Q 15.578125 40.375 12.03125 44.71875 
Q 8.5 49.078125 8.5 55.328125 
Q 8.5 64.0625 14.71875 69.140625 
Q 20.953125 74.21875 31.78125 74.21875 
Q 42.671875 74.21875 48.875 69.140625 
Q 55.078125 64.0625 55.078125 55.328125 
Q 55.078125 49.078125 51.53125 44.71875 
Q 48 40.375 41.703125 38.8125 
Q 48.828125 37.15625 52.796875 32.3125 
Q 56.78125 27.484375 56.78125 20.515625 
Q 56.78125 9.90625 50.3125 4.234375 
Q 43.84375 -1.421875 31.78125 -1.421875 
Q 19.734375 -1.421875 13.25 4.234375 
Q 6.78125 9.90625 6.78125 20.515625 
Q 6.78125 27.484375 10.78125 32.3125 
Q 14.796875 37.15625 21.921875 38.8125 
z
M 18.3125 54.390625 
Q 18.3125 48.734375 21.84375 45.5625 
Q 25.390625 42.390625 31.78125 42.390625 
Q 38.140625 42.390625 41.71875 45.5625 
Q 45.3125 48.734375 45.3125 54.390625 
Q 45.3125 60.0625 41.71875 63.234375 
Q 38.140625 66.40625 31.78125 66.40625 
Q 25.390625 66.40625 21.84375 63.234375 
Q 18.3125 60.0625 18.3125 54.390625 
z
" id="DejaVuSans-56"/>
       </defs>
       <use xlink:href="#DejaVuSans-48"/>
       <use x="63.623047" xlink:href="#DejaVuSans-46"/>
       <use x="95.410156" xlink:href="#DejaVuSans-56"/>
      </g>
     </g>
    </g>
    <g id="xtick_6">
     <g id="line2d_6">
      <g>
       <use style="stroke:#000000;stroke-width:0.8;" x="414.72" xlink:href="#m50167e1ee4" y="307.584"/>
      </g>
     </g>
     <g id="text_6">
      <!-- 1.0 -->
      <g transform="translate(406.768438 322.182437)scale(0.1 -0.1)">
       <defs>
        <path d="M 12.40625 8.296875 
L 28.515625 8.296875 
L 28.515625 63.921875 
L 10.984375 60.40625 
L 10.984375 69.390625 
L 28.421875 72.90625 
L 38.28125 72.90625 
L 38.28125 8.296875 
L 54.390625 8.296875 
L 54.390625 0 
L 12.40625 0 
z
" id="DejaVuSans-49"/>
       </defs>
       <use xlink:href="#DejaVuSans-49"/>
       <use x="63.623047" xlink:href="#DejaVuSans-46"/>
       <use x="95.410156" xlink:href="#DejaVuSans-48"/>
      </g>
     </g>
    </g>
    <g id="text_7">
     <!-- $x$ -->
     <g transform="translate(233.16 335.860562)scale(0.1 -0.1)">
      <defs>
       <path d="M 60.015625 54.6875 
L 34.90625 27.875 
L 50.296875 0 
L 39.984375 0 
L 28.421875 21.6875 
L 8.296875 0 
L -2.59375 0 
L 24.3125 28.8125 
L 10.015625 54.6875 
L 20.3125 54.6875 
L 30.8125 34.90625 
L 49.125 54.6875 
z
" id="DejaVuSans-Oblique-120"/>
      </defs>
      <use transform="translate(0 0.3125)" xlink:href="#DejaVuSans-Oblique-120"/>
     </g>
    </g>
   </g>
   <g id="matplotlib.axis_2">
    <g id="ytick_1">
     <g id="line2d_7">
      <defs>
       <path d="M 0 0 
L -3.5 0 
" id="m0efbc87f53" style="stroke:#000000;stroke-width:0.8;"/>
      </defs>
      <g>
       <use style="stroke:#000000;stroke-width:0.8;" x="57.6" xlink:href="#m0efbc87f53" y="298.7136"/>
      </g>
     </g>
     <g id="text_8">
      <!-- −0.2 -->
      <g transform="translate(26.317187 302.512819)scale(0.1 -0.1)">
       <defs>
        <path d="M 10.59375 35.5 
L 73.1875 35.5 
L 73.1875 27.203125 
L 10.59375 27.203125 
z
" id="DejaVuSans-8722"/>
       </defs>
       <use xlink:href="#DejaVuSans-8722"/>
       <use x="83.789062" xlink:href="#DejaVuSans-48"/>
       <use x="147.412109" xlink:href="#DejaVuSans-46"/>
       <use x="179.199219" xlink:href="#DejaVuSans-50"/>
      </g>
     </g>
    </g>
    <g id="ytick_2">
     <g id="line2d_8">
      <g>
       <use style="stroke:#000000;stroke-width:0.8;" x="57.6" xlink:href="#m0efbc87f53" y="263.232"/>
      </g>
     </g>
     <g id="text_9">
      <!-- 0.0 -->
      <g transform="translate(34.696875 267.031219)scale(0.1 -0.1)">
       <use xlink:href="#DejaVuSans-48"/>
       <use x="63.623047" xlink:href="#DejaVuSans-46"/>
       <use x="95.410156" xlink:href="#DejaVuSans-48"/>
      </g>
     </g>
    </g>
    <g id="ytick_3">
     <g id="line2d_9">
      <g>
       <use style="stroke:#000000;stroke-width:0.8;" x="57.6" xlink:href="#m0efbc87f53" y="227.7504"/>
      </g>
     </g>
     <g id="text_10">
      <!-- 0.2 -->
      <g transform="translate(34.696875 231.549619)scale(0.1 -0.1)">
       <use xlink:href="#DejaVuSans-48"/>
       <use x="63.623047" xlink:href="#DejaVuSans-46"/>
       <use x="95.410156" xlink:href="#DejaVuSans-50"/>
      </g>
     </g>
    </g>
    <g id="ytick_4">
     <g id="line2d_10">
      <g>
       <use style="stroke:#000000;stroke-width:0.8;" x="57.6" xlink:href="#m0efbc87f53" y="192.2688"/>
      </g>
     </g>
     <g id="text_11">
      <!-- 0.4 -->
      <g transform="translate(34.696875 196.068019)scale(0.1 -0.1)">
       <use xlink:href="#DejaVuSans-48"/>
       <use x="63.623047" xlink:href="#DejaVuSans-46"/>
       <use x="95.410156" xlink:href="#DejaVuSans-52"/>
      </g>
     </g>
    </g>
    <g id="ytick_5">
     <g id="line2d_11">
      <g>
       <use style="stroke:#000000;stroke-width:0.8;" x="57.6" xlink:href="#m0efbc87f53" y="156.7872"/>
      </g>
     </g>
     <g id="text_12">
      <!-- 0.6 -->
      <g transform="translate(34.696875 160.586419)scale(0.1 -0.1)">
       <use xlink:href="#DejaVuSans-48"/>
       <use x="63.623047" xlink:href="#DejaVuSans-46"/>
       <use x="95.410156" xlink:href="#DejaVuSans-54"/>
      </g>
     </g>
    </g>
    <g id="ytick_6">
     <g id="line2d_12">
      <g>
       <use style="stroke:#000000;stroke-width:0.8;" x="57.6" xlink:href="#m0efbc87f53" y="121.3056"/>
      </g>
     </g>
     <g id="text_13">
      <!-- 0.8 -->
      <g transform="translate(34.696875 125.104819)scale(0.1 -0.1)">
       <use xlink:href="#DejaVuSans-48"/>
       <use x="63.623047" xlink:href="#DejaVuSans-46"/>
       <use x="95.410156" xlink:href="#DejaVuSans-56"/>
      </g>
     </g>
    </g>
    <g id="ytick_7">
     <g id="line2d_13">
      <g>
       <use style="stroke:#000000;stroke-width:0.8;" x="57.6" xlink:href="#m0efbc87f53" y="85.824"/>
      </g>
     </g>
     <g id="text_14">
      <!-- 1.0 -->
      <g transform="translate(34.696875 89.623219)scale(0.1 -0.1)">
       <use xlink:href="#DejaVuSans-49"/>
       <use x="63.623047" xlink:href="#DejaVuSans-46"/>
       <use x="95.410156" xlink:href="#DejaVuSans-48"/>
      </g>
     </g>
    </g>
    <g id="ytick_8">
     <g id="line2d_14">
      <g>
       <use style="stroke:#000000;stroke-width:0.8;" x="57.6" xlink:href="#m0efbc87f53" y="50.3424"/>
      </g>
     </g>
     <g id="text_15">
      <!-- 1.2 -->
      <g transform="translate(34.696875 54.141619)scale(0.1 -0.1)">
       <use xlink:href="#DejaVuSans-49"/>
       <use x="63.623047" xlink:href="#DejaVuSans-46"/>
       <use x="95.410156" xlink:href="#DejaVuSans-50"/>
      </g>
     </g>
    </g>
    <g id="text_16">
     <!-- $f(x)$ and $f_h(x)$ -->
     <g transform="translate(20.2375 206.728)rotate(-90)scale(0.1 -0.1)">
      <defs>
       <path d="M 47.796875 75.984375 
L 46.390625 68.5 
L 37.796875 68.5 
Q 32.90625 68.5 30.6875 66.578125 
Q 28.46875 64.65625 27.390625 59.515625 
L 26.421875 54.6875 
L 41.21875 54.6875 
L 39.890625 47.703125 
L 25.09375 47.703125 
L 15.828125 0 
L 6.78125 0 
L 16.109375 47.703125 
L 7.515625 47.703125 
L 8.796875 54.6875 
L 17.390625 54.6875 
L 18.109375 58.5 
Q 19.96875 68.171875 24.625 72.078125 
Q 29.296875 75.984375 39.3125 75.984375 
z
" id="DejaVuSans-Oblique-102"/>
       <path d="M 31 75.875 
Q 24.46875 64.65625 21.28125 53.65625 
Q 18.109375 42.671875 18.109375 31.390625 
Q 18.109375 20.125 21.3125 9.0625 
Q 24.515625 -2 31 -13.1875 
L 23.1875 -13.1875 
Q 15.875 -1.703125 12.234375 9.375 
Q 8.59375 20.453125 8.59375 31.390625 
Q 8.59375 42.28125 12.203125 53.3125 
Q 15.828125 64.359375 23.1875 75.875 
z
" id="DejaVuSans-40"/>
       <path d="M 8.015625 75.875 
L 15.828125 75.875 
Q 23.140625 64.359375 26.78125 53.3125 
Q 30.421875 42.28125 30.421875 31.390625 
Q 30.421875 20.453125 26.78125 9.375 
Q 23.140625 -1.703125 15.828125 -13.1875 
L 8.015625 -13.1875 
Q 14.5 -2 17.703125 9.0625 
Q 20.90625 20.125 20.90625 31.390625 
Q 20.90625 42.671875 17.703125 53.65625 
Q 14.5 64.65625 8.015625 75.875 
z
" id="DejaVuSans-41"/>
       <path id="DejaVuSans-32"/>
       <path d="M 34.28125 27.484375 
Q 23.390625 27.484375 19.1875 25 
Q 14.984375 22.515625 14.984375 16.5 
Q 14.984375 11.71875 18.140625 8.90625 
Q 21.296875 6.109375 26.703125 6.109375 
Q 34.1875 6.109375 38.703125 11.40625 
Q 43.21875 16.703125 43.21875 25.484375 
L 43.21875 27.484375 
z
M 52.203125 31.203125 
L 52.203125 0 
L 43.21875 0 
L 43.21875 8.296875 
Q 40.140625 3.328125 35.546875 0.953125 
Q 30.953125 -1.421875 24.3125 -1.421875 
Q 15.921875 -1.421875 10.953125 3.296875 
Q 6 8.015625 6 15.921875 
Q 6 25.140625 12.171875 29.828125 
Q 18.359375 34.515625 30.609375 34.515625 
L 43.21875 34.515625 
L 43.21875 35.40625 
Q 43.21875 41.609375 39.140625 45 
Q 35.0625 48.390625 27.6875 48.390625 
Q 23 48.390625 18.546875 47.265625 
Q 14.109375 46.140625 10.015625 43.890625 
L 10.015625 52.203125 
Q 14.9375 54.109375 19.578125 55.046875 
Q 24.21875 56 28.609375 56 
Q 40.484375 56 46.34375 49.84375 
Q 52.203125 43.703125 52.203125 31.203125 
z
" id="DejaVuSans-97"/>
       <path d="M 54.890625 33.015625 
L 54.890625 0 
L 45.90625 0 
L 45.90625 32.71875 
Q 45.90625 40.484375 42.875 44.328125 
Q 39.84375 48.1875 33.796875 48.1875 
Q 26.515625 48.1875 22.3125 43.546875 
Q 18.109375 38.921875 18.109375 30.90625 
L 18.109375 0 
L 9.078125 0 
L 9.078125 54.6875 
L 18.109375 54.6875 
L 18.109375 46.1875 
Q 21.34375 51.125 25.703125 53.5625 
Q 30.078125 56 35.796875 56 
Q 45.21875 56 50.046875 50.171875 
Q 54.890625 44.34375 54.890625 33.015625 
z
" id="DejaVuSans-110"/>
       <path d="M 45.40625 46.390625 
L 45.40625 75.984375 
L 54.390625 75.984375 
L 54.390625 0 
L 45.40625 0 
L 45.40625 8.203125 
Q 42.578125 3.328125 38.25 0.953125 
Q 33.9375 -1.421875 27.875 -1.421875 
Q 17.96875 -1.421875 11.734375 6.484375 
Q 5.515625 14.40625 5.515625 27.296875 
Q 5.515625 40.1875 11.734375 48.09375 
Q 17.96875 56 27.875 56 
Q 33.9375 56 38.25 53.625 
Q 42.578125 51.265625 45.40625 46.390625 
z
M 14.796875 27.296875 
Q 14.796875 17.390625 18.875 11.75 
Q 22.953125 6.109375 30.078125 6.109375 
Q 37.203125 6.109375 41.296875 11.75 
Q 45.40625 17.390625 45.40625 27.296875 
Q 45.40625 37.203125 41.296875 42.84375 
Q 37.203125 48.484375 30.078125 48.484375 
Q 22.953125 48.484375 18.875 42.84375 
Q 14.796875 37.203125 14.796875 27.296875 
z
" id="DejaVuSans-100"/>
       <path d="M 55.71875 33.015625 
L 49.3125 0 
L 40.28125 0 
L 46.6875 32.671875 
Q 47.125 34.96875 47.359375 36.71875 
Q 47.609375 38.484375 47.609375 39.5 
Q 47.609375 43.609375 45.015625 45.890625 
Q 42.4375 48.1875 37.796875 48.1875 
Q 30.5625 48.1875 25.265625 43.296875 
Q 19.96875 38.421875 18.40625 30.328125 
L 12.5 0 
L 3.515625 0 
L 18.3125 75.984375 
L 27.296875 75.984375 
L 21.484375 46.09375 
Q 24.90625 50.6875 30.21875 53.34375 
Q 35.546875 56 41.40625 56 
Q 48.640625 56 52.609375 52.09375 
Q 56.59375 48.1875 56.59375 41.109375 
Q 56.59375 39.359375 56.375 37.359375 
Q 56.15625 35.359375 55.71875 33.015625 
z
" id="DejaVuSans-Oblique-104"/>
      </defs>
      <use transform="translate(0 0.015625)" xlink:href="#DejaVuSans-Oblique-102"/>
      <use transform="translate(35.205078 0.015625)" xlink:href="#DejaVuSans-40"/>
      <use transform="translate(74.21875 0.015625)" xlink:href="#DejaVuSans-Oblique-120"/>
      <use transform="translate(133.398438 0.015625)" xlink:href="#DejaVuSans-41"/>
      <use transform="translate(172.412109 0.015625)" xlink:href="#DejaVuSans-32"/>
      <use transform="translate(204.199219 0.015625)" xlink:href="#DejaVuSans-97"/>
      <use transform="translate(265.478516 0.015625)" xlink:href="#DejaVuSans-110"/>
      <use transform="translate(328.857422 0.015625)" xlink:href="#DejaVuSans-100"/>
      <use transform="translate(392.333984 0.015625)" xlink:href="#DejaVuSans-32"/>
      <use transform="translate(424.121094 0.015625)" xlink:href="#DejaVuSans-Oblique-102"/>
      <use transform="translate(459.326172 -16.390625)scale(0.7)" xlink:href="#DejaVuSans-Oblique-104"/>
      <use transform="translate(506.425781 0.015625)" xlink:href="#DejaVuSans-40"/>
      <use transform="translate(545.439453 0.015625)" xlink:href="#DejaVuSans-Oblique-120"/>
      <use transform="translate(604.619141 0.015625)" xlink:href="#DejaVuSans-41"/>
     </g>
    </g>
   </g>
   <g id="line2d_15">
    <path clip-path="url(#pbbcff493c6)" d="M 57.6 263.232 
L 59.849856 263.119339 
L 62.099712 262.781355 
L 64.349568 262.218049 
L 66.635136 261.415087 
L 68.956416 260.361567 
L 71.313408 259.04642 
L 73.741824 257.432774 
L 76.205952 255.527071 
L 78.741504 253.283981 
L 81.34848 250.67932 
L 84.02688 247.688221 
L 86.812416 244.238728 
L 89.669376 240.341997 
L 92.633472 235.915114 
L 95.668992 230.976217 
L 98.811648 225.430868 
L 102.025728 219.304757 
L 105.346944 212.491353 
L 108.775296 204.94314 
L 112.310784 196.611067 
L 115.953408 187.444551 
L 119.667456 177.490174 
L 123.48864 166.607797 
L 127.41696 154.74275 
L 131.452416 141.83883 
L 135.595008 127.838302 
L 139.844736 112.681896 
L 144.2016 96.308813 
L 146.88 85.824 
L 146.951424 86.107739 
L 151.486848 103.660146 
L 155.915136 119.914466 
L 160.200576 134.813332 
L 164.37888 148.55263 
L 168.450048 161.192141 
L 172.41408 172.790111 
L 176.306688 183.49843 
L 180.09216 193.265123 
L 183.770496 202.144351 
L 187.341696 210.18874 
L 190.80576 217.449382 
L 194.162688 223.975839 
L 197.41248 229.816139 
L 200.555136 235.016776 
L 203.626368 239.67446 
L 206.590464 243.771506 
L 209.447424 247.350322 
L 212.23296 250.489848 
L 214.947072 253.216651 
L 217.554048 255.527071 
L 220.0896 257.483981 
L 222.553728 259.111564 
L 224.982144 260.451123 
L 227.339136 261.500242 
L 229.660416 262.291766 
L 231.945984 262.836763 
L 234.19584 263.146135 
L 236.445696 263.230183 
L 238.695552 263.08891 
L 240.945408 262.722314 
L 243.195264 262.130396 
L 245.480832 261.298366 
L 247.802112 260.215326 
L 250.159104 258.870204 
L 252.58752 257.225675 
L 255.08736 255.258575 
L 257.658624 252.945061 
L 260.301312 250.260608 
L 263.015424 247.180011 
L 265.80096 243.677381 
L 268.693632 239.67446 
L 271.657728 235.186321 
L 274.72896 230.123409 
L 277.871616 224.50812 
L 281.121408 218.239032 
L 284.478336 211.269651 
L 287.906688 203.634238 
L 291.442176 195.21224 
L 295.0848 185.953075 
L 298.83456 175.804628 
L 302.691456 164.71325 
L 306.655488 152.623761 
L 310.726656 139.479446 
L 314.90496 125.222059 
L 319.154688 109.923784 
L 323.511552 93.405254 
L 325.44 85.824 
L 325.475712 85.965898 
L 330.011136 103.525515 
L 334.439424 119.786874 
L 338.760576 134.813332 
L 342.93888 148.55263 
L 347.010048 161.192141 
L 350.97408 172.790111 
L 354.866688 183.49843 
L 358.65216 193.265123 
L 362.330496 202.144351 
L 365.901696 210.18874 
L 369.36576 217.449382 
L 372.722688 223.975839 
L 375.97248 229.816139 
L 379.115136 235.016776 
L 382.186368 239.67446 
L 385.150464 243.771506 
L 388.007424 247.350322 
L 390.79296 250.489848 
L 393.507072 253.216651 
L 396.114048 255.527071 
L 398.6496 257.483981 
L 401.113728 259.111564 
L 403.542144 260.451123 
L 405.899136 261.500242 
L 408.220416 262.291766 
L 410.505984 262.836763 
L 412.75584 263.146135 
L 414.72 263.232 
L 414.72 263.232 
" style="fill:none;stroke:#ff7f0e;stroke-linecap:square;stroke-width:1.5;"/>
   </g>
   <g id="line2d_16">
    <path clip-path="url(#pbbcff493c6)" d="M 57.6 263.232 
L 59.492736 264.689264 
L 61.314048 265.818933 
L 63.099648 266.666904 
L 64.813824 267.239191 
L 66.492288 267.570073 
L 68.170752 267.673889 
L 69.813504 267.555625 
L 71.491968 267.21014 
L 73.170432 266.637589 
L 74.884608 265.818491 
L 76.670208 264.713425 
L 78.49152 263.321518 
L 80.384256 261.591734 
L 82.348416 259.491384 
L 84.384 256.986548 
L 86.52672 253.989081 
L 88.740864 250.502941 
L 91.062144 246.423845 
L 93.454848 241.764694 
L 95.954688 236.404041 
L 98.561664 230.277125 
L 101.275776 223.316413 
L 104.097024 215.451596 
L 106.989696 206.721581 
L 109.989504 196.955888 
L 113.096448 186.076806 
L 116.310528 174.00385 
L 119.631744 160.653758 
L 123.060096 145.940494 
L 126.595584 129.775247 
L 129.273984 117.657346 
L 131.416704 114.213526 
L 133.452288 111.355267 
L 135.380736 109.018973 
L 137.23776 107.110864 
L 139.02336 105.592261 
L 140.701824 104.447358 
L 142.344576 103.591981 
L 143.915904 103.019251 
L 145.45152 102.691419 
L 146.987136 102.592802 
L 148.48704 102.717762 
L 150.022656 103.072247 
L 151.558272 103.655949 
L 153.1296 104.490499 
L 154.772352 105.619596 
L 156.486528 107.077455 
L 158.272128 108.899778 
L 160.129152 111.123757 
L 162.0576 113.788069 
L 164.093184 116.99257 
L 166.200192 120.733726 
L 168.414336 125.130114 
L 170.735616 130.250906 
L 173.12832 136.077445 
L 175.62816 142.759299 
L 178.235136 150.374568 
L 180.949248 159.004697 
L 183.770496 168.73448 
L 186.69888 179.65206 
L 189.7344 191.848923 
L 192.877056 205.419905 
L 196.126848 220.463188 
L 199.483776 237.080302 
L 200.590848 242.224875 
L 203.804928 245.849816 
L 206.947584 249.062499 
L 209.983104 251.854263 
L 212.9472 254.285057 
L 215.839872 256.375974 
L 218.696832 258.168327 
L 221.482368 259.654896 
L 224.19648 260.855501 
L 226.87488 261.800489 
L 229.517568 262.499388 
L 232.124544 262.961601 
L 234.73152 263.198118 
L 237.302784 263.210316 
L 239.874048 263.002958 
L 242.481024 262.568571 
L 245.088 261.908488 
L 247.730688 261.009008 
L 250.409088 259.860728 
L 253.1232 258.454121 
L 255.908736 256.756129 
L 258.729984 254.773719 
L 261.622656 252.466679 
L 264.586752 249.814424 
L 267.622272 246.795863 
L 270.729216 243.389396 
L 271.907712 241.869915 
L 275.371776 224.427858 
L 278.728704 208.638104 
L 281.978496 194.395775 
L 285.121152 181.599343 
L 288.156672 170.150624 
L 291.085056 159.954784 
L 293.906304 150.920335 
L 296.620416 142.959135 
L 299.227392 135.986391 
L 301.727232 129.920656 
L 304.119936 124.68383 
L 306.405504 120.201162 
L 308.583936 116.401244 
L 310.690944 113.16476 
L 312.690816 110.492018 
L 314.583552 108.32054 
L 316.404864 106.559766 
L 318.154752 105.171763 
L 319.833216 104.120083 
L 321.440256 103.369769 
L 323.011584 102.878858 
L 324.5472 102.630984 
L 326.047104 102.610158 
L 327.547008 102.80801 
L 329.082624 103.237124 
L 330.653952 103.913491 
L 332.260992 104.853476 
L 333.903744 106.073813 
L 335.61792 107.626879 
L 337.40352 109.548377 
L 339.260544 111.875497 
L 341.224704 114.701649 
L 343.260288 118.026274 
L 343.331712 118.263508 
L 347.04576 135.934706 
L 350.652672 152.03201 
L 354.152448 166.648858 
L 357.545088 179.875911 
L 360.830592 191.801055 
L 364.00896 202.509403 
L 367.080192 212.08329 
L 370.044288 220.602276 
L 372.901248 228.143147 
L 375.651072 234.779913 
L 378.29376 240.583808 
L 380.829312 245.623291 
L 383.257728 249.964046 
L 385.579008 253.668981 
L 387.793152 256.79823 
L 389.935872 259.450318 
L 391.971456 261.627044 
L 393.935616 263.410796 
L 395.828352 264.835495 
L 397.649664 265.93383 
L 399.399552 266.737253 
L 401.113728 267.284981 
L 402.792192 267.591817 
L 404.470656 267.671587 
L 406.14912 267.52429 
L 407.827584 267.149927 
L 409.506048 266.548498 
L 411.220224 265.699908 
L 413.005824 264.564121 
L 414.72 263.232 
L 414.72 263.232 
" style="fill:none;stroke:#2ca02c;stroke-linecap:square;stroke-width:1.5;"/>
   </g>
   <g id="line2d_17">
    <path clip-path="url(#pbbcff493c6)" d="M 57.6 263.232 
L 59.457024 264.810619 
L 61.242624 266.043516 
L 62.9568 266.964221 
L 64.635264 267.616224 
L 66.278016 268.015286 
L 67.885056 268.176829 
L 69.492096 268.112044 
L 71.099136 267.820931 
L 72.706176 267.30349 
L 74.348928 266.540621 
L 76.063104 265.492438 
L 77.812992 264.156803 
L 79.634304 262.481647 
L 81.52704 260.432768 
L 83.4912 257.974625 
L 85.562496 255.016141 
L 87.705216 251.559984 
L 89.955072 247.497979 
L 92.276352 242.84207 
L 94.704768 237.465863 
L 97.24032 231.300955 
L 99.883008 224.275928 
L 102.632832 216.316345 
L 105.45408 207.461311 
L 108.382464 197.532236 
L 111.417984 186.446636 
L 114.56064 174.119008 
L 117.274752 162.634892 
L 119.846016 149.871991 
L 122.310144 138.728258 
L 124.667136 129.06488 
L 126.916992 120.749076 
L 129.059712 113.654105 
L 131.095296 107.659256 
L 133.023744 102.649857 
L 134.845056 98.517271 
L 136.559232 95.158895 
L 138.166272 92.478162 
L 139.701888 90.3395 
L 141.130368 88.721113 
L 142.487424 87.514924 
L 143.737344 86.689524 
L 144.951552 86.149913 
L 146.094336 85.878095 
L 147.23712 85.835177 
L 148.379904 86.021157 
L 149.522688 86.436036 
L 150.701184 87.103621 
L 151.951104 88.077671 
L 153.272448 89.405128 
L 154.665216 91.135617 
L 156.129408 93.321445 
L 157.700736 96.08522 
L 159.343488 99.437337 
L 161.093376 103.528346 
L 162.9504 108.456826 
L 164.91456 114.327389 
L 166.950144 121.124949 
L 169.092864 129.06488 
L 171.34272 138.267889 
L 173.699712 148.860722 
L 176.16384 160.976158 
L 177.306624 166.276796 
L 180.62784 179.829772 
L 183.84192 192.025152 
L 186.948864 202.95347 
L 189.948672 212.702238 
L 192.841344 221.355953 
L 195.62688 228.996092 
L 198.30528 235.701117 
L 200.876544 241.546469 
L 203.340672 246.604574 
L 205.697664 250.94484 
L 207.94752 254.633655 
L 210.09024 257.734392 
L 212.161536 260.349305 
L 214.125696 262.481647 
L 216.018432 264.216572 
L 217.839744 265.589622 
L 219.589632 266.634998 
L 221.268096 267.385559 
L 222.910848 267.88108 
L 224.517888 268.136987 
L 226.124928 268.166565 
L 227.731968 267.969815 
L 229.339008 267.546737 
L 230.98176 266.880329 
L 232.660224 265.955167 
L 234.3744 264.755491 
L 236.302848 263.364162 
L 238.159872 264.919533 
L 239.945472 266.130077 
L 241.659648 267.029322 
L 243.338112 267.660314 
L 244.980864 268.03881 
L 246.587904 268.180236 
L 248.194944 268.095333 
L 249.801984 267.784101 
L 251.409024 267.246542 
L 253.051776 266.463108 
L 254.765952 265.393465 
L 256.51584 264.035924 
L 258.337152 262.337967 
L 260.229888 260.265394 
L 262.194048 257.782662 
L 264.265344 254.798248 
L 266.408064 251.315268 
L 268.65792 247.225097 
L 271.014912 242.464364 
L 273.443328 237.050156 
L 275.97888 230.845571 
L 278.621568 223.77919 
L 281.371392 215.776577 
L 284.228352 206.760277 
L 287.192448 196.649817 
L 290.26368 185.361708 
L 293.442048 172.809442 
L 295.906176 162.26472 
L 298.47744 149.534007 
L 300.941568 138.421122 
L 303.29856 128.78725 
L 305.548416 120.499612 
L 307.691136 113.431465 
L 309.72672 107.462099 
L 311.655168 102.476842 
L 313.47648 98.367056 
L 315.190656 95.030139 
L 316.797696 92.369525 
L 318.2976 90.294682 
L 319.72608 88.685236 
L 321.047424 87.514924 
L 322.297344 86.689524 
L 323.511552 86.149913 
L 324.654336 85.878095 
L 325.79712 85.835177 
L 326.939904 86.021157 
L 328.082688 86.436036 
L 329.261184 87.103621 
L 330.511104 88.077671 
L 331.832448 89.405128 
L 333.225216 91.135617 
L 334.689408 93.321445 
L 336.260736 96.08522 
L 337.903488 99.437337 
L 339.653376 103.528346 
L 341.5104 108.456826 
L 343.47456 114.327389 
L 345.510144 121.124949 
L 347.652864 129.06488 
L 349.90272 138.267889 
L 352.259712 148.860722 
L 354.72384 160.976158 
L 355.866624 166.276796 
L 359.18784 179.829772 
L 362.40192 192.025152 
L 365.508864 202.95347 
L 368.508672 212.702238 
L 371.401344 221.355953 
L 374.18688 228.996092 
L 376.86528 235.701117 
L 379.436544 241.546469 
L 381.900672 246.604574 
L 384.257664 250.94484 
L 386.50752 254.633655 
L 388.65024 257.734392 
L 390.721536 260.349305 
L 392.685696 262.481647 
L 394.578432 264.216572 
L 396.399744 265.589622 
L 398.149632 266.634998 
L 399.828096 267.385559 
L 401.470848 267.88108 
L 403.077888 268.136987 
L 404.684928 268.166565 
L 406.291968 267.969815 
L 407.899008 267.546737 
L 409.54176 266.880329 
L 411.220224 265.955167 
L 412.9344 264.755491 
L 414.72 263.232 
L 414.72 263.232 
" style="fill:none;stroke:#d62728;stroke-linecap:square;stroke-width:1.5;"/>
   </g>
   <g id="line2d_18">
    <path clip-path="url(#pbbcff493c6)" d="M 57.6 263.232 
L 59.457024 264.587064 
L 61.242624 265.621558 
L 62.992512 266.380017 
L 64.670976 266.870017 
L 66.313728 267.124407 
L 67.95648 267.156034 
L 69.599232 266.964899 
L 71.241984 266.551001 
L 72.920448 265.898026 
L 74.634624 264.99113 
L 76.420224 263.788522 
L 78.241536 262.290724 
L 80.134272 260.444051 
L 82.098432 258.215024 
L 84.169728 255.519426 
L 86.312448 252.358202 
L 88.562304 248.631027 
L 90.883584 244.347583 
L 93.312 239.390386 
L 95.847552 233.695008 
L 98.454528 227.28587 
L 101.16864 220.017273 
L 103.989888 211.817209 
L 106.918272 202.610827 
L 108.703872 196.466596 
L 111.632256 180.937976 
L 114.453504 167.148994 
L 117.167616 154.968673 
L 119.774592 144.271009 
L 122.274432 134.934973 
L 124.667136 126.84451 
L 126.952704 119.888537 
L 129.131136 113.960947 
L 131.202432 108.960604 
L 133.166592 104.791349 
L 135.023616 101.361996 
L 136.773504 98.586331 
L 138.416256 96.383115 
L 139.987584 94.640437 
L 141.451776 93.337574 
L 142.844544 92.385641 
L 144.165888 91.741532 
L 145.45152 91.35689 
L 146.70144 91.21182 
L 147.95136 91.292414 
L 149.20128 91.598673 
L 150.486912 92.149108 
L 151.808256 92.963616 
L 153.201024 94.095159 
L 154.629504 95.546777 
L 156.16512 97.435998 
L 157.77216 99.777836 
L 159.450624 102.622029 
L 159.700608 103.246385 
L 164.057472 121.691173 
L 168.3072 138.72715 
L 172.449792 154.425661 
L 176.485248 168.856254 
L 180.413568 182.08668 
L 184.234752 194.182888 
L 187.9488 205.20903 
L 191.555712 215.22746 
L 195.055488 224.298732 
L 198.448128 232.481602 
L 201.733632 239.833029 
L 204.912 246.40817 
L 207.983232 252.260386 
L 210.661632 256.949692 
L 214.232832 258.586211 
L 217.76832 259.963585 
L 221.268096 261.089135 
L 224.73216 261.970106 
L 228.160512 262.613672 
L 231.588864 263.030097 
L 234.981504 263.21858 
L 238.374144 263.18463 
L 241.766784 262.928246 
L 245.159424 262.449429 
L 248.587776 261.739614 
L 252.016128 260.802658 
L 255.480192 259.62524 
L 258.979968 258.200187 
L 261.69408 256.901641 
L 264.586752 251.802462 
L 267.58656 246.05277 
L 270.657792 239.679211 
L 273.83616 232.56454 
L 277.121664 224.655398 
L 280.514304 215.896625 
L 284.01408 206.231264 
L 287.58528 195.709144 
L 291.263616 184.174916 
L 295.049088 171.566825 
L 298.941696 157.821318 
L 302.94144 142.873045 
L 307.04832 126.654856 
L 311.262336 109.097803 
L 312.905088 102.557277 
L 314.690688 99.554567 
L 316.369152 97.151937 
L 317.976192 95.232874 
L 319.476096 93.778309 
L 320.904576 92.695123 
L 322.261632 91.939103 
L 323.547264 91.468248 
L 324.797184 91.23936 
L 326.047104 91.236137 
L 327.297024 91.458577 
L 328.546944 91.906681 
L 329.832576 92.603015 
L 331.189632 93.597041 
L 332.618112 94.93076 
L 334.118016 96.648385 
L 335.689344 98.796336 
L 337.332096 101.423247 
L 339.081984 104.65024 
L 340.939008 108.558554 
L 342.867456 113.144412 
L 344.90304 118.567805 
L 347.04576 124.923236 
L 349.295616 132.31018 
L 351.652608 140.833089 
L 354.116736 150.601386 
L 356.688 161.729469 
L 359.3664 174.33671 
L 362.151936 188.547453 
L 364.080384 198.224964 
L 367.151616 208.197316 
L 370.115712 217.083447 
L 372.972672 224.961997 
L 375.722496 231.908764 
L 378.365184 237.996704 
L 380.900736 243.295931 
L 383.329152 247.873715 
L 385.686144 251.85133 
L 387.936 255.220358 
L 390.07872 258.040491 
L 392.150016 260.406366 
L 394.114176 262.322725 
L 396.006912 263.8681 
L 397.828224 265.075969 
L 399.578112 265.978545 
L 401.292288 266.617621 
L 402.970752 267.008355 
L 404.613504 267.165592 
L 406.256256 267.100065 
L 407.899008 266.811777 
L 409.577472 266.287141 
L 411.291648 265.511315 
L 413.041536 264.469139 
L 414.72 263.232 
L 414.72 263.232 
" style="fill:none;stroke:#9467bd;stroke-linecap:square;stroke-width:1.5;"/>
   </g>
   <g id="line2d_19">
    <path clip-path="url(#pbbcff493c6)" d="M 57.6 263.232 
L 59.492736 264.335123 
L 61.34976 265.160646 
L 63.13536 265.714565 
L 64.885248 266.029261 
L 66.635136 266.118118 
L 68.385024 265.981135 
L 70.134912 265.618314 
L 71.8848 265.029652 
L 73.6704 264.196178 
L 75.527424 263.079916 
L 77.42016 261.680464 
L 79.38432 259.948842 
L 81.419904 257.854011 
L 83.526912 255.363803 
L 85.741056 252.394152 
L 88.026624 248.949454 
L 90.419328 244.930501 
L 92.883456 240.350247 
L 95.45472 235.093401 
L 98.13312 229.09901 
L 100.918656 222.303585 
L 102.347136 218.384725 
L 106.132608 201.428409 
L 109.810944 185.964409 
L 113.346432 172.041464 
L 116.774784 159.420833 
L 120.096 148.021248 
L 123.31008 137.76398 
L 126.417024 128.57284 
L 129.416832 120.374179 
L 132.309504 113.096887 
L 135.09504 106.672393 
L 137.809152 100.963073 
L 140.416128 95.990669 
L 142.915968 91.693383 
L 145.308672 88.011957 
L 146.88 85.824 
L 146.915712 85.871704 
L 149.165568 89.066681 
L 151.486848 92.754379 
L 153.915264 97.037619 
L 156.450816 101.973968 
L 159.057792 107.54375 
L 161.771904 113.874999 
L 164.593152 121.032052 
L 167.521536 129.081784 
L 170.557056 138.093614 
L 173.664 148.021248 
L 176.87808 159.040406 
L 180.199296 171.227278 
L 183.627648 184.660592 
L 187.163136 199.421617 
L 190.80576 215.594159 
L 191.769984 219.537582 
L 194.662656 226.811508 
L 197.448192 233.232761 
L 200.162304 238.938924 
L 202.76928 243.908295 
L 205.26912 248.202672 
L 207.661824 251.881314 
L 209.947392 255.000939 
L 212.161536 257.655675 
L 214.304256 259.880513 
L 216.33984 261.680464 
L 218.304 263.127552 
L 220.196736 264.252818 
L 222.05376 265.100067 
L 223.83936 265.674875 
L 225.589248 266.010043 
L 227.339136 266.119371 
L 229.089024 266.002861 
L 230.838912 265.660511 
L 232.5888 265.092321 
L 234.3744 264.279736 
L 236.33856 263.347355 
L 238.231296 264.425552 
L 240.052608 265.213613 
L 241.838208 265.74872 
L 243.588096 266.04498 
L 245.337984 266.115401 
L 247.087872 265.959983 
L 248.83776 265.578725 
L 250.62336 264.956887 
L 252.444672 264.080359 
L 254.301696 262.93475 
L 256.230144 261.475878 
L 258.194304 259.708043 
L 260.229888 257.575682 
L 262.372608 255.000939 
L 264.586752 251.984634 
L 266.87232 248.491777 
L 269.265024 244.422408 
L 271.764864 239.719808 
L 274.336128 234.40201 
L 277.014528 228.344128 
L 279.800064 221.482673 
L 280.907136 218.384725 
L 284.692608 201.428409 
L 288.370944 185.964409 
L 291.906432 172.041464 
L 295.334784 159.420833 
L 298.656 148.021248 
L 301.87008 137.76398 
L 304.977024 128.57284 
L 307.976832 120.374179 
L 310.869504 113.096887 
L 313.65504 106.672393 
L 316.369152 100.963073 
L 318.976128 95.990669 
L 321.475968 91.693383 
L 323.868672 88.011957 
L 325.44 85.824 
L 325.475712 85.871704 
L 327.725568 89.066681 
L 330.046848 92.754379 
L 332.475264 97.037619 
L 335.010816 101.973968 
L 337.617792 107.54375 
L 340.331904 113.874999 
L 343.153152 121.032052 
L 346.081536 129.081784 
L 349.117056 138.093614 
L 352.224 148.021248 
L 355.43808 159.040406 
L 358.759296 171.227278 
L 362.187648 184.660592 
L 365.723136 199.421617 
L 369.36576 215.594159 
L 370.329984 219.537582 
L 373.222656 226.811508 
L 376.008192 233.232761 
L 378.722304 238.938924 
L 381.32928 243.908295 
L 383.82912 248.202672 
L 386.221824 251.881314 
L 388.507392 255.000939 
L 390.721536 257.655675 
L 392.864256 259.880513 
L 394.89984 261.680464 
L 396.864 263.127552 
L 398.756736 264.252818 
L 400.61376 265.100067 
L 402.39936 265.674875 
L 404.149248 266.010043 
L 405.899136 266.119371 
L 407.649024 266.002861 
L 409.398912 265.660511 
L 411.1488 265.092321 
L 412.9344 264.279736 
L 414.72 263.232 
L 414.72 263.232 
" style="fill:none;stroke:#8c564b;stroke-linecap:square;stroke-width:1.5;"/>
   </g>
   <g id="line2d_20">
    <path clip-path="url(#pbbcff493c6)" d="M 57.6 263.232 
L 59.56416 264.12587 
L 61.492608 264.760996 
L 63.385344 265.150726 
L 65.242368 265.308162 
L 67.099392 265.2428 
L 68.956416 264.954639 
L 70.849152 264.431669 
L 72.741888 263.677249 
L 74.670336 262.670553 
L 76.670208 261.372792 
L 78.741504 259.756282 
L 80.848512 257.82751 
L 83.062656 255.491599 
L 85.348224 252.748115 
L 87.705216 249.565418 
L 90.169344 245.854294 
L 92.704896 241.626093 
L 95.347584 236.777181 
L 97.347456 232.705478 
L 108.882432 192.004131 
L 120.310272 152.490015 
L 131.630976 114.140477 
L 137.130624 96.075748 
L 138.737664 93.625854 
L 140.237568 91.736355 
L 141.630336 90.325099 
L 142.95168 89.291786 
L 144.2016 88.588168 
L 145.415808 88.159586 
L 146.558592 87.985719 
L 147.701376 88.034402 
L 148.84416 88.305634 
L 150.022656 88.818433 
L 151.236864 89.594314 
L 152.522496 90.689676 
L 153.879552 92.151463 
L 155.308032 94.029225 
L 156.807936 96.375125 
L 158.414976 99.31402 
L 160.129152 102.93393 
L 161.914752 107.237136 
L 163.807488 112.391748 
L 165.80736 118.501432 
L 167.914368 125.675726 
L 170.128512 134.030032 
L 172.449792 143.685624 
L 174.878208 154.769642 
L 178.949376 173.672229 
L 181.984896 186.263493 
L 184.91328 197.48644 
L 187.734528 207.440656 
L 190.44864 216.22208 
L 193.055616 223.923011 
L 195.555456 230.632101 
L 197.94816 236.434363 
L 200.233728 241.411163 
L 202.41216 245.640226 
L 204.519168 249.252951 
L 206.51904 252.247479 
L 208.411776 254.691818 
L 210.233088 256.686064 
L 211.947264 258.242388 
L 213.590016 259.442131 
L 215.161344 260.322534 
L 216.5184 260.852694 
L 220.839552 261.78443 
L 225.124992 262.480997 
L 229.37472 262.948056 
L 233.624448 263.19235 
L 237.874176 263.213878 
L 242.123904 263.01264 
L 246.373632 262.588636 
L 250.62336 261.941865 
L 254.9088 261.064078 
L 256.658688 260.547878 
L 258.158592 259.792504 
L 259.72992 258.745857 
L 261.33696 257.40521 
L 263.015424 255.713244 
L 264.765312 253.631906 
L 266.622336 251.068792 
L 268.550784 248.020906 
L 270.586368 244.376817 
L 272.693376 240.143108 
L 274.90752 235.187975 
L 277.2288 229.436122 
L 279.657216 222.80861 
L 282.192768 215.222858 
L 284.835456 206.592641 
L 287.549568 196.96003 
L 290.370816 186.121028 
L 293.2992 173.979694 
L 295.941888 162.117694 
L 298.513152 149.755754 
L 300.97728 138.966115 
L 303.334272 129.613812 
L 305.584128 121.569749 
L 307.726848 114.710698 
L 309.762432 108.919299 
L 311.69088 104.084059 
L 313.512192 100.099355 
L 315.226368 96.86543 
L 316.833408 94.288396 
L 318.369024 92.237092 
L 319.797504 90.689676 
L 321.15456 89.54172 
L 322.440192 88.74367 
L 323.6544 88.248584 
L 324.832896 88.008322 
L 325.97568 88.001367 
L 327.118464 88.216962 
L 328.29696 88.672385 
L 329.511168 89.389151 
L 330.761088 90.38943 
L 332.082432 91.736355 
L 333.4752 93.478176 
L 334.975104 95.723668 
L 335.475072 96.743759 
L 346.652928 134.245031 
L 357.93792 172.887426 
L 369.330048 212.693315 
L 375.365376 233.607904 
L 378.150912 238.995275 
L 380.829312 243.702692 
L 383.400576 247.785774 
L 385.900416 251.345928 
L 388.29312 254.375348 
L 390.6144 256.960859 
L 392.828544 259.102646 
L 394.971264 260.873773 
L 397.04256 262.303904 
L 399.042432 263.421712 
L 401.006592 264.268046 
L 402.93504 264.8565 
L 404.827776 265.200423 
L 406.6848 265.312916 
L 408.541824 265.20261 
L 410.398848 264.869506 
L 412.291584 264.300729 
L 414.220032 263.483178 
L 414.72 263.232 
L 414.72 263.232 
" style="fill:none;stroke:#e377c2;stroke-linecap:square;stroke-width:1.5;"/>
   </g>
   <g id="line2d_21">
    <path clip-path="url(#pbbcff493c6)" d="M 57.6 263.232 
L 59.671296 263.964203 
L 61.70688 264.448579 
L 63.706752 264.697399 
L 65.706624 264.72117 
L 67.706496 264.519892 
L 69.706368 264.093565 
L 71.741952 263.428512 
L 73.813248 262.512462 
L 75.920256 261.332928 
L 78.062976 259.877208 
L 80.27712 258.101555 
L 82.562688 255.979276 
L 84.91968 253.482811 
L 87.348096 250.583743 
L 89.883648 247.202661 
L 92.490624 243.349151 
L 93.454848 241.674063 
L 97.204608 231.32549 
L 101.061504 220.022252 
L 105.025536 207.708657 
L 109.096704 194.327471 
L 113.275008 179.819909 
L 117.560448 164.125641 
L 121.953024 147.18279 
L 126.452736 128.927933 
L 129.988224 114.697745 
L 131.952384 108.373317 
L 133.809408 103.11193 
L 135.559296 98.792787 
L 137.202048 95.302059 
L 138.737664 92.532888 
L 140.201856 90.336987 
L 141.558912 88.68919 
L 142.844544 87.471926 
L 144.02304 86.649963 
L 145.165824 86.121347 
L 146.237184 85.865814 
L 147.272832 85.839616 
L 148.30848 86.030491 
L 149.37984 86.456378 
L 150.486912 87.140508 
L 151.665408 88.141344 
L 152.915328 89.509991 
L 154.236672 91.300654 
L 155.62944 93.570633 
L 157.129344 96.454278 
L 158.736384 100.049155 
L 160.414848 104.361845 
L 162.200448 109.575739 
L 164.093184 115.806988 
L 165.200256 120.067343 
L 169.842816 139.326266 
L 174.37824 157.205748 
L 178.806528 173.771275 
L 183.12768 189.086786 
L 187.341696 203.214675 
L 191.448576 216.215787 
L 195.44832 228.149422 
L 199.340928 239.073332 
L 200.697984 242.45345 
L 203.412096 246.544407 
L 206.054784 250.129422 
L 208.590336 253.199699 
L 211.054464 255.836873 
L 213.411456 258.039684 
L 215.697024 259.877208 
L 217.911168 261.377003 
L 220.053888 262.565765 
L 222.160896 263.48279 
L 224.232192 264.14078 
L 226.267776 264.552222 
L 228.267648 264.729388 
L 230.26752 264.681504 
L 232.267392 264.408572 
L 234.267264 263.910591 
L 236.445696 263.347346 
L 238.516992 264.046252 
L 240.552576 264.497904 
L 242.552448 264.714574 
L 244.55232 264.706195 
L 246.552192 264.472767 
L 248.552064 264.01429 
L 250.587648 263.316513 
L 252.658944 262.367165 
L 254.765952 261.153759 
L 256.944384 259.636567 
L 259.158528 257.820871 
L 261.444096 255.657256 
L 263.801088 253.118164 
L 266.265216 250.129422 
L 268.800768 246.697388 
L 271.407744 242.791491 
L 272.05056 241.578484 
L 275.80032 231.223896 
L 279.657216 219.914469 
L 283.621248 207.594515 
L 287.692416 194.206797 
L 291.87072 179.692532 
L 296.15616 163.991389 
L 300.548736 147.041492 
L 305.048448 128.779415 
L 308.512512 114.819962 
L 310.476672 108.481338 
L 312.333696 103.206529 
L 314.083584 98.874738 
L 315.726336 95.372137 
L 317.297664 92.532888 
L 318.761856 90.336987 
L 320.118912 88.68919 
L 321.404544 87.471926 
L 322.58304 86.649963 
L 323.725824 86.121347 
L 324.797184 85.865814 
L 325.832832 85.839616 
L 326.86848 86.030491 
L 327.93984 86.456378 
L 329.046912 87.140508 
L 330.225408 88.141344 
L 331.475328 89.509991 
L 332.796672 91.300654 
L 334.18944 93.570633 
L 335.689344 96.454278 
L 337.296384 100.049155 
L 338.974848 104.361845 
L 340.760448 109.575739 
L 342.653184 115.806988 
L 343.760256 120.067343 
L 348.402816 139.326266 
L 352.93824 157.205748 
L 357.366528 173.771275 
L 361.68768 189.086786 
L 365.901696 203.214675 
L 370.008576 216.215787 
L 374.00832 228.149422 
L 377.900928 239.073332 
L 379.257984 242.45345 
L 381.972096 246.544407 
L 384.614784 250.129422 
L 387.150336 253.199699 
L 389.614464 255.836873 
L 391.971456 258.039684 
L 394.257024 259.877208 
L 396.471168 261.377003 
L 398.613888 262.565765 
L 400.720896 263.48279 
L 402.792192 264.14078 
L 404.827776 264.552222 
L 406.827648 264.729388 
L 408.82752 264.681504 
L 410.827392 264.408572 
L 412.827264 263.910591 
L 414.72 263.232 
L 414.72 263.232 
" style="fill:none;stroke:#7f7f7f;stroke-linecap:square;stroke-width:1.5;"/>
   </g>
   <g id="patch_3">
    <path d="M 57.6 307.584 
L 57.6 41.472 
" style="fill:none;stroke:#000000;stroke-linecap:square;stroke-linejoin:miter;stroke-width:0.8;"/>
   </g>
   <g id="patch_4">
    <path d="M 414.72 307.584 
L 414.72 41.472 
" style="fill:none;stroke:#000000;stroke-linecap:square;stroke-linejoin:miter;stroke-width:0.8;"/>
   </g>
   <g id="patch_5">
    <path d="M 57.6 307.584 
L 414.72 307.584 
" style="fill:none;stroke:#000000;stroke-linecap:square;stroke-linejoin:miter;stroke-width:0.8;"/>
   </g>
   <g id="patch_6">
    <path d="M 57.6 41.472 
L 414.72 41.472 
" style="fill:none;stroke:#000000;stroke-linecap:square;stroke-linejoin:miter;stroke-width:0.8;"/>
   </g>
   <g id="legend_1">
    <g id="patch_7">
     <path d="M 310.695 166.897 
L 407.72 166.897 
Q 409.72 166.897 409.72 164.897 
L 409.72 48.472 
Q 409.72 46.472 407.72 46.472 
L 310.695 46.472 
Q 308.695 46.472 308.695 48.472 
L 308.695 164.897 
Q 308.695 166.897 310.695 166.897 
z
" style="fill:#ffffff;opacity:0.8;stroke:#cccccc;stroke-linejoin:miter;"/>
    </g>
    <g id="line2d_22">
     <path d="M 312.695 54.570438 
L 332.695 54.570438 
" style="fill:none;stroke:#1f77b4;stroke-linecap:square;stroke-width:2;"/>
    </g>
    <g id="line2d_23"/>
    <g id="text_17">
     <!-- Exact -->
     <g transform="translate(340.695 58.070438)scale(0.1 -0.1)">
      <defs>
       <path d="M 9.8125 72.90625 
L 55.90625 72.90625 
L 55.90625 64.59375 
L 19.671875 64.59375 
L 19.671875 43.015625 
L 54.390625 43.015625 
L 54.390625 34.71875 
L 19.671875 34.71875 
L 19.671875 8.296875 
L 56.78125 8.296875 
L 56.78125 0 
L 9.8125 0 
z
" id="DejaVuSans-69"/>
       <path d="M 54.890625 54.6875 
L 35.109375 28.078125 
L 55.90625 0 
L 45.3125 0 
L 29.390625 21.484375 
L 13.484375 0 
L 2.875 0 
L 24.125 28.609375 
L 4.6875 54.6875 
L 15.28125 54.6875 
L 29.78125 35.203125 
L 44.28125 54.6875 
z
" id="DejaVuSans-120"/>
       <path d="M 48.78125 52.59375 
L 48.78125 44.1875 
Q 44.96875 46.296875 41.140625 47.34375 
Q 37.3125 48.390625 33.40625 48.390625 
Q 24.65625 48.390625 19.8125 42.84375 
Q 14.984375 37.3125 14.984375 27.296875 
Q 14.984375 17.28125 19.8125 11.734375 
Q 24.65625 6.203125 33.40625 6.203125 
Q 37.3125 6.203125 41.140625 7.25 
Q 44.96875 8.296875 48.78125 10.40625 
L 48.78125 2.09375 
Q 45.015625 0.34375 40.984375 -0.53125 
Q 36.96875 -1.421875 32.421875 -1.421875 
Q 20.0625 -1.421875 12.78125 6.34375 
Q 5.515625 14.109375 5.515625 27.296875 
Q 5.515625 40.671875 12.859375 48.328125 
Q 20.21875 56 33.015625 56 
Q 37.15625 56 41.109375 55.140625 
Q 45.0625 54.296875 48.78125 52.59375 
z
" id="DejaVuSans-99"/>
       <path d="M 18.3125 70.21875 
L 18.3125 54.6875 
L 36.8125 54.6875 
L 36.8125 47.703125 
L 18.3125 47.703125 
L 18.3125 18.015625 
Q 18.3125 11.328125 20.140625 9.421875 
Q 21.96875 7.515625 27.59375 7.515625 
L 36.8125 7.515625 
L 36.8125 0 
L 27.59375 0 
Q 17.1875 0 13.234375 3.875 
Q 9.28125 7.765625 9.28125 18.015625 
L 9.28125 47.703125 
L 2.6875 47.703125 
L 2.6875 54.6875 
L 9.28125 54.6875 
L 9.28125 70.21875 
z
" id="DejaVuSans-116"/>
      </defs>
      <use xlink:href="#DejaVuSans-69"/>
      <use x="63.183594" xlink:href="#DejaVuSans-120"/>
      <use x="122.363281" xlink:href="#DejaVuSans-97"/>
      <use x="183.642578" xlink:href="#DejaVuSans-99"/>
      <use x="238.623047" xlink:href="#DejaVuSans-116"/>
     </g>
    </g>
    <g id="line2d_24">
     <path d="M 312.695 69.248563 
L 332.695 69.248563 
" style="fill:none;stroke:#ff7f0e;stroke-linecap:square;stroke-width:1.5;"/>
    </g>
    <g id="line2d_25"/>
    <g id="text_18">
     <!-- Quadratic 4 -->
     <g transform="translate(340.695 72.748563)scale(0.1 -0.1)">
      <defs>
       <path d="M 39.40625 66.21875 
Q 28.65625 66.21875 22.328125 58.203125 
Q 16.015625 50.203125 16.015625 36.375 
Q 16.015625 22.609375 22.328125 14.59375 
Q 28.65625 6.59375 39.40625 6.59375 
Q 50.140625 6.59375 56.421875 14.59375 
Q 62.703125 22.609375 62.703125 36.375 
Q 62.703125 50.203125 56.421875 58.203125 
Q 50.140625 66.21875 39.40625 66.21875 
z
M 53.21875 1.3125 
L 66.21875 -12.890625 
L 54.296875 -12.890625 
L 43.5 -1.21875 
Q 41.890625 -1.3125 41.03125 -1.359375 
Q 40.1875 -1.421875 39.40625 -1.421875 
Q 24.03125 -1.421875 14.8125 8.859375 
Q 5.609375 19.140625 5.609375 36.375 
Q 5.609375 53.65625 14.8125 63.9375 
Q 24.03125 74.21875 39.40625 74.21875 
Q 54.734375 74.21875 63.90625 63.9375 
Q 73.09375 53.65625 73.09375 36.375 
Q 73.09375 23.6875 67.984375 14.640625 
Q 62.890625 5.609375 53.21875 1.3125 
z
" id="DejaVuSans-81"/>
       <path d="M 8.5 21.578125 
L 8.5 54.6875 
L 17.484375 54.6875 
L 17.484375 21.921875 
Q 17.484375 14.15625 20.5 10.265625 
Q 23.53125 6.390625 29.59375 6.390625 
Q 36.859375 6.390625 41.078125 11.03125 
Q 45.3125 15.671875 45.3125 23.6875 
L 45.3125 54.6875 
L 54.296875 54.6875 
L 54.296875 0 
L 45.3125 0 
L 45.3125 8.40625 
Q 42.046875 3.421875 37.71875 1 
Q 33.40625 -1.421875 27.6875 -1.421875 
Q 18.265625 -1.421875 13.375 4.4375 
Q 8.5 10.296875 8.5 21.578125 
z
M 31.109375 56 
z
" id="DejaVuSans-117"/>
       <path d="M 41.109375 46.296875 
Q 39.59375 47.171875 37.8125 47.578125 
Q 36.03125 48 33.890625 48 
Q 26.265625 48 22.1875 43.046875 
Q 18.109375 38.09375 18.109375 28.8125 
L 18.109375 0 
L 9.078125 0 
L 9.078125 54.6875 
L 18.109375 54.6875 
L 18.109375 46.1875 
Q 20.953125 51.171875 25.484375 53.578125 
Q 30.03125 56 36.53125 56 
Q 37.453125 56 38.578125 55.875 
Q 39.703125 55.765625 41.0625 55.515625 
z
" id="DejaVuSans-114"/>
       <path d="M 9.421875 54.6875 
L 18.40625 54.6875 
L 18.40625 0 
L 9.421875 0 
z
M 9.421875 75.984375 
L 18.40625 75.984375 
L 18.40625 64.59375 
L 9.421875 64.59375 
z
" id="DejaVuSans-105"/>
      </defs>
      <use xlink:href="#DejaVuSans-81"/>
      <use x="78.710938" xlink:href="#DejaVuSans-117"/>
      <use x="142.089844" xlink:href="#DejaVuSans-97"/>
      <use x="203.369141" xlink:href="#DejaVuSans-100"/>
      <use x="266.845703" xlink:href="#DejaVuSans-114"/>
      <use x="307.958984" xlink:href="#DejaVuSans-97"/>
      <use x="369.238281" xlink:href="#DejaVuSans-116"/>
      <use x="408.447266" xlink:href="#DejaVuSans-105"/>
      <use x="436.230469" xlink:href="#DejaVuSans-99"/>
      <use x="491.210938" xlink:href="#DejaVuSans-32"/>
      <use x="522.998047" xlink:href="#DejaVuSans-52"/>
     </g>
    </g>
    <g id="line2d_26">
     <path d="M 312.695 83.926688 
L 332.695 83.926688 
" style="fill:none;stroke:#2ca02c;stroke-linecap:square;stroke-width:1.5;"/>
    </g>
    <g id="line2d_27"/>
    <g id="text_19">
     <!-- Quadratic 5 -->
     <g transform="translate(340.695 87.426688)scale(0.1 -0.1)">
      <defs>
       <path d="M 10.796875 72.90625 
L 49.515625 72.90625 
L 49.515625 64.59375 
L 19.828125 64.59375 
L 19.828125 46.734375 
Q 21.96875 47.46875 24.109375 47.828125 
Q 26.265625 48.1875 28.421875 48.1875 
Q 40.625 48.1875 47.75 41.5 
Q 54.890625 34.8125 54.890625 23.390625 
Q 54.890625 11.625 47.5625 5.09375 
Q 40.234375 -1.421875 26.90625 -1.421875 
Q 22.3125 -1.421875 17.546875 -0.640625 
Q 12.796875 0.140625 7.71875 1.703125 
L 7.71875 11.625 
Q 12.109375 9.234375 16.796875 8.0625 
Q 21.484375 6.890625 26.703125 6.890625 
Q 35.15625 6.890625 40.078125 11.328125 
Q 45.015625 15.765625 45.015625 23.390625 
Q 45.015625 31 40.078125 35.4375 
Q 35.15625 39.890625 26.703125 39.890625 
Q 22.75 39.890625 18.8125 39.015625 
Q 14.890625 38.140625 10.796875 36.28125 
z
" id="DejaVuSans-53"/>
      </defs>
      <use xlink:href="#DejaVuSans-81"/>
      <use x="78.710938" xlink:href="#DejaVuSans-117"/>
      <use x="142.089844" xlink:href="#DejaVuSans-97"/>
      <use x="203.369141" xlink:href="#DejaVuSans-100"/>
      <use x="266.845703" xlink:href="#DejaVuSans-114"/>
      <use x="307.958984" xlink:href="#DejaVuSans-97"/>
      <use x="369.238281" xlink:href="#DejaVuSans-116"/>
      <use x="408.447266" xlink:href="#DejaVuSans-105"/>
      <use x="436.230469" xlink:href="#DejaVuSans-99"/>
      <use x="491.210938" xlink:href="#DejaVuSans-32"/>
      <use x="522.998047" xlink:href="#DejaVuSans-53"/>
     </g>
    </g>
    <g id="line2d_28">
     <path d="M 312.695 98.604813 
L 332.695 98.604813 
" style="fill:none;stroke:#d62728;stroke-linecap:square;stroke-width:1.5;"/>
    </g>
    <g id="line2d_29"/>
    <g id="text_20">
     <!-- Quadratic 6 -->
     <g transform="translate(340.695 102.104813)scale(0.1 -0.1)">
      <use xlink:href="#DejaVuSans-81"/>
      <use x="78.710938" xlink:href="#DejaVuSans-117"/>
      <use x="142.089844" xlink:href="#DejaVuSans-97"/>
      <use x="203.369141" xlink:href="#DejaVuSans-100"/>
      <use x="266.845703" xlink:href="#DejaVuSans-114"/>
      <use x="307.958984" xlink:href="#DejaVuSans-97"/>
      <use x="369.238281" xlink:href="#DejaVuSans-116"/>
      <use x="408.447266" xlink:href="#DejaVuSans-105"/>
      <use x="436.230469" xlink:href="#DejaVuSans-99"/>
      <use x="491.210938" xlink:href="#DejaVuSans-32"/>
      <use x="522.998047" xlink:href="#DejaVuSans-54"/>
     </g>
    </g>
    <g id="line2d_30">
     <path d="M 312.695 113.282938 
L 332.695 113.282938 
" style="fill:none;stroke:#9467bd;stroke-linecap:square;stroke-width:1.5;"/>
    </g>
    <g id="line2d_31"/>
    <g id="text_21">
     <!-- Quadratic 7 -->
     <g transform="translate(340.695 116.782938)scale(0.1 -0.1)">
      <defs>
       <path d="M 8.203125 72.90625 
L 55.078125 72.90625 
L 55.078125 68.703125 
L 28.609375 0 
L 18.3125 0 
L 43.21875 64.59375 
L 8.203125 64.59375 
z
" id="DejaVuSans-55"/>
      </defs>
      <use xlink:href="#DejaVuSans-81"/>
      <use x="78.710938" xlink:href="#DejaVuSans-117"/>
      <use x="142.089844" xlink:href="#DejaVuSans-97"/>
      <use x="203.369141" xlink:href="#DejaVuSans-100"/>
      <use x="266.845703" xlink:href="#DejaVuSans-114"/>
      <use x="307.958984" xlink:href="#DejaVuSans-97"/>
      <use x="369.238281" xlink:href="#DejaVuSans-116"/>
      <use x="408.447266" xlink:href="#DejaVuSans-105"/>
      <use x="436.230469" xlink:href="#DejaVuSans-99"/>
      <use x="491.210938" xlink:href="#DejaVuSans-32"/>
      <use x="522.998047" xlink:href="#DejaVuSans-55"/>
     </g>
    </g>
    <g id="line2d_32">
     <path d="M 312.695 127.961063 
L 332.695 127.961063 
" style="fill:none;stroke:#8c564b;stroke-linecap:square;stroke-width:1.5;"/>
    </g>
    <g id="line2d_33"/>
    <g id="text_22">
     <!-- Quadratic 8 -->
     <g transform="translate(340.695 131.461063)scale(0.1 -0.1)">
      <use xlink:href="#DejaVuSans-81"/>
      <use x="78.710938" xlink:href="#DejaVuSans-117"/>
      <use x="142.089844" xlink:href="#DejaVuSans-97"/>
      <use x="203.369141" xlink:href="#DejaVuSans-100"/>
      <use x="266.845703" xlink:href="#DejaVuSans-114"/>
      <use x="307.958984" xlink:href="#DejaVuSans-97"/>
      <use x="369.238281" xlink:href="#DejaVuSans-116"/>
      <use x="408.447266" xlink:href="#DejaVuSans-105"/>
      <use x="436.230469" xlink:href="#DejaVuSans-99"/>
      <use x="491.210938" xlink:href="#DejaVuSans-32"/>
      <use x="522.998047" xlink:href="#DejaVuSans-56"/>
     </g>
    </g>
    <g id="line2d_34">
     <path d="M 312.695 142.639188 
L 332.695 142.639188 
" style="fill:none;stroke:#e377c2;stroke-linecap:square;stroke-width:1.5;"/>
    </g>
    <g id="line2d_35"/>
    <g id="text_23">
     <!-- Quadratic 9 -->
     <g transform="translate(340.695 146.139188)scale(0.1 -0.1)">
      <defs>
       <path d="M 10.984375 1.515625 
L 10.984375 10.5 
Q 14.703125 8.734375 18.5 7.8125 
Q 22.3125 6.890625 25.984375 6.890625 
Q 35.75 6.890625 40.890625 13.453125 
Q 46.046875 20.015625 46.78125 33.40625 
Q 43.953125 29.203125 39.59375 26.953125 
Q 35.25 24.703125 29.984375 24.703125 
Q 19.046875 24.703125 12.671875 31.3125 
Q 6.296875 37.9375 6.296875 49.421875 
Q 6.296875 60.640625 12.9375 67.421875 
Q 19.578125 74.21875 30.609375 74.21875 
Q 43.265625 74.21875 49.921875 64.515625 
Q 56.59375 54.828125 56.59375 36.375 
Q 56.59375 19.140625 48.40625 8.859375 
Q 40.234375 -1.421875 26.421875 -1.421875 
Q 22.703125 -1.421875 18.890625 -0.6875 
Q 15.09375 0.046875 10.984375 1.515625 
z
M 30.609375 32.421875 
Q 37.25 32.421875 41.125 36.953125 
Q 45.015625 41.5 45.015625 49.421875 
Q 45.015625 57.28125 41.125 61.84375 
Q 37.25 66.40625 30.609375 66.40625 
Q 23.96875 66.40625 20.09375 61.84375 
Q 16.21875 57.28125 16.21875 49.421875 
Q 16.21875 41.5 20.09375 36.953125 
Q 23.96875 32.421875 30.609375 32.421875 
z
" id="DejaVuSans-57"/>
      </defs>
      <use xlink:href="#DejaVuSans-81"/>
      <use x="78.710938" xlink:href="#DejaVuSans-117"/>
      <use x="142.089844" xlink:href="#DejaVuSans-97"/>
      <use x="203.369141" xlink:href="#DejaVuSans-100"/>
      <use x="266.845703" xlink:href="#DejaVuSans-114"/>
      <use x="307.958984" xlink:href="#DejaVuSans-97"/>
      <use x="369.238281" xlink:href="#DejaVuSans-116"/>
      <use x="408.447266" xlink:href="#DejaVuSans-105"/>
      <use x="436.230469" xlink:href="#DejaVuSans-99"/>
      <use x="491.210938" xlink:href="#DejaVuSans-32"/>
      <use x="522.998047" xlink:href="#DejaVuSans-57"/>
     </g>
    </g>
    <g id="line2d_36">
     <path d="M 312.695 157.317313 
L 332.695 157.317313 
" style="fill:none;stroke:#7f7f7f;stroke-linecap:square;stroke-width:1.5;"/>
    </g>
    <g id="line2d_37"/>
    <g id="text_24">
     <!-- Quadratic 10 -->
     <g transform="translate(340.695 160.817313)scale(0.1 -0.1)">
      <use xlink:href="#DejaVuSans-81"/>
      <use x="78.710938" xlink:href="#DejaVuSans-117"/>
      <use x="142.089844" xlink:href="#DejaVuSans-97"/>
      <use x="203.369141" xlink:href="#DejaVuSans-100"/>
      <use x="266.845703" xlink:href="#DejaVuSans-114"/>
      <use x="307.958984" xlink:href="#DejaVuSans-97"/>
      <use x="369.238281" xlink:href="#DejaVuSans-116"/>
      <use x="408.447266" xlink:href="#DejaVuSans-105"/>
      <use x="436.230469" xlink:href="#DejaVuSans-99"/>
      <use x="491.210938" xlink:href="#DejaVuSans-32"/>
      <use x="522.998047" xlink:href="#DejaVuSans-49"/>
      <use x="586.621094" xlink:href="#DejaVuSans-48"/>
     </g>
    </g>
   </g>
   <g id="line2d_38">
    <path clip-path="url(#pbbcff493c6)" d="M 57.6 263.232 
L 66.599424 263.122345 
L 69.956352 262.848035 
L 72.563328 262.418354 
L 74.813184 261.828398 
L 76.88448 261.05525 
L 78.812928 260.096406 
L 80.669952 258.920205 
L 82.455552 257.525067 
L 84.241152 255.843355 
L 86.026752 253.849731 
L 87.812352 251.521325 
L 89.669376 248.723375 
L 91.562112 245.458164 
L 93.526272 241.613465 
L 95.561856 237.128936 
L 97.704576 231.856429 
L 99.954432 225.720054 
L 102.382848 218.433006 
L 105.025536 209.774607 
L 107.95392 199.395987 
L 111.417984 186.260613 
L 116.239104 167.010647 
L 123.702912 137.237538 
L 127.024128 124.958224 
L 129.73824 115.749575 
L 132.095232 108.519426 
L 134.166528 102.853014 
L 136.059264 98.302104 
L 137.77344 94.739826 
L 139.344768 91.969694 
L 140.773248 89.880758 
L 142.094592 88.32439 
L 143.3088 87.220157 
L 144.451584 86.470726 
L 145.522944 86.026173 
L 146.558592 85.835346 
L 147.558528 85.874561 
L 148.558464 86.133203 
L 149.594112 86.631542 
L 150.701184 87.421699 
L 151.87968 88.551843 
L 153.1296 90.070835 
L 154.486656 92.085008 
L 155.950848 94.671514 
L 157.557888 97.984427 
L 159.307776 102.126329 
L 161.236224 107.291509 
L 163.343232 113.589063 
L 165.735936 121.466706 
L 168.521472 131.442684 
L 171.949824 144.598706 
L 177.520896 167.010647 
L 183.341952 190.131933 
L 186.87744 203.280285 
L 189.877248 213.607258 
L 192.555648 222.053002 
L 195.019776 229.107095 
L 197.305344 235.000642 
L 199.483776 240.020771 
L 201.555072 244.25163 
L 203.554944 247.84231 
L 205.483392 250.858578 
L 207.376128 253.411514 
L 209.233152 255.545963 
L 211.054464 257.307482 
L 212.875776 258.767034 
L 214.7328 259.973991 
L 216.661248 260.96081 
L 218.696832 261.747741 
L 220.875264 262.347946 
L 223.30368 262.783189 
L 226.196352 263.067864 
L 230.08896 263.209082 
L 238.981248 263.230925 
L 245.373696 263.111619 
L 248.6592 262.830264 
L 251.266176 262.387589 
L 253.516032 261.782709 
L 255.551616 261.008391 
L 257.480064 260.035615 
L 259.301376 258.869566 
L 261.086976 257.463477 
L 262.872576 255.76976 
L 264.658176 253.763165 
L 266.479488 251.370524 
L 268.336512 248.54985 
L 270.229248 245.260546 
L 272.193408 241.390178 
L 274.228992 236.878733 
L 276.371712 231.578041 
L 278.65728 225.31013 
L 281.085696 217.983783 
L 283.728384 209.286461 
L 286.69248 198.739551 
L 290.192256 185.423889 
L 295.156224 165.563525 
L 302.155776 137.648313 
L 305.476992 125.338604 
L 308.191104 116.096237 
L 310.548096 108.83076 
L 312.655104 103.036831 
L 314.54784 98.462332 
L 316.262016 94.877186 
L 317.833344 92.085008 
L 319.261824 89.975269 
L 320.583168 88.399128 
L 321.797376 87.276369 
L 322.94016 86.509266 
L 324.01152 86.048003 
L 325.047168 85.840948 
L 326.047104 85.864478 
L 327.04704 86.107464 
L 328.082688 86.589674 
L 329.18976 87.362745 
L 330.332544 88.436902 
L 331.582464 89.927881 
L 332.93952 91.912421 
L 334.403712 94.468051 
L 335.97504 97.670473 
L 337.689216 101.679183 
L 339.581952 106.68815 
L 341.68896 112.919659 
L 344.045952 120.611098 
L 346.760064 130.253836 
L 350.08128 142.91419 
L 355.116672 163.102129 
L 361.794816 189.719923 
L 365.366016 203.024321 
L 368.365824 213.371573 
L 371.044224 221.83804 
L 373.508352 228.912718 
L 375.829632 234.913467 
L 378.008064 239.943199 
L 380.07936 244.183131 
L 382.079232 247.782373 
L 384.00768 250.806595 
L 385.900416 253.366948 
L 387.75744 255.508222 
L 389.578752 257.275935 
L 391.400064 258.741138 
L 393.257088 259.953263 
L 395.185536 260.944789 
L 397.185408 261.724092 
L 399.36384 262.331714 
L 401.792256 262.773307 
L 404.684928 263.063157 
L 408.541824 263.207427 
L 414.72 263.232 
L 414.72 263.232 
" style="fill:none;stroke:#1f77b4;stroke-linecap:square;stroke-width:2;"/>
   </g>
  </g>
 </g>
 <defs>
  <clipPath id="pbbcff493c6">
   <rect height="266.112" width="357.12" x="57.6" y="41.472"/>
  </clipPath>
 </defs>
</svg>
