<?xml version="1.0" encoding="utf-8" standalone="no"?>
<!DOCTYPE svg PUBLIC "-//W3C//DTD SVG 1.1//EN"
  "http://www.w3.org/Graphics/SVG/1.1/DTD/svg11.dtd">
<!-- Created with matplotlib (https://matplotlib.org/) -->
<svg height="367.2pt" version="1.1" viewBox="0 0 460.8 367.2" width="460.8pt" xmlns="http://www.w3.org/2000/svg" xmlns:xlink="http://www.w3.org/1999/xlink">
 <metadata>
  <rdf:RDF xmlns:cc="http://creativecommons.org/ns#" xmlns:dc="http://purl.org/dc/elements/1.1/" xmlns:rdf="http://www.w3.org/1999/02/22-rdf-syntax-ns#">
   <cc:Work>
    <dc:type rdf:resource="http://purl.org/dc/dcmitype/StillImage"/>
    <dc:date>2021-02-15T15:21:33.471147</dc:date>
    <dc:format>image/svg+xml</dc:format>
    <dc:creator>
     <cc:Agent>
      <dc:title>Matplotlib v3.3.2, https://matplotlib.org/</dc:title>
     </cc:Agent>
    </dc:creator>
   </cc:Work>
  </rdf:RDF>
 </metadata>
 <defs>
  <style type="text/css">*{stroke-linecap:butt;stroke-linejoin:round;}</style>
 </defs>
 <g id="figure_1">
  <g id="patch_1">
   <path d="M 0 367.2 
L 460.8 367.2 
L 460.8 0 
L 0 0 
z
" style="fill:#ffffff;"/>
  </g>
  <g id="axes_1">
   <g id="patch_2">
    <path d="M 65.018 325.24 
L 442.035 325.24 
L 442.035 14.76 
L 65.018 14.76 
z
" style="fill:#ffffff;"/>
   </g>
   <g id="matplotlib.axis_1">
    <g id="xtick_1">
     <g id="line2d_1">
      <defs>
       <path d="M 0 0 
L 0 3.5 
" id="mbc6cbbeb6b" style="stroke:#000000;stroke-width:0.8;"/>
      </defs>
      <g>
       <use style="stroke:#000000;stroke-width:0.8;" x="65.018" xlink:href="#mbc6cbbeb6b" y="325.24"/>
      </g>
     </g>
     <g id="text_1">
      <!-- 0.0 -->
      <g transform="translate(57.066438 339.838437)scale(0.1 -0.1)">
       <defs>
        <path d="M 31.78125 66.40625 
Q 24.171875 66.40625 20.328125 58.90625 
Q 16.5 51.421875 16.5 36.375 
Q 16.5 21.390625 20.328125 13.890625 
Q 24.171875 6.390625 31.78125 6.390625 
Q 39.453125 6.390625 43.28125 13.890625 
Q 47.125 21.390625 47.125 36.375 
Q 47.125 51.421875 43.28125 58.90625 
Q 39.453125 66.40625 31.78125 66.40625 
z
M 31.78125 74.21875 
Q 44.046875 74.21875 50.515625 64.515625 
Q 56.984375 54.828125 56.984375 36.375 
Q 56.984375 17.96875 50.515625 8.265625 
Q 44.046875 -1.421875 31.78125 -1.421875 
Q 19.53125 -1.421875 13.0625 8.265625 
Q 6.59375 17.96875 6.59375 36.375 
Q 6.59375 54.828125 13.0625 64.515625 
Q 19.53125 74.21875 31.78125 74.21875 
z
" id="DejaVuSans-48"/>
        <path d="M 10.6875 12.40625 
L 21 12.40625 
L 21 0 
L 10.6875 0 
z
" id="DejaVuSans-46"/>
       </defs>
       <use xlink:href="#DejaVuSans-48"/>
       <use x="63.623047" xlink:href="#DejaVuSans-46"/>
       <use x="95.410156" xlink:href="#DejaVuSans-48"/>
      </g>
     </g>
    </g>
    <g id="xtick_2">
     <g id="line2d_2">
      <g>
       <use style="stroke:#000000;stroke-width:0.8;" x="140.4214" xlink:href="#mbc6cbbeb6b" y="325.24"/>
      </g>
     </g>
     <g id="text_2">
      <!-- 0.2 -->
      <g transform="translate(132.469838 339.838437)scale(0.1 -0.1)">
       <defs>
        <path d="M 19.1875 8.296875 
L 53.609375 8.296875 
L 53.609375 0 
L 7.328125 0 
L 7.328125 8.296875 
Q 12.9375 14.109375 22.625 23.890625 
Q 32.328125 33.6875 34.8125 36.53125 
Q 39.546875 41.84375 41.421875 45.53125 
Q 43.3125 49.21875 43.3125 52.78125 
Q 43.3125 58.59375 39.234375 62.25 
Q 35.15625 65.921875 28.609375 65.921875 
Q 23.96875 65.921875 18.8125 64.3125 
Q 13.671875 62.703125 7.8125 59.421875 
L 7.8125 69.390625 
Q 13.765625 71.78125 18.9375 73 
Q 24.125 74.21875 28.421875 74.21875 
Q 39.75 74.21875 46.484375 68.546875 
Q 53.21875 62.890625 53.21875 53.421875 
Q 53.21875 48.921875 51.53125 44.890625 
Q 49.859375 40.875 45.40625 35.40625 
Q 44.1875 33.984375 37.640625 27.21875 
Q 31.109375 20.453125 19.1875 8.296875 
z
" id="DejaVuSans-50"/>
       </defs>
       <use xlink:href="#DejaVuSans-48"/>
       <use x="63.623047" xlink:href="#DejaVuSans-46"/>
       <use x="95.410156" xlink:href="#DejaVuSans-50"/>
      </g>
     </g>
    </g>
    <g id="xtick_3">
     <g id="line2d_3">
      <g>
       <use style="stroke:#000000;stroke-width:0.8;" x="215.8248" xlink:href="#mbc6cbbeb6b" y="325.24"/>
      </g>
     </g>
     <g id="text_3">
      <!-- 0.4 -->
      <g transform="translate(207.873237 339.838437)scale(0.1 -0.1)">
       <defs>
        <path d="M 37.796875 64.3125 
L 12.890625 25.390625 
L 37.796875 25.390625 
z
M 35.203125 72.90625 
L 47.609375 72.90625 
L 47.609375 25.390625 
L 58.015625 25.390625 
L 58.015625 17.1875 
L 47.609375 17.1875 
L 47.609375 0 
L 37.796875 0 
L 37.796875 17.1875 
L 4.890625 17.1875 
L 4.890625 26.703125 
z
" id="DejaVuSans-52"/>
       </defs>
       <use xlink:href="#DejaVuSans-48"/>
       <use x="63.623047" xlink:href="#DejaVuSans-46"/>
       <use x="95.410156" xlink:href="#DejaVuSans-52"/>
      </g>
     </g>
    </g>
    <g id="xtick_4">
     <g id="line2d_4">
      <g>
       <use style="stroke:#000000;stroke-width:0.8;" x="291.2282" xlink:href="#mbc6cbbeb6b" y="325.24"/>
      </g>
     </g>
     <g id="text_4">
      <!-- 0.6 -->
      <g transform="translate(283.276637 339.838437)scale(0.1 -0.1)">
       <defs>
        <path d="M 33.015625 40.375 
Q 26.375 40.375 22.484375 35.828125 
Q 18.609375 31.296875 18.609375 23.390625 
Q 18.609375 15.53125 22.484375 10.953125 
Q 26.375 6.390625 33.015625 6.390625 
Q 39.65625 6.390625 43.53125 10.953125 
Q 47.40625 15.53125 47.40625 23.390625 
Q 47.40625 31.296875 43.53125 35.828125 
Q 39.65625 40.375 33.015625 40.375 
z
M 52.59375 71.296875 
L 52.59375 62.3125 
Q 48.875 64.0625 45.09375 64.984375 
Q 41.3125 65.921875 37.59375 65.921875 
Q 27.828125 65.921875 22.671875 59.328125 
Q 17.53125 52.734375 16.796875 39.40625 
Q 19.671875 43.65625 24.015625 45.921875 
Q 28.375 48.1875 33.59375 48.1875 
Q 44.578125 48.1875 50.953125 41.515625 
Q 57.328125 34.859375 57.328125 23.390625 
Q 57.328125 12.15625 50.6875 5.359375 
Q 44.046875 -1.421875 33.015625 -1.421875 
Q 20.359375 -1.421875 13.671875 8.265625 
Q 6.984375 17.96875 6.984375 36.375 
Q 6.984375 53.65625 15.1875 63.9375 
Q 23.390625 74.21875 37.203125 74.21875 
Q 40.921875 74.21875 44.703125 73.484375 
Q 48.484375 72.75 52.59375 71.296875 
z
" id="DejaVuSans-54"/>
       </defs>
       <use xlink:href="#DejaVuSans-48"/>
       <use x="63.623047" xlink:href="#DejaVuSans-46"/>
       <use x="95.410156" xlink:href="#DejaVuSans-54"/>
      </g>
     </g>
    </g>
    <g id="xtick_5">
     <g id="line2d_5">
      <g>
       <use style="stroke:#000000;stroke-width:0.8;" x="366.6316" xlink:href="#mbc6cbbeb6b" y="325.24"/>
      </g>
     </g>
     <g id="text_5">
      <!-- 0.8 -->
      <g transform="translate(358.680037 339.838437)scale(0.1 -0.1)">
       <defs>
        <path d="M 31.78125 34.625 
Q 24.75 34.625 20.71875 30.859375 
Q 16.703125 27.09375 16.703125 20.515625 
Q 16.703125 13.921875 20.71875 10.15625 
Q 24.75 6.390625 31.78125 6.390625 
Q 38.8125 6.390625 42.859375 10.171875 
Q 46.921875 13.96875 46.921875 20.515625 
Q 46.921875 27.09375 42.890625 30.859375 
Q 38.875 34.625 31.78125 34.625 
z
M 21.921875 38.8125 
Q 15.578125 40.375 12.03125 44.71875 
Q 8.5 49.078125 8.5 55.328125 
Q 8.5 64.0625 14.71875 69.140625 
Q 20.953125 74.21875 31.78125 74.21875 
Q 42.671875 74.21875 48.875 69.140625 
Q 55.078125 64.0625 55.078125 55.328125 
Q 55.078125 49.078125 51.53125 44.71875 
Q 48 40.375 41.703125 38.8125 
Q 48.828125 37.15625 52.796875 32.3125 
Q 56.78125 27.484375 56.78125 20.515625 
Q 56.78125 9.90625 50.3125 4.234375 
Q 43.84375 -1.421875 31.78125 -1.421875 
Q 19.734375 -1.421875 13.25 4.234375 
Q 6.78125 9.90625 6.78125 20.515625 
Q 6.78125 27.484375 10.78125 32.3125 
Q 14.796875 37.15625 21.921875 38.8125 
z
M 18.3125 54.390625 
Q 18.3125 48.734375 21.84375 45.5625 
Q 25.390625 42.390625 31.78125 42.390625 
Q 38.140625 42.390625 41.71875 45.5625 
Q 45.3125 48.734375 45.3125 54.390625 
Q 45.3125 60.0625 41.71875 63.234375 
Q 38.140625 66.40625 31.78125 66.40625 
Q 25.390625 66.40625 21.84375 63.234375 
Q 18.3125 60.0625 18.3125 54.390625 
z
" id="DejaVuSans-56"/>
       </defs>
       <use xlink:href="#DejaVuSans-48"/>
       <use x="63.623047" xlink:href="#DejaVuSans-46"/>
       <use x="95.410156" xlink:href="#DejaVuSans-56"/>
      </g>
     </g>
    </g>
    <g id="xtick_6">
     <g id="line2d_6">
      <g>
       <use style="stroke:#000000;stroke-width:0.8;" x="442.035" xlink:href="#mbc6cbbeb6b" y="325.24"/>
      </g>
     </g>
     <g id="text_6">
      <!-- 1.0 -->
      <g transform="translate(434.083437 339.838437)scale(0.1 -0.1)">
       <defs>
        <path d="M 12.40625 8.296875 
L 28.515625 8.296875 
L 28.515625 63.921875 
L 10.984375 60.40625 
L 10.984375 69.390625 
L 28.421875 72.90625 
L 38.28125 72.90625 
L 38.28125 8.296875 
L 54.390625 8.296875 
L 54.390625 0 
L 12.40625 0 
z
" id="DejaVuSans-49"/>
       </defs>
       <use xlink:href="#DejaVuSans-49"/>
       <use x="63.623047" xlink:href="#DejaVuSans-46"/>
       <use x="95.410156" xlink:href="#DejaVuSans-48"/>
      </g>
     </g>
    </g>
    <g id="text_7">
     <!-- $x$ -->
     <g transform="translate(250.5265 353.516563)scale(0.1 -0.1)">
      <defs>
       <path d="M 60.015625 54.6875 
L 34.90625 27.875 
L 50.296875 0 
L 39.984375 0 
L 28.421875 21.6875 
L 8.296875 0 
L -2.59375 0 
L 24.3125 28.8125 
L 10.015625 54.6875 
L 20.3125 54.6875 
L 30.8125 34.90625 
L 49.125 54.6875 
z
" id="DejaVuSans-Oblique-120"/>
      </defs>
      <use transform="translate(0 0.3125)" xlink:href="#DejaVuSans-Oblique-120"/>
     </g>
    </g>
   </g>
   <g id="matplotlib.axis_2">
    <g id="ytick_1">
     <g id="line2d_7">
      <defs>
       <path d="M 0 0 
L -3.5 0 
" id="md71433e47d" style="stroke:#000000;stroke-width:0.8;"/>
      </defs>
      <g>
       <use style="stroke:#000000;stroke-width:0.8;" x="65.018" xlink:href="#md71433e47d" y="325.24"/>
      </g>
     </g>
     <g id="text_8">
      <!-- −0.50 -->
      <g transform="translate(27.372688 329.039219)scale(0.1 -0.1)">
       <defs>
        <path d="M 10.59375 35.5 
L 73.1875 35.5 
L 73.1875 27.203125 
L 10.59375 27.203125 
z
" id="DejaVuSans-8722"/>
        <path d="M 10.796875 72.90625 
L 49.515625 72.90625 
L 49.515625 64.59375 
L 19.828125 64.59375 
L 19.828125 46.734375 
Q 21.96875 47.46875 24.109375 47.828125 
Q 26.265625 48.1875 28.421875 48.1875 
Q 40.625 48.1875 47.75 41.5 
Q 54.890625 34.8125 54.890625 23.390625 
Q 54.890625 11.625 47.5625 5.09375 
Q 40.234375 -1.421875 26.90625 -1.421875 
Q 22.3125 -1.421875 17.546875 -0.640625 
Q 12.796875 0.140625 7.71875 1.703125 
L 7.71875 11.625 
Q 12.109375 9.234375 16.796875 8.0625 
Q 21.484375 6.890625 26.703125 6.890625 
Q 35.15625 6.890625 40.078125 11.328125 
Q 45.015625 15.765625 45.015625 23.390625 
Q 45.015625 31 40.078125 35.4375 
Q 35.15625 39.890625 26.703125 39.890625 
Q 22.75 39.890625 18.8125 39.015625 
Q 14.890625 38.140625 10.796875 36.28125 
z
" id="DejaVuSans-53"/>
       </defs>
       <use xlink:href="#DejaVuSans-8722"/>
       <use x="83.789062" xlink:href="#DejaVuSans-48"/>
       <use x="147.412109" xlink:href="#DejaVuSans-46"/>
       <use x="179.199219" xlink:href="#DejaVuSans-53"/>
       <use x="242.822266" xlink:href="#DejaVuSans-48"/>
      </g>
     </g>
    </g>
    <g id="ytick_2">
     <g id="line2d_8">
      <g>
       <use style="stroke:#000000;stroke-width:0.8;" x="65.018" xlink:href="#md71433e47d" y="286.43"/>
      </g>
     </g>
     <g id="text_9">
      <!-- −0.25 -->
      <g transform="translate(27.372688 290.229219)scale(0.1 -0.1)">
       <use xlink:href="#DejaVuSans-8722"/>
       <use x="83.789062" xlink:href="#DejaVuSans-48"/>
       <use x="147.412109" xlink:href="#DejaVuSans-46"/>
       <use x="179.199219" xlink:href="#DejaVuSans-50"/>
       <use x="242.822266" xlink:href="#DejaVuSans-53"/>
      </g>
     </g>
    </g>
    <g id="ytick_3">
     <g id="line2d_9">
      <g>
       <use style="stroke:#000000;stroke-width:0.8;" x="65.018" xlink:href="#md71433e47d" y="247.62"/>
      </g>
     </g>
     <g id="text_10">
      <!-- 0.00 -->
      <g transform="translate(35.752375 251.419219)scale(0.1 -0.1)">
       <use xlink:href="#DejaVuSans-48"/>
       <use x="63.623047" xlink:href="#DejaVuSans-46"/>
       <use x="95.410156" xlink:href="#DejaVuSans-48"/>
       <use x="159.033203" xlink:href="#DejaVuSans-48"/>
      </g>
     </g>
    </g>
    <g id="ytick_4">
     <g id="line2d_10">
      <g>
       <use style="stroke:#000000;stroke-width:0.8;" x="65.018" xlink:href="#md71433e47d" y="208.81"/>
      </g>
     </g>
     <g id="text_11">
      <!-- 0.25 -->
      <g transform="translate(35.752375 212.609219)scale(0.1 -0.1)">
       <use xlink:href="#DejaVuSans-48"/>
       <use x="63.623047" xlink:href="#DejaVuSans-46"/>
       <use x="95.410156" xlink:href="#DejaVuSans-50"/>
       <use x="159.033203" xlink:href="#DejaVuSans-53"/>
      </g>
     </g>
    </g>
    <g id="ytick_5">
     <g id="line2d_11">
      <g>
       <use style="stroke:#000000;stroke-width:0.8;" x="65.018" xlink:href="#md71433e47d" y="170"/>
      </g>
     </g>
     <g id="text_12">
      <!-- 0.50 -->
      <g transform="translate(35.752375 173.799219)scale(0.1 -0.1)">
       <use xlink:href="#DejaVuSans-48"/>
       <use x="63.623047" xlink:href="#DejaVuSans-46"/>
       <use x="95.410156" xlink:href="#DejaVuSans-53"/>
       <use x="159.033203" xlink:href="#DejaVuSans-48"/>
      </g>
     </g>
    </g>
    <g id="ytick_6">
     <g id="line2d_12">
      <g>
       <use style="stroke:#000000;stroke-width:0.8;" x="65.018" xlink:href="#md71433e47d" y="131.19"/>
      </g>
     </g>
     <g id="text_13">
      <!-- 0.75 -->
      <g transform="translate(35.752375 134.989219)scale(0.1 -0.1)">
       <defs>
        <path d="M 8.203125 72.90625 
L 55.078125 72.90625 
L 55.078125 68.703125 
L 28.609375 0 
L 18.3125 0 
L 43.21875 64.59375 
L 8.203125 64.59375 
z
" id="DejaVuSans-55"/>
       </defs>
       <use xlink:href="#DejaVuSans-48"/>
       <use x="63.623047" xlink:href="#DejaVuSans-46"/>
       <use x="95.410156" xlink:href="#DejaVuSans-55"/>
       <use x="159.033203" xlink:href="#DejaVuSans-53"/>
      </g>
     </g>
    </g>
    <g id="ytick_7">
     <g id="line2d_13">
      <g>
       <use style="stroke:#000000;stroke-width:0.8;" x="65.018" xlink:href="#md71433e47d" y="92.38"/>
      </g>
     </g>
     <g id="text_14">
      <!-- 1.00 -->
      <g transform="translate(35.752375 96.179219)scale(0.1 -0.1)">
       <use xlink:href="#DejaVuSans-49"/>
       <use x="63.623047" xlink:href="#DejaVuSans-46"/>
       <use x="95.410156" xlink:href="#DejaVuSans-48"/>
       <use x="159.033203" xlink:href="#DejaVuSans-48"/>
      </g>
     </g>
    </g>
    <g id="ytick_8">
     <g id="line2d_14">
      <g>
       <use style="stroke:#000000;stroke-width:0.8;" x="65.018" xlink:href="#md71433e47d" y="53.57"/>
      </g>
     </g>
     <g id="text_15">
      <!-- 1.25 -->
      <g transform="translate(35.752375 57.369219)scale(0.1 -0.1)">
       <use xlink:href="#DejaVuSans-49"/>
       <use x="63.623047" xlink:href="#DejaVuSans-46"/>
       <use x="95.410156" xlink:href="#DejaVuSans-50"/>
       <use x="159.033203" xlink:href="#DejaVuSans-53"/>
      </g>
     </g>
    </g>
    <g id="ytick_9">
     <g id="line2d_15">
      <g>
       <use style="stroke:#000000;stroke-width:0.8;" x="65.018" xlink:href="#md71433e47d" y="14.76"/>
      </g>
     </g>
     <g id="text_16">
      <!-- 1.50 -->
      <g transform="translate(35.752375 18.559219)scale(0.1 -0.1)">
       <use xlink:href="#DejaVuSans-49"/>
       <use x="63.623047" xlink:href="#DejaVuSans-46"/>
       <use x="95.410156" xlink:href="#DejaVuSans-53"/>
       <use x="159.033203" xlink:href="#DejaVuSans-48"/>
      </g>
     </g>
    </g>
    <g id="text_17">
     <!-- $f(x)$ and $f_h(x)$ -->
     <g transform="translate(21.293 202.2)rotate(-90)scale(0.1 -0.1)">
      <defs>
       <path d="M 47.796875 75.984375 
L 46.390625 68.5 
L 37.796875 68.5 
Q 32.90625 68.5 30.6875 66.578125 
Q 28.46875 64.65625 27.390625 59.515625 
L 26.421875 54.6875 
L 41.21875 54.6875 
L 39.890625 47.703125 
L 25.09375 47.703125 
L 15.828125 0 
L 6.78125 0 
L 16.109375 47.703125 
L 7.515625 47.703125 
L 8.796875 54.6875 
L 17.390625 54.6875 
L 18.109375 58.5 
Q 19.96875 68.171875 24.625 72.078125 
Q 29.296875 75.984375 39.3125 75.984375 
z
" id="DejaVuSans-Oblique-102"/>
       <path d="M 31 75.875 
Q 24.46875 64.65625 21.28125 53.65625 
Q 18.109375 42.671875 18.109375 31.390625 
Q 18.109375 20.125 21.3125 9.0625 
Q 24.515625 -2 31 -13.1875 
L 23.1875 -13.1875 
Q 15.875 -1.703125 12.234375 9.375 
Q 8.59375 20.453125 8.59375 31.390625 
Q 8.59375 42.28125 12.203125 53.3125 
Q 15.828125 64.359375 23.1875 75.875 
z
" id="DejaVuSans-40"/>
       <path d="M 8.015625 75.875 
L 15.828125 75.875 
Q 23.140625 64.359375 26.78125 53.3125 
Q 30.421875 42.28125 30.421875 31.390625 
Q 30.421875 20.453125 26.78125 9.375 
Q 23.140625 -1.703125 15.828125 -13.1875 
L 8.015625 -13.1875 
Q 14.5 -2 17.703125 9.0625 
Q 20.90625 20.125 20.90625 31.390625 
Q 20.90625 42.671875 17.703125 53.65625 
Q 14.5 64.65625 8.015625 75.875 
z
" id="DejaVuSans-41"/>
       <path id="DejaVuSans-32"/>
       <path d="M 34.28125 27.484375 
Q 23.390625 27.484375 19.1875 25 
Q 14.984375 22.515625 14.984375 16.5 
Q 14.984375 11.71875 18.140625 8.90625 
Q 21.296875 6.109375 26.703125 6.109375 
Q 34.1875 6.109375 38.703125 11.40625 
Q 43.21875 16.703125 43.21875 25.484375 
L 43.21875 27.484375 
z
M 52.203125 31.203125 
L 52.203125 0 
L 43.21875 0 
L 43.21875 8.296875 
Q 40.140625 3.328125 35.546875 0.953125 
Q 30.953125 -1.421875 24.3125 -1.421875 
Q 15.921875 -1.421875 10.953125 3.296875 
Q 6 8.015625 6 15.921875 
Q 6 25.140625 12.171875 29.828125 
Q 18.359375 34.515625 30.609375 34.515625 
L 43.21875 34.515625 
L 43.21875 35.40625 
Q 43.21875 41.609375 39.140625 45 
Q 35.0625 48.390625 27.6875 48.390625 
Q 23 48.390625 18.546875 47.265625 
Q 14.109375 46.140625 10.015625 43.890625 
L 10.015625 52.203125 
Q 14.9375 54.109375 19.578125 55.046875 
Q 24.21875 56 28.609375 56 
Q 40.484375 56 46.34375 49.84375 
Q 52.203125 43.703125 52.203125 31.203125 
z
" id="DejaVuSans-97"/>
       <path d="M 54.890625 33.015625 
L 54.890625 0 
L 45.90625 0 
L 45.90625 32.71875 
Q 45.90625 40.484375 42.875 44.328125 
Q 39.84375 48.1875 33.796875 48.1875 
Q 26.515625 48.1875 22.3125 43.546875 
Q 18.109375 38.921875 18.109375 30.90625 
L 18.109375 0 
L 9.078125 0 
L 9.078125 54.6875 
L 18.109375 54.6875 
L 18.109375 46.1875 
Q 21.34375 51.125 25.703125 53.5625 
Q 30.078125 56 35.796875 56 
Q 45.21875 56 50.046875 50.171875 
Q 54.890625 44.34375 54.890625 33.015625 
z
" id="DejaVuSans-110"/>
       <path d="M 45.40625 46.390625 
L 45.40625 75.984375 
L 54.390625 75.984375 
L 54.390625 0 
L 45.40625 0 
L 45.40625 8.203125 
Q 42.578125 3.328125 38.25 0.953125 
Q 33.9375 -1.421875 27.875 -1.421875 
Q 17.96875 -1.421875 11.734375 6.484375 
Q 5.515625 14.40625 5.515625 27.296875 
Q 5.515625 40.1875 11.734375 48.09375 
Q 17.96875 56 27.875 56 
Q 33.9375 56 38.25 53.625 
Q 42.578125 51.265625 45.40625 46.390625 
z
M 14.796875 27.296875 
Q 14.796875 17.390625 18.875 11.75 
Q 22.953125 6.109375 30.078125 6.109375 
Q 37.203125 6.109375 41.296875 11.75 
Q 45.40625 17.390625 45.40625 27.296875 
Q 45.40625 37.203125 41.296875 42.84375 
Q 37.203125 48.484375 30.078125 48.484375 
Q 22.953125 48.484375 18.875 42.84375 
Q 14.796875 37.203125 14.796875 27.296875 
z
" id="DejaVuSans-100"/>
       <path d="M 55.71875 33.015625 
L 49.3125 0 
L 40.28125 0 
L 46.6875 32.671875 
Q 47.125 34.96875 47.359375 36.71875 
Q 47.609375 38.484375 47.609375 39.5 
Q 47.609375 43.609375 45.015625 45.890625 
Q 42.4375 48.1875 37.796875 48.1875 
Q 30.5625 48.1875 25.265625 43.296875 
Q 19.96875 38.421875 18.40625 30.328125 
L 12.5 0 
L 3.515625 0 
L 18.3125 75.984375 
L 27.296875 75.984375 
L 21.484375 46.09375 
Q 24.90625 50.6875 30.21875 53.34375 
Q 35.546875 56 41.40625 56 
Q 48.640625 56 52.609375 52.09375 
Q 56.59375 48.1875 56.59375 41.109375 
Q 56.59375 39.359375 56.375 37.359375 
Q 56.15625 35.359375 55.71875 33.015625 
z
" id="DejaVuSans-Oblique-104"/>
      </defs>
      <use transform="translate(0 0.015625)" xlink:href="#DejaVuSans-Oblique-102"/>
      <use transform="translate(35.205078 0.015625)" xlink:href="#DejaVuSans-40"/>
      <use transform="translate(74.21875 0.015625)" xlink:href="#DejaVuSans-Oblique-120"/>
      <use transform="translate(133.398438 0.015625)" xlink:href="#DejaVuSans-41"/>
      <use transform="translate(172.412109 0.015625)" xlink:href="#DejaVuSans-32"/>
      <use transform="translate(204.199219 0.015625)" xlink:href="#DejaVuSans-97"/>
      <use transform="translate(265.478516 0.015625)" xlink:href="#DejaVuSans-110"/>
      <use transform="translate(328.857422 0.015625)" xlink:href="#DejaVuSans-100"/>
      <use transform="translate(392.333984 0.015625)" xlink:href="#DejaVuSans-32"/>
      <use transform="translate(424.121094 0.015625)" xlink:href="#DejaVuSans-Oblique-102"/>
      <use transform="translate(459.326172 -16.390625)scale(0.7)" xlink:href="#DejaVuSans-Oblique-104"/>
      <use transform="translate(506.425781 0.015625)" xlink:href="#DejaVuSans-40"/>
      <use transform="translate(545.439453 0.015625)" xlink:href="#DejaVuSans-Oblique-120"/>
      <use transform="translate(604.619141 0.015625)" xlink:href="#DejaVuSans-41"/>
     </g>
    </g>
   </g>
   <g id="line2d_16">
    <path clip-path="url(#p718645c097)" d="M 186.024939 -1 
L 188.277183 30.557643 
L 190.501806 58.680125 
L 192.688723 83.570852 
L 194.837935 105.552545 
L 196.949441 124.920696 
L 199.023242 141.945431 
L 201.059338 156.873279 
L 203.057728 169.928841 
L 205.018412 181.316377 
L 206.941391 191.221299 
L 208.826665 199.811586 
L 210.711938 207.381049 
L 212.559506 213.889947 
L 214.369369 219.467037 
L 216.141526 224.227913 
L 217.913683 228.357797 
L 219.648135 231.844962 
L 221.382586 234.835738 
L 223.079333 237.328748 
L 224.776079 239.438037 
L 226.51053 241.240849 
L 228.244982 242.727924 
L 230.054845 243.985409 
L 231.940118 245.01984 
L 233.938508 245.857049 
L 236.08772 246.512497 
L 238.50087 247.009604 
L 241.32878 247.354909 
L 244.9108 247.554015 
L 250.679737 247.619214 
L 263.047131 247.521612 
L 266.704562 247.258851 
L 269.494767 246.841405 
L 271.870211 246.264094 
L 273.981718 245.523489 
L 275.904697 244.616823 
L 277.714559 243.520936 
L 279.449011 242.212595 
L 281.145757 240.651671 
L 282.804798 238.82038 
L 284.463839 236.649853 
L 286.122879 234.100579 
L 287.78192 231.130867 
L 289.440961 227.696849 
L 291.137707 223.656529 
L 292.834453 219.030777 
L 294.568905 213.640903 
L 296.341062 207.381049 
L 298.113219 200.293684 
L 299.923082 192.128742 
L 301.77065 182.747705 
L 303.655923 171.997424 
L 305.578902 159.708894 
L 307.539587 145.695962 
L 309.537976 129.753951 
L 311.574072 111.65821 
L 313.647873 91.162569 
L 315.721674 68.432636 
L 317.83318 42.831769 
L 319.982392 14.051322 
L 321.028061 -1 
L 321.028061 -1 
" style="fill:none;stroke:#ff7f0e;stroke-linecap:square;stroke-width:1.5;"/>
   </g>
   <g id="line2d_17">
    <path clip-path="url(#p718645c097)" d="M 186.024939 -1 
L 188.277183 30.557643 
L 190.501806 58.680125 
L 192.688723 83.570852 
L 194.837935 105.552545 
L 196.949441 124.920696 
L 199.023242 141.945431 
L 201.059338 156.873279 
L 203.057728 169.928841 
L 205.018412 181.316377 
L 206.941391 191.221299 
L 208.826665 199.811586 
L 210.711938 207.381049 
L 212.559506 213.889947 
L 214.369369 219.467037 
L 216.141526 224.227913 
L 217.913683 228.357797 
L 219.648135 231.844962 
L 221.382586 234.835738 
L 223.079333 237.328748 
L 224.776079 239.438037 
L 226.51053 241.240849 
L 228.244982 242.727924 
L 230.054845 243.985409 
L 231.940118 245.01984 
L 233.938508 245.857049 
L 236.08772 246.512497 
L 238.50087 247.009604 
L 241.32878 247.354909 
L 244.9108 247.554015 
L 250.679737 247.619214 
L 263.047131 247.521612 
L 266.704562 247.258851 
L 269.494767 246.841405 
L 271.870211 246.264094 
L 273.981718 245.523489 
L 275.904697 244.616823 
L 277.714559 243.520936 
L 279.449011 242.212595 
L 281.145757 240.651671 
L 282.804798 238.82038 
L 284.463839 236.649853 
L 286.122879 234.100579 
L 287.78192 231.130867 
L 289.440961 227.696849 
L 291.137707 223.656529 
L 292.834453 219.030777 
L 294.568905 213.640903 
L 296.341062 207.381049 
L 298.113219 200.293684 
L 299.923082 192.128742 
L 301.77065 182.747705 
L 303.655923 171.997424 
L 305.578902 159.708894 
L 307.539587 145.695962 
L 309.537976 129.753951 
L 311.574072 111.65821 
L 313.647873 91.162569 
L 315.721674 68.432636 
L 317.83318 42.831769 
L 319.982392 14.051322 
L 321.028061 -1 
L 321.028061 -1 
" style="fill:none;stroke:#2ca02c;stroke-linecap:square;stroke-width:1.5;"/>
   </g>
   <g id="line2d_18">
    <path clip-path="url(#p718645c097)" d="M 172.06635 368.2 
L 173.647461 336.079123 
L 175.193385 309.008387 
L 176.701604 286.340552 
L 178.172117 267.461268 
L 179.604925 251.83386 
L 181.000027 238.990284 
L 182.357424 228.523054 
L 183.63941 220.297212 
L 184.883691 213.706375 
L 186.05256 208.645802 
L 187.183725 204.69249 
L 188.239478 201.762255 
L 189.257525 199.566855 
L 190.200162 198.035759 
L 191.105094 196.979129 
L 191.934614 196.335236 
L 192.726429 195.985621 
L 193.518244 195.872954 
L 194.347764 195.986741 
L 195.21499 196.335441 
L 196.195332 196.982533 
L 197.288791 197.982359 
L 198.570777 199.473087 
L 200.078995 201.586581 
L 201.926564 204.578427 
L 204.415125 209.067251 
L 214.256252 227.272515 
L 216.782519 231.24829 
L 219.082553 234.467436 
L 221.26947 237.152717 
L 223.343271 239.357548 
L 225.379366 241.206105 
L 227.415462 242.756266 
L 229.451557 244.028813 
L 231.525358 245.065645 
L 233.712275 245.908362 
L 236.050014 246.566063 
L 238.613986 247.052164 
L 241.592719 247.383524 
L 245.363266 247.567478 
L 251.773196 247.619887 
L 263.31107 247.512185 
L 266.9685 247.242117 
L 269.834116 246.814783 
L 272.322677 246.223062 
L 274.585005 245.458372 
L 276.696512 244.511747 
L 278.732607 243.354703 
L 280.730997 241.959728 
L 282.729387 240.285937 
L 284.727777 238.31646 
L 286.763872 235.994802 
L 288.913084 233.196307 
L 291.175412 229.874818 
L 293.663973 225.811015 
L 296.567295 220.620183 
L 301.205068 211.78417 
L 304.787087 205.165178 
L 306.936299 201.643647 
L 308.59534 199.32924 
L 309.952737 197.790827 
L 311.121606 196.783685 
L 312.139654 196.189016 
L 313.044585 195.912939 
L 313.874106 195.893564 
L 314.66592 196.10521 
L 315.457735 196.562907 
L 316.24955 197.288658 
L 317.079071 198.36165 
L 317.946296 199.855349 
L 318.888933 201.948744 
L 319.869275 204.69249 
L 320.925029 208.354389 
L 322.018487 212.994208 
L 323.149651 218.789187 
L 324.356226 226.195509 
L 325.600507 235.288947 
L 326.882493 246.358252 
L 328.202184 259.735057 
L 329.559581 275.79964 
L 330.954684 294.987395 
L 332.387492 317.796072 
L 333.858005 344.793881 
L 334.98665 368.2 
L 334.98665 368.2 
" style="fill:none;stroke:#d62728;stroke-linecap:square;stroke-width:1.5;"/>
   </g>
   <g id="line2d_19">
    <path clip-path="url(#p718645c097)" d="M 172.06635 368.2 
L 173.647461 336.079123 
L 175.193385 309.008387 
L 176.701604 286.340552 
L 178.172117 267.461268 
L 179.604925 251.83386 
L 181.000027 238.990284 
L 182.357424 228.523054 
L 183.63941 220.297212 
L 184.883691 213.706375 
L 186.05256 208.645802 
L 187.183725 204.69249 
L 188.239478 201.762255 
L 189.257525 199.566855 
L 190.200162 198.035759 
L 191.105094 196.979129 
L 191.934614 196.335236 
L 192.726429 195.985621 
L 193.518244 195.872954 
L 194.347764 195.986741 
L 195.21499 196.335441 
L 196.195332 196.982533 
L 197.288791 197.982359 
L 198.570777 199.473087 
L 200.078995 201.586581 
L 201.926564 204.578427 
L 204.415125 209.067251 
L 214.256252 227.272515 
L 216.782519 231.24829 
L 219.082553 234.467436 
L 221.26947 237.152717 
L 223.343271 239.357548 
L 225.379366 241.206105 
L 227.415462 242.756266 
L 229.451557 244.028813 
L 231.525358 245.065645 
L 233.712275 245.908362 
L 236.050014 246.566063 
L 238.613986 247.052164 
L 241.592719 247.383524 
L 245.363266 247.567478 
L 251.773196 247.619887 
L 263.31107 247.512185 
L 266.9685 247.242117 
L 269.834116 246.814783 
L 272.322677 246.223062 
L 274.585005 245.458372 
L 276.696512 244.511747 
L 278.732607 243.354703 
L 280.730997 241.959728 
L 282.729387 240.285937 
L 284.727777 238.31646 
L 286.763872 235.994802 
L 288.913084 233.196307 
L 291.175412 229.874818 
L 293.663973 225.811015 
L 296.567295 220.620183 
L 301.205068 211.78417 
L 304.787087 205.165178 
L 306.936299 201.643647 
L 308.59534 199.32924 
L 309.952737 197.790827 
L 311.121606 196.783685 
L 312.139654 196.189016 
L 313.044585 195.912939 
L 313.874106 195.893564 
L 314.66592 196.10521 
L 315.457735 196.562907 
L 316.24955 197.288658 
L 317.079071 198.36165 
L 317.946296 199.855349 
L 318.888933 201.948744 
L 319.869275 204.69249 
L 320.925029 208.354389 
L 322.018487 212.994208 
L 323.149651 218.789187 
L 324.356226 226.195509 
L 325.600507 235.288947 
L 326.882493 246.358252 
L 328.202184 259.735057 
L 329.559581 275.79964 
L 330.954684 294.987395 
L 332.387492 317.796072 
L 333.858005 344.793881 
L 334.98665 368.2 
L 334.98665 368.2 
" style="fill:none;stroke:#9467bd;stroke-linecap:square;stroke-width:1.5;"/>
   </g>
   <g id="line2d_20">
    <path clip-path="url(#p718645c097)" d="M 171.269404 -1 
L 172.968762 21.617004 
L 174.703214 41.8433 
L 176.513076 60.362905 
L 178.360644 76.998353 
L 180.283623 92.301883 
L 182.282013 106.425866 
L 184.355814 119.524423 
L 186.580437 132.151595 
L 188.918176 144.142568 
L 191.406737 155.744541 
L 194.008415 166.820716 
L 196.685503 177.26526 
L 199.400297 186.983286 
L 202.115091 195.886204 
L 204.754474 203.790124 
L 207.28074 210.671588 
L 209.731596 216.711577 
L 212.069335 221.891386 
L 214.293958 226.298053 
L 216.44317 230.079391 
L 218.554676 233.350592 
L 220.590771 236.103213 
L 222.589161 238.438935 
L 224.549846 240.398173 
L 226.51053 242.050507 
L 228.50892 243.444313 
L 230.545016 244.591927 
L 232.656522 245.524773 
L 234.881145 246.26315 
L 237.294295 246.828306 
L 240.046794 247.237732 
L 243.364876 247.494737 
L 248.002649 247.608914 
L 260.256926 247.595633 
L 265.007816 247.416935 
L 268.250486 247.079349 
L 270.927575 246.582049 
L 273.303019 245.916524 
L 275.489937 245.072251 
L 277.526032 244.050597 
L 279.486716 242.821651 
L 281.409695 241.355993 
L 283.332674 239.608066 
L 285.255653 237.555569 
L 287.216338 235.128631 
L 289.214728 232.289127 
L 291.250823 228.999937 
L 293.36233 225.152973 
L 295.549247 220.690056 
L 297.811575 215.5536 
L 300.149314 209.686806 
L 302.60017 202.92387 
L 305.126436 195.293497 
L 307.728114 186.724556 
L 310.367497 177.26526 
L 313.00688 166.974208 
L 315.570852 156.079806 
L 318.021707 144.694118 
L 320.321741 132.961764 
L 322.508658 120.647361 
L 324.582459 107.677312 
L 326.543144 93.985118 
L 328.428417 79.211476 
L 330.23828 63.224338 
L 331.972731 45.90405 
L 333.669478 26.698266 
L 335.328518 5.355769 
L 335.783596 -1 
L 335.783596 -1 
" style="fill:none;stroke:#8c564b;stroke-linecap:square;stroke-width:1.5;"/>
   </g>
   <g id="line2d_21">
    <path clip-path="url(#p718645c097)" d="M 171.269404 -1 
L 172.968762 21.617004 
L 174.703214 41.8433 
L 176.513076 60.362905 
L 178.360644 76.998353 
L 180.283623 92.301883 
L 182.282013 106.425866 
L 184.355814 119.524423 
L 186.580437 132.151595 
L 188.918176 144.142568 
L 191.406737 155.744541 
L 194.008415 166.820716 
L 196.685503 177.26526 
L 199.400297 186.983286 
L 202.115091 195.886204 
L 204.754474 203.790124 
L 207.28074 210.671588 
L 209.731596 216.711577 
L 212.069335 221.891386 
L 214.293958 226.298053 
L 216.44317 230.079391 
L 218.554676 233.350592 
L 220.590771 236.103213 
L 222.589161 238.438935 
L 224.549846 240.398173 
L 226.51053 242.050507 
L 228.50892 243.444313 
L 230.545016 244.591927 
L 232.656522 245.524773 
L 234.881145 246.26315 
L 237.294295 246.828306 
L 240.046794 247.237732 
L 243.364876 247.494737 
L 248.002649 247.608914 
L 260.256926 247.595633 
L 265.007816 247.416935 
L 268.250486 247.079349 
L 270.927575 246.582049 
L 273.303019 245.916524 
L 275.489937 245.072251 
L 277.526032 244.050597 
L 279.486716 242.821651 
L 281.409695 241.355993 
L 283.332674 239.608066 
L 285.255653 237.555569 
L 287.216338 235.128631 
L 289.214728 232.289127 
L 291.250823 228.999937 
L 293.36233 225.152973 
L 295.549247 220.690056 
L 297.811575 215.5536 
L 300.149314 209.686806 
L 302.60017 202.92387 
L 305.126436 195.293497 
L 307.728114 186.724556 
L 310.367497 177.26526 
L 313.00688 166.974208 
L 315.570852 156.079806 
L 318.021707 144.694118 
L 320.321741 132.961764 
L 322.508658 120.647361 
L 324.582459 107.677312 
L 326.543144 93.985118 
L 328.428417 79.211476 
L 330.23828 63.224338 
L 331.972731 45.90405 
L 333.669478 26.698266 
L 335.328518 5.355769 
L 335.783596 -1 
L 335.783596 -1 
" style="fill:none;stroke:#e377c2;stroke-linecap:square;stroke-width:1.5;"/>
   </g>
   <g id="line2d_22">
    <path clip-path="url(#p718645c097)" d="M 153.491378 368.2 
L 154.945547 324.864226 
L 156.416061 287.484348 
L 157.848868 256.537565 
L 159.243971 230.969637 
L 160.639073 209.365929 
L 161.99647 191.699733 
L 163.316162 177.32298 
L 164.598148 165.694874 
L 165.842428 156.363512 
L 167.049003 148.950716 
L 168.180167 143.307449 
L 169.273626 138.929504 
L 170.291674 135.711302 
L 171.272016 133.319613 
L 172.176947 131.672118 
L 173.006468 130.593894 
L 173.798283 129.919031 
L 174.514686 129.584114 
L 175.23109 129.492011 
L 175.947494 129.625433 
L 176.701604 129.991667 
L 177.56883 130.676469 
L 178.549172 131.759924 
L 179.64263 133.316031 
L 180.924616 135.551667 
L 182.39513 138.585912 
L 184.129581 142.700111 
L 186.203382 148.218316 
L 188.842765 155.917843 
L 192.688723 167.904233 
L 200.493756 192.331605 
L 203.849543 202.029658 
L 206.752864 209.763457 
L 209.392247 216.178133 
L 211.843102 221.564801 
L 214.143136 226.100274 
L 216.367759 230.002046 
L 218.479265 233.267654 
L 220.553066 236.070109 
L 222.551456 238.4058 
L 224.549846 240.402126 
L 226.51053 242.052468 
L 228.50892 243.445222 
L 230.545016 244.592316 
L 232.656522 245.524921 
L 234.881145 246.263198 
L 237.294295 246.828318 
L 240.046794 247.237734 
L 243.364876 247.494737 
L 248.002649 247.608914 
L 260.256926 247.595633 
L 265.007816 247.416935 
L 268.250486 247.079353 
L 270.927575 246.582073 
L 273.303019 245.916611 
L 275.489937 245.072499 
L 277.526032 244.051197 
L 279.524422 242.79681 
L 281.447401 241.327236 
L 283.37038 239.576126 
L 285.293359 237.522053 
L 287.254043 235.096569 
L 289.252433 232.263976 
L 291.326234 228.926663 
L 293.475446 225.032206 
L 295.700069 220.532712 
L 298.075513 215.211335 
L 300.60178 208.991724 
L 303.354279 201.610092 
L 306.483833 192.557166 
L 310.367497 180.599833 
L 319.944686 150.78705 
L 322.433247 143.951752 
L 324.393932 139.177398 
L 326.052973 135.695727 
L 327.448075 133.256722 
L 328.65465 131.573167 
L 329.672698 130.504815 
L 330.577629 129.858529 
L 331.369444 129.551089 
L 332.085848 129.498811 
L 332.764546 129.662796 
L 333.443245 130.049804 
L 334.159649 130.717879 
L 334.913758 131.730664 
L 335.743279 133.240587 
L 336.610504 135.299889 
L 337.553141 138.145885 
L 338.533483 141.840733 
L 339.589237 146.74221 
L 340.682695 152.933144 
L 341.813859 160.661563 
L 342.982729 170.22152 
L 344.189304 181.962181 
L 345.433584 196.29878 
L 346.71557 213.72585 
L 348.035262 234.83319 
L 349.354953 259.560992 
L 350.71235 289.256573 
L 352.107453 324.864226 
L 353.502555 366.304963 
L 353.561622 368.2 
L 353.561622 368.2 
" style="fill:none;stroke:#7f7f7f;stroke-linecap:square;stroke-width:1.5;"/>
   </g>
   <g id="patch_3">
    <path d="M 65.018 325.24 
L 65.018 14.76 
" style="fill:none;stroke:#000000;stroke-linecap:square;stroke-linejoin:miter;stroke-width:0.8;"/>
   </g>
   <g id="patch_4">
    <path d="M 442.035 325.24 
L 442.035 14.76 
" style="fill:none;stroke:#000000;stroke-linecap:square;stroke-linejoin:miter;stroke-width:0.8;"/>
   </g>
   <g id="patch_5">
    <path d="M 65.018 325.24 
L 442.035 325.24 
" style="fill:none;stroke:#000000;stroke-linecap:square;stroke-linejoin:miter;stroke-width:0.8;"/>
   </g>
   <g id="patch_6">
    <path d="M 65.018 14.76 
L 442.035 14.76 
" style="fill:none;stroke:#000000;stroke-linecap:square;stroke-linejoin:miter;stroke-width:0.8;"/>
   </g>
   <g id="legend_1">
    <g id="patch_7">
     <path d="M 357.619375 140.185 
L 435.035 140.185 
Q 437.035 140.185 437.035 138.185 
L 437.035 21.76 
Q 437.035 19.76 435.035 19.76 
L 357.619375 19.76 
Q 355.619375 19.76 355.619375 21.76 
L 355.619375 138.185 
Q 355.619375 140.185 357.619375 140.185 
z
" style="fill:#ffffff;opacity:0.8;stroke:#cccccc;stroke-linejoin:miter;"/>
    </g>
    <g id="line2d_23">
     <path d="M 359.619375 27.858438 
L 379.619375 27.858438 
" style="fill:none;stroke:#1f77b4;stroke-linecap:square;stroke-width:2;"/>
    </g>
    <g id="line2d_24"/>
    <g id="text_18">
     <!-- exact -->
     <g transform="translate(387.619375 31.358438)scale(0.1 -0.1)">
      <defs>
       <path d="M 56.203125 29.59375 
L 56.203125 25.203125 
L 14.890625 25.203125 
Q 15.484375 15.921875 20.484375 11.0625 
Q 25.484375 6.203125 34.421875 6.203125 
Q 39.59375 6.203125 44.453125 7.46875 
Q 49.3125 8.734375 54.109375 11.28125 
L 54.109375 2.78125 
Q 49.265625 0.734375 44.1875 -0.34375 
Q 39.109375 -1.421875 33.890625 -1.421875 
Q 20.796875 -1.421875 13.15625 6.1875 
Q 5.515625 13.8125 5.515625 26.8125 
Q 5.515625 40.234375 12.765625 48.109375 
Q 20.015625 56 32.328125 56 
Q 43.359375 56 49.78125 48.890625 
Q 56.203125 41.796875 56.203125 29.59375 
z
M 47.21875 32.234375 
Q 47.125 39.59375 43.09375 43.984375 
Q 39.0625 48.390625 32.421875 48.390625 
Q 24.90625 48.390625 20.390625 44.140625 
Q 15.875 39.890625 15.1875 32.171875 
z
" id="DejaVuSans-101"/>
       <path d="M 54.890625 54.6875 
L 35.109375 28.078125 
L 55.90625 0 
L 45.3125 0 
L 29.390625 21.484375 
L 13.484375 0 
L 2.875 0 
L 24.125 28.609375 
L 4.6875 54.6875 
L 15.28125 54.6875 
L 29.78125 35.203125 
L 44.28125 54.6875 
z
" id="DejaVuSans-120"/>
       <path d="M 48.78125 52.59375 
L 48.78125 44.1875 
Q 44.96875 46.296875 41.140625 47.34375 
Q 37.3125 48.390625 33.40625 48.390625 
Q 24.65625 48.390625 19.8125 42.84375 
Q 14.984375 37.3125 14.984375 27.296875 
Q 14.984375 17.28125 19.8125 11.734375 
Q 24.65625 6.203125 33.40625 6.203125 
Q 37.3125 6.203125 41.140625 7.25 
Q 44.96875 8.296875 48.78125 10.40625 
L 48.78125 2.09375 
Q 45.015625 0.34375 40.984375 -0.53125 
Q 36.96875 -1.421875 32.421875 -1.421875 
Q 20.0625 -1.421875 12.78125 6.34375 
Q 5.515625 14.109375 5.515625 27.296875 
Q 5.515625 40.671875 12.859375 48.328125 
Q 20.21875 56 33.015625 56 
Q 37.15625 56 41.109375 55.140625 
Q 45.0625 54.296875 48.78125 52.59375 
z
" id="DejaVuSans-99"/>
       <path d="M 18.3125 70.21875 
L 18.3125 54.6875 
L 36.8125 54.6875 
L 36.8125 47.703125 
L 18.3125 47.703125 
L 18.3125 18.015625 
Q 18.3125 11.328125 20.140625 9.421875 
Q 21.96875 7.515625 27.59375 7.515625 
L 36.8125 7.515625 
L 36.8125 0 
L 27.59375 0 
Q 17.1875 0 13.234375 3.875 
Q 9.28125 7.765625 9.28125 18.015625 
L 9.28125 47.703125 
L 2.6875 47.703125 
L 2.6875 54.6875 
L 9.28125 54.6875 
L 9.28125 70.21875 
z
" id="DejaVuSans-116"/>
      </defs>
      <use xlink:href="#DejaVuSans-101"/>
      <use x="59.773438" xlink:href="#DejaVuSans-120"/>
      <use x="118.953125" xlink:href="#DejaVuSans-97"/>
      <use x="180.232422" xlink:href="#DejaVuSans-99"/>
      <use x="235.212891" xlink:href="#DejaVuSans-116"/>
     </g>
    </g>
    <g id="line2d_25">
     <path d="M 359.619375 42.536563 
L 379.619375 42.536563 
" style="fill:none;stroke:#ff7f0e;stroke-linecap:square;stroke-width:1.5;"/>
    </g>
    <g id="line2d_26"/>
    <g id="text_19">
     <!-- Taylor 4 -->
     <g transform="translate(387.619375 46.036563)scale(0.1 -0.1)">
      <defs>
       <path d="M -0.296875 72.90625 
L 61.375 72.90625 
L 61.375 64.59375 
L 35.5 64.59375 
L 35.5 0 
L 25.59375 0 
L 25.59375 64.59375 
L -0.296875 64.59375 
z
" id="DejaVuSans-84"/>
       <path d="M 32.171875 -5.078125 
Q 28.375 -14.84375 24.75 -17.8125 
Q 21.140625 -20.796875 15.09375 -20.796875 
L 7.90625 -20.796875 
L 7.90625 -13.28125 
L 13.1875 -13.28125 
Q 16.890625 -13.28125 18.9375 -11.515625 
Q 21 -9.765625 23.484375 -3.21875 
L 25.09375 0.875 
L 2.984375 54.6875 
L 12.5 54.6875 
L 29.59375 11.921875 
L 46.6875 54.6875 
L 56.203125 54.6875 
z
" id="DejaVuSans-121"/>
       <path d="M 9.421875 75.984375 
L 18.40625 75.984375 
L 18.40625 0 
L 9.421875 0 
z
" id="DejaVuSans-108"/>
       <path d="M 30.609375 48.390625 
Q 23.390625 48.390625 19.1875 42.75 
Q 14.984375 37.109375 14.984375 27.296875 
Q 14.984375 17.484375 19.15625 11.84375 
Q 23.34375 6.203125 30.609375 6.203125 
Q 37.796875 6.203125 41.984375 11.859375 
Q 46.1875 17.53125 46.1875 27.296875 
Q 46.1875 37.015625 41.984375 42.703125 
Q 37.796875 48.390625 30.609375 48.390625 
z
M 30.609375 56 
Q 42.328125 56 49.015625 48.375 
Q 55.71875 40.765625 55.71875 27.296875 
Q 55.71875 13.875 49.015625 6.21875 
Q 42.328125 -1.421875 30.609375 -1.421875 
Q 18.84375 -1.421875 12.171875 6.21875 
Q 5.515625 13.875 5.515625 27.296875 
Q 5.515625 40.765625 12.171875 48.375 
Q 18.84375 56 30.609375 56 
z
" id="DejaVuSans-111"/>
       <path d="M 41.109375 46.296875 
Q 39.59375 47.171875 37.8125 47.578125 
Q 36.03125 48 33.890625 48 
Q 26.265625 48 22.1875 43.046875 
Q 18.109375 38.09375 18.109375 28.8125 
L 18.109375 0 
L 9.078125 0 
L 9.078125 54.6875 
L 18.109375 54.6875 
L 18.109375 46.1875 
Q 20.953125 51.171875 25.484375 53.578125 
Q 30.03125 56 36.53125 56 
Q 37.453125 56 38.578125 55.875 
Q 39.703125 55.765625 41.0625 55.515625 
z
" id="DejaVuSans-114"/>
      </defs>
      <use xlink:href="#DejaVuSans-84"/>
      <use x="44.583984" xlink:href="#DejaVuSans-97"/>
      <use x="105.863281" xlink:href="#DejaVuSans-121"/>
      <use x="165.042969" xlink:href="#DejaVuSans-108"/>
      <use x="192.826172" xlink:href="#DejaVuSans-111"/>
      <use x="254.007812" xlink:href="#DejaVuSans-114"/>
      <use x="295.121094" xlink:href="#DejaVuSans-32"/>
      <use x="326.908203" xlink:href="#DejaVuSans-52"/>
     </g>
    </g>
    <g id="line2d_27">
     <path d="M 359.619375 57.214688 
L 379.619375 57.214688 
" style="fill:none;stroke:#2ca02c;stroke-linecap:square;stroke-width:1.5;"/>
    </g>
    <g id="line2d_28"/>
    <g id="text_20">
     <!-- Taylor 5 -->
     <g transform="translate(387.619375 60.714688)scale(0.1 -0.1)">
      <use xlink:href="#DejaVuSans-84"/>
      <use x="44.583984" xlink:href="#DejaVuSans-97"/>
      <use x="105.863281" xlink:href="#DejaVuSans-121"/>
      <use x="165.042969" xlink:href="#DejaVuSans-108"/>
      <use x="192.826172" xlink:href="#DejaVuSans-111"/>
      <use x="254.007812" xlink:href="#DejaVuSans-114"/>
      <use x="295.121094" xlink:href="#DejaVuSans-32"/>
      <use x="326.908203" xlink:href="#DejaVuSans-53"/>
     </g>
    </g>
    <g id="line2d_29">
     <path d="M 359.619375 71.892813 
L 379.619375 71.892813 
" style="fill:none;stroke:#d62728;stroke-linecap:square;stroke-width:1.5;"/>
    </g>
    <g id="line2d_30"/>
    <g id="text_21">
     <!-- Taylor 6 -->
     <g transform="translate(387.619375 75.392813)scale(0.1 -0.1)">
      <use xlink:href="#DejaVuSans-84"/>
      <use x="44.583984" xlink:href="#DejaVuSans-97"/>
      <use x="105.863281" xlink:href="#DejaVuSans-121"/>
      <use x="165.042969" xlink:href="#DejaVuSans-108"/>
      <use x="192.826172" xlink:href="#DejaVuSans-111"/>
      <use x="254.007812" xlink:href="#DejaVuSans-114"/>
      <use x="295.121094" xlink:href="#DejaVuSans-32"/>
      <use x="326.908203" xlink:href="#DejaVuSans-54"/>
     </g>
    </g>
    <g id="line2d_31">
     <path d="M 359.619375 86.570938 
L 379.619375 86.570938 
" style="fill:none;stroke:#9467bd;stroke-linecap:square;stroke-width:1.5;"/>
    </g>
    <g id="line2d_32"/>
    <g id="text_22">
     <!-- Taylor 7 -->
     <g transform="translate(387.619375 90.070938)scale(0.1 -0.1)">
      <use xlink:href="#DejaVuSans-84"/>
      <use x="44.583984" xlink:href="#DejaVuSans-97"/>
      <use x="105.863281" xlink:href="#DejaVuSans-121"/>
      <use x="165.042969" xlink:href="#DejaVuSans-108"/>
      <use x="192.826172" xlink:href="#DejaVuSans-111"/>
      <use x="254.007812" xlink:href="#DejaVuSans-114"/>
      <use x="295.121094" xlink:href="#DejaVuSans-32"/>
      <use x="326.908203" xlink:href="#DejaVuSans-55"/>
     </g>
    </g>
    <g id="line2d_33">
     <path d="M 359.619375 101.249063 
L 379.619375 101.249063 
" style="fill:none;stroke:#8c564b;stroke-linecap:square;stroke-width:1.5;"/>
    </g>
    <g id="line2d_34"/>
    <g id="text_23">
     <!-- Taylor 8 -->
     <g transform="translate(387.619375 104.749063)scale(0.1 -0.1)">
      <use xlink:href="#DejaVuSans-84"/>
      <use x="44.583984" xlink:href="#DejaVuSans-97"/>
      <use x="105.863281" xlink:href="#DejaVuSans-121"/>
      <use x="165.042969" xlink:href="#DejaVuSans-108"/>
      <use x="192.826172" xlink:href="#DejaVuSans-111"/>
      <use x="254.007812" xlink:href="#DejaVuSans-114"/>
      <use x="295.121094" xlink:href="#DejaVuSans-32"/>
      <use x="326.908203" xlink:href="#DejaVuSans-56"/>
     </g>
    </g>
    <g id="line2d_35">
     <path d="M 359.619375 115.927188 
L 379.619375 115.927188 
" style="fill:none;stroke:#e377c2;stroke-linecap:square;stroke-width:1.5;"/>
    </g>
    <g id="line2d_36"/>
    <g id="text_24">
     <!-- Taylor 9 -->
     <g transform="translate(387.619375 119.427188)scale(0.1 -0.1)">
      <defs>
       <path d="M 10.984375 1.515625 
L 10.984375 10.5 
Q 14.703125 8.734375 18.5 7.8125 
Q 22.3125 6.890625 25.984375 6.890625 
Q 35.75 6.890625 40.890625 13.453125 
Q 46.046875 20.015625 46.78125 33.40625 
Q 43.953125 29.203125 39.59375 26.953125 
Q 35.25 24.703125 29.984375 24.703125 
Q 19.046875 24.703125 12.671875 31.3125 
Q 6.296875 37.9375 6.296875 49.421875 
Q 6.296875 60.640625 12.9375 67.421875 
Q 19.578125 74.21875 30.609375 74.21875 
Q 43.265625 74.21875 49.921875 64.515625 
Q 56.59375 54.828125 56.59375 36.375 
Q 56.59375 19.140625 48.40625 8.859375 
Q 40.234375 -1.421875 26.421875 -1.421875 
Q 22.703125 -1.421875 18.890625 -0.6875 
Q 15.09375 0.046875 10.984375 1.515625 
z
M 30.609375 32.421875 
Q 37.25 32.421875 41.125 36.953125 
Q 45.015625 41.5 45.015625 49.421875 
Q 45.015625 57.28125 41.125 61.84375 
Q 37.25 66.40625 30.609375 66.40625 
Q 23.96875 66.40625 20.09375 61.84375 
Q 16.21875 57.28125 16.21875 49.421875 
Q 16.21875 41.5 20.09375 36.953125 
Q 23.96875 32.421875 30.609375 32.421875 
z
" id="DejaVuSans-57"/>
      </defs>
      <use xlink:href="#DejaVuSans-84"/>
      <use x="44.583984" xlink:href="#DejaVuSans-97"/>
      <use x="105.863281" xlink:href="#DejaVuSans-121"/>
      <use x="165.042969" xlink:href="#DejaVuSans-108"/>
      <use x="192.826172" xlink:href="#DejaVuSans-111"/>
      <use x="254.007812" xlink:href="#DejaVuSans-114"/>
      <use x="295.121094" xlink:href="#DejaVuSans-32"/>
      <use x="326.908203" xlink:href="#DejaVuSans-57"/>
     </g>
    </g>
    <g id="line2d_37">
     <path d="M 359.619375 130.605313 
L 379.619375 130.605313 
" style="fill:none;stroke:#7f7f7f;stroke-linecap:square;stroke-width:1.5;"/>
    </g>
    <g id="line2d_38"/>
    <g id="text_25">
     <!-- Taylor 10 -->
     <g transform="translate(387.619375 134.105313)scale(0.1 -0.1)">
      <use xlink:href="#DejaVuSans-84"/>
      <use x="44.583984" xlink:href="#DejaVuSans-97"/>
      <use x="105.863281" xlink:href="#DejaVuSans-121"/>
      <use x="165.042969" xlink:href="#DejaVuSans-108"/>
      <use x="192.826172" xlink:href="#DejaVuSans-111"/>
      <use x="254.007812" xlink:href="#DejaVuSans-114"/>
      <use x="295.121094" xlink:href="#DejaVuSans-32"/>
      <use x="326.908203" xlink:href="#DejaVuSans-49"/>
      <use x="390.53125" xlink:href="#DejaVuSans-48"/>
     </g>
    </g>
   </g>
   <g id="line2d_39">
    <path clip-path="url(#p718645c097)" d="M 65.018 247.62 
L 74.859128 247.509678 
L 78.516558 247.235628 
L 81.382174 246.802913 
L 83.870735 246.203877 
L 86.095358 245.443936 
L 88.206864 244.48715 
L 90.205254 243.337619 
L 92.165939 241.950416 
L 94.088918 240.315082 
L 96.011897 238.384978 
L 97.972581 236.092968 
L 99.970971 233.40203 
L 102.007067 230.277044 
L 104.118573 226.61696 
L 106.30549 222.370981 
L 108.605524 217.408577 
L 111.05638 211.57505 
L 113.695762 204.696465 
L 116.561378 196.590827 
L 119.841754 186.616726 
L 123.87624 173.589932 
L 137.223976 129.861664 
L 140.202708 121.216531 
L 142.76668 114.44113 
L 145.029009 109.073247 
L 147.065104 104.794938 
L 148.912672 101.407761 
L 150.609418 98.739952 
L 152.193048 96.651745 
L 153.663561 95.07298 
L 155.020958 93.932019 
L 156.302944 93.138744 
L 157.509519 92.647751 
L 158.678389 92.410409 
L 159.809553 92.404893 
L 160.940717 92.619898 
L 162.109587 93.072922 
L 163.316162 93.784854 
L 164.598148 94.810003 
L 165.955545 96.192107 
L 167.388353 97.974353 
L 168.934277 100.258314 
L 170.631023 103.178983 
L 172.478591 106.825668 
L 174.476981 111.279394 
L 176.701604 116.802948 
L 179.190165 123.601505 
L 182.055781 132.102518 
L 185.600095 143.357597 
L 191.142799 161.818038 
L 197.590434 183.095266 
L 201.285571 194.527104 
L 204.415125 203.510665 
L 207.205329 210.866879 
L 209.769301 217.022613 
L 212.182452 222.255032 
L 214.482485 226.720619 
L 216.669403 230.491539 
L 218.780909 233.698394 
L 220.817004 236.397996 
L 222.815394 238.688105 
L 224.813784 240.641402 
L 226.774469 242.252521 
L 228.772859 243.608746 
L 230.808954 244.722494 
L 232.92046 245.62484 
L 235.182789 246.346248 
L 237.633644 246.890999 
L 240.423849 247.278108 
L 243.817341 247.515427 
L 248.719053 247.613631 
L 261.576618 247.570309 
L 265.799631 247.355777 
L 268.891479 246.981176 
L 271.493157 246.444797 
L 273.79319 245.748219 
L 275.942402 244.866349 
L 277.978498 243.790092 
L 279.939182 242.502434 
L 281.862161 240.973992 
L 283.78514 239.159094 
L 285.708119 237.036815 
L 287.668804 234.537838 
L 289.667194 231.626902 
L 291.740994 228.205339 
L 293.890206 224.221067 
L 296.152534 219.544393 
L 298.527979 214.110288 
L 301.054246 207.766643 
L 303.806745 200.240303 
L 306.898594 191.112337 
L 310.518319 179.699172 
L 315.608557 162.83139 
L 323.149651 137.886422 
L 326.618555 127.213622 
L 329.446465 119.204605 
L 331.897321 112.904339 
L 334.084238 107.87074 
L 336.082628 103.813206 
L 337.89249 100.623143 
L 339.551531 98.128922 
L 341.097455 96.192107 
L 342.530263 94.742112 
L 343.849955 93.707637 
L 345.094235 93.001333 
L 346.30081 92.568773 
L 347.46968 92.388344 
L 348.600844 92.437987 
L 349.732008 92.708034 
L 350.900878 93.217602 
L 352.107453 93.987327 
L 353.389439 95.07298 
L 354.746836 96.517841 
L 356.217349 98.4175 
L 357.800979 100.839503 
L 359.497725 103.848919 
L 361.345293 107.586271 
L 363.381388 112.220633 
L 365.643717 117.943187 
L 368.207689 125.063406 
L 371.186421 134.027045 
L 374.919262 146.013912 
L 382.498062 171.341687 
L 387.248951 186.734987 
L 390.75556 197.362913 
L 393.771998 205.816408 
L 396.486792 212.785629 
L 399.013058 218.675543 
L 401.388503 223.663481 
L 403.650831 227.907067 
L 405.800043 231.480306 
L 407.873844 234.512114 
L 409.909939 237.103799 
L 411.908329 239.293246 
L 413.869014 241.120052 
L 415.829698 242.651114 
L 417.828088 243.933127 
L 419.864183 244.97943 
L 422.013395 245.833844 
L 424.313429 246.505808 
L 426.839695 247.00834 
L 429.743017 247.354172 
L 433.400447 247.554349 
L 439.244795 247.619275 
L 442.035 247.62 
L 442.035 247.62 
" style="fill:none;stroke:#1f77b4;stroke-linecap:square;stroke-width:2;"/>
   </g>
  </g>
 </g>
 <defs>
  <clipPath id="p718645c097">
   <rect height="310.48" width="377.017" x="65.018" y="14.76"/>
  </clipPath>
 </defs>
</svg>
