<?xml version="1.0" encoding="utf-8" standalone="no"?>
<!DOCTYPE svg PUBLIC "-//W3C//DTD SVG 1.1//EN"
  "http://www.w3.org/Graphics/SVG/1.1/DTD/svg11.dtd">
<!-- Created with matplotlib (https://matplotlib.org/) -->
<svg height="345.6pt" version="1.1" viewBox="0 0 460.8 345.6" width="460.8pt" xmlns="http://www.w3.org/2000/svg" xmlns:xlink="http://www.w3.org/1999/xlink">
 <metadata>
  <rdf:RDF xmlns:cc="http://creativecommons.org/ns#" xmlns:dc="http://purl.org/dc/elements/1.1/" xmlns:rdf="http://www.w3.org/1999/02/22-rdf-syntax-ns#">
   <cc:Work>
    <dc:type rdf:resource="http://purl.org/dc/dcmitype/StillImage"/>
    <dc:date>2021-03-08T10:46:00.611285</dc:date>
    <dc:format>image/svg+xml</dc:format>
    <dc:creator>
     <cc:Agent>
      <dc:title>Matplotlib v3.3.4, https://matplotlib.org/</dc:title>
     </cc:Agent>
    </dc:creator>
   </cc:Work>
  </rdf:RDF>
 </metadata>
 <defs>
  <style type="text/css">*{stroke-linecap:butt;stroke-linejoin:round;}</style>
 </defs>
 <g id="figure_1">
  <g id="patch_1">
   <path d="M 0 345.6 
L 460.8 345.6 
L 460.8 0 
L 0 0 
z
" style="fill:#ffffff;"/>
  </g>
  <g id="axes_1">
   <g id="patch_2">
    <path d="M 49.25 302.92 
L 450 302.92 
L 450 14.76 
L 49.25 14.76 
z
" style="fill:#ffffff;"/>
   </g>
   <g id="line2d_1">
    <path clip-path="url(#p437cd13812)" d="M 49.25 293.739922 
L 51.213675 293.627373 
L 53.17735 293.289022 
L 55.141025 292.722765 
L 57.1047 291.925167 
L 59.10845 290.867964 
L 61.1122 289.558862 
L 63.156025 287.956645 
L 65.239925 286.036764 
L 67.3639 283.772715 
L 69.52795 281.136247 
L 71.732075 278.097704 
L 74.01635 274.560998 
L 76.3407 270.546285 
L 78.7452 265.941944 
L 81.22985 260.69488 
L 83.79465 254.753818 
L 86.479675 247.966232 
L 89.325 240.15221 
L 92.330625 231.231685 
L 95.5767 220.881013 
L 99.143375 208.743899 
L 103.2711 193.877585 
L 108.7213 173.347383 
L 119.261025 133.502083 
L 123.1483 119.79312 
L 126.3543 109.276043 
L 129.15955 100.816523 
L 131.6442 94.002597 
L 133.928475 88.36919 
L 136.012375 83.804481 
L 137.935975 80.110513 
L 139.699275 77.185222 
L 141.34235 74.871812 
L 142.8652 73.093609 
L 144.3079 71.741098 
L 145.67045 70.765408 
L 146.95285 70.118028 
L 148.1551 69.751583 
L 149.35735 69.618908 
L 150.519525 69.713218 
L 151.6817 70.026077 
L 152.88395 70.578835 
L 154.16635 71.423524 
L 155.488825 72.567604 
L 156.89145 74.079669 
L 158.4143 76.062879 
L 160.0173 78.525176 
L 161.740525 81.587229 
L 163.62405 85.406234 
L 165.6278 89.982587 
L 167.831925 95.588146 
L 170.236425 102.329207 
L 172.92145 110.544471 
L 175.96715 120.613575 
L 179.533825 133.210909 
L 184.14245 150.363855 
L 198.529375 204.494923 
L 202.456725 218.085055 
L 205.94325 229.369088 
L 209.109175 238.885831 
L 212.074725 247.117387 
L 214.879975 254.267259 
L 217.565 260.517293 
L 220.1298 265.941944 
L 222.61445 270.691814 
L 225.01895 274.822292 
L 227.383375 278.446842 
L 229.66765 281.548257 
L 231.91185 284.224109 
L 234.0759 286.467459 
L 236.199875 288.35832 
L 238.283775 289.923845 
L 240.3276 291.189088 
L 242.371425 292.194157 
L 244.375175 292.932909 
L 246.33885 293.424433 
L 248.302525 293.688889 
L 250.2662 293.727927 
L 252.229875 293.541793 
L 254.19355 293.129321 
L 256.157225 292.487965 
L 258.1209 291.613872 
L 260.12465 290.476782 
L 262.168475 289.055138 
L 264.2123 287.36124 
L 266.2962 285.344838 
L 268.420175 282.97912 
L 270.584225 280.235642 
L 272.828425 277.024005 
L 275.1127 273.360424 
L 277.477125 269.138277 
L 279.9217 264.303917 
L 282.446425 258.804229 
L 285.0513 252.58876 
L 287.7764 245.503984 
L 290.6618 237.370332 
L 293.747575 227.987148 
L 297.0738 217.143376 
L 300.800775 204.209107 
L 305.209025 188.070063 
L 311.90155 162.601711 
L 319.074975 135.548773 
L 323.082475 121.300356 
L 326.32855 110.544471 
L 329.173875 101.860806 
L 331.6986 94.843062 
L 333.982875 89.1212 
L 336.10685 84.385579 
L 338.03045 80.617075 
L 339.833825 77.55748 
L 341.516975 75.132199 
L 343.0799 73.263952 
L 344.5226 71.875235 
L 345.88515 70.864857 
L 347.16755 70.184503 
L 348.409875 69.777719 
L 349.612125 69.62164 
L 350.7743 69.693318 
L 351.936475 69.983597 
L 353.138725 70.513113 
L 354.38105 71.303619 
L 355.703525 72.414282 
L 357.10615 73.891468 
L 358.588925 75.7819 
L 360.191925 78.196755 
L 361.91515 81.209593 
L 363.7586 84.89206 
L 365.76235 89.40653 
L 367.9264 94.843062 
L 370.290825 101.395026 
L 372.935775 109.402249 
L 375.901325 119.112531 
L 379.38785 131.32601 
L 383.7961 147.634303 
L 399.946325 208.181624 
L 403.75345 221.144979 
L 407.159825 231.96957 
L 410.285675 241.177359 
L 413.21115 249.120111 
L 415.976325 256.003703 
L 418.621275 262.010175 
L 421.186075 267.293552 
L 423.670725 271.908267 
L 426.075225 275.910603 
L 428.399575 279.356607 
L 430.68385 282.34979 
L 432.887975 284.879959 
L 435.052025 287.033412 
L 437.176 288.83895 
L 439.2599 290.323395 
L 441.303725 291.511404 
L 443.307475 292.425395 
L 445.311225 293.096665 
L 447.2749 293.523064 
L 449.238575 293.723007 
L 450 293.739922 
L 450 293.739922 
" style="fill:none;stroke:#1f77b4;stroke-linecap:square;stroke-width:1.5;"/>
   </g>
   <g id="matplotlib.axis_1">
    <g id="xtick_1">
     <g id="line2d_2">
      <defs>
       <path d="M 0 0 
L 0 3.5 
" id="mc42ba267a5" style="stroke:#000000;stroke-width:0.8;"/>
      </defs>
      <g>
       <use style="stroke:#000000;stroke-width:0.8;" x="49.25" xlink:href="#mc42ba267a5" y="302.92"/>
      </g>
     </g>
     <g id="text_1">
      <!-- 0 -->
      <g transform="translate(46.06875 317.518437)scale(0.1 -0.1)">
       <defs>
        <path d="M 31.78125 66.40625 
Q 24.171875 66.40625 20.328125 58.90625 
Q 16.5 51.421875 16.5 36.375 
Q 16.5 21.390625 20.328125 13.890625 
Q 24.171875 6.390625 31.78125 6.390625 
Q 39.453125 6.390625 43.28125 13.890625 
Q 47.125 21.390625 47.125 36.375 
Q 47.125 51.421875 43.28125 58.90625 
Q 39.453125 66.40625 31.78125 66.40625 
z
M 31.78125 74.21875 
Q 44.046875 74.21875 50.515625 64.515625 
Q 56.984375 54.828125 56.984375 36.375 
Q 56.984375 17.96875 50.515625 8.265625 
Q 44.046875 -1.421875 31.78125 -1.421875 
Q 19.53125 -1.421875 13.0625 8.265625 
Q 6.59375 17.96875 6.59375 36.375 
Q 6.59375 54.828125 13.0625 64.515625 
Q 19.53125 74.21875 31.78125 74.21875 
z
" id="DejaVuSans-48"/>
       </defs>
       <use xlink:href="#DejaVuSans-48"/>
      </g>
     </g>
    </g>
    <g id="xtick_2">
     <g id="line2d_3">
      <g>
       <use style="stroke:#000000;stroke-width:0.8;" x="113.031343" xlink:href="#mc42ba267a5" y="302.92"/>
      </g>
     </g>
     <g id="text_2">
      <!-- 1 -->
      <g transform="translate(109.850093 317.518437)scale(0.1 -0.1)">
       <defs>
        <path d="M 12.40625 8.296875 
L 28.515625 8.296875 
L 28.515625 63.921875 
L 10.984375 60.40625 
L 10.984375 69.390625 
L 28.421875 72.90625 
L 38.28125 72.90625 
L 38.28125 8.296875 
L 54.390625 8.296875 
L 54.390625 0 
L 12.40625 0 
z
" id="DejaVuSans-49"/>
       </defs>
       <use xlink:href="#DejaVuSans-49"/>
      </g>
     </g>
    </g>
    <g id="xtick_3">
     <g id="line2d_4">
      <g>
       <use style="stroke:#000000;stroke-width:0.8;" x="176.812687" xlink:href="#mc42ba267a5" y="302.92"/>
      </g>
     </g>
     <g id="text_3">
      <!-- 2 -->
      <g transform="translate(173.631437 317.518437)scale(0.1 -0.1)">
       <defs>
        <path d="M 19.1875 8.296875 
L 53.609375 8.296875 
L 53.609375 0 
L 7.328125 0 
L 7.328125 8.296875 
Q 12.9375 14.109375 22.625 23.890625 
Q 32.328125 33.6875 34.8125 36.53125 
Q 39.546875 41.84375 41.421875 45.53125 
Q 43.3125 49.21875 43.3125 52.78125 
Q 43.3125 58.59375 39.234375 62.25 
Q 35.15625 65.921875 28.609375 65.921875 
Q 23.96875 65.921875 18.8125 64.3125 
Q 13.671875 62.703125 7.8125 59.421875 
L 7.8125 69.390625 
Q 13.765625 71.78125 18.9375 73 
Q 24.125 74.21875 28.421875 74.21875 
Q 39.75 74.21875 46.484375 68.546875 
Q 53.21875 62.890625 53.21875 53.421875 
Q 53.21875 48.921875 51.53125 44.890625 
Q 49.859375 40.875 45.40625 35.40625 
Q 44.1875 33.984375 37.640625 27.21875 
Q 31.109375 20.453125 19.1875 8.296875 
z
" id="DejaVuSans-50"/>
       </defs>
       <use xlink:href="#DejaVuSans-50"/>
      </g>
     </g>
    </g>
    <g id="xtick_4">
     <g id="line2d_5">
      <g>
       <use style="stroke:#000000;stroke-width:0.8;" x="240.59403" xlink:href="#mc42ba267a5" y="302.92"/>
      </g>
     </g>
     <g id="text_4">
      <!-- 3 -->
      <g transform="translate(237.41278 317.518437)scale(0.1 -0.1)">
       <defs>
        <path d="M 40.578125 39.3125 
Q 47.65625 37.796875 51.625 33 
Q 55.609375 28.21875 55.609375 21.1875 
Q 55.609375 10.40625 48.1875 4.484375 
Q 40.765625 -1.421875 27.09375 -1.421875 
Q 22.515625 -1.421875 17.65625 -0.515625 
Q 12.796875 0.390625 7.625 2.203125 
L 7.625 11.71875 
Q 11.71875 9.328125 16.59375 8.109375 
Q 21.484375 6.890625 26.8125 6.890625 
Q 36.078125 6.890625 40.9375 10.546875 
Q 45.796875 14.203125 45.796875 21.1875 
Q 45.796875 27.640625 41.28125 31.265625 
Q 36.765625 34.90625 28.71875 34.90625 
L 20.21875 34.90625 
L 20.21875 43.015625 
L 29.109375 43.015625 
Q 36.375 43.015625 40.234375 45.921875 
Q 44.09375 48.828125 44.09375 54.296875 
Q 44.09375 59.90625 40.109375 62.90625 
Q 36.140625 65.921875 28.71875 65.921875 
Q 24.65625 65.921875 20.015625 65.03125 
Q 15.375 64.15625 9.8125 62.3125 
L 9.8125 71.09375 
Q 15.4375 72.65625 20.34375 73.4375 
Q 25.25 74.21875 29.59375 74.21875 
Q 40.828125 74.21875 47.359375 69.109375 
Q 53.90625 64.015625 53.90625 55.328125 
Q 53.90625 49.265625 50.4375 45.09375 
Q 46.96875 40.921875 40.578125 39.3125 
z
" id="DejaVuSans-51"/>
       </defs>
       <use xlink:href="#DejaVuSans-51"/>
      </g>
     </g>
    </g>
    <g id="xtick_5">
     <g id="line2d_6">
      <g>
       <use style="stroke:#000000;stroke-width:0.8;" x="304.375374" xlink:href="#mc42ba267a5" y="302.92"/>
      </g>
     </g>
     <g id="text_5">
      <!-- 4 -->
      <g transform="translate(301.194124 317.518437)scale(0.1 -0.1)">
       <defs>
        <path d="M 37.796875 64.3125 
L 12.890625 25.390625 
L 37.796875 25.390625 
z
M 35.203125 72.90625 
L 47.609375 72.90625 
L 47.609375 25.390625 
L 58.015625 25.390625 
L 58.015625 17.1875 
L 47.609375 17.1875 
L 47.609375 0 
L 37.796875 0 
L 37.796875 17.1875 
L 4.890625 17.1875 
L 4.890625 26.703125 
z
" id="DejaVuSans-52"/>
       </defs>
       <use xlink:href="#DejaVuSans-52"/>
      </g>
     </g>
    </g>
    <g id="xtick_6">
     <g id="line2d_7">
      <g>
       <use style="stroke:#000000;stroke-width:0.8;" x="368.156717" xlink:href="#mc42ba267a5" y="302.92"/>
      </g>
     </g>
     <g id="text_6">
      <!-- 5 -->
      <g transform="translate(364.975467 317.518437)scale(0.1 -0.1)">
       <defs>
        <path d="M 10.796875 72.90625 
L 49.515625 72.90625 
L 49.515625 64.59375 
L 19.828125 64.59375 
L 19.828125 46.734375 
Q 21.96875 47.46875 24.109375 47.828125 
Q 26.265625 48.1875 28.421875 48.1875 
Q 40.625 48.1875 47.75 41.5 
Q 54.890625 34.8125 54.890625 23.390625 
Q 54.890625 11.625 47.5625 5.09375 
Q 40.234375 -1.421875 26.90625 -1.421875 
Q 22.3125 -1.421875 17.546875 -0.640625 
Q 12.796875 0.140625 7.71875 1.703125 
L 7.71875 11.625 
Q 12.109375 9.234375 16.796875 8.0625 
Q 21.484375 6.890625 26.703125 6.890625 
Q 35.15625 6.890625 40.078125 11.328125 
Q 45.015625 15.765625 45.015625 23.390625 
Q 45.015625 31 40.078125 35.4375 
Q 35.15625 39.890625 26.703125 39.890625 
Q 22.75 39.890625 18.8125 39.015625 
Q 14.890625 38.140625 10.796875 36.28125 
z
" id="DejaVuSans-53"/>
       </defs>
       <use xlink:href="#DejaVuSans-53"/>
      </g>
     </g>
    </g>
    <g id="xtick_7">
     <g id="line2d_8">
      <g>
       <use style="stroke:#000000;stroke-width:0.8;" x="431.938061" xlink:href="#mc42ba267a5" y="302.92"/>
      </g>
     </g>
     <g id="text_7">
      <!-- 6 -->
      <g transform="translate(428.756811 317.518437)scale(0.1 -0.1)">
       <defs>
        <path d="M 33.015625 40.375 
Q 26.375 40.375 22.484375 35.828125 
Q 18.609375 31.296875 18.609375 23.390625 
Q 18.609375 15.53125 22.484375 10.953125 
Q 26.375 6.390625 33.015625 6.390625 
Q 39.65625 6.390625 43.53125 10.953125 
Q 47.40625 15.53125 47.40625 23.390625 
Q 47.40625 31.296875 43.53125 35.828125 
Q 39.65625 40.375 33.015625 40.375 
z
M 52.59375 71.296875 
L 52.59375 62.3125 
Q 48.875 64.0625 45.09375 64.984375 
Q 41.3125 65.921875 37.59375 65.921875 
Q 27.828125 65.921875 22.671875 59.328125 
Q 17.53125 52.734375 16.796875 39.40625 
Q 19.671875 43.65625 24.015625 45.921875 
Q 28.375 48.1875 33.59375 48.1875 
Q 44.578125 48.1875 50.953125 41.515625 
Q 57.328125 34.859375 57.328125 23.390625 
Q 57.328125 12.15625 50.6875 5.359375 
Q 44.046875 -1.421875 33.015625 -1.421875 
Q 20.359375 -1.421875 13.671875 8.265625 
Q 6.984375 17.96875 6.984375 36.375 
Q 6.984375 53.65625 15.1875 63.9375 
Q 23.390625 74.21875 37.203125 74.21875 
Q 40.921875 74.21875 44.703125 73.484375 
Q 48.484375 72.75 52.59375 71.296875 
z
" id="DejaVuSans-54"/>
       </defs>
       <use xlink:href="#DejaVuSans-54"/>
      </g>
     </g>
    </g>
    <g id="text_8">
     <!-- $x$ location -->
     <g transform="translate(225.225 331.196562)scale(0.1 -0.1)">
      <defs>
       <path d="M 60.015625 54.6875 
L 34.90625 27.875 
L 50.296875 0 
L 39.984375 0 
L 28.421875 21.6875 
L 8.296875 0 
L -2.59375 0 
L 24.3125 28.8125 
L 10.015625 54.6875 
L 20.3125 54.6875 
L 30.8125 34.90625 
L 49.125 54.6875 
z
" id="DejaVuSans-Oblique-120"/>
       <path id="DejaVuSans-32"/>
       <path d="M 9.421875 75.984375 
L 18.40625 75.984375 
L 18.40625 0 
L 9.421875 0 
z
" id="DejaVuSans-108"/>
       <path d="M 30.609375 48.390625 
Q 23.390625 48.390625 19.1875 42.75 
Q 14.984375 37.109375 14.984375 27.296875 
Q 14.984375 17.484375 19.15625 11.84375 
Q 23.34375 6.203125 30.609375 6.203125 
Q 37.796875 6.203125 41.984375 11.859375 
Q 46.1875 17.53125 46.1875 27.296875 
Q 46.1875 37.015625 41.984375 42.703125 
Q 37.796875 48.390625 30.609375 48.390625 
z
M 30.609375 56 
Q 42.328125 56 49.015625 48.375 
Q 55.71875 40.765625 55.71875 27.296875 
Q 55.71875 13.875 49.015625 6.21875 
Q 42.328125 -1.421875 30.609375 -1.421875 
Q 18.84375 -1.421875 12.171875 6.21875 
Q 5.515625 13.875 5.515625 27.296875 
Q 5.515625 40.765625 12.171875 48.375 
Q 18.84375 56 30.609375 56 
z
" id="DejaVuSans-111"/>
       <path d="M 48.78125 52.59375 
L 48.78125 44.1875 
Q 44.96875 46.296875 41.140625 47.34375 
Q 37.3125 48.390625 33.40625 48.390625 
Q 24.65625 48.390625 19.8125 42.84375 
Q 14.984375 37.3125 14.984375 27.296875 
Q 14.984375 17.28125 19.8125 11.734375 
Q 24.65625 6.203125 33.40625 6.203125 
Q 37.3125 6.203125 41.140625 7.25 
Q 44.96875 8.296875 48.78125 10.40625 
L 48.78125 2.09375 
Q 45.015625 0.34375 40.984375 -0.53125 
Q 36.96875 -1.421875 32.421875 -1.421875 
Q 20.0625 -1.421875 12.78125 6.34375 
Q 5.515625 14.109375 5.515625 27.296875 
Q 5.515625 40.671875 12.859375 48.328125 
Q 20.21875 56 33.015625 56 
Q 37.15625 56 41.109375 55.140625 
Q 45.0625 54.296875 48.78125 52.59375 
z
" id="DejaVuSans-99"/>
       <path d="M 34.28125 27.484375 
Q 23.390625 27.484375 19.1875 25 
Q 14.984375 22.515625 14.984375 16.5 
Q 14.984375 11.71875 18.140625 8.90625 
Q 21.296875 6.109375 26.703125 6.109375 
Q 34.1875 6.109375 38.703125 11.40625 
Q 43.21875 16.703125 43.21875 25.484375 
L 43.21875 27.484375 
z
M 52.203125 31.203125 
L 52.203125 0 
L 43.21875 0 
L 43.21875 8.296875 
Q 40.140625 3.328125 35.546875 0.953125 
Q 30.953125 -1.421875 24.3125 -1.421875 
Q 15.921875 -1.421875 10.953125 3.296875 
Q 6 8.015625 6 15.921875 
Q 6 25.140625 12.171875 29.828125 
Q 18.359375 34.515625 30.609375 34.515625 
L 43.21875 34.515625 
L 43.21875 35.40625 
Q 43.21875 41.609375 39.140625 45 
Q 35.0625 48.390625 27.6875 48.390625 
Q 23 48.390625 18.546875 47.265625 
Q 14.109375 46.140625 10.015625 43.890625 
L 10.015625 52.203125 
Q 14.9375 54.109375 19.578125 55.046875 
Q 24.21875 56 28.609375 56 
Q 40.484375 56 46.34375 49.84375 
Q 52.203125 43.703125 52.203125 31.203125 
z
" id="DejaVuSans-97"/>
       <path d="M 18.3125 70.21875 
L 18.3125 54.6875 
L 36.8125 54.6875 
L 36.8125 47.703125 
L 18.3125 47.703125 
L 18.3125 18.015625 
Q 18.3125 11.328125 20.140625 9.421875 
Q 21.96875 7.515625 27.59375 7.515625 
L 36.8125 7.515625 
L 36.8125 0 
L 27.59375 0 
Q 17.1875 0 13.234375 3.875 
Q 9.28125 7.765625 9.28125 18.015625 
L 9.28125 47.703125 
L 2.6875 47.703125 
L 2.6875 54.6875 
L 9.28125 54.6875 
L 9.28125 70.21875 
z
" id="DejaVuSans-116"/>
       <path d="M 9.421875 54.6875 
L 18.40625 54.6875 
L 18.40625 0 
L 9.421875 0 
z
M 9.421875 75.984375 
L 18.40625 75.984375 
L 18.40625 64.59375 
L 9.421875 64.59375 
z
" id="DejaVuSans-105"/>
       <path d="M 54.890625 33.015625 
L 54.890625 0 
L 45.90625 0 
L 45.90625 32.71875 
Q 45.90625 40.484375 42.875 44.328125 
Q 39.84375 48.1875 33.796875 48.1875 
Q 26.515625 48.1875 22.3125 43.546875 
Q 18.109375 38.921875 18.109375 30.90625 
L 18.109375 0 
L 9.078125 0 
L 9.078125 54.6875 
L 18.109375 54.6875 
L 18.109375 46.1875 
Q 21.34375 51.125 25.703125 53.5625 
Q 30.078125 56 35.796875 56 
Q 45.21875 56 50.046875 50.171875 
Q 54.890625 44.34375 54.890625 33.015625 
z
" id="DejaVuSans-110"/>
      </defs>
      <use transform="translate(0 0.015625)" xlink:href="#DejaVuSans-Oblique-120"/>
      <use transform="translate(59.179688 0.015625)" xlink:href="#DejaVuSans-32"/>
      <use transform="translate(90.966797 0.015625)" xlink:href="#DejaVuSans-108"/>
      <use transform="translate(118.75 0.015625)" xlink:href="#DejaVuSans-111"/>
      <use transform="translate(179.931641 0.015625)" xlink:href="#DejaVuSans-99"/>
      <use transform="translate(234.912109 0.015625)" xlink:href="#DejaVuSans-97"/>
      <use transform="translate(296.191406 0.015625)" xlink:href="#DejaVuSans-116"/>
      <use transform="translate(335.400391 0.015625)" xlink:href="#DejaVuSans-105"/>
      <use transform="translate(363.183594 0.015625)" xlink:href="#DejaVuSans-111"/>
      <use transform="translate(424.365234 0.015625)" xlink:href="#DejaVuSans-110"/>
     </g>
    </g>
   </g>
   <g id="matplotlib.axis_2">
    <g id="ytick_1">
     <g id="line2d_9">
      <defs>
       <path d="M 0 0 
L -3.5 0 
" id="m82af312d0e" style="stroke:#000000;stroke-width:0.8;"/>
      </defs>
      <g>
       <use style="stroke:#000000;stroke-width:0.8;" x="49.25" xlink:href="#m82af312d0e" y="302.92"/>
      </g>
     </g>
     <g id="text_9">
      <!-- 0.0 -->
      <g transform="translate(26.346875 306.719219)scale(0.1 -0.1)">
       <defs>
        <path d="M 10.6875 12.40625 
L 21 12.40625 
L 21 0 
L 10.6875 0 
z
" id="DejaVuSans-46"/>
       </defs>
       <use xlink:href="#DejaVuSans-48"/>
       <use x="63.623047" xlink:href="#DejaVuSans-46"/>
       <use x="95.410156" xlink:href="#DejaVuSans-48"/>
      </g>
     </g>
    </g>
    <g id="ytick_2">
     <g id="line2d_10">
      <g>
       <use style="stroke:#000000;stroke-width:0.8;" x="49.25" xlink:href="#m82af312d0e" y="245.288"/>
      </g>
     </g>
     <g id="text_10">
      <!-- 0.2 -->
      <g transform="translate(26.346875 249.087219)scale(0.1 -0.1)">
       <use xlink:href="#DejaVuSans-48"/>
       <use x="63.623047" xlink:href="#DejaVuSans-46"/>
       <use x="95.410156" xlink:href="#DejaVuSans-50"/>
      </g>
     </g>
    </g>
    <g id="ytick_3">
     <g id="line2d_11">
      <g>
       <use style="stroke:#000000;stroke-width:0.8;" x="49.25" xlink:href="#m82af312d0e" y="187.656"/>
      </g>
     </g>
     <g id="text_11">
      <!-- 0.4 -->
      <g transform="translate(26.346875 191.455219)scale(0.1 -0.1)">
       <use xlink:href="#DejaVuSans-48"/>
       <use x="63.623047" xlink:href="#DejaVuSans-46"/>
       <use x="95.410156" xlink:href="#DejaVuSans-52"/>
      </g>
     </g>
    </g>
    <g id="ytick_4">
     <g id="line2d_12">
      <g>
       <use style="stroke:#000000;stroke-width:0.8;" x="49.25" xlink:href="#m82af312d0e" y="130.024"/>
      </g>
     </g>
     <g id="text_12">
      <!-- 0.6 -->
      <g transform="translate(26.346875 133.823219)scale(0.1 -0.1)">
       <use xlink:href="#DejaVuSans-48"/>
       <use x="63.623047" xlink:href="#DejaVuSans-46"/>
       <use x="95.410156" xlink:href="#DejaVuSans-54"/>
      </g>
     </g>
    </g>
    <g id="ytick_5">
     <g id="line2d_13">
      <g>
       <use style="stroke:#000000;stroke-width:0.8;" x="49.25" xlink:href="#m82af312d0e" y="72.392"/>
      </g>
     </g>
     <g id="text_13">
      <!-- 0.8 -->
      <g transform="translate(26.346875 76.191219)scale(0.1 -0.1)">
       <defs>
        <path d="M 31.78125 34.625 
Q 24.75 34.625 20.71875 30.859375 
Q 16.703125 27.09375 16.703125 20.515625 
Q 16.703125 13.921875 20.71875 10.15625 
Q 24.75 6.390625 31.78125 6.390625 
Q 38.8125 6.390625 42.859375 10.171875 
Q 46.921875 13.96875 46.921875 20.515625 
Q 46.921875 27.09375 42.890625 30.859375 
Q 38.875 34.625 31.78125 34.625 
z
M 21.921875 38.8125 
Q 15.578125 40.375 12.03125 44.71875 
Q 8.5 49.078125 8.5 55.328125 
Q 8.5 64.0625 14.71875 69.140625 
Q 20.953125 74.21875 31.78125 74.21875 
Q 42.671875 74.21875 48.875 69.140625 
Q 55.078125 64.0625 55.078125 55.328125 
Q 55.078125 49.078125 51.53125 44.71875 
Q 48 40.375 41.703125 38.8125 
Q 48.828125 37.15625 52.796875 32.3125 
Q 56.78125 27.484375 56.78125 20.515625 
Q 56.78125 9.90625 50.3125 4.234375 
Q 43.84375 -1.421875 31.78125 -1.421875 
Q 19.734375 -1.421875 13.25 4.234375 
Q 6.78125 9.90625 6.78125 20.515625 
Q 6.78125 27.484375 10.78125 32.3125 
Q 14.796875 37.15625 21.921875 38.8125 
z
M 18.3125 54.390625 
Q 18.3125 48.734375 21.84375 45.5625 
Q 25.390625 42.390625 31.78125 42.390625 
Q 38.140625 42.390625 41.71875 45.5625 
Q 45.3125 48.734375 45.3125 54.390625 
Q 45.3125 60.0625 41.71875 63.234375 
Q 38.140625 66.40625 31.78125 66.40625 
Q 25.390625 66.40625 21.84375 63.234375 
Q 18.3125 60.0625 18.3125 54.390625 
z
" id="DejaVuSans-56"/>
       </defs>
       <use xlink:href="#DejaVuSans-48"/>
       <use x="63.623047" xlink:href="#DejaVuSans-46"/>
       <use x="95.410156" xlink:href="#DejaVuSans-56"/>
      </g>
     </g>
    </g>
    <g id="ytick_6">
     <g id="line2d_14">
      <g>
       <use style="stroke:#000000;stroke-width:0.8;" x="49.25" xlink:href="#m82af312d0e" y="14.76"/>
      </g>
     </g>
     <g id="text_14">
      <!-- 1.0 -->
      <g transform="translate(26.346875 18.559219)scale(0.1 -0.1)">
       <use xlink:href="#DejaVuSans-49"/>
       <use x="63.623047" xlink:href="#DejaVuSans-46"/>
       <use x="95.410156" xlink:href="#DejaVuSans-48"/>
      </g>
     </g>
    </g>
    <g id="text_15">
     <!-- $u(x)$ -->
     <g transform="translate(20.267188 168.89)rotate(-90)scale(0.1 -0.1)">
      <defs>
       <path d="M 6.6875 21.6875 
L 13.09375 54.6875 
L 22.125 54.6875 
L 15.71875 22.015625 
Q 15.234375 19.625 15.015625 17.921875 
Q 14.796875 16.21875 14.796875 15.09375 
Q 14.796875 10.9375 17.328125 8.65625 
Q 19.875 6.390625 24.515625 6.390625 
Q 31.734375 6.390625 37 11.265625 
Q 42.28125 16.15625 43.890625 24.421875 
L 49.90625 54.6875 
L 58.890625 54.6875 
L 48.296875 0 
L 39.3125 0 
L 41.109375 8.59375 
Q 37.3125 3.8125 32.0625 1.1875 
Q 26.8125 -1.421875 20.90625 -1.421875 
Q 13.71875 -1.421875 9.71875 2.515625 
Q 5.71875 6.453125 5.71875 13.484375 
Q 5.71875 14.9375 5.953125 17.140625 
Q 6.203125 19.34375 6.6875 21.6875 
z
" id="DejaVuSans-Oblique-117"/>
       <path d="M 31 75.875 
Q 24.46875 64.65625 21.28125 53.65625 
Q 18.109375 42.671875 18.109375 31.390625 
Q 18.109375 20.125 21.3125 9.0625 
Q 24.515625 -2 31 -13.1875 
L 23.1875 -13.1875 
Q 15.875 -1.703125 12.234375 9.375 
Q 8.59375 20.453125 8.59375 31.390625 
Q 8.59375 42.28125 12.203125 53.3125 
Q 15.828125 64.359375 23.1875 75.875 
z
" id="DejaVuSans-40"/>
       <path d="M 8.015625 75.875 
L 15.828125 75.875 
Q 23.140625 64.359375 26.78125 53.3125 
Q 30.421875 42.28125 30.421875 31.390625 
Q 30.421875 20.453125 26.78125 9.375 
Q 23.140625 -1.703125 15.828125 -13.1875 
L 8.015625 -13.1875 
Q 14.5 -2 17.703125 9.0625 
Q 20.90625 20.125 20.90625 31.390625 
Q 20.90625 42.671875 17.703125 53.65625 
Q 14.5 64.65625 8.015625 75.875 
z
" id="DejaVuSans-41"/>
      </defs>
      <use transform="translate(0 0.125)" xlink:href="#DejaVuSans-Oblique-117"/>
      <use transform="translate(63.378906 0.125)" xlink:href="#DejaVuSans-40"/>
      <use transform="translate(102.392578 0.125)" xlink:href="#DejaVuSans-Oblique-120"/>
      <use transform="translate(161.572266 0.125)" xlink:href="#DejaVuSans-41"/>
     </g>
    </g>
   </g>
   <g id="line2d_15">
    <path clip-path="url(#p437cd13812)" d="M 49.25 293.868993 
L 52.380859 293.772548 
L 55.511719 293.080271 
L 58.642578 291.765973 
L 61.773438 289.797009 
L 64.904297 287.136332 
L 68.035156 283.745002 
L 71.166016 279.585046 
L 74.296875 274.622533 
L 77.427734 268.830746 
L 80.558594 262.193304 
L 83.689453 254.707092 
L 86.820312 246.384866 
L 89.951172 237.257414 
L 93.082031 227.37515 
L 96.212891 216.809077 
L 99.34375 205.651027 
L 105.605469 182.026693 
L 114.998047 145.527229 
L 118.128906 133.756014 
L 121.259766 122.485878 
L 124.390625 111.899354 
L 127.521484 102.172903 
L 130.652344 93.472356 
L 133.783203 85.948541 
L 136.914062 79.733256 
L 140.044922 74.935719 
L 143.175781 71.639618 
L 146.306641 69.900868 
L 149.4375 69.746139 
L 152.568359 71.172221 
L 155.699219 74.146233 
L 158.830078 78.606679 
L 161.960938 84.465298 
L 165.091797 91.609661 
L 168.222656 99.906401 
L 171.353516 109.204981 
L 174.484375 119.341856 
L 177.615234 130.144896 
L 183.876953 153.045076 
L 193.269531 188.08686 
L 196.400391 199.342232 
L 199.53125 210.173841 
L 202.662109 220.482074 
L 205.792969 230.186803 
L 208.923828 239.227421 
L 212.054688 247.562166 
L 215.185547 255.166777 
L 218.316406 262.032582 
L 221.447266 268.164094 
L 224.578125 273.576257 
L 227.708984 278.291455 
L 230.839844 282.336439 
L 233.970703 285.739291 
L 237.101562 288.526579 
L 240.232422 290.720821 
L 243.363281 292.338371 
L 246.494141 293.387822 
L 249.625 293.868993 
L 252.755859 293.772548 
L 255.886719 293.080271 
L 259.017578 291.765973 
L 262.148438 289.797009 
L 265.279297 287.136332 
L 268.410156 283.745002 
L 271.541016 279.585046 
L 274.671875 274.622533 
L 277.802734 268.830746 
L 280.933594 262.193304 
L 284.064453 254.707092 
L 287.195312 246.384866 
L 290.326172 237.257414 
L 293.457031 227.37515 
L 296.587891 216.809077 
L 299.71875 205.651027 
L 305.980469 182.026693 
L 315.373047 145.527229 
L 318.503906 133.756014 
L 321.634766 122.485878 
L 324.765625 111.899354 
L 327.896484 102.172903 
L 331.027344 93.472356 
L 334.158203 85.948541 
L 337.289062 79.733256 
L 340.419922 74.935719 
L 343.550781 71.639618 
L 346.681641 69.900868 
L 349.8125 69.746139 
L 352.943359 71.172221 
L 356.074219 74.146233 
L 359.205078 78.606679 
L 362.335938 84.465298 
L 365.466797 91.609661 
L 368.597656 99.906401 
L 371.728516 109.204981 
L 374.859375 119.341856 
L 377.990234 130.144896 
L 384.251953 153.045076 
L 393.644531 188.08686 
L 396.775391 199.342232 
L 399.90625 210.173841 
L 403.037109 220.482074 
L 406.167969 230.186803 
L 409.298828 239.227421 
L 412.429688 247.562166 
L 415.560547 255.166777 
L 418.691406 262.032582 
L 421.822266 268.164094 
L 424.953125 273.576257 
L 428.083984 278.291455 
L 431.214844 282.336439 
L 434.345703 285.739291 
L 437.476562 288.526579 
L 440.607422 290.720821 
L 443.738281 292.338371 
L 446.869141 293.387822 
L 450 293.868993 
L 450 293.868993 
" style="fill:none;stroke:#ff7f0e;stroke-dasharray:1.5,2.475;stroke-dashoffset:0;stroke-width:1.5;"/>
   </g>
   <g id="line2d_16">
    <path clip-path="url(#p437cd13812)" d="M 49.25 293.868078 
L 52.380859 293.771611 
L 55.511719 293.079297 
L 58.642578 291.764952 
L 61.773438 289.795932 
L 64.904297 287.135194 
L 68.035156 283.743804 
L 71.166016 279.583792 
L 74.296875 274.621232 
L 77.427734 268.829412 
L 80.558594 262.191957 
L 83.689453 254.705756 
L 86.820312 246.383568 
L 89.951172 237.256183 
L 93.082031 227.374019 
L 96.212891 216.808079 
L 99.34375 205.650193 
L 105.605469 182.02628 
L 114.998047 145.527617 
L 118.128906 133.756692 
L 121.259766 122.486847 
L 124.390625 111.900608 
L 127.521484 102.174427 
L 130.652344 93.474129 
L 133.783203 85.950535 
L 136.914062 79.735438 
L 140.044922 74.93805 
L 143.175781 71.642057 
L 146.306641 69.903368 
L 149.4375 69.748654 
L 152.568359 71.174702 
L 155.699219 74.148635 
L 158.830078 78.608958 
L 161.960938 84.467415 
L 165.091797 91.61158 
L 168.222656 99.908092 
L 171.353516 109.20642 
L 174.484375 119.343028 
L 177.615234 130.14579 
L 183.876953 153.045416 
L 193.269531 188.086465 
L 196.400391 199.341637 
L 199.53125 210.173076 
L 202.662109 220.481168 
L 205.792969 230.185788 
L 208.923828 239.226327 
L 212.054688 247.561022 
L 215.185547 255.165609 
L 218.316406 262.031412 
L 221.447266 268.162941 
L 224.578125 273.575133 
L 227.708984 278.290371 
L 230.839844 282.335399 
L 233.970703 285.738294 
L 237.101562 288.52562 
L 240.232422 290.719891 
L 243.363281 292.33746 
L 246.494141 293.386917 
L 249.625 293.868078 
L 252.755859 293.771611 
L 255.886719 293.079297 
L 259.017578 291.764952 
L 262.148438 289.795932 
L 265.279297 287.135194 
L 268.410156 283.743804 
L 271.541016 279.583792 
L 274.671875 274.621232 
L 277.802734 268.829412 
L 280.933594 262.191957 
L 284.064453 254.705756 
L 287.195312 246.383568 
L 290.326172 237.256183 
L 293.457031 227.374019 
L 296.587891 216.808079 
L 299.71875 205.650193 
L 305.980469 182.02628 
L 315.373047 145.527617 
L 318.503906 133.756692 
L 321.634766 122.486847 
L 324.765625 111.900608 
L 327.896484 102.174427 
L 331.027344 93.474129 
L 334.158203 85.950535 
L 337.289062 79.735438 
L 340.419922 74.93805 
L 343.550781 71.642057 
L 346.681641 69.903368 
L 349.8125 69.748654 
L 352.943359 71.174702 
L 356.074219 74.148635 
L 359.205078 78.608958 
L 362.335938 84.467415 
L 365.466797 91.61158 
L 368.597656 99.908092 
L 371.728516 109.20642 
L 374.859375 119.343028 
L 377.990234 130.14579 
L 384.251953 153.045416 
L 393.644531 188.086465 
L 396.775391 199.341637 
L 399.90625 210.173076 
L 403.037109 220.481168 
L 406.167969 230.185788 
L 409.298828 239.226327 
L 412.429688 247.561022 
L 415.560547 255.165609 
L 418.691406 262.031412 
L 421.822266 268.162941 
L 424.953125 273.575133 
L 428.083984 278.290371 
L 431.214844 282.335399 
L 434.345703 285.738294 
L 437.476562 288.52562 
L 440.607422 290.719891 
L 443.738281 292.33746 
L 446.869141 293.386917 
L 450 293.868078 
L 450 293.868078 
" style="fill:none;stroke:#2ca02c;stroke-dasharray:1.5,2.475;stroke-dashoffset:0;stroke-width:1.5;"/>
   </g>
   <g id="line2d_17">
    <path clip-path="url(#p437cd13812)" d="M 49.25 293.808063 
L 52.976975 293.357333 
L 56.102825 292.383015 
L 59.26875 290.789004 
L 62.3946 288.59791 
L 65.560525 285.719871 
L 68.72645 282.148471 
L 71.93245 277.7881 
L 75.098375 272.720391 
L 78.304375 266.78499 
L 81.55045 259.933328 
L 84.75645 252.332305 
L 88.0426 243.686466 
L 91.32875 234.208799 
L 94.69505 223.691522 
L 98.1415 212.163482 
L 101.788325 199.260552 
L 105.715675 184.741874 
L 120.383125 129.461382 
L 123.4689 118.726872 
L 125.993625 110.469426 
L 128.7588 102.040789 
L 131.604125 94.168595 
L 134.5296 87.047736 
L 137.49515 80.951521 
L 140.500775 76.031336 
L 143.5064 72.457039 
L 146.5521 70.280471 
L 149.637875 69.600827 
L 152.763725 70.491429 
L 155.969725 73.045393 
L 159.175725 77.191695 
L 162.461875 83.020603 
L 165.748025 90.314178 
L 169.07425 99.042547 
L 172.480625 109.200886 
L 175.96715 120.655371 
L 179.694125 133.811327 
L 183.902 149.424237 
L 196.96645 198.831247 
L 202.055975 216.699883 
L 204.700925 225.37786 
L 207.506175 234.086695 
L 210.391575 242.456515 
L 213.357125 250.396085 
L 216.36275 257.730484 
L 219.40845 264.418099 
L 222.414075 270.286939 
L 225.49985 275.563505 
L 228.54555 280.054067 
L 231.631325 283.899729 
L 234.7171 287.069614 
L 237.802875 289.595007 
L 240.88865 291.505117 
L 243.974425 292.824824 
L 247.100275 293.57653 
L 250.226125 293.753111 
L 253.351975 293.357333 
L 256.477825 292.383015 
L 259.64375 290.789004 
L 262.7696 288.59791 
L 265.935525 285.719871 
L 269.10145 282.148471 
L 272.30745 277.7881 
L 275.473375 272.720391 
L 278.679375 266.78499 
L 281.92545 259.933328 
L 285.13145 252.332305 
L 288.4176 243.686466 
L 291.70375 234.208799 
L 295.07005 223.691522 
L 298.5165 212.163482 
L 302.163325 199.260552 
L 306.090675 184.741874 
L 320.758125 129.461382 
L 323.8439 118.726872 
L 326.368625 110.469426 
L 329.1338 102.040789 
L 331.979125 94.168595 
L 334.9046 87.047736 
L 337.87015 80.951521 
L 340.875775 76.031336 
L 343.8814 72.457039 
L 346.9271 70.280471 
L 350.012875 69.600827 
L 353.138725 70.491429 
L 356.344725 73.045393 
L 359.550725 77.191695 
L 362.836875 83.020603 
L 366.123025 90.314178 
L 369.44925 99.042547 
L 372.855625 109.200886 
L 376.34215 120.655371 
L 380.069125 133.811327 
L 384.277 149.424237 
L 397.34145 198.831247 
L 402.430975 216.699883 
L 405.075925 225.37786 
L 407.881175 234.086695 
L 410.766575 242.456515 
L 413.732125 250.396085 
L 416.73775 257.730484 
L 419.78345 264.418099 
L 422.789075 270.286939 
L 425.87485 275.563505 
L 428.92055 280.054067 
L 432.006325 283.899729 
L 435.0921 287.069614 
L 438.177875 289.595007 
L 441.26365 291.505117 
L 444.349425 292.824824 
L 447.475275 293.57653 
L 450 293.808063 
L 450 293.808063 
" style="fill:none;stroke:#d62728;stroke-dasharray:1.5,2.475;stroke-dashoffset:0;stroke-width:1.5;"/>
   </g>
   <g id="line2d_18">
    <path clip-path="url(#p437cd13812)" d="M 49.25 293.807151 
L 52.976975 293.356417 
L 56.102825 292.38208 
L 59.26875 290.788038 
L 62.3946 288.596902 
L 65.560525 285.718814 
L 68.72645 282.14736 
L 71.93245 277.786937 
L 75.098375 272.719182 
L 78.304375 266.783746 
L 81.55045 259.932065 
L 84.75645 252.331045 
L 88.0426 243.685238 
L 91.32875 234.207632 
L 94.69505 223.690453 
L 98.1415 212.162552 
L 101.788325 199.25981 
L 105.715675 184.741379 
L 120.383125 129.462118 
L 123.4689 118.72789 
L 125.993625 110.470671 
L 128.7588 102.042271 
L 131.604125 94.170308 
L 134.5296 87.049664 
L 137.49515 80.953641 
L 140.500775 76.033616 
L 143.5064 72.459442 
L 146.5521 70.282958 
L 149.637875 69.603354 
L 152.763725 70.493948 
L 155.969725 73.047855 
L 159.175725 77.194052 
L 162.461875 83.022806 
L 165.748025 90.316184 
L 169.07425 99.044317 
L 172.480625 109.202385 
L 175.96715 120.656568 
L 179.694125 133.812187 
L 183.902 149.424712 
L 196.96645 198.830669 
L 202.055975 216.699011 
L 204.700925 225.376869 
L 207.506175 234.085601 
L 210.391575 242.455341 
L 213.357125 250.394857 
L 216.36275 257.729227 
L 219.40845 264.416835 
L 222.414075 270.285689 
L 225.49985 275.562285 
L 228.54555 280.052889 
L 231.631325 283.8986 
L 234.7171 287.068537 
L 237.802875 289.593981 
L 240.88865 291.504135 
L 243.974425 292.823877 
L 247.100275 293.575607 
L 250.226125 293.752199 
L 253.351975 293.356417 
L 256.477825 292.38208 
L 259.64375 290.788038 
L 262.7696 288.596902 
L 265.935525 285.718814 
L 269.10145 282.14736 
L 272.30745 277.786937 
L 275.473375 272.719182 
L 278.679375 266.783746 
L 281.92545 259.932065 
L 285.13145 252.331045 
L 288.4176 243.685238 
L 291.70375 234.207632 
L 295.07005 223.690453 
L 298.5165 212.162552 
L 302.163325 199.25981 
L 306.090675 184.741379 
L 320.758125 129.462118 
L 323.8439 118.72789 
L 326.368625 110.470671 
L 329.1338 102.042271 
L 331.979125 94.170308 
L 334.9046 87.049664 
L 337.87015 80.953641 
L 340.875775 76.033616 
L 343.8814 72.459442 
L 346.9271 70.282958 
L 350.012875 69.603354 
L 353.138725 70.493948 
L 356.344725 73.047855 
L 359.550725 77.194052 
L 362.836875 83.022806 
L 366.123025 90.316184 
L 369.44925 99.044317 
L 372.855625 109.202385 
L 376.34215 120.656568 
L 380.069125 133.812187 
L 384.277 149.424712 
L 397.34145 198.830669 
L 402.430975 216.699011 
L 405.075925 225.376869 
L 407.881175 234.085601 
L 410.766575 242.455341 
L 413.732125 250.394857 
L 416.73775 257.729227 
L 419.78345 264.416835 
L 422.789075 270.285689 
L 425.87485 275.562285 
L 428.92055 280.052889 
L 432.006325 283.8986 
L 435.0921 287.068537 
L 438.177875 289.593981 
L 441.26365 291.504135 
L 444.349425 292.823877 
L 447.475275 293.575607 
L 450 293.807151 
L 450 293.807151 
" style="fill:none;stroke:#9467bd;stroke-dasharray:1.5,2.475;stroke-dashoffset:0;stroke-width:1.5;"/>
   </g>
   <g id="patch_3">
    <path d="M 49.25 302.92 
L 49.25 14.76 
" style="fill:none;stroke:#000000;stroke-linecap:square;stroke-linejoin:miter;stroke-width:0.8;"/>
   </g>
   <g id="patch_4">
    <path d="M 450 302.92 
L 450 14.76 
" style="fill:none;stroke:#000000;stroke-linecap:square;stroke-linejoin:miter;stroke-width:0.8;"/>
   </g>
   <g id="patch_5">
    <path d="M 49.25 302.92 
L 450 302.92 
" style="fill:none;stroke:#000000;stroke-linecap:square;stroke-linejoin:miter;stroke-width:0.8;"/>
   </g>
   <g id="patch_6">
    <path d="M 49.25 14.76 
L 450 14.76 
" style="fill:none;stroke:#000000;stroke-linecap:square;stroke-linejoin:miter;stroke-width:0.8;"/>
   </g>
   <g id="text_16">
    <!-- time t=6.283185424804688 -->
    <g transform="translate(55.628134 32.378187)scale(0.1 -0.1)">
     <defs>
      <path d="M 52 44.1875 
Q 55.375 50.25 60.0625 53.125 
Q 64.75 56 71.09375 56 
Q 79.640625 56 84.28125 50.015625 
Q 88.921875 44.046875 88.921875 33.015625 
L 88.921875 0 
L 79.890625 0 
L 79.890625 32.71875 
Q 79.890625 40.578125 77.09375 44.375 
Q 74.3125 48.1875 68.609375 48.1875 
Q 61.625 48.1875 57.5625 43.546875 
Q 53.515625 38.921875 53.515625 30.90625 
L 53.515625 0 
L 44.484375 0 
L 44.484375 32.71875 
Q 44.484375 40.625 41.703125 44.40625 
Q 38.921875 48.1875 33.109375 48.1875 
Q 26.21875 48.1875 22.15625 43.53125 
Q 18.109375 38.875 18.109375 30.90625 
L 18.109375 0 
L 9.078125 0 
L 9.078125 54.6875 
L 18.109375 54.6875 
L 18.109375 46.1875 
Q 21.1875 51.21875 25.484375 53.609375 
Q 29.78125 56 35.6875 56 
Q 41.65625 56 45.828125 52.96875 
Q 50 49.953125 52 44.1875 
z
" id="DejaVuSans-109"/>
      <path d="M 56.203125 29.59375 
L 56.203125 25.203125 
L 14.890625 25.203125 
Q 15.484375 15.921875 20.484375 11.0625 
Q 25.484375 6.203125 34.421875 6.203125 
Q 39.59375 6.203125 44.453125 7.46875 
Q 49.3125 8.734375 54.109375 11.28125 
L 54.109375 2.78125 
Q 49.265625 0.734375 44.1875 -0.34375 
Q 39.109375 -1.421875 33.890625 -1.421875 
Q 20.796875 -1.421875 13.15625 6.1875 
Q 5.515625 13.8125 5.515625 26.8125 
Q 5.515625 40.234375 12.765625 48.109375 
Q 20.015625 56 32.328125 56 
Q 43.359375 56 49.78125 48.890625 
Q 56.203125 41.796875 56.203125 29.59375 
z
M 47.21875 32.234375 
Q 47.125 39.59375 43.09375 43.984375 
Q 39.0625 48.390625 32.421875 48.390625 
Q 24.90625 48.390625 20.390625 44.140625 
Q 15.875 39.890625 15.1875 32.171875 
z
" id="DejaVuSans-101"/>
      <path d="M 10.59375 45.40625 
L 73.1875 45.40625 
L 73.1875 37.203125 
L 10.59375 37.203125 
z
M 10.59375 25.484375 
L 73.1875 25.484375 
L 73.1875 17.1875 
L 10.59375 17.1875 
z
" id="DejaVuSans-61"/>
     </defs>
     <use xlink:href="#DejaVuSans-116"/>
     <use x="39.208984" xlink:href="#DejaVuSans-105"/>
     <use x="66.992188" xlink:href="#DejaVuSans-109"/>
     <use x="164.404297" xlink:href="#DejaVuSans-101"/>
     <use x="225.927734" xlink:href="#DejaVuSans-32"/>
     <use x="257.714844" xlink:href="#DejaVuSans-116"/>
     <use x="296.923828" xlink:href="#DejaVuSans-61"/>
     <use x="380.712891" xlink:href="#DejaVuSans-54"/>
     <use x="444.335938" xlink:href="#DejaVuSans-46"/>
     <use x="476.123047" xlink:href="#DejaVuSans-50"/>
     <use x="539.746094" xlink:href="#DejaVuSans-56"/>
     <use x="603.369141" xlink:href="#DejaVuSans-51"/>
     <use x="666.992188" xlink:href="#DejaVuSans-49"/>
     <use x="730.615234" xlink:href="#DejaVuSans-56"/>
     <use x="794.238281" xlink:href="#DejaVuSans-53"/>
     <use x="857.861328" xlink:href="#DejaVuSans-52"/>
     <use x="921.484375" xlink:href="#DejaVuSans-50"/>
     <use x="985.107422" xlink:href="#DejaVuSans-52"/>
     <use x="1048.730469" xlink:href="#DejaVuSans-56"/>
     <use x="1112.353516" xlink:href="#DejaVuSans-48"/>
     <use x="1175.976562" xlink:href="#DejaVuSans-52"/>
     <use x="1239.599609" xlink:href="#DejaVuSans-54"/>
     <use x="1303.222656" xlink:href="#DejaVuSans-56"/>
     <use x="1366.845703" xlink:href="#DejaVuSans-56"/>
    </g>
    <!-- # elements N=128 -->
    <g transform="translate(55.628134 43.576)scale(0.1 -0.1)">
     <defs>
      <path d="M 51.125 44 
L 36.921875 44 
L 32.8125 27.6875 
L 47.125 27.6875 
z
M 43.796875 71.78125 
L 38.71875 51.515625 
L 52.984375 51.515625 
L 58.109375 71.78125 
L 65.921875 71.78125 
L 60.890625 51.515625 
L 76.125 51.515625 
L 76.125 44 
L 58.984375 44 
L 54.984375 27.6875 
L 70.515625 27.6875 
L 70.515625 20.21875 
L 53.078125 20.21875 
L 48 0 
L 40.1875 0 
L 45.21875 20.21875 
L 30.90625 20.21875 
L 25.875 0 
L 18.015625 0 
L 23.09375 20.21875 
L 7.71875 20.21875 
L 7.71875 27.6875 
L 24.90625 27.6875 
L 29 44 
L 13.28125 44 
L 13.28125 51.515625 
L 30.90625 51.515625 
L 35.890625 71.78125 
z
" id="DejaVuSans-35"/>
      <path d="M 44.28125 53.078125 
L 44.28125 44.578125 
Q 40.484375 46.53125 36.375 47.5 
Q 32.28125 48.484375 27.875 48.484375 
Q 21.1875 48.484375 17.84375 46.4375 
Q 14.5 44.390625 14.5 40.28125 
Q 14.5 37.15625 16.890625 35.375 
Q 19.28125 33.59375 26.515625 31.984375 
L 29.59375 31.296875 
Q 39.15625 29.25 43.1875 25.515625 
Q 47.21875 21.78125 47.21875 15.09375 
Q 47.21875 7.46875 41.1875 3.015625 
Q 35.15625 -1.421875 24.609375 -1.421875 
Q 20.21875 -1.421875 15.453125 -0.5625 
Q 10.6875 0.296875 5.421875 2 
L 5.421875 11.28125 
Q 10.40625 8.6875 15.234375 7.390625 
Q 20.0625 6.109375 24.8125 6.109375 
Q 31.15625 6.109375 34.5625 8.28125 
Q 37.984375 10.453125 37.984375 14.40625 
Q 37.984375 18.0625 35.515625 20.015625 
Q 33.0625 21.96875 24.703125 23.78125 
L 21.578125 24.515625 
Q 13.234375 26.265625 9.515625 29.90625 
Q 5.8125 33.546875 5.8125 39.890625 
Q 5.8125 47.609375 11.28125 51.796875 
Q 16.75 56 26.8125 56 
Q 31.78125 56 36.171875 55.265625 
Q 40.578125 54.546875 44.28125 53.078125 
z
" id="DejaVuSans-115"/>
      <path d="M 9.8125 72.90625 
L 23.09375 72.90625 
L 55.421875 11.921875 
L 55.421875 72.90625 
L 64.984375 72.90625 
L 64.984375 0 
L 51.703125 0 
L 19.390625 60.984375 
L 19.390625 0 
L 9.8125 0 
z
" id="DejaVuSans-78"/>
     </defs>
     <use xlink:href="#DejaVuSans-35"/>
     <use x="83.789062" xlink:href="#DejaVuSans-32"/>
     <use x="115.576172" xlink:href="#DejaVuSans-101"/>
     <use x="177.099609" xlink:href="#DejaVuSans-108"/>
     <use x="204.882812" xlink:href="#DejaVuSans-101"/>
     <use x="266.40625" xlink:href="#DejaVuSans-109"/>
     <use x="363.818359" xlink:href="#DejaVuSans-101"/>
     <use x="425.341797" xlink:href="#DejaVuSans-110"/>
     <use x="488.720703" xlink:href="#DejaVuSans-116"/>
     <use x="527.929688" xlink:href="#DejaVuSans-115"/>
     <use x="580.029297" xlink:href="#DejaVuSans-32"/>
     <use x="611.816406" xlink:href="#DejaVuSans-78"/>
     <use x="686.621094" xlink:href="#DejaVuSans-61"/>
     <use x="770.410156" xlink:href="#DejaVuSans-49"/>
     <use x="834.033203" xlink:href="#DejaVuSans-50"/>
     <use x="897.65625" xlink:href="#DejaVuSans-56"/>
    </g>
   </g>
   <g id="legend_1">
    <g id="patch_7">
     <path d="M 346.014063 96.150625 
L 443 96.150625 
Q 445 96.150625 445 94.150625 
L 445 21.76 
Q 445 19.76 443 19.76 
L 346.014063 19.76 
Q 344.014063 19.76 344.014063 21.76 
L 344.014063 94.150625 
Q 344.014063 96.150625 346.014063 96.150625 
z
" style="fill:#ffffff;opacity:0.8;stroke:#cccccc;stroke-linejoin:miter;"/>
    </g>
    <g id="line2d_19">
     <path d="M 348.014063 27.858437 
L 368.014063 27.858437 
" style="fill:none;stroke:#1f77b4;stroke-linecap:square;stroke-width:1.5;"/>
    </g>
    <g id="line2d_20"/>
    <g id="text_17">
     <!-- Exact -->
     <g transform="translate(376.014063 31.358437)scale(0.1 -0.1)">
      <defs>
       <path d="M 9.8125 72.90625 
L 55.90625 72.90625 
L 55.90625 64.59375 
L 19.671875 64.59375 
L 19.671875 43.015625 
L 54.390625 43.015625 
L 54.390625 34.71875 
L 19.671875 34.71875 
L 19.671875 8.296875 
L 56.78125 8.296875 
L 56.78125 0 
L 9.8125 0 
z
" id="DejaVuSans-69"/>
       <path d="M 54.890625 54.6875 
L 35.109375 28.078125 
L 55.90625 0 
L 45.3125 0 
L 29.390625 21.484375 
L 13.484375 0 
L 2.875 0 
L 24.125 28.609375 
L 4.6875 54.6875 
L 15.28125 54.6875 
L 29.78125 35.203125 
L 44.28125 54.6875 
z
" id="DejaVuSans-120"/>
      </defs>
      <use xlink:href="#DejaVuSans-69"/>
      <use x="63.183594" xlink:href="#DejaVuSans-120"/>
      <use x="122.363281" xlink:href="#DejaVuSans-97"/>
      <use x="183.642578" xlink:href="#DejaVuSans-99"/>
      <use x="238.623047" xlink:href="#DejaVuSans-116"/>
     </g>
    </g>
    <g id="line2d_21">
     <path d="M 348.014063 42.536563 
L 368.014063 42.536563 
" style="fill:none;stroke:#ff7f0e;stroke-dasharray:1.5,2.475;stroke-dashoffset:0;stroke-width:1.5;"/>
    </g>
    <g id="line2d_22"/>
    <g id="text_18">
     <!-- FD forward -->
     <g transform="translate(376.014063 46.036563)scale(0.1 -0.1)">
      <defs>
       <path d="M 9.8125 72.90625 
L 51.703125 72.90625 
L 51.703125 64.59375 
L 19.671875 64.59375 
L 19.671875 43.109375 
L 48.578125 43.109375 
L 48.578125 34.8125 
L 19.671875 34.8125 
L 19.671875 0 
L 9.8125 0 
z
" id="DejaVuSans-70"/>
       <path d="M 19.671875 64.796875 
L 19.671875 8.109375 
L 31.59375 8.109375 
Q 46.6875 8.109375 53.6875 14.9375 
Q 60.6875 21.78125 60.6875 36.53125 
Q 60.6875 51.171875 53.6875 57.984375 
Q 46.6875 64.796875 31.59375 64.796875 
z
M 9.8125 72.90625 
L 30.078125 72.90625 
Q 51.265625 72.90625 61.171875 64.09375 
Q 71.09375 55.28125 71.09375 36.53125 
Q 71.09375 17.671875 61.125 8.828125 
Q 51.171875 0 30.078125 0 
L 9.8125 0 
z
" id="DejaVuSans-68"/>
       <path d="M 37.109375 75.984375 
L 37.109375 68.5 
L 28.515625 68.5 
Q 23.6875 68.5 21.796875 66.546875 
Q 19.921875 64.59375 19.921875 59.515625 
L 19.921875 54.6875 
L 34.71875 54.6875 
L 34.71875 47.703125 
L 19.921875 47.703125 
L 19.921875 0 
L 10.890625 0 
L 10.890625 47.703125 
L 2.296875 47.703125 
L 2.296875 54.6875 
L 10.890625 54.6875 
L 10.890625 58.5 
Q 10.890625 67.625 15.140625 71.796875 
Q 19.390625 75.984375 28.609375 75.984375 
z
" id="DejaVuSans-102"/>
       <path d="M 41.109375 46.296875 
Q 39.59375 47.171875 37.8125 47.578125 
Q 36.03125 48 33.890625 48 
Q 26.265625 48 22.1875 43.046875 
Q 18.109375 38.09375 18.109375 28.8125 
L 18.109375 0 
L 9.078125 0 
L 9.078125 54.6875 
L 18.109375 54.6875 
L 18.109375 46.1875 
Q 20.953125 51.171875 25.484375 53.578125 
Q 30.03125 56 36.53125 56 
Q 37.453125 56 38.578125 55.875 
Q 39.703125 55.765625 41.0625 55.515625 
z
" id="DejaVuSans-114"/>
       <path d="M 4.203125 54.6875 
L 13.1875 54.6875 
L 24.421875 12.015625 
L 35.59375 54.6875 
L 46.1875 54.6875 
L 57.421875 12.015625 
L 68.609375 54.6875 
L 77.59375 54.6875 
L 63.28125 0 
L 52.6875 0 
L 40.921875 44.828125 
L 29.109375 0 
L 18.5 0 
z
" id="DejaVuSans-119"/>
       <path d="M 45.40625 46.390625 
L 45.40625 75.984375 
L 54.390625 75.984375 
L 54.390625 0 
L 45.40625 0 
L 45.40625 8.203125 
Q 42.578125 3.328125 38.25 0.953125 
Q 33.9375 -1.421875 27.875 -1.421875 
Q 17.96875 -1.421875 11.734375 6.484375 
Q 5.515625 14.40625 5.515625 27.296875 
Q 5.515625 40.1875 11.734375 48.09375 
Q 17.96875 56 27.875 56 
Q 33.9375 56 38.25 53.625 
Q 42.578125 51.265625 45.40625 46.390625 
z
M 14.796875 27.296875 
Q 14.796875 17.390625 18.875 11.75 
Q 22.953125 6.109375 30.078125 6.109375 
Q 37.203125 6.109375 41.296875 11.75 
Q 45.40625 17.390625 45.40625 27.296875 
Q 45.40625 37.203125 41.296875 42.84375 
Q 37.203125 48.484375 30.078125 48.484375 
Q 22.953125 48.484375 18.875 42.84375 
Q 14.796875 37.203125 14.796875 27.296875 
z
" id="DejaVuSans-100"/>
      </defs>
      <use xlink:href="#DejaVuSans-70"/>
      <use x="57.519531" xlink:href="#DejaVuSans-68"/>
      <use x="134.521484" xlink:href="#DejaVuSans-32"/>
      <use x="166.308594" xlink:href="#DejaVuSans-102"/>
      <use x="201.513672" xlink:href="#DejaVuSans-111"/>
      <use x="262.695312" xlink:href="#DejaVuSans-114"/>
      <use x="303.808594" xlink:href="#DejaVuSans-119"/>
      <use x="385.595703" xlink:href="#DejaVuSans-97"/>
      <use x="446.875" xlink:href="#DejaVuSans-114"/>
      <use x="486.238281" xlink:href="#DejaVuSans-100"/>
     </g>
    </g>
    <g id="line2d_23">
     <path d="M 348.014063 57.214687 
L 368.014063 57.214687 
" style="fill:none;stroke:#2ca02c;stroke-dasharray:1.5,2.475;stroke-dashoffset:0;stroke-width:1.5;"/>
    </g>
    <g id="line2d_24"/>
    <g id="text_19">
     <!-- FD backward -->
     <g transform="translate(376.014063 60.714687)scale(0.1 -0.1)">
      <defs>
       <path d="M 48.6875 27.296875 
Q 48.6875 37.203125 44.609375 42.84375 
Q 40.53125 48.484375 33.40625 48.484375 
Q 26.265625 48.484375 22.1875 42.84375 
Q 18.109375 37.203125 18.109375 27.296875 
Q 18.109375 17.390625 22.1875 11.75 
Q 26.265625 6.109375 33.40625 6.109375 
Q 40.53125 6.109375 44.609375 11.75 
Q 48.6875 17.390625 48.6875 27.296875 
z
M 18.109375 46.390625 
Q 20.953125 51.265625 25.265625 53.625 
Q 29.59375 56 35.59375 56 
Q 45.5625 56 51.78125 48.09375 
Q 58.015625 40.1875 58.015625 27.296875 
Q 58.015625 14.40625 51.78125 6.484375 
Q 45.5625 -1.421875 35.59375 -1.421875 
Q 29.59375 -1.421875 25.265625 0.953125 
Q 20.953125 3.328125 18.109375 8.203125 
L 18.109375 0 
L 9.078125 0 
L 9.078125 75.984375 
L 18.109375 75.984375 
z
" id="DejaVuSans-98"/>
       <path d="M 9.078125 75.984375 
L 18.109375 75.984375 
L 18.109375 31.109375 
L 44.921875 54.6875 
L 56.390625 54.6875 
L 27.390625 29.109375 
L 57.625 0 
L 45.90625 0 
L 18.109375 26.703125 
L 18.109375 0 
L 9.078125 0 
z
" id="DejaVuSans-107"/>
      </defs>
      <use xlink:href="#DejaVuSans-70"/>
      <use x="57.519531" xlink:href="#DejaVuSans-68"/>
      <use x="134.521484" xlink:href="#DejaVuSans-32"/>
      <use x="166.308594" xlink:href="#DejaVuSans-98"/>
      <use x="229.785156" xlink:href="#DejaVuSans-97"/>
      <use x="291.064453" xlink:href="#DejaVuSans-99"/>
      <use x="346.044922" xlink:href="#DejaVuSans-107"/>
      <use x="403.955078" xlink:href="#DejaVuSans-119"/>
      <use x="485.742188" xlink:href="#DejaVuSans-97"/>
      <use x="547.021484" xlink:href="#DejaVuSans-114"/>
      <use x="586.384766" xlink:href="#DejaVuSans-100"/>
     </g>
    </g>
    <g id="line2d_25">
     <path d="M 348.014063 71.892812 
L 368.014063 71.892812 
" style="fill:none;stroke:#d62728;stroke-dasharray:1.5,2.475;stroke-dashoffset:0;stroke-width:1.5;"/>
    </g>
    <g id="line2d_26"/>
    <g id="text_20">
     <!-- FE forward -->
     <g transform="translate(376.014063 75.392812)scale(0.1 -0.1)">
      <use xlink:href="#DejaVuSans-70"/>
      <use x="57.519531" xlink:href="#DejaVuSans-69"/>
      <use x="120.703125" xlink:href="#DejaVuSans-32"/>
      <use x="152.490234" xlink:href="#DejaVuSans-102"/>
      <use x="187.695312" xlink:href="#DejaVuSans-111"/>
      <use x="248.876953" xlink:href="#DejaVuSans-114"/>
      <use x="289.990234" xlink:href="#DejaVuSans-119"/>
      <use x="371.777344" xlink:href="#DejaVuSans-97"/>
      <use x="433.056641" xlink:href="#DejaVuSans-114"/>
      <use x="472.419922" xlink:href="#DejaVuSans-100"/>
     </g>
    </g>
    <g id="line2d_27">
     <path d="M 348.014063 86.570937 
L 368.014063 86.570937 
" style="fill:none;stroke:#9467bd;stroke-dasharray:1.5,2.475;stroke-dashoffset:0;stroke-width:1.5;"/>
    </g>
    <g id="line2d_28"/>
    <g id="text_21">
     <!-- FE backward -->
     <g transform="translate(376.014063 90.070937)scale(0.1 -0.1)">
      <use xlink:href="#DejaVuSans-70"/>
      <use x="57.519531" xlink:href="#DejaVuSans-69"/>
      <use x="120.703125" xlink:href="#DejaVuSans-32"/>
      <use x="152.490234" xlink:href="#DejaVuSans-98"/>
      <use x="215.966797" xlink:href="#DejaVuSans-97"/>
      <use x="277.246094" xlink:href="#DejaVuSans-99"/>
      <use x="332.226562" xlink:href="#DejaVuSans-107"/>
      <use x="390.136719" xlink:href="#DejaVuSans-119"/>
      <use x="471.923828" xlink:href="#DejaVuSans-97"/>
      <use x="533.203125" xlink:href="#DejaVuSans-114"/>
      <use x="572.566406" xlink:href="#DejaVuSans-100"/>
     </g>
    </g>
   </g>
  </g>
 </g>
 <defs>
  <clipPath id="p437cd13812">
   <rect height="288.16" width="400.75" x="49.25" y="14.76"/>
  </clipPath>
 </defs>
</svg>
