<?xml version="1.0" encoding="utf-8" standalone="no"?>
<!DOCTYPE svg PUBLIC "-//W3C//DTD SVG 1.1//EN"
  "http://www.w3.org/Graphics/SVG/1.1/DTD/svg11.dtd">
<!-- Created with matplotlib (https://matplotlib.org/) -->
<svg height="345.6pt" version="1.1" viewBox="0 0 460.8 345.6" width="460.8pt" xmlns="http://www.w3.org/2000/svg" xmlns:xlink="http://www.w3.org/1999/xlink">
 <metadata>
  <rdf:RDF xmlns:cc="http://creativecommons.org/ns#" xmlns:dc="http://purl.org/dc/elements/1.1/" xmlns:rdf="http://www.w3.org/1999/02/22-rdf-syntax-ns#">
   <cc:Work>
    <dc:type rdf:resource="http://purl.org/dc/dcmitype/StillImage"/>
    <dc:date>2021-03-07T22:26:30.314317</dc:date>
    <dc:format>image/svg+xml</dc:format>
    <dc:creator>
     <cc:Agent>
      <dc:title>Matplotlib v3.3.4, https://matplotlib.org/</dc:title>
     </cc:Agent>
    </dc:creator>
   </cc:Work>
  </rdf:RDF>
 </metadata>
 <defs>
  <style type="text/css">*{stroke-linecap:butt;stroke-linejoin:round;}</style>
 </defs>
 <g id="figure_1">
  <g id="patch_1">
   <path d="M 0 345.6 
L 460.8 345.6 
L 460.8 0 
L 0 0 
z
" style="fill:#ffffff;"/>
  </g>
  <g id="axes_1">
   <g id="patch_2">
    <path d="M 58.628 303.64 
L 442.035 303.64 
L 442.035 10.8 
L 58.628 10.8 
z
" style="fill:#ffffff;"/>
   </g>
   <g id="matplotlib.axis_1">
    <g id="xtick_1">
     <g id="line2d_1">
      <defs>
       <path d="M 0 0 
L 0 3.5 
" id="m9361f7ce79" style="stroke:#000000;stroke-width:0.8;"/>
      </defs>
      <g>
       <use style="stroke:#000000;stroke-width:0.8;" x="58.628" xlink:href="#m9361f7ce79" y="303.64"/>
      </g>
     </g>
     <g id="text_1">
      <!-- 0.0 -->
      <g transform="translate(50.676438 318.238437)scale(0.1 -0.1)">
       <defs>
        <path d="M 31.78125 66.40625 
Q 24.171875 66.40625 20.328125 58.90625 
Q 16.5 51.421875 16.5 36.375 
Q 16.5 21.390625 20.328125 13.890625 
Q 24.171875 6.390625 31.78125 6.390625 
Q 39.453125 6.390625 43.28125 13.890625 
Q 47.125 21.390625 47.125 36.375 
Q 47.125 51.421875 43.28125 58.90625 
Q 39.453125 66.40625 31.78125 66.40625 
z
M 31.78125 74.21875 
Q 44.046875 74.21875 50.515625 64.515625 
Q 56.984375 54.828125 56.984375 36.375 
Q 56.984375 17.96875 50.515625 8.265625 
Q 44.046875 -1.421875 31.78125 -1.421875 
Q 19.53125 -1.421875 13.0625 8.265625 
Q 6.59375 17.96875 6.59375 36.375 
Q 6.59375 54.828125 13.0625 64.515625 
Q 19.53125 74.21875 31.78125 74.21875 
z
" id="DejaVuSans-48"/>
        <path d="M 10.6875 12.40625 
L 21 12.40625 
L 21 0 
L 10.6875 0 
z
" id="DejaVuSans-46"/>
       </defs>
       <use xlink:href="#DejaVuSans-48"/>
       <use x="63.623047" xlink:href="#DejaVuSans-46"/>
       <use x="95.410156" xlink:href="#DejaVuSans-48"/>
      </g>
     </g>
    </g>
    <g id="xtick_2">
     <g id="line2d_2">
      <g>
       <use style="stroke:#000000;stroke-width:0.8;" x="135.3094" xlink:href="#m9361f7ce79" y="303.64"/>
      </g>
     </g>
     <g id="text_2">
      <!-- 0.2 -->
      <g transform="translate(127.357838 318.238437)scale(0.1 -0.1)">
       <defs>
        <path d="M 19.1875 8.296875 
L 53.609375 8.296875 
L 53.609375 0 
L 7.328125 0 
L 7.328125 8.296875 
Q 12.9375 14.109375 22.625 23.890625 
Q 32.328125 33.6875 34.8125 36.53125 
Q 39.546875 41.84375 41.421875 45.53125 
Q 43.3125 49.21875 43.3125 52.78125 
Q 43.3125 58.59375 39.234375 62.25 
Q 35.15625 65.921875 28.609375 65.921875 
Q 23.96875 65.921875 18.8125 64.3125 
Q 13.671875 62.703125 7.8125 59.421875 
L 7.8125 69.390625 
Q 13.765625 71.78125 18.9375 73 
Q 24.125 74.21875 28.421875 74.21875 
Q 39.75 74.21875 46.484375 68.546875 
Q 53.21875 62.890625 53.21875 53.421875 
Q 53.21875 48.921875 51.53125 44.890625 
Q 49.859375 40.875 45.40625 35.40625 
Q 44.1875 33.984375 37.640625 27.21875 
Q 31.109375 20.453125 19.1875 8.296875 
z
" id="DejaVuSans-50"/>
       </defs>
       <use xlink:href="#DejaVuSans-48"/>
       <use x="63.623047" xlink:href="#DejaVuSans-46"/>
       <use x="95.410156" xlink:href="#DejaVuSans-50"/>
      </g>
     </g>
    </g>
    <g id="xtick_3">
     <g id="line2d_3">
      <g>
       <use style="stroke:#000000;stroke-width:0.8;" x="211.9908" xlink:href="#m9361f7ce79" y="303.64"/>
      </g>
     </g>
     <g id="text_3">
      <!-- 0.4 -->
      <g transform="translate(204.039238 318.238437)scale(0.1 -0.1)">
       <defs>
        <path d="M 37.796875 64.3125 
L 12.890625 25.390625 
L 37.796875 25.390625 
z
M 35.203125 72.90625 
L 47.609375 72.90625 
L 47.609375 25.390625 
L 58.015625 25.390625 
L 58.015625 17.1875 
L 47.609375 17.1875 
L 47.609375 0 
L 37.796875 0 
L 37.796875 17.1875 
L 4.890625 17.1875 
L 4.890625 26.703125 
z
" id="DejaVuSans-52"/>
       </defs>
       <use xlink:href="#DejaVuSans-48"/>
       <use x="63.623047" xlink:href="#DejaVuSans-46"/>
       <use x="95.410156" xlink:href="#DejaVuSans-52"/>
      </g>
     </g>
    </g>
    <g id="xtick_4">
     <g id="line2d_4">
      <g>
       <use style="stroke:#000000;stroke-width:0.8;" x="288.6722" xlink:href="#m9361f7ce79" y="303.64"/>
      </g>
     </g>
     <g id="text_4">
      <!-- 0.6 -->
      <g transform="translate(280.720638 318.238437)scale(0.1 -0.1)">
       <defs>
        <path d="M 33.015625 40.375 
Q 26.375 40.375 22.484375 35.828125 
Q 18.609375 31.296875 18.609375 23.390625 
Q 18.609375 15.53125 22.484375 10.953125 
Q 26.375 6.390625 33.015625 6.390625 
Q 39.65625 6.390625 43.53125 10.953125 
Q 47.40625 15.53125 47.40625 23.390625 
Q 47.40625 31.296875 43.53125 35.828125 
Q 39.65625 40.375 33.015625 40.375 
z
M 52.59375 71.296875 
L 52.59375 62.3125 
Q 48.875 64.0625 45.09375 64.984375 
Q 41.3125 65.921875 37.59375 65.921875 
Q 27.828125 65.921875 22.671875 59.328125 
Q 17.53125 52.734375 16.796875 39.40625 
Q 19.671875 43.65625 24.015625 45.921875 
Q 28.375 48.1875 33.59375 48.1875 
Q 44.578125 48.1875 50.953125 41.515625 
Q 57.328125 34.859375 57.328125 23.390625 
Q 57.328125 12.15625 50.6875 5.359375 
Q 44.046875 -1.421875 33.015625 -1.421875 
Q 20.359375 -1.421875 13.671875 8.265625 
Q 6.984375 17.96875 6.984375 36.375 
Q 6.984375 53.65625 15.1875 63.9375 
Q 23.390625 74.21875 37.203125 74.21875 
Q 40.921875 74.21875 44.703125 73.484375 
Q 48.484375 72.75 52.59375 71.296875 
z
" id="DejaVuSans-54"/>
       </defs>
       <use xlink:href="#DejaVuSans-48"/>
       <use x="63.623047" xlink:href="#DejaVuSans-46"/>
       <use x="95.410156" xlink:href="#DejaVuSans-54"/>
      </g>
     </g>
    </g>
    <g id="xtick_5">
     <g id="line2d_5">
      <g>
       <use style="stroke:#000000;stroke-width:0.8;" x="365.3536" xlink:href="#m9361f7ce79" y="303.64"/>
      </g>
     </g>
     <g id="text_5">
      <!-- 0.8 -->
      <g transform="translate(357.402037 318.238437)scale(0.1 -0.1)">
       <defs>
        <path d="M 31.78125 34.625 
Q 24.75 34.625 20.71875 30.859375 
Q 16.703125 27.09375 16.703125 20.515625 
Q 16.703125 13.921875 20.71875 10.15625 
Q 24.75 6.390625 31.78125 6.390625 
Q 38.8125 6.390625 42.859375 10.171875 
Q 46.921875 13.96875 46.921875 20.515625 
Q 46.921875 27.09375 42.890625 30.859375 
Q 38.875 34.625 31.78125 34.625 
z
M 21.921875 38.8125 
Q 15.578125 40.375 12.03125 44.71875 
Q 8.5 49.078125 8.5 55.328125 
Q 8.5 64.0625 14.71875 69.140625 
Q 20.953125 74.21875 31.78125 74.21875 
Q 42.671875 74.21875 48.875 69.140625 
Q 55.078125 64.0625 55.078125 55.328125 
Q 55.078125 49.078125 51.53125 44.71875 
Q 48 40.375 41.703125 38.8125 
Q 48.828125 37.15625 52.796875 32.3125 
Q 56.78125 27.484375 56.78125 20.515625 
Q 56.78125 9.90625 50.3125 4.234375 
Q 43.84375 -1.421875 31.78125 -1.421875 
Q 19.734375 -1.421875 13.25 4.234375 
Q 6.78125 9.90625 6.78125 20.515625 
Q 6.78125 27.484375 10.78125 32.3125 
Q 14.796875 37.15625 21.921875 38.8125 
z
M 18.3125 54.390625 
Q 18.3125 48.734375 21.84375 45.5625 
Q 25.390625 42.390625 31.78125 42.390625 
Q 38.140625 42.390625 41.71875 45.5625 
Q 45.3125 48.734375 45.3125 54.390625 
Q 45.3125 60.0625 41.71875 63.234375 
Q 38.140625 66.40625 31.78125 66.40625 
Q 25.390625 66.40625 21.84375 63.234375 
Q 18.3125 60.0625 18.3125 54.390625 
z
" id="DejaVuSans-56"/>
       </defs>
       <use xlink:href="#DejaVuSans-48"/>
       <use x="63.623047" xlink:href="#DejaVuSans-46"/>
       <use x="95.410156" xlink:href="#DejaVuSans-56"/>
      </g>
     </g>
    </g>
    <g id="xtick_6">
     <g id="line2d_6">
      <g>
       <use style="stroke:#000000;stroke-width:0.8;" x="442.035" xlink:href="#m9361f7ce79" y="303.64"/>
      </g>
     </g>
     <g id="text_6">
      <!-- 1.0 -->
      <g transform="translate(434.083437 318.238437)scale(0.1 -0.1)">
       <defs>
        <path d="M 12.40625 8.296875 
L 28.515625 8.296875 
L 28.515625 63.921875 
L 10.984375 60.40625 
L 10.984375 69.390625 
L 28.421875 72.90625 
L 38.28125 72.90625 
L 38.28125 8.296875 
L 54.390625 8.296875 
L 54.390625 0 
L 12.40625 0 
z
" id="DejaVuSans-49"/>
       </defs>
       <use xlink:href="#DejaVuSans-49"/>
       <use x="63.623047" xlink:href="#DejaVuSans-46"/>
       <use x="95.410156" xlink:href="#DejaVuSans-48"/>
      </g>
     </g>
    </g>
    <g id="text_7">
     <!-- $x$ -->
     <g transform="translate(247.3315 331.916562)scale(0.1 -0.1)">
      <defs>
       <path d="M 60.015625 54.6875 
L 34.90625 27.875 
L 50.296875 0 
L 39.984375 0 
L 28.421875 21.6875 
L 8.296875 0 
L -2.59375 0 
L 24.3125 28.8125 
L 10.015625 54.6875 
L 20.3125 54.6875 
L 30.8125 34.90625 
L 49.125 54.6875 
z
" id="DejaVuSans-Oblique-120"/>
      </defs>
      <use transform="translate(0 0.3125)" xlink:href="#DejaVuSans-Oblique-120"/>
     </g>
    </g>
   </g>
   <g id="matplotlib.axis_2">
    <g id="ytick_1">
     <g id="line2d_7">
      <defs>
       <path d="M 0 0 
L -3.5 0 
" id="m157e7f6dff" style="stroke:#000000;stroke-width:0.8;"/>
      </defs>
      <g>
       <use style="stroke:#000000;stroke-width:0.8;" x="58.628" xlink:href="#m157e7f6dff" y="293.878667"/>
      </g>
     </g>
     <g id="text_8">
      <!-- −0.2 -->
      <g transform="translate(27.345188 297.677885)scale(0.1 -0.1)">
       <defs>
        <path d="M 10.59375 35.5 
L 73.1875 35.5 
L 73.1875 27.203125 
L 10.59375 27.203125 
z
" id="DejaVuSans-8722"/>
       </defs>
       <use xlink:href="#DejaVuSans-8722"/>
       <use x="83.789062" xlink:href="#DejaVuSans-48"/>
       <use x="147.412109" xlink:href="#DejaVuSans-46"/>
       <use x="179.199219" xlink:href="#DejaVuSans-50"/>
      </g>
     </g>
    </g>
    <g id="ytick_2">
     <g id="line2d_8">
      <g>
       <use style="stroke:#000000;stroke-width:0.8;" x="58.628" xlink:href="#m157e7f6dff" y="254.833333"/>
      </g>
     </g>
     <g id="text_9">
      <!-- 0.0 -->
      <g transform="translate(35.724875 258.632552)scale(0.1 -0.1)">
       <use xlink:href="#DejaVuSans-48"/>
       <use x="63.623047" xlink:href="#DejaVuSans-46"/>
       <use x="95.410156" xlink:href="#DejaVuSans-48"/>
      </g>
     </g>
    </g>
    <g id="ytick_3">
     <g id="line2d_9">
      <g>
       <use style="stroke:#000000;stroke-width:0.8;" x="58.628" xlink:href="#m157e7f6dff" y="215.788"/>
      </g>
     </g>
     <g id="text_10">
      <!-- 0.2 -->
      <g transform="translate(35.724875 219.587219)scale(0.1 -0.1)">
       <use xlink:href="#DejaVuSans-48"/>
       <use x="63.623047" xlink:href="#DejaVuSans-46"/>
       <use x="95.410156" xlink:href="#DejaVuSans-50"/>
      </g>
     </g>
    </g>
    <g id="ytick_4">
     <g id="line2d_10">
      <g>
       <use style="stroke:#000000;stroke-width:0.8;" x="58.628" xlink:href="#m157e7f6dff" y="176.742667"/>
      </g>
     </g>
     <g id="text_11">
      <!-- 0.4 -->
      <g transform="translate(35.724875 180.541885)scale(0.1 -0.1)">
       <use xlink:href="#DejaVuSans-48"/>
       <use x="63.623047" xlink:href="#DejaVuSans-46"/>
       <use x="95.410156" xlink:href="#DejaVuSans-52"/>
      </g>
     </g>
    </g>
    <g id="ytick_5">
     <g id="line2d_11">
      <g>
       <use style="stroke:#000000;stroke-width:0.8;" x="58.628" xlink:href="#m157e7f6dff" y="137.697333"/>
      </g>
     </g>
     <g id="text_12">
      <!-- 0.6 -->
      <g transform="translate(35.724875 141.496552)scale(0.1 -0.1)">
       <use xlink:href="#DejaVuSans-48"/>
       <use x="63.623047" xlink:href="#DejaVuSans-46"/>
       <use x="95.410156" xlink:href="#DejaVuSans-54"/>
      </g>
     </g>
    </g>
    <g id="ytick_6">
     <g id="line2d_12">
      <g>
       <use style="stroke:#000000;stroke-width:0.8;" x="58.628" xlink:href="#m157e7f6dff" y="98.652"/>
      </g>
     </g>
     <g id="text_13">
      <!-- 0.8 -->
      <g transform="translate(35.724875 102.451219)scale(0.1 -0.1)">
       <use xlink:href="#DejaVuSans-48"/>
       <use x="63.623047" xlink:href="#DejaVuSans-46"/>
       <use x="95.410156" xlink:href="#DejaVuSans-56"/>
      </g>
     </g>
    </g>
    <g id="ytick_7">
     <g id="line2d_13">
      <g>
       <use style="stroke:#000000;stroke-width:0.8;" x="58.628" xlink:href="#m157e7f6dff" y="59.606667"/>
      </g>
     </g>
     <g id="text_14">
      <!-- 1.0 -->
      <g transform="translate(35.724875 63.405885)scale(0.1 -0.1)">
       <use xlink:href="#DejaVuSans-49"/>
       <use x="63.623047" xlink:href="#DejaVuSans-46"/>
       <use x="95.410156" xlink:href="#DejaVuSans-48"/>
      </g>
     </g>
    </g>
    <g id="ytick_8">
     <g id="line2d_14">
      <g>
       <use style="stroke:#000000;stroke-width:0.8;" x="58.628" xlink:href="#m157e7f6dff" y="20.561333"/>
      </g>
     </g>
     <g id="text_15">
      <!-- 1.2 -->
      <g transform="translate(35.724875 24.360552)scale(0.1 -0.1)">
       <use xlink:href="#DejaVuSans-49"/>
       <use x="63.623047" xlink:href="#DejaVuSans-46"/>
       <use x="95.410156" xlink:href="#DejaVuSans-50"/>
      </g>
     </g>
    </g>
    <g id="text_16">
     <!-- $f(x)$ and $f_h(x)$ -->
     <g transform="translate(21.2655 189.42)rotate(-90)scale(0.1 -0.1)">
      <defs>
       <path d="M 47.796875 75.984375 
L 46.390625 68.5 
L 37.796875 68.5 
Q 32.90625 68.5 30.6875 66.578125 
Q 28.46875 64.65625 27.390625 59.515625 
L 26.421875 54.6875 
L 41.21875 54.6875 
L 39.890625 47.703125 
L 25.09375 47.703125 
L 15.828125 0 
L 6.78125 0 
L 16.109375 47.703125 
L 7.515625 47.703125 
L 8.796875 54.6875 
L 17.390625 54.6875 
L 18.109375 58.5 
Q 19.96875 68.171875 24.625 72.078125 
Q 29.296875 75.984375 39.3125 75.984375 
z
" id="DejaVuSans-Oblique-102"/>
       <path d="M 31 75.875 
Q 24.46875 64.65625 21.28125 53.65625 
Q 18.109375 42.671875 18.109375 31.390625 
Q 18.109375 20.125 21.3125 9.0625 
Q 24.515625 -2 31 -13.1875 
L 23.1875 -13.1875 
Q 15.875 -1.703125 12.234375 9.375 
Q 8.59375 20.453125 8.59375 31.390625 
Q 8.59375 42.28125 12.203125 53.3125 
Q 15.828125 64.359375 23.1875 75.875 
z
" id="DejaVuSans-40"/>
       <path d="M 8.015625 75.875 
L 15.828125 75.875 
Q 23.140625 64.359375 26.78125 53.3125 
Q 30.421875 42.28125 30.421875 31.390625 
Q 30.421875 20.453125 26.78125 9.375 
Q 23.140625 -1.703125 15.828125 -13.1875 
L 8.015625 -13.1875 
Q 14.5 -2 17.703125 9.0625 
Q 20.90625 20.125 20.90625 31.390625 
Q 20.90625 42.671875 17.703125 53.65625 
Q 14.5 64.65625 8.015625 75.875 
z
" id="DejaVuSans-41"/>
       <path id="DejaVuSans-32"/>
       <path d="M 34.28125 27.484375 
Q 23.390625 27.484375 19.1875 25 
Q 14.984375 22.515625 14.984375 16.5 
Q 14.984375 11.71875 18.140625 8.90625 
Q 21.296875 6.109375 26.703125 6.109375 
Q 34.1875 6.109375 38.703125 11.40625 
Q 43.21875 16.703125 43.21875 25.484375 
L 43.21875 27.484375 
z
M 52.203125 31.203125 
L 52.203125 0 
L 43.21875 0 
L 43.21875 8.296875 
Q 40.140625 3.328125 35.546875 0.953125 
Q 30.953125 -1.421875 24.3125 -1.421875 
Q 15.921875 -1.421875 10.953125 3.296875 
Q 6 8.015625 6 15.921875 
Q 6 25.140625 12.171875 29.828125 
Q 18.359375 34.515625 30.609375 34.515625 
L 43.21875 34.515625 
L 43.21875 35.40625 
Q 43.21875 41.609375 39.140625 45 
Q 35.0625 48.390625 27.6875 48.390625 
Q 23 48.390625 18.546875 47.265625 
Q 14.109375 46.140625 10.015625 43.890625 
L 10.015625 52.203125 
Q 14.9375 54.109375 19.578125 55.046875 
Q 24.21875 56 28.609375 56 
Q 40.484375 56 46.34375 49.84375 
Q 52.203125 43.703125 52.203125 31.203125 
z
" id="DejaVuSans-97"/>
       <path d="M 54.890625 33.015625 
L 54.890625 0 
L 45.90625 0 
L 45.90625 32.71875 
Q 45.90625 40.484375 42.875 44.328125 
Q 39.84375 48.1875 33.796875 48.1875 
Q 26.515625 48.1875 22.3125 43.546875 
Q 18.109375 38.921875 18.109375 30.90625 
L 18.109375 0 
L 9.078125 0 
L 9.078125 54.6875 
L 18.109375 54.6875 
L 18.109375 46.1875 
Q 21.34375 51.125 25.703125 53.5625 
Q 30.078125 56 35.796875 56 
Q 45.21875 56 50.046875 50.171875 
Q 54.890625 44.34375 54.890625 33.015625 
z
" id="DejaVuSans-110"/>
       <path d="M 45.40625 46.390625 
L 45.40625 75.984375 
L 54.390625 75.984375 
L 54.390625 0 
L 45.40625 0 
L 45.40625 8.203125 
Q 42.578125 3.328125 38.25 0.953125 
Q 33.9375 -1.421875 27.875 -1.421875 
Q 17.96875 -1.421875 11.734375 6.484375 
Q 5.515625 14.40625 5.515625 27.296875 
Q 5.515625 40.1875 11.734375 48.09375 
Q 17.96875 56 27.875 56 
Q 33.9375 56 38.25 53.625 
Q 42.578125 51.265625 45.40625 46.390625 
z
M 14.796875 27.296875 
Q 14.796875 17.390625 18.875 11.75 
Q 22.953125 6.109375 30.078125 6.109375 
Q 37.203125 6.109375 41.296875 11.75 
Q 45.40625 17.390625 45.40625 27.296875 
Q 45.40625 37.203125 41.296875 42.84375 
Q 37.203125 48.484375 30.078125 48.484375 
Q 22.953125 48.484375 18.875 42.84375 
Q 14.796875 37.203125 14.796875 27.296875 
z
" id="DejaVuSans-100"/>
       <path d="M 55.71875 33.015625 
L 49.3125 0 
L 40.28125 0 
L 46.6875 32.671875 
Q 47.125 34.96875 47.359375 36.71875 
Q 47.609375 38.484375 47.609375 39.5 
Q 47.609375 43.609375 45.015625 45.890625 
Q 42.4375 48.1875 37.796875 48.1875 
Q 30.5625 48.1875 25.265625 43.296875 
Q 19.96875 38.421875 18.40625 30.328125 
L 12.5 0 
L 3.515625 0 
L 18.3125 75.984375 
L 27.296875 75.984375 
L 21.484375 46.09375 
Q 24.90625 50.6875 30.21875 53.34375 
Q 35.546875 56 41.40625 56 
Q 48.640625 56 52.609375 52.09375 
Q 56.59375 48.1875 56.59375 41.109375 
Q 56.59375 39.359375 56.375 37.359375 
Q 56.15625 35.359375 55.71875 33.015625 
z
" id="DejaVuSans-Oblique-104"/>
      </defs>
      <use transform="translate(0 0.015625)" xlink:href="#DejaVuSans-Oblique-102"/>
      <use transform="translate(35.205078 0.015625)" xlink:href="#DejaVuSans-40"/>
      <use transform="translate(74.21875 0.015625)" xlink:href="#DejaVuSans-Oblique-120"/>
      <use transform="translate(133.398438 0.015625)" xlink:href="#DejaVuSans-41"/>
      <use transform="translate(172.412109 0.015625)" xlink:href="#DejaVuSans-32"/>
      <use transform="translate(204.199219 0.015625)" xlink:href="#DejaVuSans-97"/>
      <use transform="translate(265.478516 0.015625)" xlink:href="#DejaVuSans-110"/>
      <use transform="translate(328.857422 0.015625)" xlink:href="#DejaVuSans-100"/>
      <use transform="translate(392.333984 0.015625)" xlink:href="#DejaVuSans-32"/>
      <use transform="translate(424.121094 0.015625)" xlink:href="#DejaVuSans-Oblique-102"/>
      <use transform="translate(459.326172 -16.390625)scale(0.7)" xlink:href="#DejaVuSans-Oblique-104"/>
      <use transform="translate(506.425781 0.015625)" xlink:href="#DejaVuSans-40"/>
      <use transform="translate(545.439453 0.015625)" xlink:href="#DejaVuSans-Oblique-120"/>
      <use transform="translate(604.619141 0.015625)" xlink:href="#DejaVuSans-41"/>
     </g>
    </g>
   </g>
   <g id="line2d_15">
    <path clip-path="url(#p633654dd42)" d="M 58.628 254.833333 
L 192.820201 254.833333 
L 192.931389 59.606667 
L 307.842416 59.606667 
L 307.953604 254.833333 
L 442.035 254.833333 
L 442.035 254.833333 
" style="fill:none;stroke:#1f77b4;stroke-linecap:square;stroke-width:2;"/>
   </g>
   <g id="line2d_16">
    <path clip-path="url(#p633654dd42)" d="M 58.628 255.157339 
L 65.735989 254.788158 
L 72.838228 254.641725 
L 79.938166 254.717589 
L 87.039637 255.015755 
L 94.14571 255.53664 
L 97.300002 255.705769 
L 100.542862 254.858784 
L 103.757733 254.247904 
L 106.9519 253.866564 
L 110.132647 253.710291 
L 113.308027 253.776709 
L 116.485708 254.065657 
L 119.673357 254.579123 
L 122.878642 255.321254 
L 126.10885 256.298249 
L 129.371263 257.518417 
L 132.672401 258.991853 
L 135.398811 260.184774 
L 137.269072 257.142293 
L 139.042331 254.670587 
L 140.722806 252.699191 
L 142.31663 251.163017 
L 143.831473 250.003972 
L 145.277302 249.171345 
L 146.66677 248.622987 
L 148.014831 248.326855 
L 149.33912 248.262152 
L 150.658041 248.420544 
L 151.989998 248.806192 
L 153.352628 249.435413 
L 154.760883 250.335121 
L 156.227417 251.541543 
L 157.762963 253.099394 
L 159.375575 255.059931 
L 161.071769 257.480821 
L 162.85653 260.425227 
L 164.734076 263.96222 
L 166.707091 268.164667 
L 168.778257 273.111571 
L 170.949493 278.886262 
L 173.222332 285.576803 
L 173.650215 286.909088 
L 173.687789 286.656526 
L 193.6798 151.518952 
L 211.990953 26.419794 
L 212.127063 26.889658 
L 214.427507 34.409214 
L 216.619064 40.832004 
L 218.702883 46.268599 
L 220.680115 50.822846 
L 222.552677 54.593494 
L 224.323252 57.673355 
L 225.994525 60.147598 
L 227.571096 62.096303 
L 229.0591 63.592368 
L 230.466205 64.700531 
L 231.802763 65.477171 
L 233.082577 65.968851 
L 234.322133 66.210054 
L 235.540218 66.221795 
L 236.757537 66.010425 
L 237.993642 65.56757 
L 239.266555 64.871183 
L 240.591611 63.88721 
L 241.981079 62.571565 
L 243.444928 60.871165 
L 244.990443 58.725894 
L 246.623759 56.068027 
L 248.349092 52.824337 
L 250.16951 48.916136 
L 250.331692 48.544641 
L 250.39227 48.684193 
L 252.316208 52.82896 
L 254.136627 56.237757 
L 255.856209 58.999636 
L 257.478789 61.197619 
L 259.009734 62.908152 
L 260.455564 64.199696 
L 261.825478 65.133145 
L 263.131364 65.760005 
L 264.388557 66.121 
L 265.614693 66.243935 
L 266.829711 66.142548 
L 268.053931 65.81567 
L 269.306523 65.247745 
L 270.603974 64.410498 
L 271.960086 63.264591 
L 273.385978 61.761199 
L 274.890468 59.84316 
L 276.479692 57.4471 
L 278.159016 54.502128 
L 279.932275 50.931694 
L 281.802153 46.654071 
L 283.771333 41.580369 
L 285.84135 35.617641 
L 288.013736 28.666479 
L 288.672047 26.419794 
L 288.713455 26.702536 
L 308.914806 164.641705 
L 327.012785 286.909088 
L 327.027354 286.864435 
L 329.42135 279.709293 
L 331.707608 273.560105 
L 333.887279 268.319802 
L 335.961897 263.896216 
L 337.933377 260.202412 
L 339.804022 257.156939 
L 341.577665 254.682539 
L 343.258523 252.70873 
L 344.852731 251.170403 
L 346.367957 250.009443 
L 347.814169 249.175118 
L 349.204021 248.625258 
L 350.552465 248.327797 
L 351.876754 248.261903 
L 353.195675 248.419111 
L 354.527632 248.803561 
L 355.889879 249.431347 
L 357.297751 250.329442 
L 358.763901 251.534052 
L 360.299064 253.089871 
L 361.911292 255.048137 
L 363.607103 257.466499 
L 365.54561 260.237983 
L 368.928414 258.548842 
L 372.260991 257.131414 
L 375.549859 255.972571 
L 378.801537 255.061215 
L 382.02331 254.388083 
L 385.222077 253.946096 
L 388.405892 253.730122 
L 391.582039 253.737285 
L 394.758569 253.966837 
L 397.942768 254.420151 
L 401.142686 255.100837 
L 404.228732 255.751783 
L 411.346306 255.15843 
L 418.454679 254.78873 
L 425.556917 254.641804 
L 432.656855 254.717174 
L 439.758327 255.014847 
L 442.035 255.157339 
L 442.035 255.157339 
" style="fill:none;stroke:#ff7f0e;stroke-dasharray:1.5,2.475;stroke-dashoffset:0;stroke-width:1.5;"/>
   </g>
   <g id="line2d_17">
    <path clip-path="url(#p633654dd42)" d="M 58.628 254.8333 
L 135.172217 254.723542 
L 136.322056 254.803115 
L 139.998166 254.963646 
L 143.669675 254.901582 
L 147.343101 254.617057 
L 150.970518 254.337924 
L 152.577378 255.012872 
L 154.140914 255.431443 
L 155.67531 255.613816 
L 157.196671 255.571265 
L 158.721098 255.305534 
L 160.264696 254.808912 
L 161.841651 254.065111 
L 163.465381 253.049537 
L 165.147006 251.730679 
L 165.982067 250.975214 
L 166.027693 251.11516 
L 167.156828 254.207064 
L 168.176308 256.385263 
L 169.089968 257.842738 
L 169.904325 258.747713 
L 170.632032 259.242134 
L 171.294943 259.434367 
L 171.926415 259.388579 
L 172.565939 259.114576 
L 173.247254 258.57065 
L 173.994131 257.675657 
L 174.821908 256.31869 
L 175.739402 254.366216 
L 176.752364 251.662949 
L 177.864629 248.032694 
L 179.078497 243.280072 
L 180.395501 237.190193 
L 181.317979 232.346072 
L 181.349035 232.989337 
L 182.388069 252.351497 
L 183.309397 265.636773 
L 184.112252 274.237323 
L 184.795868 279.3756 
L 185.35871 282.09765 
L 185.799628 283.278442 
L 186.120924 283.612317 
L 186.354802 283.576171 
L 186.603633 283.279453 
L 186.924929 282.502463 
L 187.335942 280.861341 
L 187.84319 277.834455 
L 188.450123 272.758713 
L 189.159044 264.824332 
L 189.971101 253.079936 
L 190.887061 236.429593 
L 191.908075 213.617285 
L 193.034526 183.247983 
L 194.26718 143.762861 
L 195.606422 93.457523 
L 196.654658 48.708649 
L 196.813389 49.129052 
L 198.330532 52.80218 
L 199.741087 55.656775 
L 201.048507 57.820366 
L 202.257007 59.407609 
L 203.373872 60.52202 
L 204.409456 61.252805 
L 205.379093 61.67317 
L 206.303872 61.836319 
L 207.209096 61.771191 
L 208.122373 61.480083 
L 209.068622 60.939656 
L 210.068165 60.104832 
L 211.136338 58.912928 
L 212.152751 57.810146 
L 214.439776 58.719205 
L 216.685393 59.374591 
L 218.899571 59.790666 
L 221.093045 59.977534 
L 223.277317 59.940768 
L 225.463122 59.681362 
L 228.113234 59.344496 
L 233.317989 59.615253 
L 238.516993 59.663258 
L 251.051731 59.622077 
L 270.594005 59.47237 
L 273.805042 59.399429 
L 276.018069 59.804541 
L 278.210776 59.980792 
L 280.394665 59.933582 
L 282.580854 59.663669 
L 284.780845 59.167166 
L 287.004991 58.435889 
L 288.770582 57.882075 
L 289.976015 59.452071 
L 291.089814 60.552137 
L 292.123096 61.271581 
L 293.090817 61.682569 
L 294.014445 61.837742 
L 294.91967 61.765138 
L 295.833713 61.466141 
L 296.781496 60.916616 
L 297.78334 60.070658 
L 298.854197 58.865188 
L 300.004802 57.223043 
L 301.243208 55.054055 
L 302.574398 52.258318 
L 304.002207 48.725023 
L 304.008342 48.708649 
L 304.01486 48.994964 
L 305.538521 112.448907 
L 306.946776 162.218986 
L 308.239242 200.391604 
L 309.415536 228.889102 
L 310.474891 249.461281 
L 311.416923 263.701285 
L 312.240482 273.02396 
L 312.944801 278.68304 
L 313.528731 281.757368 
L 313.990737 283.150769 
L 314.331969 283.590584 
L 314.575049 283.598494 
L 314.815062 283.356998 
L 315.121788 282.687799 
L 315.516315 281.232178 
L 316.006309 278.492424 
L 316.595606 273.829888 
L 317.286506 266.461685 
L 318.08016 255.464309 
L 318.977716 239.763349 
L 319.345021 232.346072 
L 319.44279 232.882057 
L 320.926193 240.357455 
L 322.296107 246.166288 
L 323.5533 250.572209 
L 324.698921 253.816226 
L 325.734505 256.116072 
L 326.663117 257.667554 
L 327.491277 258.643764 
L 328.230487 259.190653 
L 328.901066 259.422017 
L 329.534839 259.409176 
L 330.170912 259.170088 
L 330.844558 258.669794 
L 331.581084 257.831936 
L 332.396208 256.550463 
L 333.300283 254.693874 
L 334.299059 252.11057 
L 334.681316 250.975144 
L 334.780235 251.068181 
L 336.560012 252.581462 
L 338.266175 253.746378 
L 339.908692 254.603557 
L 341.499066 255.186482 
L 343.050716 255.52096 
L 344.578978 255.624235 
L 346.099571 255.504234 
L 347.628983 255.159404 
L 349.18255 254.578993 
L 350.272194 254.21213 
L 353.966324 254.683257 
L 357.646268 254.928868 
L 361.318544 254.951387 
L 364.990437 254.751592 
L 366.366869 254.746496 
L 375.231248 254.856618 
L 442.035 254.8333 
L 442.035 254.8333 
" style="fill:none;stroke:#2ca02c;stroke-dasharray:1.5,2.475;stroke-dashoffset:0;stroke-width:1.5;"/>
   </g>
   <g id="line2d_18">
    <path clip-path="url(#p633654dd42)" d="M 58.628 254.833333 
L 165.284266 254.944442 
L 166.352822 254.906251 
L 167.904855 254.671071 
L 169.440402 254.662511 
L 170.975182 254.876713 
L 172.525298 255.319107 
L 173.746067 255.63948 
L 174.591097 254.600555 
L 175.345642 254.005417 
L 176.028491 253.737258 
L 176.669932 253.719401 
L 177.308305 253.926729 
L 177.980035 254.387358 
L 178.711192 255.171349 
L 179.519415 256.380765 
L 180.415055 258.141447 
L 181.317979 260.363885 
L 181.363221 259.970611 
L 182.141155 254.184907 
L 182.799849 250.805633 
L 183.338536 249.077818 
L 183.758367 248.377448 
L 184.070844 248.223634 
L 184.333862 248.337235 
L 184.635603 248.741216 
L 185.014793 249.663522 
L 185.485618 251.451382 
L 186.053444 254.554675 
L 186.721723 259.533496 
L 187.492372 267.055731 
L 188.366541 277.897383 
L 188.986127 287.06787 
L 189.031369 285.548184 
L 196.654658 27.370313 
L 196.730189 28.554267 
L 197.768456 42.972094 
L 198.689401 52.863255 
L 199.492256 59.263675 
L 200.175871 63.081686 
L 200.739864 65.101658 
L 201.184233 65.973637 
L 201.51703 66.211345 
L 201.782348 66.146021 
L 202.071054 65.818083 
L 202.432224 65.030917 
L 202.882728 63.461851 
L 203.42985 60.679761 
L 204.076658 56.150665 
L 204.322806 54.075804 
L 204.41559 54.324898 
L 205.486064 56.855658 
L 206.4488 58.592395 
L 207.309166 59.712298 
L 208.076747 60.367143 
L 208.768798 60.679236 
L 209.414456 60.732441 
L 210.050912 60.56006 
L 210.715357 60.141946 
L 211.436163 59.413259 
L 212.14585 58.728617 
L 213.75156 59.329874 
L 215.317779 59.681501 
L 216.85946 59.801121 
L 218.392706 59.697218 
L 220.541705 59.507952 
L 224.246954 59.639164 
L 239.07255 59.607483 
L 280.048064 59.512702 
L 281.391907 59.537555 
L 282.94394 59.770243 
L 284.479487 59.776337 
L 286.014267 59.55967 
L 287.564766 59.11465 
L 288.767132 58.799006 
L 289.612545 59.838795 
L 290.367091 60.434204 
L 291.049939 60.702609 
L 291.69138 60.720696 
L 292.329753 60.513597 
L 293.001099 60.053543 
L 293.732257 59.269969 
L 294.540097 58.061673 
L 295.435353 56.30254 
L 296.340194 54.075804 
L 296.385436 54.470388 
L 297.16337 60.255804 
L 297.822064 63.634836 
L 298.360751 65.362451 
L 298.780582 66.062666 
L 299.092676 66.216369 
L 299.355693 66.102994 
L 299.657435 65.699273 
L 300.036625 64.777294 
L 300.507066 62.991585 
L 301.074892 59.889481 
L 301.743171 54.912059 
L 302.51382 47.391437 
L 303.387989 36.551615 
L 304.008342 27.370313 
L 304.053584 28.895711 
L 311.676873 287.06787 
L 311.752404 285.883944 
L 312.790671 271.466501 
L 313.711616 261.57568 
L 314.514471 255.175556 
L 315.198086 251.357798 
L 315.762079 249.338034 
L 316.206448 248.46622 
L 316.539245 248.228635 
L 316.80418 248.293799 
L 317.092886 248.621488 
L 317.454056 249.408343 
L 317.904559 250.97702 
L 318.451682 253.758639 
L 319.09849 258.287177 
L 319.345021 260.363885 
L 319.437422 260.115816 
L 320.507895 257.584898 
L 321.470631 255.848018 
L 322.330997 254.727987 
L 323.098579 254.073029 
L 323.790629 253.760834 
L 324.436287 253.707534 
L 325.072744 253.87982 
L 325.737189 254.297836 
L 326.457994 255.026416 
L 327.168065 255.711332 
L 328.773775 255.110092 
L 330.339994 254.758482 
L 331.881675 254.638878 
L 333.414921 254.742798 
L 335.563536 254.932066 
L 339.268785 254.800837 
L 354.080579 254.832525 
L 442.035 254.833333 
L 442.035 254.833333 
" style="fill:none;stroke:#d62728;stroke-dasharray:1.5,2.475;stroke-dashoffset:0;stroke-width:1.5;"/>
   </g>
   <g id="line2d_19">
    <path clip-path="url(#p633654dd42)" d="M 58.628 254.833333 
L 180.328405 254.722315 
L 181.436069 254.517866 
L 182.019231 255.162517 
L 182.51421 255.404154 
L 182.959346 255.381869 
L 183.40985 255.128306 
L 183.910963 254.573239 
L 184.487992 253.577904 
L 185.152053 251.960588 
L 185.197679 252.369268 
L 185.742884 256.214727 
L 186.163865 257.82672 
L 186.459472 258.251782 
L 186.650409 258.216338 
L 186.858216 257.901258 
L 187.142321 257.004144 
L 187.517293 254.995423 
L 187.989268 251.133169 
L 188.560928 244.464338 
L 188.986127 238.089686 
L 189.01795 239.754428 
L 189.564305 262.49572 
L 189.985287 272.098233 
L 190.274759 274.701223 
L 190.368694 274.845438 
L 190.416236 274.787611 
L 190.532409 274.276402 
L 190.728714 272.21956 
L 191.014735 266.539565 
L 191.395842 254.026443 
L 191.875485 230.248455 
L 192.45558 189.534297 
L 194.040203 69.474278 
L 194.565088 49.525648 
L 194.963831 41.534011 
L 195.229149 39.643176 
L 195.292795 39.596801 
L 195.341104 39.66679 
L 195.463028 40.247102 
L 195.66585 42.493492 
L 195.959157 48.572237 
L 196.347932 61.786983 
L 196.654658 76.352202 
L 196.76623 74.562651 
L 197.489336 64.978435 
L 198.091285 59.661649 
L 198.570545 57.157667 
L 198.92443 56.292578 
L 199.156008 56.178897 
L 199.34196 56.346695 
L 199.588491 56.924942 
L 199.921289 58.348889 
L 200.348405 61.259467 
L 200.488732 62.479735 
L 200.578066 62.232757 
L 201.327244 60.521186 
L 201.966767 59.568597 
L 202.506988 59.128806 
L 202.973212 59.017902 
L 203.413747 59.141809 
L 203.882654 59.517846 
L 204.500323 60.016939 
L 205.613738 59.639635 
L 206.691113 59.506397 
L 207.754685 59.598541 
L 208.641506 59.655029 
L 211.21187 59.595309 
L 217.306513 59.60663 
L 291.871198 59.645407 
L 292.910999 59.598029 
L 293.984156 59.506631 
L 295.047728 59.639284 
L 296.125103 60.000236 
L 296.40384 60.002021 
L 296.995438 59.314099 
L 297.496934 59.044797 
L 297.944371 59.047613 
L 298.392191 59.279966 
L 298.887936 59.804995 
L 299.458063 60.756712 
L 300.116374 62.318634 
L 300.174268 62.479735 
L 300.201873 62.230665 
L 300.750529 58.301624 
L 301.175345 56.639404 
L 301.474403 56.191626 
L 301.667256 56.219432 
L 301.873146 56.523071 
L 302.154951 57.397274 
L 302.527239 59.364753 
L 302.996146 63.159073 
L 303.56474 69.728542 
L 304.008342 76.352202 
L 304.040932 74.639511 
L 304.587287 51.91696 
L 305.007885 42.334483 
L 305.296974 39.738391 
L 305.390909 39.594596 
L 305.438452 39.652636 
L 305.555007 40.166922 
L 305.751695 42.233061 
L 306.038101 47.93263 
L 306.419591 60.479961 
L 306.899617 84.31132 
L 307.480096 125.102598 
L 309.058201 244.767598 
L 309.583852 264.821414 
L 309.983363 272.874298 
L 310.249831 274.793995 
L 310.314627 274.843334 
L 310.363319 274.772935 
L 310.485243 274.192077 
L 310.688065 271.944781 
L 310.981372 265.864723 
L 311.370147 252.648237 
L 311.676873 238.089686 
L 311.788445 239.879151 
L 312.511551 249.462812 
L 313.113501 254.779136 
L 313.59276 257.28275 
L 313.946645 258.147567 
L 314.178223 258.261071 
L 314.364175 258.09313 
L 314.610706 257.514693 
L 314.943504 256.090491 
L 315.37062 253.179585 
L 315.510947 251.960588 
L 315.600281 252.207555 
L 316.349459 253.919027 
L 316.988982 254.871532 
L 317.529203 255.311252 
L 317.995427 255.422095 
L 318.435962 255.29813 
L 318.904869 254.922031 
L 319.522538 254.423112 
L 320.635953 254.800391 
L 321.713328 254.933605 
L 322.7769 254.841437 
L 323.663721 254.784979 
L 326.234085 254.844689 
L 332.327195 254.833368 
L 442.035 254.833333 
L 442.035 254.833333 
" style="fill:none;stroke:#9467bd;stroke-dasharray:1.5,2.475;stroke-dashoffset:0;stroke-width:1.5;"/>
   </g>
   <g id="line2d_20">
    <path clip-path="url(#p633654dd42)" d="M 58.628 254.833333 
L 186.574495 254.722276 
L 187.069473 254.340728 
L 187.131969 254.528512 
L 187.515376 255.289039 
L 187.784145 255.420749 
L 188.005371 255.280913 
L 188.27644 254.803967 
L 188.630325 253.674822 
L 188.986127 251.96129 
L 189.02025 252.566093 
L 189.401741 257.279195 
L 189.648655 258.258624 
L 189.729937 258.224973 
L 189.748724 258.192102 
L 189.885217 257.67038 
L 190.103759 255.799388 
L 190.413553 250.96249 
L 190.819198 240.755334 
L 190.903164 238.093776 
L 190.928852 240.755838 
L 191.31226 268.809742 
L 191.561091 274.777761 
L 191.592147 274.846395 
L 191.64314 274.633596 
L 191.751644 272.834443 
L 191.941048 265.304249 
L 192.220168 244.033351 
L 192.594374 196.496839 
L 193.616155 54.241628 
L 193.926714 40.777398 
L 194.050555 39.593486 
L 194.092346 39.732466 
L 194.190115 41.119105 
L 194.366866 47.400726 
L 194.632184 65.954588 
L 194.737621 76.349999 
L 194.826572 73.536093 
L 195.329986 61.591189 
L 195.706492 57.079563 
L 195.948422 56.177608 
L 196.043123 56.250064 
L 196.044657 56.253207 
L 196.183067 56.795435 
L 196.40391 58.719582 
L 196.654658 62.479358 
L 196.780032 61.809333 
L 197.279995 59.85342 
L 197.657652 59.135016 
L 197.921819 59.020783 
L 198.143812 59.171946 
L 198.418332 59.671023 
L 198.571695 60.099541 
L 198.674448 60.004411 
L 199.28905 59.608642 
L 199.841157 59.506215 
L 200.372943 59.634037 
L 200.699989 59.659219 
L 201.989772 59.594295 
L 205.349954 59.606237 
L 299.824601 59.641508 
L 300.382458 59.595875 
L 300.932265 59.507537 
L 301.464434 59.648275 
L 302.023825 60.036132 
L 302.091305 60.099541 
L 302.129646 59.982744 
L 302.519571 59.17149 
L 302.794091 59.018065 
L 303.01455 59.144756 
L 303.281785 59.596794 
L 303.631069 60.680775 
L 304.008342 62.479358 
L 304.043999 61.84518 
L 304.424722 57.154411 
L 304.671253 56.181045 
L 304.753303 56.216945 
L 304.770939 56.248129 
L 304.907432 56.770269 
L 305.125974 58.641933 
L 305.435768 63.479781 
L 305.841413 73.688183 
L 305.925379 76.349999 
L 305.951067 73.672316 
L 306.334475 45.625274 
L 306.583306 39.661708 
L 306.614362 39.593629 
L 306.664972 39.804225 
L 306.773093 41.58928 
L 306.962112 49.079424 
L 307.24085 70.267893 
L 307.614288 117.60229 
L 308.64182 260.438121 
L 308.950847 273.701284 
L 309.072387 274.846528 
L 309.114945 274.704236 
L 309.213097 273.30162 
L 309.390231 266.976786 
L 309.656316 248.301044 
L 309.759836 238.093776 
L 309.848403 240.895734 
L 310.351817 252.844245 
L 310.728323 257.358569 
L 310.970253 258.262258 
L 311.063805 258.192788 
L 311.066872 258.186555 
L 311.205282 257.643902 
L 311.426125 255.719077 
L 311.676873 251.96129 
L 311.802247 252.631249 
L 312.30221 254.586898 
L 312.679867 255.305103 
L 312.944034 255.419197 
L 313.166027 255.267917 
L 313.440547 254.768696 
L 313.59391 254.34057 
L 313.69628 254.435351 
L 314.310882 254.83125 
L 314.862988 254.933793 
L 315.394774 254.806084 
L 315.721821 254.780744 
L 317.011603 254.845714 
L 320.37562 254.833765 
L 442.035 254.833333 
L 442.035 254.833333 
" style="fill:none;stroke:#8c564b;stroke-dasharray:1.5,2.475;stroke-dashoffset:0;stroke-width:1.5;"/>
   </g>
   <g id="patch_3">
    <path d="M 58.628 303.64 
L 58.628 10.8 
" style="fill:none;stroke:#000000;stroke-linecap:square;stroke-linejoin:miter;stroke-width:0.8;"/>
   </g>
   <g id="patch_4">
    <path d="M 442.035 303.64 
L 442.035 10.8 
" style="fill:none;stroke:#000000;stroke-linecap:square;stroke-linejoin:miter;stroke-width:0.8;"/>
   </g>
   <g id="patch_5">
    <path d="M 58.628 303.64 
L 442.035 303.64 
" style="fill:none;stroke:#000000;stroke-linecap:square;stroke-linejoin:miter;stroke-width:0.8;"/>
   </g>
   <g id="patch_6">
    <path d="M 58.628 10.8 
L 442.035 10.8 
" style="fill:none;stroke:#000000;stroke-linecap:square;stroke-linejoin:miter;stroke-width:0.8;"/>
   </g>
   <g id="legend_1">
    <g id="patch_7">
     <path d="M 334.324062 106.86875 
L 435.035 106.86875 
Q 437.035 106.86875 437.035 104.86875 
L 437.035 17.8 
Q 437.035 15.8 435.035 15.8 
L 334.324062 15.8 
Q 332.324062 15.8 332.324062 17.8 
L 332.324062 104.86875 
Q 332.324062 106.86875 334.324062 106.86875 
z
" style="fill:#ffffff;opacity:0.8;stroke:#cccccc;stroke-linejoin:miter;"/>
    </g>
    <g id="line2d_21">
     <path d="M 336.324062 23.898438 
L 356.324062 23.898438 
" style="fill:none;stroke:#1f77b4;stroke-linecap:square;stroke-width:2;"/>
    </g>
    <g id="line2d_22"/>
    <g id="text_17">
     <!-- Exact -->
     <g transform="translate(364.324062 27.398438)scale(0.1 -0.1)">
      <defs>
       <path d="M 9.8125 72.90625 
L 55.90625 72.90625 
L 55.90625 64.59375 
L 19.671875 64.59375 
L 19.671875 43.015625 
L 54.390625 43.015625 
L 54.390625 34.71875 
L 19.671875 34.71875 
L 19.671875 8.296875 
L 56.78125 8.296875 
L 56.78125 0 
L 9.8125 0 
z
" id="DejaVuSans-69"/>
       <path d="M 54.890625 54.6875 
L 35.109375 28.078125 
L 55.90625 0 
L 45.3125 0 
L 29.390625 21.484375 
L 13.484375 0 
L 2.875 0 
L 24.125 28.609375 
L 4.6875 54.6875 
L 15.28125 54.6875 
L 29.78125 35.203125 
L 44.28125 54.6875 
z
" id="DejaVuSans-120"/>
       <path d="M 48.78125 52.59375 
L 48.78125 44.1875 
Q 44.96875 46.296875 41.140625 47.34375 
Q 37.3125 48.390625 33.40625 48.390625 
Q 24.65625 48.390625 19.8125 42.84375 
Q 14.984375 37.3125 14.984375 27.296875 
Q 14.984375 17.28125 19.8125 11.734375 
Q 24.65625 6.203125 33.40625 6.203125 
Q 37.3125 6.203125 41.140625 7.25 
Q 44.96875 8.296875 48.78125 10.40625 
L 48.78125 2.09375 
Q 45.015625 0.34375 40.984375 -0.53125 
Q 36.96875 -1.421875 32.421875 -1.421875 
Q 20.0625 -1.421875 12.78125 6.34375 
Q 5.515625 14.109375 5.515625 27.296875 
Q 5.515625 40.671875 12.859375 48.328125 
Q 20.21875 56 33.015625 56 
Q 37.15625 56 41.109375 55.140625 
Q 45.0625 54.296875 48.78125 52.59375 
z
" id="DejaVuSans-99"/>
       <path d="M 18.3125 70.21875 
L 18.3125 54.6875 
L 36.8125 54.6875 
L 36.8125 47.703125 
L 18.3125 47.703125 
L 18.3125 18.015625 
Q 18.3125 11.328125 20.140625 9.421875 
Q 21.96875 7.515625 27.59375 7.515625 
L 36.8125 7.515625 
L 36.8125 0 
L 27.59375 0 
Q 17.1875 0 13.234375 3.875 
Q 9.28125 7.765625 9.28125 18.015625 
L 9.28125 47.703125 
L 2.6875 47.703125 
L 2.6875 54.6875 
L 9.28125 54.6875 
L 9.28125 70.21875 
z
" id="DejaVuSans-116"/>
      </defs>
      <use xlink:href="#DejaVuSans-69"/>
      <use x="63.183594" xlink:href="#DejaVuSans-120"/>
      <use x="122.363281" xlink:href="#DejaVuSans-97"/>
      <use x="183.642578" xlink:href="#DejaVuSans-99"/>
      <use x="238.623047" xlink:href="#DejaVuSans-116"/>
     </g>
    </g>
    <g id="line2d_23">
     <path d="M 336.324062 38.576563 
L 356.324062 38.576563 
" style="fill:none;stroke:#ff7f0e;stroke-dasharray:1.5,2.475;stroke-dashoffset:0;stroke-width:1.5;"/>
    </g>
    <g id="line2d_24"/>
    <g id="text_18">
     <!-- 10 elements -->
     <g transform="translate(364.324062 42.076563)scale(0.1 -0.1)">
      <defs>
       <path d="M 56.203125 29.59375 
L 56.203125 25.203125 
L 14.890625 25.203125 
Q 15.484375 15.921875 20.484375 11.0625 
Q 25.484375 6.203125 34.421875 6.203125 
Q 39.59375 6.203125 44.453125 7.46875 
Q 49.3125 8.734375 54.109375 11.28125 
L 54.109375 2.78125 
Q 49.265625 0.734375 44.1875 -0.34375 
Q 39.109375 -1.421875 33.890625 -1.421875 
Q 20.796875 -1.421875 13.15625 6.1875 
Q 5.515625 13.8125 5.515625 26.8125 
Q 5.515625 40.234375 12.765625 48.109375 
Q 20.015625 56 32.328125 56 
Q 43.359375 56 49.78125 48.890625 
Q 56.203125 41.796875 56.203125 29.59375 
z
M 47.21875 32.234375 
Q 47.125 39.59375 43.09375 43.984375 
Q 39.0625 48.390625 32.421875 48.390625 
Q 24.90625 48.390625 20.390625 44.140625 
Q 15.875 39.890625 15.1875 32.171875 
z
" id="DejaVuSans-101"/>
       <path d="M 9.421875 75.984375 
L 18.40625 75.984375 
L 18.40625 0 
L 9.421875 0 
z
" id="DejaVuSans-108"/>
       <path d="M 52 44.1875 
Q 55.375 50.25 60.0625 53.125 
Q 64.75 56 71.09375 56 
Q 79.640625 56 84.28125 50.015625 
Q 88.921875 44.046875 88.921875 33.015625 
L 88.921875 0 
L 79.890625 0 
L 79.890625 32.71875 
Q 79.890625 40.578125 77.09375 44.375 
Q 74.3125 48.1875 68.609375 48.1875 
Q 61.625 48.1875 57.5625 43.546875 
Q 53.515625 38.921875 53.515625 30.90625 
L 53.515625 0 
L 44.484375 0 
L 44.484375 32.71875 
Q 44.484375 40.625 41.703125 44.40625 
Q 38.921875 48.1875 33.109375 48.1875 
Q 26.21875 48.1875 22.15625 43.53125 
Q 18.109375 38.875 18.109375 30.90625 
L 18.109375 0 
L 9.078125 0 
L 9.078125 54.6875 
L 18.109375 54.6875 
L 18.109375 46.1875 
Q 21.1875 51.21875 25.484375 53.609375 
Q 29.78125 56 35.6875 56 
Q 41.65625 56 45.828125 52.96875 
Q 50 49.953125 52 44.1875 
z
" id="DejaVuSans-109"/>
       <path d="M 44.28125 53.078125 
L 44.28125 44.578125 
Q 40.484375 46.53125 36.375 47.5 
Q 32.28125 48.484375 27.875 48.484375 
Q 21.1875 48.484375 17.84375 46.4375 
Q 14.5 44.390625 14.5 40.28125 
Q 14.5 37.15625 16.890625 35.375 
Q 19.28125 33.59375 26.515625 31.984375 
L 29.59375 31.296875 
Q 39.15625 29.25 43.1875 25.515625 
Q 47.21875 21.78125 47.21875 15.09375 
Q 47.21875 7.46875 41.1875 3.015625 
Q 35.15625 -1.421875 24.609375 -1.421875 
Q 20.21875 -1.421875 15.453125 -0.5625 
Q 10.6875 0.296875 5.421875 2 
L 5.421875 11.28125 
Q 10.40625 8.6875 15.234375 7.390625 
Q 20.0625 6.109375 24.8125 6.109375 
Q 31.15625 6.109375 34.5625 8.28125 
Q 37.984375 10.453125 37.984375 14.40625 
Q 37.984375 18.0625 35.515625 20.015625 
Q 33.0625 21.96875 24.703125 23.78125 
L 21.578125 24.515625 
Q 13.234375 26.265625 9.515625 29.90625 
Q 5.8125 33.546875 5.8125 39.890625 
Q 5.8125 47.609375 11.28125 51.796875 
Q 16.75 56 26.8125 56 
Q 31.78125 56 36.171875 55.265625 
Q 40.578125 54.546875 44.28125 53.078125 
z
" id="DejaVuSans-115"/>
      </defs>
      <use xlink:href="#DejaVuSans-49"/>
      <use x="63.623047" xlink:href="#DejaVuSans-48"/>
      <use x="127.246094" xlink:href="#DejaVuSans-32"/>
      <use x="159.033203" xlink:href="#DejaVuSans-101"/>
      <use x="220.556641" xlink:href="#DejaVuSans-108"/>
      <use x="248.339844" xlink:href="#DejaVuSans-101"/>
      <use x="309.863281" xlink:href="#DejaVuSans-109"/>
      <use x="407.275391" xlink:href="#DejaVuSans-101"/>
      <use x="468.798828" xlink:href="#DejaVuSans-110"/>
      <use x="532.177734" xlink:href="#DejaVuSans-116"/>
      <use x="571.386719" xlink:href="#DejaVuSans-115"/>
     </g>
    </g>
    <g id="line2d_25">
     <path d="M 336.324062 53.254688 
L 356.324062 53.254688 
" style="fill:none;stroke:#2ca02c;stroke-dasharray:1.5,2.475;stroke-dashoffset:0;stroke-width:1.5;"/>
    </g>
    <g id="line2d_26"/>
    <g id="text_19">
     <!-- 25 elements -->
     <g transform="translate(364.324062 56.754688)scale(0.1 -0.1)">
      <defs>
       <path d="M 10.796875 72.90625 
L 49.515625 72.90625 
L 49.515625 64.59375 
L 19.828125 64.59375 
L 19.828125 46.734375 
Q 21.96875 47.46875 24.109375 47.828125 
Q 26.265625 48.1875 28.421875 48.1875 
Q 40.625 48.1875 47.75 41.5 
Q 54.890625 34.8125 54.890625 23.390625 
Q 54.890625 11.625 47.5625 5.09375 
Q 40.234375 -1.421875 26.90625 -1.421875 
Q 22.3125 -1.421875 17.546875 -0.640625 
Q 12.796875 0.140625 7.71875 1.703125 
L 7.71875 11.625 
Q 12.109375 9.234375 16.796875 8.0625 
Q 21.484375 6.890625 26.703125 6.890625 
Q 35.15625 6.890625 40.078125 11.328125 
Q 45.015625 15.765625 45.015625 23.390625 
Q 45.015625 31 40.078125 35.4375 
Q 35.15625 39.890625 26.703125 39.890625 
Q 22.75 39.890625 18.8125 39.015625 
Q 14.890625 38.140625 10.796875 36.28125 
z
" id="DejaVuSans-53"/>
      </defs>
      <use xlink:href="#DejaVuSans-50"/>
      <use x="63.623047" xlink:href="#DejaVuSans-53"/>
      <use x="127.246094" xlink:href="#DejaVuSans-32"/>
      <use x="159.033203" xlink:href="#DejaVuSans-101"/>
      <use x="220.556641" xlink:href="#DejaVuSans-108"/>
      <use x="248.339844" xlink:href="#DejaVuSans-101"/>
      <use x="309.863281" xlink:href="#DejaVuSans-109"/>
      <use x="407.275391" xlink:href="#DejaVuSans-101"/>
      <use x="468.798828" xlink:href="#DejaVuSans-110"/>
      <use x="532.177734" xlink:href="#DejaVuSans-116"/>
      <use x="571.386719" xlink:href="#DejaVuSans-115"/>
     </g>
    </g>
    <g id="line2d_27">
     <path d="M 336.324062 67.932813 
L 356.324062 67.932813 
" style="fill:none;stroke:#d62728;stroke-dasharray:1.5,2.475;stroke-dashoffset:0;stroke-width:1.5;"/>
    </g>
    <g id="line2d_28"/>
    <g id="text_20">
     <!-- 50 elements -->
     <g transform="translate(364.324062 71.432813)scale(0.1 -0.1)">
      <use xlink:href="#DejaVuSans-53"/>
      <use x="63.623047" xlink:href="#DejaVuSans-48"/>
      <use x="127.246094" xlink:href="#DejaVuSans-32"/>
      <use x="159.033203" xlink:href="#DejaVuSans-101"/>
      <use x="220.556641" xlink:href="#DejaVuSans-108"/>
      <use x="248.339844" xlink:href="#DejaVuSans-101"/>
      <use x="309.863281" xlink:href="#DejaVuSans-109"/>
      <use x="407.275391" xlink:href="#DejaVuSans-101"/>
      <use x="468.798828" xlink:href="#DejaVuSans-110"/>
      <use x="532.177734" xlink:href="#DejaVuSans-116"/>
      <use x="571.386719" xlink:href="#DejaVuSans-115"/>
     </g>
    </g>
    <g id="line2d_29">
     <path d="M 336.324062 82.610938 
L 356.324062 82.610938 
" style="fill:none;stroke:#9467bd;stroke-dasharray:1.5,2.475;stroke-dashoffset:0;stroke-width:1.5;"/>
    </g>
    <g id="line2d_30"/>
    <g id="text_21">
     <!-- 100 elements -->
     <g transform="translate(364.324062 86.110938)scale(0.1 -0.1)">
      <use xlink:href="#DejaVuSans-49"/>
      <use x="63.623047" xlink:href="#DejaVuSans-48"/>
      <use x="127.246094" xlink:href="#DejaVuSans-48"/>
      <use x="190.869141" xlink:href="#DejaVuSans-32"/>
      <use x="222.65625" xlink:href="#DejaVuSans-101"/>
      <use x="284.179688" xlink:href="#DejaVuSans-108"/>
      <use x="311.962891" xlink:href="#DejaVuSans-101"/>
      <use x="373.486328" xlink:href="#DejaVuSans-109"/>
      <use x="470.898438" xlink:href="#DejaVuSans-101"/>
      <use x="532.421875" xlink:href="#DejaVuSans-110"/>
      <use x="595.800781" xlink:href="#DejaVuSans-116"/>
      <use x="635.009766" xlink:href="#DejaVuSans-115"/>
     </g>
    </g>
    <g id="line2d_31">
     <path d="M 336.324062 97.289063 
L 356.324062 97.289063 
" style="fill:none;stroke:#8c564b;stroke-dasharray:1.5,2.475;stroke-dashoffset:0;stroke-width:1.5;"/>
    </g>
    <g id="line2d_32"/>
    <g id="text_22">
     <!-- 200 elements -->
     <g transform="translate(364.324062 100.789063)scale(0.1 -0.1)">
      <use xlink:href="#DejaVuSans-50"/>
      <use x="63.623047" xlink:href="#DejaVuSans-48"/>
      <use x="127.246094" xlink:href="#DejaVuSans-48"/>
      <use x="190.869141" xlink:href="#DejaVuSans-32"/>
      <use x="222.65625" xlink:href="#DejaVuSans-101"/>
      <use x="284.179688" xlink:href="#DejaVuSans-108"/>
      <use x="311.962891" xlink:href="#DejaVuSans-101"/>
      <use x="373.486328" xlink:href="#DejaVuSans-109"/>
      <use x="470.898438" xlink:href="#DejaVuSans-101"/>
      <use x="532.421875" xlink:href="#DejaVuSans-110"/>
      <use x="595.800781" xlink:href="#DejaVuSans-116"/>
      <use x="635.009766" xlink:href="#DejaVuSans-115"/>
     </g>
    </g>
   </g>
  </g>
 </g>
 <defs>
  <clipPath id="p633654dd42">
   <rect height="292.84" width="383.407" x="58.628" y="10.8"/>
  </clipPath>
 </defs>
</svg>
