<?xml version="1.0" encoding="utf-8" standalone="no"?>
<!DOCTYPE svg PUBLIC "-//W3C//DTD SVG 1.1//EN"
  "http://www.w3.org/Graphics/SVG/1.1/DTD/svg11.dtd">
<!-- Created with matplotlib (https://matplotlib.org/) -->
<svg height="345.6pt" version="1.1" viewBox="0 0 460.8 345.6" width="460.8pt" xmlns="http://www.w3.org/2000/svg" xmlns:xlink="http://www.w3.org/1999/xlink">
 <metadata>
  <rdf:RDF xmlns:cc="http://creativecommons.org/ns#" xmlns:dc="http://purl.org/dc/elements/1.1/" xmlns:rdf="http://www.w3.org/1999/02/22-rdf-syntax-ns#">
   <cc:Work>
    <dc:type rdf:resource="http://purl.org/dc/dcmitype/StillImage"/>
    <dc:date>2021-03-07T21:58:16.242289</dc:date>
    <dc:format>image/svg+xml</dc:format>
    <dc:creator>
     <cc:Agent>
      <dc:title>Matplotlib v3.3.4, https://matplotlib.org/</dc:title>
     </cc:Agent>
    </dc:creator>
   </cc:Work>
  </rdf:RDF>
 </metadata>
 <defs>
  <style type="text/css">*{stroke-linecap:butt;stroke-linejoin:round;}</style>
 </defs>
 <g id="figure_1">
  <g id="patch_1">
   <path d="M 0 345.6 
L 460.8 345.6 
L 460.8 0 
L 0 0 
z
" style="fill:#ffffff;"/>
  </g>
  <g id="axes_1">
   <g id="patch_2">
    <path d="M 50.258 303.64 
L 442.035 303.64 
L 442.035 10.8 
L 50.258 10.8 
z
" style="fill:#ffffff;"/>
   </g>
   <g id="matplotlib.axis_1">
    <g id="xtick_1">
     <g id="line2d_1">
      <defs>
       <path d="M 0 0 
L 0 3.5 
" id="m9d9d639948" style="stroke:#000000;stroke-width:0.8;"/>
      </defs>
      <g>
       <use style="stroke:#000000;stroke-width:0.8;" x="50.258" xlink:href="#m9d9d639948" y="303.64"/>
      </g>
     </g>
     <g id="text_1">
      <!-- 0.0 -->
      <g transform="translate(42.306438 318.238437)scale(0.1 -0.1)">
       <defs>
        <path d="M 31.78125 66.40625 
Q 24.171875 66.40625 20.328125 58.90625 
Q 16.5 51.421875 16.5 36.375 
Q 16.5 21.390625 20.328125 13.890625 
Q 24.171875 6.390625 31.78125 6.390625 
Q 39.453125 6.390625 43.28125 13.890625 
Q 47.125 21.390625 47.125 36.375 
Q 47.125 51.421875 43.28125 58.90625 
Q 39.453125 66.40625 31.78125 66.40625 
z
M 31.78125 74.21875 
Q 44.046875 74.21875 50.515625 64.515625 
Q 56.984375 54.828125 56.984375 36.375 
Q 56.984375 17.96875 50.515625 8.265625 
Q 44.046875 -1.421875 31.78125 -1.421875 
Q 19.53125 -1.421875 13.0625 8.265625 
Q 6.59375 17.96875 6.59375 36.375 
Q 6.59375 54.828125 13.0625 64.515625 
Q 19.53125 74.21875 31.78125 74.21875 
z
" id="DejaVuSans-48"/>
        <path d="M 10.6875 12.40625 
L 21 12.40625 
L 21 0 
L 10.6875 0 
z
" id="DejaVuSans-46"/>
       </defs>
       <use xlink:href="#DejaVuSans-48"/>
       <use x="63.623047" xlink:href="#DejaVuSans-46"/>
       <use x="95.410156" xlink:href="#DejaVuSans-48"/>
      </g>
     </g>
    </g>
    <g id="xtick_2">
     <g id="line2d_2">
      <g>
       <use style="stroke:#000000;stroke-width:0.8;" x="128.6134" xlink:href="#m9d9d639948" y="303.64"/>
      </g>
     </g>
     <g id="text_2">
      <!-- 0.2 -->
      <g transform="translate(120.661838 318.238437)scale(0.1 -0.1)">
       <defs>
        <path d="M 19.1875 8.296875 
L 53.609375 8.296875 
L 53.609375 0 
L 7.328125 0 
L 7.328125 8.296875 
Q 12.9375 14.109375 22.625 23.890625 
Q 32.328125 33.6875 34.8125 36.53125 
Q 39.546875 41.84375 41.421875 45.53125 
Q 43.3125 49.21875 43.3125 52.78125 
Q 43.3125 58.59375 39.234375 62.25 
Q 35.15625 65.921875 28.609375 65.921875 
Q 23.96875 65.921875 18.8125 64.3125 
Q 13.671875 62.703125 7.8125 59.421875 
L 7.8125 69.390625 
Q 13.765625 71.78125 18.9375 73 
Q 24.125 74.21875 28.421875 74.21875 
Q 39.75 74.21875 46.484375 68.546875 
Q 53.21875 62.890625 53.21875 53.421875 
Q 53.21875 48.921875 51.53125 44.890625 
Q 49.859375 40.875 45.40625 35.40625 
Q 44.1875 33.984375 37.640625 27.21875 
Q 31.109375 20.453125 19.1875 8.296875 
z
" id="DejaVuSans-50"/>
       </defs>
       <use xlink:href="#DejaVuSans-48"/>
       <use x="63.623047" xlink:href="#DejaVuSans-46"/>
       <use x="95.410156" xlink:href="#DejaVuSans-50"/>
      </g>
     </g>
    </g>
    <g id="xtick_3">
     <g id="line2d_3">
      <g>
       <use style="stroke:#000000;stroke-width:0.8;" x="206.9688" xlink:href="#m9d9d639948" y="303.64"/>
      </g>
     </g>
     <g id="text_3">
      <!-- 0.4 -->
      <g transform="translate(199.017237 318.238437)scale(0.1 -0.1)">
       <defs>
        <path d="M 37.796875 64.3125 
L 12.890625 25.390625 
L 37.796875 25.390625 
z
M 35.203125 72.90625 
L 47.609375 72.90625 
L 47.609375 25.390625 
L 58.015625 25.390625 
L 58.015625 17.1875 
L 47.609375 17.1875 
L 47.609375 0 
L 37.796875 0 
L 37.796875 17.1875 
L 4.890625 17.1875 
L 4.890625 26.703125 
z
" id="DejaVuSans-52"/>
       </defs>
       <use xlink:href="#DejaVuSans-48"/>
       <use x="63.623047" xlink:href="#DejaVuSans-46"/>
       <use x="95.410156" xlink:href="#DejaVuSans-52"/>
      </g>
     </g>
    </g>
    <g id="xtick_4">
     <g id="line2d_4">
      <g>
       <use style="stroke:#000000;stroke-width:0.8;" x="285.3242" xlink:href="#m9d9d639948" y="303.64"/>
      </g>
     </g>
     <g id="text_4">
      <!-- 0.6 -->
      <g transform="translate(277.372637 318.238437)scale(0.1 -0.1)">
       <defs>
        <path d="M 33.015625 40.375 
Q 26.375 40.375 22.484375 35.828125 
Q 18.609375 31.296875 18.609375 23.390625 
Q 18.609375 15.53125 22.484375 10.953125 
Q 26.375 6.390625 33.015625 6.390625 
Q 39.65625 6.390625 43.53125 10.953125 
Q 47.40625 15.53125 47.40625 23.390625 
Q 47.40625 31.296875 43.53125 35.828125 
Q 39.65625 40.375 33.015625 40.375 
z
M 52.59375 71.296875 
L 52.59375 62.3125 
Q 48.875 64.0625 45.09375 64.984375 
Q 41.3125 65.921875 37.59375 65.921875 
Q 27.828125 65.921875 22.671875 59.328125 
Q 17.53125 52.734375 16.796875 39.40625 
Q 19.671875 43.65625 24.015625 45.921875 
Q 28.375 48.1875 33.59375 48.1875 
Q 44.578125 48.1875 50.953125 41.515625 
Q 57.328125 34.859375 57.328125 23.390625 
Q 57.328125 12.15625 50.6875 5.359375 
Q 44.046875 -1.421875 33.015625 -1.421875 
Q 20.359375 -1.421875 13.671875 8.265625 
Q 6.984375 17.96875 6.984375 36.375 
Q 6.984375 53.65625 15.1875 63.9375 
Q 23.390625 74.21875 37.203125 74.21875 
Q 40.921875 74.21875 44.703125 73.484375 
Q 48.484375 72.75 52.59375 71.296875 
z
" id="DejaVuSans-54"/>
       </defs>
       <use xlink:href="#DejaVuSans-48"/>
       <use x="63.623047" xlink:href="#DejaVuSans-46"/>
       <use x="95.410156" xlink:href="#DejaVuSans-54"/>
      </g>
     </g>
    </g>
    <g id="xtick_5">
     <g id="line2d_5">
      <g>
       <use style="stroke:#000000;stroke-width:0.8;" x="363.6796" xlink:href="#m9d9d639948" y="303.64"/>
      </g>
     </g>
     <g id="text_5">
      <!-- 0.8 -->
      <g transform="translate(355.728037 318.238437)scale(0.1 -0.1)">
       <defs>
        <path d="M 31.78125 34.625 
Q 24.75 34.625 20.71875 30.859375 
Q 16.703125 27.09375 16.703125 20.515625 
Q 16.703125 13.921875 20.71875 10.15625 
Q 24.75 6.390625 31.78125 6.390625 
Q 38.8125 6.390625 42.859375 10.171875 
Q 46.921875 13.96875 46.921875 20.515625 
Q 46.921875 27.09375 42.890625 30.859375 
Q 38.875 34.625 31.78125 34.625 
z
M 21.921875 38.8125 
Q 15.578125 40.375 12.03125 44.71875 
Q 8.5 49.078125 8.5 55.328125 
Q 8.5 64.0625 14.71875 69.140625 
Q 20.953125 74.21875 31.78125 74.21875 
Q 42.671875 74.21875 48.875 69.140625 
Q 55.078125 64.0625 55.078125 55.328125 
Q 55.078125 49.078125 51.53125 44.71875 
Q 48 40.375 41.703125 38.8125 
Q 48.828125 37.15625 52.796875 32.3125 
Q 56.78125 27.484375 56.78125 20.515625 
Q 56.78125 9.90625 50.3125 4.234375 
Q 43.84375 -1.421875 31.78125 -1.421875 
Q 19.734375 -1.421875 13.25 4.234375 
Q 6.78125 9.90625 6.78125 20.515625 
Q 6.78125 27.484375 10.78125 32.3125 
Q 14.796875 37.15625 21.921875 38.8125 
z
M 18.3125 54.390625 
Q 18.3125 48.734375 21.84375 45.5625 
Q 25.390625 42.390625 31.78125 42.390625 
Q 38.140625 42.390625 41.71875 45.5625 
Q 45.3125 48.734375 45.3125 54.390625 
Q 45.3125 60.0625 41.71875 63.234375 
Q 38.140625 66.40625 31.78125 66.40625 
Q 25.390625 66.40625 21.84375 63.234375 
Q 18.3125 60.0625 18.3125 54.390625 
z
" id="DejaVuSans-56"/>
       </defs>
       <use xlink:href="#DejaVuSans-48"/>
       <use x="63.623047" xlink:href="#DejaVuSans-46"/>
       <use x="95.410156" xlink:href="#DejaVuSans-56"/>
      </g>
     </g>
    </g>
    <g id="xtick_6">
     <g id="line2d_6">
      <g>
       <use style="stroke:#000000;stroke-width:0.8;" x="442.035" xlink:href="#m9d9d639948" y="303.64"/>
      </g>
     </g>
     <g id="text_6">
      <!-- 1.0 -->
      <g transform="translate(434.083437 318.238437)scale(0.1 -0.1)">
       <defs>
        <path d="M 12.40625 8.296875 
L 28.515625 8.296875 
L 28.515625 63.921875 
L 10.984375 60.40625 
L 10.984375 69.390625 
L 28.421875 72.90625 
L 38.28125 72.90625 
L 38.28125 8.296875 
L 54.390625 8.296875 
L 54.390625 0 
L 12.40625 0 
z
" id="DejaVuSans-49"/>
       </defs>
       <use xlink:href="#DejaVuSans-49"/>
       <use x="63.623047" xlink:href="#DejaVuSans-46"/>
       <use x="95.410156" xlink:href="#DejaVuSans-48"/>
      </g>
     </g>
    </g>
    <g id="text_7">
     <!-- $x$ -->
     <g transform="translate(243.1465 331.916562)scale(0.1 -0.1)">
      <defs>
       <path d="M 60.015625 54.6875 
L 34.90625 27.875 
L 50.296875 0 
L 39.984375 0 
L 28.421875 21.6875 
L 8.296875 0 
L -2.59375 0 
L 24.3125 28.8125 
L 10.015625 54.6875 
L 20.3125 54.6875 
L 30.8125 34.90625 
L 49.125 54.6875 
z
" id="DejaVuSans-Oblique-120"/>
      </defs>
      <use transform="translate(0 0.3125)" xlink:href="#DejaVuSans-Oblique-120"/>
     </g>
    </g>
   </g>
   <g id="matplotlib.axis_2">
    <g id="ytick_1">
     <g id="line2d_7">
      <defs>
       <path d="M 0 0 
L -3.5 0 
" id="m81b250fcdc" style="stroke:#000000;stroke-width:0.8;"/>
      </defs>
      <g>
       <use style="stroke:#000000;stroke-width:0.8;" x="50.258" xlink:href="#m81b250fcdc" y="303.64"/>
      </g>
     </g>
     <g id="text_8">
      <!-- 0.0 -->
      <g transform="translate(27.354875 307.439219)scale(0.1 -0.1)">
       <use xlink:href="#DejaVuSans-48"/>
       <use x="63.623047" xlink:href="#DejaVuSans-46"/>
       <use x="95.410156" xlink:href="#DejaVuSans-48"/>
      </g>
     </g>
    </g>
    <g id="ytick_2">
     <g id="line2d_8">
      <g>
       <use style="stroke:#000000;stroke-width:0.8;" x="50.258" xlink:href="#m81b250fcdc" y="250.396364"/>
      </g>
     </g>
     <g id="text_9">
      <!-- 0.2 -->
      <g transform="translate(27.354875 254.195582)scale(0.1 -0.1)">
       <use xlink:href="#DejaVuSans-48"/>
       <use x="63.623047" xlink:href="#DejaVuSans-46"/>
       <use x="95.410156" xlink:href="#DejaVuSans-50"/>
      </g>
     </g>
    </g>
    <g id="ytick_3">
     <g id="line2d_9">
      <g>
       <use style="stroke:#000000;stroke-width:0.8;" x="50.258" xlink:href="#m81b250fcdc" y="197.152727"/>
      </g>
     </g>
     <g id="text_10">
      <!-- 0.4 -->
      <g transform="translate(27.354875 200.951946)scale(0.1 -0.1)">
       <use xlink:href="#DejaVuSans-48"/>
       <use x="63.623047" xlink:href="#DejaVuSans-46"/>
       <use x="95.410156" xlink:href="#DejaVuSans-52"/>
      </g>
     </g>
    </g>
    <g id="ytick_4">
     <g id="line2d_10">
      <g>
       <use style="stroke:#000000;stroke-width:0.8;" x="50.258" xlink:href="#m81b250fcdc" y="143.909091"/>
      </g>
     </g>
     <g id="text_11">
      <!-- 0.6 -->
      <g transform="translate(27.354875 147.70831)scale(0.1 -0.1)">
       <use xlink:href="#DejaVuSans-48"/>
       <use x="63.623047" xlink:href="#DejaVuSans-46"/>
       <use x="95.410156" xlink:href="#DejaVuSans-54"/>
      </g>
     </g>
    </g>
    <g id="ytick_5">
     <g id="line2d_11">
      <g>
       <use style="stroke:#000000;stroke-width:0.8;" x="50.258" xlink:href="#m81b250fcdc" y="90.665455"/>
      </g>
     </g>
     <g id="text_12">
      <!-- 0.8 -->
      <g transform="translate(27.354875 94.464673)scale(0.1 -0.1)">
       <use xlink:href="#DejaVuSans-48"/>
       <use x="63.623047" xlink:href="#DejaVuSans-46"/>
       <use x="95.410156" xlink:href="#DejaVuSans-56"/>
      </g>
     </g>
    </g>
    <g id="ytick_6">
     <g id="line2d_12">
      <g>
       <use style="stroke:#000000;stroke-width:0.8;" x="50.258" xlink:href="#m81b250fcdc" y="37.421818"/>
      </g>
     </g>
     <g id="text_13">
      <!-- 1.0 -->
      <g transform="translate(27.354875 41.221037)scale(0.1 -0.1)">
       <use xlink:href="#DejaVuSans-49"/>
       <use x="63.623047" xlink:href="#DejaVuSans-46"/>
       <use x="95.410156" xlink:href="#DejaVuSans-48"/>
      </g>
     </g>
    </g>
    <g id="text_14">
     <!-- $f(x)$ and $f_h(x)$ -->
     <g transform="translate(21.275188 189.42)rotate(-90)scale(0.1 -0.1)">
      <defs>
       <path d="M 47.796875 75.984375 
L 46.390625 68.5 
L 37.796875 68.5 
Q 32.90625 68.5 30.6875 66.578125 
Q 28.46875 64.65625 27.390625 59.515625 
L 26.421875 54.6875 
L 41.21875 54.6875 
L 39.890625 47.703125 
L 25.09375 47.703125 
L 15.828125 0 
L 6.78125 0 
L 16.109375 47.703125 
L 7.515625 47.703125 
L 8.796875 54.6875 
L 17.390625 54.6875 
L 18.109375 58.5 
Q 19.96875 68.171875 24.625 72.078125 
Q 29.296875 75.984375 39.3125 75.984375 
z
" id="DejaVuSans-Oblique-102"/>
       <path d="M 31 75.875 
Q 24.46875 64.65625 21.28125 53.65625 
Q 18.109375 42.671875 18.109375 31.390625 
Q 18.109375 20.125 21.3125 9.0625 
Q 24.515625 -2 31 -13.1875 
L 23.1875 -13.1875 
Q 15.875 -1.703125 12.234375 9.375 
Q 8.59375 20.453125 8.59375 31.390625 
Q 8.59375 42.28125 12.203125 53.3125 
Q 15.828125 64.359375 23.1875 75.875 
z
" id="DejaVuSans-40"/>
       <path d="M 8.015625 75.875 
L 15.828125 75.875 
Q 23.140625 64.359375 26.78125 53.3125 
Q 30.421875 42.28125 30.421875 31.390625 
Q 30.421875 20.453125 26.78125 9.375 
Q 23.140625 -1.703125 15.828125 -13.1875 
L 8.015625 -13.1875 
Q 14.5 -2 17.703125 9.0625 
Q 20.90625 20.125 20.90625 31.390625 
Q 20.90625 42.671875 17.703125 53.65625 
Q 14.5 64.65625 8.015625 75.875 
z
" id="DejaVuSans-41"/>
       <path id="DejaVuSans-32"/>
       <path d="M 34.28125 27.484375 
Q 23.390625 27.484375 19.1875 25 
Q 14.984375 22.515625 14.984375 16.5 
Q 14.984375 11.71875 18.140625 8.90625 
Q 21.296875 6.109375 26.703125 6.109375 
Q 34.1875 6.109375 38.703125 11.40625 
Q 43.21875 16.703125 43.21875 25.484375 
L 43.21875 27.484375 
z
M 52.203125 31.203125 
L 52.203125 0 
L 43.21875 0 
L 43.21875 8.296875 
Q 40.140625 3.328125 35.546875 0.953125 
Q 30.953125 -1.421875 24.3125 -1.421875 
Q 15.921875 -1.421875 10.953125 3.296875 
Q 6 8.015625 6 15.921875 
Q 6 25.140625 12.171875 29.828125 
Q 18.359375 34.515625 30.609375 34.515625 
L 43.21875 34.515625 
L 43.21875 35.40625 
Q 43.21875 41.609375 39.140625 45 
Q 35.0625 48.390625 27.6875 48.390625 
Q 23 48.390625 18.546875 47.265625 
Q 14.109375 46.140625 10.015625 43.890625 
L 10.015625 52.203125 
Q 14.9375 54.109375 19.578125 55.046875 
Q 24.21875 56 28.609375 56 
Q 40.484375 56 46.34375 49.84375 
Q 52.203125 43.703125 52.203125 31.203125 
z
" id="DejaVuSans-97"/>
       <path d="M 54.890625 33.015625 
L 54.890625 0 
L 45.90625 0 
L 45.90625 32.71875 
Q 45.90625 40.484375 42.875 44.328125 
Q 39.84375 48.1875 33.796875 48.1875 
Q 26.515625 48.1875 22.3125 43.546875 
Q 18.109375 38.921875 18.109375 30.90625 
L 18.109375 0 
L 9.078125 0 
L 9.078125 54.6875 
L 18.109375 54.6875 
L 18.109375 46.1875 
Q 21.34375 51.125 25.703125 53.5625 
Q 30.078125 56 35.796875 56 
Q 45.21875 56 50.046875 50.171875 
Q 54.890625 44.34375 54.890625 33.015625 
z
" id="DejaVuSans-110"/>
       <path d="M 45.40625 46.390625 
L 45.40625 75.984375 
L 54.390625 75.984375 
L 54.390625 0 
L 45.40625 0 
L 45.40625 8.203125 
Q 42.578125 3.328125 38.25 0.953125 
Q 33.9375 -1.421875 27.875 -1.421875 
Q 17.96875 -1.421875 11.734375 6.484375 
Q 5.515625 14.40625 5.515625 27.296875 
Q 5.515625 40.1875 11.734375 48.09375 
Q 17.96875 56 27.875 56 
Q 33.9375 56 38.25 53.625 
Q 42.578125 51.265625 45.40625 46.390625 
z
M 14.796875 27.296875 
Q 14.796875 17.390625 18.875 11.75 
Q 22.953125 6.109375 30.078125 6.109375 
Q 37.203125 6.109375 41.296875 11.75 
Q 45.40625 17.390625 45.40625 27.296875 
Q 45.40625 37.203125 41.296875 42.84375 
Q 37.203125 48.484375 30.078125 48.484375 
Q 22.953125 48.484375 18.875 42.84375 
Q 14.796875 37.203125 14.796875 27.296875 
z
" id="DejaVuSans-100"/>
       <path d="M 55.71875 33.015625 
L 49.3125 0 
L 40.28125 0 
L 46.6875 32.671875 
Q 47.125 34.96875 47.359375 36.71875 
Q 47.609375 38.484375 47.609375 39.5 
Q 47.609375 43.609375 45.015625 45.890625 
Q 42.4375 48.1875 37.796875 48.1875 
Q 30.5625 48.1875 25.265625 43.296875 
Q 19.96875 38.421875 18.40625 30.328125 
L 12.5 0 
L 3.515625 0 
L 18.3125 75.984375 
L 27.296875 75.984375 
L 21.484375 46.09375 
Q 24.90625 50.6875 30.21875 53.34375 
Q 35.546875 56 41.40625 56 
Q 48.640625 56 52.609375 52.09375 
Q 56.59375 48.1875 56.59375 41.109375 
Q 56.59375 39.359375 56.375 37.359375 
Q 56.15625 35.359375 55.71875 33.015625 
z
" id="DejaVuSans-Oblique-104"/>
      </defs>
      <use transform="translate(0 0.015625)" xlink:href="#DejaVuSans-Oblique-102"/>
      <use transform="translate(35.205078 0.015625)" xlink:href="#DejaVuSans-40"/>
      <use transform="translate(74.21875 0.015625)" xlink:href="#DejaVuSans-Oblique-120"/>
      <use transform="translate(133.398438 0.015625)" xlink:href="#DejaVuSans-41"/>
      <use transform="translate(172.412109 0.015625)" xlink:href="#DejaVuSans-32"/>
      <use transform="translate(204.199219 0.015625)" xlink:href="#DejaVuSans-97"/>
      <use transform="translate(265.478516 0.015625)" xlink:href="#DejaVuSans-110"/>
      <use transform="translate(328.857422 0.015625)" xlink:href="#DejaVuSans-100"/>
      <use transform="translate(392.333984 0.015625)" xlink:href="#DejaVuSans-32"/>
      <use transform="translate(424.121094 0.015625)" xlink:href="#DejaVuSans-Oblique-102"/>
      <use transform="translate(459.326172 -16.390625)scale(0.7)" xlink:href="#DejaVuSans-Oblique-104"/>
      <use transform="translate(506.425781 0.015625)" xlink:href="#DejaVuSans-40"/>
      <use transform="translate(545.439453 0.015625)" xlink:href="#DejaVuSans-Oblique-120"/>
      <use transform="translate(604.619141 0.015625)" xlink:href="#DejaVuSans-41"/>
     </g>
    </g>
   </g>
   <g id="line2d_13">
    <path clip-path="url(#pe0cc2a4233)" d="M 50.258 303.64 
L 59.200711 303.528899 
L 62.495559 303.255041 
L 65.073454 302.822882 
L 67.295615 302.228224 
L 69.306217 301.461717 
L 71.183614 300.508283 
L 72.977171 299.34699 
L 74.722147 297.949878 
L 76.444009 296.282822 
L 78.163128 294.304088 
L 79.895568 291.96493 
L 81.65504 289.208344 
L 83.453298 285.969091 
L 85.301312 282.172123 
L 87.210052 277.730791 
L 89.190487 272.546444 
L 91.255153 266.503873 
L 93.419332 259.465973 
L 95.70261 251.265716 
L 98.131238 241.693547 
L 100.744785 230.464165 
L 103.607111 217.155961 
L 106.839666 201.031196 
L 110.744512 180.361714 
L 117.246057 144.51788 
L 122.742694 114.747047 
L 126.204831 97.19019 
L 129.048351 83.877448 
L 131.520858 73.329069 
L 133.725782 64.863251 
L 135.718361 58.064397 
L 137.532682 52.636326 
L 139.191076 48.350291 
L 140.709997 45.017241 
L 142.101982 42.477556 
L 143.378001 40.59316 
L 144.548632 39.244679 
L 145.62602 38.329432 
L 146.625444 37.762128 
L 147.566493 37.477165 
L 148.474241 37.431949 
L 149.376505 37.610594 
L 150.301099 38.024519 
L 151.271924 38.709644 
L 152.308567 39.722651 
L 153.425916 41.136837 
L 154.636116 43.040596 
L 155.949746 45.53681 
L 157.377383 48.74437 
L 158.929996 52.798607 
L 160.621691 57.858823 
L 162.470489 64.113575 
L 164.501855 71.796402 
L 166.753791 81.212606 
L 169.288983 92.803139 
L 172.226529 107.316441 
L 175.853996 126.423054 
L 181.702057 158.614989 
L 187.947773 192.603932 
L 191.703351 211.817942 
L 194.864994 226.870015 
L 197.690493 239.270689 
L 200.286018 249.687839 
L 202.708378 258.514019 
L 204.993223 266.020281 
L 207.165237 272.411237 
L 209.242049 277.848117 
L 211.238547 282.466805 
L 213.167267 286.381617 
L 215.039571 289.690347 
L 216.866821 292.47783 
L 218.661161 294.817741 
L 220.436305 296.773808 
L 222.208705 298.400928 
L 223.998345 299.745365 
L 225.830687 300.845571 
L 227.74021 301.732945 
L 229.774319 302.431573 
L 232.006274 302.959683 
L 234.562622 303.330106 
L 237.719172 303.552246 
L 242.445575 303.636704 
L 254.182834 303.567352 
L 257.751926 303.327821 
L 260.440302 302.930176 
L 262.723581 302.37141 
L 264.772185 301.643181 
L 266.673481 300.731898 
L 268.481925 299.617762 
L 270.234737 298.274695 
L 271.959733 296.669497 
L 273.678069 294.762159 
L 275.40659 292.505449 
L 277.159402 289.844202 
L 278.948258 286.715638 
L 280.78491 283.045726 
L 282.679546 278.751925 
L 284.643134 273.738494 
L 286.688212 267.893148 
L 288.829276 261.0842 
L 291.084738 253.152178 
L 293.47889 243.899167 
L 296.048166 233.058207 
L 298.848982 220.248307 
L 301.985552 204.826537 
L 305.696859 185.410606 
L 311.001917 156.336624 
L 318.320711 116.378768 
L 321.852584 98.367763 
L 324.732148 84.796217 
L 327.228553 74.064272 
L 329.451498 65.455489 
L 331.458965 58.53963 
L 333.286215 53.014012 
L 334.956362 48.645823 
L 336.485861 45.244483 
L 337.887249 42.648696 
L 339.171887 40.718123 
L 340.350353 39.332035 
L 341.434401 38.386675 
L 342.438919 37.795264 
L 343.383494 37.490313 
L 344.292809 37.427409 
L 345.194289 37.588547 
L 346.116141 37.983106 
L 347.082656 38.645342 
L 348.113422 39.630193 
L 349.224111 41.010218 
L 350.426476 42.871952 
L 351.731487 45.317481 
L 353.149721 48.46449 
L 354.692148 52.447191 
L 356.372482 57.422649 
L 358.20835 63.576813 
L 360.224045 71.137264 
L 362.456784 80.403819 
L 364.966902 91.804503 
L 367.866055 106.047935 
L 371.419084 124.679658 
L 376.856171 154.543053 
L 383.739308 192.092102 
L 387.514866 211.437492 
L 390.686304 226.562479 
L 393.518071 239.014667 
L 396.117906 249.471064 
L 398.543792 258.330106 
L 400.83138 265.863542 
L 403.005744 272.277847 
L 405.084515 277.734659 
L 407.082972 282.371143 
L 409.013259 286.300969 
L 410.886738 289.62235 
L 412.714772 292.42051 
L 414.509896 294.769946 
L 416.285431 296.734078 
L 418.05744 298.367769 
L 419.846296 299.717985 
L 421.677463 300.82337 
L 423.584636 301.715152 
L 425.61561 302.417901 
L 427.84208 302.949662 
L 430.389025 303.323486 
L 433.526379 303.548832 
L 438.187746 303.636151 
L 442.035 303.64 
L 442.035 303.64 
" style="fill:none;stroke:#1f77b4;stroke-linecap:square;stroke-width:2;"/>
   </g>
   <g id="line2d_14">
    <path clip-path="url(#pe0cc2a4233)" d="M 50.258 301.587143 
L 52.256065 302.680729 
L 54.200064 303.494583 
L 56.100576 304.051736 
L 57.969746 304.369706 
L 59.820111 304.459824 
L 61.664991 304.327152 
L 63.518098 303.970205 
L 65.391969 303.381297 
L 67.298749 302.546741 
L 69.249409 301.44737 
L 71.254134 300.058701 
L 73.32076 298.352512 
L 75.457122 296.295662 
L 77.669097 293.852056 
L 79.961778 290.982184 
L 82.339867 287.642841 
L 84.806889 283.788456 
L 87.365587 279.371098 
L 89.478443 275.317315 
L 93.676338 258.447745 
L 97.980796 240.218222 
L 102.391818 220.55868 
L 106.910186 199.393557 
L 111.535902 176.648765 
L 116.268965 152.248456 
L 121.110158 126.110693 
L 126.05909 98.157778 
L 129.24424 80.416824 
L 131.322619 71.761855 
L 133.290125 64.49357 
L 135.14715 58.458692 
L 136.894869 53.511093 
L 138.534457 49.514944 
L 140.067874 46.342934 
L 141.497861 43.877285 
L 142.828337 42.009984 
L 144.065179 40.643071 
L 145.217004 39.689816 
L 146.295959 39.076548 
L 147.318498 38.745042 
L 148.306561 38.655553 
L 149.284437 38.790372 
L 150.277593 39.154762 
L 151.307967 39.775081 
L 152.393974 40.695964 
L 153.549326 41.976552 
L 154.784208 43.68827 
L 156.106065 45.913257 
L 157.520381 48.743542 
L 159.030683 52.279166 
L 160.639713 56.629126 
L 162.349821 61.911902 
L 164.162575 68.25382 
L 166.07915 75.789491 
L 167.867614 83.694032 
L 172.97835 113.184581 
L 177.978213 140.748404 
L 182.867595 166.472191 
L 187.646496 190.438454 
L 192.315307 212.729666 
L 196.874029 233.424338 
L 201.323053 252.600774 
L 205.662379 270.333522 
L 207.170722 275.875888 
L 209.892008 280.891383 
L 212.513782 285.266227 
L 215.038396 289.054847 
L 217.468983 292.309233 
L 219.808677 295.077612 
L 222.062181 297.406146 
L 224.234195 299.336722 
L 226.331379 300.90854 
L 228.360786 302.156205 
L 230.331034 303.110277 
L 232.252311 303.796587 
L 234.135976 304.235516 
L 235.994568 304.441571 
L 237.840623 304.423004 
L 239.687854 304.181736 
L 241.54958 303.713186 
L 243.437947 303.006781 
L 245.364708 302.046073 
L 246.272456 301.663779 
L 248.266603 302.739078 
L 250.207469 303.536355 
L 252.10563 304.078231 
L 253.973233 304.38182 
L 255.822814 304.458063 
L 257.668085 304.311581 
L 259.521976 303.940568 
L 261.397414 303.336945 
L 263.306546 302.486638 
L 265.26034 301.370084 
L 267.26859 299.962691 
L 269.339526 298.235625 
L 271.480197 296.156119 
L 273.696874 293.687506 
L 275.99504 290.789461 
L 278.378614 287.419463 
L 280.851121 283.531815 
L 283.415696 279.077747 
L 285.377717 275.275168 
L 289.575612 258.403295 
L 293.88007 240.171411 
L 298.291483 220.507658 
L 302.809852 199.339967 
L 307.435568 176.592545 
L 312.169022 152.187478 
L 317.010215 126.046866 
L 321.959539 98.088777 
L 325.131369 80.422866 
L 327.209748 71.767234 
L 329.177254 64.498322 
L 331.034279 58.462853 
L 332.781998 53.514697 
L 334.421586 49.518025 
L 335.955003 46.345527 
L 337.38499 43.879421 
L 338.715466 42.011697 
L 339.952307 40.64439 
L 341.104133 39.690767 
L 342.183088 39.077156 
L 343.205627 38.745324 
L 344.19369 38.65552 
L 345.171566 38.790028 
L 346.16433 39.153912 
L 347.194704 39.773809 
L 348.280711 40.694247 
L 349.436063 41.974361 
L 350.670945 43.685573 
L 351.992802 45.910019 
L 353.406727 48.738876 
L 354.917029 52.273744 
L 356.526058 56.622898 
L 358.236167 61.904818 
L 360.048921 68.245828 
L 361.965496 75.78054 
L 363.755526 83.690564 
L 368.866263 113.181266 
L 373.866126 140.745239 
L 378.755507 166.469172 
L 383.534408 190.435579 
L 388.203219 212.72693 
L 392.761941 233.421739 
L 397.210965 252.598307 
L 401.550291 270.331186 
L 403.059418 275.876266 
L 405.780704 280.891727 
L 408.402478 285.266537 
L 410.927092 289.055125 
L 413.357678 292.30948 
L 415.697373 295.077829 
L 417.950877 297.406334 
L 420.12289 299.336882 
L 422.220075 300.908673 
L 424.249482 302.156312 
L 426.21973 303.11036 
L 428.141007 303.796645 
L 430.024672 304.235549 
L 431.883264 304.441581 
L 433.729319 304.422991 
L 435.57655 304.181699 
L 437.438276 303.713125 
L 439.326643 303.006696 
L 441.253404 302.045963 
L 442.035 301.587143 
L 442.035 301.587143 
" style="fill:none;stroke:#ff7f0e;stroke-dasharray:1.5,2.475;stroke-dashoffset:0;stroke-width:1.5;"/>
   </g>
   <g id="line2d_15">
    <path clip-path="url(#pe0cc2a4233)" d="M 50.258 303.498875 
L 53.712301 303.687864 
L 57.160726 303.654055 
L 60.610326 303.397834 
L 64.068153 302.917767 
L 67.697187 302.18394 
L 69.305825 301.592355 
L 70.952465 300.746833 
L 72.648861 299.621887 
L 74.405591 298.185368 
L 76.231274 296.399677 
L 78.132961 294.222328 
L 80.11653 291.606228 
L 81.912046 288.88687 
L 83.669951 285.625104 
L 85.523058 281.706132 
L 87.47411 277.047004 
L 89.525064 271.559847 
L 91.677489 265.151467 
L 93.932952 257.722338 
L 96.292235 249.169347 
L 98.126145 241.774306 
L 101.369279 227.460152 
L 104.718975 211.653976 
L 108.175627 194.254659 
L 111.739626 175.157415 
L 122.913509 114.064568 
L 127.264981 92.249125 
L 129.974905 79.579507 
L 132.119102 70.714089 
L 134.152427 63.226644 
L 136.075662 56.968353 
L 137.889592 51.799612 
L 139.59539 47.588951 
L 141.195018 44.212768 
L 142.690824 41.556954 
L 144.086726 39.515501 
L 144.721406 38.866368 
L 145.789391 38.108246 
L 146.791558 37.661518 
L 147.747494 37.474195 
L 148.681883 37.516431 
L 149.621366 37.78349 
L 150.590623 38.295034 
L 151.610028 39.091672 
L 152.695643 40.231591 
L 153.85883 41.786672 
L 155.107816 43.840813 
L 156.448087 46.48781 
L 157.883951 49.832135 
L 159.418543 53.987956 
L 160.654209 57.917414 
L 162.964128 66.14341 
L 165.378652 75.581818 
L 167.898565 86.34771 
L 170.524257 98.560303 
L 173.256512 112.34641 
L 176.151355 128.128768 
L 183.447817 168.238536 
L 190.633798 206.508879 
L 192.99935 218.313031 
L 195.84718 231.386879 
L 198.584137 242.928665 
L 201.210613 253.061697 
L 203.727391 261.905125 
L 206.134863 269.571007 
L 207.769358 274.158371 
L 209.986426 279.589943 
L 212.098106 284.189762 
L 214.105965 288.044425 
L 216.013138 291.237284 
L 217.822366 293.844274 
L 219.537959 295.936903 
L 221.165402 297.580629 
L 222.700778 298.824522 
L 225.034204 300.282286 
L 227.30808 301.444016 
L 229.530633 302.332622 
L 231.711658 302.967339 
L 233.861732 303.362981 
L 235.991434 303.529685 
L 238.112517 303.472958 
L 239.156604 303.501731 
L 244.696336 303.671242 
L 250.232542 303.618337 
L 259.244598 303.240178 
L 261.380568 302.762035 
L 263.540829 302.049157 
L 265.735565 301.088758 
L 267.974181 299.863961 
L 270.063922 298.475337 
L 271.560512 297.175832 
L 273.128013 295.513384 
L 274.774262 293.435449 
L 276.505526 290.883302 
L 278.326507 287.793018 
L 280.240732 284.095856 
L 282.250941 279.718302 
L 284.359879 274.580671 
L 285.966558 270.147708 
L 288.256889 262.931521 
L 290.650649 254.638986 
L 293.149013 245.166024 
L 295.752766 234.404309 
L 298.462298 222.241813 
L 301.176924 209.033561 
L 308.245763 171.477603 
L 315.422733 132.136718 
L 319.835714 108.200016 
L 322.643974 94.376636 
L 325.34097 82.194154 
L 327.927484 71.516917 
L 330.403517 62.218684 
L 332.580232 54.853391 
L 334.234708 50.274013 
L 335.781054 46.62537 
L 337.221619 43.775254 
L 338.559147 41.603035 
L 339.798731 39.997428 
L 340.94703 38.859872 
L 342.014624 38.104068 
L 343.016398 37.659329 
L 343.971944 37.473719 
L 344.906333 37.517507 
L 345.845815 37.786127 
L 346.815464 38.299537 
L 347.83526 39.098328 
L 348.379439 39.745827 
L 349.692285 41.703231 
L 351.094065 44.205179 
L 352.589871 47.344157 
L 354.182838 51.219682 
L 355.875316 55.939273 
L 357.669265 61.618906 
L 359.566251 68.382728 
L 361.56745 76.362639 
L 363.673645 85.697751 
L 366.168092 97.852056 
L 370.438465 119.549861 
L 374.816578 142.960086 
L 379.302429 168.16981 
L 381.994331 183.020135 
L 385.622973 201.969112 
L 389.140743 219.176063 
L 392.547639 234.749253 
L 395.45306 247.069438 
L 397.940846 256.261033 
L 400.318935 264.216317 
L 402.58811 271.04993 
L 404.749154 276.870352 
L 406.803634 281.781789 
L 408.752727 285.880884 
L 410.598782 289.260139 
L 411.757268 291.008258 
L 413.845833 293.831408 
L 415.843114 296.165847 
L 417.754204 298.065174 
L 419.585372 299.578299 
L 421.344452 300.749133 
L 423.040848 301.61583 
L 424.685922 302.210226 
L 426.292993 302.556923 
L 434.490151 303.62321 
L 437.940534 303.698391 
L 441.388567 303.551207 
L 442.035 303.498875 
L 442.035 303.498875 
" style="fill:none;stroke:#2ca02c;stroke-dasharray:1.5,2.475;stroke-dashoffset:0;stroke-width:1.5;"/>
   </g>
   <g id="line2d_16">
    <path clip-path="url(#pe0cc2a4233)" d="M 50.258 303.628759 
L 56.613413 303.602785 
L 61.326103 303.390013 
L 64.098712 302.99816 
L 66.814904 302.39193 
L 68.647639 301.754801 
L 70.516417 300.867263 
L 72.432209 299.708062 
L 74.332721 298.299093 
L 75.940183 296.819208 
L 77.6213 294.962466 
L 79.382731 292.678048 
L 81.229962 289.909718 
L 82.902851 287.020064 
L 84.709729 283.442953 
L 86.612983 279.169535 
L 88.615357 274.113703 
L 90.576595 268.564036 
L 92.738814 261.750982 
L 95.004463 253.860505 
L 97.364922 244.818495 
L 100.094827 233.326501 
L 102.930903 220.407949 
L 105.851995 206.050778 
L 110.024425 184.269264 
L 114.571393 159.299582 
L 122.460614 116.185494 
L 125.787196 99.267299 
L 128.968429 84.214105 
L 131.288926 74.248751 
L 133.498551 65.714997 
L 135.597694 58.471264 
L 137.418283 52.931463 
L 139.050036 48.675678 
L 140.574834 45.298046 
L 141.994635 42.673472 
L 143.313358 40.685339 
L 144.50201 39.274543 
L 145.580965 38.354429 
L 146.585483 37.780127 
L 147.533584 37.487819 
L 148.448384 37.435675 
L 149.356916 37.60736 
L 150.28582 38.013146 
L 151.25782 38.687011 
L 152.267822 39.663641 
L 153.430617 41.155753 
L 154.678036 43.130753 
L 156.015956 45.679661 
L 157.448686 48.903385 
L 158.979752 52.913296 
L 160.584472 57.753301 
L 162.562165 64.471062 
L 164.643678 72.347977 
L 166.830188 81.512982 
L 169.259991 92.706369 
L 172.42947 108.335893 
L 175.70708 125.635136 
L 191.020091 208.420008 
L 193.948627 222.64135 
L 196.873637 235.776405 
L 199.626657 247.147852 
L 202.075657 256.293934 
L 204.41496 264.191219 
L 206.644957 270.956175 
L 208.622649 276.287984 
L 210.684182 281.238435 
L 212.640326 285.37319 
L 214.493433 288.784814 
L 216.259174 291.581432 
L 218.143623 294.173102 
L 219.936005 296.269749 
L 221.641804 297.931545 
L 223.303332 299.243827 
L 225.297087 300.53659 
L 227.229725 301.52877 
L 229.11104 302.247852 
L 231.052297 302.747679 
L 233.849979 303.243961 
L 236.628072 303.511711 
L 240.484337 303.616416 
L 248.348485 303.644919 
L 255.005174 303.542343 
L 257.771515 303.329233 
L 260.546474 302.892045 
L 263.100863 302.273376 
L 264.940649 301.583057 
L 266.81883 300.638192 
L 268.746375 299.416226 
L 270.563438 298.00824 
L 272.18618 296.450815 
L 273.884143 294.506003 
L 275.663596 292.121945 
L 277.526106 289.246632 
L 279.264031 286.129438 
L 281.096373 282.374566 
L 283.025877 277.900967 
L 285.054892 272.621659 
L 286.970292 267.034894 
L 289.156802 259.975825 
L 291.447132 251.813462 
L 293.791136 242.628047 
L 296.542197 230.85978 
L 299.39943 217.64292 
L 302.396135 202.704346 
L 306.585411 180.650936 
L 311.941008 151.105399 
L 318.929533 113.147873 
L 322.237309 96.528553 
L 325.308452 82.194491 
L 327.607794 72.513545 
L 329.796262 64.23688 
L 331.874641 57.223043 
L 333.588276 52.149983 
L 335.202007 48.050684 
L 336.708782 44.808437 
L 338.111346 42.298435 
L 339.413222 40.406945 
L 340.55682 39.112242 
L 341.62363 38.248605 
L 342.618353 37.719963 
L 343.559794 37.465533 
L 344.471851 37.447095 
L 345.38195 37.65241 
L 346.315948 38.095468 
L 347.296175 38.813582 
L 348.296382 39.825535 
L 349.469364 41.373111 
L 350.727753 43.414274 
L 352.077426 46.041725 
L 353.522301 49.357188 
L 355.065512 53.472369 
L 356.687079 58.444528 
L 358.676133 65.284339 
L 360.769399 73.298179 
L 362.96727 82.612724 
L 365.493843 94.356916 
L 368.675467 110.166639 
L 371.994605 127.809638 
L 386.665493 207.190051 
L 389.71548 222.072083 
L 392.6448 235.269934 
L 395.416233 246.759528 
L 397.869543 255.957273 
L 400.213155 263.901573 
L 402.447462 270.70911 
L 404.434948 276.093338 
L 406.500399 281.075153 
L 408.460461 285.237924 
L 410.317094 288.673744 
L 412.080092 291.481113 
L 413.968068 294.091525 
L 415.763583 296.204383 
L 417.472516 297.880572 
L 419.128951 299.198608 
L 421.125057 300.501366 
L 423.059262 301.502298 
L 424.941752 302.229388 
L 426.865771 302.731239 
L 429.664237 303.233729 
L 432.442722 303.507495 
L 436.163432 303.612577 
L 442.035 303.628759 
L 442.035 303.628759 
" style="fill:none;stroke:#d62728;stroke-dasharray:1.5,2.475;stroke-dashoffset:0;stroke-width:1.5;"/>
   </g>
   <g id="line2d_17">
    <path clip-path="url(#pe0cc2a4233)" d="M 50.258 303.639248 
L 58.925291 303.54356 
L 62.265977 303.283698 
L 64.725556 302.893716 
L 67.071127 302.301791 
L 69.083295 301.556209 
L 71.006922 300.611305 
L 72.794603 299.474697 
L 74.585809 298.071913 
L 76.283772 296.448992 
L 78.045987 294.451304 
L 79.743167 292.184829 
L 81.526929 289.422662 
L 83.27739 286.305876 
L 85.132456 282.53853 
L 87.018864 278.200317 
L 88.998907 273.073762 
L 91.042418 267.15653 
L 93.20072 260.210401 
L 95.462059 252.166574 
L 97.859345 242.806026 
L 100.478377 231.653198 
L 103.304267 218.610577 
L 106.438094 203.086636 
L 110.185053 183.380708 
L 115.811369 152.470895 
L 122.502535 116.006766 
L 126.092391 97.735606 
L 128.991935 84.12607 
L 131.418996 73.747017 
L 133.665056 65.079864 
L 135.659203 58.257793 
L 137.49037 52.751275 
L 139.146414 48.459671 
L 140.688058 45.05921 
L 142.071032 42.528252 
L 143.352927 40.6278 
L 144.533744 39.258239 
L 145.609173 38.340993 
L 146.610556 37.769191 
L 147.555523 37.479257 
L 148.461313 37.430437 
L 149.367102 37.608209 
L 150.294047 38.020728 
L 151.264872 38.702858 
L 152.294463 39.706695 
L 153.424741 41.136807 
L 154.63925 43.044901 
L 155.943869 45.523185 
L 157.374248 48.739226 
L 158.931172 52.798863 
L 160.596226 57.781433 
L 162.472448 64.11793 
L 164.462677 71.644912 
L 166.754966 81.213048 
L 169.25098 92.625919 
L 172.130544 106.830984 
L 175.819912 126.241548 
L 182.160045 161.147828 
L 188.19851 193.928443 
L 191.907467 212.826965 
L 195.025623 227.602375 
L 197.783344 239.658219 
L 200.388664 250.08044 
L 202.812199 258.87266 
L 205.072754 266.266815 
L 207.242026 272.624053 
L 209.331374 278.067641 
L 211.312201 282.62514 
L 213.262077 286.561335 
L 215.109699 289.80416 
L 216.972601 292.626912 
L 218.7403 294.912546 
L 220.576169 296.913205 
L 222.328589 298.501781 
L 224.140952 299.838985 
L 225.968985 300.920787 
L 227.876549 301.785244 
L 229.915359 302.474033 
L 232.182966 302.991851 
L 234.669577 303.339843 
L 238.016531 303.564591 
L 243.507683 303.638915 
L 254.653358 303.550442 
L 257.995611 303.301198 
L 260.454406 302.925816 
L 262.829361 302.342036 
L 264.839571 301.61235 
L 266.784745 300.673285 
L 268.5689 299.554938 
L 270.369117 298.162769 
L 272.062379 296.562941 
L 273.824202 294.586382 
L 275.515505 292.351197 
L 277.29339 289.624053 
L 279.052863 286.519981 
L 280.90166 282.795171 
L 282.790419 278.484766 
L 284.764193 273.409883 
L 286.805354 267.538664 
L 288.957387 260.655155 
L 291.21089 252.685507 
L 293.601124 243.403206 
L 296.214279 232.328625 
L 299.016663 219.450667 
L 302.126592 204.105927 
L 305.842601 184.623228 
L 311.305545 154.656131 
L 318.456266 115.664143 
L 322.032801 97.482212 
L 324.928036 83.912691 
L 327.353138 73.561618 
L 329.592146 64.939904 
L 331.584334 58.140304 
L 333.410409 52.663393 
L 335.064493 48.389004 
L 336.603394 45.00535 
L 337.98441 42.487291 
L 339.264738 40.597209 
L 340.443205 39.237362 
L 341.517458 38.327059 
L 342.517274 37.76131 
L 343.461066 37.476253 
L 344.366072 37.431665 
L 345.272253 37.613561 
L 346.199982 38.030722 
L 347.171981 38.718432 
L 348.202356 39.728422 
L 349.334201 41.166475 
L 350.550278 43.083927 
L 351.856464 45.573131 
L 353.289977 48.805222 
L 354.848467 52.87943 
L 356.516656 57.883072 
L 358.394445 64.23779 
L 360.387808 71.790649 
L 362.681665 81.380207 
L 365.185906 92.846391 
L 368.069779 107.090075 
L 371.762673 126.535113 
L 378.159222 161.760058 
L 384.103661 194.015941 
L 387.81105 212.901121 
L 390.928815 227.669352 
L 393.683793 239.708203 
L 396.287938 250.121462 
L 398.711081 258.908443 
L 400.970853 266.296537 
L 403.139732 272.649472 
L 405.228298 278.088266 
L 407.208732 282.642436 
L 409.158217 286.575719 
L 411.005447 289.815966 
L 412.867957 292.636516 
L 414.635265 294.920195 
L 416.471133 296.919642 
L 418.223162 298.506741 
L 420.036308 299.843541 
L 421.863949 300.924139 
L 423.772689 301.788271 
L 425.811498 302.476164 
L 428.08224 302.993846 
L 430.569635 303.341003 
L 433.916589 303.56498 
L 439.436341 303.638996 
L 442.035 303.639248 
L 442.035 303.639248 
" style="fill:none;stroke:#9467bd;stroke-dasharray:1.5,2.475;stroke-dashoffset:0;stroke-width:1.5;"/>
   </g>
   <g id="line2d_18">
    <path clip-path="url(#pe0cc2a4233)" d="M 50.258 303.639952 
L 59.159966 303.530859 
L 62.494775 303.255409 
L 65.072279 302.823045 
L 67.309327 302.223498 
L 69.326197 301.452525 
L 71.207121 300.494424 
L 73.006946 299.325256 
L 74.760933 297.915572 
L 76.492981 296.231101 
L 78.219936 294.233306 
L 79.956293 291.876602 
L 81.71459 289.108182 
L 83.507755 285.864074 
L 85.348717 282.068194 
L 87.254714 277.620313 
L 89.234366 272.424796 
L 91.299032 266.368373 
L 93.463603 259.314502 
L 95.752366 251.078135 
L 98.185304 241.470722 
L 100.800026 230.217267 
L 103.666269 216.870275 
L 106.907444 200.682685 
L 110.851075 179.784322 
L 117.72716 141.859764 
L 122.969925 113.557442 
L 126.367027 96.401577 
L 129.183514 83.273845 
L 131.643485 72.834005 
L 133.842923 64.440851 
L 135.828843 57.712957 
L 137.636895 52.34787 
L 139.290979 48.11334 
L 140.805591 44.82662 
L 142.189349 42.335002 
L 143.454398 40.494093 
L 144.621111 39.173124 
L 145.69223 38.283555 
L 146.687737 37.73573 
L 147.626043 37.467322 
L 148.532225 37.436741 
L 149.435663 37.630076 
L 150.361825 38.059911 
L 151.338526 38.76597 
L 152.377911 39.800865 
L 153.50388 41.247706 
L 154.717998 43.183446 
L 156.037896 45.720011 
L 157.482771 49.000807 
L 159.042437 53.114435 
L 160.738441 58.232166 
L 162.592723 64.552972 
L 164.631533 72.314297 
L 166.891697 81.817402 
L 169.435899 93.502801 
L 172.403221 108.221025 
L 176.066731 127.573934 
L 182.264258 161.729291 
L 188.137001 193.601064 
L 191.868289 212.631339 
L 195.013086 227.545609 
L 197.819388 239.81084 
L 200.407861 250.152658 
L 202.824735 258.915584 
L 205.101746 266.356864 
L 207.269842 272.700694 
L 209.343519 278.096957 
L 211.336883 282.679041 
L 213.262469 286.561107 
L 215.132422 289.842036 
L 216.960064 292.608669 
L 218.760281 294.936054 
L 220.54992 296.887746 
L 222.333682 298.504505 
L 224.129198 299.833133 
L 225.9635 300.915703 
L 227.872631 301.785952 
L 229.907523 302.469842 
L 232.146531 302.986103 
L 234.736179 303.347813 
L 237.960116 303.561998 
L 242.915316 303.638039 
L 254.473924 303.556509 
L 257.952124 303.306028 
L 260.567238 302.905292 
L 262.846207 302.334335 
L 264.898729 301.589909 
L 266.80551 300.659073 
L 268.621398 299.520853 
L 270.382829 298.148552 
L 272.114877 296.51066 
L 273.835955 294.570781 
L 275.561342 292.286048 
L 277.305535 289.604417 
L 279.091649 286.445886 
L 280.931043 282.732981 
L 282.831164 278.38532 
L 284.801412 273.308877 
L 286.853934 267.391311 
L 289.002833 260.501435 
L 291.267698 252.474998 
L 293.67948 243.085793 
L 296.264819 232.10306 
L 299.081306 219.142758 
L 302.273117 203.363159 
L 306.041624 183.557223 
L 311.61975 152.909859 
L 318.333639 116.311329 
L 321.854151 98.360568 
L 324.745076 84.737435 
L 327.233254 74.044777 
L 329.462076 65.416946 
L 331.475028 58.487947 
L 333.306196 52.957837 
L 334.979477 48.589853 
L 336.50976 45.195717 
L 337.906446 42.616898 
L 339.188733 40.695719 
L 340.368375 39.313587 
L 341.449681 38.375724 
L 342.45459 37.788146 
L 343.398381 37.487501 
L 344.307305 37.428228 
L 345.20996 37.593321 
L 346.131812 37.991798 
L 347.101853 38.661061 
L 348.132619 39.651299 
L 349.248793 41.044494 
L 350.449983 42.912387 
L 351.758519 45.372506 
L 353.181846 48.541334 
L 354.722707 52.532014 
L 356.400298 57.510859 
L 358.236167 63.676111 
L 360.254604 71.258564 
L 362.489302 80.545529 
L 364.996285 91.942953 
L 367.887603 106.158118 
L 371.461396 124.907194 
L 377.062246 155.685281 
L 383.741267 192.102982 
L 387.519959 211.463112 
L 390.686304 226.56213 
L 393.518855 239.018201 
L 396.119081 249.475501 
L 398.547318 258.342253 
L 400.834514 265.873354 
L 403.00692 272.281103 
L 405.088041 277.743257 
L 407.088065 282.382048 
L 409.019919 286.313425 
L 410.896141 289.637651 
L 412.730051 292.442046 
L 414.536145 294.80164 
L 416.323042 296.772319 
L 418.100927 298.404366 
L 419.889783 299.747643 
L 421.715466 300.843812 
L 423.613627 301.727036 
L 425.633239 302.423226 
L 427.847565 302.951009 
L 430.386283 303.32305 
L 433.569082 303.55081 
L 438.221439 303.636213 
L 442.035 303.639952 
L 442.035 303.639952 
" style="fill:none;stroke:#8c564b;stroke-dasharray:1.5,2.475;stroke-dashoffset:0;stroke-width:1.5;"/>
   </g>
   <g id="patch_3">
    <path d="M 50.258 303.64 
L 50.258 10.8 
" style="fill:none;stroke:#000000;stroke-linecap:square;stroke-linejoin:miter;stroke-width:0.8;"/>
   </g>
   <g id="patch_4">
    <path d="M 442.035 303.64 
L 442.035 10.8 
" style="fill:none;stroke:#000000;stroke-linecap:square;stroke-linejoin:miter;stroke-width:0.8;"/>
   </g>
   <g id="patch_5">
    <path d="M 50.258 303.64 
L 442.035 303.64 
" style="fill:none;stroke:#000000;stroke-linecap:square;stroke-linejoin:miter;stroke-width:0.8;"/>
   </g>
   <g id="patch_6">
    <path d="M 50.258 10.8 
L 442.035 10.8 
" style="fill:none;stroke:#000000;stroke-linecap:square;stroke-linejoin:miter;stroke-width:0.8;"/>
   </g>
   <g id="legend_1">
    <g id="patch_7">
     <path d="M 334.324062 106.86875 
L 435.035 106.86875 
Q 437.035 106.86875 437.035 104.86875 
L 437.035 17.8 
Q 437.035 15.8 435.035 15.8 
L 334.324062 15.8 
Q 332.324062 15.8 332.324062 17.8 
L 332.324062 104.86875 
Q 332.324062 106.86875 334.324062 106.86875 
z
" style="fill:#ffffff;opacity:0.8;stroke:#cccccc;stroke-linejoin:miter;"/>
    </g>
    <g id="line2d_19">
     <path d="M 336.324062 23.898438 
L 356.324062 23.898438 
" style="fill:none;stroke:#1f77b4;stroke-linecap:square;stroke-width:2;"/>
    </g>
    <g id="line2d_20"/>
    <g id="text_15">
     <!-- Exact -->
     <g transform="translate(364.324062 27.398438)scale(0.1 -0.1)">
      <defs>
       <path d="M 9.8125 72.90625 
L 55.90625 72.90625 
L 55.90625 64.59375 
L 19.671875 64.59375 
L 19.671875 43.015625 
L 54.390625 43.015625 
L 54.390625 34.71875 
L 19.671875 34.71875 
L 19.671875 8.296875 
L 56.78125 8.296875 
L 56.78125 0 
L 9.8125 0 
z
" id="DejaVuSans-69"/>
       <path d="M 54.890625 54.6875 
L 35.109375 28.078125 
L 55.90625 0 
L 45.3125 0 
L 29.390625 21.484375 
L 13.484375 0 
L 2.875 0 
L 24.125 28.609375 
L 4.6875 54.6875 
L 15.28125 54.6875 
L 29.78125 35.203125 
L 44.28125 54.6875 
z
" id="DejaVuSans-120"/>
       <path d="M 48.78125 52.59375 
L 48.78125 44.1875 
Q 44.96875 46.296875 41.140625 47.34375 
Q 37.3125 48.390625 33.40625 48.390625 
Q 24.65625 48.390625 19.8125 42.84375 
Q 14.984375 37.3125 14.984375 27.296875 
Q 14.984375 17.28125 19.8125 11.734375 
Q 24.65625 6.203125 33.40625 6.203125 
Q 37.3125 6.203125 41.140625 7.25 
Q 44.96875 8.296875 48.78125 10.40625 
L 48.78125 2.09375 
Q 45.015625 0.34375 40.984375 -0.53125 
Q 36.96875 -1.421875 32.421875 -1.421875 
Q 20.0625 -1.421875 12.78125 6.34375 
Q 5.515625 14.109375 5.515625 27.296875 
Q 5.515625 40.671875 12.859375 48.328125 
Q 20.21875 56 33.015625 56 
Q 37.15625 56 41.109375 55.140625 
Q 45.0625 54.296875 48.78125 52.59375 
z
" id="DejaVuSans-99"/>
       <path d="M 18.3125 70.21875 
L 18.3125 54.6875 
L 36.8125 54.6875 
L 36.8125 47.703125 
L 18.3125 47.703125 
L 18.3125 18.015625 
Q 18.3125 11.328125 20.140625 9.421875 
Q 21.96875 7.515625 27.59375 7.515625 
L 36.8125 7.515625 
L 36.8125 0 
L 27.59375 0 
Q 17.1875 0 13.234375 3.875 
Q 9.28125 7.765625 9.28125 18.015625 
L 9.28125 47.703125 
L 2.6875 47.703125 
L 2.6875 54.6875 
L 9.28125 54.6875 
L 9.28125 70.21875 
z
" id="DejaVuSans-116"/>
      </defs>
      <use xlink:href="#DejaVuSans-69"/>
      <use x="63.183594" xlink:href="#DejaVuSans-120"/>
      <use x="122.363281" xlink:href="#DejaVuSans-97"/>
      <use x="183.642578" xlink:href="#DejaVuSans-99"/>
      <use x="238.623047" xlink:href="#DejaVuSans-116"/>
     </g>
    </g>
    <g id="line2d_21">
     <path d="M 336.324062 38.576563 
L 356.324062 38.576563 
" style="fill:none;stroke:#ff7f0e;stroke-dasharray:1.5,2.475;stroke-dashoffset:0;stroke-width:1.5;"/>
    </g>
    <g id="line2d_22"/>
    <g id="text_16">
     <!-- 10 elements -->
     <g transform="translate(364.324062 42.076563)scale(0.1 -0.1)">
      <defs>
       <path d="M 56.203125 29.59375 
L 56.203125 25.203125 
L 14.890625 25.203125 
Q 15.484375 15.921875 20.484375 11.0625 
Q 25.484375 6.203125 34.421875 6.203125 
Q 39.59375 6.203125 44.453125 7.46875 
Q 49.3125 8.734375 54.109375 11.28125 
L 54.109375 2.78125 
Q 49.265625 0.734375 44.1875 -0.34375 
Q 39.109375 -1.421875 33.890625 -1.421875 
Q 20.796875 -1.421875 13.15625 6.1875 
Q 5.515625 13.8125 5.515625 26.8125 
Q 5.515625 40.234375 12.765625 48.109375 
Q 20.015625 56 32.328125 56 
Q 43.359375 56 49.78125 48.890625 
Q 56.203125 41.796875 56.203125 29.59375 
z
M 47.21875 32.234375 
Q 47.125 39.59375 43.09375 43.984375 
Q 39.0625 48.390625 32.421875 48.390625 
Q 24.90625 48.390625 20.390625 44.140625 
Q 15.875 39.890625 15.1875 32.171875 
z
" id="DejaVuSans-101"/>
       <path d="M 9.421875 75.984375 
L 18.40625 75.984375 
L 18.40625 0 
L 9.421875 0 
z
" id="DejaVuSans-108"/>
       <path d="M 52 44.1875 
Q 55.375 50.25 60.0625 53.125 
Q 64.75 56 71.09375 56 
Q 79.640625 56 84.28125 50.015625 
Q 88.921875 44.046875 88.921875 33.015625 
L 88.921875 0 
L 79.890625 0 
L 79.890625 32.71875 
Q 79.890625 40.578125 77.09375 44.375 
Q 74.3125 48.1875 68.609375 48.1875 
Q 61.625 48.1875 57.5625 43.546875 
Q 53.515625 38.921875 53.515625 30.90625 
L 53.515625 0 
L 44.484375 0 
L 44.484375 32.71875 
Q 44.484375 40.625 41.703125 44.40625 
Q 38.921875 48.1875 33.109375 48.1875 
Q 26.21875 48.1875 22.15625 43.53125 
Q 18.109375 38.875 18.109375 30.90625 
L 18.109375 0 
L 9.078125 0 
L 9.078125 54.6875 
L 18.109375 54.6875 
L 18.109375 46.1875 
Q 21.1875 51.21875 25.484375 53.609375 
Q 29.78125 56 35.6875 56 
Q 41.65625 56 45.828125 52.96875 
Q 50 49.953125 52 44.1875 
z
" id="DejaVuSans-109"/>
       <path d="M 44.28125 53.078125 
L 44.28125 44.578125 
Q 40.484375 46.53125 36.375 47.5 
Q 32.28125 48.484375 27.875 48.484375 
Q 21.1875 48.484375 17.84375 46.4375 
Q 14.5 44.390625 14.5 40.28125 
Q 14.5 37.15625 16.890625 35.375 
Q 19.28125 33.59375 26.515625 31.984375 
L 29.59375 31.296875 
Q 39.15625 29.25 43.1875 25.515625 
Q 47.21875 21.78125 47.21875 15.09375 
Q 47.21875 7.46875 41.1875 3.015625 
Q 35.15625 -1.421875 24.609375 -1.421875 
Q 20.21875 -1.421875 15.453125 -0.5625 
Q 10.6875 0.296875 5.421875 2 
L 5.421875 11.28125 
Q 10.40625 8.6875 15.234375 7.390625 
Q 20.0625 6.109375 24.8125 6.109375 
Q 31.15625 6.109375 34.5625 8.28125 
Q 37.984375 10.453125 37.984375 14.40625 
Q 37.984375 18.0625 35.515625 20.015625 
Q 33.0625 21.96875 24.703125 23.78125 
L 21.578125 24.515625 
Q 13.234375 26.265625 9.515625 29.90625 
Q 5.8125 33.546875 5.8125 39.890625 
Q 5.8125 47.609375 11.28125 51.796875 
Q 16.75 56 26.8125 56 
Q 31.78125 56 36.171875 55.265625 
Q 40.578125 54.546875 44.28125 53.078125 
z
" id="DejaVuSans-115"/>
      </defs>
      <use xlink:href="#DejaVuSans-49"/>
      <use x="63.623047" xlink:href="#DejaVuSans-48"/>
      <use x="127.246094" xlink:href="#DejaVuSans-32"/>
      <use x="159.033203" xlink:href="#DejaVuSans-101"/>
      <use x="220.556641" xlink:href="#DejaVuSans-108"/>
      <use x="248.339844" xlink:href="#DejaVuSans-101"/>
      <use x="309.863281" xlink:href="#DejaVuSans-109"/>
      <use x="407.275391" xlink:href="#DejaVuSans-101"/>
      <use x="468.798828" xlink:href="#DejaVuSans-110"/>
      <use x="532.177734" xlink:href="#DejaVuSans-116"/>
      <use x="571.386719" xlink:href="#DejaVuSans-115"/>
     </g>
    </g>
    <g id="line2d_23">
     <path d="M 336.324062 53.254688 
L 356.324062 53.254688 
" style="fill:none;stroke:#2ca02c;stroke-dasharray:1.5,2.475;stroke-dashoffset:0;stroke-width:1.5;"/>
    </g>
    <g id="line2d_24"/>
    <g id="text_17">
     <!-- 25 elements -->
     <g transform="translate(364.324062 56.754688)scale(0.1 -0.1)">
      <defs>
       <path d="M 10.796875 72.90625 
L 49.515625 72.90625 
L 49.515625 64.59375 
L 19.828125 64.59375 
L 19.828125 46.734375 
Q 21.96875 47.46875 24.109375 47.828125 
Q 26.265625 48.1875 28.421875 48.1875 
Q 40.625 48.1875 47.75 41.5 
Q 54.890625 34.8125 54.890625 23.390625 
Q 54.890625 11.625 47.5625 5.09375 
Q 40.234375 -1.421875 26.90625 -1.421875 
Q 22.3125 -1.421875 17.546875 -0.640625 
Q 12.796875 0.140625 7.71875 1.703125 
L 7.71875 11.625 
Q 12.109375 9.234375 16.796875 8.0625 
Q 21.484375 6.890625 26.703125 6.890625 
Q 35.15625 6.890625 40.078125 11.328125 
Q 45.015625 15.765625 45.015625 23.390625 
Q 45.015625 31 40.078125 35.4375 
Q 35.15625 39.890625 26.703125 39.890625 
Q 22.75 39.890625 18.8125 39.015625 
Q 14.890625 38.140625 10.796875 36.28125 
z
" id="DejaVuSans-53"/>
      </defs>
      <use xlink:href="#DejaVuSans-50"/>
      <use x="63.623047" xlink:href="#DejaVuSans-53"/>
      <use x="127.246094" xlink:href="#DejaVuSans-32"/>
      <use x="159.033203" xlink:href="#DejaVuSans-101"/>
      <use x="220.556641" xlink:href="#DejaVuSans-108"/>
      <use x="248.339844" xlink:href="#DejaVuSans-101"/>
      <use x="309.863281" xlink:href="#DejaVuSans-109"/>
      <use x="407.275391" xlink:href="#DejaVuSans-101"/>
      <use x="468.798828" xlink:href="#DejaVuSans-110"/>
      <use x="532.177734" xlink:href="#DejaVuSans-116"/>
      <use x="571.386719" xlink:href="#DejaVuSans-115"/>
     </g>
    </g>
    <g id="line2d_25">
     <path d="M 336.324062 67.932813 
L 356.324062 67.932813 
" style="fill:none;stroke:#d62728;stroke-dasharray:1.5,2.475;stroke-dashoffset:0;stroke-width:1.5;"/>
    </g>
    <g id="line2d_26"/>
    <g id="text_18">
     <!-- 50 elements -->
     <g transform="translate(364.324062 71.432813)scale(0.1 -0.1)">
      <use xlink:href="#DejaVuSans-53"/>
      <use x="63.623047" xlink:href="#DejaVuSans-48"/>
      <use x="127.246094" xlink:href="#DejaVuSans-32"/>
      <use x="159.033203" xlink:href="#DejaVuSans-101"/>
      <use x="220.556641" xlink:href="#DejaVuSans-108"/>
      <use x="248.339844" xlink:href="#DejaVuSans-101"/>
      <use x="309.863281" xlink:href="#DejaVuSans-109"/>
      <use x="407.275391" xlink:href="#DejaVuSans-101"/>
      <use x="468.798828" xlink:href="#DejaVuSans-110"/>
      <use x="532.177734" xlink:href="#DejaVuSans-116"/>
      <use x="571.386719" xlink:href="#DejaVuSans-115"/>
     </g>
    </g>
    <g id="line2d_27">
     <path d="M 336.324062 82.610938 
L 356.324062 82.610938 
" style="fill:none;stroke:#9467bd;stroke-dasharray:1.5,2.475;stroke-dashoffset:0;stroke-width:1.5;"/>
    </g>
    <g id="line2d_28"/>
    <g id="text_19">
     <!-- 100 elements -->
     <g transform="translate(364.324062 86.110938)scale(0.1 -0.1)">
      <use xlink:href="#DejaVuSans-49"/>
      <use x="63.623047" xlink:href="#DejaVuSans-48"/>
      <use x="127.246094" xlink:href="#DejaVuSans-48"/>
      <use x="190.869141" xlink:href="#DejaVuSans-32"/>
      <use x="222.65625" xlink:href="#DejaVuSans-101"/>
      <use x="284.179688" xlink:href="#DejaVuSans-108"/>
      <use x="311.962891" xlink:href="#DejaVuSans-101"/>
      <use x="373.486328" xlink:href="#DejaVuSans-109"/>
      <use x="470.898438" xlink:href="#DejaVuSans-101"/>
      <use x="532.421875" xlink:href="#DejaVuSans-110"/>
      <use x="595.800781" xlink:href="#DejaVuSans-116"/>
      <use x="635.009766" xlink:href="#DejaVuSans-115"/>
     </g>
    </g>
    <g id="line2d_29">
     <path d="M 336.324062 97.289063 
L 356.324062 97.289063 
" style="fill:none;stroke:#8c564b;stroke-dasharray:1.5,2.475;stroke-dashoffset:0;stroke-width:1.5;"/>
    </g>
    <g id="line2d_30"/>
    <g id="text_20">
     <!-- 200 elements -->
     <g transform="translate(364.324062 100.789063)scale(0.1 -0.1)">
      <use xlink:href="#DejaVuSans-50"/>
      <use x="63.623047" xlink:href="#DejaVuSans-48"/>
      <use x="127.246094" xlink:href="#DejaVuSans-48"/>
      <use x="190.869141" xlink:href="#DejaVuSans-32"/>
      <use x="222.65625" xlink:href="#DejaVuSans-101"/>
      <use x="284.179688" xlink:href="#DejaVuSans-108"/>
      <use x="311.962891" xlink:href="#DejaVuSans-101"/>
      <use x="373.486328" xlink:href="#DejaVuSans-109"/>
      <use x="470.898438" xlink:href="#DejaVuSans-101"/>
      <use x="532.421875" xlink:href="#DejaVuSans-110"/>
      <use x="595.800781" xlink:href="#DejaVuSans-116"/>
      <use x="635.009766" xlink:href="#DejaVuSans-115"/>
     </g>
    </g>
   </g>
  </g>
 </g>
 <defs>
  <clipPath id="pe0cc2a4233">
   <rect height="292.84" width="391.777" x="50.258" y="10.8"/>
  </clipPath>
 </defs>
</svg>
