<?xml version="1.0" encoding="utf-8" standalone="no"?>
<!DOCTYPE svg PUBLIC "-//W3C//DTD SVG 1.1//EN"
  "http://www.w3.org/Graphics/SVG/1.1/DTD/svg11.dtd">
<!-- Created with matplotlib (https://matplotlib.org/) -->
<svg height="345.6pt" version="1.1" viewBox="0 0 460.8 345.6" width="460.8pt" xmlns="http://www.w3.org/2000/svg" xmlns:xlink="http://www.w3.org/1999/xlink">
 <metadata>
  <rdf:RDF xmlns:cc="http://creativecommons.org/ns#" xmlns:dc="http://purl.org/dc/elements/1.1/" xmlns:rdf="http://www.w3.org/1999/02/22-rdf-syntax-ns#">
   <cc:Work>
    <dc:type rdf:resource="http://purl.org/dc/dcmitype/StillImage"/>
    <dc:date>2021-03-07T21:57:31.292493</dc:date>
    <dc:format>image/svg+xml</dc:format>
    <dc:creator>
     <cc:Agent>
      <dc:title>Matplotlib v3.3.4, https://matplotlib.org/</dc:title>
     </cc:Agent>
    </dc:creator>
   </cc:Work>
  </rdf:RDF>
 </metadata>
 <defs>
  <style type="text/css">*{stroke-linecap:butt;stroke-linejoin:round;}</style>
 </defs>
 <g id="figure_1">
  <g id="patch_1">
   <path d="M 0 345.6 
L 460.8 345.6 
L 460.8 0 
L 0 0 
z
" style="fill:#ffffff;"/>
  </g>
  <g id="axes_1">
   <g id="patch_2">
    <path d="M 50.258 303.64 
L 442.035 303.64 
L 442.035 10.8 
L 50.258 10.8 
z
" style="fill:#ffffff;"/>
   </g>
   <g id="matplotlib.axis_1">
    <g id="xtick_1">
     <g id="line2d_1">
      <defs>
       <path d="M 0 0 
L 0 3.5 
" id="m8adf11ffd3" style="stroke:#000000;stroke-width:0.8;"/>
      </defs>
      <g>
       <use style="stroke:#000000;stroke-width:0.8;" x="50.258" xlink:href="#m8adf11ffd3" y="303.64"/>
      </g>
     </g>
     <g id="text_1">
      <!-- 0.0 -->
      <g transform="translate(42.306438 318.238437)scale(0.1 -0.1)">
       <defs>
        <path d="M 31.78125 66.40625 
Q 24.171875 66.40625 20.328125 58.90625 
Q 16.5 51.421875 16.5 36.375 
Q 16.5 21.390625 20.328125 13.890625 
Q 24.171875 6.390625 31.78125 6.390625 
Q 39.453125 6.390625 43.28125 13.890625 
Q 47.125 21.390625 47.125 36.375 
Q 47.125 51.421875 43.28125 58.90625 
Q 39.453125 66.40625 31.78125 66.40625 
z
M 31.78125 74.21875 
Q 44.046875 74.21875 50.515625 64.515625 
Q 56.984375 54.828125 56.984375 36.375 
Q 56.984375 17.96875 50.515625 8.265625 
Q 44.046875 -1.421875 31.78125 -1.421875 
Q 19.53125 -1.421875 13.0625 8.265625 
Q 6.59375 17.96875 6.59375 36.375 
Q 6.59375 54.828125 13.0625 64.515625 
Q 19.53125 74.21875 31.78125 74.21875 
z
" id="DejaVuSans-48"/>
        <path d="M 10.6875 12.40625 
L 21 12.40625 
L 21 0 
L 10.6875 0 
z
" id="DejaVuSans-46"/>
       </defs>
       <use xlink:href="#DejaVuSans-48"/>
       <use x="63.623047" xlink:href="#DejaVuSans-46"/>
       <use x="95.410156" xlink:href="#DejaVuSans-48"/>
      </g>
     </g>
    </g>
    <g id="xtick_2">
     <g id="line2d_2">
      <g>
       <use style="stroke:#000000;stroke-width:0.8;" x="128.6134" xlink:href="#m8adf11ffd3" y="303.64"/>
      </g>
     </g>
     <g id="text_2">
      <!-- 0.2 -->
      <g transform="translate(120.661838 318.238437)scale(0.1 -0.1)">
       <defs>
        <path d="M 19.1875 8.296875 
L 53.609375 8.296875 
L 53.609375 0 
L 7.328125 0 
L 7.328125 8.296875 
Q 12.9375 14.109375 22.625 23.890625 
Q 32.328125 33.6875 34.8125 36.53125 
Q 39.546875 41.84375 41.421875 45.53125 
Q 43.3125 49.21875 43.3125 52.78125 
Q 43.3125 58.59375 39.234375 62.25 
Q 35.15625 65.921875 28.609375 65.921875 
Q 23.96875 65.921875 18.8125 64.3125 
Q 13.671875 62.703125 7.8125 59.421875 
L 7.8125 69.390625 
Q 13.765625 71.78125 18.9375 73 
Q 24.125 74.21875 28.421875 74.21875 
Q 39.75 74.21875 46.484375 68.546875 
Q 53.21875 62.890625 53.21875 53.421875 
Q 53.21875 48.921875 51.53125 44.890625 
Q 49.859375 40.875 45.40625 35.40625 
Q 44.1875 33.984375 37.640625 27.21875 
Q 31.109375 20.453125 19.1875 8.296875 
z
" id="DejaVuSans-50"/>
       </defs>
       <use xlink:href="#DejaVuSans-48"/>
       <use x="63.623047" xlink:href="#DejaVuSans-46"/>
       <use x="95.410156" xlink:href="#DejaVuSans-50"/>
      </g>
     </g>
    </g>
    <g id="xtick_3">
     <g id="line2d_3">
      <g>
       <use style="stroke:#000000;stroke-width:0.8;" x="206.9688" xlink:href="#m8adf11ffd3" y="303.64"/>
      </g>
     </g>
     <g id="text_3">
      <!-- 0.4 -->
      <g transform="translate(199.017237 318.238437)scale(0.1 -0.1)">
       <defs>
        <path d="M 37.796875 64.3125 
L 12.890625 25.390625 
L 37.796875 25.390625 
z
M 35.203125 72.90625 
L 47.609375 72.90625 
L 47.609375 25.390625 
L 58.015625 25.390625 
L 58.015625 17.1875 
L 47.609375 17.1875 
L 47.609375 0 
L 37.796875 0 
L 37.796875 17.1875 
L 4.890625 17.1875 
L 4.890625 26.703125 
z
" id="DejaVuSans-52"/>
       </defs>
       <use xlink:href="#DejaVuSans-48"/>
       <use x="63.623047" xlink:href="#DejaVuSans-46"/>
       <use x="95.410156" xlink:href="#DejaVuSans-52"/>
      </g>
     </g>
    </g>
    <g id="xtick_4">
     <g id="line2d_4">
      <g>
       <use style="stroke:#000000;stroke-width:0.8;" x="285.3242" xlink:href="#m8adf11ffd3" y="303.64"/>
      </g>
     </g>
     <g id="text_4">
      <!-- 0.6 -->
      <g transform="translate(277.372637 318.238437)scale(0.1 -0.1)">
       <defs>
        <path d="M 33.015625 40.375 
Q 26.375 40.375 22.484375 35.828125 
Q 18.609375 31.296875 18.609375 23.390625 
Q 18.609375 15.53125 22.484375 10.953125 
Q 26.375 6.390625 33.015625 6.390625 
Q 39.65625 6.390625 43.53125 10.953125 
Q 47.40625 15.53125 47.40625 23.390625 
Q 47.40625 31.296875 43.53125 35.828125 
Q 39.65625 40.375 33.015625 40.375 
z
M 52.59375 71.296875 
L 52.59375 62.3125 
Q 48.875 64.0625 45.09375 64.984375 
Q 41.3125 65.921875 37.59375 65.921875 
Q 27.828125 65.921875 22.671875 59.328125 
Q 17.53125 52.734375 16.796875 39.40625 
Q 19.671875 43.65625 24.015625 45.921875 
Q 28.375 48.1875 33.59375 48.1875 
Q 44.578125 48.1875 50.953125 41.515625 
Q 57.328125 34.859375 57.328125 23.390625 
Q 57.328125 12.15625 50.6875 5.359375 
Q 44.046875 -1.421875 33.015625 -1.421875 
Q 20.359375 -1.421875 13.671875 8.265625 
Q 6.984375 17.96875 6.984375 36.375 
Q 6.984375 53.65625 15.1875 63.9375 
Q 23.390625 74.21875 37.203125 74.21875 
Q 40.921875 74.21875 44.703125 73.484375 
Q 48.484375 72.75 52.59375 71.296875 
z
" id="DejaVuSans-54"/>
       </defs>
       <use xlink:href="#DejaVuSans-48"/>
       <use x="63.623047" xlink:href="#DejaVuSans-46"/>
       <use x="95.410156" xlink:href="#DejaVuSans-54"/>
      </g>
     </g>
    </g>
    <g id="xtick_5">
     <g id="line2d_5">
      <g>
       <use style="stroke:#000000;stroke-width:0.8;" x="363.6796" xlink:href="#m8adf11ffd3" y="303.64"/>
      </g>
     </g>
     <g id="text_5">
      <!-- 0.8 -->
      <g transform="translate(355.728037 318.238437)scale(0.1 -0.1)">
       <defs>
        <path d="M 31.78125 34.625 
Q 24.75 34.625 20.71875 30.859375 
Q 16.703125 27.09375 16.703125 20.515625 
Q 16.703125 13.921875 20.71875 10.15625 
Q 24.75 6.390625 31.78125 6.390625 
Q 38.8125 6.390625 42.859375 10.171875 
Q 46.921875 13.96875 46.921875 20.515625 
Q 46.921875 27.09375 42.890625 30.859375 
Q 38.875 34.625 31.78125 34.625 
z
M 21.921875 38.8125 
Q 15.578125 40.375 12.03125 44.71875 
Q 8.5 49.078125 8.5 55.328125 
Q 8.5 64.0625 14.71875 69.140625 
Q 20.953125 74.21875 31.78125 74.21875 
Q 42.671875 74.21875 48.875 69.140625 
Q 55.078125 64.0625 55.078125 55.328125 
Q 55.078125 49.078125 51.53125 44.71875 
Q 48 40.375 41.703125 38.8125 
Q 48.828125 37.15625 52.796875 32.3125 
Q 56.78125 27.484375 56.78125 20.515625 
Q 56.78125 9.90625 50.3125 4.234375 
Q 43.84375 -1.421875 31.78125 -1.421875 
Q 19.734375 -1.421875 13.25 4.234375 
Q 6.78125 9.90625 6.78125 20.515625 
Q 6.78125 27.484375 10.78125 32.3125 
Q 14.796875 37.15625 21.921875 38.8125 
z
M 18.3125 54.390625 
Q 18.3125 48.734375 21.84375 45.5625 
Q 25.390625 42.390625 31.78125 42.390625 
Q 38.140625 42.390625 41.71875 45.5625 
Q 45.3125 48.734375 45.3125 54.390625 
Q 45.3125 60.0625 41.71875 63.234375 
Q 38.140625 66.40625 31.78125 66.40625 
Q 25.390625 66.40625 21.84375 63.234375 
Q 18.3125 60.0625 18.3125 54.390625 
z
" id="DejaVuSans-56"/>
       </defs>
       <use xlink:href="#DejaVuSans-48"/>
       <use x="63.623047" xlink:href="#DejaVuSans-46"/>
       <use x="95.410156" xlink:href="#DejaVuSans-56"/>
      </g>
     </g>
    </g>
    <g id="xtick_6">
     <g id="line2d_6">
      <g>
       <use style="stroke:#000000;stroke-width:0.8;" x="442.035" xlink:href="#m8adf11ffd3" y="303.64"/>
      </g>
     </g>
     <g id="text_6">
      <!-- 1.0 -->
      <g transform="translate(434.083437 318.238437)scale(0.1 -0.1)">
       <defs>
        <path d="M 12.40625 8.296875 
L 28.515625 8.296875 
L 28.515625 63.921875 
L 10.984375 60.40625 
L 10.984375 69.390625 
L 28.421875 72.90625 
L 38.28125 72.90625 
L 38.28125 8.296875 
L 54.390625 8.296875 
L 54.390625 0 
L 12.40625 0 
z
" id="DejaVuSans-49"/>
       </defs>
       <use xlink:href="#DejaVuSans-49"/>
       <use x="63.623047" xlink:href="#DejaVuSans-46"/>
       <use x="95.410156" xlink:href="#DejaVuSans-48"/>
      </g>
     </g>
    </g>
    <g id="text_7">
     <!-- $x$ -->
     <g transform="translate(243.1465 331.916562)scale(0.1 -0.1)">
      <defs>
       <path d="M 60.015625 54.6875 
L 34.90625 27.875 
L 50.296875 0 
L 39.984375 0 
L 28.421875 21.6875 
L 8.296875 0 
L -2.59375 0 
L 24.3125 28.8125 
L 10.015625 54.6875 
L 20.3125 54.6875 
L 30.8125 34.90625 
L 49.125 54.6875 
z
" id="DejaVuSans-Oblique-120"/>
      </defs>
      <use transform="translate(0 0.3125)" xlink:href="#DejaVuSans-Oblique-120"/>
     </g>
    </g>
   </g>
   <g id="matplotlib.axis_2">
    <g id="ytick_1">
     <g id="line2d_7">
      <defs>
       <path d="M 0 0 
L -3.5 0 
" id="mbf1d71d5d6" style="stroke:#000000;stroke-width:0.8;"/>
      </defs>
      <g>
       <use style="stroke:#000000;stroke-width:0.8;" x="50.258" xlink:href="#mbf1d71d5d6" y="303.64"/>
      </g>
     </g>
     <g id="text_8">
      <!-- 0.0 -->
      <g transform="translate(27.354875 307.439219)scale(0.1 -0.1)">
       <use xlink:href="#DejaVuSans-48"/>
       <use x="63.623047" xlink:href="#DejaVuSans-46"/>
       <use x="95.410156" xlink:href="#DejaVuSans-48"/>
      </g>
     </g>
    </g>
    <g id="ytick_2">
     <g id="line2d_8">
      <g>
       <use style="stroke:#000000;stroke-width:0.8;" x="50.258" xlink:href="#mbf1d71d5d6" y="250.396364"/>
      </g>
     </g>
     <g id="text_9">
      <!-- 0.2 -->
      <g transform="translate(27.354875 254.195582)scale(0.1 -0.1)">
       <use xlink:href="#DejaVuSans-48"/>
       <use x="63.623047" xlink:href="#DejaVuSans-46"/>
       <use x="95.410156" xlink:href="#DejaVuSans-50"/>
      </g>
     </g>
    </g>
    <g id="ytick_3">
     <g id="line2d_9">
      <g>
       <use style="stroke:#000000;stroke-width:0.8;" x="50.258" xlink:href="#mbf1d71d5d6" y="197.152727"/>
      </g>
     </g>
     <g id="text_10">
      <!-- 0.4 -->
      <g transform="translate(27.354875 200.951946)scale(0.1 -0.1)">
       <use xlink:href="#DejaVuSans-48"/>
       <use x="63.623047" xlink:href="#DejaVuSans-46"/>
       <use x="95.410156" xlink:href="#DejaVuSans-52"/>
      </g>
     </g>
    </g>
    <g id="ytick_4">
     <g id="line2d_10">
      <g>
       <use style="stroke:#000000;stroke-width:0.8;" x="50.258" xlink:href="#mbf1d71d5d6" y="143.909091"/>
      </g>
     </g>
     <g id="text_11">
      <!-- 0.6 -->
      <g transform="translate(27.354875 147.70831)scale(0.1 -0.1)">
       <use xlink:href="#DejaVuSans-48"/>
       <use x="63.623047" xlink:href="#DejaVuSans-46"/>
       <use x="95.410156" xlink:href="#DejaVuSans-54"/>
      </g>
     </g>
    </g>
    <g id="ytick_5">
     <g id="line2d_11">
      <g>
       <use style="stroke:#000000;stroke-width:0.8;" x="50.258" xlink:href="#mbf1d71d5d6" y="90.665455"/>
      </g>
     </g>
     <g id="text_12">
      <!-- 0.8 -->
      <g transform="translate(27.354875 94.464673)scale(0.1 -0.1)">
       <use xlink:href="#DejaVuSans-48"/>
       <use x="63.623047" xlink:href="#DejaVuSans-46"/>
       <use x="95.410156" xlink:href="#DejaVuSans-56"/>
      </g>
     </g>
    </g>
    <g id="ytick_6">
     <g id="line2d_12">
      <g>
       <use style="stroke:#000000;stroke-width:0.8;" x="50.258" xlink:href="#mbf1d71d5d6" y="37.421818"/>
      </g>
     </g>
     <g id="text_13">
      <!-- 1.0 -->
      <g transform="translate(27.354875 41.221037)scale(0.1 -0.1)">
       <use xlink:href="#DejaVuSans-49"/>
       <use x="63.623047" xlink:href="#DejaVuSans-46"/>
       <use x="95.410156" xlink:href="#DejaVuSans-48"/>
      </g>
     </g>
    </g>
    <g id="text_14">
     <!-- $f(x)$ and $f_h(x)$ -->
     <g transform="translate(21.275188 189.42)rotate(-90)scale(0.1 -0.1)">
      <defs>
       <path d="M 47.796875 75.984375 
L 46.390625 68.5 
L 37.796875 68.5 
Q 32.90625 68.5 30.6875 66.578125 
Q 28.46875 64.65625 27.390625 59.515625 
L 26.421875 54.6875 
L 41.21875 54.6875 
L 39.890625 47.703125 
L 25.09375 47.703125 
L 15.828125 0 
L 6.78125 0 
L 16.109375 47.703125 
L 7.515625 47.703125 
L 8.796875 54.6875 
L 17.390625 54.6875 
L 18.109375 58.5 
Q 19.96875 68.171875 24.625 72.078125 
Q 29.296875 75.984375 39.3125 75.984375 
z
" id="DejaVuSans-Oblique-102"/>
       <path d="M 31 75.875 
Q 24.46875 64.65625 21.28125 53.65625 
Q 18.109375 42.671875 18.109375 31.390625 
Q 18.109375 20.125 21.3125 9.0625 
Q 24.515625 -2 31 -13.1875 
L 23.1875 -13.1875 
Q 15.875 -1.703125 12.234375 9.375 
Q 8.59375 20.453125 8.59375 31.390625 
Q 8.59375 42.28125 12.203125 53.3125 
Q 15.828125 64.359375 23.1875 75.875 
z
" id="DejaVuSans-40"/>
       <path d="M 8.015625 75.875 
L 15.828125 75.875 
Q 23.140625 64.359375 26.78125 53.3125 
Q 30.421875 42.28125 30.421875 31.390625 
Q 30.421875 20.453125 26.78125 9.375 
Q 23.140625 -1.703125 15.828125 -13.1875 
L 8.015625 -13.1875 
Q 14.5 -2 17.703125 9.0625 
Q 20.90625 20.125 20.90625 31.390625 
Q 20.90625 42.671875 17.703125 53.65625 
Q 14.5 64.65625 8.015625 75.875 
z
" id="DejaVuSans-41"/>
       <path id="DejaVuSans-32"/>
       <path d="M 34.28125 27.484375 
Q 23.390625 27.484375 19.1875 25 
Q 14.984375 22.515625 14.984375 16.5 
Q 14.984375 11.71875 18.140625 8.90625 
Q 21.296875 6.109375 26.703125 6.109375 
Q 34.1875 6.109375 38.703125 11.40625 
Q 43.21875 16.703125 43.21875 25.484375 
L 43.21875 27.484375 
z
M 52.203125 31.203125 
L 52.203125 0 
L 43.21875 0 
L 43.21875 8.296875 
Q 40.140625 3.328125 35.546875 0.953125 
Q 30.953125 -1.421875 24.3125 -1.421875 
Q 15.921875 -1.421875 10.953125 3.296875 
Q 6 8.015625 6 15.921875 
Q 6 25.140625 12.171875 29.828125 
Q 18.359375 34.515625 30.609375 34.515625 
L 43.21875 34.515625 
L 43.21875 35.40625 
Q 43.21875 41.609375 39.140625 45 
Q 35.0625 48.390625 27.6875 48.390625 
Q 23 48.390625 18.546875 47.265625 
Q 14.109375 46.140625 10.015625 43.890625 
L 10.015625 52.203125 
Q 14.9375 54.109375 19.578125 55.046875 
Q 24.21875 56 28.609375 56 
Q 40.484375 56 46.34375 49.84375 
Q 52.203125 43.703125 52.203125 31.203125 
z
" id="DejaVuSans-97"/>
       <path d="M 54.890625 33.015625 
L 54.890625 0 
L 45.90625 0 
L 45.90625 32.71875 
Q 45.90625 40.484375 42.875 44.328125 
Q 39.84375 48.1875 33.796875 48.1875 
Q 26.515625 48.1875 22.3125 43.546875 
Q 18.109375 38.921875 18.109375 30.90625 
L 18.109375 0 
L 9.078125 0 
L 9.078125 54.6875 
L 18.109375 54.6875 
L 18.109375 46.1875 
Q 21.34375 51.125 25.703125 53.5625 
Q 30.078125 56 35.796875 56 
Q 45.21875 56 50.046875 50.171875 
Q 54.890625 44.34375 54.890625 33.015625 
z
" id="DejaVuSans-110"/>
       <path d="M 45.40625 46.390625 
L 45.40625 75.984375 
L 54.390625 75.984375 
L 54.390625 0 
L 45.40625 0 
L 45.40625 8.203125 
Q 42.578125 3.328125 38.25 0.953125 
Q 33.9375 -1.421875 27.875 -1.421875 
Q 17.96875 -1.421875 11.734375 6.484375 
Q 5.515625 14.40625 5.515625 27.296875 
Q 5.515625 40.1875 11.734375 48.09375 
Q 17.96875 56 27.875 56 
Q 33.9375 56 38.25 53.625 
Q 42.578125 51.265625 45.40625 46.390625 
z
M 14.796875 27.296875 
Q 14.796875 17.390625 18.875 11.75 
Q 22.953125 6.109375 30.078125 6.109375 
Q 37.203125 6.109375 41.296875 11.75 
Q 45.40625 17.390625 45.40625 27.296875 
Q 45.40625 37.203125 41.296875 42.84375 
Q 37.203125 48.484375 30.078125 48.484375 
Q 22.953125 48.484375 18.875 42.84375 
Q 14.796875 37.203125 14.796875 27.296875 
z
" id="DejaVuSans-100"/>
       <path d="M 55.71875 33.015625 
L 49.3125 0 
L 40.28125 0 
L 46.6875 32.671875 
Q 47.125 34.96875 47.359375 36.71875 
Q 47.609375 38.484375 47.609375 39.5 
Q 47.609375 43.609375 45.015625 45.890625 
Q 42.4375 48.1875 37.796875 48.1875 
Q 30.5625 48.1875 25.265625 43.296875 
Q 19.96875 38.421875 18.40625 30.328125 
L 12.5 0 
L 3.515625 0 
L 18.3125 75.984375 
L 27.296875 75.984375 
L 21.484375 46.09375 
Q 24.90625 50.6875 30.21875 53.34375 
Q 35.546875 56 41.40625 56 
Q 48.640625 56 52.609375 52.09375 
Q 56.59375 48.1875 56.59375 41.109375 
Q 56.59375 39.359375 56.375 37.359375 
Q 56.15625 35.359375 55.71875 33.015625 
z
" id="DejaVuSans-Oblique-104"/>
      </defs>
      <use transform="translate(0 0.015625)" xlink:href="#DejaVuSans-Oblique-102"/>
      <use transform="translate(35.205078 0.015625)" xlink:href="#DejaVuSans-40"/>
      <use transform="translate(74.21875 0.015625)" xlink:href="#DejaVuSans-Oblique-120"/>
      <use transform="translate(133.398438 0.015625)" xlink:href="#DejaVuSans-41"/>
      <use transform="translate(172.412109 0.015625)" xlink:href="#DejaVuSans-32"/>
      <use transform="translate(204.199219 0.015625)" xlink:href="#DejaVuSans-97"/>
      <use transform="translate(265.478516 0.015625)" xlink:href="#DejaVuSans-110"/>
      <use transform="translate(328.857422 0.015625)" xlink:href="#DejaVuSans-100"/>
      <use transform="translate(392.333984 0.015625)" xlink:href="#DejaVuSans-32"/>
      <use transform="translate(424.121094 0.015625)" xlink:href="#DejaVuSans-Oblique-102"/>
      <use transform="translate(459.326172 -16.390625)scale(0.7)" xlink:href="#DejaVuSans-Oblique-104"/>
      <use transform="translate(506.425781 0.015625)" xlink:href="#DejaVuSans-40"/>
      <use transform="translate(545.439453 0.015625)" xlink:href="#DejaVuSans-Oblique-120"/>
      <use transform="translate(604.619141 0.015625)" xlink:href="#DejaVuSans-41"/>
     </g>
    </g>
   </g>
   <g id="line2d_13">
    <path clip-path="url(#pafd2293a3e)" d="M 50.258 303.64 
L 59.200711 303.528899 
L 62.495559 303.255041 
L 65.073454 302.822882 
L 67.295615 302.228224 
L 69.306217 301.461717 
L 71.183614 300.508283 
L 72.977171 299.34699 
L 74.722147 297.949878 
L 76.444009 296.282822 
L 78.163128 294.304088 
L 79.895568 291.96493 
L 81.65504 289.208344 
L 83.453298 285.969091 
L 85.301312 282.172123 
L 87.210052 277.730791 
L 89.190487 272.546444 
L 91.255153 266.503873 
L 93.419332 259.465973 
L 95.70261 251.265716 
L 98.131238 241.693547 
L 100.744785 230.464165 
L 103.607111 217.155961 
L 106.839666 201.031196 
L 110.744512 180.361714 
L 117.246057 144.51788 
L 122.742694 114.747047 
L 126.204831 97.19019 
L 129.048351 83.877448 
L 131.520858 73.329069 
L 133.725782 64.863251 
L 135.718361 58.064397 
L 137.532682 52.636326 
L 139.191076 48.350291 
L 140.709997 45.017241 
L 142.101982 42.477556 
L 143.378001 40.59316 
L 144.548632 39.244679 
L 145.62602 38.329432 
L 146.625444 37.762128 
L 147.566493 37.477165 
L 148.474241 37.431949 
L 149.376505 37.610594 
L 150.301099 38.024519 
L 151.271924 38.709644 
L 152.308567 39.722651 
L 153.425916 41.136837 
L 154.636116 43.040596 
L 155.949746 45.53681 
L 157.377383 48.74437 
L 158.929996 52.798607 
L 160.621691 57.858823 
L 162.470489 64.113575 
L 164.501855 71.796402 
L 166.753791 81.212606 
L 169.288983 92.803139 
L 172.226529 107.316441 
L 175.853996 126.423054 
L 181.702057 158.614989 
L 187.947773 192.603932 
L 191.703351 211.817942 
L 194.864994 226.870015 
L 197.690493 239.270689 
L 200.286018 249.687839 
L 202.708378 258.514019 
L 204.993223 266.020281 
L 207.165237 272.411237 
L 209.242049 277.848117 
L 211.238547 282.466805 
L 213.167267 286.381617 
L 215.039571 289.690347 
L 216.866821 292.47783 
L 218.661161 294.817741 
L 220.436305 296.773808 
L 222.208705 298.400928 
L 223.998345 299.745365 
L 225.830687 300.845571 
L 227.74021 301.732945 
L 229.774319 302.431573 
L 232.006274 302.959683 
L 234.562622 303.330106 
L 237.719172 303.552246 
L 242.445575 303.636704 
L 254.182834 303.567352 
L 257.751926 303.327821 
L 260.440302 302.930176 
L 262.723581 302.37141 
L 264.772185 301.643181 
L 266.673481 300.731898 
L 268.481925 299.617762 
L 270.234737 298.274695 
L 271.959733 296.669497 
L 273.678069 294.762159 
L 275.40659 292.505449 
L 277.159402 289.844202 
L 278.948258 286.715638 
L 280.78491 283.045726 
L 282.679546 278.751925 
L 284.643134 273.738494 
L 286.688212 267.893148 
L 288.829276 261.0842 
L 291.084738 253.152178 
L 293.47889 243.899167 
L 296.048166 233.058207 
L 298.848982 220.248307 
L 301.985552 204.826537 
L 305.696859 185.410606 
L 311.001917 156.336624 
L 318.320711 116.378768 
L 321.852584 98.367763 
L 324.732148 84.796217 
L 327.228553 74.064272 
L 329.451498 65.455489 
L 331.458965 58.53963 
L 333.286215 53.014012 
L 334.956362 48.645823 
L 336.485861 45.244483 
L 337.887249 42.648696 
L 339.171887 40.718123 
L 340.350353 39.332035 
L 341.434401 38.386675 
L 342.438919 37.795264 
L 343.383494 37.490313 
L 344.292809 37.427409 
L 345.194289 37.588547 
L 346.116141 37.983106 
L 347.082656 38.645342 
L 348.113422 39.630193 
L 349.224111 41.010218 
L 350.426476 42.871952 
L 351.731487 45.317481 
L 353.149721 48.46449 
L 354.692148 52.447191 
L 356.372482 57.422649 
L 358.20835 63.576813 
L 360.224045 71.137264 
L 362.456784 80.403819 
L 364.966902 91.804503 
L 367.866055 106.047935 
L 371.419084 124.679658 
L 376.856171 154.543053 
L 383.739308 192.092102 
L 387.514866 211.437492 
L 390.686304 226.562479 
L 393.518071 239.014667 
L 396.117906 249.471064 
L 398.543792 258.330106 
L 400.83138 265.863542 
L 403.005744 272.277847 
L 405.084515 277.734659 
L 407.082972 282.371143 
L 409.013259 286.300969 
L 410.886738 289.62235 
L 412.714772 292.42051 
L 414.509896 294.769946 
L 416.285431 296.734078 
L 418.05744 298.367769 
L 419.846296 299.717985 
L 421.677463 300.82337 
L 423.584636 301.715152 
L 425.61561 302.417901 
L 427.84208 302.949662 
L 430.389025 303.323486 
L 433.526379 303.548832 
L 438.187746 303.636151 
L 442.035 303.64 
L 442.035 303.64 
" style="fill:none;stroke:#1f77b4;stroke-linecap:square;stroke-width:2;"/>
   </g>
   <g id="line2d_14">
    <path clip-path="url(#pafd2293a3e)" d="M 50.258 307.144025 
L 89.458854 289.289298 
L 128.725918 66.527414 
L 167.810415 66.6373 
L 207.091191 289.476395 
L 246.281076 307.083146 
L 285.347158 289.290413 
L 324.614614 66.527414 
L 363.699111 66.638415 
L 402.979495 289.476307 
L 442.035 307.144025 
L 442.035 307.144025 
" style="fill:none;stroke:#ff7f0e;stroke-dasharray:1.5,2.475;stroke-dashoffset:0;stroke-width:1.5;"/>
   </g>
   <g id="line2d_15">
    <path clip-path="url(#pafd2293a3e)" d="M 50.258 303.580267 
L 66.080714 303.440407 
L 81.666793 291.856592 
L 97.417028 247.483876 
L 114.209783 161.99935 
L 128.872443 81.854155 
L 144.284574 33.918982 
L 144.370765 34.013247 
L 160.001508 51.271572 
L 176.173295 127.006866 
L 191.696299 213.564865 
L 207.160928 275.383833 
L 222.788536 300.65955 
L 238.874132 303.782701 
L 254.534258 303.671594 
L 269.732087 300.500847 
L 285.412585 274.714533 
L 301.285054 210.332062 
L 317.32207 120.886961 
L 332.485814 50.89562 
L 348.008426 33.918982 
L 348.047604 34.04044 
L 363.830748 83.492411 
L 380.727323 175.941854 
L 395.274801 248.92864 
L 410.852654 292.160291 
L 426.551957 303.552109 
L 442.035 303.580267 
L 442.035 303.580267 
" style="fill:none;stroke:#2ca02c;stroke-dasharray:1.5,2.475;stroke-dashoffset:0;stroke-width:1.5;"/>
   </g>
   <g id="line2d_16">
    <path clip-path="url(#pafd2293a3e)" d="M 50.258 303.635723 
L 59.214423 303.524219 
L 66.23429 302.716696 
L 73.93585 299.01656 
L 81.766305 289.609982 
L 89.660228 271.88567 
L 97.619969 244.341799 
L 105.755618 206.867402 
L 115.600592 153.699551 
L 122.079023 118.267388 
L 129.093014 83.188451 
L 136.69898 54.09459 
L 144.4072 38.136095 
L 152.17262 38.246755 
L 160.100627 55.184019 
L 168.162231 86.937676 
L 176.818552 131.516084 
L 186.229437 183.271091 
L 192.055167 213.772512 
L 199.58983 247.483231 
L 207.297658 273.378658 
L 215.065428 290.285285 
L 222.880212 299.330152 
L 230.81057 302.891709 
L 239.437508 303.635405 
L 255.0945 303.525054 
L 262.122986 302.716605 
L 269.824154 299.016791 
L 277.655001 289.609549 
L 285.548924 271.885002 
L 293.508273 244.342689 
L 301.643922 206.868448 
L 311.488896 153.700641 
L 317.967327 118.268384 
L 324.98171 83.18769 
L 332.587676 54.094178 
L 340.295896 38.136095 
L 348.061316 38.247167 
L 355.989323 55.18478 
L 364.050927 86.938672 
L 372.706856 131.514994 
L 382.118133 183.272137 
L 387.943863 213.773402 
L 395.478134 247.482563 
L 403.186354 273.379091 
L 410.954124 290.285516 
L 418.768516 299.330061 
L 426.698874 302.89169 
L 435.325812 303.635405 
L 442.035 303.635723 
L 442.035 303.635723 
" style="fill:none;stroke:#d62728;stroke-dasharray:1.5,2.475;stroke-dashoffset:0;stroke-width:1.5;"/>
   </g>
   <g id="line2d_17">
    <path clip-path="url(#pafd2293a3e)" d="M 50.258 303.639726 
L 59.085136 303.528623 
L 63.044439 303.171281 
L 66.545753 302.463825 
L 70.28566 301.027577 
L 74.130172 298.510173 
L 78.03345 294.536479 
L 81.973947 288.745109 
L 85.94226 280.81767 
L 89.935647 270.505877 
L 93.958417 257.644663 
L 98.024675 242.147275 
L 102.166546 223.964457 
L 106.466302 202.909124 
L 111.205242 177.82744 
L 119.968518 129.562876 
L 123.346423 111.631623 
L 126.093566 97.801471 
L 129.525928 81.785147 
L 133.167891 66.877 
L 136.89957 54.335625 
L 140.677088 44.903263 
L 144.482422 39.066799 
L 148.319489 37.133932 
L 152.239614 39.362971 
L 156.24828 45.938999 
L 160.300826 56.694954 
L 164.402343 71.320863 
L 168.595145 89.52151 
L 172.997547 111.313809 
L 178.085952 138.624516 
L 189.356604 199.90273 
L 192.766243 216.943029 
L 196.301642 233.268601 
L 199.994536 248.55838 
L 203.762651 262.097791 
L 207.573077 273.574193 
L 211.412104 282.899312 
L 215.273462 290.13553 
L 219.158327 295.461977 
L 223.074534 299.137612 
L 227.044806 301.471749 
L 231.120074 302.790751 
L 235.439028 303.411778 
L 240.559167 303.618635 
L 250.545572 303.633642 
L 256.226345 303.450779 
L 258.932743 303.171315 
L 262.434449 302.463756 
L 266.174356 301.027456 
L 270.018868 298.509982 
L 273.921754 294.536757 
L 277.862643 288.744729 
L 281.830956 280.817179 
L 285.823951 270.506486 
L 289.846721 257.645389 
L 293.913371 242.146438 
L 298.055241 223.963522 
L 302.354998 202.908112 
L 307.093546 177.828505 
L 315.856823 129.563952 
L 319.235119 111.630594 
L 321.98187 97.802416 
L 325.414624 81.78432 
L 329.056195 66.87768 
L 332.787874 54.33613 
L 336.565392 44.903575 
L 340.371117 39.066694 
L 344.208185 37.134037 
L 348.12831 39.363282 
L 352.136976 45.939504 
L 356.18913 56.694275 
L 360.291039 71.321691 
L 364.483841 89.522455 
L 368.886243 111.314838 
L 373.974648 138.625592 
L 385.244908 199.901718 
L 388.654939 216.943964 
L 392.189946 233.267764 
L 395.88284 248.557654 
L 399.650955 262.097182 
L 403.461773 273.574684 
L 407.3008 282.899692 
L 411.162158 290.135809 
L 415.046631 295.461786 
L 418.963229 299.137734 
L 422.933501 301.471818 
L 427.00877 302.790785 
L 431.327724 303.411791 
L 436.447863 303.618637 
L 442.035 303.639726 
L 442.035 303.639726 
" style="fill:none;stroke:#9467bd;stroke-dasharray:1.5,2.475;stroke-dashoffset:0;stroke-width:1.5;"/>
   </g>
   <g id="line2d_18">
    <path clip-path="url(#pafd2293a3e)" d="M 50.258 303.639983 
L 59.151739 303.528876 
L 62.408976 303.265418 
L 65.533792 302.719803 
L 67.172205 302.26146 
L 68.921491 301.617507 
L 70.743256 300.742943 
L 72.61556 299.589871 
L 74.525083 298.108465 
L 76.462814 296.248576 
L 78.422877 293.960379 
L 80.400569 291.196657 
L 82.392757 287.91295 
L 84.398265 284.06668 
L 86.415527 279.621624 
L 88.444934 274.543611 
L 90.486878 268.804677 
L 92.543317 262.379059 
L 94.616603 255.246068 
L 96.711437 247.383056 
L 98.833303 238.769721 
L 100.991605 229.374807 
L 103.175372 219.259916 
L 107.509214 197.56736 
L 112.414659 171.243684 
L 124.5625 105.338028 
L 127.011109 93.297264 
L 130.38823 78.003386 
L 132.03918 71.261506 
L 133.753206 64.790087 
L 135.510719 58.76786 
L 137.2984 53.330341 
L 139.109195 48.576559 
L 140.936836 44.589413 
L 142.779365 41.429973 
L 144.635607 39.149348 
L 146.50987 37.788208 
L 148.41665 37.391722 
L 150.376321 38.03231 
L 152.390448 39.790162 
L 154.43866 42.694964 
L 156.508029 46.737507 
L 158.594635 51.894082 
L 160.699655 58.136349 
L 162.828182 65.438704 
L 164.98805 73.780855 
L 167.191015 83.156252 
L 169.457447 93.597448 
L 171.770501 104.969402 
L 176.519626 130.037775 
L 191.232434 209.507532 
L 193.690837 221.413794 
L 197.252094 237.450557 
L 200.803164 251.658045 
L 202.598288 258.129063 
L 204.420837 264.202324 
L 206.264541 269.830187 
L 208.1247 274.982228 
L 209.998963 279.645219 
L 211.885371 283.815695 
L 213.783533 287.501344 
L 215.692272 290.714938 
L 217.613157 293.479499 
L 219.547362 295.8212 
L 221.498021 297.771564 
L 223.469445 299.364746 
L 225.46751 300.636738 
L 227.50201 301.625375 
L 229.587441 302.368637 
L 231.745743 302.903951 
L 234.016876 303.268379 
L 236.424348 303.490156 
L 241.884941 303.63416 
L 252.634529 303.607961 
L 256.937421 303.402232 
L 259.90631 303.038836 
L 263.060509 302.261519 
L 264.809796 301.617589 
L 266.63156 300.74305 
L 268.503865 299.590009 
L 270.413388 298.108638 
L 272.351119 296.248788 
L 274.311181 293.960635 
L 276.288873 291.196959 
L 278.281453 287.912596 
L 280.286961 284.066273 
L 282.304223 279.621161 
L 284.333238 274.544131 
L 286.375574 268.804098 
L 288.431622 262.379697 
L 290.505299 255.245371 
L 292.599741 247.383811 
L 294.721608 238.770531 
L 296.879909 229.375669 
L 299.064068 219.25896 
L 303.39791 197.566332 
L 308.302963 171.244756 
L 320.451196 105.337018 
L 322.899413 93.298182 
L 326.276926 78.002526 
L 327.927876 71.260714 
L 329.641902 64.789369 
L 331.399023 58.768497 
L 333.187095 53.329791 
L 334.997499 48.577016 
L 336.825532 44.589053 
L 338.667669 41.430234 
L 340.523911 39.149505 
L 342.398566 37.788155 
L 344.304954 37.39167 
L 346.265017 38.032467 
L 348.279144 39.790422 
L 350.327356 42.695324 
L 352.396333 46.73705 
L 354.482939 51.893532 
L 356.588351 58.136986 
L 358.716877 65.439422 
L 360.876354 73.780063 
L 363.07971 83.157112 
L 365.346143 93.598366 
L 367.659196 104.970412 
L 372.40793 130.036708 
L 387.12113 209.508526 
L 389.579533 221.414705 
L 393.140398 237.449747 
L 396.691468 251.657291 
L 398.486984 258.12976 
L 400.309532 264.202962 
L 402.152845 269.829608 
L 404.013004 274.981707 
L 405.887659 279.645682 
L 407.774067 283.816102 
L 409.671837 287.500991 
L 411.580968 290.71524 
L 413.501853 293.479755 
L 415.436058 295.821412 
L 417.386717 297.771737 
L 419.357749 299.364608 
L 421.355814 300.636631 
L 423.390706 301.625456 
L 425.475745 302.368578 
L 427.634438 302.903992 
L 429.905572 303.268407 
L 432.312652 303.490147 
L 437.773637 303.634162 
L 442.035 303.639983 
L 442.035 303.639983 
" style="fill:none;stroke:#8c564b;stroke-dasharray:1.5,2.475;stroke-dashoffset:0;stroke-width:1.5;"/>
   </g>
   <g id="patch_3">
    <path d="M 50.258 303.64 
L 50.258 10.8 
" style="fill:none;stroke:#000000;stroke-linecap:square;stroke-linejoin:miter;stroke-width:0.8;"/>
   </g>
   <g id="patch_4">
    <path d="M 442.035 303.64 
L 442.035 10.8 
" style="fill:none;stroke:#000000;stroke-linecap:square;stroke-linejoin:miter;stroke-width:0.8;"/>
   </g>
   <g id="patch_5">
    <path d="M 50.258 303.64 
L 442.035 303.64 
" style="fill:none;stroke:#000000;stroke-linecap:square;stroke-linejoin:miter;stroke-width:0.8;"/>
   </g>
   <g id="patch_6">
    <path d="M 50.258 10.8 
L 442.035 10.8 
" style="fill:none;stroke:#000000;stroke-linecap:square;stroke-linejoin:miter;stroke-width:0.8;"/>
   </g>
   <g id="legend_1">
    <g id="patch_7">
     <path d="M 334.324062 106.86875 
L 435.035 106.86875 
Q 437.035 106.86875 437.035 104.86875 
L 437.035 17.8 
Q 437.035 15.8 435.035 15.8 
L 334.324062 15.8 
Q 332.324062 15.8 332.324062 17.8 
L 332.324062 104.86875 
Q 332.324062 106.86875 334.324062 106.86875 
z
" style="fill:#ffffff;opacity:0.8;stroke:#cccccc;stroke-linejoin:miter;"/>
    </g>
    <g id="line2d_19">
     <path d="M 336.324062 23.898438 
L 356.324062 23.898438 
" style="fill:none;stroke:#1f77b4;stroke-linecap:square;stroke-width:2;"/>
    </g>
    <g id="line2d_20"/>
    <g id="text_15">
     <!-- Exact -->
     <g transform="translate(364.324062 27.398438)scale(0.1 -0.1)">
      <defs>
       <path d="M 9.8125 72.90625 
L 55.90625 72.90625 
L 55.90625 64.59375 
L 19.671875 64.59375 
L 19.671875 43.015625 
L 54.390625 43.015625 
L 54.390625 34.71875 
L 19.671875 34.71875 
L 19.671875 8.296875 
L 56.78125 8.296875 
L 56.78125 0 
L 9.8125 0 
z
" id="DejaVuSans-69"/>
       <path d="M 54.890625 54.6875 
L 35.109375 28.078125 
L 55.90625 0 
L 45.3125 0 
L 29.390625 21.484375 
L 13.484375 0 
L 2.875 0 
L 24.125 28.609375 
L 4.6875 54.6875 
L 15.28125 54.6875 
L 29.78125 35.203125 
L 44.28125 54.6875 
z
" id="DejaVuSans-120"/>
       <path d="M 48.78125 52.59375 
L 48.78125 44.1875 
Q 44.96875 46.296875 41.140625 47.34375 
Q 37.3125 48.390625 33.40625 48.390625 
Q 24.65625 48.390625 19.8125 42.84375 
Q 14.984375 37.3125 14.984375 27.296875 
Q 14.984375 17.28125 19.8125 11.734375 
Q 24.65625 6.203125 33.40625 6.203125 
Q 37.3125 6.203125 41.140625 7.25 
Q 44.96875 8.296875 48.78125 10.40625 
L 48.78125 2.09375 
Q 45.015625 0.34375 40.984375 -0.53125 
Q 36.96875 -1.421875 32.421875 -1.421875 
Q 20.0625 -1.421875 12.78125 6.34375 
Q 5.515625 14.109375 5.515625 27.296875 
Q 5.515625 40.671875 12.859375 48.328125 
Q 20.21875 56 33.015625 56 
Q 37.15625 56 41.109375 55.140625 
Q 45.0625 54.296875 48.78125 52.59375 
z
" id="DejaVuSans-99"/>
       <path d="M 18.3125 70.21875 
L 18.3125 54.6875 
L 36.8125 54.6875 
L 36.8125 47.703125 
L 18.3125 47.703125 
L 18.3125 18.015625 
Q 18.3125 11.328125 20.140625 9.421875 
Q 21.96875 7.515625 27.59375 7.515625 
L 36.8125 7.515625 
L 36.8125 0 
L 27.59375 0 
Q 17.1875 0 13.234375 3.875 
Q 9.28125 7.765625 9.28125 18.015625 
L 9.28125 47.703125 
L 2.6875 47.703125 
L 2.6875 54.6875 
L 9.28125 54.6875 
L 9.28125 70.21875 
z
" id="DejaVuSans-116"/>
      </defs>
      <use xlink:href="#DejaVuSans-69"/>
      <use x="63.183594" xlink:href="#DejaVuSans-120"/>
      <use x="122.363281" xlink:href="#DejaVuSans-97"/>
      <use x="183.642578" xlink:href="#DejaVuSans-99"/>
      <use x="238.623047" xlink:href="#DejaVuSans-116"/>
     </g>
    </g>
    <g id="line2d_21">
     <path d="M 336.324062 38.576563 
L 356.324062 38.576563 
" style="fill:none;stroke:#ff7f0e;stroke-dasharray:1.5,2.475;stroke-dashoffset:0;stroke-width:1.5;"/>
    </g>
    <g id="line2d_22"/>
    <g id="text_16">
     <!-- 10 elements -->
     <g transform="translate(364.324062 42.076563)scale(0.1 -0.1)">
      <defs>
       <path d="M 56.203125 29.59375 
L 56.203125 25.203125 
L 14.890625 25.203125 
Q 15.484375 15.921875 20.484375 11.0625 
Q 25.484375 6.203125 34.421875 6.203125 
Q 39.59375 6.203125 44.453125 7.46875 
Q 49.3125 8.734375 54.109375 11.28125 
L 54.109375 2.78125 
Q 49.265625 0.734375 44.1875 -0.34375 
Q 39.109375 -1.421875 33.890625 -1.421875 
Q 20.796875 -1.421875 13.15625 6.1875 
Q 5.515625 13.8125 5.515625 26.8125 
Q 5.515625 40.234375 12.765625 48.109375 
Q 20.015625 56 32.328125 56 
Q 43.359375 56 49.78125 48.890625 
Q 56.203125 41.796875 56.203125 29.59375 
z
M 47.21875 32.234375 
Q 47.125 39.59375 43.09375 43.984375 
Q 39.0625 48.390625 32.421875 48.390625 
Q 24.90625 48.390625 20.390625 44.140625 
Q 15.875 39.890625 15.1875 32.171875 
z
" id="DejaVuSans-101"/>
       <path d="M 9.421875 75.984375 
L 18.40625 75.984375 
L 18.40625 0 
L 9.421875 0 
z
" id="DejaVuSans-108"/>
       <path d="M 52 44.1875 
Q 55.375 50.25 60.0625 53.125 
Q 64.75 56 71.09375 56 
Q 79.640625 56 84.28125 50.015625 
Q 88.921875 44.046875 88.921875 33.015625 
L 88.921875 0 
L 79.890625 0 
L 79.890625 32.71875 
Q 79.890625 40.578125 77.09375 44.375 
Q 74.3125 48.1875 68.609375 48.1875 
Q 61.625 48.1875 57.5625 43.546875 
Q 53.515625 38.921875 53.515625 30.90625 
L 53.515625 0 
L 44.484375 0 
L 44.484375 32.71875 
Q 44.484375 40.625 41.703125 44.40625 
Q 38.921875 48.1875 33.109375 48.1875 
Q 26.21875 48.1875 22.15625 43.53125 
Q 18.109375 38.875 18.109375 30.90625 
L 18.109375 0 
L 9.078125 0 
L 9.078125 54.6875 
L 18.109375 54.6875 
L 18.109375 46.1875 
Q 21.1875 51.21875 25.484375 53.609375 
Q 29.78125 56 35.6875 56 
Q 41.65625 56 45.828125 52.96875 
Q 50 49.953125 52 44.1875 
z
" id="DejaVuSans-109"/>
       <path d="M 44.28125 53.078125 
L 44.28125 44.578125 
Q 40.484375 46.53125 36.375 47.5 
Q 32.28125 48.484375 27.875 48.484375 
Q 21.1875 48.484375 17.84375 46.4375 
Q 14.5 44.390625 14.5 40.28125 
Q 14.5 37.15625 16.890625 35.375 
Q 19.28125 33.59375 26.515625 31.984375 
L 29.59375 31.296875 
Q 39.15625 29.25 43.1875 25.515625 
Q 47.21875 21.78125 47.21875 15.09375 
Q 47.21875 7.46875 41.1875 3.015625 
Q 35.15625 -1.421875 24.609375 -1.421875 
Q 20.21875 -1.421875 15.453125 -0.5625 
Q 10.6875 0.296875 5.421875 2 
L 5.421875 11.28125 
Q 10.40625 8.6875 15.234375 7.390625 
Q 20.0625 6.109375 24.8125 6.109375 
Q 31.15625 6.109375 34.5625 8.28125 
Q 37.984375 10.453125 37.984375 14.40625 
Q 37.984375 18.0625 35.515625 20.015625 
Q 33.0625 21.96875 24.703125 23.78125 
L 21.578125 24.515625 
Q 13.234375 26.265625 9.515625 29.90625 
Q 5.8125 33.546875 5.8125 39.890625 
Q 5.8125 47.609375 11.28125 51.796875 
Q 16.75 56 26.8125 56 
Q 31.78125 56 36.171875 55.265625 
Q 40.578125 54.546875 44.28125 53.078125 
z
" id="DejaVuSans-115"/>
      </defs>
      <use xlink:href="#DejaVuSans-49"/>
      <use x="63.623047" xlink:href="#DejaVuSans-48"/>
      <use x="127.246094" xlink:href="#DejaVuSans-32"/>
      <use x="159.033203" xlink:href="#DejaVuSans-101"/>
      <use x="220.556641" xlink:href="#DejaVuSans-108"/>
      <use x="248.339844" xlink:href="#DejaVuSans-101"/>
      <use x="309.863281" xlink:href="#DejaVuSans-109"/>
      <use x="407.275391" xlink:href="#DejaVuSans-101"/>
      <use x="468.798828" xlink:href="#DejaVuSans-110"/>
      <use x="532.177734" xlink:href="#DejaVuSans-116"/>
      <use x="571.386719" xlink:href="#DejaVuSans-115"/>
     </g>
    </g>
    <g id="line2d_23">
     <path d="M 336.324062 53.254688 
L 356.324062 53.254688 
" style="fill:none;stroke:#2ca02c;stroke-dasharray:1.5,2.475;stroke-dashoffset:0;stroke-width:1.5;"/>
    </g>
    <g id="line2d_24"/>
    <g id="text_17">
     <!-- 25 elements -->
     <g transform="translate(364.324062 56.754688)scale(0.1 -0.1)">
      <defs>
       <path d="M 10.796875 72.90625 
L 49.515625 72.90625 
L 49.515625 64.59375 
L 19.828125 64.59375 
L 19.828125 46.734375 
Q 21.96875 47.46875 24.109375 47.828125 
Q 26.265625 48.1875 28.421875 48.1875 
Q 40.625 48.1875 47.75 41.5 
Q 54.890625 34.8125 54.890625 23.390625 
Q 54.890625 11.625 47.5625 5.09375 
Q 40.234375 -1.421875 26.90625 -1.421875 
Q 22.3125 -1.421875 17.546875 -0.640625 
Q 12.796875 0.140625 7.71875 1.703125 
L 7.71875 11.625 
Q 12.109375 9.234375 16.796875 8.0625 
Q 21.484375 6.890625 26.703125 6.890625 
Q 35.15625 6.890625 40.078125 11.328125 
Q 45.015625 15.765625 45.015625 23.390625 
Q 45.015625 31 40.078125 35.4375 
Q 35.15625 39.890625 26.703125 39.890625 
Q 22.75 39.890625 18.8125 39.015625 
Q 14.890625 38.140625 10.796875 36.28125 
z
" id="DejaVuSans-53"/>
      </defs>
      <use xlink:href="#DejaVuSans-50"/>
      <use x="63.623047" xlink:href="#DejaVuSans-53"/>
      <use x="127.246094" xlink:href="#DejaVuSans-32"/>
      <use x="159.033203" xlink:href="#DejaVuSans-101"/>
      <use x="220.556641" xlink:href="#DejaVuSans-108"/>
      <use x="248.339844" xlink:href="#DejaVuSans-101"/>
      <use x="309.863281" xlink:href="#DejaVuSans-109"/>
      <use x="407.275391" xlink:href="#DejaVuSans-101"/>
      <use x="468.798828" xlink:href="#DejaVuSans-110"/>
      <use x="532.177734" xlink:href="#DejaVuSans-116"/>
      <use x="571.386719" xlink:href="#DejaVuSans-115"/>
     </g>
    </g>
    <g id="line2d_25">
     <path d="M 336.324062 67.932813 
L 356.324062 67.932813 
" style="fill:none;stroke:#d62728;stroke-dasharray:1.5,2.475;stroke-dashoffset:0;stroke-width:1.5;"/>
    </g>
    <g id="line2d_26"/>
    <g id="text_18">
     <!-- 50 elements -->
     <g transform="translate(364.324062 71.432813)scale(0.1 -0.1)">
      <use xlink:href="#DejaVuSans-53"/>
      <use x="63.623047" xlink:href="#DejaVuSans-48"/>
      <use x="127.246094" xlink:href="#DejaVuSans-32"/>
      <use x="159.033203" xlink:href="#DejaVuSans-101"/>
      <use x="220.556641" xlink:href="#DejaVuSans-108"/>
      <use x="248.339844" xlink:href="#DejaVuSans-101"/>
      <use x="309.863281" xlink:href="#DejaVuSans-109"/>
      <use x="407.275391" xlink:href="#DejaVuSans-101"/>
      <use x="468.798828" xlink:href="#DejaVuSans-110"/>
      <use x="532.177734" xlink:href="#DejaVuSans-116"/>
      <use x="571.386719" xlink:href="#DejaVuSans-115"/>
     </g>
    </g>
    <g id="line2d_27">
     <path d="M 336.324062 82.610938 
L 356.324062 82.610938 
" style="fill:none;stroke:#9467bd;stroke-dasharray:1.5,2.475;stroke-dashoffset:0;stroke-width:1.5;"/>
    </g>
    <g id="line2d_28"/>
    <g id="text_19">
     <!-- 100 elements -->
     <g transform="translate(364.324062 86.110938)scale(0.1 -0.1)">
      <use xlink:href="#DejaVuSans-49"/>
      <use x="63.623047" xlink:href="#DejaVuSans-48"/>
      <use x="127.246094" xlink:href="#DejaVuSans-48"/>
      <use x="190.869141" xlink:href="#DejaVuSans-32"/>
      <use x="222.65625" xlink:href="#DejaVuSans-101"/>
      <use x="284.179688" xlink:href="#DejaVuSans-108"/>
      <use x="311.962891" xlink:href="#DejaVuSans-101"/>
      <use x="373.486328" xlink:href="#DejaVuSans-109"/>
      <use x="470.898438" xlink:href="#DejaVuSans-101"/>
      <use x="532.421875" xlink:href="#DejaVuSans-110"/>
      <use x="595.800781" xlink:href="#DejaVuSans-116"/>
      <use x="635.009766" xlink:href="#DejaVuSans-115"/>
     </g>
    </g>
    <g id="line2d_29">
     <path d="M 336.324062 97.289063 
L 356.324062 97.289063 
" style="fill:none;stroke:#8c564b;stroke-dasharray:1.5,2.475;stroke-dashoffset:0;stroke-width:1.5;"/>
    </g>
    <g id="line2d_30"/>
    <g id="text_20">
     <!-- 200 elements -->
     <g transform="translate(364.324062 100.789063)scale(0.1 -0.1)">
      <use xlink:href="#DejaVuSans-50"/>
      <use x="63.623047" xlink:href="#DejaVuSans-48"/>
      <use x="127.246094" xlink:href="#DejaVuSans-48"/>
      <use x="190.869141" xlink:href="#DejaVuSans-32"/>
      <use x="222.65625" xlink:href="#DejaVuSans-101"/>
      <use x="284.179688" xlink:href="#DejaVuSans-108"/>
      <use x="311.962891" xlink:href="#DejaVuSans-101"/>
      <use x="373.486328" xlink:href="#DejaVuSans-109"/>
      <use x="470.898438" xlink:href="#DejaVuSans-101"/>
      <use x="532.421875" xlink:href="#DejaVuSans-110"/>
      <use x="595.800781" xlink:href="#DejaVuSans-116"/>
      <use x="635.009766" xlink:href="#DejaVuSans-115"/>
     </g>
    </g>
   </g>
  </g>
 </g>
 <defs>
  <clipPath id="pafd2293a3e">
   <rect height="292.84" width="391.777" x="50.258" y="10.8"/>
  </clipPath>
 </defs>
</svg>
